<?xml version="1.0" encoding="UTF-8"?>
<svg xmlns="http://www.w3.org/2000/svg" xmlns:xlink="http://www.w3.org/1999/xlink" width="120.07pt" height="272.23pt" viewBox="0 0 120.07 272.23" version="1.1">
<g id="surface1">
<path style=" stroke:none;fill-rule:evenodd;fill:rgb(100%,100%,100%);fill-opacity:1;" d="M 111.820313 8.285156 C 106.734375 3.199219 99.632813 -0.00390625 91.867188 -0.00390625 L 28.195313 -0.00390625 C 20.433594 -0.00390625 13.332031 3.199219 8.242188 8.285156 C 3.15625 13.371094 0 20.433594 0 28.238281 L 0 244.035156 C 0 251.792969 3.15625 258.898438 8.242188 263.941406 C 13.332031 269.074219 20.433594 272.230469 28.195313 272.230469 L 91.824219 272.230469 C 99.585938 272.230469 106.691406 269.074219 111.777344 263.984375 C 116.910156 258.941406 120.066406 251.792969 120.066406 244.035156 L 120.066406 28.238281 C 120.066406 20.433594 116.910156 13.371094 111.820313 8.285156 "/>
<path style=" stroke:none;fill-rule:evenodd;fill:rgb(84.298706%,24.699402%,32.499695%);fill-opacity:1;" d="M 76.082031 49.902344 L 76.171875 50.824219 C 78.101563 51.960938 79.109375 52.882813 81.082031 54.15625 C 86.257813 57.445313 92.613281 63.277344 91.824219 83.316406 C 93.316406 87.699219 93.972656 96.253906 95.289063 98.972656 C 97.964844 104.367188 99.808594 107.875 100.597656 112.917969 C 100.597656 112.917969 101.386719 120.808594 102.394531 121.378906 C 107.742188 122.609375 106.210938 123.132813 106.953125 124.097656 C 107.789063 125.152344 110.902344 125.105469 110.902344 128 C 111.996094 129.449219 112.832031 130.894531 113.402344 132.472656 L 113.402344 28.238281 C 113.402344 16.3125 103.753906 6.664063 91.867188 6.664063 L 71.300781 6.664063 C 74.59375 7.847656 76.476563 9.25 77.574219 11.441406 C 80.203125 11.664063 83.320313 17.582031 78.449219 26.398438 C 80.597656 27.886719 78.933594 30.082031 77.398438 32.578125 C 76.917969 33.367188 76.433594 34.816406 74.988281 34.730469 C 73.058594 38.71875 70.820313 42.492188 69.109375 42.710938 C 68.628906 43.324219 68.277344 45.035156 69.023438 45.824219 C 71.523438 46.964844 74.546875 48.453125 76.082031 49.902344 "/>
<path style=" stroke:none;fill-rule:evenodd;fill:rgb(84.298706%,24.699402%,32.499695%);fill-opacity:1;" d="M 95.289063 265.300781 L 95.070313 265.347656 C 104.5 259.601563 98.667969 248.726563 96.867188 242.324219 L 97.21875 241.226563 C 97.703125 240.351563 96.695313 238.289063 96.695313 238.289063 C 95.507813 237.324219 95.246094 231.976563 94.632813 229.519531 C 93.625 225.527344 96.429688 218.554688 96.429688 216.1875 C 96.429688 213.820313 94.632813 210.574219 91.386719 206.453125 C 90.597656 205.53125 88.230469 185.316406 86.125 180.1875 C 83.1875 173.125 82.308594 174.265625 78.800781 165.800781 C 76.125 159.882813 78.230469 151.15625 72.179688 130.894531 L 73.539063 129.625 C 73.539063 129.625 68.714844 111.996094 67.136719 107.171875 C 65.601563 102.347656 62.753906 102.039063 62.753906 102.039063 L 62.925781 99.542969 C 63.148438 98.796875 68.804688 84.105469 69.285156 83.621094 C 69.328125 83.316406 77.441406 77.746094 77.574219 78.582031 C 78.230469 82.175781 81.390625 100.464844 82.75 103.355469 C 84.105469 106.296875 88.800781 115.238281 90.949219 120.808594 C 82.574219 122.871094 76.300781 130.457031 76.300781 139.445313 C 76.300781 150.058594 84.898438 158.699219 95.507813 158.699219 C 103.621094 158.699219 110.636719 153.65625 113.445313 146.550781 L 113.402344 244.035156 C 113.402344 254.820313 105.640625 263.722656 95.289063 265.300781 "/>
<path style=" stroke:none;fill-rule:evenodd;fill:rgb(4.299927%,42.698669%,70.199585%);fill-opacity:1;" d="M 27.714844 6.664063 L 27.714844 49.683594 C 25.785156 52.226563 23.722656 55.820313 21.179688 60.953125 C 21.179688 60.953125 18.855469 66.695313 18.15625 69.066406 C 15.917969 73.757813 10.4375 84.148438 8.8125 90.816406 C 8.289063 93.097656 7.28125 93.796875 8.726563 97.085938 C 10.875 101.820313 7.324219 103.050781 19.515625 102.699219 L 19.515625 105.507813 C 19.515625 105.507813 16.269531 108.3125 15.566406 109.976563 C 14.910156 111.6875 13.023438 120.0625 13.113281 124.054688 C 13.332031 134.449219 21.792969 143.128906 24.292969 153.480469 L 27.714844 153.960938 L 27.714844 226.363281 L 25.433594 218.378906 L 18.15625 218.378906 L 18.15625 250.65625 L 24.601563 250.65625 L 24.601563 230.703125 L 24.6875 230.703125 L 24.820313 231.84375 L 27.714844 242.324219 L 27.714844 265.566406 C 16.050781 265.300781 6.621094 255.742188 6.621094 244.035156 L 6.621094 28.238281 C 6.621094 16.441406 16.050781 6.925781 27.714844 6.664063 Z M 49.550781 236.402344 L 47.492188 236.402344 L 47.492188 245.175781 L 49.550781 245.175781 Z M 49.550781 223.863281 L 47.492188 223.863281 L 47.492188 231.140625 L 49.550781 231.140625 Z M 49.550781 183.429688 L 49.550781 218.378906 L 39.816406 218.378906 L 39.816406 250.65625 L 49.550781 250.65625 L 49.550781 265.566406 L 28.195313 265.566406 C 28.023438 265.566406 27.890625 265.566406 27.714844 265.566406 L 27.714844 242.324219 L 30.039063 250.65625 L 37.316406 250.65625 L 37.316406 218.378906 L 30.871094 218.378906 L 30.871094 237.410156 L 30.785156 237.410156 L 30.566406 236.097656 L 27.714844 226.363281 L 27.714844 153.960938 L 29.953125 154.269531 C 33.019531 161.328125 46.4375 180.359375 49.550781 183.429688 Z M 49.550781 6.664063 L 49.550781 41.699219 C 48.324219 41.832031 46.832031 41.921875 44.992188 42.007813 L 44.421875 42.796875 C 36.617188 43.542969 32.714844 43.015625 27.714844 49.683594 L 27.714844 6.664063 C 27.890625 6.664063 28.023438 6.664063 28.195313 6.664063 Z M 49.550781 41.699219 L 49.550781 6.664063 L 64.550781 6.664063 C 57.535156 9.382813 56.570313 12.40625 56.304688 22.144531 C 55.121094 22.273438 52.664063 21.136719 53.5 27.054688 C 53.5 27.054688 53.9375 31 55.515625 30.34375 C 54.289063 38.9375 55.253906 41 49.550781 41.699219 Z M 49.550781 231.140625 L 49.550781 223.863281 L 49.816406 223.863281 C 51.65625 223.863281 52.097656 225.132813 52.097656 227.371094 C 52.097656 229.386719 51.878906 231.140625 49.550781 231.140625 Z M 49.550781 245.175781 L 49.550781 236.402344 L 49.859375 236.402344 C 52.183594 236.402344 52.445313 238.550781 52.445313 240.746094 C 52.445313 243.945313 52.183594 245.175781 49.683594 245.175781 Z M 70.292969 223.246094 L 70.292969 238.507813 L 68.320313 238.507813 L 70.207031 224.035156 L 70.207031 223.246094 Z M 70.292969 243.59375 L 67.578125 243.59375 L 66.785156 250.65625 L 59.417969 250.65625 L 65.339844 218.378906 L 70.292969 218.378906 L 70.292969 202.988281 C 62.753906 197.15625 57.09375 191.015625 55.867188 189.832031 C 53.851563 187.597656 50.386719 185.359375 49.683594 183.5625 C 49.640625 183.519531 49.597656 183.472656 49.550781 183.429688 L 49.550781 218.378906 L 50.386719 218.378906 C 55.78125 218.378906 58.410156 220.441406 58.410156 225.96875 C 58.410156 229.386719 57.929688 232.367188 54.332031 233.597656 L 54.332031 233.640625 C 57.929688 234.296875 59.242188 237.015625 59.242188 241.050781 C 59.242188 246.488281 57.226563 250.65625 50.605469 250.65625 L 49.550781 250.65625 L 49.550781 265.566406 L 70.292969 265.566406 Z M 70.292969 238.507813 L 70.292969 223.246094 L 70.339844 223.246094 L 70.339844 224.035156 L 72.046875 238.507813 Z M 73.453125 250.65625 L 72.75 243.59375 L 70.292969 243.59375 L 70.292969 265.566406 L 91.867188 265.566406 C 84.589844 261.617188 88.929688 254.164063 89.152344 239.910156 C 85.6875 236.796875 88.011719 235.527344 87.878906 234.253906 C 85.597656 224.828125 78.101563 219.125 81.960938 216.011719 C 80.992188 212.855469 79.066406 208.996094 79.152344 209.039063 C 76.039063 207.242188 73.058594 205.136719 70.292969 202.988281 L 70.292969 218.378906 L 75.207031 218.378906 L 81.257813 250.65625 L 73.453125 250.65625 "/>
</g>
</svg>
