<?xml version="1.0" encoding="UTF-8"?>
<svg xmlns="http://www.w3.org/2000/svg" xmlns:xlink="http://www.w3.org/1999/xlink" width="183pt" height="184pt" viewBox="0 0 183 184" version="1.1">
<g id="surface1">
<path style=" stroke:none;fill-rule:nonzero;fill:rgb(87.889099%,22.75238%,24.31488%);fill-opacity:1;" d="M 91.171875 183 C 40.859375 183 0 142.140625 0 91.921875 C 0.03125 41.582031 40.832031 0.78125 91.171875 0.75 C 141.390625 0.75 182.25 41.609375 182.25 91.921875 C 182.191406 142.199219 141.449219 182.941406 91.171875 183 Z M 91.171875 183 "/>
<path style=" stroke:none;fill-rule:nonzero;fill:rgb(100%,100%,100%);fill-opacity:1;" d="M 91.171875 178.859375 C 56.007813 178.859375 24.304688 157.679688 10.847656 125.191406 C -2.609375 92.703125 4.828125 55.308594 29.695313 30.445313 C 54.558594 5.578125 91.953125 -1.859375 124.441406 11.597656 C 156.929688 25.054688 178.109375 56.757813 178.109375 91.921875 C 178.109375 139.800781 139.050781 178.859375 91.171875 178.859375 Z M 91.171875 178.859375 "/>
<path style=" stroke:none;fill-rule:nonzero;fill:rgb(87.889099%,22.75238%,24.31488%);fill-opacity:1;" d="M 91.171875 174.628906 C 57.71875 174.628906 27.558594 154.476563 14.757813 123.570313 C 1.953125 92.664063 9.03125 57.089844 32.683594 33.433594 C 56.339844 9.78125 91.914063 2.703125 122.820313 15.507813 C 153.726563 28.308594 173.878906 58.46875 173.878906 91.921875 C 173.84375 137.585938 136.835938 174.59375 91.171875 174.628906 Z M 91.171875 174.628906 "/>
<path style=" stroke:none;fill-rule:nonzero;fill:rgb(100%,100%,100%);fill-opacity:1;" d="M 61.648438 21.988281 L 63.179688 25.589844 L 58.769531 23.25 L 56.25 24.421875 L 61.378906 36.03125 L 63.898438 34.949219 L 60.660156 27.570313 L 65.160156 30 L 66.78125 33.691406 L 69.300781 32.609375 L 64.078125 20.910156 Z M 61.648438 21.988281 "/>
<path style=" stroke:none;fill-rule:nonzero;fill:rgb(100%,100%,100%);fill-opacity:1;" d="M 115.738281 20.011719 L 113.851563 26.039063 L 110.789063 25.050781 L 112.769531 19.109375 L 110.160156 18.300781 L 108.269531 24.238281 L 107.371094 23.96875 L 107.730469 25.769531 L 106.289063 30.449219 L 108.898438 31.261719 L 110.070313 27.390625 L 113.128906 28.378906 L 111.871094 32.25 L 114.480469 33.058594 L 118.351563 20.910156 Z M 115.738281 20.011719 "/>
<path style=" stroke:none;fill-rule:nonzero;fill:rgb(100%,100%,100%);fill-opacity:1;" d="M 158.128906 55.648438 C 157.679688 54.839844 157.140625 54.121094 156.691406 53.308594 C 154.820313 54.367188 152.824219 55.183594 150.75 55.738281 L 149.671875 54.03125 L 154.980469 50.699219 L 153.539063 48.359375 L 148.230469 51.78125 L 147.691406 50.96875 L 146.878906 52.589844 L 142.738281 55.289063 L 144.179688 57.539063 L 147.601563 55.378906 L 148.949219 57.359375 C 148.03125 58.421875 147.003906 59.386719 145.890625 60.238281 C 146.429688 60.960938 146.878906 61.769531 147.421875 62.488281 C 148.230469 61.859375 150.75 59.609375 151.289063 58.261719 C 153.683594 57.730469 155.988281 56.851563 158.128906 55.648438 Z M 158.128906 55.648438 "/>
<path style=" stroke:none;fill-rule:nonzero;fill:rgb(100%,100%,100%);fill-opacity:1;" d="M 161.550781 63.121094 C 159.644531 63.171875 157.773438 63.632813 156.058594 64.46875 L 155.339844 71.128906 C 154.800781 71.308594 154.261719 71.398438 153.71875 71.578125 L 152.550781 68.789063 L 153.539063 68.339844 L 152.550781 65.820313 L 149.308594 67.078125 C 149.308594 67.078125 152.101563 74.101563 152.191406 74.460938 C 154.195313 74.347656 156.15625 73.828125 157.949219 72.929688 L 158.578125 66.359375 C 159.046875 66.199219 159.53125 66.078125 160.019531 66 L 161.101563 68.789063 L 160.199219 69.238281 L 161.191406 71.761719 L 164.339844 70.5 C 164.339844 70.5 161.730469 63.660156 161.550781 63.121094 Z M 161.550781 63.121094 "/>
<path style=" stroke:none;fill-rule:nonzero;fill:rgb(100%,100%,100%);fill-opacity:1;" d="M 24.121094 55.828125 L 26.191406 57.089844 L 27.71875 54.570313 L 36.628906 59.96875 L 37.980469 57.628906 L 29.160156 52.230469 L 30.691406 49.710938 L 28.621094 48.449219 Z M 24.121094 55.828125 "/>
<path style=" stroke:none;fill-rule:nonzero;fill:rgb(100%,100%,100%);fill-opacity:1;" d="M 71.011719 18.570313 L 71.550781 20.910156 L 74.429688 20.28125 L 76.769531 30.359375 L 79.378906 29.730469 L 77.128906 19.648438 L 80.011719 19.019531 L 79.46875 16.589844 Z M 71.011719 18.570313 "/>
<path style=" stroke:none;fill-rule:nonzero;fill:rgb(100%,100%,100%);fill-opacity:1;" d="M 34.828125 40.890625 L 33.03125 42.871094 L 42.480469 51.511719 L 46.890625 46.648438 L 45.089844 45.03125 L 42.480469 47.820313 Z M 34.828125 40.890625 "/>
<path style=" stroke:none;fill-rule:nonzero;fill:rgb(100%,100%,100%);fill-opacity:1;" d="M 21.871094 67.261719 L 22.5 65.460938 C 23.8125 65.5625 25.109375 65.800781 26.371094 66.179688 L 25.289063 69.148438 C 24.070313 68.679688 22.917969 68.042969 21.871094 67.261719 Z M 33.390625 65.820313 L 27.539063 63.75 C 25.371094 63.019531 23.070313 62.742188 20.789063 62.941406 C 20.789063 63.03125 19.078125 67.890625 18.988281 68.160156 C 20.554688 69.683594 22.382813 70.902344 24.390625 71.761719 L 24.03125 72.570313 L 25.828125 72.300781 L 30.421875 73.921875 L 31.320313 71.398438 L 27.539063 70.050781 L 28.621094 66.988281 L 32.398438 68.429688 Z M 33.390625 65.820313 "/>
<path style=" stroke:none;fill-rule:nonzero;fill:rgb(100%,100%,100%);fill-opacity:1;" d="M 127.171875 27.839844 L 128.789063 28.738281 C 128.503906 30.023438 128.050781 31.265625 127.441406 32.429688 L 124.648438 30.898438 C 125.363281 29.78125 126.207031 28.753906 127.171875 27.839844 Z M 126.539063 39.359375 L 129.601563 34.050781 C 130.726563 32.0625 131.402344 29.847656 131.578125 27.570313 C 131.488281 27.570313 127.078125 24.960938 126.808594 24.871094 C 125.023438 26.128906 123.496094 27.71875 122.308594 29.550781 L 121.5 29.011719 L 121.5 30.898438 L 119.070313 35.039063 L 121.410156 36.480469 L 123.480469 32.96875 L 126.179688 34.589844 L 124.199219 38.011719 Z M 126.539063 39.359375 "/>
<path style=" stroke:none;fill-rule:nonzero;fill:rgb(100%,100%,100%);fill-opacity:1;" d="M 46.261719 33.601563 L 47.699219 32.519531 C 48.765625 33.300781 49.730469 34.207031 50.578125 35.21875 L 48.058594 37.109375 C 47.320313 36.019531 46.714844 34.839844 46.261719 33.601563 Z M 56.699219 38.640625 L 52.921875 33.78125 C 51.5 31.992188 49.722656 30.519531 47.699219 29.460938 C 47.609375 29.550781 43.558594 32.609375 43.289063 32.789063 C 43.789063 34.914063 44.671875 36.925781 45.898438 38.730469 L 45.179688 39.359375 L 46.890625 39.988281 L 49.859375 43.859375 L 52.019531 42.238281 L 49.589844 39 L 52.109375 37.109375 L 54.539063 40.351563 Z M 56.699219 38.640625 "/>
<path style=" stroke:none;fill-rule:nonzero;fill:rgb(100%,100%,100%);fill-opacity:1;" d="M 91.53125 22.261719 L 88.378906 22.261719 C 88.382813 20.953125 88.5625 19.648438 88.921875 18.390625 L 90.808594 18.390625 C 91.1875 19.652344 91.429688 20.949219 91.53125 22.261719 Z M 88.378906 28.738281 L 88.378906 24.691406 L 91.53125 24.691406 L 91.53125 28.648438 L 94.320313 28.648438 L 94.230469 23.789063 L 95.128906 22.171875 L 94.230469 22.171875 C 94.117188 19.984375 93.566406 17.839844 92.609375 15.871094 C 92.339844 15.871094 87.210938 15.960938 87.121094 15.960938 C 86.144531 18.015625 85.625 20.253906 85.589844 22.53125 L 85.679688 28.738281 Z M 88.378906 28.738281 "/>
<path style=" stroke:none;fill-rule:nonzero;fill:rgb(100%,100%,100%);fill-opacity:1;" d="M 146.96875 40.351563 L 142.828125 44.578125 C 141.800781 45.675781 140.621094 46.617188 139.320313 47.371094 L 138.511719 46.558594 C 139.105469 45.203125 139.925781 43.953125 140.941406 42.871094 L 145.078125 38.550781 L 143.191406 36.660156 L 139.050781 40.890625 C 137.933594 41.910156 136.695313 42.785156 135.359375 43.5 L 134.550781 42.691406 C 135.242188 41.371094 136.121094 40.15625 137.160156 39.089844 L 141.300781 34.859375 L 139.320313 32.96875 L 135.089844 37.378906 C 133.511719 39.019531 132.3125 40.984375 131.578125 43.140625 C 131.578125 43.230469 134.730469 46.199219 134.910156 46.378906 C 135.269531 46.289063 135.628906 46.109375 135.988281 46.019531 C 135.808594 46.378906 135.71875 46.738281 135.539063 47.101563 C 135.71875 47.28125 138.871094 50.25 138.871094 50.339844 C 141.035156 49.542969 143 48.285156 144.628906 46.648438 L 148.949219 42.238281 Z M 146.96875 40.351563 "/>
<path style=" stroke:none;fill-rule:nonzero;fill:rgb(100%,100%,100%);fill-opacity:1;" d="M 37.800781 126.121094 C 36.003906 126.652344 34.34375 127.574219 32.941406 128.820313 L 34.019531 135.480469 C 33.480469 135.75 33.03125 136.019531 32.488281 136.289063 L 30.691406 133.859375 L 31.5 133.320313 L 29.878906 131.160156 L 27.179688 133.140625 C 27.179688 133.140625 31.679688 139.171875 31.859375 139.441406 C 34.109375 138.808594 35.371094 137.730469 37.078125 136.46875 L 35.910156 129.988281 C 36.296875 129.699219 36.722656 129.457031 37.171875 129.269531 L 38.96875 131.699219 L 38.160156 132.238281 L 39.78125 134.488281 L 42.570313 132.421875 C 42.570313 132.421875 38.070313 126.480469 37.800781 126.121094 Z M 37.800781 126.121094 "/>
<path style=" stroke:none;fill-rule:nonzero;fill:rgb(100%,100%,100%);fill-opacity:1;" d="M 66.871094 150.421875 L 66.148438 152.761719 L 68.941406 153.660156 L 65.519531 163.46875 L 68.128906 164.371094 L 71.460938 154.558594 L 74.25 155.550781 L 75.058594 153.210938 Z M 66.871094 150.421875 "/>
<path style=" stroke:none;fill-rule:nonzero;fill:rgb(100%,100%,100%);fill-opacity:1;" d="M 18.898438 105.511719 L 21.601563 104.96875 L 22.140625 107.398438 C 21.238281 107.761719 20.339844 108.121094 19.53125 108.390625 Z M 26.640625 103.890625 L 27.269531 106.859375 C 26.34375 106.980469 25.410156 107.011719 24.480469 106.949219 L 23.941406 104.519531 Z M 30.238281 109.109375 C 30.148438 108.480469 28.441406 100.738281 28.441406 100.738281 L 23.398438 101.820313 L 23.21875 100.828125 L 21.78125 102.179688 L 15.929688 103.441406 C 15.929688 103.441406 17.640625 111.089844 17.730469 111.628906 C 19.84375 111.25 21.882813 110.519531 23.761719 109.46875 C 25.921875 109.789063 28.125 109.667969 30.238281 109.109375 Z M 30.238281 109.109375 "/>
<path style=" stroke:none;fill-rule:nonzero;fill:rgb(100%,100%,100%);fill-opacity:1;" d="M 62.28125 150.960938 L 63.539063 148.800781 L 56.160156 144.660156 L 53.550781 149.070313 L 52.648438 148.621094 L 52.738281 150.601563 L 49.769531 155.730469 L 57.148438 159.960938 L 58.320313 157.800781 L 53.371094 154.921875 L 54.71875 152.578125 L 57.78125 154.378906 L 59.039063 152.21875 L 55.890625 150.421875 L 57.238281 148.078125 Z M 62.28125 150.960938 "/>
<path style=" stroke:none;fill-rule:nonzero;fill:rgb(100%,100%,100%);fill-opacity:1;" d="M 141.929688 143.671875 L 142.558594 144.480469 L 140.308594 146.550781 L 135 140.609375 L 137.070313 138.808594 C 137.363281 139.023438 137.632813 139.265625 137.878906 139.53125 L 139.859375 137.730469 C 139.015625 136.886719 138.113281 136.105469 137.160156 135.390625 C 136.890625 135.660156 131.398438 140.699219 131.398438 140.699219 L 139.949219 150.148438 L 146.25 144.390625 L 143.910156 141.871094 Z M 141.929688 143.671875 "/>
<path style=" stroke:none;fill-rule:nonzero;fill:rgb(100%,100%,100%);fill-opacity:1;" d="M 108.539063 152.578125 L 105.929688 153.300781 L 109.261719 165.628906 L 115.648438 163.921875 L 115.019531 161.578125 L 111.238281 162.570313 Z M 108.539063 152.578125 "/>
<path style=" stroke:none;fill-rule:nonzero;fill:rgb(100%,100%,100%);fill-opacity:1;" d="M 30.871094 117.839844 L 31.679688 119.550781 C 30.71875 120.433594 29.625 121.160156 28.441406 121.710938 L 27.089844 118.828125 C 28.308594 118.351563 29.574219 118.019531 30.871094 117.839844 Z M 23.671875 126.929688 L 29.339844 124.320313 C 31.390625 123.347656 33.203125 121.933594 34.648438 120.179688 C 34.648438 120.089844 32.488281 115.410156 32.398438 115.140625 C 30.207031 115.121094 28.03125 115.550781 26.011719 116.398438 L 25.558594 115.5 L 24.480469 117.03125 L 20.070313 119.101563 L 21.238281 121.53125 L 24.929688 119.910156 L 26.191406 122.699219 L 22.589844 124.410156 Z M 23.671875 126.929688 "/>
<path style=" stroke:none;fill-rule:nonzero;fill:rgb(100%,100%,100%);fill-opacity:1;" d="M 80.101563 164.550781 L 80.460938 161.761719 L 82.890625 162.121094 C 82.980469 163.019531 82.980469 164.011719 82.980469 164.910156 Z M 81.089844 156.628906 L 84.058594 157.078125 C 83.886719 157.976563 83.613281 158.851563 83.25 159.691406 L 80.730469 159.421875 Z M 87.121094 155.011719 C 86.578125 154.921875 78.75 153.929688 78.75 153.929688 L 78.03125 159.058594 L 77.128906 158.878906 L 77.851563 160.679688 L 77.039063 166.53125 C 77.039063 166.53125 84.871094 167.609375 85.410156 167.699219 C 85.726563 165.550781 85.726563 163.367188 85.410156 161.21875 C 86.488281 159.328125 86.851563 157.621094 87.121094 155.011719 Z M 87.121094 155.011719 "/>
<path style=" stroke:none;fill-rule:nonzero;fill:rgb(100%,100%,100%);fill-opacity:1;" d="M 162.71875 108.660156 L 160.019531 108.03125 L 160.558594 105.691406 C 161.550781 105.691406 162.449219 105.691406 163.351563 105.78125 Z M 154.980469 106.949219 L 155.609375 104.070313 C 156.519531 104.289063 157.394531 104.621094 158.21875 105.058594 L 157.679688 107.578125 Z M 153.898438 100.828125 C 153.71875 101.371094 152.011719 109.109375 152.011719 109.109375 L 157.140625 110.191406 L 156.871094 111.179688 L 158.761719 110.550781 L 164.519531 111.808594 C 164.519531 111.808594 166.230469 104.160156 166.320313 103.621094 C 164.238281 103.074219 162.074219 102.890625 159.929688 103.078125 C 158.128906 101.820313 156.511719 101.371094 153.898438 100.828125 Z M 153.898438 100.828125 "/>
<path style=" stroke:none;fill-rule:nonzero;fill:rgb(100%,100%,100%);fill-opacity:1;" d="M 95.578125 157.351563 L 97.46875 157.171875 C 97.96875 158.378906 98.300781 159.652344 98.460938 160.949219 L 95.308594 161.21875 C 95.222656 159.921875 95.3125 158.621094 95.578125 157.351563 Z M 101.789063 167.160156 L 101.25 160.949219 C 100.964844 158.683594 100.195313 156.503906 99 154.558594 C 99 154.558594 93.78125 155.101563 93.601563 155.101563 C 92.839844 157.140625 92.503906 159.316406 92.609375 161.488281 L 91.710938 161.578125 L 92.789063 163.109375 L 93.238281 167.96875 L 95.941406 167.699219 L 95.578125 163.648438 L 98.730469 163.378906 L 99.089844 167.339844 Z M 101.789063 167.160156 "/>
<path style=" stroke:none;fill-rule:nonzero;fill:rgb(100%,100%,100%);fill-opacity:1;" d="M 142.019531 129.449219 L 140.398438 131.609375 L 150.660156 139.261719 L 154.621094 133.949219 L 152.640625 132.511719 L 150.390625 135.570313 Z M 142.019531 129.449219 "/>
<path style=" stroke:none;fill-rule:nonzero;fill:rgb(100%,100%,100%);fill-opacity:1;" d="M 119.070313 148.53125 L 116.640625 149.699219 L 122.21875 161.21875 L 128.160156 158.339844 L 127.078125 156.089844 L 123.570313 157.800781 Z M 119.070313 148.53125 "/>
<path style=" stroke:none;fill-rule:nonzero;fill:rgb(100%,100%,100%);fill-opacity:1;" d="M 149.21875 117.03125 L 154.621094 119.460938 C 155.988281 120.054688 157.261719 120.839844 158.398438 121.800781 L 157.5 123.691406 C 156.035156 123.472656 154.613281 123.050781 153.269531 122.429688 L 147.871094 120 L 146.789063 122.429688 L 152.371094 124.949219 C 154.46875 125.871094 156.738281 126.332031 159.03125 126.300781 C 159.03125 126.210938 161.191406 121.441406 161.28125 121.171875 C 159.835938 119.417969 158.023438 118.003906 155.96875 117.03125 L 150.300781 114.511719 Z M 149.21875 117.03125 "/>
<path style=" stroke:none;fill-rule:nonzero;fill:rgb(100%,100%,100%);fill-opacity:1;" d="M 52.378906 141.960938 C 51.660156 141.328125 51.03125 140.699219 50.308594 140.070313 C 48.820313 141.613281 47.125 142.949219 45.269531 144.03125 L 43.828125 142.679688 L 47.96875 138 L 45.988281 136.199219 L 41.761719 140.878906 L 41.039063 140.25 L 40.679688 142.050781 L 37.441406 145.648438 L 39.421875 147.449219 L 42.210938 144.480469 L 43.921875 146.011719 C 43.304688 147.253906 42.613281 148.453125 41.851563 149.609375 C 42.480469 150.238281 43.109375 150.78125 43.828125 151.410156 C 44.460938 150.511719 46.351563 147.71875 46.441406 146.28125 C 48.609375 145.121094 50.609375 143.667969 52.378906 141.960938 Z M 52.378906 141.960938 "/>
<path style=" stroke:none;fill-rule:nonzero;fill:rgb(100%,100%,100%);fill-opacity:1;" d="M 147.601563 91.921875 C 147.582031 114.761719 133.804688 135.34375 112.695313 144.066406 C 91.585938 152.792969 67.296875 147.941406 51.160156 131.777344 C 35.019531 115.613281 30.207031 91.316406 38.964844 70.222656 C 47.722656 49.125 68.328125 35.382813 91.171875 35.398438 C 122.34375 35.460938 147.589844 60.746094 147.601563 91.921875 Z M 147.601563 91.921875 "/>
<path style=" stroke:none;fill-rule:nonzero;fill:rgb(87.889099%,22.75238%,24.31488%);fill-opacity:1;" d="M 91.171875 133.230469 C 80.125 133.265625 69.535156 128.816406 61.828125 120.898438 C 83.070313 109.921875 96.390625 112.800781 96.390625 114.960938 C 96.390625 117.121094 93.058594 122.160156 93.058594 122.160156 C 110.429688 119.730469 123.03125 109.289063 123.03125 95.160156 C 123.03125 81.121094 109.890625 74.28125 106.558594 72.210938 C 102.960938 69.960938 104.578125 66.898438 92.789063 62.488281 C 85.589844 59.789063 75.511719 57.089844 71.550781 56.101563 C 82.683594 50.050781 95.984375 49.480469 107.59375 54.550781 C 119.203125 59.625 127.820313 69.773438 130.941406 82.050781 C 134.066406 94.332031 131.347656 107.363281 123.570313 117.367188 C 115.796875 127.371094 103.839844 133.226563 91.171875 133.230469 Z M 91.171875 39.539063 C 74.542969 39.496094 58.878906 47.34375 48.960938 60.691406 C 50.308594 61.140625 53.011719 61.859375 56.25 62.851563 C 61.378906 64.378906 78.480469 69.328125 81.71875 70.410156 C 91.078125 73.378906 93.511719 74.550781 96.210938 77.429688 C 99.414063 80.691406 102.941406 83.617188 106.738281 86.160156 C 110.609375 88.949219 112.5 91.921875 112.5 96.691406 C 112.5 101.371094 108.898438 105.328125 106.648438 106.769531 C 106.648438 106.769531 107.460938 104.429688 106.378906 103.441406 C 105.300781 102.449219 101.789063 100.558594 92.96875 101.191406 C 84.148438 101.820313 72.359375 106.140625 64.351563 110.371094 C 64.351563 110.371094 68.21875 104.339844 73.890625 101.640625 C 73.890625 101.640625 69.210938 101.640625 42.839844 113.160156 C 50.539063 130.914063 67.359375 143.015625 86.640625 144.675781 C 105.921875 146.335938 124.558594 137.285156 135.179688 121.105469 C 145.800781 104.929688 146.695313 84.226563 137.503906 67.195313 C 128.3125 50.164063 110.523438 39.546875 91.171875 39.539063 Z M 91.171875 39.539063 "/>
<path style=" stroke:none;fill-rule:nonzero;fill:rgb(87.889099%,22.75238%,24.31488%);fill-opacity:1;" d="M 90.71875 78.511719 C 88.605469 78.601563 86.503906 78.167969 84.601563 77.25 C 81.539063 75.628906 76.859375 72.210938 72.71875 75.988281 C 72.71875 75.988281 76.140625 75.539063 75.871094 76.441406 C 75.601563 77.429688 75.238281 82.648438 80.011719 84.628906 C 84.691406 86.699219 90.179688 85.171875 90.71875 78.511719 Z M 90.71875 78.511719 "/>
</g>
</svg>
