<?xml version="1.0" encoding="UTF-8"?>
<svg xmlns="http://www.w3.org/2000/svg" xmlns:xlink="http://www.w3.org/1999/xlink" width="149pt" height="198pt" viewBox="0 0 149 198" version="1.1">
<g id="surface1">
<path style=" stroke:none;fill-rule:nonzero;fill:rgb(0%,0%,0%);fill-opacity:1;" d="M 21.710938 171.800781 C 21.710938 172.882813 21.621094 174.859375 19.371094 175.582031 C 18.632813 175.761719 17.878906 175.851563 17.121094 175.851563 L 15.320313 175.851563 L 15.320313 164.0625 L 18.019531 164.0625 C 19.460938 164.152344 20.988281 164.152344 21.441406 165.5 C 21.570313 166.09375 21.660156 166.695313 21.710938 167.300781 Z M 15.410156 179 L 17.300781 179 C 19.730469 179.089844 21.800781 179.359375 22.609375 181.429688 C 22.789063 182.167969 22.878906 182.921875 22.878906 183.679688 L 22.878906 188.542969 C 22.878906 190.882813 22.699219 191.960938 21.800781 192.679688 C 21.261719 193.132813 20.628906 193.3125 18.921875 193.402344 L 15.410156 193.402344 Z M 24.5 178.191406 C 23.96875 177.746094 23.359375 177.410156 22.699219 177.203125 C 23.734375 176.648438 24.507813 175.710938 24.859375 174.589844 C 25.0625 173.796875 25.152344 172.980469 25.128906 172.160156 L 25.128906 166.941406 C 25.039063 165.5 24.949219 163.882813 23.871094 162.710938 C 22.71875 161.527344 21.109375 160.902344 19.460938 161 L 12.441406 161 C 12.121094 161.035156 11.882813 161.3125 11.898438 161.632813 L 11.898438 196.101563 C 11.898438 196.460938 12.082031 196.730469 12.441406 196.730469 L 19.640625 196.730469 C 21.402344 196.804688 23.132813 196.230469 24.5 195.109375 C 26.121094 193.582031 26.390625 191.78125 26.390625 189.800781 L 26.390625 183.859375 C 26.390625 181.882813 26.390625 179.722656 24.5 178.191406 Z M 24.5 178.191406 "/>
<path style=" stroke:none;fill-rule:nonzero;fill:rgb(0%,0%,0%);fill-opacity:1;" d="M 39.261719 168.109375 L 39.261719 173.511719 C 39.261719 174.230469 39.261719 175.761719 37.550781 176.300781 C 36.957031 176.5625 36.308594 176.683594 35.660156 176.660156 L 31.789063 176.660156 L 31.789063 164.0625 L 35.75 164.0625 C 36.527344 164.027344 37.296875 164.183594 38 164.511719 C 39.171875 165.140625 39.171875 166.671875 39.261719 168.109375 Z M 38.269531 179.453125 C 38.539063 179.359375 38.71875 179.269531 38.988281 179.179688 C 40.777344 178.542969 42.125 177.058594 42.589844 175.222656 C 42.785156 174.457031 42.875 173.667969 42.859375 172.882813 L 42.859375 167.210938 C 42.769531 166.222656 42.769531 163.882813 40.789063 162.261719 C 39.171875 161 37.371094 161 35.570313 160.910156 L 28.820313 160.910156 C 28.546875 160.941406 28.347656 161.179688 28.371094 161.453125 L 28.371094 196.011719 C 28.347656 196.285156 28.546875 196.523438 28.820313 196.550781 L 31.25 196.550781 C 31.554688 196.5625 31.804688 196.316406 31.789063 196.011719 L 31.789063 179.722656 L 34.671875 179.722656 L 40.789063 196.191406 C 40.875 196.414063 41.09375 196.558594 41.332031 196.550781 L 43.851563 196.550781 C 44.140625 196.53125 44.371094 196.300781 44.390625 196.011719 C 44.390625 195.832031 44.390625 195.742188 44.300781 195.652344 Z M 38.269531 179.453125 "/>
<path style=" stroke:none;fill-rule:nonzero;fill:rgb(0%,0%,0%);fill-opacity:1;" d="M 48.351563 168.5625 C 48.351563 166.582031 48.890625 165.230469 50.148438 164.421875 C 50.835938 163.941406 51.652344 163.691406 52.488281 163.703125 C 53.21875 163.679688 53.933594 163.867188 54.558594 164.242188 C 55.121094 164.566406 55.585938 165.03125 55.910156 165.589844 C 56.539063 166.851563 56.71875 168.472656 56.71875 171.171875 L 56.71875 188 C 56.628906 189.800781 56.539063 191.78125 54.921875 192.953125 C 54.265625 193.496094 53.433594 193.78125 52.582031 193.761719 C 50.953125 193.855469 49.441406 192.921875 48.800781 191.421875 C 48.480469 190.1875 48.359375 188.914063 48.441406 187.640625 Z M 57.351563 161.902344 C 55.941406 160.960938 54.273438 160.488281 52.582031 160.550781 L 52.398438 160.550781 C 49.070313 160.550781 46.371094 162.261719 45.46875 165.050781 C 45.121094 166.222656 44.910156 167.429688 44.839844 168.652344 L 44.839844 188.632813 C 44.929688 190.519531 45.019531 192.679688 46.550781 194.660156 C 48.261719 196.730469 51.140625 197 52.308594 197 C 56.539063 197 58.25 194.75 58.789063 193.761719 C 59.78125 192.230469 59.871094 190.703125 59.960938 188.902344 L 59.960938 169.910156 C 60.050781 167.121094 60.050781 163.882813 57.351563 161.902344 Z M 57.351563 161.902344 "/>
<path style=" stroke:none;fill-rule:nonzero;fill:rgb(0%,0%,0%);fill-opacity:1;" d="M 65.539063 168.5625 C 65.539063 166.582031 66.082031 165.230469 67.25 164.421875 C 67.949219 163.984375 68.765625 163.765625 69.589844 163.792969 C 70.351563 163.726563 71.109375 163.917969 71.75 164.332031 C 72.3125 164.65625 72.777344 165.121094 73.101563 165.679688 C 73.730469 166.851563 73.820313 168.5625 73.820313 171.261719 L 73.820313 188 C 73.820313 189.890625 73.730469 191.871094 72.109375 193.042969 C 71.445313 193.558594 70.613281 193.8125 69.769531 193.761719 C 68.144531 193.863281 66.617188 192.976563 65.898438 191.511719 C 65.582031 190.277344 65.460938 189.003906 65.539063 187.730469 Z M 74.449219 161.902344 C 73.074219 160.960938 71.433594 160.488281 69.769531 160.550781 L 69.589844 160.550781 C 66.171875 160.550781 63.558594 162.261719 62.570313 165.050781 C 62.246094 166.226563 62.066406 167.433594 62.03125 168.652344 L 62.03125 188.632813 C 62.121094 190.609375 62.121094 192.769531 63.648438 194.75 C 65.449219 196.820313 68.238281 197 69.5 197 C 73.640625 197 75.441406 194.75 75.980469 193.761719 C 76.96875 192.230469 77.058594 190.703125 77.148438 188.992188 L 77.148438 169.910156 C 77.148438 167.121094 77.148438 163.882813 74.449219 161.902344 Z M 74.449219 161.902344 "/>
<path style=" stroke:none;fill-rule:nonzero;fill:rgb(0%,0%,0%);fill-opacity:1;" d="M 86.601563 175.042969 L 93.800781 161.453125 C 93.890625 161.316406 93.890625 161.136719 93.800781 161 C 93.714844 160.832031 93.539063 160.726563 93.351563 160.730469 L 90.648438 160.730469 C 90.460938 160.726563 90.285156 160.832031 90.199219 161 L 82.550781 175.851563 L 82.550781 161.179688 C 82.5625 160.878906 82.3125 160.628906 82.011719 160.640625 L 79.582031 160.640625 C 79.289063 160.660156 79.058594 160.890625 79.039063 161.179688 L 79.039063 195.742188 C 79.027344 196.042969 79.277344 196.292969 79.582031 196.28125 L 81.921875 196.28125 C 82.242188 196.300781 82.519531 196.0625 82.550781 195.742188 L 82.550781 182.78125 L 84.441406 179.179688 L 90.289063 195.921875 C 90.40625 196.117188 90.605469 196.25 90.832031 196.28125 L 93.441406 196.28125 C 93.757813 196.25 93.996094 195.972656 93.980469 195.652344 C 93.980469 195.5625 93.890625 195.472656 93.890625 195.382813 Z M 86.601563 175.042969 "/>
<path style=" stroke:none;fill-rule:nonzero;fill:rgb(0%,0%,0%);fill-opacity:1;" d="M 107.300781 193.3125 L 98.839844 193.3125 L 98.839844 161.453125 C 98.820313 161.160156 98.589844 160.929688 98.300781 160.910156 L 95.871094 160.910156 C 95.582031 160.929688 95.351563 161.160156 95.332031 161.453125 L 95.332031 196.011719 C 95.351563 196.300781 95.582031 196.53125 95.871094 196.550781 L 107.300781 196.550781 C 107.589844 196.53125 107.820313 196.300781 107.839844 196.011719 L 107.839844 193.851563 C 107.820313 193.5625 107.589844 193.332031 107.300781 193.3125 Z M 107.300781 193.3125 "/>
<path style=" stroke:none;fill-rule:nonzero;fill:rgb(0%,0%,0%);fill-opacity:1;" d="M 120.171875 160.910156 L 117.558594 160.910156 C 117.324219 160.917969 117.117188 161.058594 117.019531 161.269531 L 112.070313 176.03125 L 107.121094 161.269531 C 107.054688 161.03125 106.824219 160.878906 106.582031 160.910156 L 104.058594 160.910156 C 103.871094 160.90625 103.695313 161.011719 103.609375 161.179688 C 103.539063 161.320313 103.507813 161.476563 103.519531 161.632813 L 110.269531 180.800781 L 110.269531 196.011719 C 110.300781 196.332031 110.578125 196.566406 110.898438 196.550781 L 113.238281 196.550781 C 113.542969 196.5625 113.792969 196.316406 113.78125 196.011719 L 113.78125 180.800781 L 120.800781 161.632813 C 120.890625 161.496094 120.890625 161.316406 120.800781 161.179688 C 120.621094 161.03125 120.402344 160.9375 120.171875 160.910156 Z M 120.171875 160.910156 "/>
<path style=" stroke:none;fill-rule:nonzero;fill:rgb(0%,0%,0%);fill-opacity:1;" d="M 136.101563 160.910156 L 133.671875 160.910156 C 133.527344 160.914063 133.398438 160.980469 133.308594 161.089844 C 133.214844 161.191406 133.152344 161.316406 133.128906 161.453125 L 133.308594 186.652344 C 133.308594 187.371094 133.398438 188 133.398438 188.722656 L 133.398438 189.890625 L 126.199219 161.359375 C 126.183594 161.121094 125.992188 160.925781 125.75 160.910156 L 122.148438 160.910156 C 121.859375 160.929688 121.628906 161.160156 121.609375 161.453125 L 121.609375 196.011719 C 121.597656 196.316406 121.847656 196.5625 122.148438 196.550781 L 124.488281 196.550781 C 124.671875 196.550781 124.761719 196.550781 124.851563 196.460938 C 124.941406 196.28125 125.03125 196.191406 125.03125 196.011719 L 124.851563 171.53125 L 124.851563 168.203125 L 131.78125 196.191406 C 131.84375 196.429688 132.074219 196.582031 132.320313 196.550781 L 135.921875 196.550781 C 136.242188 196.570313 136.519531 196.332031 136.550781 196.011719 L 136.550781 161.453125 C 136.605469 161.167969 136.386719 160.90625 136.101563 160.910156 Z M 136.101563 160.910156 "/>
<path style=" stroke:none;fill-rule:nonzero;fill:rgb(0%,0%,0%);fill-opacity:1;" d="M 148.429688 21.050781 L 148.429688 16.730469 L 146.71875 15.832031 C 145.460938 15.203125 116.03125 0.53125 75.171875 0.53125 L 73.28125 0.53125 C 32.421875 0.53125 2.988281 15.203125 1.820313 15.832031 L 0.0195313 16.730469 L 0.0195313 20.960938 C -0.25 38.332031 1.820313 82.519531 28.820313 116.8125 C 50.691406 144.710938 71.300781 151.101563 73.550781 151.730469 L 74.449219 152 L 75.351563 151.820313 C 76.25 151.550781 97.21875 145.429688 119.71875 116.902344 C 146.628906 82.609375 148.789063 38.421875 148.429688 21.050781 Z M 148.429688 21.050781 "/>
<path style=" stroke:none;fill-rule:nonzero;fill:rgb(100%,100%,100%);fill-opacity:1;" d="M 74.449219 147.410156 C 72.738281 146.960938 53.300781 140.929688 32.238281 114.203125 C 4.609375 79.011719 4.519531 33.019531 4.699219 22.132813 L 4.699219 19.792969 C 4.75 19.792969 4.792969 19.75 4.789063 19.703125 L 4.789063 19.609375 L 5.421875 19.339844 C 6.949219 18.710938 10.191406 17.269531 14.960938 15.5625 C 33.707031 8.730469 53.507813 5.226563 73.460938 5.210938 L 75.351563 5.210938 C 95.214844 5.25 114.917969 8.753906 133.582031 15.5625 C 138.351563 17.269531 141.679688 18.710938 143.121094 19.339844 L 143.75 19.609375 L 143.75 19.703125 L 143.839844 19.792969 L 143.839844 22.132813 C 144.109375 33.019531 144.019531 79.011719 116.300781 114.203125 C 95.238281 140.929688 76.070313 146.960938 74.449219 147.410156 Z M 117.648438 115.371094 C 144.109375 81.800781 146.179688 38.511719 145.820313 21.5 L 145.820313 18.351563 L 145.28125 18.082031 C 144.109375 17.453125 115.21875 3.140625 75.171875 3.140625 L 73.191406 3.140625 C 33.140625 3.140625 4.339844 17.453125 3.082031 18.082031 L 2.539063 18.351563 L 2.539063 21.320313 C 2.179688 38.421875 4.25 81.710938 30.710938 115.28125 C 52.039063 142.460938 71.839844 148.761719 74.089844 149.300781 L 74.359375 149.390625 L 74.628906 149.300781 C 75.621094 149.121094 95.691406 143.179688 117.648438 115.371094 Z M 117.648438 115.371094 "/>
<path style=" stroke:none;fill-rule:nonzero;fill:rgb(100%,100%,100%);fill-opacity:1;" d="M 125.390625 41.480469 C 115.582031 31.3125 114.5 29.691406 114.5 25.460938 C 114.5 21.320313 116.300781 20.78125 118.101563 20.78125 C 119.230469 20.8125 120.347656 20.992188 121.429688 21.320313 C 128.539063 23.390625 128.539063 27.261719 128.539063 30.140625 L 128.539063 34.28125 C 128.539063 34.585938 128.714844 34.867188 128.988281 35 C 130.789063 35.542969 131.601563 35.902344 133.398438 36.53125 C 133.628906 36.6875 133.9375 36.648438 134.121094 36.441406 C 134.351563 36.316406 134.492188 36.074219 134.480469 35.8125 L 134.480469 32.390625 C 134.480469 28.070313 134.480469 20.78125 121.789063 17.089844 C 112.878906 14.570313 108.289063 17.269531 108.289063 25.011719 C 108.289063 31.402344 112.25 35.179688 118.820313 41.570313 L 120.082031 42.832031 C 127.820313 50.480469 129.351563 52.910156 129.351563 57.679688 C 129.351563 59.480469 129.082031 60.652344 128.539063 61.371094 C 128 62.179688 127.191406 62.453125 125.839844 62.453125 C 124.527344 62.421875 123.226563 62.210938 121.96875 61.820313 C 118.550781 60.832031 116.121094 59.480469 114.589844 57.859375 C 112.789063 55.882813 112.789063 54.171875 112.789063 50.75 L 112.789063 47.152344 C 112.789063 46.792969 112.609375 46.429688 112.25 46.429688 C 110.269531 45.980469 109.371094 45.800781 107.570313 45.441406 C 107.34375 45.371094 107.09375 45.441406 106.941406 45.621094 C 106.796875 45.804688 106.703125 46.023438 106.671875 46.25 L 106.671875 52.730469 C 106.671875 58.761719 111.710938 63.441406 121.070313 66.140625 C 123.3125 66.867188 125.644531 67.261719 128 67.3125 C 135.289063 67.3125 135.289063 61.28125 135.289063 58.761719 C 135.378906 52.101563 131.960938 48.230469 125.390625 41.480469 Z M 105.589844 13.851563 C 96.203125 12.144531 86.691406 11.242188 77.148438 11.152344 C 76.664063 11.039063 76.226563 11.472656 76.339844 11.960938 L 76.339844 14.839844 C 76.371094 15.277344 76.714844 15.621094 77.148438 15.652344 C 81.558594 15.652344 83.898438 15.832031 88.128906 16.101563 L 88.128906 58.761719 C 88.117188 59.179688 88.433594 59.535156 88.851563 59.570313 C 90.738281 59.75 91.640625 59.75 93.53125 60.019531 L 93.621094 60.019531 C 93.808594 60.023438 93.984375 59.917969 94.070313 59.75 C 94.261719 59.640625 94.367188 59.429688 94.339844 59.210938 L 94.339844 16.730469 C 98.570313 17.179688 101 17.542969 105.410156 18.351563 C 105.636719 18.378906 105.863281 18.3125 106.039063 18.171875 C 106.21875 18.011719 106.316406 17.78125 106.308594 17.542969 L 106.308594 14.660156 C 106.230469 14.285156 105.957031 13.976563 105.589844 13.851563 Z M 72.378906 11.242188 C 64.355469 11.332031 56.351563 12.054688 48.441406 13.402344 C 48.039063 13.394531 47.714844 13.722656 47.71875 14.121094 L 47.71875 60.382813 C 47.753906 60.585938 47.847656 60.773438 47.988281 60.921875 C 48.15625 61.019531 48.339844 61.082031 48.53125 61.101563 L 48.621094 61.101563 C 56.449219 59.828125 64.359375 59.136719 72.289063 59.03125 C 72.707031 58.992188 73.019531 58.636719 73.011719 58.222656 L 73.011719 55.339844 C 72.996094 55.132813 72.898438 54.9375 72.738281 54.800781 C 72.632813 54.609375 72.417969 54.503906 72.199219 54.53125 C 66.058594 54.609375 59.925781 55.058594 53.839844 55.882813 L 53.839844 37.609375 C 58.824219 36.914063 63.839844 36.492188 68.871094 36.351563 C 69.28125 36.390625 69.628906 36.042969 69.589844 35.632813 L 69.589844 32.75 C 69.570313 32.558594 69.511719 32.375 69.410156 32.210938 C 69.265625 32.074219 69.066406 32.007813 68.871094 32.03125 C 63.84375 32.140625 58.824219 32.53125 53.839844 33.203125 L 53.839844 17 C 59.953125 16.140625 66.117188 15.6875 72.289063 15.652344 C 72.71875 15.695313 73.09375 15.363281 73.101563 14.929688 L 73.101563 12.050781 C 73.128906 11.832031 73.019531 11.621094 72.832031 11.511719 C 72.746094 11.34375 72.570313 11.238281 72.378906 11.242188 Z M 41.691406 14.570313 C 39.890625 14.929688 38.988281 15.109375 37.191406 15.5625 C 36.820313 15.597656 36.546875 15.910156 36.558594 16.28125 L 36.921875 49.851563 C 36.921875 52.101563 37.011719 54.171875 37.101563 56.0625 C 32.601563 44.359375 27.832031 32.300781 22.96875 20.152344 C 22.816406 19.804688 22.4375 19.617188 22.070313 19.703125 C 19.371094 20.601563 18.019531 21.050781 15.410156 22.132813 C 15.097656 22.234375 14.878906 22.523438 14.871094 22.851563 L 14.871094 69.109375 C 14.875 69.34375 15.015625 69.554688 15.230469 69.652344 C 15.320313 69.832031 15.5 69.832031 15.679688 69.832031 C 15.777344 69.84375 15.878906 69.808594 15.949219 69.742188 C 17.570313 69.109375 18.46875 68.839844 20.089844 68.210938 C 20.425781 68.140625 20.65625 67.832031 20.628906 67.492188 C 20.539063 56.601563 20.539063 45.621094 20.449219 34.730469 C 20.449219 31.851563 20.449219 30.230469 20.359375 28.160156 C 25.039063 40.3125 29.71875 52.101563 34.128906 63.351563 C 34.234375 63.742188 34.65625 63.953125 35.03125 63.800781 C 37.820313 63.171875 39.261719 62.8125 42.050781 62.269531 C 42.402344 62.207031 42.664063 61.910156 42.679688 61.550781 L 42.679688 15.292969 C 42.667969 15.054688 42.574219 14.832031 42.410156 14.660156 C 42.1875 14.542969 41.933594 14.511719 41.691406 14.570313 Z M 41.691406 14.570313 "/>
<path style=" stroke:none;fill-rule:nonzero;fill:rgb(100%,100%,100%);fill-opacity:1;" d="M 100.191406 119.242188 C 99.738281 119.601563 99.289063 119.871094 98.75 120.230469 C 97.488281 121.132813 96.140625 121.851563 94.878906 122.660156 C 94.269531 123.082031 93.640625 123.472656 92.988281 123.832031 C 88.398438 126.710938 82.820313 129.859375 76.96875 131.660156 C 75.375 132.148438 73.753906 132.539063 72.109375 132.832031 C 70.746094 133.082031 69.359375 133.203125 67.96875 133.191406 L 67.699219 133.191406 C 66.011719 133.179688 64.324219 133.027344 62.660156 132.742188 C 69.058594 134.964844 75.960938 135.308594 82.550781 133.730469 C 86.359375 132.785156 89.980469 131.203125 93.261719 129.050781 C 96.46875 126.441406 98.921875 123.023438 100.371094 119.152344 C 100.28125 119.152344 100.191406 119.152344 100.191406 119.242188 Z M 68.871094 131.480469 C 72.640625 131.035156 76.300781 129.90625 79.671875 128.152344 C 80.238281 127.90625 80.78125 127.605469 81.289063 127.25 C 81.738281 127.070313 82.191406 126.800781 82.640625 126.621094 C 85.789063 125 89.121094 123.203125 93.171875 120.953125 C 94.699219 120.230469 96.050781 119.421875 97.488281 118.609375 L 99.109375 117.710938 C 99.738281 117.351563 100.371094 117.082031 100.910156 116.722656 C 101 116.632813 101 116.632813 101.089844 116.632813 C 101.640625 114.597656 102 112.519531 102.171875 110.421875 C 98.121094 112.402344 92.089844 114.203125 83.269531 116 C 72.019531 118.25 60.949219 117.261719 51.050781 113.03125 C 44.390625 110.242188 41.238281 106.371094 39.980469 104.300781 C 40.15625 105.816406 40.425781 107.320313 40.789063 108.800781 C 42.945313 117.085938 48.070313 124.292969 55.191406 129.050781 L 55.191406 128.960938 L 56.089844 129.5 C 57.035156 130.023438 58.027344 130.445313 59.058594 130.761719 C 61.175781 131.332031 63.351563 131.632813 65.539063 131.660156 C 66.621094 131.660156 67.699219 131.570313 68.871094 131.480469 Z M 104.148438 116.902344 C 104.058594 116.8125 104.058594 116.8125 103.96875 116.8125 C 103.683594 116.832031 103.402344 116.925781 103.160156 117.082031 C 103.070313 117.171875 102.980469 117.261719 102.890625 117.261719 C 102.800781 117.351563 102.710938 117.351563 102.621094 117.441406 C 101.78125 119.703125 100.664063 121.847656 99.289063 123.832031 C 101.222656 121.835938 102.886719 119.597656 104.238281 117.171875 L 104.148438 117.171875 Z M 105.5 108.351563 C 105.320313 108.53125 105.230469 108.53125 105.140625 108.710938 C 104.945313 108.808594 104.765625 108.929688 104.601563 109.070313 C 104.40625 111.238281 103.984375 113.382813 103.339844 115.460938 C 104.421875 115.101563 104.871094 115.550781 104.960938 115.820313 C 104.960938 115.910156 104.960938 115.910156 105.050781 115.910156 C 106.859375 112.398438 108.019531 108.585938 108.46875 104.660156 C 107.832031 106.136719 106.804688 107.414063 105.5 108.351563 Z M 104.601563 106.550781 C 104.691406 106.460938 104.78125 106.460938 104.871094 106.371094 C 106.726563 104.917969 108.054688 102.894531 108.648438 100.609375 C 108.652344 97.816406 108.289063 95.03125 107.570313 92.332031 C 107.566406 92.191406 107.5 92.058594 107.390625 91.972656 C 107.054688 94.683594 105.742188 97.175781 103.699219 98.992188 C 104.308594 101.464844 104.613281 104.003906 104.601563 106.550781 Z M 53.03125 110.691406 C 61.21875 113.390625 65.71875 114.203125 71.660156 114.203125 C 73.820313 114.203125 76.339844 114.109375 79.398438 113.839844 C 88.128906 113.121094 97.308594 110.242188 102.261719 107.8125 C 102.242188 105.394531 102.003906 102.984375 101.539063 100.609375 C 99.988281 101.519531 98.207031 101.960938 96.410156 101.871094 C 94.339844 101.871094 91.910156 101.511719 87.859375 100.519531 C 83.089844 99.351563 76.339844 95.300781 70.308594 91.792969 C 67.070313 89.8125 63.921875 88.011719 61.398438 86.75 C 51.589844 81.890625 46.011719 82.609375 44.570313 82.882813 C 41.011719 88.8125 39.347656 95.6875 39.800781 102.589844 C 40.519531 103.492188 43.851563 107.632813 53.03125 110.691406 Z M 58.070313 82.703125 C 62.253906 84.558594 66.339844 86.628906 70.308594 88.910156 C 77.601563 92.78125 85.070313 96.832031 90.199219 98.089844 C 94.699219 99.261719 98.390625 99.082031 101 97.820313 L 101 97.640625 C 100.910156 97.460938 100.910156 97.28125 100.820313 97.101563 C 98.660156 87.832031 87.050781 67.492188 66.890625 67.492188 C 66.082031 67.492188 65.269531 67.582031 64.371094 67.582031 C 56.847656 69.714844 50.296875 74.390625 45.832031 80.8125 C 46.796875 80.53125 47.792969 80.378906 48.800781 80.359375 C 51.410156 80.453125 54.46875 81.261719 58.070313 82.703125 Z M 103.070313 96.382813 C 103.523438 95.824219 103.914063 95.222656 104.238281 94.582031 C 106.671875 89.902344 104.601563 84.679688 103.609375 82.882813 C 96.71875 71.605469 84.003906 65.246094 70.851563 66.5 C 84.621094 67.222656 97.941406 79.550781 103.070313 96.382813 Z M 103.070313 96.382813 "/>
<path style=" stroke:none;fill-rule:nonzero;fill:rgb(100%,100%,100%);fill-opacity:1;" d="M 87.769531 107.453125 C 87.769531 104.929688 87.769531 101.242188 84.800781 98.359375 C 85.160156 97.804688 85.433594 97.199219 85.609375 96.5625 C 86.027344 95.191406 86.210938 93.761719 86.148438 92.332031 L 86.148438 85.3125 C 86.058594 82.703125 85.699219 80 83.539063 77.660156 C 81.648438 75.5 78.769531 74.332031 75.351563 74.332031 L 65.988281 74.332031 C 64.945313 74.351563 63.949219 74.769531 63.199219 75.5 C 62.496094 76.222656 62.109375 77.195313 62.121094 78.203125 L 62.210938 123.5625 C 62.179688 124.933594 62.90625 126.210938 64.101563 126.890625 C 64.71875 127.289063 65.433594 127.503906 66.171875 127.519531 L 75.710938 127.519531 C 78.832031 127.632813 81.878906 126.574219 84.261719 124.550781 L 84.351563 124.550781 C 87.5 121.761719 87.769531 118.429688 87.859375 115.28125 L 87.859375 115.191406 Z M 87.769531 107.453125 "/>
<path style=" stroke:none;fill-rule:nonzero;fill:rgb(0%,0%,0%);fill-opacity:1;" d="M 75.171875 96.292969 C 74.449219 96.5625 74 96.5625 72.289063 96.652344 L 70.488281 96.652344 C 70.21875 96.652344 70.128906 96.5625 70.128906 96.292969 L 70.128906 81.710938 C 70.109375 81.503906 70.285156 81.332031 70.488281 81.351563 L 73.371094 81.351563 C 74.632813 81.265625 75.898438 81.480469 77.058594 81.980469 C 77.449219 82.230469 77.738281 82.617188 77.871094 83.0625 C 78.097656 83.851563 78.21875 84.667969 78.230469 85.492188 L 78.230469 91.609375 C 78.140625 92.960938 78.050781 95.390625 75.171875 96.292969 Z M 78.5 119.78125 C 77.78125 120.320313 76.878906 120.589844 74.71875 120.679688 L 70.671875 120.679688 C 70.398438 120.652344 70.199219 120.414063 70.21875 120.140625 L 70.21875 102.050781 C 70.21875 101.960938 70.21875 101.78125 70.488281 101.78125 L 72.378906 101.78125 C 74.359375 101.871094 76.429688 101.960938 77.78125 102.859375 C 78.550781 103.335938 79.125 104.070313 79.398438 104.929688 C 79.65625 105.867188 79.777344 106.839844 79.761719 107.8125 L 79.761719 114.472656 C 79.851563 117.441406 79.671875 118.882813 78.5 119.78125 Z M 85.339844 107.8125 C 85.339844 105.203125 85.339844 102.140625 82.730469 99.980469 C 82.136719 99.488281 81.46875 99.09375 80.75 98.8125 C 81.957031 97.992188 82.847656 96.785156 83.269531 95.390625 C 83.605469 94.28125 83.753906 93.128906 83.71875 91.972656 L 83.71875 84.769531 C 83.628906 82.792969 83.449219 80.453125 81.738281 78.652344 C 80.390625 77.121094 78.140625 76.3125 75.441406 76.3125 L 65.628906 76.3125 C 65.320313 76.3125 65.027344 76.441406 64.820313 76.671875 C 64.636719 76.902344 64.542969 77.1875 64.550781 77.480469 L 64.550781 124.730469 C 64.578125 125.125 64.777344 125.484375 65.089844 125.722656 C 65.28125 125.832031 65.5 125.894531 65.71875 125.902344 L 75.621094 125.902344 C 78.167969 126 80.664063 125.167969 82.640625 123.5625 C 84.980469 121.402344 85.25 118.882813 85.339844 116 Z M 85.339844 107.8125 "/>
</g>
</svg>
