<?xml version="1.0" encoding="UTF-8"?>
<svg xmlns="http://www.w3.org/2000/svg" xmlns:xlink="http://www.w3.org/1999/xlink" width="209pt" height="204pt" viewBox="0 0 209 204" version="1.1">
<g id="surface1">
<path style=" stroke:none;fill-rule:nonzero;fill:rgb(11.376953%,6.665039%,37.646484%);fill-opacity:1;" d="M 51.03125 93.109375 L 36.089844 93.109375 L 36.089844 109.21875 L 27.179688 113.539063 L 36.089844 118.308594 L 36.089844 132.621094 L 45.988281 138.648438 C 49.589844 138.199219 54.179688 137.570313 59.671875 137.03125 L 97.738281 158.988281 L 104.761719 190.847656 C 104.761719 190.757813 111.78125 158.988281 111.78125 158.988281 L 149.941406 137.03125 C 155.25 137.660156 159.929688 138.199219 163.53125 138.648438 L 173.339844 132.621094 L 173.339844 118.308594 L 182.339844 113.71875 L 173.339844 109.21875 L 173.339844 93.109375 L 158.488281 93.109375 C 160.523438 90.9375 162.277344 88.519531 163.710938 85.910156 C 164.878906 83.839844 166.050781 81.140625 167.398438 78.167969 C 178.199219 75.019531 186.121094 68 189.628906 61.339844 C 198.898438 44.417969 205.828125 23.628906 205.828125 23.628906 C 205.828125 23.628906 201.871094 25.609375 197.011719 27.949219 C 200.878906 16.070313 203.308594 5.898438 203.308594 5.898438 C 203.308594 5.898438 160.648438 34.160156 127.261719 60.710938 L 124.378906 59 C 124.378906 58.730469 124.558594 56.390625 124.558594 56.121094 C 124.558594 56.121094 124.921875 53.328125 119.878906 51.621094 C 119.617188 51.527344 119.347656 51.464844 119.070313 51.441406 C 121.410156 49.550781 125.28125 46.847656 127.890625 44.960938 C 132.210938 41.988281 131.761719 38.660156 131.761719 38.660156 L 115.828125 50.449219 C 108.578125 48.082031 100.761719 48.082031 93.511719 50.449219 L 77.671875 38.660156 C 77.671875 38.660156 77.128906 41.898438 81.539063 44.960938 C 84.238281 46.847656 88.109375 49.550781 90.449219 51.441406 C 90.1875 51.53125 89.917969 51.59375 89.640625 51.621094 C 84.691406 53.417969 84.960938 56.121094 84.960938 56.121094 C 84.960938 56.300781 85.140625 58.640625 85.140625 59 L 82.261719 60.441406 C 48.871094 33.890625 6.210938 5.71875 6.210938 5.71875 C 6.210938 5.71875 8.640625 15.890625 12.511719 27.769531 C 7.289063 25.339844 3.691406 23.449219 3.691406 23.449219 C 3.691406 23.449219 10.621094 44.328125 19.890625 61.160156 C 23.21875 68 31.230469 74.839844 42.03125 77.988281 C 42.03125 77.988281 43.921875 82.21875 45.449219 85.191406 C 47.023438 88.019531 48.894531 90.675781 51.03125 93.109375 Z M 51.03125 93.109375 "/>
<path style=" stroke:none;fill-rule:nonzero;fill:rgb(0%,47.068787%,54.881287%);fill-opacity:1;" d="M 122.578125 68.898438 C 122.429688 69.363281 122.25 69.8125 122.039063 70.25 C 137.070313 60.441406 163.078125 43.519531 192.328125 24.441406 C 192.328125 24.441406 192.328125 25.070313 194.941406 17.507813 C 164.25 36.320313 136.890625 57.378906 122.578125 68.898438 Z M 122.578125 68.898438 "/>
<path style=" stroke:none;fill-rule:nonzero;fill:rgb(0%,47.068787%,54.881287%);fill-opacity:1;" d="M 86.851563 68.898438 C 72.71875 57.378906 45.269531 36.320313 14.308594 17.597656 C 16.738281 24.980469 16.828125 24.53125 16.828125 24.53125 C 46.078125 43.339844 72.359375 60.53125 87.390625 70.339844 C 87.082031 69.917969 86.894531 69.421875 86.851563 68.898438 Z M 86.851563 68.898438 "/>
<path style=" stroke:none;fill-rule:nonzero;fill:rgb(0%,47.068787%,54.881287%);fill-opacity:1;" d="M 59.671875 94.007813 C 54.664063 90.050781 50.707031 84.917969 48.148438 79.070313 L 51.03125 79.96875 C 60.570313 82.398438 78.929688 85.007813 78.929688 85.007813 C 70.109375 85.191406 62.550781 85.820313 58.320313 86.359375 C 57.511719 85.191406 56.339844 83.839844 55.980469 82.847656 C 56.175781 84.707031 56.535156 86.546875 57.058594 88.339844 C 57.8125 90.28125 58.683594 92.175781 59.671875 94.007813 Z M 104.761719 84.019531 C 99.046875 81.652344 94.46875 77.171875 91.980469 71.507813 C 95.039063 74.300781 99.179688 75.109375 102.511719 72.050781 C 98.460938 70.25 98.011719 63.140625 97.289063 61.339844 C 95.578125 57.648438 93.238281 55.667969 91.261719 54.859375 C 92.339844 54.5 93.148438 54.230469 93.871094 54.050781 C 96.976563 55.617188 99.175781 58.546875 99.808594 61.96875 C 99.808594 61.96875 100.261719 56.75 97.558594 52.96875 C 102.261719 51.839844 107.167969 51.839844 111.871094 52.96875 C 109.261719 56.75 109.621094 61.96875 109.621094 61.96875 C 110.289063 58.5625 112.476563 55.644531 115.558594 54.050781 C 116.445313 54.265625 117.316406 54.535156 118.171875 54.859375 C 116.191406 55.667969 113.851563 57.46875 112.230469 61.339844 C 111.511719 63.140625 110.96875 70.25 107.011719 72.050781 C 108.089844 77.269531 106.921875 82.398438 104.761719 84.019531 Z M 104.761719 84.019531 "/>
<path style=" stroke:none;fill-rule:nonzero;fill:rgb(0%,47.068787%,54.881287%);fill-opacity:1;" d="M 152.191406 88.25 C 152.710938 86.480469 153.101563 84.675781 153.359375 82.847656 C 152.703125 84.089844 151.886719 85.242188 150.929688 86.269531 C 146.789063 85.820313 139.140625 85.097656 130.410156 84.917969 C 130.410156 84.917969 148.589844 82.488281 158.308594 79.878906 L 161.191406 79.070313 C 158.601563 84.902344 154.613281 90 149.578125 93.917969 C 149.851563 94.007813 151.289063 91.398438 152.191406 88.25 Z M 152.191406 88.25 "/>
<path style=" stroke:none;fill-rule:nonzero;fill:rgb(0%,47.068787%,54.881287%);fill-opacity:1;" d="M 81.898438 139.371094 L 63.269531 128.570313 C 61.921875 128.75 60.660156 128.839844 59.488281 129.019531 L 85.410156 144.050781 C 84.078125 142.617188 82.902344 141.050781 81.898438 139.371094 Z M 81.898438 139.371094 "/>
<path style=" stroke:none;fill-rule:nonzero;fill:rgb(0%,47.068787%,54.881287%);fill-opacity:1;" d="M 127.53125 139.371094 L 146.160156 128.570313 C 147.511719 128.75 148.679688 128.839844 149.941406 129.019531 L 124.019531 144.050781 C 125.40625 142.664063 126.589844 141.089844 127.53125 139.371094 Z M 127.53125 139.371094 "/>
<path style=" stroke:none;fill-rule:nonzero;fill:rgb(0%,47.068787%,54.881287%);fill-opacity:1;" d="M 96.390625 141.980469 C 88.199219 140.089844 84.78125 136.128906 84.78125 136.128906 C 86.425781 139.542969 88.9375 142.460938 92.070313 144.589844 C 92.160156 144.589844 95.671875 143.507813 96.390625 141.980469 Z M 96.390625 141.980469 "/>
<path style=" stroke:none;fill-rule:nonzero;fill:rgb(0%,47.068787%,54.881287%);fill-opacity:1;" d="M 91.441406 133.070313 C 90.808594 132.441406 90.179688 131.898438 89.640625 131.269531 C 87.894531 131.910156 86.234375 132.753906 84.691406 133.789063 C 86.488281 135.589844 90 137.839844 96.210938 139.191406 C 95.488281 137.300781 93.511719 135.320313 91.441406 133.070313 Z M 91.441406 133.070313 "/>
<path style=" stroke:none;fill-rule:nonzero;fill:rgb(0%,47.068787%,54.881287%);fill-opacity:1;" d="M 104.578125 152.597656 C 102.699219 152.632813 100.855469 153.09375 99.179688 153.949219 C 98.460938 152.597656 97.738281 151.429688 96.929688 150.167969 C 98.398438 150.332031 99.878906 150.300781 101.339844 150.078125 C 98.890625 149.21875 96.535156 148.105469 94.320313 146.75 C 94.601563 146.617188 94.871094 146.46875 95.128906 146.300781 C 96.054688 145.910156 96.882813 145.328125 97.558594 144.589844 C 98.429688 143.726563 98.941406 142.570313 99 141.347656 C 99 137.300781 96.210938 135.949219 93.148438 132.890625 C 92.445313 132.308594 91.785156 131.675781 91.171875 131 C 93.960938 130.191406 97.828125 129.648438 103.140625 129.46875 L 104.308594 146.75 L 104.488281 146.75 L 105.839844 129.46875 C 109.847656 129.511719 113.832031 130.023438 117.71875 131 C 117 131.539063 116.371094 132.347656 115.738281 132.890625 C 112.679688 135.949219 109.890625 137.390625 109.890625 141.347656 C 109.929688 142.574219 110.445313 143.738281 111.328125 144.589844 C 112.066406 145.257813 112.882813 145.832031 113.761719 146.300781 C 114.046875 146.414063 114.320313 146.566406 114.570313 146.75 C 112.433594 148.191406 110.101563 149.3125 107.640625 150.078125 C 109.058594 150.402344 110.527344 150.433594 111.960938 150.167969 C 111.238281 151.429688 110.339844 152.597656 109.710938 153.949219 C 108.15625 153.035156 106.382813 152.566406 104.578125 152.597656 Z M 104.578125 152.597656 "/>
<path style=" stroke:none;fill-rule:nonzero;fill:rgb(0%,47.068787%,54.881287%);fill-opacity:1;" d="M 117.359375 144.589844 C 120.457031 142.433594 122.988281 139.5625 124.738281 136.21875 C 124.738281 136.21875 121.320313 140.269531 113.039063 142.070313 C 113.761719 143.507813 117.359375 144.589844 117.359375 144.589844 Z M 117.359375 144.589844 "/>
<path style=" stroke:none;fill-rule:nonzero;fill:rgb(0%,47.068787%,54.881287%);fill-opacity:1;" d="M 113.128906 139.28125 C 119.429688 137.929688 122.851563 135.679688 124.738281 133.96875 C 123.28125 132.777344 121.597656 131.890625 119.789063 131.359375 C 119.160156 131.988281 118.53125 132.621094 117.898438 133.25 C 115.828125 135.320313 113.941406 137.300781 113.128906 139.28125 Z M 113.128906 139.28125 "/>
<path style=" stroke:none;fill-rule:nonzero;fill:rgb(100%,100%,100%);fill-opacity:1;" d="M 99.089844 72.410156 C 97.109375 70.875 95.84375 68.601563 95.578125 66.109375 C 95.671875 66.109375 91.710938 72.769531 99.089844 72.410156 Z M 99.089844 72.410156 "/>
<path style=" stroke:none;fill-rule:nonzero;fill:rgb(100%,100%,100%);fill-opacity:1;" d="M 110.519531 72.410156 C 112.5 70.875 113.765625 68.601563 114.03125 66.109375 C 114.03125 66.109375 117.808594 72.769531 110.519531 72.410156 Z M 110.519531 72.410156 "/>
<path style=" stroke:none;fill-rule:nonzero;fill:rgb(100%,100%,100%);fill-opacity:1;" d="M 108.359375 158.898438 C 107.820313 158.269531 107.011719 157.640625 104.578125 157.640625 C 103.257813 157.527344 101.941406 157.910156 100.890625 158.71875 L 104.761719 174.109375 Z M 108.359375 158.898438 "/>
<path style=" stroke:none;fill-rule:nonzero;fill:rgb(100%,100%,100%);fill-opacity:1;" d="M 134.011719 91.488281 L 134.011719 97.070313 L 132.03125 97.070313 L 132.03125 91.488281 L 130.410156 91.488281 L 130.410156 89.78125 L 135.359375 89.78125 L 135.359375 91.398438 Z M 134.011719 91.488281 "/>
<path style=" stroke:none;fill-rule:nonzero;fill:rgb(100%,100%,100%);fill-opacity:1;" d="M 125.191406 91.488281 L 125.191406 97.070313 L 123.210938 97.070313 L 123.210938 91.488281 L 121.589844 91.488281 L 121.589844 89.78125 L 126.628906 89.78125 L 126.628906 91.398438 Z M 125.191406 91.488281 "/>
<path style=" stroke:none;fill-rule:nonzero;fill:rgb(100%,100%,100%);fill-opacity:1;" d="M 97.648438 92.839844 L 95.488281 92.839844 L 95.488281 91.398438 L 97.648438 91.398438 Z M 98.640625 94.640625 L 99.359375 94.640625 L 99.359375 90.769531 L 98.550781 89.960938 L 93.691406 89.960938 L 93.691406 97.160156 L 95.488281 97.160156 L 95.488281 94.640625 L 96.839844 94.640625 L 98.011719 97.070313 L 99.808594 97.070313 Z M 98.640625 94.640625 "/>
<path style=" stroke:none;fill-rule:nonzero;fill:rgb(100%,100%,100%);fill-opacity:1;" d="M 144.898438 91.488281 L 144.898438 89.78125 L 139.589844 89.78125 L 139.589844 97.070313 L 144.898438 97.070313 L 144.898438 95.449219 L 141.300781 95.449219 L 141.300781 94.371094 L 144.898438 94.371094 L 144.898438 92.660156 L 141.300781 92.660156 L 141.300781 91.488281 Z M 144.898438 91.488281 "/>
<path style=" stroke:none;fill-rule:nonzero;fill:rgb(100%,100%,100%);fill-opacity:1;" d="M 105.660156 95.449219 L 105.660156 89.78125 L 103.859375 89.78125 L 103.859375 97.070313 L 108.359375 97.070313 L 108.359375 95.449219 Z M 105.660156 95.449219 "/>
<path style=" stroke:none;fill-rule:nonzero;fill:rgb(100%,100%,100%);fill-opacity:1;" d="M 115.738281 95.449219 L 113.671875 95.449219 L 113.671875 91.488281 L 115.738281 91.488281 Z M 116.730469 89.78125 L 111.960938 89.78125 L 111.960938 96.257813 L 112.769531 97.070313 L 117.628906 97.070313 L 117.628906 90.589844 Z M 116.730469 89.78125 "/>
<path style=" stroke:none;fill-rule:nonzero;fill:rgb(100%,100%,100%);fill-opacity:1;" d="M 85.589844 91.398438 L 87.75 91.398438 L 87.75 93.109375 L 85.589844 93.109375 Z M 89.460938 97.070313 L 89.460938 90.589844 L 88.558594 89.78125 L 83.789063 89.78125 L 83.789063 96.980469 L 85.589844 96.980469 L 85.589844 94.640625 L 87.75 94.640625 L 87.75 96.980469 L 89.460938 96.980469 Z M 89.460938 97.070313 "/>
<path style=" stroke:none;fill-rule:nonzero;fill:rgb(100%,100%,100%);fill-opacity:1;" d="M 78.03125 89.78125 L 78.03125 93.109375 L 75.960938 93.109375 L 75.960938 89.78125 L 74.160156 89.78125 L 74.160156 97.070313 L 75.960938 97.070313 L 75.960938 94.730469 L 78.03125 94.730469 L 78.03125 97.070313 L 79.738281 97.070313 L 79.738281 89.78125 Z M 78.03125 89.78125 "/>
<path style=" stroke:none;fill-rule:nonzero;fill:rgb(100%,100%,100%);fill-opacity:1;" d="M 186.480469 38.570313 C 189.988281 30.289063 192.691406 24.441406 192.691406 24.441406 C 163.441406 43.339844 137.339844 60.441406 122.308594 70.25 C 121.777344 71.746094 121.113281 73.191406 120.328125 74.570313 L 179.460938 42.441406 L 133.378906 75.648438 L 135.628906 75.289063 L 159.929688 72.949219 C 159.929688 72.949219 176.488281 71.238281 185.671875 59 C 189.988281 52.339844 197.28125 33.078125 197.28125 33.078125 Z M 186.480469 38.570313 "/>
<path style=" stroke:none;fill-rule:nonzero;fill:rgb(100%,100%,100%);fill-opacity:1;" d="M 45.539063 115.609375 L 51.210938 113.269531 L 51.210938 126.050781 C 52.847656 125.746094 54.5 125.535156 56.160156 125.417969 L 56.160156 97.070313 L 51.210938 97.070313 L 51.210938 107.238281 L 45.539063 109.667969 L 45.539063 97.070313 L 40.589844 97.070313 L 40.589844 111.738281 C 40.589844 111.738281 36.539063 113.71875 36.539063 113.808594 L 40.589844 115.96875 L 40.589844 127.847656 C 42.210938 127.667969 43.828125 127.21875 45.539063 127.039063 Z M 45.539063 115.609375 "/>
<path style=" stroke:none;fill-rule:nonzero;fill:rgb(100%,100%,100%);fill-opacity:1;" d="M 84.328125 106.070313 L 90.089844 106.070313 L 90.089844 110.480469 C 88.109375 110.480469 86.308594 110.480469 84.328125 110.570313 Z M 84.328125 115.429688 C 85.589844 115.429688 86.761719 115.339844 88.109375 115.339844 C 89.101563 117.679688 89.910156 120.378906 90.808594 122.71875 C 92.609375 122.71875 94.050781 122.628906 95.761719 122.628906 C 94.769531 120.289063 93.960938 117.589844 93.058594 115.25 L 95.039063 115.25 L 95.039063 103.550781 L 92.789063 101.300781 L 77.488281 101.300781 L 79.46875 103.640625 L 79.46875 123.257813 C 81.179688 123.167969 82.710938 123.167969 84.421875 122.988281 L 84.421875 115.429688 Z M 84.328125 115.429688 "/>
<path style=" stroke:none;fill-rule:nonzero;fill:rgb(100%,100%,100%);fill-opacity:1;" d="M 103.859375 106.070313 L 109.53125 106.070313 L 109.53125 122.71875 C 111.238281 122.71875 113.039063 122.71875 114.75 122.808594 L 114.75 103.820313 L 112.410156 101.480469 L 96.839844 101.480469 L 98.820313 103.820313 L 98.820313 122.808594 L 103.859375 122.808594 Z M 103.859375 106.070313 "/>
<path style=" stroke:none;fill-rule:nonzero;fill:rgb(100%,100%,100%);fill-opacity:1;" d="M 133.46875 118.667969 C 130.230469 118.578125 126.988281 118.308594 123.839844 118.21875 L 123.839844 114.710938 C 126.988281 114.800781 130.230469 114.890625 133.46875 115.070313 L 133.46875 110.121094 C 130.230469 110.03125 126.988281 110.03125 123.839844 109.941406 L 123.839844 106.25 L 133.46875 106.25 L 133.46875 101.570313 L 116.730469 101.570313 L 118.53125 104 L 118.53125 123.078125 C 123.660156 123.167969 128.789063 123.441406 133.558594 123.800781 L 133.558594 118.757813 L 133.46875 118.757813 Z M 133.46875 118.667969 "/>
<path style=" stroke:none;fill-rule:nonzero;fill:rgb(100%,100%,100%);fill-opacity:1;" d="M 146.160156 106.070313 L 150.480469 106.070313 L 150.480469 101.390625 L 136.351563 101.390625 L 136.351563 106.070313 L 140.671875 106.070313 L 140.671875 124.070313 C 142.558594 124.160156 144.269531 124.25 146.160156 124.519531 Z M 146.160156 106.070313 "/>
<path style=" stroke:none;fill-rule:nonzero;fill:rgb(100%,100%,100%);fill-opacity:1;" d="M 70.558594 118.941406 C 68.578125 119.03125 66.871094 119.121094 64.890625 119.300781 L 64.890625 106.070313 L 70.558594 106.070313 Z M 75.691406 103.820313 L 73.351563 101.390625 L 58.140625 101.390625 L 59.941406 103.640625 L 59.941406 122.269531 L 61.921875 124.699219 C 66.238281 124.160156 71.011719 123.800781 75.691406 123.53125 Z M 75.691406 103.820313 "/>
<path style=" stroke:none;fill-rule:nonzero;fill:rgb(100%,100%,100%);fill-opacity:1;" d="M 168.480469 115.699219 C 170.101563 114.980469 171.539063 114.257813 173.070313 113.449219 C 168.121094 111.109375 163.171875 109.128906 158.039063 107.148438 L 158.039063 101.480469 L 163.441406 101.480469 L 163.441406 103.550781 L 168.480469 103.550781 L 168.480469 96.980469 L 151.378906 96.980469 L 153.359375 99.230469 L 153.359375 111.019531 L 163.621094 115.519531 L 163.621094 122.089844 C 163.621094 122.089844 161.28125 121.820313 158.308594 121.371094 L 158.308594 119.300781 L 153.359375 118.667969 L 153.359375 125.328125 C 158.761719 125.960938 163.890625 126.679688 168.570313 127.578125 C 168.480469 123.890625 168.480469 118.398438 168.480469 115.699219 Z M 168.480469 115.699219 "/>
<path style=" stroke:none;fill-rule:nonzero;fill:rgb(100%,100%,100%);fill-opacity:1;" d="M 68.308594 94.730469 L 68.308594 95.449219 L 66.691406 95.449219 L 66.691406 91.488281 L 68.308594 91.488281 L 68.308594 92.03125 L 70.109375 92.03125 L 70.109375 89.78125 L 64.710938 89.78125 L 64.710938 96.257813 L 65.609375 97.070313 L 70.109375 97.070313 L 70.109375 94.730469 Z M 68.308594 94.730469 "/>
<path style=" stroke:none;fill-rule:nonzero;fill:rgb(100%,100%,100%);fill-opacity:1;" d="M 23.039063 38.570313 C 19.441406 30.289063 16.828125 24.53125 16.828125 24.53125 C 46.078125 43.519531 72.179688 60.53125 87.210938 70.339844 C 87.742188 71.835938 88.40625 73.28125 89.191406 74.660156 L 30.238281 42.53125 L 76.230469 75.738281 L 73.980469 75.378906 L 49.679688 73.039063 C 49.679688 73.039063 33.210938 71.417969 24.03125 59.089844 C 19.710938 52.429688 12.421875 33.167969 12.421875 33.167969 Z M 23.039063 38.570313 "/>
<path style=" stroke:none;fill-rule:nonzero;fill:rgb(63.084412%,63.084412%,64.256287%);fill-opacity:1;" d="M 51.03125 93.109375 L 36.089844 93.109375 L 36.089844 109.21875 L 27.179688 113.539063 L 36.089844 118.308594 L 36.089844 132.621094 L 45.988281 138.648438 C 49.589844 138.199219 54.179688 137.570313 59.671875 137.03125 L 97.738281 158.988281 L 104.761719 190.847656 C 104.761719 190.757813 111.78125 158.988281 111.78125 158.988281 L 149.941406 137.03125 C 155.25 137.660156 159.929688 138.199219 163.53125 138.648438 L 173.339844 132.621094 L 173.339844 118.308594 L 182.339844 113.71875 L 173.339844 109.21875 L 173.339844 93.109375 L 158.488281 93.109375 C 160.523438 90.9375 162.277344 88.519531 163.710938 85.910156 C 164.878906 83.839844 166.050781 81.140625 167.398438 78.167969 C 178.199219 75.019531 186.121094 68 189.628906 61.339844 C 198.898438 44.417969 205.828125 23.628906 205.828125 23.628906 C 205.828125 23.628906 201.871094 25.609375 197.011719 27.949219 C 200.878906 16.070313 203.308594 5.898438 203.308594 5.898438 C 203.308594 5.898438 160.648438 34.160156 127.261719 60.710938 L 124.378906 59 C 124.378906 58.730469 124.558594 56.390625 124.558594 56.121094 C 124.558594 56.121094 124.921875 53.328125 119.878906 51.621094 C 119.617188 51.527344 119.347656 51.464844 119.070313 51.441406 C 121.410156 49.550781 125.28125 46.847656 127.890625 44.960938 C 132.210938 41.988281 131.761719 38.660156 131.761719 38.660156 L 115.828125 50.449219 C 108.578125 48.082031 100.761719 48.082031 93.511719 50.449219 L 77.671875 38.660156 C 77.671875 38.660156 77.128906 41.898438 81.539063 44.960938 C 84.238281 46.847656 88.109375 49.550781 90.449219 51.441406 C 90.1875 51.53125 89.917969 51.59375 89.640625 51.621094 C 84.691406 53.417969 84.960938 56.121094 84.960938 56.121094 C 84.960938 56.300781 85.140625 58.640625 85.140625 59 L 82.261719 60.441406 C 48.871094 33.890625 6.210938 5.71875 6.210938 5.71875 C 6.210938 5.71875 8.640625 15.890625 12.511719 27.769531 C 7.289063 25.339844 3.691406 23.449219 3.691406 23.449219 C 3.691406 23.449219 10.621094 44.328125 19.890625 61.160156 C 23.21875 68 31.230469 74.839844 42.03125 77.988281 C 42.03125 77.988281 43.921875 82.21875 45.449219 85.191406 C 47.023438 88.019531 48.894531 90.675781 51.03125 93.109375 Z M 204.660156 32.898438 C 199.980469 45.320313 193.769531 58.28125 190.710938 63.589844 C 185.488281 72.589844 175.050781 77.898438 168.929688 79.96875 C 168.929688 79.96875 165.960938 87.167969 162.898438 91.128906 L 175.320313 91.128906 L 175.320313 108.050781 L 187.289063 113.71875 L 175.320313 119.660156 L 175.320313 133.96875 L 163.800781 140.988281 C 163.800781 140.988281 154.621094 139.910156 150.121094 139.371094 L 113.671875 160.519531 C 106.46875 193.550781 104.578125 203 104.578125 203 C 104.578125 203 102.871094 194 95.578125 160.519531 L 59.128906 139.371094 C 54.628906 139.910156 45.449219 140.988281 45.449219 140.988281 L 33.929688 133.96875 L 33.929688 119.660156 L 21.960938 113.71875 L 33.929688 108.050781 L 33.929688 91.039063 L 46.351563 91.039063 C 43.289063 87.347656 40.230469 79.789063 40.230469 79.789063 C 36.597656 78.625 33.125 77.023438 29.878906 75.019531 C 25.234375 72.117188 21.300781 68.210938 18.359375 63.589844 C 13.203125 53.605469 8.632813 43.328125 4.679688 32.808594 C 2.609375 27.5 0 19.308594 0 19.308594 C 0 19.308594 6.839844 22.550781 8.820313 23.539063 C 5.578125 13.730469 2.789063 0.769531 2.789063 0.769531 C 2.789063 0.769531 49.410156 31.550781 82.078125 57.738281 L 82.621094 57.289063 L 82.621094 55.578125 C 82.609375 54.9375 82.699219 54.300781 82.890625 53.691406 C 83.46875 52.175781 84.546875 50.902344 85.949219 50.089844 C 83.609375 48.289063 79.109375 45.410156 78.75 44.871094 C 75.691406 42.167969 75.058594 39.019531 75.238281 37.578125 L 75.78125 34.070313 L 93.511719 47.300781 C 103.140625 44.507813 109.980469 45.769531 115.109375 47.300781 L 132.839844 34.070313 L 133.289063 37.578125 C 133.558594 39.199219 133.109375 42.167969 129.78125 44.871094 C 129.421875 45.320313 125.101563 48.289063 122.578125 50.089844 C 124.558594 51.347656 125.371094 52.609375 125.730469 53.691406 C 125.855469 54.3125 125.917969 54.945313 125.910156 55.578125 L 125.910156 57.289063 L 126.449219 57.738281 C 160.019531 30.917969 205.921875 0.859375 205.921875 0.859375 C 205.921875 0.859375 203.578125 11.570313 199.890625 23.539063 C 201.691406 22.730469 208.710938 19.398438 208.710938 19.398438 C 207.71875 24 206.363281 28.515625 204.660156 32.898438 Z M 204.660156 32.898438 "/>
</g>
</svg>
