<?xml version="1.0" encoding="UTF-8"?>
<svg xmlns="http://www.w3.org/2000/svg" xmlns:xlink="http://www.w3.org/1999/xlink" width="179pt" height="182pt" viewBox="0 0 179 182" version="1.1">
<g id="surface1">
<path style=" stroke:none;fill-rule:nonzero;fill:rgb(0%,0%,0%);fill-opacity:1;" d="M 163.171875 69.9375 C 162.539063 59.046875 157.679688 49.238281 154.800781 43.386719 L 154.441406 42.757813 L 153.179688 40.238281 L 153.449219 43.027344 C 153.71875 46.898438 154.621094 60.21875 150.660156 67.867188 C 145.710938 78.039063 131.21875 77.046875 126.449219 76.777344 L 126.179688 76.777344 C 118.351563 76.238281 92.878906 75.339844 85.050781 75.339844 C 74.789063 75.429688 63.449219 76.238281 54.269531 76.957031 C 49.769531 77.320313 45.898438 77.589844 43.289063 77.679688 C 43.019531 77.679688 42.75 77.769531 42.300781 77.769531 C 29.519531 78.9375 21.421875 75.160156 18.269531 66.519531 C 16.378906 61.207031 16.378906 50.679688 16.378906 45.636719 L 16.378906 42.039063 L 15.390625 43.839844 C 10.792969 52.015625 7.945313 61.054688 7.019531 70.386719 C 6.121094 86.589844 14.578125 92.4375 20.96875 95.320313 C 27.71875 98.46875 34.558594 98.917969 36.808594 99.097656 L 36.898438 99.097656 C 37.40625 99.171875 37.917969 99.203125 38.429688 99.1875 C 39.183594 99.164063 39.9375 99.222656 40.679688 99.367188 C 39.421875 99.636719 37.800781 99.910156 36.449219 100.089844 C 34.921875 100.453125 33.480469 100.628906 32.761719 100.808594 C 31.230469 101.167969 24.75 102.609375 21.328125 103.867188 C 18.449219 104.859375 15.210938 106.386719 15.121094 106.386719 L 14.578125 106.660156 L 15.03125 107.203125 C 15.03125 107.203125 16.109375 108.636719 17.191406 109.808594 C 21.601563 113.777344 27.484375 115.707031 33.390625 115.117188 C 39.421875 114.398438 42.75 112.867188 44.011719 112.238281 C 44.660156 114.53125 45.441406 116.785156 46.351563 118.988281 C 49.050781 125.738281 55.351563 138.789063 57.691406 143.289063 C 59.578125 146.980469 61.46875 150.21875 62.730469 152.378906 L 63.179688 153.1875 C 62.796875 154.359375 62.039063 155.375 61.019531 156.070313 C 60.839844 156.25 60.75 156.429688 60.570313 156.519531 L 60.480469 156.703125 L 60.480469 156.96875 C 60.390625 158.140625 60.121094 169.570313 67.769531 177.847656 L 67.859375 177.9375 L 67.949219 177.9375 C 71.820313 179.46875 76.769531 181 84.871094 181 C 93.058594 181 99.988281 179.019531 102.421875 177.847656 L 102.601563 177.667969 C 107.910156 171.367188 110.429688 161.738281 110.429688 158.320313 L 110.429688 158.140625 L 110.25 157.957031 L 109.890625 157.597656 C 108.632813 156.484375 107.75 155.007813 107.371094 153.367188 C 108.089844 152.289063 109.351563 149.589844 110.429688 147.429688 C 110.808594 146.464844 111.261719 145.535156 111.78125 144.640625 C 114.03125 140.140625 120.601563 125.917969 123.300781 119.257813 C 124.921875 114.9375 125.820313 112.867188 126.269531 111.96875 C 127.441406 112.597656 130.589844 114.039063 136.53125 114.667969 C 144.179688 115.390625 151.46875 110.347656 153.539063 107.46875 C 153.898438 107.019531 154.441406 106.390625 154.53125 106.296875 L 154.980469 105.757813 L 154.351563 105.488281 C 154.261719 105.488281 154.078125 105.398438 152.820313 104.953125 L 148.589844 103.597656 L 144.359375 102.160156 C 143.191406 101.796875 137.96875 100.628906 134.28125 99.820313 L 131.398438 99.1875 L 132.300781 99.007813 C 141.121094 97.117188 164.519531 93.070313 163.171875 69.9375 Z M 163.171875 69.9375 "/>
<path style="fill-rule:nonzero;fill:rgb(80.859375%,6.665039%,25.488281%);fill-opacity:1;stroke-width:1.8;stroke-linecap:butt;stroke-linejoin:miter;stroke:rgb(80.859375%,6.665039%,25.488281%);stroke-opacity:1;stroke-miterlimit:4;" d="M 154.804688 1354.609375 C 152.109375 1294.296875 153.007813 1228.632813 166.484375 1171.015625 C 154.257813 1183.984375 141.367188 1196.328125 127.8125 1207.929688 C 115.195313 1194.414063 104.414063 1180 91.796875 1167.421875 C 104.765625 1232.226563 125.9375 1295.15625 154.804688 1354.609375 Z M 154.804688 1354.609375 " transform="matrix(0.1,0,0,-0.1,0,182)"/>
<path style="fill-rule:nonzero;fill:rgb(80.859375%,6.665039%,25.488281%);fill-opacity:1;stroke-width:1.8;stroke-linecap:butt;stroke-linejoin:miter;stroke:rgb(80.859375%,6.665039%,25.488281%);stroke-opacity:1;stroke-miterlimit:4;" d="M 1608.28125 1194.414063 L 1611.914063 1178.203125 L 1580.390625 1200.703125 C 1566.015625 1194.414063 1552.5 1185.429688 1538.984375 1179.101563 C 1548.828125 1238.28125 1551.835938 1298.359375 1548.007813 1358.203125 C 1575.898438 1306.914063 1591.210938 1251.132813 1608.28125 1194.414063 Z M 1608.28125 1194.414063 " transform="matrix(0.1,0,0,-0.1,0,182)"/>
<path style=" stroke:none;fill-rule:nonzero;fill:rgb(80.859375%,6.665039%,25.488281%);fill-opacity:1;" d="M 85.230469 119.617188 C 88.46875 124.660156 94.5 126.097656 100.078125 124.660156 C 102.132813 124.203125 104.125 123.503906 106.019531 122.589844 C 104.082031 128.078125 103.136719 133.867188 103.230469 139.6875 C 103.246094 144.734375 104.066406 149.75 105.660156 154.539063 C 104.851563 154.359375 104.128906 153.730469 103.230469 153.367188 C 92.160156 147.789063 76.589844 147.96875 65.699219 153.730469 C 66.238281 152.019531 66.78125 150.039063 67.230469 148.238281 C 68.851563 139.867188 67.679688 131.136719 64.800781 123.488281 C 70.648438 125.917969 79.199219 126.457031 83.96875 121.058594 C 84.34375 120.539063 84.765625 120.058594 85.230469 119.617188 Z M 85.230469 119.617188 "/>
<path style="fill:none;stroke-width:1.8;stroke-linecap:butt;stroke-linejoin:miter;stroke:rgb(80.859375%,6.665039%,25.488281%);stroke-opacity:1;stroke-miterlimit:4;" d="M 852.304688 623.828125 C 884.6875 573.398438 945 559.023438 1000.78125 573.398438 C 1021.328125 578.007813 1041.25 584.960938 1060.195313 594.101563 C 1040.820313 539.21875 1031.367188 481.328125 1032.304688 423.125 C 1032.460938 372.65625 1040.664063 322.5 1056.601563 274.609375 C 1048.515625 276.40625 1041.289063 282.695313 1032.304688 286.328125 C 921.601563 342.109375 765.898438 340.3125 656.992188 282.695313 C 662.382813 299.804688 667.8125 319.609375 672.304688 337.617188 C 688.515625 421.328125 676.796875 508.632813 648.007813 585.117188 C 706.484375 560.820313 791.992188 555.429688 839.6875 609.414063 C 843.4375 614.609375 847.65625 619.414063 852.304688 623.828125 Z M 852.304688 623.828125 " transform="matrix(0.1,0,0,-0.1,0,182)"/>
<path style=" stroke:none;fill-rule:nonzero;fill:rgb(80.859375%,6.665039%,25.488281%);fill-opacity:1;" d="M 60.570313 123.757813 C 60.300781 126.097656 59.488281 128.796875 56.96875 129.703125 C 54.898438 130.238281 53.101563 129.070313 51.75 127.628906 C 51.125 126.945313 50.6875 126.105469 50.488281 125.203125 C 53.640625 127.269531 57.78125 125.648438 60.480469 123.667969 Z M 60.570313 123.757813 "/>
<path style="fill:none;stroke-width:1.8;stroke-linecap:butt;stroke-linejoin:miter;stroke:rgb(80.859375%,6.665039%,25.488281%);stroke-opacity:1;stroke-miterlimit:4;" d="M 605.703125 582.421875 C 603.007813 559.023438 594.882813 532.03125 569.6875 523.007813 C 548.984375 517.617188 531.015625 529.296875 517.5 543.710938 C 511.25 550.546875 506.875 558.945313 504.882813 568.007813 C 536.40625 547.304688 577.8125 563.515625 604.804688 583.320313 Z M 605.703125 582.421875 " transform="matrix(0.1,0,0,-0.1,0,182)"/>
<path style="fill-rule:nonzero;fill:rgb(80.859375%,6.665039%,25.488281%);fill-opacity:1;stroke-width:1.8;stroke-linecap:butt;stroke-linejoin:miter;stroke:rgb(80.859375%,6.665039%,25.488281%);stroke-opacity:1;stroke-miterlimit:4;" d="M 1198.789063 579.726563 C 1191.601563 558.125 1172.695313 536.523438 1151.09375 532.03125 C 1134.53125 529.453125 1118.085938 537.304688 1109.6875 551.796875 C 1104.023438 559.765625 1100.625 569.101563 1099.804688 578.828125 C 1127.695313 556.328125 1171.796875 561.71875 1198.789063 579.726563 Z M 1198.789063 579.726563 " transform="matrix(0.1,0,0,-0.1,0,182)"/>
<path style=" stroke:none;fill-rule:nonzero;fill:rgb(80.859375%,6.665039%,25.488281%);fill-opacity:1;" d="M 113.761719 130.148438 C 114.949219 130.265625 116.148438 130.113281 117.269531 129.703125 C 114.121094 137.527344 110.339844 145.089844 106.46875 152.648438 C 105.121094 148.867188 105.480469 144.820313 105.660156 140.589844 C 106.261719 135.664063 107.347656 130.808594 108.898438 126.097656 C 109.980469 127.898438 111.691406 129.789063 113.761719 130.148438 Z M 113.761719 130.148438 "/>
<path style="fill:none;stroke-width:1.8;stroke-linecap:butt;stroke-linejoin:miter;stroke:rgb(80.859375%,6.665039%,25.488281%);stroke-opacity:1;stroke-miterlimit:4;" d="M 1137.617188 518.515625 C 1149.492188 517.34375 1161.484375 518.867188 1172.695313 523.007813 C 1141.210938 444.726563 1103.398438 369.101563 1064.6875 293.515625 C 1051.210938 331.328125 1054.804688 371.796875 1056.601563 414.101563 C 1062.617188 463.359375 1073.476563 511.914063 1088.984375 559.023438 C 1099.804688 541.015625 1116.914063 522.109375 1137.617188 518.515625 Z M 1137.617188 518.515625 " transform="matrix(0.1,0,0,-0.1,0,182)"/>
<path style=" stroke:none;fill-rule:nonzero;fill:rgb(80.859375%,6.665039%,25.488281%);fill-opacity:1;" d="M 64.53125 152.558594 L 64.53125 152.648438 C 59.761719 145.453125 56.160156 137.796875 52.738281 130.148438 C 54.269531 130.957031 56.878906 131.5 58.5 130.417969 C 59.953125 129.28125 60.996094 127.703125 61.46875 125.917969 C 65.339844 133.660156 66.238281 143.738281 64.53125 152.558594 Z M 64.53125 152.558594 "/>
<path style="fill:none;stroke-width:1.8;stroke-linecap:butt;stroke-linejoin:miter;stroke:rgb(80.859375%,6.665039%,25.488281%);stroke-opacity:1;stroke-miterlimit:4;" d="M 645.3125 294.414063 L 645.3125 293.515625 C 597.617188 365.507813 561.601563 442.03125 527.382813 518.515625 C 542.695313 510.429688 568.789063 505 585 515.820313 C 599.53125 527.1875 609.960938 542.96875 614.6875 560.820313 C 653.398438 483.398438 662.382813 382.617188 645.3125 294.414063 Z M 645.3125 294.414063 " transform="matrix(0.1,0,0,-0.1,0,182)"/>
<path style=" stroke:none;fill-rule:nonzero;fill:rgb(80.859375%,6.665039%,25.488281%);fill-opacity:1;" d="M 108.898438 158.679688 C 108.273438 165.265625 105.667969 171.507813 101.429688 176.589844 C 91.621094 180.457031 78.390625 180.820313 68.578125 176.679688 C 63.71875 171.457031 61.921875 164.707031 61.648438 157.507813 C 72.089844 149.953125 88.378906 148.238281 100.351563 153.636719 C 103.320313 155.078125 106.289063 156.519531 108.898438 158.679688 Z M 108.898438 158.679688 "/>
<path style="fill:none;stroke-width:1.8;stroke-linecap:butt;stroke-linejoin:miter;stroke:rgb(80.859375%,6.665039%,25.488281%);stroke-opacity:1;stroke-miterlimit:4;" d="M 1088.984375 233.203125 C 1082.734375 167.34375 1056.679688 104.921875 1014.296875 54.101563 C 916.210938 15.429688 783.90625 11.796875 685.78125 53.203125 C 637.1875 105.429688 619.21875 172.929688 616.484375 244.921875 C 720.898438 320.507813 883.789063 337.617188 1003.515625 283.632813 C 1033.203125 269.21875 1062.890625 254.804688 1088.984375 233.203125 Z M 1088.984375 233.203125 " transform="matrix(0.1,0,0,-0.1,0,182)"/>
<path style=" stroke:none;fill-rule:nonzero;fill:rgb(80.859375%,6.665039%,25.488281%);fill-opacity:1;" d="M 149.308594 104.5 C 140.429688 101.335938 131.105469 99.601563 121.679688 99.367188 C 120.871094 89.378906 119.699219 83.167969 117.71875 77.5 C 113.128906 77.230469 92.789063 76.417969 84.871094 76.417969 C 77.039063 76.417969 56.96875 77.679688 52.46875 77.949219 C 49.90625 85 48.242188 92.347656 47.519531 99.820313 C 37.511719 100.589844 27.644531 102.679688 18.179688 106.027344 C 16.921875 106.480469 16.378906 106.929688 16.378906 106.839844 C 19.820313 111.210938 25.035156 113.820313 30.601563 113.953125 C 33.300781 114.039063 38.429688 113.5 41.671875 112.058594 C 42.570313 111.703125 44.371094 110.886719 44.371094 110.886719 C 44.722656 111.492188 45.023438 112.125 45.269531 112.777344 C 46.171875 115.296875 47.339844 118.988281 48.148438 120.519531 C 49.320313 122.953125 51.210938 124.75 54.269531 124.839844 C 56.289063 124.726563 58.164063 123.738281 59.398438 122.136719 C 51.480469 121.6875 48.148438 117.457031 47.609375 111.070313 C 45.71875 110.796875 45.179688 110.617188 45 109.539063 C 44.765625 108.390625 45.0625 107.203125 45.808594 106.296875 C 46.710938 105.039063 48.238281 103.867188 52.019531 105.039063 C 54.171875 105.875 56.152344 107.09375 57.871094 108.636719 C 59.488281 110.167969 64.261719 115.117188 67.140625 116.738281 C 70.199219 118.539063 76.050781 120.25 79.828125 116.46875 C 82.234375 114.195313 83.816406 111.1875 84.328125 107.917969 C 78.367188 107.757813 72.414063 107.246094 66.511719 106.386719 C 64.890625 106.117188 65.609375 104.589844 66.871094 104.953125 C 66.871094 104.953125 77.21875 106.296875 84.601563 106.386719 C 84.601563 105.488281 84.601563 104.046875 84.691406 102.339844 C 78.46875 102.207031 72.269531 101.578125 66.148438 100.453125 C 64.800781 100.089844 65.070313 98.558594 66.328125 98.917969 C 72.40625 99.914063 78.539063 100.515625 84.691406 100.71875 C 84.691406 99.457031 84.78125 97.570313 84.78125 95.859375 C 78.6875 95.769531 72.613281 95.226563 66.601563 94.238281 C 65.070313 93.96875 65.429688 92.617188 66.601563 92.796875 C 72.628906 93.621094 78.699219 94.101563 84.78125 94.238281 L 84.78125 90.1875 C 84.78125 88.660156 86.128906 88.570313 86.128906 90.097656 L 86.128906 94.148438 C 91.859375 94.007813 97.574219 93.46875 103.230469 92.527344 C 105.03125 92.167969 104.851563 93.703125 104.039063 93.789063 C 98.128906 94.929688 92.144531 95.621094 86.128906 95.859375 L 86.128906 100.71875 C 91.621094 100.539063 98.101563 100.359375 103.589844 99.097656 C 105.660156 98.648438 105.839844 100.269531 104.128906 100.539063 C 98.207031 101.546875 92.222656 102.148438 86.21875 102.339844 C 86.21875 103.6875 86.21875 105.398438 86.308594 106.386719 C 92.546875 106.203125 98.765625 105.65625 104.941406 104.769531 C 106.378906 104.5 106.648438 106.027344 105.121094 106.296875 C 103.589844 106.480469 93.238281 107.828125 86.578125 108.007813 C 87.300781 110.257813 87.390625 113.5 90.628906 116.289063 C 93.691406 118.988281 99 118.71875 102.691406 116.558594 C 105.570313 114.847656 110.160156 109.898438 111.78125 108.367188 C 113.128906 107.203125 116.371094 104.230469 120.691406 104.320313 C 124.921875 104.410156 125.011719 106.570313 125.28125 107.203125 C 125.460938 107.917969 125.640625 109.089844 124.648438 109.71875 C 123.929688 110.167969 123.210938 109.988281 122.488281 110.347656 C 121.949219 113.859375 120.871094 117.820313 118.078125 119.886719 C 115.109375 122.136719 110.519531 122.410156 110.519531 122.410156 C 110.519531 122.410156 111.148438 123.128906 111.328125 123.308594 C 112.53125 124.164063 114.003906 124.550781 115.46875 124.386719 C 117.378906 124.0625 119.140625 123.152344 120.511719 121.777344 C 121.949219 119.886719 123.300781 116.019531 124.289063 113.5 C 124.648438 112.597656 125.550781 110.886719 125.820313 110.167969 C 126.71875 110.527344 127.078125 110.796875 128.699219 111.429688 C 132.007813 112.671875 135.519531 113.28125 139.050781 113.230469 C 143.460938 113.136719 148.5 110.4375 151.46875 107.648438 C 151.921875 107.203125 153 105.9375 153 105.9375 C 153 105.9375 150.121094 104.769531 149.308594 104.5 Z M 149.308594 104.5 "/>
<path style="fill:none;stroke-width:1.8;stroke-linecap:butt;stroke-linejoin:miter;stroke:rgb(80.859375%,6.665039%,25.488281%);stroke-opacity:1;stroke-miterlimit:4;" d="M 1493.085938 775 C 1404.296875 806.640625 1311.054688 823.984375 1216.796875 826.328125 C 1208.710938 926.210938 1196.992188 988.320313 1177.1875 1045 C 1131.289063 1047.695313 927.890625 1055.820313 848.710938 1055.820313 C 770.390625 1055.820313 569.6875 1043.203125 524.6875 1040.507813 C 499.0625 970 482.421875 896.523438 475.195313 821.796875 C 375.117188 814.101563 276.445313 793.203125 181.796875 759.726563 C 169.21875 755.195313 163.789063 750.703125 163.789063 751.601563 C 198.203125 707.890625 250.351563 681.796875 306.015625 680.507813 C 333.007813 679.609375 384.296875 685 416.71875 699.414063 C 425.703125 703.007813 443.710938 711.132813 443.710938 711.132813 C 447.226563 705.078125 450.234375 698.75 452.695313 692.226563 C 461.71875 667.03125 473.398438 630.117188 481.484375 614.804688 C 493.203125 590.507813 512.109375 572.5 542.695313 571.601563 C 562.890625 572.734375 581.640625 582.617188 593.984375 598.632813 C 514.804688 603.125 481.484375 645.429688 476.09375 709.296875 C 457.1875 712.03125 451.796875 713.828125 450 724.609375 C 447.65625 736.09375 450.625 748.007813 458.085938 757.03125 C 467.109375 769.609375 482.382813 781.328125 520.195313 769.609375 C 541.71875 761.25 561.523438 749.0625 578.710938 733.632813 C 594.882813 718.320313 642.617188 668.828125 671.40625 652.617188 C 701.992188 634.609375 760.507813 617.5 798.28125 655.3125 C 822.34375 678.046875 838.164063 708.125 843.28125 740.820313 C 783.671875 742.421875 724.140625 747.539063 665.117188 756.132813 C 648.90625 758.828125 656.09375 774.101563 668.710938 770.507813 C 668.710938 770.507813 772.1875 757.03125 846.015625 756.132813 C 846.015625 765.117188 846.015625 779.53125 846.914063 796.601563 C 784.6875 797.929688 722.695313 804.257813 661.484375 815.507813 C 648.007813 819.101563 650.703125 834.414063 663.28125 830.820313 C 724.0625 820.859375 785.390625 814.84375 846.914063 812.8125 C 846.914063 825.429688 847.8125 844.296875 847.8125 861.40625 C 786.875 862.304688 726.132813 867.734375 666.015625 877.617188 C 650.703125 880.3125 654.296875 893.828125 666.015625 892.03125 C 726.289063 883.789063 786.992188 878.984375 847.8125 877.617188 L 847.8125 918.125 C 847.8125 933.398438 861.289063 934.296875 861.289063 919.023438 L 861.289063 878.515625 C 918.59375 879.921875 975.742188 885.3125 1032.304688 894.726563 C 1050.3125 898.320313 1048.515625 883.007813 1040.390625 882.109375 C 981.289063 870.703125 921.445313 863.789063 861.289063 861.40625 L 861.289063 812.8125 C 916.210938 814.609375 981.015625 816.40625 1035.898438 829.023438 C 1056.601563 833.515625 1058.398438 817.304688 1041.289063 814.609375 C 982.070313 804.53125 922.226563 798.515625 862.1875 796.601563 C 862.1875 783.125 862.1875 766.015625 863.085938 756.132813 C 925.46875 758.007813 987.65625 763.4375 1049.414063 772.304688 C 1063.789063 775 1066.484375 759.726563 1051.210938 757.03125 C 1035.898438 755.195313 932.382813 741.71875 865.78125 739.921875 C 873.007813 717.421875 873.90625 685 906.289063 657.109375 C 936.914063 630.117188 990 632.8125 1026.914063 654.414063 C 1055.703125 671.523438 1101.601563 721.015625 1117.8125 736.328125 C 1131.289063 748.007813 1163.710938 777.695313 1206.914063 776.796875 C 1249.21875 775.898438 1250.117188 754.296875 1252.8125 748.007813 C 1254.609375 740.820313 1256.40625 729.101563 1246.484375 722.8125 C 1239.296875 718.320313 1232.109375 720.117188 1224.882813 716.523438 C 1219.492188 681.40625 1208.710938 641.796875 1180.78125 621.132813 C 1151.09375 598.632813 1105.195313 595.898438 1105.195313 595.898438 C 1105.195313 595.898438 1111.484375 588.710938 1113.28125 586.914063 C 1125.3125 578.359375 1140.039063 574.492188 1154.6875 576.132813 C 1173.789063 579.375 1191.40625 588.476563 1205.117188 602.226563 C 1219.492188 621.132813 1233.007813 659.804688 1242.890625 685 C 1246.484375 694.023438 1255.507813 711.132813 1258.203125 718.320313 C 1267.1875 714.726563 1270.78125 712.03125 1286.992188 705.703125 C 1320.078125 693.28125 1355.195313 687.1875 1390.507813 687.695313 C 1434.609375 688.632813 1485 715.625 1514.6875 743.515625 C 1519.21875 748.007813 1530 760.625 1530 760.625 C 1530 760.625 1501.210938 772.304688 1493.085938 775 Z M 1493.085938 775 " transform="matrix(0.1,0,0,-0.1,0,182)"/>
<path style="fill-rule:nonzero;fill:rgb(0%,0%,0%);fill-opacity:1;stroke-width:1.8;stroke-linecap:butt;stroke-linejoin:miter;stroke:rgb(80.859375%,6.665039%,25.488281%);stroke-opacity:1;stroke-miterlimit:4;" d="M 1018.789063 222.421875 C 1026.914063 207.109375 1020.585938 190 1011.601563 176.523438 C 995.234375 156.171875 968.4375 147.34375 943.203125 154.023438 C 927.65625 158.945313 914.296875 169.140625 905.390625 182.8125 C 901.796875 170.195313 910.78125 161.210938 909.882813 149.53125 C 908.28125 147.070313 904.882813 146.640625 902.695313 148.632813 C 888.28125 167.5 882.890625 196.328125 895.507813 217.03125 C 910.78125 245.820313 940.507813 257.5 971.992188 254.804688 C 991.875 252.109375 1009.296875 240.078125 1018.789063 222.421875 Z M 1018.789063 222.421875 " transform="matrix(0.1,0,0,-0.1,0,182)"/>
<path style=" stroke:none;fill-rule:nonzero;fill:rgb(0%,0%,0%);fill-opacity:1;" d="M 80.191406 160.75 C 81.449219 162.820313 80.820313 165.519531 79.648438 167.5 C 79.46875 167.769531 79.199219 168.039063 78.839844 167.769531 C 78.300781 167.136719 79.019531 166.597656 79.109375 165.96875 C 79.273438 165.445313 79.304688 164.886719 79.199219 164.347656 C 77.644531 166.628906 74.898438 167.792969 72.179688 167.320313 C 70.144531 166.828125 68.46875 165.386719 67.679688 163.453125 C 67.304688 162.203125 67.5 160.847656 68.21875 159.757813 C 70.109375 157.238281 73.53125 156.703125 76.320313 157.597656 C 77.953125 158.140625 79.328125 159.261719 80.191406 160.75 Z M 80.191406 160.75 "/>
<path style="fill:none;stroke-width:1.8;stroke-linecap:butt;stroke-linejoin:miter;stroke:rgb(80.859375%,6.665039%,25.488281%);stroke-opacity:1;stroke-miterlimit:4;" d="M 801.914063 212.5 C 814.492188 191.796875 808.203125 164.804688 796.484375 145 C 794.6875 142.304688 791.992188 139.609375 788.398438 142.304688 C 783.007813 148.632813 790.195313 154.023438 791.09375 160.3125 C 792.734375 165.546875 793.046875 171.132813 791.992188 176.523438 C 776.445313 153.710938 748.984375 142.070313 721.796875 146.796875 C 701.445313 151.71875 684.6875 166.132813 676.796875 185.507813 C 673.046875 198.007813 675 211.523438 682.1875 222.421875 C 701.09375 247.617188 735.3125 253.007813 763.203125 244.023438 C 779.53125 238.59375 793.28125 227.382813 801.914063 212.5 Z M 801.914063 212.5 " transform="matrix(0.1,0,0,-0.1,0,182)"/>
<path style="fill-rule:nonzero;fill:rgb(0%,0%,0%);fill-opacity:1;stroke-width:1.8;stroke-linecap:butt;stroke-linejoin:miter;stroke:rgb(80.859375%,6.665039%,25.488281%);stroke-opacity:1;stroke-miterlimit:4;" d="M 1016.992188 76.601563 C 1015.195313 72.109375 1014.296875 72.109375 1010.703125 67.617188 C 1000.78125 70.3125 990 73.90625 979.21875 77.5 C 889.21875 112.617188 774.882813 102.695313 690.3125 67.617188 C 687.539063 69.53125 685.585938 72.421875 684.882813 75.703125 C 783.007813 119.804688 918.007813 125.195313 1016.992188 76.601563 Z M 1016.992188 76.601563 " transform="matrix(0.1,0,0,-0.1,0,182)"/>
<path style=" stroke:none;fill-rule:nonzero;fill:rgb(0%,0%,0%);fill-opacity:1;" d="M 103.320313 126.546875 C 101.878906 133.660156 97.378906 141.847656 89.820313 143.917969 C 83.878906 145.453125 77.21875 144.1875 73.171875 139.238281 C 70.375 135.667969 68.714844 131.34375 68.398438 126.820313 C 68.675781 126.671875 68.988281 126.609375 69.300781 126.636719 C 69.929688 133.386719 73.441406 140.769531 80.191406 142.839844 C 86.3125 144.78125 93 142.828125 97.109375 137.886719 C 99.71875 134.425781 101.53125 130.433594 102.421875 126.1875 C 102.757813 126.171875 103.085938 126.300781 103.320313 126.546875 Z M 103.320313 126.546875 "/>
<path style="fill:none;stroke-width:1.8;stroke-linecap:butt;stroke-linejoin:miter;stroke:rgb(80.859375%,6.665039%,25.488281%);stroke-opacity:1;stroke-miterlimit:4;" d="M 1033.203125 554.53125 C 1018.789063 483.398438 973.789063 401.523438 898.203125 380.820313 C 838.789063 365.507813 772.1875 378.125 731.71875 427.617188 C 703.75 463.320313 687.148438 506.5625 683.984375 551.796875 C 686.757813 553.28125 689.882813 553.90625 693.007813 553.632813 C 699.296875 486.132813 734.414063 412.304688 801.914063 391.601563 C 863.125 372.1875 930 391.757813 971.09375 441.132813 C 997.1875 475.742188 1015.3125 515.664063 1024.21875 558.125 C 1027.578125 558.28125 1030.859375 556.992188 1033.203125 554.53125 Z M 1033.203125 554.53125 " transform="matrix(0.1,0,0,-0.1,0,182)"/>
<path style=" stroke:none;fill-rule:nonzero;fill:rgb(0%,0%,0%);fill-opacity:1;" d="M 14.851563 2.347656 C 13.414063 1.148438 11.589844 0.507813 9.71875 0.546875 C 7.648438 0.636719 0 3.25 0 14.589844 C 0 26.019531 6.929688 29.707031 11.070313 29.707031 C 15.210938 29.707031 19.441406 26.558594 20.789063 20.980469 C 20.96875 20.167969 20.878906 20.078125 20.070313 19.71875 L 17.371094 18.636719 C 16.738281 18.457031 16.648438 18.457031 16.289063 19.539063 C 16.019531 20.347656 14.851563 23.589844 12.058594 23.589844 C 9.269531 23.589844 8.101563 19.539063 8.101563 15.21875 C 8.101563 10.988281 8.820313 6.9375 12.238281 6.9375 C 15.660156 6.9375 16.378906 10.539063 16.648438 11.886719 C 16.738281 12.519531 16.828125 12.519531 17.460938 12.519531 L 19.980469 12.519531 C 20.519531 12.519531 20.519531 12.519531 20.519531 11.347656 L 20.519531 1.988281 C 20.519531 1.449219 20.429688 1.449219 19.351563 1.449219 L 17.101563 1.449219 C 16.648438 1.449219 16.648438 1.539063 16.378906 2.167969 C 16.109375 2.527344 15.570313 3.070313 14.851563 2.347656 Z M 14.851563 2.347656 "/>
<path style=" stroke:none;fill-rule:nonzero;fill:rgb(0%,0%,0%);fill-opacity:1;" d="M 117.539063 6.9375 L 122.761719 23.410156 C 123.03125 24.128906 123.03125 24.21875 123.480469 24.21875 L 124.199219 24.21875 C 125.101563 24.21875 125.101563 24.21875 125.101563 24.9375 L 125.101563 28.089844 C 125.101563 29.167969 125.011719 29.167969 124.46875 29.167969 L 114.121094 29.167969 C 113.21875 29.167969 113.21875 29.078125 113.21875 28.449219 L 113.21875 25.207031 C 113.21875 24.21875 113.308594 24.21875 114.03125 24.21875 L 115.019531 24.21875 C 115.558594 24.21875 115.558594 24.039063 115.378906 23.410156 L 114.570313 20.886719 C 114.300781 20.4375 114.210938 20.4375 113.578125 20.4375 L 107.28125 20.4375 L 108.628906 16.660156 L 112.5 16.660156 C 113.128906 16.660156 113.21875 16.570313 113.039063 16.117188 L 110.699219 8.828125 C 110.609375 8.378906 110.429688 8.378906 110.339844 8.738281 L 108 16.117188 C 107.820313 16.660156 107.820313 16.660156 108.71875 16.660156 L 107.371094 20.4375 C 106.648438 20.4375 106.648438 20.4375 106.46875 20.886719 L 105.660156 23.410156 C 105.480469 24.128906 105.480469 24.21875 105.929688 24.21875 L 106.921875 24.21875 C 107.730469 24.21875 107.730469 24.308594 107.730469 25.207031 L 107.730469 28.449219 C 107.730469 29.078125 107.640625 29.167969 106.828125 29.167969 L 99.71875 29.167969 C 99.089844 29.167969 99.089844 29.078125 99.089844 28.089844 L 99.089844 24.9375 C 99.089844 24.308594 99.179688 24.21875 99.898438 24.21875 L 100.621094 24.21875 C 100.96875 24.273438 101.292969 24.027344 101.339844 23.679688 L 106.648438 7.027344 C 106.828125 6.578125 106.828125 6.488281 106.019531 6.488281 L 105.03125 6.488281 C 104.21875 6.488281 104.21875 6.398438 104.21875 5.769531 L 104.21875 2.4375 C 104.21875 1.449219 104.21875 1.449219 105.390625 1.449219 L 119.160156 1.449219 C 119.96875 1.449219 119.96875 1.539063 119.96875 2.4375 L 119.96875 5.589844 C 119.96875 6.308594 119.96875 6.308594 118.980469 6.308594 L 117.898438 6.308594 C 117.359375 6.21875 117.359375 6.398438 117.539063 6.9375 Z M 117.539063 6.9375 "/>
<path style=" stroke:none;fill-rule:nonzero;fill:rgb(0%,0%,0%);fill-opacity:1;" d="M 142.46875 19.449219 L 144.269531 19.449219 C 145.078125 19.449219 145.078125 19.539063 145.078125 19.988281 C 145.078125 21.609375 143.910156 23.589844 140.941406 23.589844 C 138.148438 23.589844 136.980469 19.539063 136.980469 15.21875 C 136.980469 10.988281 137.699219 6.9375 141.121094 6.9375 C 143.1875 6.878906 145.023438 8.261719 145.53125 10.269531 C 145.621094 10.898438 145.621094 10.898438 146.339844 10.898438 L 148.859375 10.898438 C 149.398438 10.898438 149.398438 10.898438 149.398438 9.636719 L 149.398438 1.988281 C 149.398438 1.449219 149.308594 1.449219 148.230469 1.449219 L 145.980469 1.449219 C 145.53125 1.449219 145.53125 1.449219 145.171875 2.167969 C 145.078125 2.527344 144.449219 3.070313 143.730469 2.347656 C 142.285156 1.160156 140.46875 0.523438 138.601563 0.546875 C 136.53125 0.636719 128.878906 3.25 128.878906 14.589844 C 128.878906 26.019531 135.71875 29.707031 139.949219 29.707031 C 146.25 29.707031 151.109375 24.9375 151.109375 15.9375 C 151.109375 15.039063 151.019531 14.949219 149.761719 14.949219 L 142.289063 14.949219 C 141.570313 14.949219 141.480469 15.039063 141.480469 15.847656 L 141.480469 18.820313 C 141.480469 19.449219 141.570313 19.449219 142.46875 19.449219 Z M 142.46875 19.449219 "/>
<path style=" stroke:none;fill-rule:nonzero;fill:rgb(0%,0%,0%);fill-opacity:1;" d="M 166.679688 1.269531 C 159.839844 1.269531 154.351563 7.75 154.351563 15.578125 C 154.351563 23.5 159.839844 29.796875 166.679688 29.796875 C 173.429688 29.796875 178.921875 23.5 178.921875 15.578125 C 178.921875 7.75 173.429688 1.269531 166.679688 1.269531 L 166.589844 6.398438 C 169.109375 6.398438 171.179688 10.539063 171.179688 15.578125 C 171.179688 20.617188 169.199219 24.757813 166.589844 24.757813 C 164.070313 24.757813 162 20.617188 162 15.578125 C 162 10.539063 164.070313 6.398438 166.589844 6.398438 Z M 166.679688 1.269531 "/>
<path style=" stroke:none;fill-rule:nonzero;fill:rgb(0%,0%,0%);fill-opacity:1;" d="M 28.53125 23.589844 L 28.53125 7.117188 C 28.53125 6.488281 28.441406 6.398438 27.808594 6.398438 L 27 6.398438 C 26.191406 6.398438 26.191406 6.308594 26.191406 5.769531 L 26.191406 2.167969 C 26.191406 1.539063 26.28125 1.449219 27.179688 1.449219 L 36.898438 1.449219 C 37.621094 1.449219 37.710938 1.449219 37.710938 2.167969 L 37.710938 5.5 C 37.710938 6.21875 37.621094 6.21875 36.898438 6.21875 L 36.359375 6.21875 C 35.910156 6.21875 35.820313 6.21875 35.910156 6.847656 L 35.910156 11.617188 C 35.910156 12.789063 35.910156 12.878906 36.898438 12.878906 L 42.121094 12.878906 C 43.109375 12.878906 43.109375 12.789063 43.109375 11.617188 L 43.109375 6.847656 C 43.109375 6.21875 43.019531 6.21875 42.660156 6.21875 L 42.121094 6.21875 C 41.308594 6.21875 41.21875 6.21875 41.21875 5.5 L 41.21875 2.167969 C 41.21875 1.449219 41.398438 1.449219 42.121094 1.449219 L 51.75 1.449219 C 52.828125 1.449219 52.828125 1.449219 52.828125 2.167969 L 52.828125 5.769531 C 52.828125 6.398438 52.738281 6.398438 51.929688 6.398438 L 51.121094 6.398438 C 50.488281 6.398438 50.488281 6.488281 50.488281 7.117188 L 50.488281 23.589844 C 50.488281 24.21875 50.578125 24.21875 51.300781 24.21875 L 52.109375 24.21875 C 52.828125 24.21875 52.828125 24.21875 52.828125 25.207031 L 52.828125 28.449219 C 52.828125 28.988281 52.828125 29.167969 51.929688 29.167969 L 41.671875 29.167969 C 41.039063 29.167969 41.039063 29.167969 41.039063 28.089844 L 41.039063 24.9375 C 40.949219 24.21875 41.039063 24.21875 41.851563 24.21875 L 42.390625 24.21875 C 43.019531 24.21875 43.019531 24.128906 43.019531 23.5 L 43.019531 18.367188 C 43.019531 17.199219 42.929688 17.109375 42.121094 17.109375 L 36.898438 17.109375 C 36.089844 17.109375 36 17.199219 36 18.367188 L 36 23.5 C 36 24.21875 36 24.21875 36.628906 24.21875 L 37.171875 24.21875 C 37.980469 24.21875 37.980469 24.21875 37.980469 24.9375 L 37.980469 28.089844 C 37.980469 29.167969 37.980469 29.167969 37.351563 29.167969 L 27 29.167969 C 26.191406 29.167969 26.191406 29.167969 26.191406 28.449219 L 26.191406 25.207031 C 26.191406 24.21875 26.28125 24.21875 26.820313 24.21875 L 27.71875 24.21875 C 28.53125 24.21875 28.53125 24.21875 28.53125 23.589844 Z M 28.53125 23.589844 "/>
<path style=" stroke:none;fill-rule:nonzero;fill:rgb(0%,0%,0%);fill-opacity:1;" d="M 60.03125 6.9375 C 60.03125 6.308594 60.03125 6.308594 59.578125 6.308594 L 58.679688 6.308594 C 57.78125 6.308594 57.78125 6.21875 57.78125 5.589844 L 57.78125 2.167969 C 57.78125 1.449219 57.871094 1.449219 58.589844 1.449219 L 68.21875 1.449219 C 69.300781 1.449219 69.300781 1.449219 69.300781 2.167969 L 69.300781 5.769531 C 69.300781 6.398438 69.210938 6.398438 68.398438 6.398438 L 67.949219 6.398438 C 67.320313 6.398438 67.320313 6.488281 67.320313 7.117188 L 67.320313 23.589844 C 67.320313 24.21875 67.410156 24.21875 68.128906 24.21875 L 68.851563 24.21875 C 69.480469 24.21875 69.480469 24.21875 69.480469 25.207031 L 69.480469 28.449219 C 69.480469 28.988281 69.480469 29.167969 68.671875 29.167969 L 58.410156 29.167969 C 57.78125 29.167969 57.78125 29.167969 57.78125 28.089844 L 57.78125 24.9375 C 57.691406 24.21875 57.78125 24.21875 58.589844 24.21875 L 59.398438 24.21875 C 60.03125 24.21875 60.03125 24.21875 60.03125 23.5 Z M 60.03125 6.9375 "/>
<path style=" stroke:none;fill-rule:nonzero;fill:rgb(0%,0%,0%);fill-opacity:1;" d="M 88.199219 2.347656 C 86.757813 1.160156 84.9375 0.523438 83.070313 0.546875 C 81 0.636719 73.351563 3.25 73.351563 14.589844 C 73.351563 26.019531 80.191406 29.707031 84.421875 29.707031 C 88.558594 29.707031 92.789063 26.558594 94.140625 20.980469 C 94.320313 20.167969 94.230469 20.078125 93.421875 19.71875 L 90.71875 18.636719 C 90.089844 18.457031 90 18.457031 89.640625 19.539063 C 89.371094 20.347656 88.199219 23.589844 85.410156 23.589844 C 82.621094 23.589844 81.449219 19.539063 81.449219 15.21875 C 81.449219 10.988281 82.171875 6.9375 85.589844 6.9375 C 89.011719 6.9375 89.730469 10.539063 90 11.886719 C 90.089844 12.519531 90.179688 12.519531 90.808594 12.519531 L 93.328125 12.519531 C 93.871094 12.519531 93.871094 12.519531 93.871094 11.347656 L 93.871094 1.988281 C 93.871094 1.449219 93.78125 1.449219 92.699219 1.449219 L 90.449219 1.449219 C 90 1.449219 90 1.539063 89.730469 2.167969 C 89.460938 2.527344 88.921875 3.070313 88.199219 2.347656 Z M 88.199219 2.347656 "/>
<path style=" stroke:none;fill-rule:nonzero;fill:rgb(0%,0%,0%);fill-opacity:1;" d="M 26.910156 42.21875 L 26.910156 58.597656 C 26.910156 59.136719 26.820313 59.136719 26.28125 59.136719 L 25.378906 59.136719 C 24.660156 59.136719 24.570313 59.320313 24.570313 60.039063 L 24.570313 63.457031 C 24.570313 64.089844 24.75 64.089844 25.46875 64.089844 L 40.5 64.089844 L 35.371094 58.867188 C 34.378906 58.867188 34.289063 58.867188 34.289063 57.789063 L 34.289063 53.109375 C 34.289063 52.207031 34.378906 52.117188 35.371094 52.117188 L 35.371094 47.886719 C 34.289063 47.886719 34.289063 47.796875 34.289063 46.898438 L 34.289063 42.128906 C 34.289063 41.136719 34.378906 41.136719 35.28125 41.136719 C 36.269531 41.136719 40.230469 41.230469 40.230469 44.648438 C 40.230469 48.070313 36.628906 47.886719 35.371094 47.886719 L 35.371094 52.207031 C 36.449219 52.207031 40.230469 52.296875 40.230469 55.71875 C 40.230469 59.136719 36.628906 59.046875 35.371094 59.046875 L 40.5 64.269531 C 44.28125 64.269531 47.070313 60.847656 47.070313 56.980469 C 47.070313 53.109375 44.640625 51.578125 42.660156 50.136719 C 44.101563 49.058594 46.53125 47.4375 46.53125 43.570313 C 46.53125 39.25 42.300781 36.546875 39.691406 36.546875 L 25.828125 36.546875 C 24.660156 36.546875 24.570313 36.546875 24.570313 37.449219 L 24.570313 40.957031 C 24.570313 41.5 24.660156 41.589844 25.46875 41.589844 L 26.371094 41.589844 C 26.910156 41.410156 26.910156 41.5 26.910156 42.21875 Z M 26.910156 42.21875 "/>
<path style=" stroke:none;fill-rule:nonzero;fill:rgb(0%,0%,0%);fill-opacity:1;" d="M 72.898438 41.949219 L 72.898438 56.078125 C 72.898438 59.679688 71.011719 64.988281 63.898438 64.988281 C 56.699219 64.988281 53.28125 59.679688 53.28125 56.078125 L 53.28125 41.949219 C 53.28125 41.320313 53.191406 41.320313 52.648438 41.320313 L 51.839844 41.320313 C 51.03125 41.320313 51.03125 41.320313 51.03125 40.597656 L 51.03125 37.449219 C 51.03125 36.367188 51.121094 36.367188 52.019531 36.367188 L 61.648438 36.367188 C 62.371094 36.367188 62.550781 36.367188 62.550781 37.269531 L 62.550781 40.417969 C 62.550781 41.136719 62.460938 41.136719 61.46875 41.136719 L 60.660156 41.136719 C 60.210938 41.136719 60.121094 41.230469 60.121094 41.769531 L 60.121094 55.539063 C 60.179688 57.820313 62.066406 59.628906 64.351563 59.589844 C 66.664063 59.75 68.601563 57.855469 68.488281 55.539063 L 68.488281 41.949219 C 68.488281 41.136719 68.398438 41.136719 67.769531 41.136719 L 67.050781 41.136719 C 66.238281 41.136719 66.148438 41.136719 66.148438 40.417969 L 66.148438 37.269531 C 66.148438 36.457031 66.148438 36.367188 66.960938 36.367188 L 74.070313 36.367188 C 75.328125 36.367188 75.328125 36.367188 75.328125 37.269531 L 75.328125 40.597656 C 75.328125 41.320313 75.328125 41.320313 74.429688 41.320313 L 73.53125 41.320313 C 72.898438 41.410156 72.898438 41.410156 72.898438 41.949219 Z M 72.898438 41.949219 "/>
<path style=" stroke:none;fill-rule:nonzero;fill:rgb(0%,0%,0%);fill-opacity:1;" d="M 106.46875 59.136719 L 105.480469 59.136719 C 104.851563 59.136719 104.761719 59.320313 104.761719 60.21875 L 104.761719 63.457031 C 104.761719 64.089844 104.851563 64.089844 105.570313 64.089844 L 123.300781 64.089844 C 124.109375 64.089844 124.199219 64.089844 124.199219 63.097656 L 124.199219 55.089844 C 124.199219 54.367188 124.109375 54.367188 123.300781 54.367188 L 120.78125 54.367188 C 119.96875 54.367188 119.878906 54.367188 119.878906 55.359375 L 119.878906 58.148438 C 119.878906 59.230469 119.789063 59.320313 119.070313 59.320313 L 115.109375 59.320313 C 113.941406 59.320313 113.851563 59.136719 113.851563 58.417969 L 113.851563 42.398438 C 113.851563 41.320313 113.851563 41.320313 114.480469 41.320313 L 115.46875 41.320313 C 116.28125 41.320313 116.28125 41.230469 116.28125 40.597656 L 116.28125 37.449219 C 116.28125 36.546875 116.28125 36.457031 115.378906 36.457031 L 105.929688 36.457031 C 104.671875 36.457031 104.671875 36.546875 104.671875 37.449219 L 104.671875 40.6875 C 104.671875 41.410156 104.761719 41.5 105.570313 41.5 L 106.378906 41.5 C 107.011719 41.5 107.011719 41.5 107.011719 42.488281 L 107.011719 58.417969 C 107.101563 59.136719 107.011719 59.136719 106.46875 59.136719 Z M 106.46875 59.136719 "/>
<path style=" stroke:none;fill-rule:nonzero;fill:rgb(0%,0%,0%);fill-opacity:1;" d="M 147.601563 56.4375 C 147.601563 62.289063 142.019531 64.808594 139.679688 64.808594 C 137.824219 64.761719 136.03125 64.128906 134.550781 63.007813 C 133.828125 62.289063 133.019531 63.097656 132.75 63.457031 C 132.390625 64.089844 132.300781 64.179688 132.03125 64.179688 L 130.859375 64.179688 C 129.691406 64.179688 129.78125 64.179688 129.78125 63.546875 L 129.78125 55.898438 C 129.78125 54.636719 129.78125 54.636719 130.230469 54.636719 L 132.03125 54.636719 C 132.660156 54.636719 132.660156 54.730469 132.839844 55.269531 C 133.527344 57.484375 135.558594 59.007813 137.878906 59.046875 C 139.230469 59.046875 140.308594 58.6875 140.308594 57.519531 C 140.308594 54.910156 138.78125 54.277344 136.078125 52.839844 C 133.378906 51.488281 129.328125 49.867188 129.328125 43.929688 C 129.3125 39.554688 132.707031 35.925781 137.070313 35.648438 C 138.847656 35.683594 140.558594 36.316406 141.929688 37.449219 C 142.53125 37.925781 143.425781 37.703125 143.730469 37 C 144.179688 36.277344 144.179688 36.277344 144.539063 36.277344 L 145.710938 36.277344 C 146.789063 36.277344 146.878906 36.277344 146.878906 36.910156 L 146.878906 44.558594 C 146.878906 45.730469 146.878906 45.820313 146.339844 45.820313 L 144.628906 45.820313 C 143.910156 45.820313 143.910156 45.730469 143.730469 45.1875 C 142.910156 42.953125 140.800781 41.449219 138.421875 41.410156 C 137.390625 41.3125 136.527344 42.179688 136.621094 43.207031 C 136.621094 44.828125 138.421875 46.269531 141.480469 47.796875 C 144.539063 49.238281 147.601563 51.488281 147.601563 56.4375 Z M 147.601563 56.4375 "/>
<path style=" stroke:none;fill-rule:nonzero;fill:rgb(0%,0%,0%);fill-opacity:1;" d="M 81.808594 59.136719 L 80.820313 59.136719 C 80.191406 59.136719 80.101563 59.320313 80.101563 60.21875 L 80.101563 63.457031 C 80.101563 64.089844 80.191406 64.089844 81 64.089844 L 98.730469 64.089844 C 99.449219 64.089844 99.539063 64.089844 99.539063 63.097656 L 99.539063 55.089844 C 99.539063 54.367188 99.449219 54.367188 98.730469 54.367188 L 96.121094 54.367188 C 95.308594 54.367188 95.21875 54.367188 95.21875 55.359375 L 95.21875 58.148438 C 95.21875 59.230469 95.128906 59.320313 94.410156 59.320313 L 90.449219 59.320313 C 89.28125 59.320313 89.28125 59.136719 89.28125 58.417969 L 89.28125 42.398438 C 89.28125 41.320313 89.28125 41.320313 89.820313 41.320313 L 90.808594 41.320313 C 91.621094 41.320313 91.621094 41.230469 91.621094 40.597656 L 91.621094 37.449219 C 91.621094 36.546875 91.621094 36.457031 90.71875 36.457031 L 81.269531 36.457031 C 80.101563 36.457031 80.101563 36.546875 80.101563 37.449219 L 80.101563 40.6875 C 80.101563 41.410156 80.101563 41.5 80.910156 41.5 L 81.71875 41.5 C 82.351563 41.5 82.351563 41.5 82.351563 42.488281 L 82.351563 58.417969 C 82.441406 59.136719 82.351563 59.136719 81.808594 59.136719 Z M 81.808594 59.136719 "/>
<path style=" stroke:none;fill-rule:nonzero;fill:rgb(100%,100%,100%);fill-opacity:1;" d="M 18.179688 69.488281 C 22.050781 76.957031 29.878906 79.386719 37.890625 78.9375 C 42.300781 78.9375 46.621094 78.488281 51.03125 78.21875 L 51.03125 78.488281 C 48.796875 84.757813 47.226563 91.242188 46.351563 97.839844 C 34.828125 98.289063 23.039063 97.296875 14.578125 89.648438 C 8.730469 83.796875 7.289063 75.699219 8.550781 67.6875 C 9.898438 66.070313 11.429688 64.71875 12.78125 63.097656 C 14.671875 65.167969 17.730469 66.789063 18.179688 69.488281 Z M 18.179688 69.488281 "/>
<path style=" stroke:none;fill-rule:nonzero;fill:rgb(100%,100%,100%);fill-opacity:1;" d="M 161.550781 66.160156 C 161.820313 67.328125 161.820313 68.410156 162 69.667969 C 162.539063 78.488281 158.671875 86.679688 151.109375 91.179688 C 142.828125 96.21875 133.289063 97.839844 123.121094 98.203125 C 122.941406 97.296875 122.851563 96.039063 122.671875 95.046875 C 121.960938 89.203125 120.785156 83.425781 119.160156 77.769531 C 130.050781 77.589844 143.28125 80.46875 150.480469 70.480469 C 151.378906 69.039063 152.371094 67.867188 153.179688 66.339844 C 154.800781 65.617188 156.328125 64.539063 157.949219 63.730469 C 159.300781 64.359375 160.199219 65.4375 161.550781 66.160156 Z M 161.550781 66.160156 "/>
<path style=" stroke:none;fill-rule:nonzero;fill:rgb(100%,100%,100%);fill-opacity:1;" d="M 120.238281 111.070313 C 120.328125 114.488281 119.160156 118 116.101563 119.617188 C 114.65625 120.359375 113.039063 120.703125 111.421875 120.609375 C 111.375 120.28125 111.375 119.945313 111.421875 119.617188 C 113.851563 119.617188 116.28125 118.71875 117.628906 116.738281 C 118.46875 115.160156 118.898438 113.394531 118.890625 111.609375 C 119.289063 111.328125 119.753906 111.136719 120.238281 111.070313 Z M 120.238281 111.070313 "/>
<path style=" stroke:none;fill-rule:nonzero;fill:rgb(100%,100%,100%);fill-opacity:1;" d="M 58.859375 120.25 C 58.359375 120.390625 57.832031 120.390625 57.328125 120.25 C 55.117188 120.25 53.003906 119.332031 51.5 117.707031 C 49.996094 116.082031 49.238281 113.90625 49.410156 111.703125 C 49.902344 111.519531 50.445313 111.519531 50.941406 111.703125 C 50.941406 114.847656 52.199219 118.988281 58.679688 118.988281 C 59.128906 119.707031 58.679688 119.796875 58.859375 120.25 Z M 58.859375 120.25 "/>
</g>
</svg>
