<?xml version="1.0" encoding="UTF-8"?>
<svg xmlns="http://www.w3.org/2000/svg" xmlns:xlink="http://www.w3.org/1999/xlink" width="94pt" height="193pt" viewBox="0 0 94 193" version="1.1">
<g id="surface1">
<path style=" stroke:none;fill-rule:evenodd;fill:rgb(100%,72.068787%,10.984802%);fill-opacity:1;" d="M 49.40625 0.0546875 L 47.144531 5.019531 C 45.238281 9.191406 44.335938 13.566406 43.886719 18.050781 C 43.453125 22.433594 43.453125 27.050781 43.433594 31.90625 L 43.074219 70.550781 C 29.136719 76.320313 16.117188 84.691406 8.382813 91.0625 C 8.210938 91.339844 4.464844 97.121094 2.335938 100.421875 C 5.277344 99.703125 12.792969 97.847656 12.792969 97.847656 L 10.363281 100.90625 C -4.351563 119.390625 0.722656 131.171875 1.347656 132.460938 L 1.382813 132.527344 L 1.410156 132.601563 C 2.9375 136.871094 6.449219 140.144531 11.867188 142.308594 C 15.425781 143.726563 19.828125 144.289063 25.320313 144.03125 C 30.84375 143.777344 36.644531 142.558594 42.433594 140.691406 L 42.40625 144.480469 C 37.441406 147.1875 33.441406 151.921875 31.308594 157.621094 C 30.496094 159.851563 29.988281 162.238281 29.863281 164.691406 C 29.84375 165.097656 29.851563 166.453125 29.707031 168.296875 C 29.566406 170.039063 29.277344 172.234375 28.644531 174.441406 L 28.296875 175.6875 L 26.984375 178.761719 C 27.113281 179.277344 30.660156 178.089844 32.257813 177.515625 C 32.496094 177.429688 32.851563 177.273438 33.332031 177.015625 C 34.179688 176.539063 35.28125 175.765625 36.636719 174.460938 C 37.457031 173.664063 38.195313 172.753906 38.816406 171.921875 C 39.417969 171.117188 39.972656 170.320313 40.460938 169.65625 C 41.160156 168.695313 41.808594 167.726563 42.453125 166.816406 L 42.503906 175.035156 L 42.535156 180.496094 L 42.535156 181.96875 C 42.289063 182.3125 41.992188 182.773438 41.6875 183.335938 C 40.953125 184.6875 39.152344 189.074219 38.957031 191.539063 C 38.914063 192.125 40.648438 192.039063 43.175781 191.894531 C 43.519531 191.882813 44.019531 191.832031 44.621094 191.75 C 45.777344 191.597656 47.335938 191.308594 48.914063 190.816406 C 51.742188 189.9375 56.269531 187.914063 56.898438 183.351563 L 57.125 181.734375 L 57.226563 180.910156 C 62.820313 175.757813 64.34375 170.214844 64.121094 165.578125 C 64.042969 163.9375 63.742188 162.433594 63.371094 161.160156 L 65.542969 161.53125 L 68.09375 161.976563 L 68.542969 159.414063 C 70.054688 150.671875 65.097656 143.417969 55.253906 141.988281 L 55.253906 136.980469 L 55.261719 135.519531 C 64.9375 130.863281 73.917969 124.855469 80.65625 119.007813 L 82.824219 107.769531 C 81.277344 108.621094 79.398438 109.59375 79.398438 109.59375 L 79.339844 109.617188 C 70.050781 113.6875 61.589844 116.917969 55.261719 119.183594 L 55.273438 83.371094 C 56.878906 82.46875 58.453125 81.675781 59.945313 81.046875 C 64.589844 79.085938 68.210938 78.011719 69.605469 78.359375 C 71 78.703125 70.578125 80.289063 70.578125 80.289063 C 70.152344 81.636719 69.625 83.011719 68.726563 84.769531 C 68.226563 85.761719 64.960938 92.851563 62.832031 97.023438 C 69.394531 93.277344 83.484375 84.230469 93.746094 78.242188 L 93.746094 72.476563 C 93.28125 72.007813 92.394531 71.101563 92.394531 71.101563 C 83.292969 62.445313 69.449219 62.394531 55.273438 66.308594 L 55.28125 31.257813 C 55.304688 26.398438 55.355469 21.769531 54.96875 17.476563 C 54.578125 13.070313 53.710938 8.8125 51.8125 4.941406 L 49.40625 0.046875 Z M 42.875 92.371094 L 42.597656 123.417969 C 33.6875 126.109375 28.648438 126.828125 24.90625 125.957031 L 24.863281 125.945313 L 24.367188 125.796875 L 24.324219 125.773438 C 22.835938 125.195313 22.402344 123.851563 22.378906 123.144531 C 22.167969 114.390625 39.046875 96.152344 39.214844 95.972656 C 40.339844 94.765625 41.574219 93.554688 42.875 92.371094 Z M 42.875 92.371094 "/>
<path style=" stroke:none;fill-rule:evenodd;fill:rgb(43.530273%,14.892578%,19.993591%);fill-opacity:1;" d="M 70.53125 65.101563 C 65.648438 65.242188 60.484375 66.171875 55.277344 67.636719 L 55.277344 75.785156 C 65.941406 70.679688 78.078125 69.210938 69.847656 85.339844 L 91.550781 72.027344 C 86.039063 66.785156 78.671875 64.855469 70.53125 65.101563 Z M 43.0625 71.941406 C 29.253906 77.730469 16.449219 86.019531 9.1875 92.023438 C 13.84375 90.726563 18.597656 89.703125 23.304688 88.632813 C -28.46875 138.136719 24.15625 157.839844 79.902344 110.742188 C 60.199219 119.394531 44.335938 124.195313 44.335938 124.195313 C 3.523438 136.898438 16.578125 110.378906 35.210938 90.527344 C 36.523438 89.132813 39.476563 86.3125 42.953125 83.535156 L 43.058594 71.9375 Z M 43.0625 71.941406 "/>
<path style=" stroke:none;fill-rule:evenodd;fill:rgb(1.567078%,11.767578%,25.87738%);fill-opacity:1;" d="M 79.515625 118.105469 C 65.292969 130.460938 43.433594 141.902344 25.261719 142.753906 C 21.003906 142.957031 16.328125 142.703125 12.335938 141.109375 C 6.878906 138.929688 3.855469 135.773438 2.566406 132.085938 C 4.25 134.296875 6.816406 136.203125 10.480469 137.667969 C 14.472656 139.269531 19.152344 139.515625 23.40625 139.308594 C 43.019531 138.394531 66.914063 125.144531 80.890625 111.726563 Z M 13.710938 96.296875 C 10.882813 96.988281 8.015625 97.703125 5.453125 98.332031 C 5.8125 97.851563 8.445313 94.242188 9.042969 93.453125 C 12.171875 92.726563 15.378906 92.003906 18.292969 91.324219 C 16.894531 92.734375 15.324219 94.414063 13.710938 96.296875 M 92.707031 73.058594 L 92.769531 77.613281 L 65.972656 93.828125 C 66.261719 93.535156 69.289063 87.683594 69.460938 87.273438 Z M 57.601563 76.414063 C 56.839844 76.734375 56.054688 77.101563 55.273438 77.488281 L 55.273438 81.898438 C 56.691406 81.117188 58.089844 80.433594 59.457031 79.855469 C 64.273438 77.828125 68.398438 76.539063 70.667969 77.269531 C 71.007813 71.882813 65.160156 73.226563 57.601563 76.414063 M 42.9375 85.617188 C 40.527344 87.59375 38.296875 89.648438 36.441406 91.644531 C 31.195313 97.285156 19.089844 111.980469 19.273438 119.710938 C 19.324219 121.726563 20.039063 123.140625 21.207031 124.097656 C 21.160156 123.792969 21.136719 123.480469 21.125 123.144531 C 20.941406 115.421875 33.050781 100.726563 38.296875 95.085938 C 39.65625 93.628906 41.210938 92.132813 42.894531 90.65625 Z M 52.664063 144.296875 L 52.660156 136.703125 C 51.453125 137.246094 50.230469 137.769531 49.011719 138.269531 L 48.992188 146.085938 C 48.988281 147.605469 46.519531 147.859375 46.621094 146.730469 L 46.667969 139.183594 C 46.117188 139.394531 45.558594 139.601563 45.007813 139.792969 L 44.976563 145.992188 L 44.667969 146.210938 C 39.835938 148.472656 35.820313 152.933594 33.808594 158.292969 C 33.785156 158.359375 33.757813 158.429688 33.734375 158.496094 C 33.007813 160.492188 32.554688 162.617188 32.445313 164.792969 C 32.40625 165.613281 32.503906 170.351563 31.136719 175.132813 C 31.140625 175.109375 32.40625 174.917969 34.84375 172.566406 C 36.191406 171.269531 37.40625 169.429688 38.367188 168.101563 C 40.59375 165.039063 42.378906 161.917969 45.011719 160.582031 L 45.03125 163.316406 C 45.0625 168.546875 45.136719 182.734375 45.125 182.804688 C 45.109375 182.878906 42.875 185.234375 42.558594 189.277344 C 42.546875 189.445313 53.550781 188.667969 54.339844 182.972656 C 54.339844 182.972656 52.21875 181.582031 52.289063 181.527344 C 67.78125 170.78125 59.164063 157.882813 59.164063 157.882813 C 62.917969 158.417969 65 158.777344 65.992188 158.957031 C 67.34375 151.15625 62.710938 144.742188 52.664063 144.296875 M 46.699219 184.992188 C 46.71875 185.113281 45.304688 185.976563 44.03125 187.929688 C 44.59375 186.472656 45.253906 185 46.226563 183.738281 C 47.804688 184.085938 49.558594 183.105469 51.019531 182.46875 C 49.09375 184.902344 47.925781 184.699219 46.699219 184.992188 M 46.492188 181.980469 L 46.582031 159.710938 C 46.753906 159.535156 48.097656 158.914063 48.636719 158.878906 L 48.449219 181.769531 C 48.445313 182.714844 46.488281 182.707031 46.492188 181.980469 M 51.070313 179.429688 C 55.894531 167.820313 52.378906 159.203125 52.425781 159.046875 C 58.382813 159.921875 60.355469 172.867188 51.070313 179.429688 M 57.28125 174.976563 C 59.558594 170.152344 60.230469 161.667969 54.96875 157.882813 L 56.761719 157.898438 C 62.046875 162.132813 59.703125 173.054688 57.28125 174.976563 M 64.125 156.707031 C 55.460938 154.335938 45.328125 156.460938 40.714844 162.042969 C 38.804688 164.332031 37.09375 167.710938 33.730469 171.183594 C 34.453125 167.003906 34.414063 165.644531 34.539063 164.136719 C 35.082031 157.441406 38.566406 151.808594 45.542969 148.472656 L 45.554688 148.472656 C 45.554688 148.539063 45.550781 148.609375 45.558594 148.679688 C 45.695313 149.777344 47.238281 150.492188 49.011719 150.273438 C 50.4375 150.097656 51.558594 149.367188 51.871094 148.515625 C 51.878906 148.507813 51.886719 148.492188 51.894531 148.476563 C 54.394531 149.019531 56.59375 150.332031 57.554688 151.839844 C 53.066406 151.644531 46.503906 153.113281 41.105469 159.355469 C 48.523438 153.472656 57.046875 153.4375 62.515625 154.8125 C 62.703125 151.535156 58.234375 148.0625 55.761719 146.703125 C 60.21875 148.152344 64.984375 152.046875 64.125 156.707031 M 46.753906 122.085938 L 47.1875 44.253906 L 47.285156 23.996094 C 47.664063 24.714844 49.074219 27.527344 49.203125 37.492188 L 49.066406 121.3125 C 50.125 120.960938 51.328125 120.546875 52.660156 120.085938 L 52.695313 31.21875 C 52.746094 21.683594 52.917969 13.027344 49.496094 6.066406 C 46 13.730469 46.0625 22.359375 46.011719 31.898438 L 45.25 122.566406 C 45.660156 122.4375 46.164063 122.273438 46.753906 122.085938 "/>
</g>
</svg>
