<?xml version="1.0" encoding="UTF-8"?>
<svg xmlns="http://www.w3.org/2000/svg" xmlns:xlink="http://www.w3.org/1999/xlink" width="187pt" height="195pt" viewBox="0 0 187 195" version="1.1">
<g id="surface1">
<path style=" stroke:none;fill-rule:nonzero;fill:rgb(100%,100%,100%);fill-opacity:1;" d="M 179.371094 99.949219 C 180.449219 97.339844 184.5 87.347656 184.5 87.347656 L 167.398438 96.800781 C 167.308594 96.890625 162.269531 99.589844 155.070313 102.738281 C 159.042969 92.851563 162.378906 82.722656 165.058594 72.410156 C 171.089844 49.460938 174.328125 24.167969 174.421875 23.089844 L 175.769531 12.917969 C 175.769531 12.917969 143.550781 21.828125 140.488281 22.640625 C 129.058594 8.871094 111.421875 0.769531 92.96875 0.769531 C 74.339844 0.769531 56.699219 8.960938 45.269531 22.820313 C 42.121094 21.917969 9.898438 12.917969 9.898438 12.917969 L 11.25 23.089844 C 11.25 23.449219 14.671875 49.371094 20.96875 72.679688 C 23.777344 82.640625 27.144531 92.4375 31.050781 102.019531 C 23.398438 98.691406 16.921875 95.71875 16.738281 95.628906 L 0.898438 88.070313 C 0.898438 88.070313 4.679688 97.609375 5.761719 100.21875 C 5.488281 100.21875 0 98.058594 0 98.058594 L 5.308594 112.28125 L 5.308594 112.191406 C 5.671875 113.269531 7.921875 119.300781 25.019531 165.289063 L 27.449219 171.589844 C 27.449219 171.589844 31.230469 170.328125 32.398438 169.96875 C 33.300781 172.488281 35.820313 179.148438 35.820313 179.148438 L 42.75 175.640625 C 47.96875 172.941406 59.308594 168.347656 68.398438 166.910156 C 79.289063 181.757813 87.75 189.5 88.199219 189.769531 L 92.878906 194 L 97.46875 189.769531 C 97.921875 189.410156 106.46875 181.398438 117.089844 167 C 125.265625 168.199219 133.160156 170.851563 140.398438 174.828125 L 147.148438 178.519531 L 150.121094 171.5 C 150.3125 170.882813 150.554688 170.28125 150.839844 169.699219 C 151.378906 169.789063 154.621094 170.960938 154.621094 170.960938 L 157.140625 164.660156 C 157.589844 163.398438 168.570313 137.929688 179.101563 113.269531 L 186.121094 96.890625 C 186.210938 96.890625 179.371094 99.949219 179.371094 99.949219 Z M 179.371094 99.949219 "/>
<path style=" stroke:none;fill-rule:nonzero;fill:rgb(0%,0%,0%);fill-opacity:1;" d="M 168.75 99.320313 C 162.625 102.542969 156.316406 105.398438 149.851563 107.871094 C 154.945313 96.148438 159.128906 84.054688 162.359375 71.691406 C 168.390625 48.738281 171.628906 23 171.71875 22.730469 L 172.441406 16.699219 L 166.589844 18.320313 C 166.589844 18.320313 94.5 38.210938 92.429688 38.839844 C 90.359375 38.300781 13.230469 16.789063 13.230469 16.789063 L 14.039063 22.820313 C 14.039063 23.089844 17.371094 48.738281 23.671875 71.960938 C 27.539063 86 31.949219 96.890625 36.269531 107.148438 C 25.921875 103.097656 15.660156 98.238281 15.570313 98.148438 L 6.210938 93.738281 L 9.988281 103.28125 C 19.171875 126.230469 23.851563 138.828125 29.789063 154.847656 L 37.351563 175.28125 L 41.398438 173.210938 C 47.519531 170.148438 60.03125 165.199219 69.75 163.941406 C 80.820313 179.417969 89.640625 187.339844 90.089844 187.699219 L 92.789063 190.21875 L 95.488281 187.699219 C 95.941406 187.339844 104.851563 178.878906 115.738281 163.941406 C 127.078125 165.109375 136.800781 169.699219 141.75 172.398438 L 145.800781 174.558594 L 147.511719 170.417969 C 152.011719 159.53125 174.238281 104.808594 174.511719 104.269531 L 178.828125 93.648438 Z M 168.75 99.320313 "/>
<path style=" stroke:none;fill-rule:nonzero;fill:rgb(100%,100%,100%);fill-opacity:1;" d="M 176.851563 101.929688 C 176.671875 102.019531 158.851563 109.578125 144.269531 113.179688 C 149.941406 100.128906 154.890625 88.339844 159.570313 70.96875 C 165.601563 48.199219 168.75 22.640625 168.839844 22.371094 L 169.019531 20.570313 L 167.308594 21.019531 C 167.308594 21.019531 92.96875 41.539063 92.339844 41.71875 C 91.800781 41.539063 16.558594 20.570313 16.558594 20.570313 L 16.738281 22.371094 C 16.828125 22.640625 20.160156 48.199219 26.371094 71.148438 C 30.511719 86.269531 35.28125 97.699219 39.960938 108.679688 C 39.960938 108.679688 40.769531 110.660156 41.488281 112.371094 C 28.890625 109.21875 11.789063 103.191406 11.609375 103.097656 L 9.179688 102.289063 L 10.078125 104.628906 C 17.550781 124.519531 21.421875 135.140625 25.46875 146.480469 L 33.660156 169.160156 L 34.738281 168.800781 C 46.550781 165.308594 58.617188 162.75 70.828125 161.148438 C 81.71875 176.808594 91.800781 185.628906 91.890625 185.71875 L 92.699219 186.347656 L 93.511719 185.71875 C 101.222656 178.230469 108.210938 170.035156 114.390625 161.238281 C 124.019531 161.871094 142.109375 166.007813 148.949219 168.621094 L 150.03125 169.070313 L 150.480469 167.988281 C 154.980469 157.191406 178.199219 104 178.378906 103.550781 L 179.550781 100.757813 Z M 176.851563 101.929688 "/>
<path style=" stroke:none;fill-rule:nonzero;fill:rgb(76.951599%,80.859375%,83.201599%);fill-opacity:1;" d="M 140.21875 116.597656 L 141.210938 114.441406 C 147.511719 99.949219 152.460938 88.519531 157.230469 70.339844 C 162.269531 51.167969 165.421875 30.019531 166.230469 23.898438 C 162.898438 24.800781 92.699219 44.148438 92.699219 44.148438 L 92.339844 44.238281 C 92.339844 44.238281 22.769531 24.890625 19.351563 23.988281 C 20.25 30.199219 23.398438 51.347656 28.710938 70.699219 C 32.761719 85.640625 37.53125 96.890625 42.121094 107.871094 L 45.449219 115.878906 L 72 158.71875 L 72.449219 159.347656 C 81.539063 172.667969 90.089844 180.949219 92.699219 183.289063 C 95.21875 180.949219 103.5 172.667969 112.859375 159.53125 L 113.21875 158.988281 Z M 140.21875 116.597656 "/>
<path style=" stroke:none;fill-rule:nonzero;fill:rgb(0%,0%,0%);fill-opacity:1;" d="M 42.300781 90.589844 C 41.578125 89.597656 38.519531 84.738281 38.519531 76.640625 L 38.519531 75.917969 C 36.382813 70.128906 35.285156 64.003906 35.28125 57.828125 C 35.28125 42.800781 41.761719 29.210938 52.199219 19.308594 C 75.183594 -2.050781 110.757813 -2.050781 133.738281 19.308594 C 144.53125 29.214844 150.699219 43.179688 150.75 57.828125 C 150.761719 63.277344 149.878906 68.6875 148.140625 73.847656 C 148.1875 83.789063 145.308594 93.523438 139.859375 101.839844 C 139.535156 102.152344 139.171875 102.421875 138.78125 102.648438 L 138.691406 102.648438 C 138.601563 102.738281 138.601563 102.738281 138.601563 102.917969 C 138.601563 102.917969 138.421875 103.550781 138.238281 104.089844 L 138.421875 104 L 138.148438 104.359375 C 127.765625 118.378906 111.316406 126.601563 93.871094 126.5 C 69.839844 126.589844 49.5 111.46875 42.300781 90.589844 Z M 42.300781 90.589844 "/>
<path style=" stroke:none;fill-rule:nonzero;fill:rgb(0%,49.021912%,77.34375%);fill-opacity:1;" d="M 170.910156 106.699219 C 170.550781 106.789063 134.191406 122.449219 92.429688 122.269531 C 55.710938 122.089844 14.039063 106.429688 13.679688 106.25 L 4.949219 102.917969 L 8.101563 111.289063 C 8.101563 111.558594 8.101563 111.558594 27.808594 164.390625 L 29.25 168.167969 L 33.121094 167 C 52.296875 161.019531 72.253906 157.925781 92.339844 157.820313 C 117.808594 157.820313 140.039063 163.039063 149.21875 166.191406 L 153.089844 167.449219 L 154.621094 163.667969 C 155.25 162.230469 168.121094 132.167969 176.671875 112.191406 L 180.898438 102.378906 Z M 170.910156 106.699219 "/>
<path style=" stroke:none;fill-rule:nonzero;fill:rgb(100%,100%,100%);fill-opacity:1;" d="M 171.269531 111.738281 L 167.578125 113.089844 C 167.578125 113.089844 159.390625 116.148438 159.300781 116.148438 C 157.234375 116.761719 155.308594 117.769531 153.628906 119.121094 C 152.738281 119.917969 151.953125 120.824219 151.289063 121.820313 C 151.390625 121.589844 151.453125 121.347656 151.46875 121.097656 L 152.640625 118.039063 L 149.488281 118.941406 L 142.019531 120.917969 C 141.300781 121.097656 136.171875 122.089844 134.640625 122.449219 L 132.929688 122.71875 L 124.199219 124.25 C 123.75 124.25 120.421875 124.878906 118.621094 126.589844 C 118.261719 127.019531 117.929688 127.46875 117.628906 127.941406 L 118.171875 124.96875 L 115.921875 125.238281 L 108.898438 125.871094 L 108.628906 127.667969 C 108.441406 127.4375 108.230469 127.226563 108 127.039063 C 106.648438 126.050781 104.398438 126.050781 103.769531 126.140625 L 93.421875 126.410156 L 85.050781 126.320313 C 83.28125 126.386719 81.578125 127.019531 80.191406 128.121094 C 79.921875 128.390625 79.738281 128.75 79.46875 129.019531 L 79.46875 127.398438 L 79.378906 125.960938 C 79.378906 125.960938 70.921875 125.148438 70.648438 125.148438 L 60.390625 123.890625 L 60.839844 126.140625 L 60.929688 126.769531 C 58.589844 124.070313 54.988281 123.167969 54.808594 123.078125 C 54.71875 123.078125 44.28125 120.738281 44.28125 120.738281 L 45 123.441406 L 45.449219 125.417969 C 45.191406 124.886719 44.890625 124.375 44.550781 123.890625 C 43.105469 121.847656 41.058594 120.308594 38.699219 119.480469 C 36.089844 118.578125 30.871094 117.320313 30.691406 117.320313 L 27.71875 116.597656 C 25.019531 115.429688 18.988281 113.539063 17.011719 112.820313 L 13.679688 111.738281 L 14.941406 115.070313 L 32.21875 161.691406 C 32.21875 161.691406 39.058594 159.800781 39.421875 159.710938 C 39.421875 159.710938 46.53125 158 47.070313 157.910156 C 47.339844 157.820313 54.539063 156.558594 54.539063 156.558594 L 54.539063 156.46875 C 56.519531 156.199219 60.480469 155.570313 60.839844 155.570313 C 61.199219 155.480469 64.621094 154.941406 66.601563 154.757813 L 73.800781 154.039063 C 74.519531 153.949219 76.859375 153.769531 78.121094 152.691406 C 78.566406 152.390625 78.9375 151.988281 79.199219 151.519531 L 79.289063 153.5 L 87.839844 153.230469 C 88.199219 153.140625 90.449219 152.960938 91.890625 151.519531 C 92.09375 151.328125 92.273438 151.117188 92.429688 150.890625 L 92.339844 153.140625 C 92.339844 153.140625 98.910156 153.320313 99.269531 153.320313 L 107.011719 153.5 L 112.589844 153.949219 L 119.699219 154.757813 C 121.4375 154.898438 123.183594 154.554688 124.738281 153.769531 C 124.921875 153.589844 125.101563 153.5 125.28125 153.320313 L 124.738281 155.390625 L 131.941406 156.648438 L 131.941406 156.558594 C 132.210938 156.648438 137.25 157.550781 138.421875 157.730469 L 139.140625 158 C 139.320313 158 142.921875 158.898438 145.621094 158.539063 C 148.949219 158.179688 152.371094 155.480469 153.898438 151.96875 L 161.101563 135.5 C 161.191406 135.140625 171.269531 111.738281 171.269531 111.738281 Z M 171.269531 111.738281 "/>
<path style=" stroke:none;fill-rule:nonzero;fill:rgb(0%,0%,0%);fill-opacity:1;" d="M 107.28125 151.878906 L 111.78125 152.238281 L 116.101563 126.949219 L 110.339844 127.488281 Z M 107.28125 151.878906 "/>
<path style=" stroke:none;fill-rule:nonzero;fill:rgb(0%,0%,0%);fill-opacity:1;" d="M 126 128.839844 L 123.839844 137.839844 L 129.421875 137.75 L 133.199219 124.519531 L 124.46875 125.960938 C 124.46875 125.960938 121.320313 126.5 119.878906 127.941406 C 117.898438 129.917969 117.449219 133.519531 117.449219 133.519531 L 113.941406 152.417969 L 119.519531 153.050781 C 120.941406 153.183594 122.367188 152.933594 123.660156 152.328125 C 125.011719 151.699219 125.820313 150.167969 126.269531 148.820313 C 126.71875 147.46875 128.070313 142.070313 128.070313 142.070313 L 122.941406 142.070313 L 121.769531 147.46875 C 121.617188 148.214844 121.3125 148.917969 120.871094 149.539063 C 120.28125 150.199219 119.410156 150.535156 118.53125 150.441406 L 122.21875 133.609375 C 122.546875 132.382813 123.03125 131.203125 123.660156 130.097656 C 124.175781 129.308594 125.058594 128.835938 126 128.839844 Z M 126 128.839844 "/>
<path style=" stroke:none;fill-rule:nonzero;fill:rgb(0%,0%,0%);fill-opacity:1;" d="M 135.71875 138.289063 L 140.488281 122.988281 L 135.539063 124.070313 L 126.898438 153.949219 L 130.769531 154.488281 L 134.820313 141.800781 L 135.988281 141.710938 C 135.988281 141.710938 136.800781 141.980469 136.800781 142.699219 C 136.765625 143.253906 136.644531 143.800781 136.441406 144.320313 L 133.019531 154.847656 L 137.519531 155.75 L 141.300781 144.769531 C 141.617188 143.90625 141.769531 142.988281 141.75 142.070313 C 141.664063 141.195313 141.355469 140.359375 140.851563 139.640625 C 140.851563 139.640625 141.75 139.640625 143.011719 138.378906 C 144.269531 137.210938 144.269531 136.21875 144.539063 135.320313 C 144.898438 134.417969 149.941406 120.648438 149.941406 120.648438 L 143.371094 122.269531 L 139.589844 134.597656 C 139.414063 135.367188 139.109375 136.097656 138.691406 136.757813 C 138.058594 137.660156 137.609375 138.019531 137.25 138.019531 C 136.753906 138.183594 136.242188 138.273438 135.71875 138.289063 Z M 135.71875 138.289063 "/>
<path style=" stroke:none;fill-rule:nonzero;fill:rgb(0%,0%,0%);fill-opacity:1;" d="M 158.308594 123.167969 L 154.078125 134.507813 L 159.839844 134.238281 L 168.121094 114.800781 L 159.839844 117.769531 C 157.988281 118.367188 156.25 119.28125 154.710938 120.46875 C 152.992188 122.210938 151.566406 124.21875 150.480469 126.410156 C 150.03125 127.488281 148.140625 131.71875 147.871094 133.070313 C 147.511719 134.417969 144.71875 141.890625 144.71875 141.890625 L 151.289063 141.890625 L 148.5 149.359375 C 148.234375 150.46875 147.746094 151.511719 147.058594 152.417969 C 146.402344 153.230469 145.476563 153.773438 144.449219 153.949219 L 148.140625 144.410156 L 144.089844 144.410156 L 139.679688 156.289063 C 141.558594 156.789063 143.5 157.003906 145.441406 156.917969 C 148.050781 156.648438 151.019531 154.578125 152.371094 151.339844 C 153.808594 148.191406 158.488281 137.300781 158.488281 137.300781 L 150.660156 137.75 L 153.089844 130.820313 C 153.089844 130.820313 154.710938 126.769531 155.878906 125.417969 C 156.550781 124.53125 157.371094 123.769531 158.308594 123.167969 Z M 158.308594 123.167969 "/>
<path style=" stroke:none;fill-rule:nonzero;fill:rgb(0%,0%,0%);fill-opacity:1;" d="M 16.46875 114.441406 L 33.300781 159.621094 L 38.25 158.179688 L 25.738281 121.640625 C 25.738281 121.640625 27.628906 121.820313 29.25 124.699219 C 30.457031 126.855469 31.394531 129.152344 32.039063 131.539063 C 32.488281 133.339844 40.410156 157.730469 40.410156 157.730469 L 45.449219 156.558594 L 35.820313 124.429688 C 35.820313 124.429688 36.988281 124.429688 38.25 126.589844 C 38.988281 127.839844 39.59375 129.167969 40.050781 130.550781 L 47.429688 156.199219 L 52.289063 155.210938 L 46.078125 131.449219 C 46.078125 131.449219 44.640625 127.21875 43.109375 125.058594 C 41.914063 123.238281 40.136719 121.875 38.070313 121.191406 C 35.640625 120.378906 30.238281 118.941406 30.238281 118.941406 L 31.050781 121.371094 C 30.023438 120.246094 28.839844 119.277344 27.539063 118.488281 C 26.191406 117.679688 16.46875 114.441406 16.46875 114.441406 Z M 16.46875 114.441406 "/>
<path style=" stroke:none;fill-rule:nonzero;fill:rgb(0%,0%,0%);fill-opacity:1;" d="M 55.890625 139.191406 L 53.191406 127.488281 C 54.113281 127.722656 54.972656 128.152344 55.710938 128.75 C 56.699219 129.648438 56.96875 132.167969 56.96875 132.167969 L 58.320313 139.191406 Z M 61.46875 153.589844 L 65.699219 153.050781 L 62.101563 134.238281 C 62.101563 134.238281 61.289063 130.097656 60.210938 128.390625 C 58.320313 125.597656 54.359375 124.519531 54.359375 124.519531 L 46.621094 122.988281 L 54.628906 154.667969 L 59.398438 153.949219 L 56.429688 142.070313 L 59.21875 142.070313 Z M 61.46875 153.589844 "/>
<path style=" stroke:none;fill-rule:nonzero;fill:rgb(0%,0%,0%);fill-opacity:1;" d="M 62.550781 125.871094 L 67.949219 152.871094 L 73.621094 152.238281 C 73.621094 152.238281 76.320313 152.148438 77.039063 151.519531 C 77.957031 150.796875 78.511719 149.714844 78.570313 148.550781 L 77.941406 127.488281 L 72.359375 126.949219 L 74.339844 146.839844 C 74.339844 146.839844 74.519531 148.640625 73.621094 149.539063 C 73.222656 150.011719 72.613281 150.25 72 150.167969 L 69.121094 126.589844 Z M 62.550781 125.871094 "/>
<path style=" stroke:none;fill-rule:nonzero;fill:rgb(0%,0%,0%);fill-opacity:1;" d="M 80.910156 151.699219 L 87.660156 151.429688 C 88.78125 151.320313 89.847656 150.882813 90.71875 150.167969 C 91.433594 149.324219 91.902344 148.292969 92.070313 147.199219 L 92.160156 143.417969 L 87.570313 143.417969 L 87.660156 147.199219 C 87.71875 147.847656 87.523438 148.492188 87.121094 149 C 86.671875 149.449219 85.140625 149.449219 85.140625 149.449219 L 85.140625 141.800781 L 92.160156 141.800781 L 92.339844 139.550781 L 85.050781 139.550781 L 85.050781 132.890625 C 84.996094 132.351563 85.195313 131.820313 85.589844 131.449219 C 86.207031 131.0625 86.9375 130.902344 87.660156 131 L 87.660156 137.839844 L 92.519531 137.839844 L 93.148438 128.03125 L 85.050781 127.847656 C 83.738281 127.917969 82.480469 128.390625 81.449219 129.199219 C 79.738281 130.730469 80.011719 134.238281 80.011719 134.238281 Z M 80.910156 151.699219 "/>
<path style=" stroke:none;fill-rule:nonzero;fill:rgb(0%,0%,0%);fill-opacity:1;" d="M 102.421875 131.628906 L 102.058594 137.570313 C 102.054688 137.984375 101.929688 138.390625 101.699219 138.738281 C 101.519531 138.988281 101.269531 139.175781 100.980469 139.28125 L 99.359375 139.191406 L 99.808594 130.460938 L 100.980469 130.371094 C 101.328125 130.359375 101.671875 130.453125 101.96875 130.640625 C 102.421875 130.820313 102.421875 131.628906 102.421875 131.628906 Z M 106.921875 128.75 C 106.019531 127.847656 103.859375 127.941406 103.859375 127.941406 L 95.039063 128.210938 L 94.140625 151.429688 L 98.550781 151.519531 L 99.089844 141.980469 C 99.089844 141.980469 100.53125 141.53125 101.25 142.519531 C 101.519531 142.914063 101.648438 143.390625 101.609375 143.871094 L 101.070313 151.519531 L 105.390625 151.789063 L 106.199219 144.050781 C 106.347656 143.265625 106.285156 142.460938 106.019531 141.710938 C 105.734375 141.164063 105.25 140.746094 104.671875 140.539063 C 104.671875 140.539063 105.300781 140.539063 106.199219 139.550781 C 106.8125 138.816406 107.160156 137.894531 107.191406 136.941406 L 107.730469 131.539063 C 107.640625 131.539063 107.910156 129.738281 106.921875 128.75 Z M 106.921875 128.75 "/>
<path style=" stroke:none;fill-rule:nonzero;fill:rgb(0%,0%,0%);fill-opacity:1;" d="M 103.140625 161.960938 L 108.628906 160.609375 L 103.050781 160.070313 C 102.78125 160.070313 97.558594 159.621094 94.949219 159.621094 C 94.589844 158.539063 92.339844 151.789063 92.339844 151.789063 L 91.441406 154.398438 C 91.351563 154.578125 90.179688 157.820313 89.550781 159.621094 C 86.488281 159.621094 82.441406 159.980469 82.351563 159.980469 L 76.410156 160.609375 L 82.171875 161.871094 C 83.96875 162.230469 87.570313 163.488281 87.839844 165.019531 C 87.390625 166.820313 86.21875 169.96875 86.21875 169.96875 L 85.050781 172.847656 C 85.050781 172.847656 91.351563 168.441406 92.25 167.898438 C 93.148438 168.441406 99.269531 172.757813 99.269531 172.757813 C 99.269531 172.757813 96.75 165.46875 96.570313 164.839844 C 97.199219 163.941406 100.351563 162.589844 103.140625 161.960938 Z M 103.140625 161.960938 "/>
<path style=" stroke:none;fill-rule:nonzero;fill:rgb(100%,100%,100%);fill-opacity:1;" d="M 95.039063 164.75 C 95.488281 163.21875 98.101563 162.050781 100.171875 161.328125 C 98.101563 161.148438 95.488281 160.96875 94.140625 160.96875 L 93.871094 160.96875 C 93.871094 160.96875 92.789063 158 92.25 156.46875 C 91.800781 157.820313 91.078125 159.800781 90.808594 160.699219 L 90.71875 161.058594 L 90.359375 161.058594 C 88.921875 161.058594 86.851563 161.148438 85.320313 161.238281 C 87.121094 162.050781 89.28125 163.21875 89.550781 164.929688 L 89.550781 165.199219 C 89.28125 166.191406 88.738281 167.898438 88.289063 169.070313 C 89.730469 167.988281 92.339844 166.191406 92.339844 166.191406 C 92.339844 166.191406 95.128906 168.078125 96.570313 169.070313 C 95.941406 167.539063 95.039063 165.019531 95.039063 165.019531 Z M 95.039063 164.75 "/>
<path style=" stroke:none;fill-rule:nonzero;fill:rgb(100%,100%,100%);fill-opacity:1;" d="M 38.25 57.917969 C 38.25 29.480469 62.820313 6.347656 92.96875 6.347656 C 123.121094 6.347656 147.691406 29.480469 147.691406 57.917969 C 147.691406 86.269531 123.210938 109.398438 92.96875 109.398438 C 62.820313 109.398438 38.25 86.269531 38.25 57.917969 Z M 38.25 57.917969 "/>
<path style=" stroke:none;fill-rule:nonzero;fill:rgb(0%,0%,0%);fill-opacity:1;" d="M 59.941406 27.320313 L 62.191406 25.429688 C 63.71875 24.257813 64.171875 22.640625 63.359375 21.648438 C 62.28125 20.300781 60.570313 20.75 58.769531 22.097656 L 56.96875 23.628906 Z M 59.761719 23.269531 L 59.851563 23.179688 C 60.570313 22.640625 61.109375 22.550781 61.558594 23.089844 C 61.921875 23.539063 61.648438 24.167969 61.019531 24.621094 L 60.929688 24.800781 Z M 59.761719 23.269531 "/>
<path style=" stroke:none;fill-rule:nonzero;fill:rgb(0%,0%,0%);fill-opacity:1;" d="M 73.53125 18.050781 L 75.148438 17.328125 L 75.601563 17.78125 L 77.941406 16.789063 L 73.980469 13.371094 L 71.550781 14.269531 L 71.28125 19.488281 L 73.621094 18.589844 Z M 73.441406 16.789063 L 73.351563 15.347656 L 73.351563 15.257813 C 73.472656 15.460938 73.625 15.644531 73.800781 15.800781 L 74.339844 16.429688 Z M 73.441406 16.789063 "/>
<path style=" stroke:none;fill-rule:nonzero;fill:rgb(0%,0%,0%);fill-opacity:1;" d="M 84.960938 10.488281 L 87.300781 10.21875 L 87.660156 13.371094 L 89.640625 13.191406 L 89.820313 14.71875 L 85.5 15.167969 Z M 84.960938 10.488281 "/>
<path style=" stroke:none;fill-rule:nonzero;fill:rgb(0%,0%,0%);fill-opacity:1;" d="M 98.371094 10.21875 L 100.800781 10.578125 L 100.261719 13.730469 L 102.238281 14 L 101.96875 15.53125 L 97.738281 14.898438 Z M 98.371094 10.21875 "/>
<path style=" stroke:none;fill-rule:nonzero;fill:rgb(0%,0%,0%);fill-opacity:1;" d="M 111.871094 17.871094 L 113.488281 18.589844 L 113.398438 19.21875 L 115.738281 20.300781 L 115.46875 14.988281 L 113.039063 14 L 109.078125 17.417969 L 111.421875 18.5 Z M 112.679688 17.058594 L 113.671875 15.890625 L 113.671875 15.980469 C 113.671875 16.25 113.578125 16.339844 113.578125 16.609375 L 113.488281 17.417969 Z M 112.679688 17.058594 "/>
<path style=" stroke:none;fill-rule:nonzero;fill:rgb(0%,0%,0%);fill-opacity:1;" d="M 123.570313 23.269531 L 123.660156 23.449219 C 123.84375 23.917969 124.117188 24.347656 124.46875 24.710938 C 124.648438 24.890625 125.011719 25.070313 125.101563 24.890625 C 125.191406 24.710938 125.011719 24.441406 124.921875 24.347656 L 124.558594 23.988281 C 123.929688 23.269531 123.570313 22.550781 124.019531 21.917969 C 124.738281 21.109375 126.269531 21.46875 127.351563 22.371094 C 127.875 22.84375 128.328125 23.390625 128.699219 23.988281 L 127.441406 24.53125 C 127.25 24.089844 126.9375 23.71875 126.539063 23.449219 C 126.449219 23.269531 126.089844 23.089844 126 23.269531 C 125.910156 23.449219 126.089844 23.628906 126.269531 23.808594 L 126.539063 24.167969 C 127.261719 24.890625 127.53125 25.699219 126.988281 26.328125 C 126.269531 27.140625 124.828125 26.691406 123.75 25.789063 C 123.074219 25.292969 122.519531 24.644531 122.128906 23.898438 Z M 123.570313 23.269531 "/>
<path style=" stroke:none;fill-rule:nonzero;fill:rgb(0%,0%,0%);fill-opacity:1;" d="M 138.871094 44.691406 C 138.511719 44.417969 137.789063 43.96875 137.789063 43.96875 C 137.644531 43.878906 137.519531 43.757813 137.429688 43.609375 C 137.359375 43.175781 137.238281 42.753906 137.070313 42.347656 C 132.316406 36.246094 126.296875 31.242188 119.429688 27.679688 C 118.683594 27.355469 117.894531 27.144531 117.089844 27.050781 C 116.921875 27.046875 116.761719 26.980469 116.640625 26.871094 C 116.054688 26.277344 115.347656 25.816406 114.570313 25.519531 C 107.96875 22.832031 100.90625 21.457031 93.78125 21.46875 C 91.582031 21.480469 89.386719 21.632813 87.210938 21.917969 L 90.089844 18.050781 C 78.75 17.691406 70.558594 26.597656 70.558594 26.597656 C 67.847656 27.84375 65.230469 29.285156 62.730469 30.917969 C 59.320313 32.054688 56.546875 34.570313 55.078125 37.847656 C 53.550781 39.019531 50.578125 42.980469 50.578125 42.980469 C 49.882813 43.441406 49.222656 43.953125 48.601563 44.507813 C 45.980469 47.335938 44.175781 50.820313 43.378906 54.589844 C 43.3125 54.660156 43.277344 54.761719 43.289063 54.859375 C 43.199219 55.128906 43.199219 55.488281 43.109375 55.847656 C 43.019531 56.570313 42.839844 57.199219 42.75 57.917969 L 42.839844 57.828125 C 42.84375 57.925781 42.8125 58.023438 42.75 58.097656 C 42.347656 59.21875 42.019531 60.359375 41.761719 61.519531 C 41.671875 61.96875 40.050781 66.648438 40.050781 66.648438 C 36 80.871094 41.398438 89.417969 42.300781 90.769531 C 49.5 111.648438 69.839844 126.589844 93.691406 126.589844 C 111.140625 126.710938 127.597656 118.484375 137.96875 104.449219 C 138.164063 104.023438 138.285156 103.566406 138.328125 103.097656 C 138.347656 102.917969 138.449219 102.753906 138.601563 102.648438 C 139.320313 102.289063 139.589844 102.019531 139.589844 101.929688 C 145.039063 93.613281 147.917969 83.878906 147.871094 73.941406 C 148 63.488281 144.851563 53.261719 138.871094 44.691406 Z M 138.871094 44.691406 "/>
<path style=" stroke:none;fill-rule:nonzero;fill:rgb(100%,100%,100%);fill-opacity:1;" d="M 71.101563 34.429688 C 71.191406 34.25 71.371094 34.160156 71.460938 34.070313 L 71.730469 33.800781 L 71.820313 33.800781 C 71.824219 32.160156 72.035156 30.527344 72.449219 28.941406 C 77.398438 22.097656 85.5 20.300781 85.5 20.300781 C 86.488281 19.941406 85.859375 20.390625 85.859375 20.390625 C 80.730469 26.148438 81.269531 30.828125 81.269531 30.828125 L 86.21875 48.558594 C 86.21875 48.558594 82.261719 47.121094 79.199219 41 C 77.761719 53.417969 89.550781 63.5 89.550781 63.5 C 90 63.949219 89.191406 63.410156 89.191406 63.410156 C 86.308594 61.96875 82.890625 58.820313 81.988281 58.007813 C 82.171875 59 87.929688 87.621094 88.019531 87.800781 C 88.050781 87.988281 88.113281 88.167969 88.199219 88.339844 L 90.089844 83.480469 L 91.800781 97.96875 C 84.238281 104.898438 76.320313 102.199219 75.871094 102.019531 C 75.96875 102.164063 76.058594 102.316406 76.140625 102.46875 C 76.140625 102.46875 82.621094 115.070313 108.988281 113.808594 C 108.988281 113.808594 109.621094 113.808594 109.53125 113.898438 C 109.460938 113.90625 109.398438 113.9375 109.351563 113.988281 C 108.941406 114.121094 108.519531 114.214844 108.089844 114.257813 C 76.320313 122.71875 59.851563 95.71875 59.128906 94.550781 C 58.117188 93.105469 57.242188 91.570313 56.519531 89.960938 C 56.519531 89.871094 56.519531 89.691406 56.609375 89.871094 C 56.609375 89.871094 59.941406 93.289063 69.570313 94.191406 L 69.660156 94.191406 C 62.28125 86.089844 59.128906 80.148438 58.679688 79.25 C 58.679688 79.25 57.78125 77.898438 56.699219 74.121094 C 56.699219 74.121094 56.789063 73.9375 56.789063 74.121094 C 57.148438 74.839844 59.671875 78.4375 62.640625 79.25 C 60.121094 75.199219 58.5 68.808594 58.320313 67.910156 C 61.738281 72.679688 67.859375 73.039063 67.859375 73.039063 C 67.859375 72.988281 67.820313 72.949219 67.769531 72.949219 L 67.769531 73.039063 C 57.78125 63.050781 59.941406 52.25 63.988281 44.417969 C 65.871094 40.765625 68.265625 37.402344 71.101563 34.429688 Z M 71.101563 34.429688 "/>
<path style=" stroke:none;fill-rule:nonzero;fill:rgb(76.951599%,80.859375%,83.201599%);fill-opacity:1;" d="M 100.980469 100.21875 L 94.410156 107.058594 L 102.511719 100.847656 L 98.28125 86.449219 L 100.171875 69.167969 L 96.929688 85.640625 Z M 100.980469 100.21875 "/>
<path style=" stroke:none;fill-rule:nonzero;fill:rgb(76.951599%,80.859375%,83.201599%);fill-opacity:1;" d="M 99.359375 65.121094 C 99.496094 65.097656 99.621094 65.035156 99.71875 64.941406 C 100.40625 64.582031 101.019531 64.089844 101.519531 63.5 C 103.304688 61.644531 104.25 59.140625 104.128906 56.570313 C 104.101563 54.734375 103.800781 52.914063 103.230469 51.167969 C 103.140625 53.597656 102.421875 62.507813 99.359375 65.121094 Z M 99.359375 65.121094 "/>
<path style=" stroke:none;fill-rule:nonzero;fill:rgb(76.951599%,80.859375%,83.201599%);fill-opacity:1;" d="M 102.421875 35.691406 C 104.671875 32.269531 108.449219 32 110.070313 32 C 108.851563 31.59375 107.574219 31.378906 106.289063 31.371094 C 104.972656 31.339844 103.660156 31.554688 102.421875 32 C 101.699219 32.269531 101.25 32.449219 101.070313 32.539063 C 101.585938 33.558594 102.035156 34.613281 102.421875 35.691406 Z M 102.421875 35.691406 "/>
<path style=" stroke:none;fill-rule:nonzero;fill:rgb(76.951599%,80.859375%,83.201599%);fill-opacity:1;" d="M 96.660156 44.871094 L 96.75 44.78125 Z M 99.449219 42.980469 C 99.5 42.976563 99.542969 43.019531 99.539063 43.070313 L 99.539063 44.058594 C 99.539063 51.441406 97.648438 59.539063 96.839844 62.417969 C 99.238281 56.976563 100.464844 51.089844 100.441406 45.140625 C 100.445313 42.96875 100.265625 40.800781 99.898438 38.660156 C 99.8125 38.023438 99.695313 37.394531 99.539063 36.769531 C 98.820313 42.347656 96.660156 44.871094 96.660156 44.871094 L 96.570313 44.960938 C 96.480469 44.960938 96.480469 44.960938 96.390625 44.871094 C 94.363281 41.253906 91.710938 38.023438 88.558594 35.328125 C 87.296875 34.210938 85.90625 33.246094 84.421875 32.449219 C 91.078125 46.847656 93.058594 57.917969 93.601563 61.609375 L 93.601563 60.347656 C 93.476563 55.875 92.964844 51.417969 92.070313 47.03125 C 91.351563 43.160156 90.539063 40.371094 90.539063 40.371094 L 90.539063 40.191406 L 90.71875 40.191406 C 93.691406 42.53125 95.851563 49.097656 96.121094 50.359375 C 96.941406 49.125 97.605469 47.796875 98.101563 46.398438 C 98.640625 44.691406 99.179688 43.070313 99.179688 43.070313 Z M 99.449219 42.980469 "/>
<path style=" stroke:none;fill-rule:nonzero;fill:rgb(76.951599%,80.859375%,83.201599%);fill-opacity:1;" d="M 43.378906 72.949219 C 43.378906 79.789063 44.550781 86.898438 50.488281 96.078125 C 56.160156 107.871094 66.421875 114.167969 71.28125 116.597656 C 72.898438 117.320313 73.890625 117.769531 73.890625 117.769531 C 80.519531 120.949219 87.777344 122.609375 95.128906 122.628906 C 105.105469 122.546875 114.835938 119.542969 123.121094 113.988281 C 124.558594 113 125.371094 112.371094 125.371094 112.371094 L 126 111.738281 C 126 111.828125 125.820313 111.917969 125.730469 111.917969 L 125.191406 112.28125 C 114.660156 118.398438 105.03125 120.289063 97.109375 120.289063 C 84.691406 120.289063 76.769531 115.699219 76.769531 115.699219 C 50.488281 102.019531 50.128906 78.257813 50.128906 78.257813 C 50.128906 78.210938 50.167969 78.167969 50.21875 78.167969 L 50.398438 78.167969 C 53.730469 84.738281 57.871094 86.898438 59.671875 87.621094 C 59.871094 87.730469 60.082031 87.820313 60.300781 87.890625 C 52.648438 78.347656 50.488281 70.25 50.488281 64.21875 C 50.488281 56.121094 54.359375 51.621094 54.359375 51.621094 L 54.449219 51.53125 C 54.5 51.527344 54.542969 51.570313 54.539063 51.621094 C 54.070313 54.082031 53.828125 56.582031 53.820313 59.089844 C 53.785156 61.796875 54.148438 64.496094 54.898438 67.097656 C 55.132813 67.804688 55.402344 68.496094 55.710938 69.167969 C 55.460938 67.320313 55.339844 65.457031 55.351563 63.589844 C 55.335938 51.957031 59.933594 40.792969 68.128906 32.539063 C 66.421875 33.257813 64.441406 35.058594 62.820313 36.769531 C 61.019531 38.570313 59.578125 40.371094 59.578125 40.371094 L 59.488281 40.371094 C 59.398438 40.371094 59.398438 40.371094 59.398438 40.28125 C 59.546875 38.847656 60.007813 37.464844 60.75 36.230469 C 59.359375 37.640625 58.234375 39.285156 57.421875 41.089844 C 56.871094 42.1875 56.421875 43.332031 56.070313 44.507813 L 56.070313 44.597656 C 53.773438 47.257813 51.867188 50.226563 50.398438 53.417969 C 49.746094 54.785156 49.207031 56.199219 48.78125 57.648438 C 48.691406 58.007813 48.601563 58.191406 48.601563 58.28125 C 48.601563 58.28125 48.601563 58.371094 48.421875 58.371094 C 48.238281 58.371094 48.328125 58.28125 48.328125 58.191406 L 48.328125 58.097656 C 48.335938 57.917969 48.363281 57.734375 48.421875 57.558594 C 48.421875 54.140625 49.859375 50.449219 50.398438 49.007813 C 46.441406 53.238281 45.449219 59.089844 45.449219 63.679688 C 45.441406 66.285156 45.742188 68.882813 46.351563 71.417969 C 46.457031 74.351563 46.789063 77.269531 47.339844 80.148438 C 47.96875 82.847656 48.421875 84.828125 48.421875 84.828125 C 48.546875 85.117188 48.636719 85.417969 48.691406 85.730469 L 48.691406 85.820313 L 48.601563 85.820313 C 48.421875 85.820313 48.421875 85.730469 48.328125 85.640625 C 48.238281 85.640625 48.238281 85.550781 48.148438 85.371094 L 47.96875 85.007813 C 45.089844 80.691406 43.738281 73.667969 43.46875 71.960938 C 43.394531 72.285156 43.363281 72.617188 43.378906 72.949219 Z M 43.378906 72.949219 "/>
<path style=" stroke:none;fill-rule:nonzero;fill:rgb(0%,49.021912%,77.34375%);fill-opacity:1;" d="M 131.851563 42.710938 C 131.851563 42.710938 119.070313 25.609375 95.039063 25.609375 L 94.5 25.609375 C 94.359375 25.613281 94.226563 25.679688 94.140625 25.789063 C 94.140625 25.96875 94.320313 26.058594 94.5 26.148438 C 96.4375 27.675781 98.246094 29.359375 99.898438 31.191406 L 99.898438 31.28125 L 99.988281 31.191406 C 100.484375 30.964844 100.996094 30.785156 101.519531 30.648438 C 102.871094 30.296875 104.261719 30.113281 105.660156 30.109375 C 108.363281 30.109375 111.027344 30.792969 113.398438 32.089844 C 112.140625 32.71875 106.199219 35.691406 104.851563 39.199219 L 104.941406 39.289063 C 104.941406 39.289063 110.96875 44.691406 123.390625 44.691406 C 125.558594 44.710938 127.726563 44.558594 129.871094 44.238281 C 130.238281 44.230469 130.601563 44.171875 130.949219 44.058594 C 131.488281 43.878906 132.121094 43.699219 132.121094 43.070313 C 132.015625 42.960938 131.921875 42.839844 131.851563 42.710938 Z M 131.851563 42.710938 "/>
<path style=" stroke:none;fill-rule:nonzero;fill:rgb(0%,49.021912%,77.34375%);fill-opacity:1;" d="M 106.019531 66.648438 C 105.929688 66.558594 105.839844 66.558594 105.839844 66.648438 C 105.75 66.648438 105.75 66.738281 105.839844 66.738281 C 105.972656 66.878906 106.09375 67.027344 106.199219 67.191406 C 106.921875 68.179688 108.269531 70.519531 108.269531 74.660156 C 108.183594 78.539063 107.230469 82.355469 105.480469 85.820313 C 105.460938 84.488281 105.3125 83.160156 105.03125 81.859375 C 104.578125 79.519531 103.769531 77.089844 101.878906 76.550781 L 101.699219 76.550781 L 100.621094 86.71875 L 104.671875 101.839844 L 96.660156 108.320313 C 96.570313 108.320313 96.570313 108.320313 96.570313 108.410156 C 96.570313 108.460938 96.609375 108.5 96.660156 108.5 C 99.421875 109.21875 102.269531 109.550781 105.121094 109.488281 C 108.539063 109.472656 111.945313 109.109375 115.289063 108.410156 C 115.871094 108.238281 116.335938 107.804688 116.550781 107.238281 C 117.171875 103.945313 117.472656 100.601563 117.449219 97.25 C 117.539063 88.339844 115.648438 75.648438 106.019531 66.648438 Z M 106.019531 66.648438 "/>
<path style=" stroke:none;fill-rule:nonzero;fill:rgb(0%,49.021912%,77.34375%);fill-opacity:1;" d="M 119.25 107.238281 C 119.070313 107.148438 119.070313 106.96875 119.070313 106.699219 L 119.070313 106.25 C 119.355469 105.15625 119.566406 104.042969 119.699219 102.917969 C 120.140625 100.152344 120.351563 97.351563 120.328125 94.550781 C 120.328125 85.460938 118.171875 72.769531 108 62.960938 C 107.953125 62.910156 107.886719 62.878906 107.820313 62.871094 L 107.550781 62.597656 C 107.558594 62.53125 107.589844 62.46875 107.640625 62.417969 L 107.820313 62.417969 C 107.972656 62.421875 108.128906 62.449219 108.269531 62.507813 C 110.007813 63.085938 111.582031 64.074219 112.859375 65.390625 C 112.769531 64.941406 112.589844 63.949219 112.320313 62.691406 C 111.667969 60.523438 110.597656 58.503906 109.171875 56.75 L 108.898438 56.480469 C 108.808594 56.300781 108.71875 56.300781 108.71875 56.121094 L 108.71875 55.941406 L 108.898438 55.941406 C 108.988281 55.941406 109.078125 56.03125 109.351563 56.210938 C 109.980469 56.480469 135.539063 68.808594 136.441406 93.648438 L 136.441406 94.097656 C 136.488281 95.027344 136.164063 95.933594 135.539063 96.621094 C 135.269531 96.890625 129.238281 104.449219 120.238281 107.238281 C 120.078125 107.34375 119.890625 107.40625 119.699219 107.417969 C 119.609375 107.417969 119.339844 107.417969 119.25 107.238281 Z M 119.25 107.238281 "/>
<path style=" stroke:none;fill-rule:nonzero;fill:rgb(0%,49.021912%,77.34375%);fill-opacity:1;" d="M 138.421875 89.058594 C 137.878906 68.539063 118.441406 54.589844 108.71875 48.828125 C 106.988281 47.746094 105.183594 46.785156 103.320313 45.949219 L 102.871094 45.769531 L 103.5 45.769531 C 105.84375 45.78125 108.074219 46.796875 109.621094 48.558594 C 109.589844 47.671875 109.441406 46.792969 109.171875 45.949219 L 108.988281 45.679688 L 109.261719 45.769531 C 112.050781 46.847656 115.558594 47.210938 119.070313 47.210938 C 122.144531 47.179688 125.210938 46.941406 128.25 46.488281 C 130.679688 46.21875 132.300781 45.859375 132.300781 45.859375 L 132.660156 45.859375 C 134.101563 45.859375 134.550781 46.667969 134.550781 46.757813 C 137.878906 50.449219 141.929688 58.910156 142.648438 69.078125 C 142.738281 70.339844 142.738281 71.597656 142.738281 72.769531 C 142.738281 80.417969 141.121094 86.359375 139.949219 88.789063 C 139.5 89.691406 139.140625 90.140625 138.78125 90.140625 C 138.511719 90.050781 138.421875 89.691406 138.421875 89.058594 Z M 138.421875 89.058594 "/>
<path style=" stroke:none;fill-rule:nonzero;fill:rgb(0%,0%,0%);fill-opacity:1;" d="M 82.351563 22.730469 L 82.441406 22.640625 C 82.171875 22.730469 76.859375 24.347656 75.328125 32.269531 C 75.328125 32.269531 75.328125 32.449219 75.421875 32.269531 C 75.871094 31.550781 77.488281 29.03125 79.019531 29.75 L 79.019531 29.570313 C 79.109375 28.941406 79.648438 26.148438 82.351563 22.730469 Z M 82.351563 22.730469 "/>
<path style=" stroke:none;fill-rule:nonzero;fill:rgb(0%,0%,0%);fill-opacity:1;" d="M 78.390625 94.820313 C 77.21875 92.570313 69.929688 76.640625 69.929688 76.640625 C 67.679688 77.449219 64.890625 75.558594 64.890625 75.558594 C 68.488281 85.007813 76.949219 93.289063 78.300781 94.820313 C 78.480469 95.089844 78.480469 95 78.480469 95 C 78.390625 95 78.390625 94.820313 78.390625 94.820313 Z M 78.390625 94.820313 "/>
<path style=" stroke:none;fill-rule:nonzero;fill:rgb(0%,0%,0%);fill-opacity:1;" d="M 71.101563 43.160156 C 64.53125 58.097656 79.289063 64.308594 79.558594 64.398438 L 78.75 60.890625 L 78.300781 59 C 77.957031 58.8125 77.59375 58.660156 77.21875 58.550781 C 77.128906 58.550781 77.039063 58.460938 76.949219 58.371094 C 76.78125 58.367188 76.625 58.300781 76.5 58.191406 C 70.019531 54.769531 70.648438 46.578125 71.101563 43.878906 L 71.101563 43.609375 C 71.160156 43.4375 71.191406 43.253906 71.191406 43.070313 C 71.191406 42.890625 71.191406 43.070313 71.101563 43.160156 Z M 71.101563 43.160156 "/>
<path style=" stroke:none;fill-rule:nonzero;fill:rgb(76.951599%,80.859375%,83.201599%);fill-opacity:1;" d="M 80.820313 85.28125 L 79.738281 66.46875 L 86.128906 87.441406 C 86.128906 87.441406 84.058594 82.488281 80.820313 85.28125 Z M 80.820313 85.28125 "/>
<path style=" stroke:none;fill-rule:nonzero;fill:rgb(76.951599%,80.859375%,83.201599%);fill-opacity:1;" d="M 86.128906 48.558594 L 81.269531 30.828125 L 81.269531 31.191406 L 82.621094 42.441406 C 82.679688 42.582031 82.710938 42.734375 82.710938 42.890625 C 82.710938 43.519531 82.351563 44.328125 79.289063 41.179688 C 79.199219 41 79.109375 41 79.109375 41 C 82.171875 47.210938 86.128906 48.558594 86.128906 48.558594 Z M 86.128906 48.558594 "/>
<path style=" stroke:none;fill-rule:nonzero;fill:rgb(76.951599%,80.859375%,83.201599%);fill-opacity:1;" d="M 74.519531 51.800781 C 74.109375 50.992188 73.894531 50.097656 73.890625 49.191406 C 73.925781 47.542969 74.679688 45.996094 75.960938 44.960938 L 76.050781 44.871094 C 75.933594 43.371094 75.933594 41.867188 76.050781 40.371094 C 74.429688 42.710938 71.011719 48.378906 75.148438 52.789063 C 75.058594 52.699219 74.96875 52.609375 74.96875 52.519531 C 74.808594 52.289063 74.65625 52.046875 74.519531 51.800781 Z M 74.519531 51.800781 "/>
<path style=" stroke:none;fill-rule:nonzero;fill:rgb(0%,0%,0%);fill-opacity:1;" d="M 78.839844 54.050781 C 77.3125 51.234375 76.363281 48.144531 76.050781 44.960938 L 76.050781 44.871094 C 74.753906 45.933594 73.996094 47.515625 73.980469 49.191406 C 74.011719 50.054688 74.195313 50.90625 74.519531 51.710938 C 74.707031 51.957031 74.859375 52.230469 74.96875 52.519531 C 75.058594 52.519531 75.148438 52.699219 75.148438 52.789063 L 75.421875 53.058594 C 76.421875 54.066406 77.777344 54.648438 79.199219 54.679688 C 79.042969 54.492188 78.921875 54.28125 78.839844 54.050781 Z M 78.839844 54.050781 "/>
<path style=" stroke:none;fill-rule:nonzero;fill:rgb(76.951599%,80.859375%,83.201599%);fill-opacity:1;" d="M 84.691406 87.710938 C 84.691406 87.710938 81.539063 86.898438 81.808594 93.378906 C 81.828125 93.1875 81.890625 93.003906 81.988281 92.839844 C 82.890625 90.679688 83.789063 89.871094 84.601563 89.78125 C 85.230469 89.78125 85.769531 90.410156 86.128906 91.21875 C 86.527344 92.1875 86.859375 93.179688 87.121094 94.191406 C 87.378906 95.042969 87.558594 95.914063 87.660156 96.800781 C 87.742188 97.367188 87.773438 97.9375 87.75 98.507813 L 87.75 98.597656 C 87.839844 97.878906 89.191406 88.96875 84.691406 87.710938 Z M 84.691406 87.710938 "/>
<path style=" stroke:none;fill-rule:nonzero;fill:rgb(0%,0%,0%);fill-opacity:1;" d="M 87.75 98.597656 C 87.660156 97.789063 87.660156 97.25 87.570313 96.800781 C 87.480469 96.078125 87.300781 95.179688 87.121094 94.28125 C 86.871094 93.222656 86.507813 92.199219 86.039063 91.21875 C 85.679688 90.410156 85.140625 89.871094 84.511719 89.871094 C 83.699219 89.871094 82.890625 90.769531 81.898438 92.839844 C 81.882813 93.058594 81.820313 93.273438 81.71875 93.46875 L 83.339844 96.800781 C 83.339844 96.800781 84.238281 87.710938 87.75 98.597656 Z M 87.75 98.597656 "/>
</g>
</svg>
