<?xml version="1.0" encoding="UTF-8"?>
<svg xmlns="http://www.w3.org/2000/svg" xmlns:xlink="http://www.w3.org/1999/xlink" width="202pt" height="141pt" viewBox="0 0 202 141" version="1.1">
<g id="surface1">
<path style=" stroke:none;fill-rule:nonzero;fill:rgb(100%,100%,100%);fill-opacity:1;" d="M 200.609375 93.828125 L 188.910156 93.828125 C 188.910156 93.828125 194.308594 97.425781 195.660156 98.777344 C 195.660156 98.777344 200.519531 102.828125 200.519531 111.105469 L 200.519531 125.144531 C 200.519531 125.144531 200.519531 129.195313 198.808594 132.078125 L 198.808594 132.257813 C 198.359375 132.976563 195.03125 139.457031 185.21875 139.457031 C 185.21875 139.457031 179.371094 139.457031 175.5 136.125 L 172.710938 138.285156 L 166.679688 134.957031 L 166.679688 139.277344 L 147.511719 139.277344 L 141.75 134.957031 L 141.75 139.277344 L 114.929688 139.277344 L 111.691406 135.046875 C 111.691406 135.046875 107.371094 139.546875 100.980469 139.277344 C 100.980469 139.277344 92.96875 139.367188 88.738281 132.4375 L 81.359375 137.207031 C 79.128906 138.621094 76.53125 139.34375 73.890625 139.277344 C 68.820313 139.402344 64.074219 136.789063 61.46875 132.4375 C 61.46875 132.4375 56.339844 135.855469 54.359375 137.117188 C 52.089844 138.453125 49.523438 139.195313 46.890625 139.277344 C 43.195313 139.375 39.605469 138.015625 36.898438 135.496094 L 30.511719 139.277344 L 18.71875 139.277344 L 18.359375 138.285156 L 16.648438 139.1875 L 0.71875 139.1875 L 0.71875 123.527344 L 2.25 123.078125 L 2.339844 123.078125 C 2.519531 122.988281 3.148438 122.355469 3.058594 120.285156 L 2.789063 79.515625 C 2.789063 79.515625 2.96875 77.445313 0.539063 77.535156 L 0.539063 61.695313 L 32.039063 61.695313 L 29.609375 57.644531 L 33.570313 53.417969 L 26.820313 53.417969 C 26.820313 53.417969 47.519531 31.636719 71.460938 26.957031 L 72.269531 28.035156 L 105.300781 0.855469 L 136.710938 27.40625 L 137.609375 26.417969 C 137.609375 26.417969 154.621094 28.035156 181.441406 53.417969 L 173.96875 53.507813 L 179.011719 59.894531 L 178.46875 61.066406 L 185.21875 61.066406 C 185.21875 61.066406 191.25 60.527344 196.019531 64.394531 L 200.519531 62.867188 Z M 201.148438 62.238281 C 201.148438 62.238281 196.558594 63.765625 196.109375 63.945313 C 192.964844 61.636719 189.117188 60.492188 185.21875 60.707031 L 179.460938 60.707031 C 179.542969 60.449219 179.664063 60.207031 179.820313 59.988281 C 179.820313 59.988281 176.21875 55.488281 175.140625 54.136719 C 176.761719 54.136719 182.96875 54.046875 182.96875 54.046875 L 181.980469 53.144531 C 155.339844 27.945313 138.421875 26.054688 137.789063 25.964844 L 137.519531 25.964844 C 137.519531 25.964844 137.070313 26.507813 136.800781 26.777344 C 135.988281 26.144531 105.480469 0.316406 105.480469 0.316406 C 105.480469 0.316406 73.441406 26.597656 72.539063 27.40625 C 72.269531 27.046875 71.910156 26.507813 71.910156 26.507813 L 71.550781 26.507813 C 47.609375 31.1875 26.820313 52.875 26.640625 53.144531 L 25.738281 54.046875 L 32.308594 54.046875 C 31.320313 55.214844 28.980469 57.738281 28.980469 57.738281 C 28.980469 57.738281 30.511719 60.257813 31.140625 61.246094 L 0 61.246094 L 0 78.257813 L 0.539063 78.257813 C 1.023438 78.152344 1.523438 78.285156 1.890625 78.617188 C 2.140625 78.882813 2.269531 79.242188 2.25 79.605469 C 2.25 79.875 2.519531 120.375 2.519531 120.375 L 2.519531 120.828125 C 2.519531 122.265625 2.070313 122.625 1.980469 122.714844 C 1.800781 122.804688 0.0898438 123.257813 0.0898438 123.257813 L 0.0898438 139.90625 L 16.738281 139.90625 C 16.738281 139.90625 17.550781 139.457031 18.089844 139.1875 C 18.089844 139.277344 18.269531 139.90625 18.269531 139.90625 L 30.691406 139.90625 C 30.691406 139.90625 36.269531 136.667969 36.898438 136.304688 C 39.707031 138.765625 43.335938 140.082031 47.070313 139.996094 C 49.769531 139.84375 52.394531 139.039063 54.71875 137.65625 C 54.71875 137.65625 59.941406 134.238281 61.46875 133.246094 C 64.257813 137.46875 69.007813 139.980469 74.070313 139.90625 C 76.808594 139.984375 79.507813 139.230469 81.808594 137.746094 C 81.808594 137.746094 87.121094 134.238281 88.738281 133.246094 C 93.058594 139.90625 100.710938 139.90625 101.070313 139.90625 C 104.988281 140.011719 108.796875 138.59375 111.691406 135.945313 C 112.230469 136.757813 114.660156 139.90625 114.660156 139.90625 L 142.378906 139.90625 L 142.378906 136.125 C 143.640625 137.027344 147.328125 139.90625 147.328125 139.90625 L 167.21875 139.90625 L 167.21875 135.945313 C 168.480469 136.578125 172.800781 139.007813 172.800781 139.007813 C 172.800781 139.007813 174.960938 137.207031 175.5 136.847656 C 179.460938 139.90625 184.949219 139.90625 185.21875 139.90625 C 195.929688 139.90625 199.261719 132.347656 199.261719 132.257813 C 200.96875 129.375 201.058594 125.328125 201.058594 125.144531 L 201.058594 111.015625 C 201.058594 102.554688 196.109375 98.417969 195.929688 98.238281 C 194.292969 96.8125 192.546875 95.519531 190.710938 94.367188 L 201.058594 94.367188 L 201.058594 62.238281 Z M 201.148438 62.238281 "/>
<path style=" stroke:none;fill-rule:nonzero;fill:rgb(31.37207%,56.834412%,80.46875%);fill-opacity:1;" d="M 86.039063 128.925781 C 85.859375 129.195313 85.769531 129.375 85.589844 129.644531 C 85.71875 129.394531 85.871094 129.152344 86.039063 128.925781 Z M 86.039063 128.925781 "/>
<path style=" stroke:none;fill-rule:nonzero;fill:rgb(31.37207%,56.834412%,80.46875%);fill-opacity:1;" d="M 54.988281 133.695313 C 54.828125 133.765625 54.699219 133.894531 54.628906 134.054688 C 54.699219 133.894531 54.828125 133.765625 54.988281 133.695313 Z M 54.988281 133.695313 "/>
<path style=" stroke:none;fill-rule:nonzero;fill:rgb(31.37207%,56.834412%,80.46875%);fill-opacity:1;" d="M 198.269531 66.195313 L 198.269531 91.394531 L 187.648438 91.394531 C 187.648438 91.394531 183.691406 90.136719 183.238281 89.957031 L 183.238281 89.777344 C 183.261719 90.289063 183.320313 90.800781 183.421875 91.304688 C 183.613281 92.210938 184.085938 93.027344 184.769531 93.644531 C 184.859375 93.644531 188.460938 96.167969 193.769531 99.945313 C 193.859375 100.125 198.359375 103.636719 198.269531 111.195313 L 198.269531 125.777344 C 198.179688 128.738281 196.992188 131.558594 194.941406 133.695313 C 192.601563 135.945313 189.269531 137.207031 184.949219 137.117188 C 181.359375 137.089844 177.925781 135.632813 175.410156 133.066406 L 173.070313 135.046875 L 172.621094 135.40625 L 172.441406 135.496094 C 172.441406 135.496094 165.871094 132.078125 164.339844 131.265625 L 164.339844 137.027344 L 147.960938 137.027344 C 147.960938 137.027344 141.210938 132.078125 139.679688 130.90625 L 139.679688 137.027344 L 115.738281 137.027344 C 115.738281 137.027344 112.230469 132.976563 111.421875 131.988281 C 107.101563 137.207031 101.789063 137.117188 101.789063 137.117188 C 97.558594 136.9375 94.320313 135.675781 92.070313 133.15625 C 91.019531 132 90.195313 130.65625 89.640625 129.195313 C 88.46875 130.007813 83.160156 133.246094 81.71875 134.144531 C 81.539063 134.328125 81.359375 134.417969 81.269531 134.507813 C 79.300781 136.089844 76.863281 136.976563 74.339844 137.027344 C 70.46875 137.027344 67.410156 135.855469 65.160156 133.605469 C 63.953125 132.3125 63.03125 130.78125 62.460938 129.105469 C 61.199219 129.828125 55.261719 133.695313 53.910156 134.507813 C 53.457031 134.875 52.976563 135.207031 52.46875 135.496094 C 50.730469 136.542969 48.742188 137.101563 46.710938 137.117188 C 43.496094 137.175781 40.402344 135.90625 38.160156 133.605469 C 37.898438 133.324219 37.65625 133.023438 37.441406 132.707031 C 35.820313 133.695313 30.058594 136.9375 30.058594 136.9375 L 20.519531 136.9375 L 20.429688 136.667969 L 20.160156 135.585938 C 19.171875 135.945313 16.109375 136.9375 16.109375 136.9375 L 2.96875 136.9375 L 2.96875 125.507813 L 3.148438 125.328125 C 3.238281 125.328125 5.308594 124.15625 5.21875 120.644531 L 5.21875 80.777344 C 5.21875 80.777344 5.308594 76.457031 3.058594 75.375 L 2.878906 75.285156 L 2.878906 75.105469 L 2.96875 64.214844 L 2.96875 63.855469 L 19.621094 63.855469 L 19.621094 63.765625 L 35.820313 63.765625 L 35.820313 63.675781 C 34.019531 60.796875 32.488281 58.457031 32.488281 58.457031 L 32.21875 58.007813 L 32.488281 57.738281 C 34.429688 55.507813 36.535156 53.433594 38.789063 51.527344 L 32.039063 51.527344 L 33.480469 50.175781 C 34.199219 49.546875 52.199219 33.167969 70.019531 29.476563 L 70.558594 29.386719 L 70.828125 29.746094 C 70.828125 29.746094 71.460938 30.738281 71.910156 31.277344 L 105.121094 3.917969 L 136.890625 30.828125 C 137.339844 30.285156 138.148438 29.296875 138.148438 29.296875 L 138.421875 28.847656 L 138.871094 29.027344 C 153.898438 31.726563 172.441406 48.195313 174.511719 49.996094 L 176.039063 51.347656 L 168.660156 51.347656 C 172.890625 55.757813 175.949219 59.355469 176.308594 59.714844 L 176.398438 59.804688 C 176.398438 59.804688 176.039063 60.527344 175.949219 60.527344 L 173.878906 63.855469 C 177.300781 63.855469 182.789063 63.496094 184.5 63.496094 L 184.410156 63.496094 C 184.675781 63.425781 184.945313 63.394531 185.21875 63.40625 C 185.488281 63.40625 191.609375 63.226563 195.570313 67.097656 L 197.820313 66.375 Z M 185.21875 61.246094 L 178.558594 61.246094 L 179.101563 60.078125 L 173.96875 53.597656 L 181.53125 53.507813 C 154.710938 28.125 137.609375 26.507813 137.609375 26.507813 L 136.800781 27.496094 L 105.390625 0.945313 L 72.269531 28.125 L 71.550781 27.046875 C 47.519531 31.726563 26.910156 53.507813 26.910156 53.507813 L 33.570313 53.507813 L 29.519531 57.828125 L 32.039063 61.875 L 0.539063 61.875 L 0.539063 77.625 C 2.96875 77.535156 2.789063 79.605469 2.789063 79.605469 L 2.96875 120.375 C 3.058594 122.445313 2.429688 123.078125 2.25 123.257813 L 2.160156 123.257813 L 0.71875 123.707031 L 0.71875 139.277344 L 16.648438 139.277344 L 18.359375 138.375 L 18.71875 139.367188 L 30.511719 139.367188 L 36.898438 135.585938 C 39.609375 138.109375 43.1875 139.496094 46.890625 139.457031 C 49.523438 139.320313 52.085938 138.546875 54.359375 137.207031 C 56.339844 135.945313 61.46875 132.527344 61.46875 132.527344 C 64.082031 136.882813 68.8125 139.523438 73.890625 139.457031 C 76.542969 139.519531 79.148438 138.765625 81.359375 137.296875 L 88.738281 132.527344 C 92.96875 139.457031 100.980469 139.367188 100.980469 139.367188 C 107.371094 139.726563 111.691406 135.226563 111.691406 135.226563 L 114.929688 139.277344 L 141.75 139.277344 L 141.75 134.957031 L 147.511719 139.277344 L 166.679688 139.277344 L 166.679688 135.046875 L 172.710938 138.375 L 175.5 136.214844 C 179.460938 139.546875 185.21875 139.457031 185.21875 139.457031 C 195.03125 139.457031 198.359375 133.066406 198.808594 132.257813 L 198.808594 132.167969 C 200.519531 129.285156 200.519531 125.238281 200.519531 125.238281 L 200.519531 111.105469 C 200.519531 102.828125 195.660156 98.777344 195.660156 98.777344 C 194.308594 97.425781 188.910156 93.828125 188.910156 93.828125 L 200.609375 93.828125 L 200.609375 63.046875 L 196.019531 64.578125 C 191.339844 60.707031 185.21875 61.246094 185.21875 61.246094 Z M 185.21875 61.246094 "/>
<path style=" stroke:none;fill-rule:nonzero;fill:rgb(31.37207%,56.834412%,80.46875%);fill-opacity:1;" d="M 86.671875 127.578125 C 86.488281 127.9375 86.308594 128.296875 86.039063 128.746094 C 86.308594 128.296875 86.488281 127.9375 86.671875 127.578125 Z M 86.671875 127.578125 "/>
<path style=" stroke:none;fill-rule:nonzero;fill:rgb(0%,15.696716%,36.863708%);fill-opacity:1;" d="M 187.648438 80.507813 C 187.648438 80.507813 187.738281 78.617188 186.75 77.625 C 186.339844 77.234375 185.785156 77.039063 185.21875 77.085938 C 185.21875 77.085938 183.238281 77.175781 183.238281 80.867188 L 183.238281 90.046875 C 183.691406 90.226563 187.558594 91.488281 187.558594 91.488281 L 187.558594 80.507813 Z M 187.648438 80.507813 "/>
<path style=" stroke:none;fill-rule:nonzero;fill:rgb(0%,15.696716%,36.863708%);fill-opacity:1;" d="M 13.230469 120.738281 C 13.230469 120.828125 13.589844 124.246094 15.929688 125.507813 L 16.109375 125.597656 L 16.109375 137.027344 C 16.109375 137.027344 19.171875 136.035156 20.25 135.675781 L 13.230469 101.296875 Z M 13.230469 120.738281 "/>
<path style=" stroke:none;fill-rule:nonzero;fill:rgb(99.21875%,72.459412%,15.281677%);fill-opacity:1;" d="M 33.839844 58.457031 L 34.019531 58.367188 C 38.339844 55.847656 62.371094 43.425781 101.160156 42.347656 C 102.601563 42.257813 137.429688 40.726563 174.421875 60.257813 L 174.511719 60.347656 L 165.960938 73.847656 L 165.871094 73.847656 C 161.550781 71.507813 138.691406 59.625 105.660156 58.1875 C 105.390625 58.1875 72.269531 56.925781 42.480469 72.046875 L 42.390625 72.046875 Z M 35.371094 50.265625 L 35.640625 49.996094 C 39.421875 46.847656 52.46875 36.046875 66.238281 31.90625 L 66.421875 32.085938 C 56.070313 38.566406 47.429688 44.597656 40.679688 50.265625 Z M 156.511719 41.265625 C 156.421875 41.175781 149.128906 35.597656 143.191406 31.726563 L 143.28125 31.546875 C 155.160156 35.597656 168.570313 46.578125 172.441406 49.90625 L 172.710938 50.175781 L 172.261719 50.175781 L 166.859375 50.085938 C 163.644531 46.882813 160.183594 43.933594 156.511719 41.265625 Z M 41.21875 72.675781 L 41.308594 72.675781 C 41.410156 72.820313 41.5 72.972656 41.578125 73.125 L 41.941406 73.757813 L 42.570313 73.394531 C 71.460938 58.546875 104.308594 59.445313 105.660156 59.445313 C 141.210938 61.066406 165.511719 75.105469 165.691406 75.195313 L 166.410156 75.644531 L 173.878906 63.855469 L 175.949219 60.527344 L 176.398438 59.894531 L 176.308594 59.804688 C 175.949219 59.355469 172.890625 55.757813 168.660156 51.4375 L 176.21875 51.4375 L 174.691406 50.085938 C 172.621094 48.195313 153.988281 31.816406 138.960938 29.027344 L 138.511719 28.9375 L 138.238281 29.296875 C 138.238281 29.296875 137.519531 30.375 137.070313 30.917969 L 137.160156 31.007813 L 138.058594 31.726563 L 139.050781 30.464844 L 139.140625 30.554688 C 144.808594 33.527344 155.878906 42.078125 155.96875 42.078125 C 162.808594 46.847656 169.738281 54.226563 173.25 58.097656 L 173.070313 58.367188 C 170.191406 56.925781 167.128906 55.394531 164.070313 54.136719 C 162.359375 53.417969 160.738281 52.695313 159.121094 52.15625 C 127.710938 40.007813 101.519531 41.355469 101.25 41.355469 C 97.109375 41.445313 93.058594 41.714844 89.011719 42.078125 C 84.691406 42.4375 80.371094 42.976563 76.050781 43.695313 C 67.941406 45.082031 59.941406 47.039063 52.109375 49.546875 L 49.140625 50.625 C 44.863281 52.101563 40.6875 53.847656 36.628906 55.847656 L 36.449219 55.578125 C 40.589844 51.527344 50.578125 42.886719 70.199219 31.007813 L 70.289063 30.917969 L 71.191406 32.085938 L 72.089844 31.367188 L 72.179688 31.277344 C 71.851563 30.746094 71.492188 30.234375 71.101563 29.746094 L 70.828125 29.296875 L 70.289063 29.476563 C 52.46875 33.078125 34.46875 49.457031 33.75 50.175781 L 32.308594 51.527344 L 39.058594 51.527344 C 36.796875 53.390625 34.691406 55.4375 32.761719 57.644531 L 32.488281 58.097656 L 32.761719 58.546875 C 32.761719 58.546875 34.289063 60.976563 36.089844 63.855469 L 36.089844 63.945313 C 37.890625 67.277344 40.410156 71.238281 41.21875 72.675781 Z M 41.21875 72.675781 "/>
<path style=" stroke:none;fill-rule:nonzero;fill:rgb(31.37207%,56.834412%,80.46875%);fill-opacity:1;" d="M 172.710938 50.175781 L 172.441406 49.90625 C 168.660156 46.667969 155.25 35.6875 143.371094 31.546875 L 143.191406 31.726563 C 149.128906 35.597656 156.421875 41.175781 156.511719 41.265625 C 160.183594 43.933594 163.644531 46.882813 166.859375 50.085938 L 172.351563 50.175781 Z M 172.710938 50.175781 "/>
<path style=" stroke:none;fill-rule:nonzero;fill:rgb(31.37207%,56.834412%,80.46875%);fill-opacity:1;" d="M 66.421875 32.085938 L 66.238281 31.90625 C 52.46875 36.046875 39.421875 46.847656 35.640625 49.996094 L 35.371094 50.265625 L 40.679688 50.265625 C 48.816406 43.601563 57.417969 37.527344 66.421875 32.085938 Z M 66.421875 32.085938 "/>
<path style=" stroke:none;fill-rule:nonzero;fill:rgb(31.37207%,56.834412%,80.46875%);fill-opacity:1;" d="M 162 60.707031 C 162 60.707031 162.539063 59.535156 160.558594 58.90625 L 156.421875 57.285156 L 155.609375 59.445313 L 160.109375 61.246094 C 160.109375 61.246094 161.550781 61.964844 162 60.707031 Z M 162 60.707031 "/>
<path style=" stroke:none;fill-rule:nonzero;fill:rgb(31.37207%,56.834412%,80.46875%);fill-opacity:1;" d="M 54.898438 61.605469 C 56.558594 60.925781 57.421875 59.085938 56.878906 57.375 C 56.878906 57.375 56.070313 54.855469 52.558594 55.757813 L 48.871094 57.195313 L 51.03125 62.957031 Z M 54.898438 61.605469 "/>
<path style=" stroke:none;fill-rule:nonzero;fill:rgb(31.37207%,56.834412%,80.46875%);fill-opacity:1;" d="M 52.738281 53.144531 C 59.308594 51.707031 60.390625 56.027344 60.390625 56.027344 C 61.921875 60.976563 56.878906 63.226563 56.878906 63.226563 L 47.878906 66.644531 L 47.789063 66.464844 C 48.058594 66.375 48.058594 66.015625 48.058594 66.015625 L 44.640625 56.65625 C 44.550781 56.566406 44.191406 56.65625 44.191406 56.65625 L 44.101563 56.476563 Z M 78.03125 46.578125 C 78.371094 46.59375 78.640625 46.28125 78.570313 45.945313 L 78.75 45.945313 L 79.46875 49.277344 L 79.378906 49.277344 C 79.238281 49.085938 79.054688 48.929688 78.839844 48.828125 L 70.46875 50.714844 L 70.828125 52.515625 L 75.871094 51.347656 C 76.140625 51.285156 76.347656 51.074219 76.410156 50.804688 L 76.589844 50.804688 L 77.21875 53.777344 L 76.949219 53.777344 C 76.867188 53.644531 76.738281 53.546875 76.589844 53.507813 L 71.28125 54.675781 L 71.730469 56.65625 L 80.011719 54.855469 C 80.011719 54.855469 80.371094 54.855469 80.460938 54.226563 L 80.640625 54.226563 L 81.359375 57.554688 L 81.179688 57.554688 C 81.179688 57.554688 80.820313 57.105469 80.550781 57.195313 L 68.128906 59.894531 L 68.039063 59.625 C 68.398438 59.625 68.308594 59.265625 68.308594 59.265625 L 66.238281 49.367188 C 66.191406 49.265625 66.070313 49.222656 65.96875 49.277344 L 65.878906 49.097656 Z M 93.328125 45.046875 L 93.328125 45.316406 C 93.328125 45.316406 92.878906 45.316406 92.96875 45.585938 C 93.027344 45.753906 93.121094 45.90625 93.238281 46.035156 L 99.71875 51.078125 L 99.359375 45.40625 C 99.308594 45.199219 99.125 45.054688 98.910156 45.046875 L 98.910156 44.867188 L 103.320313 44.6875 L 103.320313 44.957031 C 102.960938 44.957031 102.960938 45.226563 102.960938 45.226563 L 103.410156 55.214844 C 103.410156 55.394531 103.769531 55.304688 103.769531 55.304688 L 103.859375 55.578125 L 99.359375 55.847656 L 99.359375 55.757813 C 99.359375 55.757813 99.808594 55.757813 99.71875 55.394531 C 99.71875 55.214844 99.449219 54.945313 99.449219 54.945313 L 99.71875 55.125 L 91.710938 49.007813 L 92.160156 55.667969 C 92.144531 55.859375 92.335938 56.003906 92.519531 55.9375 L 92.519531 56.207031 L 88.289063 56.296875 L 88.289063 56.117188 C 88.558594 56.117188 88.648438 55.757813 88.648438 55.757813 L 88.199219 45.855469 C 88.109375 45.675781 87.839844 45.675781 87.839844 45.675781 L 87.75 45.496094 Z M 109.980469 44.957031 L 115.109375 45.40625 L 115.019531 45.675781 C 114.839844 45.675781 114.660156 45.675781 114.75 45.855469 C 114.75 46.035156 114.839844 46.125 115.378906 47.207031 L 117.898438 52.515625 L 121.589844 47.207031 C 121.769531 46.9375 121.949219 46.757813 121.949219 46.578125 C 121.949219 46.394531 121.949219 46.304688 121.769531 46.304688 L 121.859375 45.945313 L 126.179688 46.394531 L 126.179688 46.667969 C 125.820313 46.667969 125.640625 46.847656 125.371094 47.296875 L 119.878906 55.9375 C 119.789063 56.117188 119.609375 56.207031 119.609375 56.476563 C 119.609375 56.65625 119.699219 56.65625 119.789063 56.746094 L 119.789063 56.925781 L 114.839844 56.476563 L 114.929688 56.207031 C 115.199219 56.207031 115.019531 55.847656 115.019531 55.847656 L 114.929688 55.488281 L 110.878906 46.125 C 110.699219 45.496094 110.609375 45.496094 110.160156 45.316406 Z M 130.679688 58.277344 C 130.863281 58.34375 131.054688 58.199219 131.039063 58.007813 L 133.46875 48.195313 C 133.46875 48.015625 133.199219 47.925781 133.199219 47.925781 L 133.289063 47.746094 L 145.441406 50.625 C 145.441406 50.625 146.070313 50.894531 146.160156 50.355469 L 146.339844 50.355469 L 145.621094 53.6875 L 145.441406 53.597656 C 145.4375 53.386719 145.335938 53.1875 145.171875 53.054688 L 136.800781 51.078125 L 136.351563 52.875 L 141.390625 54.046875 C 141.660156 54.09375 141.9375 53.988281 142.109375 53.777344 L 142.289063 53.777344 L 141.570313 56.746094 L 141.390625 56.65625 C 141.371094 56.492188 141.308594 56.335938 141.210938 56.207031 L 135.898438 54.945313 L 135.449219 56.925781 L 143.730469 58.90625 C 143.730469 58.90625 144.089844 58.996094 144.269531 58.457031 L 144.449219 58.546875 L 143.640625 61.875 L 143.460938 61.785156 C 143.460938 61.785156 143.371094 61.246094 143.011719 61.246094 Z M 149.398438 63.675781 C 149.761719 63.765625 149.851563 63.496094 149.851563 63.496094 L 153.539063 54.046875 C 153.539063 53.957031 153.269531 53.867188 153.269531 53.867188 L 153.359375 53.597656 L 163.351563 57.554688 C 167.308594 59.445313 165.78125 62.328125 165.78125 62.328125 C 164.609375 64.667969 161.191406 64.125 161.191406 64.125 L 162.808594 68.804688 C 162.910156 68.804688 162.992188 68.886719 162.988281 68.988281 L 162.988281 69.078125 L 158.308594 67.367188 L 158.398438 67.1875 C 158.621094 67.226563 158.839844 67.117188 158.941406 66.917969 C 158.851563 66.554688 157.320313 62.507813 157.320313 62.507813 L 154.890625 61.605469 L 153.539063 64.9375 C 153.421875 65.109375 153.515625 65.34375 153.71875 65.386719 L 153.628906 65.65625 L 149.308594 63.945313 Z M 42.570313 72.046875 C 72.359375 56.925781 105.480469 58.1875 105.839844 58.1875 C 138.78125 59.625 161.640625 71.507813 165.960938 73.847656 L 166.050781 73.847656 L 174.691406 60.347656 L 174.511719 60.257813 C 137.519531 40.726563 102.691406 42.257813 101.25 42.347656 C 62.460938 43.425781 38.519531 55.847656 34.109375 58.367188 L 34.019531 58.457031 Z M 42.570313 72.046875 "/>
<path style=" stroke:none;fill-rule:nonzero;fill:rgb(31.37207%,56.834412%,80.46875%);fill-opacity:1;" d="M 71.011719 32.445313 L 71.191406 32.445313 L 71.011719 32.175781 L 70.109375 31.007813 L 70.019531 31.097656 C 50.398438 42.976563 40.410156 51.707031 36.269531 55.757813 L 36.449219 55.9375 C 40.515625 53.953125 44.691406 52.210938 48.960938 50.714844 C 50.039063 50.355469 50.941406 49.996094 52.019531 49.726563 C 50.941406 49.996094 50.039063 50.355469 49.140625 50.625 C 50.761719 49.097656 71.011719 32.445313 71.011719 32.445313 Z M 71.011719 32.445313 "/>
<path style=" stroke:none;fill-rule:nonzero;fill:rgb(31.37207%,56.834412%,80.46875%);fill-opacity:1;" d="M 163.621094 53.957031 C 162.089844 53.328125 160.46875 52.695313 158.941406 52.15625 C 160.558594 52.695313 162.269531 53.417969 163.890625 54.136719 C 166.949219 55.488281 170.011719 56.925781 172.890625 58.367188 L 173.070313 58.097656 C 169.558594 54.226563 162.628906 46.847656 155.789063 42.078125 C 155.789063 42.078125 144.71875 33.527344 138.960938 30.554688 L 138.871094 30.464844 L 137.878906 31.726563 L 137.699219 31.996094 Z M 163.621094 53.957031 "/>
<path style=" stroke:none;fill-rule:nonzero;fill:rgb(100%,100%,100%);fill-opacity:1;" d="M 52.558594 55.847656 C 56.160156 54.855469 56.878906 57.464844 56.878906 57.464844 C 57.871094 60.4375 54.898438 61.605469 54.898438 61.605469 L 51.03125 63.046875 L 48.871094 57.195313 Z M 44.640625 56.65625 L 48.058594 66.015625 C 48.113281 66.214844 47.992188 66.421875 47.789063 66.464844 L 47.878906 66.644531 L 56.878906 63.226563 C 56.878906 63.226563 61.921875 60.976563 60.390625 56.027344 C 60.390625 56.027344 59.308594 51.707031 52.738281 53.144531 L 44.101563 56.476563 L 44.191406 56.65625 C 44.28125 56.65625 44.550781 56.566406 44.640625 56.65625 Z M 44.640625 56.65625 "/>
<path style=" stroke:none;fill-rule:nonzero;fill:rgb(100%,100%,100%);fill-opacity:1;" d="M 66.148438 49.457031 L 68.21875 59.355469 C 68.273438 59.554688 68.152344 59.761719 67.949219 59.804688 L 68.039063 59.988281 L 80.460938 57.375 C 80.640625 57.195313 81.089844 57.644531 81.089844 57.644531 L 81.269531 57.644531 L 80.460938 54.316406 L 80.371094 54.40625 C 80.28125 54.945313 79.921875 54.945313 79.921875 54.945313 L 71.640625 56.746094 L 71.191406 54.765625 L 76.410156 53.597656 C 76.609375 53.636719 76.777344 53.769531 76.859375 53.957031 L 77.039063 53.867188 L 76.410156 50.804688 L 76.140625 50.894531 C 76.140625 51.347656 75.601563 51.4375 75.601563 51.4375 L 70.558594 52.605469 L 70.199219 50.804688 L 78.660156 48.917969 C 78.878906 48.976563 79.046875 49.148438 79.109375 49.367188 L 79.289063 49.277344 L 78.570313 45.945313 L 78.390625 46.035156 C 78.390625 46.578125 77.761719 46.578125 77.761719 46.578125 L 65.519531 49.277344 L 65.609375 49.457031 C 65.789063 49.457031 66.058594 49.277344 66.148438 49.457031 Z M 66.148438 49.457031 "/>
<path style=" stroke:none;fill-rule:nonzero;fill:rgb(100%,100%,100%);fill-opacity:1;" d="M 88.199219 45.855469 L 88.648438 55.847656 C 88.652344 56.046875 88.492188 56.210938 88.289063 56.207031 L 88.289063 56.386719 L 92.519531 56.207031 L 92.519531 56.027344 C 92.160156 56.027344 92.160156 55.757813 92.160156 55.757813 L 91.710938 49.007813 L 99.71875 55.125 L 99.449219 55.035156 C 99.449219 55.035156 99.71875 55.304688 99.71875 55.488281 C 99.808594 55.757813 99.359375 55.757813 99.359375 55.757813 L 99.359375 55.9375 L 103.859375 55.578125 L 103.769531 55.394531 C 103.769531 55.394531 103.410156 55.394531 103.410156 55.304688 L 102.960938 45.316406 C 102.957031 45.117188 103.121094 44.953125 103.320313 44.957031 L 103.320313 44.777344 L 98.910156 44.957031 L 98.910156 45.136719 C 99.109375 45.082031 99.3125 45.203125 99.359375 45.40625 L 99.71875 51.167969 L 93.238281 46.125 C 93.238281 46.125 93.058594 45.855469 92.96875 45.675781 C 92.878906 45.40625 93.328125 45.40625 93.328125 45.40625 L 93.328125 45.136719 L 87.75 45.585938 L 87.839844 45.855469 C 87.75 45.675781 88.109375 45.675781 88.199219 45.855469 Z M 88.199219 45.855469 "/>
<path style=" stroke:none;fill-rule:nonzero;fill:rgb(100%,100%,100%);fill-opacity:1;" d="M 143.460938 61.964844 L 143.640625 62.054688 L 144.359375 58.726563 L 144.269531 58.636719 C 143.910156 59.175781 143.640625 58.996094 143.640625 58.996094 L 135.359375 57.105469 L 135.808594 55.125 L 141.121094 56.386719 C 141.390625 56.65625 141.390625 56.835938 141.390625 56.835938 L 141.570313 56.925781 L 142.289063 53.957031 L 142.019531 53.957031 C 141.839844 54.316406 141.300781 54.226563 141.300781 54.226563 L 136.261719 53.054688 L 136.710938 51.257813 L 145.171875 53.144531 C 145.332031 53.316406 145.429688 53.539063 145.441406 53.777344 L 145.53125 53.867188 L 146.339844 50.535156 L 146.160156 50.535156 C 146.0625 50.835938 145.710938 50.96875 145.441406 50.804688 L 133.199219 47.925781 L 133.109375 48.105469 C 133.109375 48.105469 133.46875 48.195313 133.46875 48.375 L 131.039063 58.1875 C 130.992188 58.386719 130.789063 58.511719 130.589844 58.457031 L 130.589844 58.636719 L 142.921875 61.605469 C 143.28125 61.425781 143.460938 61.964844 143.460938 61.964844 Z M 143.460938 61.964844 "/>
<path style=" stroke:none;fill-rule:nonzero;fill:rgb(100%,100%,100%);fill-opacity:1;" d="M 156.421875 57.285156 L 160.558594 58.90625 C 162.539063 59.535156 162 60.707031 162 60.707031 C 161.550781 61.964844 160.019531 61.246094 160.019531 61.246094 L 155.519531 59.445313 Z M 153.628906 65.296875 C 153.425781 65.253906 153.332031 65.015625 153.449219 64.847656 L 154.710938 61.515625 L 157.230469 62.507813 C 157.230469 62.507813 158.761719 66.554688 158.851563 66.828125 C 158.851563 66.828125 158.671875 67.277344 158.308594 67.097656 L 158.21875 67.277344 L 162.808594 69.078125 L 162.898438 68.894531 L 162.71875 68.714844 L 161.011719 64.035156 C 161.011719 64.035156 164.519531 64.667969 165.691406 62.238281 C 165.691406 62.238281 167.21875 59.355469 163.261719 57.554688 L 153.269531 53.597656 L 153.179688 53.777344 C 153.179688 53.777344 153.449219 53.867188 153.449219 54.046875 L 149.761719 63.40625 C 149.71875 63.609375 149.480469 63.707031 149.308594 63.585938 L 149.21875 63.855469 L 153.539063 65.476563 Z M 153.628906 65.296875 "/>
<path style=" stroke:none;fill-rule:nonzero;fill:rgb(100%,100%,100%);fill-opacity:1;" d="M 110.699219 45.945313 L 114.75 55.394531 L 114.839844 55.757813 C 114.839844 55.757813 115.019531 56.117188 114.75 56.117188 L 114.660156 56.386719 L 119.609375 56.925781 L 119.609375 56.65625 C 119.519531 56.65625 119.519531 56.65625 119.519531 56.386719 C 119.539063 56.195313 119.601563 56.011719 119.699219 55.847656 L 125.191406 47.207031 C 125.460938 46.757813 125.550781 46.578125 126 46.578125 L 126 46.304688 L 121.679688 45.945313 L 121.589844 46.214844 C 121.769531 46.214844 121.859375 46.394531 121.769531 46.488281 C 121.769531 46.757813 121.589844 46.847656 121.410156 47.207031 L 117.71875 52.425781 L 115.199219 47.207031 C 114.660156 46.125 114.660156 45.945313 114.570313 45.855469 C 114.570313 45.675781 114.660156 45.496094 114.839844 45.585938 L 114.929688 45.316406 L 109.800781 44.957031 L 109.710938 45.136719 C 110.429688 45.40625 110.519531 45.40625 110.699219 45.945313 Z M 110.699219 45.945313 "/>
<path style=" stroke:none;fill-rule:nonzero;fill:rgb(100%,100%,100%);fill-opacity:1;" d="M 29.339844 80.328125 L 29.339844 136.304688 L 21.148438 136.304688 L 13.320313 97.515625 L 12.511719 97.605469 L 12.511719 120.828125 C 12.511719 121.007813 12.960938 124.605469 15.480469 126.046875 L 15.480469 136.304688 L 3.78125 136.304688 L 3.78125 126.046875 C 5.355469 124.792969 6.199219 122.832031 6.03125 120.828125 L 5.941406 80.957031 C 5.941406 80.777344 6.121094 76.457031 3.691406 75.015625 L 3.691406 64.757813 L 13.769531 64.757813 L 21.960938 104.804688 L 22.769531 104.714844 L 22.679688 80.328125 C 22.679688 80.144531 22.769531 76.1875 20.429688 74.925781 L 20.429688 64.757813 L 31.589844 64.757813 L 31.589844 75.195313 C 30.871094 75.375 29.519531 76.367188 29.339844 80.328125 Z M 30.058594 80.328125 C 30.238281 76.097656 31.949219 75.828125 31.949219 75.828125 L 32.308594 75.828125 L 32.308594 63.945313 L 19.710938 63.945313 L 19.710938 75.464844 L 19.890625 75.554688 C 22.050781 76.457031 21.960938 80.328125 21.960938 80.328125 L 21.960938 101.027344 L 14.488281 64.304688 L 14.488281 63.945313 L 3.058594 63.945313 L 3.058594 64.394531 L 2.96875 75.195313 L 2.96875 75.464844 L 3.238281 75.554688 C 5.398438 76.636719 5.308594 80.957031 5.308594 80.957031 L 5.308594 120.828125 C 5.398438 124.246094 3.421875 125.507813 3.238281 125.507813 L 3.058594 125.597656 L 3.058594 137.117188 L 16.199219 137.117188 L 16.199219 125.597656 L 16.019531 125.507813 C 13.589844 124.246094 13.320313 120.828125 13.320313 120.738281 L 13.320313 101.296875 L 20.339844 135.675781 L 20.519531 136.757813 L 20.609375 137.027344 L 30.058594 137.027344 Z M 30.058594 80.328125 "/>
<path style=" stroke:none;fill-rule:nonzero;fill:rgb(100%,100%,100%);fill-opacity:1;" d="M 113.671875 127.125 C 109.441406 136.394531 101.96875 136.394531 101.878906 136.394531 C 97.921875 136.304688 94.769531 134.957031 92.609375 132.707031 C 89.191406 128.835938 89.460938 123.347656 89.460938 123.347656 L 89.460938 74.65625 C 89.640625 70.515625 90.988281 67.367188 93.328125 65.207031 C 96.929688 61.875 101.789063 62.144531 101.878906 62.144531 C 107.460938 62.144531 111.511719 67.277344 111.511719 67.367188 L 111.691406 67.546875 L 111.960938 67.457031 L 113.671875 66.644531 L 113.671875 91.125 L 103.949219 91.125 L 103.949219 80.238281 C 103.949219 78.4375 103.589844 77.175781 102.871094 76.457031 C 102.5625 76.070313 102.101563 75.839844 101.609375 75.828125 C 101.089844 75.824219 100.59375 76.054688 100.261719 76.457031 C 99.089844 77.625 99.269531 80.597656 99.269531 80.6875 L 99.269531 117.046875 C 99.089844 119.386719 99.449219 121.007813 100.261719 121.816406 C 100.609375 122.132813 101.050781 122.320313 101.519531 122.355469 C 102.070313 122.378906 102.601563 122.148438 102.960938 121.726563 C 104.21875 120.285156 103.949219 117.046875 103.949219 116.957031 L 103.949219 105.707031 L 102.148438 105.707031 L 102.148438 97.964844 L 113.578125 97.964844 Z M 114.390625 127.304688 L 114.390625 97.246094 L 101.429688 97.246094 L 101.429688 106.605469 L 103.230469 106.605469 L 103.230469 117.046875 C 103.320313 117.945313 103.320313 120.375 102.421875 121.277344 C 102.003906 121.835938 101.179688 121.882813 100.710938 121.367188 C 100.261719 120.828125 99.808594 119.746094 99.898438 117.226563 L 99.898438 80.777344 C 99.808594 79.964844 99.988281 77.894531 100.710938 76.996094 C 100.945313 76.828125 101.230469 76.734375 101.519531 76.726563 C 101.796875 76.753906 102.054688 76.882813 102.238281 77.085938 C 102.691406 77.445313 103.140625 78.347656 103.140625 80.328125 L 103.140625 92.027344 L 114.480469 92.027344 L 114.480469 65.65625 L 113.941406 65.835938 L 111.960938 66.738281 C 111.058594 65.65625 107.28125 61.425781 101.96875 61.425781 C 101.789063 61.425781 96.660156 61.15625 92.878906 64.667969 C 90.359375 67.007813 88.921875 70.246094 88.738281 74.65625 L 88.738281 123.257813 C 88.675781 125.289063 89.042969 127.316406 89.820313 129.195313 C 90.304688 130.671875 91.101563 132.023438 92.160156 133.15625 C 94.410156 135.585938 97.738281 136.9375 101.878906 137.117188 C 101.96875 137.117188 107.191406 137.207031 111.511719 131.988281 C 112.671875 130.558594 113.640625 128.988281 114.390625 127.304688 Z M 114.390625 127.304688 "/>
<path style=" stroke:none;fill-rule:nonzero;fill:rgb(100%,100%,100%);fill-opacity:1;" d="M 138.960938 136.304688 L 116.640625 136.304688 L 116.640625 125.777344 C 117.269531 125.417969 118.621094 124.246094 118.351563 120.195313 L 118.351563 78.257813 C 118.351563 78.167969 118.261719 75.554688 116.460938 74.207031 L 116.460938 63.316406 C 124.0625 63.898438 131.578125 65.316406 138.871094 67.546875 L 138.871094 91.125 L 131.851563 91.125 C 131.851563 88.695313 131.761719 77.894531 128.160156 77.714844 L 127.710938 77.714844 L 127.710938 98.054688 L 133.648438 98.054688 L 133.648438 105.796875 L 127.710938 105.796875 L 127.710938 123.796875 L 128.070313 123.886719 C 128.550781 123.972656 129.046875 123.839844 129.421875 123.527344 C 130.589844 122.625 131.941406 119.835938 131.761719 111.644531 L 138.960938 111.644531 Z M 131.039063 110.925781 L 131.039063 111.375 C 131.308594 119.835938 129.871094 122.265625 129.058594 122.894531 C 128.871094 123.003906 128.691406 123.125 128.519531 123.257813 L 128.519531 106.605469 L 134.460938 106.605469 L 134.460938 97.246094 L 128.519531 97.246094 L 128.519531 78.617188 C 130.589844 79.605469 131.21875 86.894531 131.128906 91.578125 L 131.128906 91.9375 L 139.589844 91.9375 L 139.589844 67.007813 L 139.320313 66.917969 C 131.800781 64.578125 124.042969 63.097656 116.191406 62.507813 L 115.738281 62.507813 L 115.738281 74.566406 L 115.921875 74.65625 C 117.628906 75.828125 117.628906 78.257813 117.628906 78.257813 L 117.628906 120.285156 C 117.898438 124.605469 116.191406 125.144531 116.191406 125.144531 L 115.921875 125.144531 L 115.921875 137.027344 L 139.769531 137.027344 L 139.769531 110.925781 Z M 131.039063 110.925781 "/>
<path style=" stroke:none;fill-rule:nonzero;fill:rgb(100%,100%,100%);fill-opacity:1;" d="M 163.710938 136.304688 L 148.859375 136.304688 L 148.859375 125.777344 C 149.578125 125.417969 151.648438 123.886719 151.558594 118.9375 L 151.558594 82.757813 L 151.378906 82.578125 C 151.082031 82.472656 150.753906 82.507813 150.480469 82.667969 C 149.308594 83.296875 148.589844 86.175781 148.320313 91.125 L 142.289063 91.125 L 142.289063 68.445313 C 151.90625 71.464844 161.167969 75.507813 169.921875 80.507813 L 169.921875 90.945313 L 164.160156 90.945313 C 163.890625 89.417969 163.171875 84.828125 161.371094 84.464844 L 160.921875 84.375 L 160.921875 118.847656 C 160.921875 119.027344 160.738281 124.15625 163.710938 125.597656 Z M 164.25 125.144531 C 161.460938 124.15625 161.640625 119.027344 161.640625 118.9375 L 161.640625 85.546875 C 162.539063 86.445313 163.261719 89.417969 163.441406 91.488281 L 163.53125 91.847656 L 170.640625 91.847656 L 170.640625 80.144531 L 170.460938 80.054688 C 155.429688 71.328125 142.289063 67.726563 142.109375 67.726563 L 141.570313 67.546875 L 141.570313 91.9375 L 149.039063 91.9375 L 149.039063 91.578125 C 149.308594 85.097656 150.390625 83.65625 150.839844 83.386719 L 150.839844 119.027344 C 150.839844 124.246094 148.410156 125.144531 148.320313 125.238281 L 148.050781 125.328125 L 148.050781 137.027344 L 164.519531 137.027344 L 164.519531 125.238281 Z M 164.25 125.144531 "/>
<path style=" stroke:none;fill-rule:nonzero;fill:rgb(99.21875%,72.459412%,15.281677%);fill-opacity:1;" d="M 31.589844 75.195313 L 31.589844 64.757813 L 20.519531 64.757813 L 20.519531 74.925781 C 22.859375 76.1875 22.769531 80.144531 22.769531 80.328125 L 22.769531 104.714844 L 22.050781 104.804688 L 13.859375 64.757813 L 3.78125 64.757813 L 3.691406 75.015625 C 6.121094 76.457031 6.03125 80.777344 5.941406 80.957031 L 6.03125 120.828125 C 6.199219 122.832031 5.355469 124.792969 3.78125 126.046875 L 3.78125 136.304688 L 15.390625 136.304688 L 15.390625 126.046875 C 12.871094 124.605469 12.511719 121.007813 12.511719 120.828125 L 12.511719 97.605469 L 13.230469 97.515625 L 21.058594 136.304688 L 29.25 136.304688 C 29.25 131.355469 29.339844 80.328125 29.339844 80.328125 C 29.519531 76.367188 30.871094 75.375 31.589844 75.195313 Z M 31.589844 75.195313 "/>
<path style=" stroke:none;fill-rule:nonzero;fill:rgb(99.21875%,72.459412%,15.281677%);fill-opacity:1;" d="M 102.238281 105.796875 L 104.039063 105.796875 L 104.039063 117.046875 C 104.039063 117.136719 104.308594 120.375 102.960938 121.816406 C 102.601563 122.238281 102.070313 122.46875 101.519531 122.445313 C 101.050781 122.410156 100.609375 122.222656 100.261719 121.90625 C 99.449219 121.097656 99.089844 119.476563 99.269531 117.226563 L 99.269531 80.777344 C 99.269531 80.6875 99.089844 77.804688 100.261719 76.546875 C 100.585938 76.144531 101.097656 75.9375 101.609375 76.007813 C 102.085938 76.015625 102.539063 76.207031 102.871094 76.546875 C 103.589844 77.265625 103.949219 78.527344 103.949219 80.328125 L 103.949219 91.214844 L 113.671875 91.214844 L 113.671875 66.738281 L 111.960938 67.546875 L 111.691406 67.636719 L 111.511719 67.457031 C 111.421875 67.367188 107.460938 62.144531 101.878906 62.144531 C 101.789063 62.144531 96.929688 61.964844 93.328125 65.207031 C 90.988281 67.367188 89.640625 70.605469 89.460938 74.65625 L 89.460938 123.347656 C 89.460938 123.347656 89.191406 128.835938 92.609375 132.707031 C 94.769531 135.046875 97.921875 136.304688 101.878906 136.394531 C 101.96875 136.394531 109.441406 136.394531 113.671875 127.125 L 113.671875 98.054688 L 102.238281 98.054688 Z M 102.238281 105.796875 "/>
<path style=" stroke:none;fill-rule:nonzero;fill:rgb(99.21875%,72.459412%,15.281677%);fill-opacity:1;" d="M 129.421875 123.527344 C 128.699219 124.15625 128.070313 123.976563 128.070313 123.886719 L 127.710938 123.796875 L 127.710938 105.796875 L 133.648438 105.796875 L 133.648438 98.054688 L 127.710938 98.054688 L 127.710938 77.714844 L 128.160156 77.714844 C 131.761719 77.894531 131.851563 88.605469 131.851563 91.125 L 138.871094 91.125 L 138.871094 67.546875 C 131.589844 65.269531 124.070313 63.851563 116.460938 63.316406 L 116.460938 74.207031 C 118.351563 75.554688 118.351563 78.167969 118.351563 78.257813 L 118.351563 120.195313 C 118.621094 124.246094 117.269531 125.417969 116.640625 125.777344 L 116.640625 136.304688 L 138.960938 136.304688 L 138.960938 111.738281 L 131.761719 111.738281 C 131.941406 119.835938 130.589844 122.625 129.421875 123.527344 Z M 129.421875 123.527344 "/>
<path style=" stroke:none;fill-rule:nonzero;fill:rgb(99.21875%,72.459412%,15.281677%);fill-opacity:1;" d="M 160.921875 118.9375 L 160.921875 84.554688 L 161.371094 84.554688 C 163.171875 84.917969 163.890625 89.507813 164.160156 91.125 L 169.921875 91.125 L 169.921875 80.597656 C 156.601563 72.945313 144.808594 69.257813 142.289063 68.625 L 142.289063 91.214844 L 148.320313 91.214844 C 148.589844 86.265625 149.308594 83.476563 150.480469 82.757813 C 151.019531 82.488281 151.289063 82.667969 151.378906 82.757813 L 151.558594 82.847656 L 151.558594 119.117188 C 151.648438 123.976563 149.578125 125.597656 148.859375 125.957031 L 148.859375 136.394531 L 163.710938 136.394531 L 163.710938 125.957031 C 160.738281 124.246094 160.921875 119.207031 160.921875 118.9375 Z M 160.921875 118.9375 "/>
<path style=" stroke:none;fill-rule:nonzero;fill:rgb(0%,15.696716%,36.863708%);fill-opacity:1;" d="M 172.53125 113.355469 L 172.53125 112.996094 L 183.058594 112.996094 L 183.058594 119.476563 C 183.058594 119.476563 183.058594 121.90625 184.140625 122.988281 C 184.410156 123.351563 184.867188 123.523438 185.308594 123.4375 C 185.710938 123.40625 186.089844 123.25 186.390625 122.988281 C 187.019531 122.445313 187.46875 121.277344 187.46875 119.65625 L 187.46875 113.175781 C 187.46875 113.175781 187.738281 109.214844 185.308594 107.777344 C 185.308594 107.777344 177.03125 101.925781 177.121094 101.925781 C 176.941406 101.835938 172.261719 98.867188 172.171875 90.675781 L 172.171875 76.90625 C 172.171875 76.726563 171.808594 66.195313 182.429688 63.855469 C 183.097656 63.773438 183.757813 63.652344 184.410156 63.496094 L 184.5 63.496094 C 182.789063 63.496094 177.300781 63.855469 173.878906 63.855469 L 166.410156 75.644531 L 165.691406 75.195313 C 165.511719 75.105469 141.210938 61.066406 105.660156 59.445313 C 104.21875 59.445313 71.460938 58.546875 42.570313 73.394531 L 41.941406 73.757813 L 41.578125 73.125 C 41.5 72.972656 41.410156 72.820313 41.308594 72.675781 L 41.21875 72.675781 C 40.320313 71.238281 37.890625 67.367188 35.820313 64.035156 L 32.308594 64.035156 L 32.308594 75.828125 L 32.039063 75.917969 C 32.039063 75.917969 30.238281 76.097656 30.148438 80.328125 L 30.058594 136.757813 L 30.058594 137.027344 C 30.058594 137.027344 35.910156 133.785156 37.53125 132.796875 C 34.019531 128.027344 34.558594 121.097656 34.558594 120.828125 L 34.558594 94.726563 C 34.601563 94.054688 34.410156 93.386719 34.019531 92.835938 C 33.714844 92.679688 33.359375 92.644531 33.03125 92.746094 L 32.488281 92.925781 L 32.488281 81.40625 L 32.671875 81.316406 C 37.351563 77.988281 45.449219 74.476563 45.539063 74.476563 L 46.078125 74.207031 L 46.078125 85.726563 L 45.988281 85.816406 C 45.269531 86.445313 45.089844 89.597656 45.269531 91.394531 L 45.269531 117.496094 C 45.089844 120.285156 45.71875 121.277344 46.171875 121.546875 C 46.441406 121.90625 46.710938 121.816406 46.710938 121.816406 L 46.890625 121.816406 C 47.03125 121.8125 47.164063 121.746094 47.25 121.636719 C 47.96875 120.917969 48.058594 118.488281 48.058594 117.585938 C 48.058594 117.585938 48.148438 87.347656 48.148438 87.257813 C 48.148438 86.085938 47.96875 85.636719 47.789063 85.457031 C 47.707031 85.40625 47.617188 85.378906 47.519531 85.367188 L 47.070313 85.457031 L 47.070313 73.757813 L 47.25 73.667969 C 55.800781 69.617188 60.480469 68.445313 60.570313 68.445313 L 61.019531 68.355469 L 61.019531 80.417969 L 60.839844 80.507813 C 58.679688 81.855469 58.859375 85.097656 58.859375 85.1875 L 58.859375 121.726563 C 59.039063 126.945313 57.691406 131.085938 54.988281 133.785156 C 54.898438 133.875 54.808594 134.054688 54.71875 134.144531 C 54.449219 134.328125 54.269531 134.507813 54 134.6875 C 55.441406 133.875 61.289063 130.097656 62.550781 129.195313 C 61.886719 127.441406 61.550781 125.582031 61.558594 123.707031 L 61.558594 78.707031 C 62.28125 65.027344 74.339844 64.847656 74.519531 64.847656 C 80.101563 64.578125 83.789063 68.804688 84.691406 69.796875 L 86.21875 69.078125 L 86.761719 68.894531 L 86.761719 92.027344 L 75.691406 92.027344 L 75.691406 83.65625 C 75.691406 81.675781 75.328125 80.867188 74.96875 80.507813 C 74.785156 80.300781 74.527344 80.171875 74.25 80.144531 C 73.9375 80.128906 73.636719 80.265625 73.441406 80.507813 C 72.71875 81.316406 72.628906 83.386719 72.628906 84.105469 L 72.628906 117.40625 C 72.449219 119.925781 72.988281 121.007813 73.441406 121.457031 C 73.609375 121.621094 73.835938 121.714844 74.070313 121.726563 C 74.410156 121.742188 74.738281 121.613281 74.96875 121.367188 C 75.871094 120.375 75.871094 118.035156 75.78125 117.226563 L 75.78125 106.695313 L 73.980469 106.695313 L 73.980469 97.425781 L 86.671875 97.425781 L 86.671875 127.578125 C 86.488281 127.9375 86.308594 128.296875 86.039063 128.746094 C 86.035156 128.816406 86 128.878906 85.949219 128.925781 C 85.648438 129.40625 85.351563 129.886719 85.050781 130.367188 C 85.050781 130.417969 85.011719 130.457031 84.960938 130.457031 C 84.066406 131.890625 82.941406 133.167969 81.628906 134.238281 C 83.160156 133.335938 88.46875 130.007813 89.640625 129.285156 C 88.925781 127.386719 88.558594 125.375 88.558594 123.347656 L 88.558594 74.65625 C 88.738281 70.246094 90.089844 66.917969 92.699219 64.667969 C 95.230469 62.507813 98.464844 61.355469 101.789063 61.425781 C 107.101563 61.425781 110.96875 65.65625 111.78125 66.738281 L 113.761719 65.835938 L 114.210938 65.65625 L 114.210938 91.9375 L 103.230469 91.9375 L 103.230469 80.328125 C 103.230469 78.347656 102.78125 77.445313 102.421875 76.996094 C 102.183594 76.808594 101.90625 76.6875 101.609375 76.636719 C 101.324219 76.621094 101.050781 76.757813 100.890625 76.996094 C 100.078125 77.804688 99.988281 79.964844 99.988281 80.6875 L 99.988281 117.136719 C 99.808594 119.746094 100.351563 120.828125 100.800781 121.277344 C 100.988281 121.480469 101.242188 121.609375 101.519531 121.636719 C 101.859375 121.671875 102.199219 121.535156 102.421875 121.277344 C 103.320313 120.285156 103.320313 117.855469 103.320313 117.046875 L 103.320313 106.605469 L 101.519531 106.605469 L 101.519531 97.246094 L 114.390625 97.246094 L 114.390625 127.304688 C 113.664063 128.972656 112.691406 130.519531 111.511719 131.894531 C 112.320313 132.886719 115.921875 137.027344 115.921875 137.027344 L 115.921875 125.144531 L 116.191406 125.144531 C 116.191406 125.144531 117.988281 124.605469 117.628906 120.285156 L 117.628906 78.257813 C 117.628906 78.257813 117.628906 75.828125 115.921875 74.65625 L 115.738281 74.566406 L 115.738281 62.507813 L 116.191406 62.507813 C 124.042969 63.097656 131.800781 64.578125 139.320313 66.917969 L 139.589844 67.007813 L 139.589844 91.9375 L 131.128906 91.9375 L 131.128906 91.578125 C 131.21875 86.894531 130.589844 79.605469 128.519531 78.617188 L 128.519531 97.246094 L 134.460938 97.246094 L 134.460938 106.605469 L 128.519531 106.605469 L 128.519531 123.257813 C 128.609375 123.257813 128.789063 123.078125 129.058594 122.894531 C 129.871094 122.265625 131.308594 119.835938 131.039063 111.375 L 131.039063 110.925781 L 139.769531 110.925781 L 139.769531 130.90625 C 141.300781 132.078125 148.050781 137.027344 148.050781 137.027344 L 148.050781 125.328125 L 148.320313 125.238281 C 148.410156 125.144531 150.839844 124.246094 150.839844 119.027344 L 150.839844 83.386719 C 150.390625 83.65625 149.308594 85.097656 149.039063 91.578125 L 149.039063 91.9375 L 141.570313 91.9375 L 141.570313 67.546875 L 142.109375 67.726563 C 152.019531 70.6875 161.539063 74.824219 170.460938 80.054688 L 170.640625 80.144531 L 170.640625 91.847656 L 163.53125 91.847656 L 163.441406 91.578125 C 163.261719 89.507813 162.539063 86.535156 161.640625 85.636719 L 161.640625 119.027344 C 161.640625 119.027344 161.550781 124.15625 164.25 125.238281 L 164.519531 125.328125 L 164.519531 131.265625 C 165.871094 132.078125 172.621094 135.496094 172.621094 135.496094 L 172.621094 134.777344 Z M 172.53125 113.355469 "/>
<path style=" stroke:none;fill-rule:nonzero;fill:rgb(0%,15.696716%,36.863708%);fill-opacity:1;" d="M 22.050781 100.9375 C 22.050781 94.097656 21.960938 80.328125 21.960938 80.328125 C 21.960938 80.238281 22.140625 76.367188 19.980469 75.554688 L 19.710938 75.375 L 19.710938 63.945313 L 14.488281 63.945313 L 14.488281 64.304688 Z M 22.050781 100.9375 "/>
<path style=" stroke:none;fill-rule:nonzero;fill:rgb(100%,100%,100%);fill-opacity:1;" d="M 197.550781 67.277344 L 197.550781 90.675781 L 188.460938 90.675781 L 188.460938 80.507813 C 188.460938 80.417969 188.460938 78.257813 187.289063 77.085938 C 186.785156 76.535156 186.058594 76.238281 185.308594 76.277344 C 185.21875 76.277344 182.519531 76.277344 182.519531 80.777344 L 182.519531 88.695313 C 182.519531 88.875 182.25 92.835938 184.410156 94.277344 C 184.410156 94.277344 188.011719 96.796875 193.320313 100.578125 C 193.320313 100.578125 197.640625 103.996094 197.460938 111.195313 L 197.460938 125.777344 C 197.371094 128.527344 196.285156 131.152344 194.398438 133.15625 C 192.238281 135.316406 189.089844 136.394531 184.949219 136.304688 C 181.464844 136.277344 178.144531 134.8125 175.769531 132.257813 L 175.5 132.078125 L 175.230469 132.257813 L 173.160156 133.875 L 173.160156 113.714844 L 182.25 113.714844 L 182.25 119.476563 C 182.25 119.566406 182.160156 122.175781 183.511719 123.527344 C 183.976563 124.007813 184.644531 124.242188 185.308594 124.15625 L 185.21875 124.15625 C 185.808594 124.1875 186.386719 123.996094 186.839844 123.617188 C 187.648438 122.894531 188.191406 121.546875 188.191406 119.65625 L 188.191406 113.355469 C 188.191406 113.175781 188.550781 108.855469 185.671875 107.144531 C 185.761719 107.144531 177.480469 101.386719 177.480469 101.386719 C 177.390625 101.296875 173.070313 98.507813 172.890625 90.675781 L 172.890625 76.816406 C 172.890625 76.277344 172.53125 65.027344 185.21875 64.214844 C 185.308594 64.214844 191.519531 63.945313 195.121094 67.90625 L 195.210938 67.996094 L 195.480469 67.996094 Z M 185.21875 63.40625 C 184.949219 63.40625 184.679688 63.496094 184.410156 63.496094 C 183.734375 63.519531 183.070313 63.640625 182.429688 63.855469 C 171.808594 66.105469 172.171875 76.726563 172.171875 76.816406 L 172.171875 90.675781 C 172.261719 98.867188 176.941406 101.835938 177.121094 102.015625 L 185.308594 107.777344 C 187.738281 109.304688 187.46875 113.175781 187.46875 113.265625 L 187.46875 119.65625 C 187.5625 120.894531 187.175781 122.117188 186.390625 123.078125 C 186.089844 123.339844 185.710938 123.496094 185.308594 123.527344 C 184.878906 123.53125 184.460938 123.367188 184.140625 123.078125 C 183.058594 121.996094 183.058594 119.566406 183.058594 119.566406 L 183.058594 112.996094 L 172.53125 112.996094 L 172.53125 135.585938 L 173.070313 135.046875 L 175.410156 133.15625 C 177.976563 135.699219 181.429688 137.148438 185.039063 137.207031 C 189.269531 137.207031 192.601563 136.035156 194.941406 133.695313 C 196.996094 131.597656 198.183594 128.800781 198.269531 125.867188 L 198.269531 111.285156 C 198.359375 103.726563 193.949219 100.125 193.769531 100.035156 C 188.460938 96.257813 184.859375 93.644531 184.859375 93.644531 C 184.097656 93.09375 183.605469 92.242188 183.511719 91.304688 C 183.421875 90.855469 183.328125 90.226563 183.238281 89.867188 L 183.238281 80.867188 C 183.328125 77.175781 185.21875 77.085938 185.308594 77.085938 C 185.867188 77.070313 186.414063 77.265625 186.839844 77.625 C 187.429688 78.472656 187.742188 79.476563 187.738281 80.507813 L 187.738281 91.488281 L 198.359375 91.488281 L 198.359375 66.195313 L 197.910156 66.375 L 195.660156 67.1875 C 191.609375 63.226563 185.488281 63.40625 185.21875 63.40625 Z M 185.21875 63.40625 "/>
<path style=" stroke:none;fill-rule:nonzero;fill:rgb(99.21875%,72.459412%,15.281677%);fill-opacity:1;" d="M 195.121094 67.90625 C 191.519531 63.945313 185.308594 64.214844 185.308594 64.214844 C 172.621094 65.117188 172.890625 76.367188 172.890625 76.816406 L 172.890625 90.675781 C 173.070313 98.507813 177.480469 101.296875 177.570313 101.386719 L 185.761719 107.144531 C 188.640625 108.855469 188.28125 113.175781 188.28125 113.355469 L 188.28125 119.65625 C 188.191406 121.546875 187.738281 122.894531 186.839844 123.617188 C 186.421875 123.988281 185.871094 124.183594 185.308594 124.15625 C 184.652344 124.167969 184.015625 123.945313 183.511719 123.527344 C 182.25 122.175781 182.339844 119.566406 182.339844 119.476563 L 182.339844 113.714844 L 173.25 113.714844 L 173.25 133.875 L 175.320313 132.257813 L 175.589844 132.078125 L 175.769531 132.257813 C 178.183594 134.808594 181.527344 136.269531 185.039063 136.304688 C 189.089844 136.394531 192.238281 135.226563 194.488281 133.15625 C 196.375 131.152344 197.460938 128.527344 197.550781 125.777344 L 197.550781 111.195313 C 197.640625 103.996094 193.410156 100.578125 193.320313 100.578125 C 188.011719 96.796875 184.410156 94.277344 184.410156 94.277344 C 182.339844 92.835938 182.519531 88.875 182.519531 88.695313 L 182.519531 80.777344 C 182.609375 76.277344 185.21875 76.277344 185.308594 76.277344 C 186.085938 76.238281 186.835938 76.53125 187.378906 77.085938 C 188.550781 78.257813 188.460938 80.417969 188.460938 80.507813 L 188.460938 90.675781 L 197.640625 90.675781 L 197.640625 67.277344 L 195.570313 67.996094 L 195.390625 67.996094 Z M 195.121094 67.90625 "/>
<path style=" stroke:none;fill-rule:nonzero;fill:rgb(100%,100%,100%);fill-opacity:1;" d="M 74.429688 136.304688 C 70.738281 136.304688 67.859375 135.226563 65.789063 133.066406 C 62.101563 129.285156 62.191406 123.527344 62.191406 123.527344 L 62.191406 78.617188 C 62.910156 65.65625 73.890625 65.476563 74.429688 65.476563 C 80.371094 65.207031 84.148438 70.335938 84.148438 70.425781 L 84.328125 70.605469 L 84.601563 70.515625 L 85.949219 69.886719 L 85.949219 91.125 L 76.410156 91.125 L 76.410156 83.476563 C 76.589844 82.136719 76.234375 80.777344 75.421875 79.695313 C 75.070313 79.382813 74.628906 79.191406 74.160156 79.15625 C 73.65625 79.140625 73.167969 79.335938 72.808594 79.695313 C 71.640625 80.957031 71.820313 83.746094 71.820313 83.925781 L 71.820313 117.046875 C 71.640625 119.296875 72 120.917969 72.808594 121.726563 C 73.136719 122.085938 73.585938 122.3125 74.070313 122.355469 C 74.628906 122.324219 75.148438 122.066406 75.511719 121.636719 C 76.769531 120.195313 76.5 117.046875 76.5 116.957031 L 76.5 105.796875 L 74.699219 105.796875 L 74.699219 98.054688 L 85.859375 98.054688 L 85.859375 127.214844 C 81.808594 136.578125 74.789063 136.394531 74.429688 136.304688 Z M 85.140625 130.457031 L 85.140625 130.367188 C 85.320313 130.097656 85.410156 129.917969 85.589844 129.644531 C 85.769531 129.375 85.859375 129.195313 86.039063 128.925781 C 86.046875 128.828125 86.125 128.753906 86.21875 128.746094 C 86.363281 128.339844 86.542969 127.949219 86.761719 127.578125 L 86.761719 97.425781 L 74.070313 97.425781 L 74.070313 106.695313 L 75.871094 106.695313 L 75.871094 117.226563 C 75.960938 118.035156 75.960938 120.375 75.058594 121.367188 C 74.847656 121.640625 74.503906 121.78125 74.160156 121.726563 C 73.925781 121.703125 73.707031 121.609375 73.53125 121.457031 C 73.078125 121.007813 72.539063 119.835938 72.71875 117.40625 L 72.71875 84.105469 C 72.71875 83.386719 72.808594 81.316406 73.621094 80.507813 C 73.78125 80.269531 74.054688 80.132813 74.339844 80.144531 C 74.617188 80.171875 74.875 80.300781 75.058594 80.507813 C 75.421875 80.867188 75.871094 81.675781 75.871094 83.65625 L 75.871094 92.027344 L 86.941406 92.027344 L 86.941406 68.894531 L 86.308594 69.078125 L 84.78125 69.796875 C 83.96875 68.804688 80.191406 64.578125 74.609375 64.847656 C 74.519531 64.847656 62.460938 65.027344 61.648438 78.707031 L 61.648438 123.527344 C 61.636719 125.429688 61.972656 127.320313 62.640625 129.105469 C 63.261719 130.777344 64.207031 132.308594 65.429688 133.605469 C 67.679688 135.945313 70.738281 137.117188 74.609375 137.117188 C 77.128906 137.035156 79.558594 136.152344 81.539063 134.597656 C 81.71875 134.507813 81.808594 134.328125 81.988281 134.238281 C 83.140625 133.0625 84.195313 131.800781 85.140625 130.457031 Z M 85.140625 130.457031 "/>
<path style=" stroke:none;fill-rule:nonzero;fill:rgb(99.21875%,72.459412%,15.281677%);fill-opacity:1;" d="M 85.859375 127.304688 L 85.859375 98.144531 L 74.699219 98.144531 L 74.699219 105.886719 L 76.5 105.886719 L 76.5 117.046875 C 76.5 117.226563 76.769531 120.375 75.511719 121.726563 C 75.125 122.121094 74.617188 122.375 74.070313 122.445313 C 73.601563 122.410156 73.160156 122.222656 72.808594 121.90625 C 72 121.007813 71.640625 119.476563 71.820313 117.226563 L 71.820313 84.015625 C 71.820313 83.925781 71.640625 81.046875 72.808594 79.875 C 73.132813 79.460938 73.632813 79.226563 74.160156 79.246094 C 74.644531 79.292969 75.09375 79.515625 75.421875 79.875 C 76.140625 80.597656 76.410156 81.855469 76.410156 83.65625 L 76.410156 91.214844 L 85.949219 91.214844 L 85.949219 69.976563 L 84.601563 70.605469 L 84.328125 70.695313 L 84.148438 70.515625 C 84.058594 70.425781 80.371094 65.296875 74.429688 65.566406 C 73.980469 65.566406 62.910156 65.746094 62.191406 78.707031 L 62.191406 123.527344 C 62.191406 123.617188 62.101563 129.375 65.789063 133.15625 C 67.859375 135.226563 70.738281 136.394531 74.429688 136.394531 C 74.789063 136.394531 81.808594 136.578125 85.859375 127.304688 Z M 85.859375 127.304688 "/>
<path style=" stroke:none;fill-rule:nonzero;fill:rgb(100%,100%,100%);fill-opacity:1;" d="M 46.800781 136.394531 C 43.792969 136.492188 40.886719 135.3125 38.789063 133.15625 C 34.648438 128.65625 35.28125 120.828125 35.28125 120.828125 L 35.28125 94.636719 C 35.28125 93.464844 35.011719 92.65625 34.378906 92.207031 C 34.058594 91.925781 33.632813 91.796875 33.210938 91.847656 L 33.210938 81.675781 C 37.171875 78.886719 43.46875 76.007813 45.269531 75.195313 L 45.269531 85.277344 C 44.28125 86.625 44.460938 90.855469 44.460938 91.394531 L 44.460938 117.40625 C 44.371094 119.746094 44.820313 121.367188 45.628906 122.085938 C 45.984375 122.375 46.4375 122.503906 46.890625 122.445313 C 47.226563 122.449219 47.546875 122.320313 47.789063 122.085938 C 48.871094 121.007813 48.871094 117.855469 48.871094 117.496094 L 48.871094 87.257813 C 48.871094 85.996094 48.691406 85.277344 48.238281 84.828125 C 48.058594 84.738281 47.96875 84.644531 47.789063 84.644531 L 47.789063 74.207031 C 51.789063 72.21875 55.941406 70.566406 60.210938 69.257813 L 60.210938 79.875 C 57.871094 81.496094 57.960938 85.007813 58.050781 85.097656 L 58.050781 121.546875 C 58.230469 126.675781 56.96875 130.546875 54.449219 133.15625 C 52.382813 135.136719 49.660156 136.289063 46.800781 136.394531 Z M 54.988281 133.695313 C 57.691406 130.90625 58.949219 126.855469 58.769531 121.546875 L 58.769531 85.007813 C 58.769531 85.007813 58.589844 81.675781 60.75 80.328125 L 60.929688 80.238281 L 60.929688 68.175781 L 60.480469 68.355469 C 60.390625 68.355469 55.800781 69.4375 47.160156 73.488281 L 46.980469 73.578125 L 46.980469 85.277344 L 47.429688 85.1875 C 47.523438 85.199219 47.617188 85.226563 47.699219 85.277344 C 47.878906 85.457031 48.148438 85.90625 48.058594 87.078125 L 48.058594 117.40625 C 48.058594 118.304688 47.96875 120.828125 47.160156 121.457031 C 47.0625 121.550781 46.933594 121.613281 46.800781 121.636719 L 46.710938 121.636719 C 46.484375 121.683594 46.246094 121.617188 46.078125 121.457031 C 45.71875 121.097656 45.089844 120.105469 45.179688 117.40625 L 45.179688 91.304688 C 45.089844 89.507813 45.269531 86.355469 45.898438 85.636719 L 45.988281 85.546875 L 45.988281 74.027344 L 45.539063 74.296875 C 45.449219 74.296875 37.261719 77.804688 32.671875 81.136719 L 32.488281 81.226563 L 32.488281 92.746094 L 32.941406 92.566406 C 33.269531 92.46875 33.625 92.5 33.929688 92.65625 C 34.289063 92.925781 34.46875 93.554688 34.46875 94.546875 L 34.46875 120.644531 C 34.46875 121.007813 33.929688 127.847656 37.441406 132.707031 C 37.710938 132.976563 37.890625 133.246094 38.160156 133.515625 C 40.355469 135.886719 43.484375 137.167969 46.710938 137.027344 C 48.734375 136.960938 50.710938 136.402344 52.46875 135.40625 C 52.921875 135.136719 53.371094 134.777344 53.910156 134.417969 C 54.089844 134.238281 54.359375 134.054688 54.539063 133.875 C 54.71875 133.875 54.808594 133.785156 54.988281 133.695313 Z M 54.988281 133.695313 "/>
<path style=" stroke:none;fill-rule:nonzero;fill:rgb(99.21875%,72.459412%,15.281677%);fill-opacity:1;" d="M 57.960938 121.546875 L 57.960938 85.097656 C 57.960938 84.917969 57.78125 81.40625 60.121094 79.875 L 60.121094 69.257813 C 55.847656 70.511719 51.691406 72.140625 47.699219 74.117188 L 47.699219 84.554688 C 47.789063 84.644531 47.96875 84.644531 48.148438 84.828125 C 48.691406 85.1875 48.871094 85.996094 48.871094 87.167969 C 48.871094 87.167969 48.78125 117.496094 48.78125 117.40625 C 48.78125 117.765625 48.871094 121.007813 47.699219 121.996094 C 47.476563 122.265625 47.148438 122.429688 46.800781 122.445313 C 46.34375 122.433594 45.902344 122.273438 45.539063 121.996094 C 44.730469 121.277344 44.371094 119.746094 44.371094 117.40625 L 44.371094 91.394531 C 44.371094 90.855469 44.191406 86.625 45.269531 85.277344 L 45.269531 75.285156 C 41.070313 77.097656 37.039063 79.265625 33.210938 81.765625 L 33.210938 91.9375 C 33.601563 91.929688 33.980469 92.058594 34.289063 92.296875 C 34.921875 92.746094 35.191406 93.554688 35.191406 94.726563 L 35.191406 120.917969 C 35.191406 121.007813 34.558594 128.746094 38.699219 133.246094 C 40.589844 135.40625 43.289063 136.394531 46.710938 136.488281 C 49.570313 136.378906 52.292969 135.226563 54.359375 133.246094 C 56.96875 130.546875 58.140625 126.675781 57.960938 121.546875 Z M 57.960938 121.546875 "/>
<path style=" stroke:none;fill-rule:nonzero;fill:rgb(0%,15.696716%,36.863708%);fill-opacity:1;" d="M 105.300781 7.15625 L 133.921875 31.367188 L 135.71875 32.804688 L 132.210938 31.367188 L 117.269531 25.15625 L 117.269531 33.257813 L 115.46875 31.457031 L 109.980469 26.054688 L 108 31.546875 L 105.839844 37.394531 L 103.320313 31.546875 L 100.710938 25.695313 L 94.410156 30.828125 L 92.519531 24.527344 L 75.960938 31.097656 Z M 71.910156 31.457031 L 71.011719 32.175781 L 71.191406 32.355469 L 71.011719 32.445313 C 71.011719 32.445313 50.761719 49.097656 49.140625 50.445313 C 50.039063 50.175781 50.941406 49.90625 52.019531 49.546875 C 59.820313 47.027344 67.789063 45.074219 75.871094 43.695313 C 80.191406 42.976563 84.511719 42.4375 88.828125 42.078125 C 92.878906 41.625 97.019531 41.445313 101.070313 41.355469 C 101.339844 41.355469 127.621094 40.007813 158.941406 52.15625 C 160.46875 52.695313 162.089844 53.328125 163.621094 53.957031 L 137.789063 31.996094 L 137.96875 31.726563 L 137.070313 31.007813 L 136.980469 30.917969 L 105.210938 3.917969 L 71.910156 31.277344 Z M 71.910156 31.457031 "/>
<path style=" stroke:none;fill-rule:nonzero;fill:rgb(100%,100%,100%);fill-opacity:1;" d="M 94.410156 30.917969 L 100.710938 25.695313 L 103.320313 31.636719 L 105.839844 37.488281 L 108 31.546875 L 109.980469 26.144531 L 115.46875 31.546875 L 117.269531 33.257813 L 117.269531 25.15625 L 132.210938 31.367188 L 135.71875 32.804688 L 133.921875 31.367188 L 105.300781 7.15625 L 75.960938 31.097656 L 92.519531 24.527344 Z M 94.410156 30.917969 "/>
</g>
</svg>
