<?xml version="1.0" encoding="UTF-8"?>
<svg xmlns="http://www.w3.org/2000/svg" xmlns:xlink="http://www.w3.org/1999/xlink" width="185pt" height="186pt" viewBox="0 0 185 186" version="1.1">
<g id="surface1">
<path style=" stroke:none;fill-rule:nonzero;fill:rgb(70.117188%,69.726563%,69.334412%);fill-opacity:1;" d="M 184.859375 92.59375 C 184.847656 129.972656 162.324219 163.667969 127.789063 177.96875 C 93.253906 192.269531 53.503906 184.359375 27.070313 157.925781 C 0.640625 131.496094 -7.269531 91.746094 7.03125 57.210938 C 21.332031 22.675781 55.023438 0.152344 92.402344 0.140625 C 143.464844 0.140625 184.859375 41.535156 184.859375 92.59375 Z M 184.859375 92.59375 "/>
<path style=" stroke:none;fill-rule:nonzero;fill:rgb(0%,23.925781%,65.039063%);fill-opacity:1;" d="M 182.230469 92.59375 C 182.222656 128.910156 160.335938 161.648438 126.78125 175.539063 C 93.230469 189.433594 54.609375 181.75 28.929688 156.070313 C 3.25 130.390625 -4.433594 91.769531 9.457031 58.214844 C 23.351563 24.660156 56.085938 2.777344 92.402344 2.769531 C 116.230469 2.765625 139.078125 12.226563 155.925781 29.074219 C 172.773438 45.921875 182.234375 68.769531 182.230469 92.59375 Z M 182.230469 92.59375 "/>
<path style=" stroke:none;fill-rule:nonzero;fill:rgb(86.71875%,0%,19.213867%);fill-opacity:1;" d="M 168.945313 92.59375 C 168.945313 123.574219 150.285156 151.5 121.664063 163.355469 C 93.042969 175.210938 60.101563 168.65625 38.195313 146.753906 C 16.289063 124.847656 9.738281 91.90625 21.59375 63.285156 C 33.449219 34.664063 61.375 16.003906 92.351563 16.003906 C 134.648438 16.015625 168.933594 50.300781 168.945313 92.59375 Z M 168.945313 92.59375 "/>
<path style=" stroke:none;fill-rule:nonzero;fill:rgb(100%,100%,100%);fill-opacity:1;" d="M 92.402344 164.789063 C 62.644531 164.769531 35.949219 146.496094 25.160156 118.765625 C 37.992188 136.296875 63.304688 148.320313 92.402344 148.320313 C 121.554688 148.320313 146.816406 136.347656 159.699219 118.765625 C 148.847656 146.46875 122.160156 164.722656 92.402344 164.789063 Z M 92.402344 20.449219 C 122.171875 20.46875 148.886719 38.738281 159.699219 66.476563 C 146.816406 48.945313 121.554688 36.921875 92.402344 36.921875 C 63.304688 36.921875 37.992188 48.84375 25.160156 66.476563 C 35.9375 38.734375 62.640625 20.453125 92.402344 20.449219 Z M 20.257813 94.816406 L 34.355469 94.816406 L 34.355469 90.320313 L 20.257813 90.320313 C 20.308594 88.652344 20.410156 86.9375 20.5625 85.269531 C 25.613281 60.058594 55.828125 40.710938 92.402344 40.710938 C 128.929688 40.710938 159.242188 60.160156 164.246094 85.269531 C 164.449219 86.9375 164.496094 88.65625 164.546875 90.320313 L 150.402344 90.320313 L 150.402344 94.816406 L 164.5 94.816406 C 164.449219 96.535156 164.398438 98.203125 164.195313 99.921875 C 159.191406 125.03125 128.878906 144.429688 92.351563 144.429688 C 55.828125 144.429688 25.511719 125.03125 20.511719 99.921875 C 20.410156 98.203125 20.308594 96.535156 20.257813 94.816406 Z M 92.402344 16.003906 C 61.425781 16.003906 33.5 34.664063 21.644531 63.285156 C 9.789063 91.90625 16.339844 124.847656 38.246094 146.753906 C 60.152344 168.65625 93.09375 175.210938 121.714844 163.355469 C 150.332031 151.5 168.996094 123.574219 168.996094 92.59375 C 168.929688 50.320313 134.675781 16.066406 92.402344 16.003906 Z M 92.402344 16.003906 "/>
<path style=" stroke:none;fill-rule:nonzero;fill:rgb(100%,100%,100%);fill-opacity:1;" d="M 60.019531 118.867188 L 65.425781 118.867188 L 65.425781 94.566406 L 60.019531 94.566406 Z M 60.019531 118.867188 "/>
<path style=" stroke:none;fill-rule:nonzero;fill:rgb(100%,100%,100%);fill-opacity:1;" d="M 80.785156 94.566406 L 80.582031 94.566406 C 79.066406 94.566406 73.507813 94.515625 72.449219 94.566406 L 72.195313 94.566406 C 70.578125 94.566406 69.519531 95.324219 69.265625 96.789063 C 69.210938 96.898438 69.179688 97.019531 69.164063 97.140625 C 69.164063 97.191406 68.808594 101.789063 69.265625 103.054688 C 69.972656 105.125 71.691406 105.933594 73.207031 106.335938 C 73.257813 106.335938 73.308594 106.4375 73.355469 106.4375 C 73.480469 106.449219 73.601563 106.480469 73.710938 106.539063 C 73.84375 106.597656 73.964844 106.683594 74.066406 106.792969 L 74.066406 115.582031 L 69.617188 115.582031 L 69.617188 118.816406 L 75.53125 118.816406 C 77.550781 118.765625 78.964844 117.804688 79.46875 116.339844 C 79.570313 115.128906 79.621094 106.992188 79.519531 105.277344 C 79.476563 104.613281 79.121094 104.011719 78.5625 103.660156 C 78.289063 103.449219 78.003906 103.265625 77.703125 103.101563 C 77.398438 102.902344 76.996094 102.800781 76.691406 102.597656 C 75.429688 101.992188 74.015625 101.285156 74.015625 99.667969 L 74.015625 98.304688 L 78.257813 98.304688 C 79.117188 98.296875 79.898438 97.808594 80.277344 97.039063 C 80.464844 96.636719 80.597656 96.214844 80.683594 95.777344 C 80.734375 95.441406 80.734375 95.101563 80.683594 94.765625 Z M 80.785156 94.566406 "/>
<path style=" stroke:none;fill-rule:nonzero;fill:rgb(100%,100%,100%);fill-opacity:1;" d="M 103.769531 100.070313 C 103.757813 99.578125 103.808594 99.085938 103.921875 98.605469 L 104.074219 98.507813 C 104.324219 98.464844 104.578125 98.445313 104.832031 98.457031 L 104.933594 98.457031 C 106.753906 98.457031 106.800781 99.011719 106.800781 102.34375 L 106.800781 113.359375 C 106.796875 113.632813 106.761719 113.902344 106.703125 114.167969 L 106.550781 114.320313 C 106.25 114.359375 105.945313 114.378906 105.640625 114.371094 C 105.109375 114.449219 104.570313 114.28125 104.175781 113.914063 C 103.769531 113.511719 103.769531 112.753906 103.769531 111.894531 Z M 105.589844 94.566406 C 104.402344 94.546875 103.214844 94.667969 102.054688 94.917969 C 99.425781 95.523438 98.113281 97.292969 98.113281 100.324219 L 98.113281 114.824219 C 98.113281 118.511719 100.738281 119.269531 104.730469 119.269531 C 109.582031 119.269531 112.308594 117.550781 112.308594 114.570313 L 112.308594 99.464844 C 112.308594 94.566406 109.175781 94.566406 105.589844 94.566406 Z M 105.589844 94.566406 "/>
<path style=" stroke:none;fill-rule:nonzero;fill:rgb(100%,100%,100%);fill-opacity:1;" d="M 124.839844 104.921875 C 122.3125 95.523438 118.070313 94.515625 116.402344 94.515625 C 116.148438 94.515625 115.894531 94.53125 115.644531 94.566406 L 115.542969 94.667969 L 115.542969 118.96875 L 121.050781 118.96875 L 121.050781 109.167969 L 124.839844 118.96875 L 130.445313 118.96875 L 130.445313 94.667969 L 124.839844 94.667969 Z M 124.839844 104.921875 "/>
<path style=" stroke:none;fill-rule:nonzero;fill:rgb(100%,100%,100%);fill-opacity:1;" d="M 51.28125 105.425781 L 48.199219 105.425781 L 48.199219 98.355469 C 48.199219 98.355469 49.8125 98.304688 50.066406 98.355469 C 50.722656 98.40625 51.230469 98.65625 51.230469 99.414063 C 51.28125 99.617188 51.28125 105.425781 51.28125 105.425781 Z M 53.453125 94.566406 L 39.609375 94.566406 L 39.609375 94.765625 C 39.621094 96.554688 40.925781 98.070313 42.691406 98.355469 L 42.691406 118.96875 L 48.347656 118.96875 L 48.347656 108.609375 L 53.046875 108.609375 C 55.523438 108.609375 56.988281 106.992188 56.988281 104.113281 L 56.988281 103.203125 C 56.886719 96.332031 56.632813 94.96875 53.453125 94.566406 Z M 53.453125 94.566406 "/>
<path style=" stroke:none;fill-rule:nonzero;fill:rgb(100%,100%,100%);fill-opacity:1;" d="M 96.445313 94.667969 L 83.765625 94.667969 L 83.765625 98.457031 L 87.402344 98.457031 L 87.402344 119.019531 L 92.960938 119.019531 L 92.960938 98.457031 L 93.160156 98.457031 C 94.035156 98.5 94.894531 98.191406 95.535156 97.597656 C 96.179688 96.816406 96.523438 95.828125 96.496094 94.816406 Z M 96.445313 94.667969 "/>
<path style=" stroke:none;fill-rule:nonzero;fill:rgb(100%,100%,100%);fill-opacity:1;" d="M 145.199219 94.566406 L 144.996094 94.566406 C 143.53125 94.566406 137.921875 94.515625 136.863281 94.566406 L 136.609375 94.566406 C 134.992188 94.566406 133.933594 95.324219 133.679688 96.789063 C 133.652344 96.90625 133.636719 97.023438 133.628906 97.140625 C 133.628906 97.191406 133.226563 101.789063 133.679688 103.054688 C 134.335938 104.753906 135.828125 105.996094 137.621094 106.335938 C 137.671875 106.335938 137.773438 106.4375 137.824219 106.4375 C 137.929688 106.449219 138.035156 106.484375 138.125 106.539063 C 138.328125 106.589844 138.429688 106.742188 138.53125 106.792969 L 138.53125 115.582031 L 134.085938 115.582031 L 134.085938 118.816406 L 139.945313 118.816406 C 142.015625 118.765625 143.378906 117.804688 143.886719 116.339844 C 144.035156 115.128906 144.085938 106.992188 143.9375 105.277344 C 143.890625 104.628906 143.558594 104.03125 143.027344 103.660156 C 142.746094 103.441406 142.441406 103.253906 142.117188 103.101563 C 141.8125 102.902344 141.460938 102.800781 141.15625 102.597656 C 139.894531 101.992188 138.429688 101.285156 138.429688 99.667969 L 138.429688 98.304688 L 142.722656 98.304688 C 143.570313 98.308594 144.34375 97.816406 144.695313 97.039063 C 144.878906 96.632813 145.03125 96.210938 145.148438 95.777344 C 145.175781 95.441406 145.175781 95.105469 145.148438 94.765625 Z M 145.199219 94.566406 "/>
<path style=" stroke:none;fill-rule:nonzero;fill:rgb(100%,100%,100%);fill-opacity:1;" d="M 95.484375 69.660156 L 96.546875 69.660156 C 98.011719 69.660156 98.464844 69.660156 98.414063 72.183594 C 98.414063 74.15625 98.414063 74.304688 98.367188 75.214844 L 98.367188 75.417969 C 98.375 75.714844 98.265625 76.007813 98.0625 76.226563 C 97.953125 76.363281 97.78125 76.4375 97.609375 76.429688 L 95.433594 76.429688 L 95.433594 69.660156 Z M 95.484375 79.558594 L 96.445313 79.558594 C 97.304688 79.558594 98.871094 79.863281 98.871094 81.480469 C 98.871094 82.238281 98.921875 84.714844 98.972656 85.625 L 98.972656 86.027344 C 98.972656 86.128906 99.074219 87.339844 99.125 87.59375 C 99.476563 89.007813 100.640625 89.816406 102.304688 90.019531 L 103.871094 90.019531 L 103.871094 81.378906 C 103.828125 80.449219 103.472656 79.558594 102.863281 78.851563 L 102.761719 78.753906 C 103.585938 77.804688 104.003906 76.570313 103.921875 75.316406 L 103.921875 74.40625 C 103.921875 67.738281 103.671875 66.324219 100.539063 66.019531 L 90.03125 66.019531 L 90.03125 89.765625 L 95.433594 89.765625 L 95.433594 79.558594 Z M 95.484375 79.558594 "/>
<path style=" stroke:none;fill-rule:nonzero;fill:rgb(100%,100%,100%);fill-opacity:1;" d="M 123.777344 89.613281 L 129.03125 89.613281 L 129.03125 65.917969 L 123.777344 65.917969 Z M 123.777344 89.613281 "/>
<path style=" stroke:none;fill-rule:nonzero;fill:rgb(100%,100%,100%);fill-opacity:1;" d="M 78.410156 89.714844 L 83.816406 89.714844 L 83.816406 69.660156 L 84.015625 69.660156 C 84.878906 69.703125 85.71875 69.394531 86.339844 68.800781 C 86.988281 68.039063 87.332031 67.066406 87.300781 66.070313 L 87.300781 65.917969 L 74.871094 65.917969 L 74.871094 69.660156 L 78.410156 69.660156 Z M 78.410156 89.714844 "/>
<path style=" stroke:none;fill-rule:nonzero;fill:rgb(100%,100%,100%);fill-opacity:1;" d="M 135.398438 89.714844 L 140.804688 89.714844 L 140.804688 69.660156 L 141.003906 69.660156 C 141.867188 69.703125 142.707031 69.394531 143.328125 68.800781 C 143.976563 68.039063 144.320313 67.066406 144.289063 66.070313 L 144.289063 65.917969 L 131.859375 65.917969 L 131.859375 69.660156 L 135.398438 69.660156 Z M 135.398438 89.714844 "/>
<path style=" stroke:none;fill-rule:nonzero;fill:rgb(100%,100%,100%);fill-opacity:1;" d="M 71.992188 85.875 L 66.285156 85.875 L 66.285156 80.066406 L 70.175781 80.066406 L 70.175781 74.914063 L 66.285156 74.914063 L 66.285156 69.609375 L 71.992188 69.609375 L 71.992188 65.917969 L 61.03125 65.917969 L 60.980469 89.613281 L 71.992188 89.613281 Z M 71.992188 85.875 "/>
<path style=" stroke:none;fill-rule:nonzero;fill:rgb(100%,100%,100%);fill-opacity:1;" d="M 52.289063 85.875 L 49.257813 85.875 L 49.257813 69.660156 C 51.128906 69.609375 51.53125 69.707031 51.582031 69.808594 C 52.289063 70.011719 52.289063 71.324219 52.289063 71.425781 C 52.390625 73.246094 52.289063 84.359375 52.289063 85.875 Z M 54.160156 65.917969 L 40.621094 65.917969 L 40.621094 66.019531 C 40.511719 66.890625 40.769531 67.769531 41.328125 68.445313 C 41.960938 69.152344 42.851563 69.574219 43.800781 69.609375 L 43.800781 89.5625 L 53.90625 89.5625 C 56.230469 89.5625 57.746094 87.644531 57.746094 84.714844 L 57.746094 73.648438 C 57.746094 67.636719 57.746094 66.019531 54.160156 65.917969 Z M 54.160156 65.917969 "/>
<path style=" stroke:none;fill-rule:nonzero;fill:rgb(100%,100%,100%);fill-opacity:1;" d="M 112.410156 71.273438 C 112.398438 70.78125 112.449219 70.289063 112.5625 69.808594 L 112.714844 69.707031 C 112.964844 69.667969 113.21875 69.648438 113.472656 69.660156 L 113.574219 69.660156 C 115.390625 69.660156 115.441406 70.214844 115.441406 73.496094 L 115.441406 84.308594 C 115.4375 84.582031 115.402344 84.851563 115.339844 85.117188 L 115.1875 85.167969 C 114.894531 85.25 114.585938 85.285156 114.28125 85.269531 C 113.75 85.316406 113.226563 85.152344 112.816406 84.816406 C 112.453125 84.207031 112.3125 83.492188 112.410156 82.792969 Z M 114.128906 65.917969 C 112.957031 65.890625 111.789063 65.992188 110.640625 66.222656 C 108.015625 66.828125 106.75 68.597656 106.75 71.527344 L 106.75 85.671875 C 106.75 89.3125 109.378906 90.070313 113.320313 90.070313 C 118.070313 90.070313 120.847656 88.402344 120.847656 85.523438 L 120.847656 70.71875 C 120.898438 65.917969 117.765625 65.917969 114.128906 65.917969 Z M 114.128906 65.917969 "/>
</g>
</svg>
