<?xml version="1.0" encoding="UTF-8"?>
<svg xmlns="http://www.w3.org/2000/svg" xmlns:xlink="http://www.w3.org/1999/xlink" width="90pt" height="112pt" viewBox="0 0 90 112" version="1.1">
<g id="surface1">
<path style=" stroke:none;fill-rule:nonzero;fill:rgb(0%,41.967773%,71.289063%);fill-opacity:1;" d="M 40.527344 0.734375 L 40.527344 0.964844 C 40.683594 0.960938 40.765625 1.039063 40.765625 1.1875 L 40.765625 6.867188 C 40.761719 7.015625 40.683594 7.089844 40.527344 7.089844 L 40.523438 7.3125 L 42.375 7.3125 L 42.378906 7.09375 C 42.183594 7.089844 42.089844 7.019531 42.089844 6.863281 L 42.089844 2.710938 L 45.90625 6.691406 L 46.101563 6.980469 L 45.945313 7.09375 L 45.945313 7.3125 L 47.96875 7.3125 L 47.96875 7.09375 C 47.804688 7.09375 47.730469 7.019531 47.726563 6.867188 L 47.730469 1.1875 C 47.730469 1.039063 47.804688 0.964844 47.96875 0.964844 L 47.96875 0.738281 L 46.078125 0.738281 L 46.078125 0.964844 C 46.296875 0.964844 46.40625 1.039063 46.40625 1.1875 L 46.40625 5.164063 L 42.816406 1.4375 C 42.648438 1.273438 42.566406 1.15625 42.566406 1.089844 L 42.664063 0.960938 L 42.664063 0.738281 Z M 37.238281 0.792969 L 37.019531 0.835938 L 36.957031 1.074219 C 36.898438 1.144531 36.78125 1.1875 36.609375 1.21875 L 31.011719 2.316406 L 31.058594 2.535156 L 31.21875 2.5625 L 31.320313 2.714844 L 32.410156 8.285156 L 32.375 8.464844 L 32.226563 8.546875 L 32.273438 8.769531 L 37.992188 7.65625 L 38.300781 7.625 L 38.457031 7.808594 L 38.675781 7.765625 L 38.34375 6.082031 L 38.128906 6.121094 L 38.054688 6.378906 L 37.769531 6.523438 L 33.671875 7.324219 L 33.34375 5.632813 L 35.746094 5.160156 C 35.910156 5.132813 36.042969 5.132813 36.140625 5.167969 C 36.246094 5.203125 36.3125 5.316406 36.347656 5.503906 L 36.570313 5.457031 L 36.195313 3.542969 L 35.976563 3.589844 C 36.011719 3.773438 35.988281 3.90625 35.910156 3.964844 C 35.828125 4.03125 35.707031 4.070313 35.542969 4.101563 L 33.136719 4.578125 L 32.839844 3.054688 L 36.816406 2.28125 C 36.988281 2.246094 37.113281 2.246094 37.191406 2.273438 L 37.335938 2.457031 L 37.554688 2.410156 Z M 57.234375 2.414063 C 56.832031 2.429688 56.484375 2.496094 56.191406 2.609375 C 55.898438 2.726563 55.660156 2.890625 55.476563 3.101563 C 55.292969 3.308594 55.167969 3.539063 55.097656 3.785156 C 54.996094 4.152344 54.980469 4.476563 55.058594 4.746094 C 55.132813 5.011719 55.269531 5.242188 55.457031 5.4375 C 55.652344 5.636719 55.890625 5.804688 56.164063 5.941406 C 56.441406 6.082031 56.730469 6.203125 57.03125 6.3125 C 57.324219 6.421875 57.617188 6.519531 57.910156 6.617188 C 58.199219 6.707031 58.457031 6.8125 58.671875 6.914063 C 58.890625 7.019531 59.054688 7.132813 59.171875 7.257813 C 59.285156 7.386719 59.320313 7.542969 59.265625 7.726563 C 59.21875 7.914063 59.097656 8.042969 58.914063 8.109375 C 58.730469 8.179688 58.527344 8.214844 58.300781 8.222656 C 58.074219 8.230469 57.851563 8.214844 57.625 8.171875 C 57.40625 8.132813 57.226563 8.089844 57.089844 8.054688 C 56.90625 8 56.699219 7.921875 56.480469 7.8125 C 56.257813 7.703125 56.054688 7.585938 55.859375 7.449219 C 55.667969 7.324219 55.5 7.1875 55.363281 7.046875 L 55.113281 6.675781 L 55.117188 6.460938 L 55.011719 6.375 L 53.945313 7.648438 L 54.085938 7.789063 L 54.269531 7.738281 L 54.558594 7.914063 C 54.660156 8.007813 54.804688 8.117188 54.988281 8.25 C 55.175781 8.386719 55.414063 8.523438 55.707031 8.664063 C 56.003906 8.800781 56.375 8.933594 56.835938 9.058594 C 57.164063 9.152344 57.527344 9.226563 57.921875 9.28125 C 58.320313 9.335938 58.703125 9.332031 59.074219 9.269531 C 59.449219 9.207031 59.78125 9.082031 60.074219 8.875 C 60.371094 8.671875 60.574219 8.359375 60.691406 7.945313 C 60.792969 7.582031 60.800781 7.265625 60.722656 7.003906 C 60.648438 6.738281 60.511719 6.511719 60.320313 6.3125 C 60.132813 6.117188 59.894531 5.945313 59.617188 5.804688 C 59.339844 5.664063 59.050781 5.539063 58.753906 5.425781 C 58.457031 5.320313 58.164063 5.21875 57.875 5.121094 C 57.585938 5.023438 57.335938 4.914063 57.121094 4.804688 C 56.90625 4.6875 56.742188 4.574219 56.625 4.429688 C 56.511719 4.296875 56.484375 4.136719 56.535156 3.941406 L 56.78125 3.640625 C 56.90625 3.578125 57.054688 3.535156 57.222656 3.523438 C 57.390625 3.507813 57.574219 3.511719 57.769531 3.539063 C 57.96875 3.5625 58.15625 3.601563 58.328125 3.648438 C 58.566406 3.714844 58.789063 3.800781 59.011719 3.910156 C 59.234375 4.019531 59.429688 4.136719 59.613281 4.269531 C 59.792969 4.394531 59.941406 4.527344 60.066406 4.660156 L 60.304688 5.03125 L 60.324219 5.328125 L 60.433594 5.417969 L 61.683594 4.140625 L 61.566406 4.007813 L 61.308594 4.011719 L 60.941406 3.804688 C 60.800781 3.699219 60.628906 3.578125 60.421875 3.441406 C 60.210938 3.300781 59.960938 3.160156 59.664063 3.007813 C 59.367188 2.855469 59.007813 2.71875 58.582031 2.597656 C 58.082031 2.460938 57.636719 2.40625 57.234375 2.414063 Z M 26.34375 4.011719 C 25.925781 4.035156 25.503906 4.136719 25.074219 4.304688 L 21.21875 5.832031 L 21.304688 6.042969 C 21.480469 5.972656 21.601563 6.007813 21.65625 6.144531 L 23.753906 11.425781 C 23.804688 11.566406 23.75 11.667969 23.566406 11.738281 L 23.652344 11.949219 L 27.511719 10.414063 C 27.933594 10.242188 28.308594 10.027344 28.625 9.753906 C 28.945313 9.484375 29.1875 9.171875 29.359375 8.8125 C 29.53125 8.453125 29.617188 8.046875 29.621094 7.605469 C 29.625 7.160156 29.519531 6.679688 29.316406 6.160156 C 29.109375 5.636719 28.851563 5.21875 28.546875 4.890625 C 28.238281 4.574219 27.898438 4.34375 27.527344 4.199219 C 27.15625 4.054688 26.761719 3.996094 26.34375 4.011719 Z M 64.394531 4.207031 L 63.644531 5.792969 L 63.847656 5.890625 L 64.039063 5.71875 L 64.269531 5.757813 L 66.132813 6.644531 L 64 11.140625 L 63.867188 11.261719 L 63.699219 11.246094 L 63.605469 11.445313 L 65.34375 12.273438 L 65.441406 12.070313 C 65.273438 11.996094 65.226563 11.886719 65.289063 11.746094 L 67.421875 7.25 L 69.285156 8.136719 L 69.453125 8.285156 L 69.453125 8.542969 L 69.652344 8.640625 L 70.402344 7.058594 L 70.199219 6.960938 L 70 7.132813 L 69.777344 7.097656 L 64.757813 4.714844 L 64.585938 4.566406 L 64.59375 4.304688 L 64.390625 4.207031 Z M 26.425781 5.183594 C 26.558594 5.191406 26.683594 5.21875 26.804688 5.261719 C 27.046875 5.351563 27.261719 5.515625 27.457031 5.738281 C 27.652344 5.96875 27.824219 6.28125 27.988281 6.683594 C 28.148438 7.089844 28.238281 7.4375 28.253906 7.738281 C 28.269531 8.035156 28.21875 8.300781 28.101563 8.53125 C 27.988281 8.757813 27.808594 8.957031 27.5625 9.128906 C 27.3125 9.296875 27.011719 9.457031 26.644531 9.597656 L 24.84375 10.320313 L 23.207031 6.199219 L 25.011719 5.488281 C 25.375 5.34375 25.707031 5.246094 26 5.203125 C 26.148438 5.179688 26.289063 5.171875 26.425781 5.183594 Z M 73.253906 9.210938 L 73.125 9.398438 L 73.238281 9.566406 L 73.214844 9.761719 L 73.027344 9.917969 L 72.726563 10.085938 L 68.085938 12.816406 L 67.765625 12.976563 L 67.457031 12.96875 L 67.335938 13.152344 L 68.804688 14.148438 L 68.929688 13.960938 L 68.8125 13.707031 C 68.851563 13.648438 68.957031 13.574219 69.125 13.472656 L 69.992188 12.992188 L 72.523438 14.695313 L 72.398438 15.730469 C 72.382813 15.875 72.34375 15.984375 72.296875 16.054688 L 72.171875 16.105469 L 72.050781 16.066406 L 71.925781 16.25 L 73.746094 17.480469 L 73.875 17.300781 L 73.742188 17.058594 L 73.714844 16.800781 L 74.40625 11.125 L 74.441406 10.832031 L 74.519531 10.640625 L 74.691406 10.539063 L 74.878906 10.582031 L 75 10.398438 L 73.25 9.210938 Z M 15.347656 9.234375 L 13.519531 10.367188 L 13.640625 10.5625 C 13.851563 10.425781 14 10.421875 14.074219 10.554688 L 17.070313 15.378906 C 17.148438 15.503906 17.082031 15.636719 16.867188 15.769531 L 16.984375 15.960938 L 22.046875 12.820313 L 22.320313 12.679688 L 22.53125 12.800781 L 22.722656 12.679688 L 21.824219 11.226563 L 21.628906 11.34375 L 21.652344 11.613281 L 21.441406 11.84375 L 17.910156 14.035156 L 15.289063 9.800781 C 15.210938 9.675781 15.269531 9.554688 15.46875 9.429688 L 15.347656 9.238281 Z M 44.082031 9.304688 C 19.875 9.304688 0.253906 28.9375 0.253906 53.144531 C 0.253906 77.34375 19.871094 96.964844 44.082031 96.964844 C 68.292969 96.964844 87.910156 77.34375 87.910156 53.144531 C 87.910156 28.9375 68.292969 9.304688 44.082031 9.304688 Z M 73.097656 11.164063 L 72.667969 13.675781 L 70.820313 12.433594 Z M 78.320313 12.402344 L 77.132813 13.691406 L 77.300781 13.84375 L 77.539063 13.738281 L 77.742188 13.84375 L 79.261719 15.242188 L 75.886719 18.902344 L 75.71875 18.976563 L 75.570313 18.914063 L 75.417969 19.082031 L 76.832031 20.390625 L 76.984375 20.21875 L 76.9375 19.867188 L 80.308594 16.210938 L 81.824219 17.605469 L 81.945313 17.804688 L 81.859375 18.046875 L 82.027344 18.203125 L 83.210938 16.914063 L 83.046875 16.757813 L 82.804688 16.863281 L 82.605469 16.757813 L 78.519531 12.996094 L 78.402344 12.804688 L 78.488281 12.558594 Z M 11.398438 13.46875 C 11.164063 13.449219 10.925781 13.453125 10.691406 13.484375 C 10.214844 13.542969 9.753906 13.6875 9.3125 13.898438 C 8.863281 14.117188 8.472656 14.382813 8.136719 14.695313 C 7.796875 15 7.496094 15.367188 7.238281 15.789063 C 6.980469 16.214844 6.800781 16.652344 6.695313 17.121094 C 6.59375 17.585938 6.589844 18.0625 6.6875 18.542969 C 6.785156 19.019531 7.027344 19.472656 7.417969 19.902344 C 7.800781 20.324219 8.234375 20.613281 8.699219 20.753906 C 9.167969 20.898438 9.640625 20.933594 10.117188 20.871094 C 10.59375 20.8125 11.046875 20.671875 11.480469 20.441406 C 11.917969 20.214844 12.304688 19.945313 12.644531 19.632813 C 12.984375 19.328125 13.285156 18.96875 13.550781 18.554688 C 13.820313 18.140625 14.003906 17.699219 14.109375 17.234375 C 14.214844 16.765625 14.214844 16.292969 14.117188 15.816406 C 14.019531 15.335938 13.773438 14.882813 13.386719 14.457031 C 13.003906 14.03125 12.570313 13.746094 12.105469 13.605469 C 11.871094 13.535156 11.632813 13.488281 11.398438 13.46875 Z M 11.105469 14.753906 C 11.261719 14.769531 11.414063 14.800781 11.566406 14.847656 C 11.867188 14.945313 12.132813 15.125 12.371094 15.386719 C 12.605469 15.644531 12.757813 15.929688 12.828125 16.238281 C 12.894531 16.546875 12.898438 16.859375 12.839844 17.164063 C 12.777344 17.476563 12.660156 17.773438 12.496094 18.0625 C 12.328125 18.351563 12.125 18.601563 11.890625 18.8125 C 11.660156 19.027344 11.394531 19.207031 11.089844 19.34375 C 10.789063 19.484375 10.480469 19.566406 10.167969 19.605469 C 9.855469 19.632813 9.546875 19.605469 9.242188 19.511719 C 8.941406 19.410156 8.667969 19.234375 8.433594 18.976563 C 8.195313 18.710938 8.046875 18.425781 7.976563 18.121094 C 7.910156 17.8125 7.90625 17.5 7.964844 17.1875 C 8.027344 16.878906 8.140625 16.582031 8.308594 16.292969 C 8.476563 16.007813 8.675781 15.753906 8.910156 15.542969 C 9.144531 15.328125 9.410156 15.152344 9.714844 15.015625 C 10.015625 14.871094 10.324219 14.789063 10.636719 14.753906 C 10.792969 14.738281 10.949219 14.738281 11.105469 14.753906 Z M 84.832031 19.160156 L 84.65625 19.296875 L 84.707031 19.449219 L 84.617188 19.609375 L 80.117188 23.074219 L 79.941406 23.121094 L 79.804688 23.035156 L 79.621094 23.171875 L 83.179688 27.789063 L 83.34375 28.046875 L 83.25 28.273438 L 83.386719 28.453125 L 84.746094 27.40625 L 84.609375 27.226563 L 84.347656 27.273438 L 84.089844 27.089844 L 81.542969 23.777344 L 82.910156 22.730469 L 84.402344 24.667969 L 84.578125 25.019531 C 84.589844 25.125 84.523438 25.238281 84.371094 25.359375 L 84.503906 25.535156 L 86.054688 24.34375 L 85.914063 24.164063 C 85.765625 24.285156 85.640625 24.320313 85.550781 24.273438 L 85.257813 24.011719 L 83.761719 22.070313 L 84.988281 21.125 L 87.460938 24.335938 L 87.636719 24.667969 L 87.535156 24.878906 L 87.671875 25.058594 L 88.980469 24.050781 L 88.839844 23.871094 L 88.601563 23.917969 L 88.3125 23.679688 Z M 3.296875 20.261719 L 3.136719 20.328125 L 3.132813 20.484375 L 3.070313 20.652344 L 2.816406 20.863281 C 2.671875 20.96875 2.496094 21.105469 2.292969 21.277344 C 2.089844 21.445313 1.867188 21.65625 1.632813 21.898438 C 1.398438 22.136719 1.171875 22.398438 0.953125 22.695313 C 0.609375 23.171875 0.355469 23.644531 0.195313 24.121094 C 0.0351563 24.601563 -0.0234375 25.066406 0.0078125 25.511719 C 0.0429688 25.957031 0.171875 26.378906 0.394531 26.777344 C 0.617188 27.171875 0.9375 27.527344 1.363281 27.832031 C 1.789063 28.144531 2.21875 28.34375 2.664063 28.4375 C 3.105469 28.53125 3.542969 28.519531 3.980469 28.417969 C 4.410156 28.308594 4.832031 28.109375 5.234375 27.8125 C 5.632813 27.507813 6.007813 27.125 6.351563 26.648438 C 6.527344 26.410156 6.699219 26.152344 6.871094 25.894531 C 7.042969 25.632813 7.191406 25.351563 7.320313 25.058594 C 7.445313 24.765625 7.550781 24.460938 7.628906 24.140625 C 7.707031 23.820313 7.753906 23.492188 7.761719 23.160156 L 7.601563 23.035156 L 7.425781 23.128906 L 7.25 23.09375 L 6.109375 22.261719 L 5.972656 22.085938 C 5.972656 22.03125 6.011719 21.929688 6.089844 21.78125 L 5.90625 21.644531 L 4.058594 24.167969 L 3.863281 24.347656 L 3.578125 24.277344 L 3.441406 24.460938 L 4.730469 25.40625 L 4.867188 25.226563 L 4.671875 24.941406 L 4.769531 24.6875 L 5.710938 23.394531 L 6.582031 24.027344 C 6.496094 24.300781 6.375 24.605469 6.214844 24.960938 C 6.054688 25.316406 5.835938 25.683594 5.550781 26.066406 C 5.371094 26.316406 5.152344 26.535156 4.902344 26.730469 C 4.652344 26.925781 4.386719 27.066406 4.097656 27.148438 C 3.808594 27.226563 3.503906 27.242188 3.175781 27.183594 C 2.851563 27.128906 2.523438 26.976563 2.191406 26.738281 C 1.859375 26.496094 1.613281 26.222656 1.46875 25.9375 C 1.316406 25.648438 1.238281 25.347656 1.230469 25.046875 C 1.222656 24.75 1.273438 24.449219 1.382813 24.15625 C 1.492188 23.855469 1.636719 23.582031 1.820313 23.332031 C 1.96875 23.128906 2.140625 22.925781 2.328125 22.722656 C 2.523438 22.519531 2.71875 22.339844 2.914063 22.1875 C 3.109375 22.039063 3.296875 21.933594 3.46875 21.871094 C 3.640625 21.804688 3.777344 21.804688 3.875 21.882813 L 3.984375 21.992188 L 4.191406 21.828125 Z M 83.628906 79.167969 L 83.554688 79.203125 L 83.308594 79.300781 C 83.261719 79.574219 83.234375 79.6875 83.179688 79.746094 C 83.167969 79.773438 82.988281 79.890625 82.710938 80.050781 C 81.832031 80.519531 81.160156 80.933594 80.65625 81.320313 C 80.160156 81.699219 79.691406 82.167969 79.253906 82.71875 C 78.277344 83.914063 77.785156 85.058594 77.785156 86.15625 L 77.800781 86.445313 C 77.867188 87.339844 78.28125 88.097656 79.019531 88.691406 C 79.460938 89.050781 79.941406 89.269531 80.453125 89.355469 C 80.605469 89.375 80.753906 89.390625 80.914063 89.390625 C 81.3125 89.390625 81.695313 89.3125 82.0625 89.136719 C 82.417969 88.980469 82.738281 88.785156 83.019531 88.5625 C 83.292969 88.339844 83.726563 87.941406 84.308594 87.347656 L 85.195313 86.46875 C 85.777344 85.886719 86.203125 85.523438 86.445313 85.386719 C 86.605469 85.289063 86.757813 85.253906 86.894531 85.253906 L 87.316406 85.417969 C 87.480469 85.554688 87.605469 85.738281 87.671875 85.992188 L 87.714844 86.375 C 87.714844 86.511719 87.699219 86.652344 87.664063 86.808594 C 87.539063 87.328125 87.253906 87.871094 86.820313 88.414063 C 86.410156 88.914063 85.890625 89.371094 85.269531 89.785156 C 84.640625 90.207031 84.113281 90.453125 83.675781 90.523438 L 83.464844 90.546875 C 83.277344 90.546875 83.132813 90.492188 83.007813 90.386719 L 82.925781 90.320313 L 82.597656 90.425781 L 82.519531 90.460938 L 83.929688 93.222656 L 84.25 93.085938 C 84.300781 92.832031 84.324219 92.703125 84.34375 92.6875 C 84.347656 92.6875 84.53125 92.574219 84.820313 92.425781 C 86.253906 91.765625 87.441406 90.863281 88.351563 89.734375 C 88.871094 89.101563 89.273438 88.4375 89.5625 87.769531 C 89.851563 87.09375 90 86.484375 90 85.910156 C 90 85.710938 89.984375 85.515625 89.941406 85.328125 C 89.789063 84.550781 89.410156 83.90625 88.789063 83.410156 C 88.402344 83.097656 87.972656 82.882813 87.496094 82.78125 C 87.269531 82.722656 87.054688 82.703125 86.832031 82.703125 C 86.585938 82.703125 86.347656 82.738281 86.105469 82.796875 C 85.683594 82.925781 85.269531 83.125 84.855469 83.398438 C 84.449219 83.675781 83.976563 84.078125 83.441406 84.609375 L 82.550781 85.507813 C 81.964844 86.113281 81.550781 86.484375 81.335938 86.632813 C 81.125 86.777344 80.929688 86.84375 80.753906 86.84375 C 80.605469 86.84375 80.460938 86.796875 80.320313 86.679688 C 80.152344 86.535156 80.039063 86.347656 80 86.082031 L 79.976563 85.847656 C 79.976563 85.652344 80.019531 85.4375 80.089844 85.222656 C 80.261719 84.8125 80.519531 84.378906 80.871094 83.949219 C 81.664063 82.96875 82.613281 82.320313 83.710938 81.996094 C 83.867188 81.949219 84.011719 81.921875 84.132813 81.921875 L 84.378906 81.988281 L 84.464844 82.078125 L 84.796875 81.988281 L 84.871094 81.957031 Z M 6.035156 81.789063 L 5.804688 82.046875 L 5.761719 82.097656 L 5.800781 82.15625 C 5.945313 82.335938 6.007813 82.515625 6.007813 82.679688 C 6.007813 82.847656 5.9375 83.144531 5.792969 83.542969 L 2.75 91.644531 C 2.605469 92.03125 2.484375 92.269531 2.460938 92.292969 L 2.160156 92.441406 L 1.808594 92.324219 L 1.742188 92.292969 L 1.535156 92.535156 L 1.476563 92.597656 L 4.21875 95.050781 L 4.453125 94.804688 L 4.5 94.753906 L 4.460938 94.699219 C 4.328125 94.496094 4.269531 94.355469 4.269531 94.230469 L 4.351563 94.019531 C 4.386719 93.988281 4.574219 93.871094 4.902344 93.730469 L 10.773438 90.785156 L 8.527344 96.804688 C 8.402344 97.191406 8.296875 97.429688 8.242188 97.476563 L 7.964844 97.621094 C 7.855469 97.621094 7.726563 97.578125 7.578125 97.484375 L 7.515625 97.445313 L 7.304688 97.691406 L 7.25 97.761719 L 10.03125 100.246094 L 10.253906 99.992188 L 10.3125 99.933594 L 10.265625 99.886719 C 10.121094 99.710938 10.070313 99.570313 10.070313 99.460938 L 10.160156 99.246094 C 10.222656 99.171875 10.449219 99.023438 10.816406 98.84375 L 18.523438 94.914063 C 18.929688 94.710938 19.207031 94.605469 19.332031 94.589844 L 19.394531 94.582031 C 19.515625 94.582031 19.683594 94.628906 19.894531 94.738281 L 19.953125 94.757813 L 20.167969 94.527344 L 20.222656 94.460938 L 17.292969 91.839844 L 17.0625 92.09375 L 17.019531 92.148438 L 17.0625 92.210938 C 17.195313 92.386719 17.257813 92.53125 17.257813 92.632813 L 17.1875 92.828125 C 17.105469 92.914063 16.933594 93.03125 16.664063 93.167969 L 11.457031 95.871094 L 13.578125 90.277344 C 13.664063 90.042969 13.734375 89.902344 13.78125 89.851563 L 14.039063 89.734375 C 14.144531 89.734375 14.277344 89.765625 14.429688 89.851563 L 14.480469 89.878906 L 14.695313 89.636719 L 14.757813 89.574219 L 11.660156 86.8125 L 11.4375 87.0625 L 11.386719 87.125 L 11.425781 87.175781 C 11.550781 87.335938 11.601563 87.46875 11.601563 87.566406 L 11.515625 87.78125 C 11.492188 87.824219 11.339844 87.921875 11.105469 88.03125 L 5.675781 90.710938 L 7.839844 85.15625 C 7.929688 84.9375 8.015625 84.785156 8.085938 84.710938 L 8.316406 84.601563 L 8.667969 84.710938 L 8.734375 84.742188 L 8.941406 84.496094 L 8.996094 84.4375 L 6.03125 81.789063 Z M 75.960938 88.023438 L 75.757813 88.03125 C 75.316406 88.054688 74.863281 88.1875 74.410156 88.414063 C 73.953125 88.640625 73.402344 89.011719 72.734375 89.527344 L 67.257813 93.757813 L 67.464844 94.023438 L 67.496094 94.070313 L 67.558594 94.042969 L 67.890625 93.964844 L 67.957031 93.972656 L 68.234375 94.175781 L 73.875 101.503906 L 74 101.796875 L 74 101.8125 C 73.992188 101.890625 73.941406 102.015625 73.820313 102.171875 L 73.789063 102.226563 L 73.988281 102.480469 L 74.039063 102.546875 L 76.875 100.359375 L 76.664063 100.085938 L 76.625 100.03125 L 76.566406 100.0625 L 76.234375 100.144531 L 76.175781 100.136719 L 75.902344 99.941406 L 73.746094 97.140625 L 75.984375 95.40625 L 79.628906 96.625 C 80.042969 96.742188 80.296875 96.875 80.316406 96.910156 L 80.34375 96.988281 L 80.164063 97.273438 L 80.117188 97.320313 L 80.320313 97.589844 L 80.367188 97.660156 L 83.636719 95.132813 L 83.425781 94.867188 L 83.382813 94.8125 L 83.304688 94.847656 C 83.136719 94.972656 82.953125 95.023438 82.753906 95.027344 L 82.699219 95.027344 C 82.492188 95.007813 82.066406 94.910156 81.457031 94.726563 L 78.058594 93.660156 C 78.777344 92.878906 79.136719 92.085938 79.136719 91.296875 C 79.136719 90.636719 78.890625 89.992188 78.40625 89.371094 C 78.082031 88.941406 77.6875 88.601563 77.246094 88.351563 C 76.835938 88.125 76.410156 88.015625 75.960938 88.023438 Z M 75.417969 90.359375 C 75.777344 90.359375 76.089844 90.53125 76.382813 90.90625 C 76.597656 91.1875 76.699219 91.453125 76.699219 91.714844 L 76.617188 92.125 C 76.53125 92.3125 76.414063 92.484375 76.257813 92.632813 C 76.109375 92.796875 75.816406 93.050781 75.390625 93.375 L 72.535156 95.566406 L 70.890625 93.433594 L 73.746094 91.242188 C 74.171875 90.90625 74.492188 90.683594 74.679688 90.574219 C 74.855469 90.46875 75.050781 90.40625 75.25 90.378906 Z M 21.671875 94.222656 L 21.527344 94.527344 L 21.503906 94.582031 L 21.542969 94.632813 C 21.691406 94.773438 21.757813 94.910156 21.757813 95.039063 L 21.710938 95.214844 C 21.640625 95.332031 21.507813 95.496094 21.28125 95.667969 L 13.976563 101.449219 C 13.707031 101.664063 13.515625 101.792969 13.386719 101.828125 L 13.1875 101.855469 L 12.90625 101.816406 L 12.832031 101.796875 L 12.683594 102.082031 L 12.644531 102.160156 L 16.042969 103.832031 L 16.203125 103.519531 L 16.230469 103.460938 L 16.179688 103.417969 C 15.980469 103.257813 15.898438 103.109375 15.898438 102.988281 L 15.929688 102.847656 C 15.976563 102.757813 16.082031 102.632813 16.269531 102.488281 L 17.601563 101.433594 L 21.921875 103.601563 L 21.921875 105.265625 C 21.921875 105.503906 21.894531 105.671875 21.863281 105.746094 C 21.785156 105.886719 21.6875 105.949219 21.515625 105.957031 L 21.257813 105.917969 L 21.199219 105.894531 L 21.054688 106.191406 L 21.023438 106.261719 L 24.785156 108.113281 L 24.933594 107.804688 L 24.960938 107.734375 L 24.910156 107.695313 C 24.734375 107.566406 24.628906 107.425781 24.574219 107.273438 C 24.515625 107.109375 24.480469 106.828125 24.480469 106.433594 L 24.441406 97.03125 C 24.441406 96.816406 24.472656 96.640625 24.53125 96.53125 C 24.59375 96.410156 24.695313 96.347656 24.898438 96.335938 L 25.074219 96.355469 L 25.285156 96.078125 L 25.320313 96.003906 L 21.675781 94.222656 Z M 64.664063 95.289063 C 63.71875 95.289063 62.71875 95.515625 61.667969 95.964844 C 59.320313 96.996094 57.972656 98.546875 57.671875 100.59375 C 57.621094 100.886719 57.601563 101.175781 57.601563 101.453125 C 57.601563 102.238281 57.765625 102.992188 58.078125 103.738281 C 58.371094 104.4375 58.792969 105.042969 59.3125 105.574219 C 59.910156 106.164063 60.59375 106.601563 61.375 106.871094 C 61.964844 107.082031 62.582031 107.195313 63.230469 107.195313 C 64.160156 107.195313 65.148438 106.972656 66.195313 106.523438 C 68.53125 105.53125 69.875 103.972656 70.199219 101.882813 C 70.25 101.5625 70.277344 101.257813 70.277344 100.964844 C 70.277344 100.214844 70.121094 99.492188 69.828125 98.800781 C 69.148438 97.214844 68.035156 96.140625 66.503906 95.601563 C 65.921875 95.390625 65.300781 95.289063 64.664063 95.289063 Z M 64.109375 97.480469 C 64.472656 97.480469 64.839844 97.539063 65.199219 97.652344 C 66.207031 97.980469 66.9375 98.695313 67.421875 99.808594 C 67.628906 100.269531 67.722656 100.742188 67.730469 101.242188 L 67.730469 101.28125 C 67.730469 101.835938 67.628906 102.347656 67.394531 102.820313 C 67.019531 103.644531 66.359375 104.253906 65.402344 104.65625 C 64.84375 104.890625 64.308594 105.011719 63.789063 105.011719 C 63.414063 105.011719 63.050781 104.957031 62.679688 104.832031 C 61.667969 104.488281 60.929688 103.785156 60.472656 102.726563 C 60.242188 102.183594 60.140625 101.664063 60.140625 101.164063 C 60.140625 100.652344 60.242188 100.152344 60.476563 99.667969 C 60.867188 98.839844 61.527344 98.234375 62.46875 97.832031 C 63.027344 97.597656 63.578125 97.480469 64.109375 97.480469 Z M 28.269531 97.527344 L 28.183594 97.863281 C 28.410156 98.042969 28.511719 98.128906 28.546875 98.207031 L 28.585938 98.386719 L 28.574219 98.539063 L 26.683594 107.609375 L 26.527344 107.894531 C 26.453125 107.941406 26.332031 107.988281 26.144531 107.992188 L 26.007813 108.3125 L 25.992188 108.386719 L 29.492188 109.132813 L 29.566406 108.792969 C 29.355469 108.613281 29.257813 108.53125 29.210938 108.460938 L 29.167969 108.261719 L 29.179688 108.132813 L 29.914063 104.65625 L 32.683594 105.234375 L 34.125 108.792969 C 34.277344 109.15625 34.359375 109.398438 34.351563 109.484375 L 34.351563 109.511719 C 34.335938 109.574219 34.261719 109.625 34.039063 109.625 L 33.976563 109.625 L 33.832031 109.949219 L 33.820313 110.03125 L 37.851563 110.867188 L 37.921875 110.539063 L 37.941406 110.460938 L 37.859375 110.445313 C 37.636719 110.378906 37.464844 110.273438 37.34375 110.097656 C 37.207031 109.921875 37.007813 109.53125 36.753906 108.949219 L 35.347656 105.679688 L 35.558594 105.679688 C 37.375 105.6875 38.503906 104.832031 38.847656 103.148438 C 38.902344 102.878906 38.929688 102.601563 38.929688 102.34375 C 38.929688 102.097656 38.90625 101.851563 38.863281 101.613281 C 38.746094 101.09375 38.511719 100.644531 38.140625 100.277344 C 37.832031 99.949219 37.441406 99.699219 36.96875 99.488281 C 36.496094 99.292969 35.859375 99.121094 35.042969 98.941406 Z M 22.085938 97.8125 L 21.972656 101.777344 L 19 100.3125 Z M 55.453125 98.332031 L 51.953125 99.101563 L 52.019531 99.441406 C 52.296875 99.515625 52.425781 99.554688 52.496094 99.609375 L 52.652344 99.886719 L 54.648438 108.9375 L 54.664063 109.089844 L 54.628906 109.269531 C 54.582031 109.339844 54.484375 109.4375 54.3125 109.523438 L 54.320313 109.867188 L 54.347656 109.949219 L 57.851563 109.175781 L 57.765625 108.84375 C 57.507813 108.777344 57.378906 108.734375 57.308594 108.671875 C 57.234375 108.625 57.179688 108.527344 57.144531 108.378906 L 55.148438 99.335938 L 55.128906 99.179688 L 55.167969 99.011719 C 55.214844 98.9375 55.316406 98.839844 55.476563 98.761719 L 55.472656 98.414063 Z M 47.480469 99.699219 C 47.265625 99.699219 47.03125 99.699219 46.792969 99.714844 L 39.960938 99.992188 L 39.890625 100.324219 C 40.132813 100.445313 40.257813 100.511719 40.320313 100.582031 C 40.378906 100.636719 40.417969 100.742188 40.421875 100.894531 L 40.789063 110.140625 L 40.789063 110.179688 L 40.703125 110.460938 C 40.65625 110.523438 40.535156 110.589844 40.351563 110.65625 L 40.296875 111 L 43.808594 110.945313 L 43.871094 110.59375 C 43.625 110.488281 43.515625 110.421875 43.453125 110.359375 C 43.386719 110.292969 43.34375 110.191406 43.335938 110.042969 L 43.203125 106.511719 L 46.03125 106.398438 L 48.300781 109.484375 C 48.554688 109.832031 48.6875 110.066406 48.6875 110.117188 L 48.6875 110.125 C 48.6875 110.207031 48.613281 110.285156 48.351563 110.34375 L 48.300781 110.675781 L 52.332031 110.609375 L 52.410156 110.265625 C 52.085938 110.179688 51.894531 110.105469 51.730469 109.96875 C 51.570313 109.835938 51.273438 109.515625 50.878906 109 L 48.714844 106.171875 C 50.558594 105.785156 51.511719 104.726563 51.507813 103.050781 L 51.503906 102.871094 C 51.480469 102.335938 51.363281 101.835938 51.152344 101.371094 C 50.910156 100.894531 50.570313 100.511719 50.125 100.246094 C 49.734375 100.011719 49.296875 99.855469 48.789063 99.777344 C 48.433594 99.722656 47.992188 99.699219 47.480469 99.699219 Z M 40.277344 100.0625 L 40.039063 100.070313 Z M 30.863281 100.089844 L 34.382813 100.828125 C 34.933594 100.929688 35.304688 101.03125 35.5 101.09375 C 35.6875 101.171875 35.863281 101.273438 36.027344 101.417969 C 36.273438 101.617188 36.394531 101.882813 36.394531 102.238281 L 36.367188 102.609375 C 36.238281 103.148438 35.984375 103.460938 35.574219 103.582031 C 35.417969 103.625 35.257813 103.660156 35.089844 103.660156 L 34.960938 103.65625 C 34.742188 103.636719 34.359375 103.574219 33.832031 103.460938 L 30.308594 102.726563 Z M 47.324219 101.675781 C 47.511719 101.675781 47.65625 101.6875 47.757813 101.699219 C 47.957031 101.714844 48.160156 101.777344 48.351563 101.867188 C 48.722656 102.050781 48.929688 102.402344 48.957031 102.953125 L 48.957031 103.039063 C 48.957031 103.546875 48.78125 103.878906 48.441406 104.085938 C 48.265625 104.191406 48.066406 104.261719 47.859375 104.296875 C 47.644531 104.339844 47.265625 104.367188 46.722656 104.394531 L 43.125 104.535156 L 43.011719 101.75 L 43.144531 101.746094 L 46.617188 101.699219 C 46.890625 101.6875 47.121094 101.675781 47.324219 101.675781 Z M 48.386719 110.585938 L 48.386719 110.59375 Z M 48.386719 110.585938 "/>
<path style=" stroke:none;fill-rule:nonzero;fill:rgb(99.21875%,72.459412%,15.281677%);fill-opacity:1;" d="M 73.734375 79.058594 C 80.347656 71.878906 84.394531 62.289063 84.394531 51.753906 C 84.394531 29.476563 66.339844 11.4375 44.066406 11.4375 C 21.796875 11.4375 3.742188 29.476563 3.742188 51.753906 C 3.742188 74.027344 21.796875 92.078125 44.066406 92.078125 C 55.390625 92.078125 65.617188 87.40625 72.941406 79.890625 C 73.183594 79.757813 73.480469 79.40625 73.734375 79.058594 "/>
<path style=" stroke:none;fill-rule:nonzero;fill:rgb(0%,41.967773%,71.289063%);fill-opacity:1;" d="M 44.066406 13.953125 C 23.199219 13.953125 6.289063 30.871094 6.289063 51.738281 C 6.289063 53.589844 6.425781 55.410156 6.683594 57.191406 C 9.347656 54.476563 14.710938 48.105469 19.589844 36.953125 C 19.652344 33.6875 19.691406 31.636719 19.691406 31.636719 L 20.664063 31.402344 L 20.695313 30.429688 L 22.316406 30.429688 C 22.316406 30.429688 22.328125 31.453125 22.347656 33.222656 C 22.511719 33.425781 22.703125 33.667969 22.957031 33.976563 C 22.929688 32.867188 22.917969 32.226563 22.917969 32.226563 L 24.015625 31.277344 L 25.1875 31.804688 C 25.1875 31.804688 25.238281 33.683594 25.332031 36.738281 C 32.671875 44.9375 51.402344 63.105469 77.683594 68.988281 C 80.339844 63.816406 81.851563 57.957031 81.851563 51.738281 C 81.851563 30.871094 64.9375 13.953125 44.066406 13.953125 Z M 22.351563 33.835938 C 22.4375 41.207031 22.6875 59.132813 23.269531 73.320313 C 23.554688 73.289063 23.832031 73.25 24.125 73.21875 C 23.589844 59.777344 23.121094 40.960938 22.96875 34.511719 C 22.761719 34.285156 22.558594 34.066406 22.351563 33.835938 Z M 25.34375 37.09375 C 25.417969 39.410156 25.515625 42.367188 25.640625 45.699219 L 33.894531 72.246094 C 34.734375 72.171875 35.585938 72.101563 36.457031 72.03125 L 25.535156 37.296875 C 25.472656 37.226563 25.40625 37.164063 25.34375 37.09375 Z M 19.539063 38.527344 C 18.582031 40.671875 17.550781 42.769531 16.480469 44.773438 L 11.761719 71.347656 C 12.246094 72.148438 12.769531 72.921875 13.3125 73.675781 Z M 26.84375 38.675781 L 37.269531 71.964844 C 38.03125 71.90625 38.804688 71.847656 39.59375 71.789063 L 30.09375 42 C 29.023438 40.9375 27.9375 39.820313 26.84375 38.675781 Z M 31.492188 43.371094 L 40.417969 71.734375 C 41.207031 71.675781 42.007813 71.625 42.824219 71.570313 L 34.914063 46.628906 C 33.789063 45.585938 32.648438 44.492188 31.492188 43.367188 Z M 19.476563 43.507813 L 13.972656 74.515625 C 14.601563 74.421875 15.335938 74.316406 16.167969 74.203125 L 19.15625 57.375 L 19.269531 57.394531 C 19.328125 52.515625 19.40625 47.667969 19.476563 43.507813 Z M 15.277344 46.972656 C 14.417969 48.507813 13.558594 49.96875 12.71875 51.34375 L 9.820313 67.707031 C 10.242188 68.609375 10.699219 69.492188 11.1875 70.351563 Z M 36.132813 47.738281 L 43.648438 71.519531 C 44.394531 71.472656 45.15625 71.429688 45.921875 71.382813 L 39.300781 50.546875 C 38.261719 49.648438 37.207031 48.714844 36.132813 47.738281 Z M 25.769531 49.023438 C 25.871094 51.632813 25.992188 54.394531 26.121094 57.214844 L 30.933594 72.515625 C 31.636719 72.453125 32.351563 72.382813 33.082031 72.316406 Z M 40.414063 51.503906 L 46.742188 71.335938 C 47.585938 71.292969 48.4375 71.246094 49.296875 71.207031 L 43.953125 54.410156 C 42.796875 53.488281 41.617188 52.523438 40.414063 51.503906 Z M 11.652344 53.058594 C 11.003906 54.082031 10.386719 55.039063 9.796875 55.921875 L 8.125 63.398438 C 8.464844 64.457031 8.847656 65.5 9.28125 66.515625 L 11.652344 53.054688 Z M 45.128906 55.335938 L 50.128906 71.171875 C 50.90625 71.140625 51.6875 71.101563 52.476563 71.074219 L 48.1875 57.65625 C 47.191406 56.921875 46.171875 56.152344 45.128906 55.335938 Z M 8.480469 57.871094 C 7.984375 58.597656 7.539063 59.226563 7.148438 59.777344 C 7.273438 60.351563 7.410156 60.921875 7.5625 61.488281 Z M 49.371094 58.523438 L 53.304688 71.042969 C 54.109375 71.011719 54.921875 70.988281 55.738281 70.960938 L 52.515625 60.753906 L 52.628906 60.789063 L 52.496094 60.699219 L 52.492188 60.695313 C 51.476563 60.007813 50.441406 59.292969 49.371094 58.523438 Z M 26.273438 60.511719 C 26.480469 64.730469 26.714844 68.972656 26.980469 72.910156 C 27.988281 72.804688 29.03125 72.699219 30.117188 72.59375 Z M 53.535156 61.394531 L 56.5625 70.941406 C 57.410156 70.917969 58.261719 70.898438 59.117188 70.882813 L 56.824219 63.488281 C 55.769531 62.84375 54.671875 62.144531 53.535156 61.394531 Z M 19.21875 61.578125 L 17.003906 74.09375 C 17.671875 74.003906 18.378906 73.910156 19.148438 73.8125 C 19.144531 70.214844 19.175781 65.976563 19.21875 61.578125 Z M 57.859375 64.109375 L 59.949219 70.867188 C 60.742188 70.855469 61.535156 70.84375 62.335938 70.839844 L 60.75 65.769531 C 59.828125 65.265625 58.859375 64.707031 57.859375 64.109375 Z M 61.761719 66.324219 L 63.175781 70.828125 C 63.992188 70.824219 64.820313 70.824219 65.648438 70.824219 L 64.699219 67.820313 C 63.78125 67.375 62.800781 66.878906 61.761719 66.324219 Z M 65.683594 68.292969 L 66.488281 70.824219 C 68.355469 70.832031 70.238281 70.859375 72.128906 70.90625 C 70.792969 70.46875 68.59375 69.660156 65.683594 68.292969 Z M 56.351563 76.839844 C 49.515625 76.851563 41.496094 76.972656 33.4375 77.34375 C 54.851563 76.941406 66.367188 77.535156 71.300781 77.921875 C 71.589844 77.617188 71.882813 77.316406 72.160156 77.003906 C 68.84375 76.925781 63.1875 76.828125 56.351563 76.839844 Z M 37.195313 78.53125 C 33.664063 78.558594 30.339844 78.613281 27.40625 78.675781 C 27.636719 81.492188 27.886719 83.988281 28.152344 86.015625 C 32.988281 88.265625 38.378906 89.53125 44.066406 89.53125 C 53.914063 89.53125 62.882813 85.757813 69.605469 79.582031 C 60.257813 78.632813 47.792969 78.453125 37.195313 78.53125 Z M 24.367188 78.75 C 24.082031 78.753906 23.792969 78.761719 23.519531 78.769531 C 23.609375 80.503906 23.707031 82.140625 23.8125 83.632813 C 24.101563 83.816406 24.382813 84 24.675781 84.175781 C 24.574219 82.714844 24.46875 80.875 24.367188 78.75 Z M 19.183594 78.902344 C 18.691406 78.917969 18.257813 78.933594 17.859375 78.949219 C 18.296875 79.371094 18.746094 79.78125 19.203125 80.179688 C 19.195313 79.78125 19.1875 79.355469 19.183594 78.902344 Z M 19.183594 78.902344 "/>
</g>
</svg>
