<?xml version="1.0" encoding="UTF-8"?>
<svg xmlns="http://www.w3.org/2000/svg" xmlns:xlink="http://www.w3.org/1999/xlink" width="210pt" height="114pt" viewBox="0 0 210 114" version="1.1">
<g id="surface1">
<path style=" stroke:none;fill-rule:nonzero;fill:rgb(0%,0%,0%);fill-opacity:1;" d="M 132.929688 35.871094 C 133.378906 38.839844 130.230469 39.828125 128.339844 40.101563 L 128.25 34.160156 L 128.25 33.710938 C 130.589844 33.980469 132.75 34.519531 132.929688 35.871094 Z M 126.089844 33.621094 C 126.089844 33.800781 126 33.980469 126 34.160156 L 125.910156 49.730469 L 128.339844 48.378906 L 128.25 40.191406 C 129.960938 40.28125 132.480469 40.640625 132.480469 41.988281 L 132.480469 48.378906 L 134.820313 49.730469 L 134.730469 41.539063 C 134.730469 39.109375 131.128906 39.917969 131.128906 39.917969 C 131.128906 39.917969 135.628906 38.929688 135.359375 35.238281 C 135.179688 32.988281 132.839844 31.910156 128.609375 32.359375 L 127.980469 32.359375 C 127.808594 31.21875 127.503906 30.101563 127.078125 29.03125 C 126.625 30.222656 126.292969 31.460938 126.089844 32.71875 C 124.585938 32.96875 123.109375 33.359375 121.679688 33.890625 C 123.144531 33.71875 124.617188 33.628906 126.089844 33.621094 Z M 126.089844 33.621094 "/>
<path style=" stroke:none;fill-rule:nonzero;fill:rgb(0%,0%,0%);fill-opacity:1;" d="M 145.53125 45.140625 C 145.53125 46.578125 144.71875 47.480469 143.371094 47.480469 C 142.019531 47.480469 141.210938 46.761719 141.210938 45.140625 L 141.210938 36.230469 C 141.210938 34.609375 142.109375 33.890625 143.371094 33.890625 C 144.632813 33.898438 145.621094 34.972656 145.53125 36.230469 Z M 144.898438 32.808594 L 141.929688 32.808594 C 141.929688 32.808594 138.78125 32.808594 138.78125 35.78125 L 138.78125 45.589844 C 138.78125 48.558594 141.929688 48.558594 141.929688 48.558594 L 144.898438 48.558594 C 144.898438 48.558594 148.050781 48.648438 148.050781 45.589844 L 148.050781 35.78125 C 148.050781 32.808594 144.898438 32.808594 144.898438 32.808594 Z M 144.898438 32.808594 "/>
<path style=" stroke:none;fill-rule:nonzero;fill:rgb(0%,0%,0%);fill-opacity:1;" d="M 157.589844 32.808594 L 154.621094 32.808594 C 154.621094 32.808594 151.378906 32.808594 151.378906 35.78125 L 151.378906 45.589844 C 151.378906 48.558594 154.621094 48.558594 154.621094 48.558594 L 157.589844 48.558594 C 157.589844 48.558594 160.738281 48.648438 160.738281 45.589844 L 160.738281 44.328125 L 158.308594 44.328125 L 158.308594 45.140625 C 158.425781 46.441406 157.363281 47.546875 156.058594 47.480469 C 154.710938 47.480469 153.898438 46.761719 153.898438 45.140625 L 153.898438 36.230469 C 153.898438 34.609375 154.800781 33.890625 156.058594 33.890625 C 157.351563 33.855469 158.394531 34.941406 158.308594 36.230469 L 158.308594 37.039063 L 160.738281 37.039063 L 160.738281 35.78125 C 160.828125 32.808594 157.589844 32.808594 157.589844 32.808594 Z M 157.589844 32.808594 "/>
<path style=" stroke:none;fill-rule:nonzero;fill:rgb(0%,0%,0%);fill-opacity:1;" d="M 205.109375 39.199219 C 203.039063 39.199219 202.410156 39.109375 202.410156 37.398438 L 202.410156 35.78125 C 202.410156 34.519531 202.679688 33.800781 204.660156 33.800781 C 206.730469 33.800781 206.910156 34.789063 206.910156 36.050781 L 206.910156 36.859375 L 209.160156 35.691406 L 209.160156 35.417969 C 209.261719 33.910156 208.0625 32.628906 206.550781 32.628906 L 203.039063 32.628906 C 203.039063 32.628906 200.070313 32.628906 200.070313 35.238281 L 200.070313 37.578125 C 200.070313 39.738281 200.160156 40.460938 203.21875 40.460938 C 205.558594 40.460938 207 40.550781 207 42.53125 L 207 44.78125 C 207 46.578125 206.730469 47.390625 204.75 47.390625 C 202.679688 47.390625 202.410156 46.398438 202.410156 44.511719 L 202.410156 43.429688 L 200.160156 44.328125 L 200.160156 46.039063 C 200.160156 48.46875 203.128906 48.46875 203.128906 48.46875 L 206.550781 48.46875 C 208.191406 48.457031 209.476563 47.046875 209.339844 45.410156 L 209.339844 41.988281 C 209.25 39.378906 207.988281 39.199219 205.109375 39.199219 Z M 205.109375 39.199219 "/>
<path style=" stroke:none;fill-rule:nonzero;fill:rgb(0%,0%,0%);fill-opacity:1;" d="M 179.101563 45.050781 L 179.101563 41.269531 L 179.910156 41.269531 C 181.84375 41.207031 183.757813 40.84375 185.578125 40.191406 C 183.753906 39.554688 181.84375 39.191406 179.910156 39.109375 L 179.101563 39.109375 L 179.101563 36.5 C 179.011719 36.050781 179.460938 35.238281 179.550781 34.96875 C 180.042969 34.53125 180.691406 34.304688 181.351563 34.339844 L 185.578125 34.339844 C 185.308594 32.628906 182.429688 32.898438 182.429688 32.898438 L 179.910156 32.898438 C 179.910156 32.898438 176.488281 32.898438 176.488281 36.050781 L 176.488281 45.589844 C 176.488281 48.648438 179.910156 48.558594 179.910156 48.558594 L 182.429688 48.558594 C 182.429688 48.558594 185.308594 48.828125 185.578125 47.210938 L 181.351563 47.210938 C 181.261719 47.121094 179.101563 47.300781 179.101563 45.050781 Z M 179.101563 45.050781 "/>
<path style=" stroke:none;fill-rule:nonzero;fill:rgb(0%,0%,0%);fill-opacity:1;" d="M 187.378906 32.808594 L 187.378906 34.878906 L 191.160156 34.878906 L 191.160156 47.929688 L 193.5 49.460938 L 193.5 34.878906 L 194.398438 34.878906 C 195.976563 34.824219 197.53125 34.488281 198.988281 33.890625 C 197.550781 33.214844 195.988281 32.847656 194.398438 32.808594 Z M 187.378906 32.808594 "/>
<path style=" stroke:none;fill-rule:nonzero;fill:rgb(0%,0%,0%);fill-opacity:1;" d="M 173.609375 32.808594 L 171.359375 32.808594 L 166.5 39.738281 L 166.5 32.808594 L 164.070313 31.191406 L 164.070313 49.460938 L 166.5 47.929688 L 166.5 40.101563 L 171.628906 48.289063 L 174.238281 48.289063 L 168.75 39.558594 Z M 173.609375 32.808594 "/>
<path style=" stroke:none;fill-rule:nonzero;fill:rgb(0%,0%,0%);fill-opacity:1;" d="M 19.53125 45.140625 C 19.53125 46.578125 18.71875 47.480469 17.371094 47.480469 C 16.019531 47.480469 15.210938 46.761719 15.210938 45.140625 L 15.210938 36.230469 C 15.210938 34.609375 16.109375 33.890625 17.371094 33.890625 C 18.632813 33.898438 19.621094 34.972656 19.53125 36.230469 Z M 18.808594 32.808594 L 15.839844 32.808594 C 15.839844 32.808594 12.601563 32.808594 12.601563 35.78125 L 12.601563 45.589844 C 12.601563 48.558594 15.839844 48.558594 15.839844 48.558594 L 18.808594 48.558594 C 18.808594 48.558594 22.050781 48.648438 22.050781 45.589844 L 22.050781 35.78125 C 22.050781 32.808594 18.808594 32.808594 18.808594 32.808594 Z M 18.808594 32.808594 "/>
<path style=" stroke:none;fill-rule:nonzero;fill:rgb(0%,0%,0%);fill-opacity:1;" d="M 32.128906 34.25 L 32.128906 45.230469 C 32.128906 47.480469 30.328125 47.480469 30.328125 47.480469 L 29.609375 47.480469 C 28.515625 47.335938 27.746094 46.324219 27.898438 45.230469 L 27.898438 34.339844 L 25.46875 32.808594 L 25.46875 45.679688 C 25.46875 48.46875 28.441406 48.648438 28.441406 48.648438 L 31.5 48.648438 C 31.5 48.648438 34.828125 48.558594 34.828125 45.679688 L 34.828125 39.828125 C 34.828125 39.828125 34.738281 32.898438 34.738281 32.808594 Z M 32.128906 34.25 "/>
<path style=" stroke:none;fill-rule:nonzero;fill:rgb(0%,0%,0%);fill-opacity:1;" d="M 74.25 49.640625 L 76.320313 48.109375 L 76.320313 39.289063 L 83.429688 48.648438 L 83.429688 36.859375 C 83.308594 34.84375 82.949219 32.847656 82.351563 30.917969 C 81.808594 32.859375 81.476563 34.851563 81.359375 36.859375 L 81.359375 42.078125 L 74.25 32.808594 Z M 74.25 49.640625 "/>
<path style=" stroke:none;fill-rule:nonzero;fill:rgb(0%,0%,0%);fill-opacity:1;" d="M 42.75 39.199219 C 40.679688 39.199219 40.050781 39.109375 40.050781 37.398438 L 40.050781 35.78125 C 40.050781 34.519531 40.320313 33.800781 42.300781 33.800781 C 44.371094 33.800781 44.550781 34.789063 44.550781 36.050781 L 44.550781 36.859375 L 46.800781 35.691406 L 46.800781 35.417969 C 46.902344 33.910156 45.703125 32.628906 44.191406 32.628906 L 40.679688 32.628906 C 40.679688 32.628906 37.710938 32.628906 37.710938 35.238281 L 37.710938 37.578125 C 37.710938 39.738281 37.800781 40.460938 40.859375 40.460938 C 43.199219 40.460938 44.640625 40.550781 44.640625 42.53125 L 44.640625 44.78125 C 44.640625 46.578125 44.371094 47.390625 42.480469 47.390625 C 40.320313 47.390625 40.050781 46.398438 40.050781 44.511719 L 40.050781 43.429688 L 37.800781 44.328125 L 37.800781 46.039063 C 37.800781 48.46875 40.679688 48.46875 40.679688 48.46875 L 44.191406 48.46875 C 45.832031 48.457031 47.117188 47.046875 46.980469 45.410156 L 46.980469 41.988281 C 46.980469 39.378906 45.628906 39.199219 42.75 39.199219 Z M 42.75 39.199219 "/>
<path style=" stroke:none;fill-rule:nonzero;fill:rgb(0%,0%,0%);fill-opacity:1;" d="M 48.601563 33.261719 L 48.601563 35.238281 L 52.378906 35.238281 L 52.378906 48.109375 L 54.71875 49.640625 L 54.71875 35.238281 L 55.53125 35.238281 C 57.082031 35.238281 58.621094 34.902344 60.03125 34.25 C 58.632813 33.554688 57.089844 33.214844 55.53125 33.261719 Z M 48.601563 33.261719 "/>
<path style=" stroke:none;fill-rule:nonzero;fill:rgb(0%,0%,0%);fill-opacity:1;" d="M 63.898438 45.140625 L 63.898438 36.230469 C 63.898438 34.609375 64.800781 33.890625 66.058594 33.890625 C 67.351563 33.855469 68.394531 34.941406 68.308594 36.230469 L 68.308594 45.140625 C 68.425781 46.441406 67.363281 47.546875 66.058594 47.480469 C 64.710938 47.480469 63.898438 46.851563 63.898438 45.140625 Z M 67.5 48.558594 C 67.5 48.558594 70.738281 48.558594 70.738281 45.5 L 70.738281 35.78125 C 70.738281 32.71875 67.5 32.71875 67.5 32.71875 L 64.53125 32.71875 C 64.53125 32.71875 61.378906 32.71875 61.378906 35.78125 L 61.378906 45.5 C 61.378906 48.558594 64.53125 48.558594 64.53125 48.558594 Z M 67.5 48.558594 "/>
<path style=" stroke:none;fill-rule:nonzero;fill:rgb(0%,0%,0%);fill-opacity:1;" d="M 8.28125 30.738281 C 7.683594 32.230469 7.351563 33.816406 7.289063 35.417969 L 7.289063 39.648438 L 2.160156 39.648438 L 2.160156 35.417969 C 2.035156 33.816406 1.671875 32.238281 1.078125 30.738281 C 0.546875 32.25 0.210938 33.824219 0.0898438 35.417969 L 0 49.910156 L 2.25 48.648438 L 2.25 41.269531 L 7.378906 41.269531 L 7.378906 48.648438 L 9.628906 49.910156 L 9.539063 35.417969 C 9.277344 33.820313 8.855469 32.253906 8.28125 30.738281 Z M 8.28125 30.738281 "/>
<path style=" stroke:none;fill-rule:nonzero;fill:rgb(0%,0%,0%);fill-opacity:1;" d="M 118.800781 65.210938 L 118.890625 53.691406 C 129.511719 55.039063 138.238281 56.480469 138.238281 59.089844 C 138.328125 61.878906 130.320313 64.128906 118.800781 65.210938 Z M 98.371094 65.660156 L 98.460938 63.230469 C 98.28125 56.660156 98.640625 48.378906 98.730469 39.648438 C 104.039063 40.191406 110.789063 41.628906 110.699219 45.410156 L 110.519531 65.75 C 108.539063 65.839844 106.558594 65.839844 104.578125 65.839844 C 102.421875 65.839844 100.351563 65.75 98.371094 65.660156 Z M 71.101563 59.089844 C 71.101563 56.480469 80.730469 55.039063 90.359375 53.601563 C 90.359375 56.660156 90.269531 60.078125 90.179688 63.769531 L 90.179688 65.210938 C 78.75 64.128906 71.101563 61.878906 71.101563 59.089844 Z M 112.589844 26.601563 C 113.761719 35.148438 105.03125 37.941406 98.820313 38.839844 C 98.921875 32.59375 98.714844 26.34375 98.191406 20.121094 C 105.570313 20.839844 112.050781 22.640625 112.589844 26.601563 Z M 118.980469 53.511719 L 119.070313 43.429688 C 119.070313 37.21875 110.429688 37.851563 107.640625 38.210938 C 110.96875 37.578125 122.21875 34.878906 121.5 24.53125 C 121.050781 17.78125 112.5 14.359375 98.460938 15.710938 C 98.191406 15.710938 98.011719 15.800781 97.738281 15.800781 C 97.140625 10.875 96.054688 6.023438 94.5 1.308594 C 92.789063 6.347656 91.523438 11.527344 90.71875 16.789063 C 85.667969 17.589844 80.675781 18.730469 75.78125 20.210938 C 80.628906 19.808594 85.496094 19.660156 90.359375 19.761719 C 89.460938 28.761719 90.449219 37.21875 90.359375 53.511719 C 75.511719 53.058594 62.550781 55.941406 62.730469 60.261719 C 62.910156 64.128906 74.339844 67.640625 90.359375 68.988281 L 91.078125 90.859375 L 92.160156 76.011719 C 92.25 74.210938 93.601563 74.390625 93.601563 75.917969 L 94.050781 95.359375 L 95.308594 79.519531 C 95.308594 77.359375 96.75 77.539063 96.660156 79.429688 L 97.199219 99.679688 L 98.191406 69.441406 C 100.261719 69.53125 102.328125 69.53125 104.488281 69.53125 C 106.558594 69.53125 108.539063 69.53125 110.429688 69.441406 L 111.421875 100.308594 L 112.230469 84.109375 C 112.230469 82.039063 113.671875 82.128906 113.671875 84.019531 L 114.480469 106.609375 L 115.378906 87.078125 C 115.378906 85.191406 116.910156 85.28125 117 87.078125 L 117.628906 113 L 118.710938 68.988281 C 134.910156 67.640625 146.699219 64.039063 146.699219 60.261719 C 146.609375 56.03125 133.921875 52.789063 118.980469 53.511719 Z M 118.980469 53.511719 "/>
<path style=" stroke:none;fill-rule:nonzero;fill:rgb(80.859375%,6.665039%,25.488281%);fill-opacity:1;" d="M 133.558594 35.328125 C 133.921875 38.300781 130.769531 39.289063 128.878906 39.558594 L 128.878906 33.53125 C 128.894531 33.402344 128.863281 33.277344 128.789063 33.167969 C 131.21875 33.441406 133.378906 33.980469 133.558594 35.328125 Z M 126.628906 33.078125 L 126.628906 33.53125 L 126.449219 49.191406 L 128.878906 47.839844 L 128.878906 39.648438 C 130.5 39.738281 133.109375 40.011719 133.019531 41.359375 L 133.109375 47.839844 L 135.359375 49.191406 L 135.359375 40.910156 C 135.359375 38.480469 131.761719 39.378906 131.761719 39.378906 C 131.761719 39.378906 136.171875 38.390625 135.898438 34.609375 C 135.808594 32.449219 133.378906 31.28125 129.148438 31.730469 C 128.96875 31.730469 128.699219 31.820313 128.609375 31.820313 C 128.449219 30.667969 128.113281 29.542969 127.621094 28.488281 C 127.152344 29.679688 126.820313 30.917969 126.628906 32.179688 C 125.164063 32.433594 123.722656 32.796875 122.308594 33.261719 C 122.308594 33.261719 124.378906 33.078125 126.628906 33.078125 Z M 126.628906 33.078125 "/>
<path style=" stroke:none;fill-rule:nonzero;fill:rgb(80.859375%,6.665039%,25.488281%);fill-opacity:1;" d="M 146.160156 44.601563 C 146.277344 45.902344 145.214844 47.003906 143.910156 46.941406 C 142.558594 46.941406 141.75 46.21875 141.75 44.601563 L 141.75 35.691406 C 141.75 33.980469 142.648438 33.351563 143.910156 33.351563 C 145.203125 33.316406 146.242188 34.398438 146.160156 35.691406 Z M 145.441406 32.179688 L 142.46875 32.179688 C 142.46875 32.179688 139.230469 32.179688 139.230469 35.238281 L 139.230469 44.960938 C 139.230469 48.019531 142.46875 48.019531 142.46875 48.019531 L 145.441406 48.019531 C 145.441406 48.019531 148.589844 48.109375 148.589844 44.960938 L 148.589844 35.238281 C 148.589844 32.179688 145.441406 32.179688 145.441406 32.179688 Z M 145.441406 32.179688 "/>
<path style=" stroke:none;fill-rule:nonzero;fill:rgb(80.859375%,6.665039%,25.488281%);fill-opacity:1;" d="M 158.128906 32.179688 L 155.160156 32.179688 C 155.160156 32.179688 152.011719 32.179688 152.011719 35.238281 L 152.011719 44.960938 C 152.011719 48.019531 155.25 48.019531 155.25 48.019531 L 158.21875 48.019531 C 158.21875 48.019531 161.371094 48.109375 161.371094 44.960938 L 161.371094 43.789063 L 158.851563 43.789063 L 158.851563 44.601563 C 158.851563 46.039063 158.039063 46.941406 156.691406 46.941406 C 155.339844 46.941406 154.53125 46.21875 154.53125 44.601563 L 154.53125 35.691406 C 154.53125 33.980469 155.429688 33.351563 156.691406 33.351563 C 157.953125 33.359375 158.941406 34.433594 158.851563 35.691406 L 158.851563 36.5 L 161.371094 36.5 L 161.371094 35.238281 C 161.371094 32.179688 158.128906 32.179688 158.128906 32.179688 Z M 158.128906 32.179688 "/>
<path style=" stroke:none;fill-rule:nonzero;fill:rgb(80.859375%,6.665039%,25.488281%);fill-opacity:1;" d="M 205.648438 38.660156 C 203.578125 38.660156 202.949219 38.570313 202.949219 36.859375 L 202.949219 35.238281 C 202.949219 33.980469 203.21875 33.261719 205.199219 33.261719 C 207.269531 33.261719 207.449219 34.25 207.449219 35.511719 L 207.449219 36.320313 L 209.699219 35.148438 L 209.699219 34.878906 C 209.800781 33.371094 208.601563 32.089844 207.089844 32.089844 L 203.578125 32.089844 C 203.578125 32.089844 200.609375 32.089844 200.609375 34.609375 L 200.609375 37.039063 C 200.609375 39.199219 200.699219 39.917969 203.761719 39.917969 C 206.101563 39.917969 207.539063 40.011719 207.539063 41.988281 L 207.539063 44.238281 C 207.539063 46.039063 207.269531 46.851563 205.378906 46.851563 C 203.21875 46.851563 202.949219 45.859375 202.949219 43.96875 L 202.949219 42.890625 L 200.699219 43.789063 L 200.699219 45.5 C 200.699219 47.929688 203.671875 47.929688 203.671875 47.929688 L 207.179688 47.929688 C 207.179688 47.929688 209.878906 47.929688 209.878906 44.78125 L 209.878906 41.449219 C 209.878906 38.839844 208.53125 38.660156 205.648438 38.660156 Z M 205.648438 38.660156 "/>
<path style=" stroke:none;fill-rule:nonzero;fill:rgb(80.859375%,6.665039%,25.488281%);fill-opacity:1;" d="M 179.640625 44.511719 L 179.640625 40.730469 L 180.449219 40.730469 C 182.390625 40.644531 184.304688 40.25 186.121094 39.558594 C 184.292969 38.925781 182.382813 38.5625 180.449219 38.480469 L 179.640625 38.480469 L 179.640625 35.960938 C 179.667969 35.410156 179.855469 34.875 180.179688 34.429688 C 180.667969 33.972656 181.3125 33.714844 181.980469 33.710938 L 186.210938 33.710938 C 185.851563 32.089844 183.058594 32.359375 183.058594 32.359375 L 180.449219 32.359375 C 180.449219 32.359375 177.03125 32.359375 177.03125 35.511719 L 177.03125 44.960938 C 177.03125 48.109375 180.449219 48.019531 180.449219 48.019531 L 183.058594 48.019531 C 183.058594 48.019531 185.851563 48.289063 186.210938 46.578125 L 181.890625 46.578125 C 180.65625 46.75 179.574219 45.753906 179.640625 44.511719 Z M 179.640625 44.511719 "/>
<path style=" stroke:none;fill-rule:nonzero;fill:rgb(80.859375%,6.665039%,25.488281%);fill-opacity:1;" d="M 187.921875 32.269531 L 187.921875 34.339844 L 191.699219 34.339844 L 191.699219 47.390625 L 194.128906 48.917969 L 194.128906 34.339844 L 195.03125 34.339844 C 196.582031 34.257813 198.109375 33.890625 199.53125 33.261719 C 198.117188 32.617188 196.582031 32.28125 195.03125 32.269531 Z M 187.921875 32.269531 "/>
<path style=" stroke:none;fill-rule:nonzero;fill:rgb(80.859375%,6.665039%,25.488281%);fill-opacity:1;" d="M 174.148438 32.269531 L 171.898438 32.269531 L 167.039063 39.199219 L 167.039063 32.179688 L 164.609375 30.648438 L 164.609375 48.917969 L 167.039063 47.390625 L 167.039063 39.46875 L 172.171875 47.660156 L 174.78125 47.660156 L 169.289063 38.929688 Z M 174.148438 32.269531 "/>
<path style=" stroke:none;fill-rule:nonzero;fill:rgb(80.859375%,6.665039%,25.488281%);fill-opacity:1;" d="M 20.160156 44.601563 C 20.277344 45.902344 19.214844 47.003906 17.910156 46.941406 C 16.558594 46.941406 15.75 46.21875 15.75 44.601563 L 15.75 35.691406 C 15.75 33.980469 16.648438 33.351563 17.910156 33.351563 C 19.203125 33.316406 20.242188 34.398438 20.160156 35.691406 Z M 19.441406 32.179688 L 16.46875 32.179688 C 16.46875 32.179688 13.230469 32.179688 13.230469 35.238281 L 13.230469 44.960938 C 13.230469 48.019531 16.46875 48.019531 16.46875 48.019531 L 19.441406 48.019531 C 19.441406 48.019531 22.679688 48.109375 22.679688 44.960938 L 22.679688 35.238281 C 22.589844 32.179688 19.441406 32.179688 19.441406 32.179688 Z M 19.441406 32.179688 "/>
<path style=" stroke:none;fill-rule:nonzero;fill:rgb(80.859375%,6.665039%,25.488281%);fill-opacity:1;" d="M 32.761719 33.710938 L 32.761719 44.601563 C 32.761719 46.941406 30.871094 46.941406 30.871094 46.941406 L 30.148438 46.941406 C 29.042969 46.726563 28.273438 45.722656 28.351563 44.601563 L 28.351563 39.648438 L 28.441406 33.710938 L 26.011719 32.179688 L 26.011719 45.140625 C 26.011719 47.839844 28.980469 48.019531 28.980469 48.019531 L 32.039063 48.019531 C 32.039063 48.019531 35.28125 47.929688 35.28125 45.140625 L 35.28125 32.179688 Z M 32.761719 33.710938 "/>
<path style=" stroke:none;fill-rule:nonzero;fill:rgb(80.859375%,6.665039%,25.488281%);fill-opacity:1;" d="M 74.878906 49.011719 L 76.949219 47.480469 L 76.949219 38.660156 L 84.058594 48.019531 L 84.058594 36.230469 C 83.941406 34.214844 83.578125 32.21875 82.980469 30.289063 C 82.410156 32.226563 82.050781 34.21875 81.898438 36.230469 L 81.898438 41.449219 L 74.878906 32.179688 Z M 74.878906 49.011719 "/>
<path style=" stroke:none;fill-rule:nonzero;fill:rgb(80.859375%,6.665039%,25.488281%);fill-opacity:1;" d="M 43.289063 38.660156 C 41.308594 38.660156 40.589844 38.570313 40.589844 36.859375 L 40.589844 35.238281 C 40.589844 33.980469 40.859375 33.261719 42.839844 33.261719 C 44.910156 33.261719 45.179688 34.25 45.179688 35.511719 L 45.179688 36.320313 L 47.429688 35.148438 L 47.429688 34.878906 C 47.496094 33.347656 46.265625 32.074219 44.730469 32.089844 L 41.308594 32.089844 C 41.308594 32.089844 38.25 32.089844 38.25 34.609375 L 38.25 37.039063 C 38.25 39.199219 38.429688 39.917969 41.398438 39.917969 C 43.828125 39.917969 45.179688 40.011719 45.179688 41.988281 L 45.179688 44.238281 C 45.179688 46.039063 44.910156 46.851563 43.019531 46.851563 C 40.859375 46.851563 40.679688 45.859375 40.679688 43.96875 L 40.679688 42.890625 L 38.429688 43.789063 L 38.429688 45.5 C 38.429688 47.929688 41.308594 47.929688 41.308594 47.929688 L 44.820313 47.929688 C 46.492188 47.898438 47.78125 46.445313 47.609375 44.78125 L 47.609375 41.449219 C 47.519531 38.839844 46.261719 38.660156 43.289063 38.660156 Z M 43.289063 38.660156 "/>
<path style=" stroke:none;fill-rule:nonzero;fill:rgb(80.859375%,6.665039%,25.488281%);fill-opacity:1;" d="M 49.230469 32.628906 L 49.230469 34.699219 L 53.011719 34.699219 L 53.011719 47.480469 L 55.261719 49.101563 L 55.261719 34.699219 L 56.160156 34.699219 C 57.710938 34.679688 59.242188 34.34375 60.660156 33.710938 C 59.253906 33.035156 57.71875 32.667969 56.160156 32.628906 Z M 49.230469 32.628906 "/>
<path style=" stroke:none;fill-rule:nonzero;fill:rgb(80.859375%,6.665039%,25.488281%);fill-opacity:1;" d="M 64.441406 44.601563 L 64.441406 35.691406 C 64.441406 33.980469 65.339844 33.351563 66.601563 33.351563 C 67.890625 33.316406 68.933594 34.398438 68.851563 35.691406 L 68.851563 44.601563 C 68.964844 45.902344 67.90625 47.003906 66.601563 46.941406 C 65.25 46.941406 64.441406 46.21875 64.441406 44.601563 Z M 68.128906 47.929688 C 68.128906 47.929688 71.28125 48.019531 71.28125 44.960938 L 71.28125 35.238281 C 71.28125 32.179688 68.128906 32.179688 68.128906 32.179688 L 65.160156 32.179688 C 65.160156 32.179688 61.921875 32.179688 61.921875 35.238281 L 61.921875 44.960938 C 61.921875 47.929688 65.160156 47.929688 65.160156 47.929688 Z M 68.128906 47.929688 "/>
<path style=" stroke:none;fill-rule:nonzero;fill:rgb(80.859375%,6.665039%,25.488281%);fill-opacity:1;" d="M 8.910156 30.109375 C 8.328125 31.640625 7.964844 33.246094 7.828125 34.878906 L 7.828125 39.109375 L 2.699219 39.109375 L 2.699219 34.878906 C 2.597656 33.25 2.261719 31.644531 1.710938 30.109375 C 1.105469 31.632813 0.742188 33.242188 0.628906 34.878906 L 0.628906 49.371094 L 2.878906 48.109375 L 2.789063 40.730469 L 8.011719 40.730469 L 7.921875 48.109375 L 10.171875 49.371094 L 10.078125 34.878906 C 9.808594 33.261719 9.417969 31.667969 8.910156 30.109375 Z M 8.910156 30.109375 "/>
<path style=" stroke:none;fill-rule:nonzero;fill:rgb(80.859375%,6.665039%,25.488281%);fill-opacity:1;" d="M 119.519531 64.488281 L 119.609375 52.878906 C 130.230469 54.230469 138.960938 55.761719 138.960938 58.28125 C 138.960938 61.160156 131.039063 63.5 119.519531 64.488281 Z M 111.238281 65.03125 C 109.351563 65.03125 107.28125 65.121094 105.300781 65.121094 C 103.140625 65.121094 101.160156 65.03125 99.089844 65.03125 L 99.179688 62.511719 C 99 56.03125 99.359375 47.75 99.449219 38.929688 C 104.761719 39.558594 111.511719 40.910156 111.421875 44.691406 Z M 98.910156 19.398438 C 106.199219 20.121094 112.769531 21.828125 113.308594 25.878906 C 114.390625 34.429688 105.75 37.21875 99.449219 38.121094 C 99.582031 31.875 99.402344 25.625 98.910156 19.398438 Z M 90.898438 64.488281 C 79.46875 63.5 71.730469 61.160156 71.730469 58.28125 C 71.730469 55.761719 81.359375 54.320313 90.988281 52.878906 C 90.988281 55.941406 90.898438 59.359375 90.808594 63.050781 Z M 119.609375 52.789063 L 119.699219 42.710938 C 119.699219 36.5 111.148438 37.128906 108.359375 37.488281 C 111.601563 36.859375 122.851563 34.160156 122.21875 23.808594 C 121.769531 17.058594 113.21875 13.640625 99.089844 14.988281 C 98.910156 14.988281 98.640625 15.078125 98.460938 15.078125 C 97.828125 10.152344 96.714844 5.296875 95.128906 0.589844 C 93.460938 5.609375 92.199219 10.757813 91.351563 15.980469 C 86.304688 16.84375 81.3125 18.015625 76.410156 19.488281 C 81.289063 19.089844 86.183594 18.941406 91.078125 19.039063 C 90.179688 28.039063 91.078125 36.5 91.078125 52.789063 C 76.230469 52.339844 63.269531 55.128906 63.449219 59.539063 C 63.539063 63.410156 75.058594 66.917969 91.078125 68.269531 L 91.710938 90.140625 L 92.878906 75.289063 C 92.878906 73.488281 94.230469 73.578125 94.230469 75.199219 L 94.769531 94.640625 L 95.941406 78.800781 C 95.941406 76.640625 97.378906 76.730469 97.378906 78.710938 L 97.921875 98.960938 L 98.910156 68.71875 C 100.980469 68.808594 103.050781 68.808594 105.210938 68.808594 C 107.191406 68.808594 109.261719 68.808594 111.148438 68.71875 L 112.050781 99.589844 L 112.949219 83.390625 C 112.949219 81.410156 114.300781 81.410156 114.300781 83.300781 L 115.199219 105.890625 L 116.011719 86.359375 C 116.101563 84.46875 117.628906 84.558594 117.628906 86.359375 L 118.351563 112.28125 L 119.339844 68.269531 L 119.339844 68.179688 C 135.628906 66.828125 147.328125 63.320313 147.328125 59.539063 C 147.328125 55.398438 134.550781 52.160156 119.609375 52.789063 Z M 119.609375 52.789063 "/>
</g>
</svg>
