<?xml version="1.0" encoding="UTF-8"?>
<svg xmlns="http://www.w3.org/2000/svg" xmlns:xlink="http://www.w3.org/1999/xlink" width="198pt" height="199pt" viewBox="0 0 198 199" version="1.1">
<g id="surface1">
<path style=" stroke:none;fill-rule:nonzero;fill:rgb(74.414063%,75.389099%,76.171875%);fill-opacity:1;" d="M 197.011719 99.46875 C 197.019531 139.3125 173.023438 175.242188 136.214844 190.5 C 99.402344 205.75 57.027344 197.324219 28.851563 169.148438 C 0.675781 140.972656 -7.75 98.597656 7.503906 61.785156 C 22.757813 24.972656 58.683594 0.976563 98.53125 0.988281 C 152.917969 0.992188 197.007813 45.078125 197.011719 99.46875 Z M 197.011719 99.46875 "/>
<path style=" stroke:none;fill-rule:nonzero;fill:rgb(0%,17.651367%,38.426208%);fill-opacity:1;" d="M 191.371094 99.46875 C 191.347656 150.714844 149.796875 192.234375 98.550781 192.222656 C 47.308594 192.210938 5.773438 150.667969 5.773438 99.429688 C 5.773438 48.183594 47.308594 6.636719 98.550781 6.628906 C 149.796875 6.613281 191.347656 48.140625 191.371094 99.386719 C 191.371094 99.410156 191.371094 99.4375 191.371094 99.46875 Z M 191.371094 99.46875 "/>
<path style=" stroke:none;fill-rule:nonzero;fill:rgb(99.21875%,73.242188%,18.821716%);fill-opacity:1;" d="M 98.53125 10.976563 C 62.734375 10.953125 30.453125 32.503906 16.738281 65.566406 C 3.023438 98.632813 10.582031 136.703125 35.886719 162.019531 C 61.191406 187.34375 99.257813 194.917969 132.328125 181.226563 C 165.402344 167.53125 186.96875 135.261719 186.96875 99.46875 C 186.980469 50.609375 147.386719 10.992188 98.53125 10.976563 Z M 98.53125 10.976563 "/>
<path style=" stroke:none;fill-rule:nonzero;fill:rgb(0%,17.651367%,38.426208%);fill-opacity:1;" d="M 159.101563 99.46875 C 159.101563 133.617188 131.929688 161.328125 98.53125 161.328125 C 65.027344 161.328125 37.964844 133.617188 37.964844 99.46875 C 37.964844 65.316406 65.027344 37.664063 98.53125 37.664063 C 131.984375 37.664063 159.101563 65.316406 159.101563 99.46875 Z M 159.101563 99.46875 "/>
<path style=" stroke:none;fill-rule:nonzero;fill:rgb(100%,100%,100%);fill-opacity:1;" d="M 155.234375 99.46875 C 155.234375 131.414063 129.890625 157.296875 98.53125 157.296875 C 67.226563 157.296875 41.828125 131.414063 41.828125 99.46875 C 41.828125 67.515625 67.171875 41.636719 98.53125 41.636719 C 129.890625 41.636719 155.234375 67.515625 155.234375 99.46875 Z M 155.234375 99.46875 "/>
<path style=" stroke:none;fill-rule:nonzero;fill:rgb(0%,17.651367%,38.426208%);fill-opacity:1;" d="M 36.351563 82.179688 L 35.761719 84.433594 L 17.667969 79.972656 L 18.257813 77.671875 Z M 36.351563 82.179688 "/>
<path style=" stroke:none;fill-rule:nonzero;fill:rgb(0%,17.651367%,38.426208%);fill-opacity:1;" d="M 38.875 54.363281 L 46.660156 60.324219 L 45.320313 62.09375 L 30.554688 50.765625 L 31.304688 49.746094 L 41.992188 52.535156 L 33.9375 46.359375 L 35.277344 44.59375 L 50.042969 55.867188 L 49.347656 56.9375 Z M 38.875 54.363281 "/>
<path style=" stroke:none;fill-rule:nonzero;fill:rgb(0%,17.651367%,38.426208%);fill-opacity:1;" d="M 57.9375 25.742188 L 61.589844 23.863281 C 63.144531 23.058594 65.078125 23.109375 66.097656 25.046875 C 68.410156 29.660156 69.480469 31.648438 71.84375 36.160156 C 72.640625 37.761719 71.894531 39.695313 70.234375 40.347656 L 66.421875 42.28125 Z M 67.65625 39.382813 L 68.625 38.84375 C 69.417969 38.53125 69.808594 37.632813 69.492188 36.839844 C 69.472656 36.789063 69.453125 36.742188 69.429688 36.695313 C 67.496094 32.9375 66.097656 30.257813 64.167969 26.441406 C 63.820313 25.714844 62.945313 25.402344 62.214844 25.753906 C 62.183594 25.765625 62.15625 25.777344 62.125 25.800781 L 61 26.386719 Z M 67.65625 39.382813 "/>
<path style=" stroke:none;fill-rule:nonzero;fill:rgb(0%,17.651367%,38.426208%);fill-opacity:1;" d="M 96.167969 33.6875 L 93.859375 33.851563 L 92.785156 15.21875 L 95.257813 15.058594 Z M 96.167969 33.6875 "/>
<path style=" stroke:none;fill-rule:nonzero;fill:rgb(0%,17.651367%,38.426208%);fill-opacity:1;" d="M 123.339844 38.632813 L 124.144531 35.03125 L 121.03125 33.851563 L 119.152344 37.019531 L 116.949219 36.160156 L 126.882813 19.996094 L 129.191406 20.855469 L 125.648438 39.488281 Z M 125.917969 25.902344 L 125.808594 25.847656 L 121.996094 32.136719 L 124.519531 33.046875 Z M 125.917969 25.902344 "/>
<path style=" stroke:none;fill-rule:nonzero;fill:rgb(0%,17.651367%,38.426208%);fill-opacity:1;" d="M 151.046875 45.882813 L 143.851563 52.644531 L 142.292969 51.03125 L 155.878906 38.257813 L 156.683594 39.113281 L 152.226563 49.316406 L 159.691406 42.28125 L 161.195313 43.890625 L 147.609375 56.675781 L 146.75 55.761719 Z M 151.046875 45.882813 "/>
<path style=" stroke:none;fill-rule:nonzero;fill:rgb(0%,17.651367%,38.426208%);fill-opacity:1;" d="M 160.335938 80.566406 L 163.609375 78.902344 L 162.539063 75.734375 L 158.886719 76.324219 L 158.132813 74.066406 L 176.980469 71.546875 L 177.785156 73.855469 L 161.140625 82.929688 Z M 171.878906 74.605469 L 171.773438 74.445313 L 164.523438 75.46875 L 165.382813 77.988281 Z M 171.878906 74.605469 "/>
<path style=" stroke:none;fill-rule:nonzero;fill:rgb(0%,17.651367%,38.426208%);fill-opacity:1;" d="M 24.378906 138.34375 L 23.25 136.195313 L 39.734375 127.65625 L 42.472656 132.867188 C 43.011719 133.9375 42.742188 134.746094 41.9375 135.179688 C 38.984375 136.679688 37.480469 137.484375 34.527344 139.039063 C 33.730469 139.503906 32.714844 139.144531 32.378906 138.289063 L 30.714844 135.066406 Z M 32.484375 134.101563 L 33.828125 136.628906 L 40.433594 133.136719 L 39.089844 130.609375 Z M 32.484375 134.101563 "/>
<path style=" stroke:none;fill-rule:nonzero;fill:rgb(0%,17.651367%,38.426208%);fill-opacity:1;" d="M 48.96875 167.980469 L 50.796875 164.761719 L 48.113281 162.667969 L 45.371094 165.085938 L 43.546875 163.636719 L 57.832031 151.179688 L 59.761719 152.734375 L 50.902344 169.484375 Z M 55.359375 156.597656 L 55.253906 156.4375 L 49.777344 161.269531 L 51.871094 162.933594 Z M 55.359375 156.597656 "/>
<path style=" stroke:none;fill-rule:nonzero;fill:rgb(0%,17.651367%,38.426208%);fill-opacity:1;" d="M 82.046875 176.304688 L 84.410156 176.894531 L 83.230469 181.679688 C 83.058594 182.476563 82.273438 182.988281 81.46875 182.816406 C 81.449219 182.8125 81.425781 182.808594 81.402344 182.804688 C 79.738281 182.429688 78.609375 182.105469 76.890625 181.679688 C 76.078125 181.492188 75.5625 180.683594 75.746094 179.867188 C 75.753906 179.84375 75.757813 179.820313 75.765625 179.796875 C 77.214844 173.890625 78.019531 170.613281 79.46875 164.710938 C 79.640625 163.90625 80.425781 163.394531 81.226563 163.5625 C 81.25 163.566406 81.273438 163.578125 81.296875 163.582031 C 82.960938 163.960938 84.140625 164.335938 85.859375 164.710938 C 86.671875 164.921875 87.15625 165.761719 86.9375 166.566406 L 86.933594 166.589844 L 86.019531 170.34375 L 83.65625 169.808594 L 84.464844 166.480469 L 81.671875 165.839844 L 78.234375 180.011719 L 81.027344 180.65625 Z M 82.046875 176.304688 "/>
<path style=" stroke:none;fill-rule:nonzero;fill:rgb(0%,17.651367%,38.426208%);fill-opacity:1;" d="M 116.359375 182.695313 L 110.34375 183.828125 L 107.125 165.460938 L 113.03125 164.386719 L 113.351563 166.371094 L 109.753906 166.964844 L 110.828125 172.976563 L 114.210938 172.386719 L 114.535156 174.371094 L 111.203125 174.964844 L 112.386719 181.351563 L 115.929688 180.761719 Z M 116.359375 182.695313 "/>
<path style=" stroke:none;fill-rule:nonzero;fill:rgb(0%,17.651367%,38.426208%);fill-opacity:1;" d="M 143.796875 170.988281 L 141.757813 172.277344 L 131.285156 156.867188 L 136.386719 153.382813 C 137.085938 152.773438 138.167969 152.984375 138.589844 153.804688 C 140.039063 155.902344 141.003906 157.296875 142.453125 159.445313 C 143.027344 160.152344 142.820313 161.207031 142.027344 161.644531 L 141.757813 161.859375 L 148.578125 167.71875 L 146.375 169.21875 L 138.695313 162.457031 L 138.644531 161.59375 L 140.253906 160.519531 L 136.871094 155.582031 L 134.347656 157.296875 Z M 143.796875 170.988281 "/>
<path style=" stroke:none;fill-rule:nonzero;fill:rgb(0%,17.651367%,38.426208%);fill-opacity:1;" d="M 162.753906 142.851563 L 166.457031 145.21875 L 167.53125 143.496094 L 163.933594 141.1875 L 157.007813 141.5625 C 156.578125 141.617188 156.140625 141.523438 155.773438 141.296875 C 154.429688 140.4375 153.839844 140.011719 152.335938 139.148438 C 151.65625 138.71875 151.457031 137.816406 151.886719 137.136719 L 151.90625 137.105469 C 152.605469 135.871094 153.246094 134.964844 154 133.777344 C 154.421875 133.023438 155.410156 132.820313 156.09375 133.347656 L 159.371094 135.441406 L 158.082031 137.429688 L 155.234375 135.605469 L 154.160156 137.378906 L 156.953125 139.09375 L 163.558594 138.664063 C 164.140625 138.59375 164.730469 138.722656 165.222656 139.039063 C 166.941406 140.167969 167.53125 140.488281 169.355469 141.617188 C 170.058594 142.039063 170.296875 142.945313 169.894531 143.65625 C 169.140625 144.894531 168.550781 145.804688 167.746094 146.988281 C 167.320313 147.730469 166.335938 147.933594 165.652344 147.417969 L 161.570313 144.785156 Z M 162.753906 142.851563 "/>
<path style=" stroke:none;fill-rule:nonzero;fill:rgb(74.414063%,75.389099%,76.171875%);fill-opacity:1;" d="M 80.4375 64.347656 L 65.078125 133.9375 L 95.472656 133.9375 C 95.472656 133.9375 98.855469 120.089844 99.121094 118.851563 L 112.277344 118.851563 C 122.15625 118.90625 130.210938 115.578125 135.636719 109.183594 C 145.570313 98.390625 143.851563 82.660156 136.386719 73.640625 C 131.066406 67.1875 123.109375 63.496094 114.746094 63.597656 L 80.597656 63.597656 Z M 80.4375 64.347656 "/>
<path style=" stroke:none;fill-rule:nonzero;fill:rgb(0%,17.651367%,38.426208%);fill-opacity:1;" d="M 96.921875 116.113281 L 93.269531 131.203125 L 68.515625 131.203125 L 82.800781 66.445313 L 114.695313 66.445313 C 122.253906 66.328125 129.449219 69.675781 134.238281 75.519531 C 141.328125 84.054688 142.027344 98.285156 133.542969 107.46875 C 128.332031 113.535156 120.65625 116.273438 112.277344 116.164063 Z M 96.921875 116.113281 "/>
<path style=" stroke:none;fill-rule:nonzero;fill:rgb(99.21875%,73.242188%,18.821716%);fill-opacity:1;" d="M 79.46875 81.261719 L 93.429688 81.261719 C 95.042969 81.261719 96.761719 82.554688 96.0625 84.644531 C 95.578125 85.984375 95.234375 87.371094 95.042969 88.78125 C 94.933594 89.804688 96.117188 90.503906 96.761719 90.503906 L 125.273438 90.503906 C 125.808594 90.503906 126.078125 90.34375 126.078125 90.070313 C 126.089844 89.460938 126.035156 88.84375 125.917969 88.242188 C 125.808594 87.652344 125.753906 87.492188 125.21875 87.492188 C 121.675781 87.492188 120.226563 85.886719 116.464844 83.519531 C 112.761719 81.101563 107.285156 79.710938 102.558594 79.710938 L 79.683594 79.710938 Z M 79.46875 81.261719 "/>
<path style=" stroke:none;fill-rule:nonzero;fill:rgb(99.21875%,73.242188%,18.821716%);fill-opacity:1;" d="M 96.761719 99.679688 C 96.261719 98.554688 95.847656 97.386719 95.523438 96.191406 C 95.203125 94.742188 93.914063 93.558594 91.710938 93.558594 L 76.730469 93.558594 L 77.160156 91.894531 L 125.753906 91.949219 C 126.183594 91.949219 126.132813 92.164063 126.078125 92.699219 C 126.078125 93.238281 125.917969 94.203125 125.863281 94.796875 C 125.808594 95.4375 125.324219 95.277344 124.898438 95.277344 C 123.363281 95.238281 121.851563 95.648438 120.546875 96.464844 C 118.558594 98.015625 114.210938 100.707031 111.847656 101.398438 C 109.21875 102.152344 99.605469 105.15625 96.761719 99.679688 Z M 96.761719 99.679688 "/>
<path style=" stroke:none;fill-rule:nonzero;fill:rgb(99.21875%,73.242188%,18.821716%);fill-opacity:1;" d="M 74.101563 105.804688 L 99.445313 105.804688 C 100.460938 105.765625 101.464844 106.066406 102.289063 106.660156 C 104.644531 108.464844 107.324219 109.792969 110.183594 110.585938 C 111.472656 111.011719 113.78125 110.472656 115.820313 109.347656 C 120.871094 106.445313 124.144531 101.023438 125.273438 97.480469 C 125.539063 96.566406 125.003906 96.621094 124.359375 96.679688 C 122.210938 96.839844 119.957031 98.769531 117.003906 100.707031 C 113.996094 102.527344 108.035156 104.351563 102.289063 104.351563 L 74.476563 104.351563 Z M 74.101563 105.804688 "/>
<path style=" stroke:none;fill-rule:nonzero;fill:rgb(99.21875%,73.242188%,18.821716%);fill-opacity:1;" d="M 111.363281 71.8125 C 112.132813 71.671875 112.921875 71.703125 113.675781 71.925781 C 118.558594 73.855469 123.070313 78.847656 125.003906 84.164063 C 125.378906 85.238281 125.488281 85.828125 125.003906 85.886719 C 122.800781 86.148438 121.835938 85.023438 119.152344 83.304688 C 116.613281 81.566406 113.824219 80.226563 110.882813 79.335938 C 107.605469 78.308594 101.699219 78.09375 101 78.09375 C 100.25 78.09375 100.304688 77.773438 100.625 77.449219 C 103.53125 74.503906 107.285156 72.527344 111.363281 71.8125 Z M 111.363281 71.8125 "/>
<path style=" stroke:none;fill-rule:nonzero;fill:rgb(99.21875%,73.242188%,18.821716%);fill-opacity:1;" d="M 134.453125 90.070313 C 134.4375 90.328125 134.230469 90.535156 133.972656 90.554688 L 128.386719 90.554688 C 127.6875 90.554688 127.6875 90.230469 127.6875 89.804688 C 127.574219 89.234375 127.519531 88.660156 127.527344 88.085938 C 127.527344 87.652344 127.3125 87.117188 127.957031 86.847656 C 129.488281 86.066406 130.757813 84.851563 131.609375 83.359375 C 131.769531 82.929688 132.144531 82.230469 132.519531 82.820313 C 133.917969 84.914063 134.347656 87.492188 134.453125 90.070313 Z M 134.453125 90.070313 "/>
<path style=" stroke:none;fill-rule:nonzero;fill:rgb(99.21875%,73.242188%,18.821716%);fill-opacity:1;" d="M 132.46875 100.058594 C 132.414063 100.273438 131.984375 100.433594 131.929688 100.058594 C 131.136719 98.164063 129.6875 96.621094 127.851563 95.710938 C 127.472656 95.492188 127.472656 95.222656 127.472656 94.796875 C 127.527344 94.421875 127.6875 93.132813 127.742188 92.648438 C 127.742188 92.21875 127.957031 91.894531 128.28125 91.894531 L 134.078125 91.894531 C 134.238281 91.894531 134.507813 92.109375 134.507813 92.21875 C 134.421875 94.949219 133.726563 97.632813 132.46875 100.058594 Z M 132.46875 100.058594 "/>
<path style=" stroke:none;fill-rule:nonzero;fill:rgb(99.21875%,73.242188%,18.821716%);fill-opacity:1;" d="M 117.433594 110.902344 C 117.003906 111.011719 116.089844 110.851563 117.488281 110.042969 C 121.675781 107.578125 125.488281 101.886719 126.453125 98.554688 C 126.882813 97.265625 126.882813 97.214844 127.421875 97.371094 C 128.425781 97.824219 129.28125 98.554688 129.890625 99.46875 C 130.640625 100.539063 131.019531 102.6875 130.535156 103.226563 C 127.359375 107.421875 122.644531 110.183594 117.433594 110.902344 Z M 117.433594 110.902344 "/>
<path style=" stroke:none;fill-rule:nonzero;fill:rgb(99.21875%,73.242188%,18.821716%);fill-opacity:1;" d="M 128.117188 84.96875 C 127.152344 85.507813 126.9375 85.34375 126.722656 84.644531 C 124.898438 78.261719 119.472656 73.476563 117.273438 72.027344 C 116.894531 71.8125 116.949219 71.597656 117.273438 71.652344 C 122.535156 72.402344 127.742188 75.253906 130.320313 79.171875 C 131.875 81.429688 129.085938 84.429688 128.117188 84.96875 Z M 128.117188 84.96875 "/>
</g>
</svg>
