<?xml version="1.0" encoding="UTF-8"?>
<svg xmlns="http://www.w3.org/2000/svg" xmlns:xlink="http://www.w3.org/1999/xlink" width="206pt" height="158pt" viewBox="0 0 206 158" version="1.1">
<g id="surface1">
<path style=" stroke:none;fill-rule:nonzero;fill:rgb(0%,0%,0%);fill-opacity:1;" d="M 2.976563 68.347656 C 1 70.136719 -0.0859375 72.710938 0.00390625 75.367188 L 0.00390625 126.9375 C -0.0859375 129.632813 0.996094 132.222656 2.976563 134.046875 C 4.957031 135.839844 7.621094 136.65625 10.265625 136.296875 C 14.945313 135.9375 19.535156 135.582031 24.125 135.21875 L 24.125 125.503906 C 19.535156 125.769531 14.945313 126.039063 10.265625 126.308594 L 10.265625 76.003906 C 14.945313 76.269531 19.535156 76.539063 24.125 76.808594 L 24.125 67.003906 C 19.535156 66.636719 14.945313 66.277344 10.265625 65.917969 C 7.59375 65.609375 4.925781 66.503906 2.976563 68.347656 Z M 2.976563 68.347656 "/>
<path style=" stroke:none;fill-rule:nonzero;fill:rgb(0%,0%,0%);fill-opacity:1;" d="M 36.546875 67.808594 C 33.125 67.539063 29.707031 67.359375 26.285156 67.09375 L 26.285156 135.132813 C 33.753906 134.59375 41.316406 134.136719 48.785156 133.777344 L 48.785156 124.417969 C 44.734375 124.597656 40.59375 124.6875 36.546875 124.867188 Z M 36.546875 67.808594 "/>
<path style=" stroke:none;fill-rule:nonzero;fill:rgb(0%,0%,0%);fill-opacity:1;" d="M 50.765625 133.6875 C 54.277344 133.511719 57.875 133.332031 61.296875 133.238281 L 61.296875 68.976563 C 57.875 68.886719 54.277344 68.710938 50.765625 68.527344 Z M 50.765625 133.6875 "/>
<path style=" stroke:none;fill-rule:nonzero;fill:rgb(0%,0%,0%);fill-opacity:1;" d="M 80.824219 96.609375 L 73.714844 96.609375 L 73.714844 78.519531 C 76.144531 78.519531 78.394531 78.519531 80.824219 78.609375 Z M 80.824219 69.519531 C 74.976563 69.429688 69.214844 69.253906 63.367188 69.066406 L 63.367188 133.148438 C 66.875 132.96875 70.296875 132.882813 73.714844 132.789063 L 73.714844 105.609375 L 80.824219 105.609375 C 83.464844 105.652344 86.027344 104.722656 88.027344 103.003906 C 89.992188 101.496094 91.15625 99.171875 91.175781 96.703125 L 91.175781 78.703125 C 91.15625 76.222656 89.992188 73.898438 88.027344 72.398438 C 86.078125 70.558594 83.503906 69.527344 80.824219 69.519531 Z M 80.824219 69.519531 "/>
<path style=" stroke:none;fill-rule:nonzero;fill:rgb(0%,0%,0%);fill-opacity:1;" d="M 157.777344 77.796875 C 160.117188 77.710938 162.367188 77.617188 164.796875 77.4375 L 164.796875 96.34375 C 162.457031 96.34375 160.117188 96.429688 157.777344 96.429688 Z M 171.996094 103.09375 C 173.933594 101.386719 175.019531 98.917969 174.964844 96.34375 L 174.964844 77.082031 C 175.015625 74.550781 173.925781 72.136719 171.996094 70.511719 C 170.015625 68.710938 167.371094 67.828125 164.707031 68.082031 C 158.945313 68.4375 153.183594 68.710938 147.425781 68.886719 L 147.425781 133.332031 C 150.84375 133.417969 154.265625 133.597656 157.777344 133.777344 L 157.777344 106.058594 C 160.566406 115.332031 163.445313 124.6875 166.324219 134.226563 C 169.746094 134.503906 173.164063 134.59375 176.585938 134.859375 C 173.617188 124.867188 170.554688 115.058594 167.585938 105.429688 C 169.25 105.09375 170.78125 104.277344 171.996094 103.09375 Z M 171.996094 103.09375 "/>
<path style=" stroke:none;fill-rule:nonzero;fill:rgb(0%,0%,0%);fill-opacity:1;" d="M 110.527344 96.609375 L 103.503906 96.609375 L 103.503906 78.699219 L 110.527344 78.699219 Z M 110.527344 69.703125 C 104.765625 69.789063 98.914063 69.789063 93.15625 69.703125 L 93.15625 132.519531 C 96.574219 132.429688 100.085938 132.429688 103.503906 132.429688 L 103.503906 105.519531 L 110.527344 105.519531 C 113.183594 105.609375 115.78125 104.714844 117.816406 103.003906 C 119.734375 101.390625 120.855469 99.023438 120.875 96.519531 L 120.875 78.519531 C 120.871094 76.0625 119.746094 73.742188 117.816406 72.21875 C 115.761719 70.542969 113.175781 69.648438 110.527344 69.703125 Z M 110.527344 69.703125 "/>
<path style=" stroke:none;fill-rule:nonzero;fill:rgb(0%,0%,0%);fill-opacity:1;" d="M 122.945313 132.609375 C 130.503906 132.703125 138.066406 132.96875 145.535156 133.238281 L 145.535156 124.058594 C 141.484375 123.96875 137.34375 123.789063 133.296875 123.789063 L 133.296875 105.609375 C 135.726563 105.609375 139.867188 105.609375 142.117188 105.703125 L 142.117188 96.519531 C 139.777344 96.519531 135.636719 96.519531 133.296875 96.609375 L 133.296875 78.429688 C 137.433594 78.34375 141.484375 78.253906 145.535156 78.160156 L 145.535156 68.976563 C 137.976563 69.253906 130.414063 69.519531 122.945313 69.609375 Z M 122.945313 132.609375 "/>
<path style=" stroke:none;fill-rule:nonzero;fill:rgb(0%,0%,0%);fill-opacity:1;" d="M 205.835938 85.632813 L 205.835938 75.277344 C 205.9375 72.621094 204.808594 70.066406 202.777344 68.347656 C 200.867188 66.488281 198.21875 65.59375 195.574219 65.917969 C 192.695313 66.097656 189.816406 66.367188 186.933594 66.546875 C 184.164063 66.738281 181.5625 67.960938 179.644531 69.96875 C 177.730469 71.796875 176.652344 74.34375 176.675781 76.988281 L 176.675781 96.253906 C 176.621094 98.851563 177.707031 101.351563 179.644531 103.09375 C 181.59375 104.980469 184.21875 106.019531 186.933594 105.96875 C 189.816406 106.058594 192.695313 106.058594 195.574219 106.148438 L 195.574219 126.21875 C 192.695313 126.039063 189.816406 125.953125 186.933594 125.769531 L 186.933594 115.867188 L 176.675781 115.597656 L 176.675781 125.226563 C 176.652344 127.882813 177.730469 130.417969 179.644531 132.253906 C 181.546875 134.269531 184.164063 135.464844 186.933594 135.582031 C 189.816406 135.847656 192.695313 136.027344 195.574219 136.296875 C 198.199219 136.566406 200.8125 135.71875 202.777344 133.960938 C 204.828125 132.179688 205.957031 129.5625 205.835938 126.847656 L 205.835938 106.238281 C 205.902344 103.484375 204.789063 100.835938 202.777344 98.953125 C 200.898438 97.003906 198.277344 95.957031 195.574219 96.066406 C 192.695313 96.066406 189.816406 96.066406 186.933594 96.160156 L 186.933594 76.453125 L 195.574219 75.910156 L 195.574219 85.988281 C 198.996094 85.898438 202.414063 85.71875 205.835938 85.632813 Z M 205.835938 85.632813 "/>
<path style=" stroke:none;fill-rule:nonzero;fill:rgb(74.414063%,75.389099%,76.171875%);fill-opacity:1;" d="M 10.894531 67.003906 C 14.945313 67.359375 19.175781 67.71875 23.496094 67.988281 L 23.496094 67.632813 C 19.085938 67.269531 14.675781 67.003906 10.265625 66.636719 C 9.941406 66.5625 9.609375 66.535156 9.277344 66.546875 C 7.105469 66.496094 5.003906 67.304688 3.425781 68.796875 C 1.621094 70.503906 0.640625 72.890625 0.726563 75.367188 L 0.726563 126.9375 C 0.644531 128.957031 1.28125 130.929688 2.527344 132.519531 C 1.609375 131.03125 1.140625 129.3125 1.175781 127.566406 L 1.175781 76.003906 C 1.078125 73.476563 2.101563 71.039063 3.964844 69.34375 C 5.507813 67.785156 7.625 66.9375 9.816406 67.003906 Z M 10.894531 67.003906 "/>
<path style=" stroke:none;fill-rule:nonzero;fill:rgb(74.414063%,75.389099%,76.171875%);fill-opacity:1;" d="M 35.824219 68.886719 L 35.824219 68.4375 C 32.855469 68.347656 29.886719 68.082031 26.914063 67.898438 L 26.914063 134.410156 L 27.367188 134.316406 L 27.367188 68.347656 C 30.15625 68.4375 32.945313 68.617188 35.824219 68.886719 Z M 35.824219 68.886719 "/>
<path style=" stroke:none;fill-rule:nonzero;fill:rgb(74.414063%,75.389099%,76.171875%);fill-opacity:1;" d="M 60.664063 70.058594 L 60.664063 69.609375 C 57.695313 69.519531 54.546875 69.34375 51.574219 69.253906 L 51.574219 132.882813 L 52.027344 132.882813 L 52.027344 69.703125 C 54.816406 69.789063 57.695313 69.96875 60.664063 70.058594 Z M 60.664063 70.058594 "/>
<path style=" stroke:none;fill-rule:nonzero;fill:rgb(74.414063%,75.389099%,76.171875%);fill-opacity:1;" d="M 81.367188 70.6875 C 83.332031 70.671875 85.261719 71.203125 86.945313 72.21875 C 85.121094 70.933594 82.964844 70.21875 80.734375 70.148438 C 75.246094 70.058594 69.574219 69.882813 64.085938 69.703125 L 64.085938 132.34375 L 64.535156 132.34375 L 64.535156 70.238281 L 64.625 70.238281 C 70.117188 70.417969 75.875 70.597656 81.367188 70.6875 Z M 81.367188 70.6875 "/>
<path style=" stroke:none;fill-rule:nonzero;fill:rgb(74.414063%,75.389099%,76.171875%);fill-opacity:1;" d="M 166.054688 69.160156 C 167.800781 69.121094 169.519531 69.59375 171.003906 70.511719 C 169.453125 69.265625 167.503906 68.628906 165.515625 68.710938 L 164.796875 68.710938 C 159.394531 68.976563 153.726563 69.253906 148.144531 69.519531 L 148.144531 132.703125 L 148.59375 132.703125 L 148.59375 69.96875 C 154.265625 69.789063 159.933594 69.519531 165.425781 69.253906 C 165.625 69.175781 165.839844 69.144531 166.054688 69.160156 Z M 166.054688 69.160156 "/>
<path style=" stroke:none;fill-rule:nonzero;fill:rgb(74.414063%,75.389099%,76.171875%);fill-opacity:1;" d="M 103.59375 70.867188 L 111.246094 70.867188 C 113.214844 70.84375 115.148438 71.367188 116.824219 72.398438 C 115.046875 71.039063 112.851563 70.34375 110.617188 70.417969 L 93.875 70.417969 L 93.875 131.796875 L 94.324219 131.796875 L 94.324219 70.867188 Z M 103.59375 70.867188 "/>
<path style=" stroke:none;fill-rule:nonzero;fill:rgb(74.414063%,75.389099%,76.171875%);fill-opacity:1;" d="M 144.816406 69.703125 C 137.796875 69.96875 130.777344 70.148438 123.664063 70.238281 L 123.664063 131.976563 L 124.117188 131.976563 L 124.117188 70.6875 C 130.957031 70.597656 137.976563 70.417969 144.816406 70.148438 Z M 144.816406 69.703125 "/>
<path style=" stroke:none;fill-rule:nonzero;fill:rgb(74.414063%,75.389099%,76.171875%);fill-opacity:1;" d="M 196.207031 67.003906 L 197.105469 67.003906 C 198.6875 66.960938 200.246094 67.363281 201.605469 68.167969 C 200.121094 67.078125 198.316406 66.507813 196.476563 66.546875 L 195.574219 66.546875 C 192.695313 66.816406 189.816406 67.003906 186.933594 67.269531 C 184.335938 67.402344 181.886719 68.53125 180.09375 70.417969 C 178.285156 72.09375 177.246094 74.433594 177.214844 76.898438 L 177.214844 96.253906 C 177.207031 98.140625 177.839844 99.984375 179.015625 101.46875 C 178.101563 100.085938 177.628906 98.453125 177.664063 96.789063 L 177.664063 77.527344 C 177.632813 75.027344 178.683594 72.636719 180.546875 70.960938 C 182.351563 69.023438 184.835938 67.863281 187.476563 67.71875 C 190.445313 67.539063 193.324219 67.269531 196.207031 67.003906 Z M 196.207031 67.003906 "/>
<path style=" stroke:none;fill-rule:nonzero;fill:rgb(0%,41.967773%,71.289063%);fill-opacity:1;" d="M 0.09375 147.546875 C 68.4375 139.003906 137.582031 139.003906 205.925781 147.546875 L 205.925781 143.953125 C 137.542969 136.027344 68.476563 136.027344 0.09375 143.953125 Z M 0.09375 147.546875 "/>
<path style=" stroke:none;fill-rule:nonzero;fill:rgb(92.96875%,9.008789%,29.80957%);fill-opacity:1;" d="M 24.84375 157 C 76.042969 143.679688 129.796875 143.679688 180.996094 157 L 180.996094 153.667969 C 129.761719 140.617188 76.078125 140.617188 24.84375 153.667969 Z M 24.84375 157 "/>
<path style=" stroke:none;fill-rule:nonzero;fill:rgb(0%,41.967773%,71.289063%);fill-opacity:1;" d="M 82.535156 59.617188 C 54.96875 58.976563 27.453125 56.933594 0.09375 53.503906 L 0.09375 57.097656 C 29.164063 60.519531 58.414063 62.410156 87.753906 62.953125 C 85.957031 61.933594 84.214844 60.820313 82.535156 59.617188 Z M 82.535156 59.617188 "/>
<path style=" stroke:none;fill-rule:nonzero;fill:rgb(0%,41.967773%,71.289063%);fill-opacity:1;" d="M 123.394531 59.617188 C 121.765625 60.867188 120.015625 61.953125 118.175781 62.859375 C 147.425781 62.316406 176.765625 60.429688 205.835938 57.097656 L 205.835938 53.503906 C 178.476563 56.933594 150.960938 58.976563 123.394531 59.617188 Z M 123.394531 59.617188 "/>
<path style=" stroke:none;fill-rule:nonzero;fill:rgb(92.96875%,9.008789%,29.80957%);fill-opacity:1;" d="M 75.695313 52.777344 C 58.539063 51.242188 41.53125 48.324219 24.84375 44.050781 L 24.84375 47.382813 C 42.46875 51.859375 60.445313 54.8125 78.574219 56.199219 C 77.542969 55.121094 76.578125 53.980469 75.695313 52.777344 Z M 75.695313 52.777344 "/>
<path style=" stroke:none;fill-rule:nonzero;fill:rgb(92.96875%,9.008789%,29.80957%);fill-opacity:1;" d="M 130.234375 52.777344 C 129.320313 53.980469 128.328125 55.128906 127.265625 56.199219 C 145.386719 54.730469 163.355469 51.78125 180.996094 47.382813 L 180.996094 44.050781 C 164.339844 48.324219 147.363281 51.242188 130.234375 52.777344 Z M 130.234375 52.777344 "/>
<path style=" stroke:none;fill-rule:nonzero;fill:rgb(100%,100%,100%);fill-opacity:1;" d="M 71.195313 32.261719 C 71.175781 19.425781 78.890625 7.847656 90.738281 2.925781 C 102.585938 -2.007813 116.234375 0.6875 125.320313 9.753906 C 134.40625 18.808594 137.140625 32.449219 132.246094 44.3125 C 127.355469 56.175781 115.796875 63.921875 102.964844 63.9375 C 85.464844 63.910156 71.273438 49.761719 71.195313 32.261719 Z M 71.195313 32.261719 "/>
<path style=" stroke:none;fill-rule:nonzero;fill:rgb(0%,0%,0%);fill-opacity:1;" d="M 125.914063 49.898438 C 122.285156 45.21875 120.210938 39.523438 119.976563 33.609375 L 131.945313 33.609375 C 131.609375 39.519531 129.511719 45.195313 125.914063 49.898438 Z M 104.316406 61.148438 L 104.316406 52.867188 L 101.617188 52.867188 L 101.617188 61.148438 C 94.113281 60.792969 87.046875 57.535156 81.90625 52.058594 C 86.125 46.84375 88.554688 40.402344 88.835938 33.699219 L 88.835938 30.910156 C 88.570313 24.199219 86.140625 17.761719 81.90625 12.550781 C 87.011719 7.015625 94.09375 3.71875 101.617188 3.367188 L 101.617188 11.648438 L 104.316406 11.648438 L 104.316406 3.367188 C 111.832031 3.664063 118.921875 6.933594 124.027344 12.460938 C 119.804688 17.675781 117.375 24.113281 117.09375 30.816406 L 117.09375 33.609375 C 117.359375 40.316406 119.789063 46.761719 124.027344 51.96875 C 118.929688 57.515625 111.84375 60.820313 104.316406 61.148438 Z M 80.015625 49.898438 C 76.386719 45.21875 74.308594 39.523438 74.074219 33.609375 L 86.046875 33.609375 C 85.753906 39.527344 83.648438 45.21875 80.015625 49.898438 Z M 80.015625 14.617188 C 83.605469 19.316406 85.679688 25.003906 85.957031 30.910156 L 73.984375 30.910156 C 74.335938 25.003906 76.433594 19.335938 80.015625 14.617188 Z M 125.914063 14.617188 C 129.507813 19.316406 131.578125 25.003906 131.855469 30.910156 L 119.886719 30.910156 C 120.152344 24.984375 122.261719 19.289063 125.914063 14.617188 Z M 102.964844 0.488281 C 90.132813 0.46875 78.554688 8.183594 73.628906 20.03125 C 68.699219 31.882813 71.394531 45.527344 80.457031 54.613281 C 89.515625 63.703125 103.15625 66.433594 115.019531 61.539063 C 126.882813 56.648438 134.628906 45.09375 134.644531 32.261719 C 134.617188 14.761719 120.464844 0.566406 102.964844 0.488281 Z M 102.964844 0.488281 "/>
<path style=" stroke:none;fill-rule:nonzero;fill:rgb(92.96875%,9.008789%,29.80957%);fill-opacity:1;" d="M 95.855469 18.9375 L 95.855469 45.398438 L 110.074219 45.398438 L 110.074219 41.800781 L 99.726563 41.800781 L 99.726563 18.9375 Z M 95.855469 18.9375 "/>
<path style=" stroke:none;fill-rule:nonzero;fill:rgb(0%,41.967773%,71.289063%);fill-opacity:1;" d="M 114.84375 27.847656 L 114.84375 16.960938 C 114.84375 15.34375 114.125 14.617188 112.59375 14.617188 L 93.335938 14.617188 C 91.714844 14.617188 91.085938 15.34375 91.085938 16.960938 L 91.085938 47.648438 C 91.085938 49.269531 91.714844 49.898438 93.335938 49.898438 L 112.59375 49.898438 C 114.214844 49.898438 114.84375 49.269531 114.84375 47.648438 L 114.84375 36.671875 L 110.976563 36.671875 L 110.976563 46.566406 L 94.867188 46.566406 L 94.867188 17.949219 L 110.976563 17.949219 L 110.976563 27.847656 Z M 114.84375 27.847656 "/>
<path style=" stroke:none;fill-rule:nonzero;fill:rgb(92.96875%,9.008789%,29.80957%);fill-opacity:1;" d="M 106.296875 30.367188 L 104.496094 30.367188 L 104.496094 22.628906 L 106.296875 22.628906 Z M 110.074219 40.808594 L 110.074219 18.9375 L 100.894531 18.9375 L 100.714844 40.808594 L 104.40625 40.808594 L 104.496094 33.96875 L 106.296875 33.96875 L 106.296875 40.808594 Z M 110.074219 40.808594 "/>
</g>
</svg>
