<?xml version="1.0" encoding="UTF-8"?>
<svg xmlns="http://www.w3.org/2000/svg" xmlns:xlink="http://www.w3.org/1999/xlink" width="218pt" height="136pt" viewBox="0 0 218 136" version="1.1">
<g id="surface1">
<path style=" stroke:none;fill-rule:nonzero;fill:rgb(100%,100%,100%);fill-opacity:1;" d="M 47.429688 30.417969 C 47.429688 30.417969 65.96875 0.0898438 103.949219 0.0898438 C 141.929688 0.0898438 159.660156 29.609375 159.660156 29.609375 L 211.140625 29.609375 L 209.070313 42.210938 C 209.070313 42.210938 207.628906 47.25 205.289063 47.789063 L 208.800781 47.789063 C 208.800781 47.789063 209.96875 52.289063 202.949219 67.589844 L 217.980469 67.589844 C 217.980469 67.589844 218.519531 94.410156 186.121094 107.011719 C 186.121094 107.011719 169.378906 112.320313 160.828125 103.230469 C 160.828125 103.230469 143.730469 135 103.949219 135 C 64.171875 135 46.261719 102.328125 46.261719 102.328125 L 0 102.328125 L 7.378906 89.101563 L 2.339844 89.101563 L 8.28125 78.210938 L 18.269531 78.210938 L 19.980469 74.070313 L 15.300781 74.070313 L 26.820313 52.828125 L 33.300781 52.828125 L 35.910156 46.351563 L 30.328125 46.351563 L 38.878906 30.417969 Z M 47.429688 30.417969 "/>
<path style=" stroke:none;fill-rule:nonzero;fill:rgb(99.21875%,72.459412%,15.281677%);fill-opacity:1;" d="M 104.488281 127.890625 C 136.980469 127.890625 163.351563 101.160156 163.351563 68.128906 C 163.351563 35.191406 136.980469 8.460938 104.488281 8.460938 C 72 8.460938 45.628906 35.191406 45.628906 68.128906 C 45.628906 101.160156 72 127.890625 104.488281 127.890625 Z M 104.488281 127.890625 "/>
<path style=" stroke:none;fill-rule:nonzero;fill:rgb(33.325195%,14.501953%,51.367188%);fill-opacity:1;" d="M 110.96875 67.859375 L 108.449219 67.859375 C 108.257813 67.871094 108.101563 68.027344 108.089844 68.21875 C 108.089844 68.398438 108.269531 68.488281 108.449219 68.488281 L 111.058594 68.488281 C 111.960938 68.488281 112.769531 68.578125 112.5 68.941406 L 105.75 81.898438 C 105.234375 83.253906 103.296875 83.195313 102.871094 81.808594 L 99.539063 64.53125 L 111.238281 55.441406 C 112.410156 54.359375 114.660156 52.738281 115.828125 52.738281 L 118.441406 52.738281 C 119.96875 52.738281 120.511719 53.460938 120.148438 54.449219 L 119.699219 55.261719 C 119.429688 55.800781 118.441406 55.890625 117.71875 55.890625 L 116.191406 55.890625 C 116.03125 55.867188 115.898438 56.003906 115.921875 56.160156 C 115.921875 56.339844 116.011719 56.519531 116.191406 56.519531 L 117.71875 56.519531 C 118.351563 56.519531 119.070313 56.519531 118.800781 56.96875 L 113.398438 67.410156 C 113.128906 67.769531 111.960938 67.859375 110.96875 67.859375 Z M 131.308594 74.25 C 125.820313 81 122.761719 83.25 117.179688 83.25 C 115.289063 83.25 114.300781 82.800781 114.75 81.898438 L 121.410156 68.578125 L 123.929688 68.578125 C 126.71875 68.578125 126.359375 70.917969 125.640625 74.160156 C 125.460938 74.609375 125.820313 74.609375 126.179688 74.25 L 132.480469 63.179688 C 132.75 62.460938 131.941406 62.371094 131.578125 62.910156 C 128.429688 67.140625 125.101563 66.871094 123.660156 66.871094 L 122.578125 66.871094 L 129.601563 53.371094 L 132.480469 53.371094 C 136.078125 53.550781 137.699219 56.609375 136.710938 63.988281 L 138.148438 63.988281 L 143.371094 53.730469 C 143.820313 52.828125 142.921875 52.019531 141.929688 52.019531 L 106.648438 52.109375 C 104.578125 52.109375 104.488281 53.640625 106.46875 53.640625 C 108.089844 53.640625 108 55.890625 106.558594 56.96875 L 91.53125 68.941406 L 94.589844 82.980469 C 94.746094 83.96875 95.667969 84.648438 96.660156 84.511719 L 125.820313 84.511719 C 126.664063 84.589844 127.488281 84.210938 127.980469 83.519531 L 133.199219 74.429688 C 133.921875 73.078125 132.300781 73.167969 131.308594 74.25 Z M 131.308594 74.25 "/>
<path style=" stroke:none;fill-rule:nonzero;fill:rgb(33.325195%,14.501953%,51.367188%);fill-opacity:1;" d="M 66.78125 70.46875 L 57.511719 70.46875 L 69.210938 54.988281 Z M 64.621094 80.101563 C 64.351563 81.628906 62.730469 82.710938 60.75 83.25 L 58.679688 83.789063 L 60.390625 80.730469 C 60.839844 79.828125 59.851563 79.378906 58.769531 80.640625 C 51.570313 89.011719 49.230469 93.058594 38.070313 93.058594 L 35.101563 93.058594 C 34.199219 93.058594 33.210938 92.699219 33.839844 91.890625 L 37.800781 84.511719 L 52.738281 84.511719 C 54.71875 84.511719 54.269531 82.980469 53.011719 82.980469 C 52.09375 82.832031 51.277344 82.308594 50.761719 81.539063 C 50.378906 80.859375 50.414063 80.023438 50.851563 79.378906 L 56.519531 71.730469 L 66.058594 71.730469 Z M 86.761719 82.980469 C 86.117188 82.917969 85.558594 82.5 85.320313 81.898438 C 85.027344 81.019531 85.058594 80.0625 85.410156 79.199219 L 99 55.078125 C 99.179688 54.628906 99.808594 53.640625 100.441406 53.640625 C 101.609375 53.640625 102.148438 52.109375 100.171875 52.109375 L 89.191406 52.109375 C 87.210938 52.109375 87.210938 53.640625 89.101563 53.640625 C 89.777344 53.59375 90.261719 54.277344 90 54.898438 L 87.03125 60.390625 C 86.578125 60.929688 85.769531 61.019531 84.871094 61.019531 L 82.351563 61.019531 C 82.171875 61.019531 81.988281 61.109375 81.988281 61.289063 C 82.003906 61.484375 82.15625 61.636719 82.351563 61.648438 L 84.871094 61.648438 C 85.589844 61.648438 86.128906 61.828125 85.769531 62.640625 L 75.691406 81 C 74.96875 81.988281 73.53125 82.167969 73.621094 80.28125 L 77.128906 53.460938 C 77.308594 52.648438 77.128906 52.019531 76.230469 52.019531 L 70.828125 52.019531 C 70.265625 52.023438 69.75 52.335938 69.480469 52.828125 L 67.5 55.167969 C 67.320313 55.441406 66.691406 55.441406 66.148438 55.441406 L 61.648438 55.441406 C 61.457031 55.453125 61.304688 55.605469 61.289063 55.800781 C 61.289063 55.980469 61.46875 56.070313 61.648438 56.070313 L 65.339844 56.070313 C 65.96875 56.070313 66.691406 56.25 66.421875 56.609375 L 61.289063 63.089844 C 60.992188 63.273438 60.648438 63.367188 60.300781 63.359375 L 58.859375 63.359375 C 58.679688 63.359375 58.5 63.449219 58.5 63.628906 C 58.511719 63.824219 58.667969 63.976563 58.859375 63.988281 L 60.03125 63.988281 C 60.390625 63.988281 60.390625 64.167969 60.300781 64.351563 L 55.441406 70.46875 C 55.050781 70.664063 54.617188 70.757813 54.179688 70.738281 L 49.859375 70.738281 C 49.679688 70.738281 49.589844 70.917969 49.589844 71.101563 C 49.566406 71.257813 49.703125 71.390625 49.859375 71.371094 L 53.550781 71.371094 C 54.179688 71.371094 54.539063 71.460938 54.269531 71.910156 L 47.339844 80.550781 C 46.078125 82.261719 39.78125 83.070313 38.519531 83.070313 L 62.011719 39.238281 C 62.394531 38.492188 63.152344 38.011719 63.988281 37.980469 L 68.941406 37.980469 C 71.28125 37.980469 71.28125 36.359375 69.210938 36.359375 L 44.191406 36.359375 C 42.121094 36.359375 42.03125 37.980469 44.460938 37.980469 L 49.050781 37.980469 C 50.398438 37.980469 50.761719 38.699219 50.398438 39.417969 L 49.769531 40.589844 C 49.589844 40.949219 49.230469 41.128906 47.96875 41.128906 L 39.78125 41.128906 C 39.601563 41.128906 39.511719 41.308594 39.511719 41.488281 C 39.488281 41.648438 39.621094 41.78125 39.78125 41.761719 L 47.96875 41.761719 C 48.421875 41.761719 49.050781 41.941406 48.691406 42.75 L 47.519531 44.820313 C 47.339844 45.179688 46.800781 45.269531 46.261719 45.269531 L 42.480469 45.269531 C 42.300781 45.269531 42.210938 45.449219 42.210938 45.628906 C 42.210938 45.808594 42.300781 45.988281 42.480469 45.988281 L 46.171875 45.988281 C 46.710938 45.988281 46.800781 46.351563 46.441406 46.800781 L 43.828125 51.660156 C 43.558594 52.109375 43.199219 52.199219 42.300781 52.199219 L 40.859375 52.199219 C 40.679688 52.199219 40.5 52.289063 40.5 52.46875 C 40.511719 52.664063 40.667969 52.816406 40.859375 52.828125 L 42.300781 52.828125 C 42.839844 52.828125 43.019531 53.101563 42.75 53.640625 L 40.589844 57.691406 C 40.230469 58.230469 39.78125 58.5 38.339844 58.5 L 30.148438 58.5 C 29.992188 58.476563 29.859375 58.613281 29.878906 58.769531 C 29.878906 58.949219 29.96875 59.128906 30.148438 59.128906 L 38.339844 59.128906 C 39.238281 59.128906 39.601563 59.578125 39.238281 60.210938 L 35.011719 68.128906 C 34.738281 68.488281 34.109375 68.578125 32.941406 68.578125 L 24.75 68.578125 C 24.570313 68.578125 24.390625 68.667969 24.390625 68.851563 C 24.402344 69.042969 24.558594 69.195313 24.75 69.210938 L 32.851563 69.210938 C 33.839844 69.210938 34.46875 69.210938 34.199219 69.75 L 31.769531 74.339844 C 31.320313 75.058594 30.058594 75.058594 29.519531 75.058594 L 26.910156 75.058594 C 26.753906 75.039063 26.617188 75.171875 26.640625 75.328125 C 26.640625 75.511719 26.730469 75.691406 26.910156 75.691406 L 29.519531 75.691406 C 30.421875 75.691406 30.871094 75.871094 30.691406 76.320313 L 27.449219 82.441406 C 27.089844 82.980469 25.828125 82.980469 24.839844 82.980469 L 12.238281 82.980469 C 12.046875 82.992188 11.894531 83.148438 11.878906 83.339844 C 11.878906 83.519531 12.058594 83.609375 12.238281 83.609375 L 24.839844 83.609375 C 25.738281 83.609375 26.730469 83.789063 26.371094 84.417969 L 24.300781 88.289063 C 24.121094 88.648438 23.398438 88.648438 22.320313 88.648438 L 19.800781 88.648438 C 19.605469 88.664063 19.453125 88.816406 19.441406 89.011719 C 19.441406 89.191406 19.621094 89.28125 19.800781 89.28125 L 22.320313 89.28125 C 22.949219 89.28125 23.761719 89.371094 23.488281 89.910156 L 22.140625 92.339844 C 21.835938 93.058594 21.121094 93.523438 20.339844 93.511719 L 13.949219 93.511719 C 11.609375 93.511719 11.699219 95.128906 13.769531 95.128906 L 51.03125 95.128906 C 52.109375 95.128906 52.199219 94.949219 52.648438 94.140625 L 58.230469 84.511719 L 86.488281 84.511719 C 88.46875 84.511719 88.019531 82.980469 86.761719 82.980469 Z M 86.761719 82.980469 "/>
<path style=" stroke:none;fill-rule:nonzero;fill:rgb(33.325195%,14.501953%,51.367188%);fill-opacity:1;" d="M 158.941406 65.25 C 157.949219 66.148438 156.328125 67.050781 155.96875 66.78125 C 155.195313 66.117188 154.351563 65.542969 153.449219 65.070313 L 159.570313 53.910156 C 159.828125 53.523438 160.28125 53.316406 160.738281 53.371094 C 163.171875 53.371094 163.890625 55.890625 162.808594 59.128906 C 162 61.378906 160.738281 63.808594 158.941406 65.25 Z M 208.078125 75.238281 C 207.898438 74.519531 207.628906 74.96875 207.179688 75.871094 C 207 76.230469 206.550781 76.230469 206.011719 76.230469 L 204.570313 76.230469 C 204.40625 76.238281 204.261719 76.34375 204.210938 76.5 C 204.191406 76.707031 204.363281 76.878906 204.570313 76.859375 L 206.011719 76.859375 C 206.550781 76.859375 206.550781 77.21875 206.28125 77.761719 C 205.378906 79.746094 204.195313 81.597656 202.769531 83.25 C 202.460938 83.558594 202.035156 83.71875 201.601563 83.699219 L 200.070313 83.789063 C 199.890625 83.789063 199.710938 83.878906 199.710938 84.058594 C 199.722656 84.253906 199.875 84.40625 200.070313 84.417969 L 201.511719 84.417969 C 202.320313 84.417969 201.511719 84.871094 201.421875 85.050781 C 199.621094 87.507813 197.503906 89.71875 195.121094 91.621094 C 194.4375 91.75 193.742188 91.78125 193.050781 91.710938 L 191.519531 91.710938 C 191.339844 91.710938 191.25 91.890625 191.25 92.070313 C 191.226563 92.226563 191.363281 92.363281 191.519531 92.339844 L 193.050781 92.429688 C 194.128906 92.429688 193.320313 93.058594 193.140625 93.148438 C 189.089844 96.570313 182.96875 97.648438 180.269531 97.289063 C 171.269531 96.210938 169.378906 89.371094 168.75 86.578125 C 168.445313 85.789063 168.203125 84.976563 168.03125 84.148438 C 167.761719 82.710938 171.808594 82.351563 172.890625 83.070313 C 174.601563 84.238281 178.558594 85.410156 181.710938 85.410156 C 184.589844 85.410156 190.441406 83.339844 192.148438 78.390625 C 193.949219 73.261719 189.539063 67.679688 187.558594 65.699219 C 185.128906 63.269531 182.789063 59.308594 183.78125 56.429688 C 184.5 54.269531 185.761719 53.28125 188.371094 53.28125 C 191.878906 53.28125 194.308594 55.441406 194.308594 58.589844 C 194.308594 58.859375 194.21875 59.21875 193.949219 59.21875 L 192.78125 59.21875 C 192.585938 59.234375 192.433594 59.386719 192.421875 59.578125 C 192.421875 59.761719 192.601563 59.851563 192.78125 59.851563 L 193.859375 59.851563 C 194.199219 59.828125 194.441406 60.167969 194.308594 60.480469 C 194.128906 61.558594 194.039063 62.28125 193.769531 63.359375 C 193.679688 63.988281 194.578125 64.351563 194.851563 63.898438 L 200.25 54.269531 C 200.699219 53.550781 199.800781 53.371094 199.171875 53.550781 C 197.640625 54.089844 195.300781 54.449219 194.398438 53.820313 C 192.515625 52.296875 190.164063 51.46875 187.738281 51.480469 C 182.96875 51.480469 179.550781 52.648438 177.390625 56.609375 C 177.210938 56.878906 176.761719 56.878906 176.398438 56.878906 L 175.410156 56.878906 C 175.230469 56.878906 175.140625 57.058594 175.140625 57.238281 C 175.140625 57.417969 175.230469 57.601563 175.410156 57.601563 L 176.21875 57.511719 C 176.578125 57.511719 176.761719 57.691406 176.578125 58.050781 C 176.488281 58.410156 176.308594 58.769531 176.21875 59.128906 C 175.707031 61.226563 175.867188 63.429688 176.671875 65.429688 C 176.761719 65.519531 176.578125 65.609375 176.21875 65.609375 L 174.78125 65.609375 C 174.585938 65.621094 174.433594 65.777344 174.421875 65.96875 C 174.421875 66.148438 174.601563 66.238281 174.78125 66.238281 L 176.21875 66.238281 C 176.941406 66.238281 177.03125 66.328125 177.300781 66.691406 C 178.109375 67.769531 178.921875 68.578125 179.820313 69.839844 C 180.179688 70.199219 178.828125 70.289063 178.109375 70.289063 L 172.351563 70.289063 C 172.152344 70.289063 171.988281 70.449219 171.988281 70.648438 C 171.988281 70.847656 172.152344 71.011719 172.351563 71.011719 L 178.199219 71.011719 C 179.191406 71.011719 180.808594 70.917969 180.988281 71.191406 C 182.429688 72.808594 184.140625 75.328125 184.410156 77.488281 C 184.5 78.121094 184.230469 78.390625 183.511719 78.390625 L 182.699219 78.390625 C 182.542969 78.367188 182.40625 78.503906 182.429688 78.660156 C 182.429688 78.839844 182.519531 79.019531 182.699219 79.019531 L 183.421875 79.019531 C 184.050781 79.019531 184.320313 79.109375 184.230469 79.558594 C 183.421875 81.988281 182.339844 83.789063 177.660156 83.699219 C 172.710938 83.699219 171.71875 78.929688 173.160156 73.890625 C 173.429688 72.898438 173.160156 72.449219 172.710938 73.261719 L 169.289063 78.660156 C 169.054688 78.902344 168.726563 79.03125 168.390625 79.019531 L 167.941406 79.019531 C 167.742188 79.019531 167.578125 79.179688 167.578125 79.378906 C 167.578125 79.578125 167.742188 79.738281 167.941406 79.738281 C 168.300781 79.738281 168.480469 79.917969 168.300781 80.191406 L 167.039063 82.078125 C 165.101563 77.613281 162.65625 73.386719 159.75 69.480469 L 159.75 69.390625 C 164.339844 69.121094 171 64.890625 172.078125 61.109375 C 173.96875 54.449219 167.578125 52.019531 164.070313 52.019531 L 148.769531 52.019531 C 146.699219 52.019531 146.609375 53.640625 148.5 53.640625 C 149.578125 53.640625 150.480469 54.539063 150.03125 55.441406 L 146.609375 61.558594 C 146.339844 62.101563 145.351563 62.101563 143.910156 62.101563 L 142.46875 62.101563 C 142.289063 62.101563 142.109375 62.191406 142.109375 62.371094 C 142.125 62.5625 142.277344 62.714844 142.46875 62.730469 L 143.910156 62.730469 C 144.898438 62.730469 145.980469 62.730469 145.621094 63.449219 L 141.570313 70.738281 C 141.390625 71.101563 140.851563 71.101563 139.5 71.101563 L 138.058594 71.101563 C 137.867188 71.113281 137.714844 71.265625 137.699219 71.460938 C 137.699219 71.640625 137.878906 71.730469 138.058594 71.730469 L 139.5 71.730469 C 140.578125 71.730469 140.941406 71.910156 140.671875 72.449219 L 135.269531 82.167969 C 134.640625 82.890625 133.921875 82.980469 132.570313 82.980469 C 130.589844 82.980469 130.679688 84.511719 132.660156 84.511719 L 145.800781 84.511719 C 147.871094 84.511719 147.328125 82.980469 146.160156 82.980469 C 145.441406 82.980469 144.71875 81.628906 145.171875 80.910156 L 151.828125 68.128906 L 152.550781 68.128906 C 155.519531 68.128906 156.238281 73.078125 156.78125 78.390625 C 156.871094 78.75 156.148438 78.839844 154.621094 78.839844 L 150.929688 78.839844 C 150.75 78.839844 150.570313 78.929688 150.570313 79.109375 C 150.582031 79.304688 150.738281 79.457031 150.929688 79.46875 L 154.621094 79.46875 C 155.609375 79.46875 156.960938 79.46875 156.960938 79.828125 C 157.132813 81.917969 157.433594 83.988281 157.859375 86.039063 C 158.039063 86.667969 156.960938 86.578125 155.878906 86.578125 L 151.109375 86.578125 C 150.917969 86.59375 150.761719 86.746094 150.75 86.941406 C 150.75 87.121094 150.929688 87.210938 151.109375 87.210938 L 155.878906 87.210938 C 157.320313 87.210938 158.128906 87.210938 158.21875 87.570313 C 160.199219 95.039063 169.019531 100.980469 177.480469 100.621094 C 184.859375 100.351563 190.980469 96.390625 194.128906 93.78125 C 198.359375 90.449219 204.570313 83.339844 207.089844 78.210938 C 207.539063 77.308594 208.261719 76.050781 208.078125 75.238281 Z M 208.078125 75.238281 "/>
<path style=" stroke:none;fill-rule:nonzero;fill:rgb(33.325195%,14.501953%,51.367188%);fill-opacity:1;" d="M 84.960938 42.210938 C 83.804688 43.578125 82.066406 44.3125 80.28125 44.191406 L 79.738281 44.191406 L 82.980469 37.800781 C 83.152344 37.460938 83.5 37.253906 83.878906 37.261719 C 84.328125 37.261719 84.238281 36.449219 83.699219 36.449219 L 78.660156 36.449219 C 78.210938 36.449219 78.03125 37.261719 78.480469 37.261719 C 78.929688 37.261719 78.929688 37.710938 78.75 38.160156 L 75.871094 43.828125 C 75.632813 44.082031 75.3125 44.242188 74.96875 44.28125 C 74.519531 44.460938 74.25 45.179688 74.789063 45.179688 L 82.890625 45.179688 C 83.519531 45.179688 83.699219 45 83.789063 44.730469 L 85.5 42.210938 C 85.679688 41.941406 85.230469 41.851563 84.960938 42.210938 Z M 84.960938 42.210938 "/>
<path style=" stroke:none;fill-rule:nonzero;fill:rgb(33.325195%,14.501953%,51.367188%);fill-opacity:1;" d="M 109.441406 36.628906 C 109.117188 36.855469 108.683594 36.855469 108.359375 36.628906 C 107.597656 36.082031 106.6875 35.769531 105.75 35.730469 C 103.859375 35.730469 102.511719 36.089844 101.609375 37.890625 C 100.980469 39.417969 101.699219 40.769531 103.320313 41.488281 C 104.128906 41.851563 105.03125 42.300781 104.671875 43.199219 C 104.398438 43.828125 103.679688 43.917969 102.960938 43.917969 C 102.058594 43.828125 100.710938 43.199219 100.53125 41.941406 C 100.441406 41.488281 99.988281 41.578125 99.808594 41.851563 L 98.640625 44.101563 C 98.460938 44.460938 98.910156 44.730469 99.179688 44.550781 C 99.601563 44.113281 100.257813 44.003906 100.800781 44.28125 C 101.679688 44.890625 102.703125 45.261719 103.769531 45.359375 C 105.476563 45.503906 107.117188 44.667969 108 43.199219 C 108.988281 41.667969 108.359375 40.140625 106.648438 39.328125 C 105.660156 38.878906 104.851563 38.070313 105.300781 37.261719 C 105.570313 36.71875 106.378906 36.808594 106.828125 36.898438 C 107.691406 37.03125 108.410156 37.617188 108.71875 38.429688 C 108.804688 38.71875 109.1875 38.773438 109.351563 38.519531 L 109.890625 37.078125 C 110.070313 36.808594 109.621094 36.539063 109.441406 36.628906 Z M 109.441406 36.628906 "/>
<path style=" stroke:none;fill-rule:nonzero;fill:rgb(33.325195%,14.501953%,51.367188%);fill-opacity:1;" d="M 165.871094 38.96875 L 166.589844 37.621094 C 166.949219 37.078125 166.410156 36.449219 165.601563 36.449219 L 156.058594 36.449219 C 155.429688 36.449219 155.609375 37.167969 155.878906 37.167969 C 156.511719 37.167969 156.691406 37.890625 156.328125 38.519531 L 153.449219 43.738281 C 153 44.28125 152.730469 44.460938 152.191406 44.460938 C 151.648438 44.460938 151.46875 45.179688 152.191406 45.179688 L 161.820313 45.179688 C 162.179688 45.179688 162.359375 45.089844 162.449219 44.820313 L 163.800781 43.109375 C 164.160156 42.75 163.441406 42.75 163.261719 42.929688 C 161.96875 44.117188 160.238281 44.703125 158.488281 44.550781 L 157.410156 44.550781 L 158.671875 41.578125 L 158.941406 41.578125 C 159.839844 41.578125 160.828125 41.578125 161.011719 42.210938 C 161.195313 42.4375 161.542969 42.4375 161.730469 42.210938 L 162.808594 39.960938 C 162.988281 39.601563 162.539063 39.601563 162.359375 39.78125 C 161.910156 40.589844 159.929688 40.410156 159.480469 40.410156 L 159.210938 40.410156 L 160.828125 37.167969 L 162.628906 37.167969 C 163.71875 37.167969 164.695313 37.851563 165.058594 38.878906 C 165.148438 39.058594 165.78125 39.238281 165.871094 38.96875 Z M 165.871094 38.96875 "/>
<path style=" stroke:none;fill-rule:nonzero;fill:rgb(33.325195%,14.501953%,51.367188%);fill-opacity:1;" d="M 118.980469 40.589844 L 122.128906 38.070313 L 122.128906 40.589844 Z M 141.570313 36.449219 L 138.238281 36.449219 C 137.519531 36.449219 137.699219 37.167969 138.058594 37.167969 C 138.882813 37.1875 139.378906 38.082031 138.960938 38.789063 L 137.609375 41.308594 L 134.550781 36.808594 C 134.230469 36.515625 133.8125 36.355469 133.378906 36.359375 L 130.050781 36.359375 C 129.421875 36.359375 129.511719 37.078125 129.871094 37.078125 C 130.5 37.078125 130.320313 37.621094 130.140625 37.980469 L 127.53125 43.109375 C 127.296875 43.585938 126.601563 43.527344 126.449219 43.019531 L 124.378906 36.359375 C 124.289063 36.089844 123.121094 36.089844 122.761719 36.359375 L 117.628906 40.589844 L 115.019531 40.589844 C 114.480469 40.589844 114.210938 40.859375 114.210938 41.128906 C 114.210938 41.398438 114.480469 41.667969 115.019531 41.667969 L 116.371094 41.667969 L 115.019531 42.839844 C 114.210938 43.378906 113.398438 44.191406 112.949219 44.191406 L 112.589844 44.191406 C 112.050781 44.191406 111.78125 44.28125 111.78125 44.640625 C 111.78125 45.089844 112.050781 45.179688 112.5 45.179688 L 116.640625 45.179688 C 117.449219 45.179688 117.269531 44.191406 116.910156 44.191406 C 116.195313 44.199219 115.847656 43.324219 116.371094 42.839844 L 117.628906 41.671875 L 120.148438 41.671875 C 121.589844 41.671875 122.671875 43.378906 121.769531 43.921875 L 121.050781 44.28125 C 120.78125 44.460938 120.601563 45.179688 121.050781 45.179688 L 129.148438 45.179688 C 129.78125 45.179688 129.691406 44.371094 129.421875 44.371094 C 128.519531 44.371094 128.96875 43.199219 129.148438 42.929688 L 131.21875 38.878906 L 134.191406 44.640625 C 134.460938 45 134.640625 45.179688 134.910156 45.179688 L 136.078125 45.179688 C 136.371094 45.203125 136.636719 45.011719 136.710938 44.730469 L 140.128906 38.519531 C 140.671875 37.441406 141.121094 37.171875 141.839844 37.171875 C 142.109375 37.167969 142.289063 36.449219 141.570313 36.449219 Z M 141.570313 36.449219 "/>
<path style=" stroke:none;fill-rule:nonzero;fill:rgb(33.325195%,14.501953%,51.367188%);fill-opacity:1;" d="M 94.410156 41.488281 C 93.511719 43.289063 91.980469 44.371094 91.078125 43.917969 C 90.089844 43.46875 90 41.578125 90.988281 39.78125 C 91.890625 37.980469 93.328125 36.898438 94.320313 37.351563 C 95.308594 37.890625 95.308594 39.691406 94.410156 41.488281 Z M 93.601563 36 C 90.808594 36 87.839844 37.441406 87.300781 40.410156 C 86.679688 43.195313 88.859375 45.816406 91.710938 45.71875 C 94.769531 45.71875 97.558594 43.738281 98.101563 40.859375 C 98.640625 37.980469 96.570313 36 93.601563 36 Z M 93.601563 36 "/>
<path style=" stroke:none;fill-rule:nonzero;fill:rgb(33.325195%,14.501953%,51.367188%);fill-opacity:1;" d="M 151.199219 40.410156 L 147.601563 40.410156 C 146.878906 40.410156 147.058594 41.128906 147.328125 41.128906 C 147.695313 41.085938 148.003906 41.394531 147.960938 41.761719 C 147.960938 43.199219 147.328125 43.738281 145.980469 43.738281 C 144.628906 43.738281 144.089844 42.121094 145.078125 40.050781 C 145.808594 38.464844 147.386719 37.449219 149.128906 37.441406 C 150.300781 37.441406 151.289063 37.710938 151.378906 38.789063 C 151.46875 39.058594 151.828125 39.058594 152.011719 38.789063 L 152.820313 37.261719 C 152.910156 37.078125 152.820313 36.898438 152.550781 36.898438 C 152.28125 36.808594 151.828125 37.167969 151.46875 36.898438 C 150.417969 36.234375 149.203125 35.863281 147.960938 35.820313 C 145.234375 35.648438 142.660156 37.09375 141.390625 39.511719 C 139.679688 42.390625 142.109375 45.449219 144.359375 45.449219 C 145.621094 45.449219 147.148438 44.550781 147.960938 44.191406 L 148.859375 44.820313 C 149.046875 45.027344 149.304688 45.152344 149.578125 45.179688 L 149.941406 45.179688 C 150.300781 45.179688 150.390625 44.730469 150.480469 44.460938 L 151.921875 41.039063 C 152.101563 40.679688 152.011719 40.410156 151.199219 40.410156 Z M 151.199219 40.410156 "/>
<path style=" stroke:none;fill-rule:nonzero;fill:rgb(33.325195%,14.501953%,51.367188%);fill-opacity:1;" d="M 201.328125 36.628906 C 201.003906 36.855469 200.574219 36.855469 200.25 36.628906 C 199.488281 36.082031 198.578125 35.769531 197.640625 35.730469 C 195.75 35.730469 194.398438 36.089844 193.5 37.890625 C 192.871094 39.417969 193.589844 40.769531 195.300781 41.488281 C 196.019531 41.851563 196.921875 42.300781 196.558594 43.199219 C 196.289063 43.828125 195.570313 43.917969 194.851563 43.917969 C 193.949219 43.828125 192.601563 43.199219 192.421875 41.941406 C 192.328125 41.488281 191.878906 41.578125 191.699219 41.851563 L 190.53125 44.101563 C 190.351563 44.460938 190.800781 44.730469 191.070313 44.550781 C 191.492188 44.113281 192.148438 44.003906 192.691406 44.28125 C 193.570313 44.890625 194.59375 45.261719 195.660156 45.359375 C 197.550781 45.359375 198.898438 44.820313 199.890625 43.199219 C 200.878906 41.667969 200.339844 40.140625 198.539063 39.328125 C 197.550781 38.878906 196.828125 38.070313 197.191406 37.261719 C 197.460938 36.71875 198.269531 36.808594 198.71875 36.898438 C 199.578125 37.03125 200.300781 37.617188 200.609375 38.429688 C 200.695313 38.71875 201.078125 38.773438 201.238281 38.519531 L 201.78125 37.078125 C 201.960938 36.808594 201.511719 36.539063 201.328125 36.628906 Z M 201.328125 36.628906 "/>
<path style=" stroke:none;fill-rule:nonzero;fill:rgb(33.325195%,14.501953%,51.367188%);fill-opacity:1;" d="M 175.949219 42.210938 C 174.691406 43.738281 173.070313 44.191406 171.179688 44.191406 L 170.730469 44.191406 L 173.96875 37.800781 C 174.105469 37.429688 174.480469 37.203125 174.871094 37.261719 C 175.230469 37.261719 175.230469 36.449219 174.691406 36.449219 L 169.558594 36.449219 C 169.109375 36.449219 169.019531 37.261719 169.378906 37.261719 C 169.828125 37.261719 169.921875 37.710938 169.738281 38.160156 L 166.769531 43.828125 C 166.570313 44.082031 166.277344 44.242188 165.960938 44.28125 C 165.511719 44.460938 165.238281 45.179688 165.691406 45.179688 L 173.789063 45.179688 C 174.421875 45.179688 174.601563 45 174.78125 44.730469 L 176.398438 42.210938 C 176.671875 41.941406 176.128906 41.851563 175.949219 42.210938 Z M 175.949219 42.210938 "/>
<path style=" stroke:none;fill-rule:nonzero;fill:rgb(33.325195%,14.501953%,51.367188%);fill-opacity:1;" d="M 188.191406 37.167969 C 189.261719 37.222656 190.210938 37.886719 190.621094 38.878906 C 190.710938 39.058594 191.25 39.238281 191.429688 38.96875 L 192.148438 37.621094 C 192.421875 37.078125 191.96875 36.449219 191.160156 36.449219 L 181.621094 36.449219 C 180.898438 36.449219 181.171875 37.167969 181.441406 37.167969 C 182.070313 37.167969 182.25 37.890625 181.800781 38.519531 L 179.011719 43.738281 C 178.726563 44.210938 178.207031 44.484375 177.660156 44.460938 C 177.210938 44.460938 177.03125 45.179688 177.660156 45.179688 L 187.289063 45.179688 C 187.738281 45.179688 187.921875 45.089844 188.011719 44.820313 L 189.359375 43.109375 C 189.628906 42.75 189 42.75 188.730469 42.929688 C 187.480469 44.125 185.769531 44.714844 184.050781 44.550781 L 182.878906 44.550781 L 184.230469 41.578125 L 184.5 41.578125 C 185.308594 41.578125 186.300781 41.578125 186.570313 42.210938 C 186.71875 42.4375 187.050781 42.4375 187.199219 42.210938 L 188.371094 39.960938 C 188.550781 39.601563 188.011719 39.601563 187.921875 39.78125 C 187.46875 40.589844 185.488281 40.410156 184.949219 40.410156 L 184.679688 40.410156 L 186.390625 37.167969 Z M 188.191406 37.167969 "/>
<path style=" stroke:none;fill-rule:nonzero;fill:rgb(0%,0%,0%);fill-opacity:1;" d="M 114.75 14.488281 C 110.25 14.21875 106.558594 14.039063 103.410156 14.398438 C 104.292969 12.21875 105.757813 10.320313 107.640625 8.910156 C 110.542969 9.054688 113.429688 9.414063 116.28125 9.988281 C 124.289063 11.519531 136.710938 16.46875 142.109375 23.578125 C 134.910156 18.808594 123.121094 15.121094 114.75 14.488281 Z M 101.339844 14.667969 C 98.183594 15.027344 95.058594 15.597656 91.980469 16.378906 C 91.53125 15.210938 90.359375 11.609375 89.910156 10.441406 C 94.855469 9.0625 100 8.546875 105.121094 8.910156 C 103.859375 9.898438 101.789063 13.589844 101.339844 14.667969 Z M 78.75 21.328125 C 78.210938 20.429688 75.601563 18 74.160156 17.550781 C 77.488281 15.03125 85.140625 11.519531 88.109375 10.890625 C 88.558594 11.789063 89.910156 15.390625 90.359375 16.828125 C 87.75 17.371094 80.910156 19.890625 78.75 21.328125 Z M 150.75 29.519531 C 150.03125 28.621094 149.039063 26.820313 141.839844 20.519531 C 131.128906 11.25 117 7.019531 103.769531 7.019531 C 94.050781 7.019531 85.5 9.179688 75.960938 14.398438 C 63.898438 21.058594 58.949219 28.710938 57.691406 30.238281 C 56.789063 31.410156 56.699219 32.039063 57.238281 32.398438 C 57.691406 32.667969 58.5 31.769531 59.21875 30.78125 C 62.820313 26.011719 67.589844 21.328125 72.539063 18.539063 C 74.070313 18.808594 76.230469 20.96875 77.039063 22.050781 C 73.433594 24.292969 69.949219 26.726563 66.601563 29.339844 C 64.890625 30.691406 64.351563 31.410156 64.800781 31.949219 C 65.160156 32.398438 66.511719 31.589844 67.589844 30.691406 C 70.871094 28.082031 74.328125 25.707031 77.941406 23.578125 C 79.921875 25.828125 79.289063 29.96875 78.570313 30.78125 C 78.210938 31.320313 78.210938 31.769531 78.570313 32.039063 C 79.019531 32.308594 79.378906 31.679688 79.921875 30.871094 C 81.269531 28.980469 80.730469 24.480469 79.648438 22.859375 C 83.070313 20.699219 87.929688 19.261719 90.898438 18.628906 C 91.171875 19.078125 94.769531 29.609375 95.488281 31.5 C 95.851563 32.578125 96.210938 33.839844 97.019531 33.570313 C 97.46875 33.480469 97.199219 32.308594 96.75 31.140625 C 96.210938 29.699219 93.511719 20.878906 92.609375 18.269531 C 93.601563 17.730469 99.539063 16.558594 101.070313 16.558594 C 100.351563 20.429688 103.050781 22.050781 106.109375 24.03125 C 107.730469 25.109375 118.171875 31.050781 120.328125 32.398438 C 121.589844 33.210938 122.578125 33.660156 122.851563 33.300781 C 123.121094 32.941406 122.308594 32.039063 121.140625 31.410156 C 120.238281 30.871094 110.519531 25.199219 106.46875 22.679688 C 103.589844 20.789063 102.058594 18.898438 102.691406 16.289063 C 103.679688 16.019531 106.558594 16.019531 109.621094 16.019531 C 130.320313 16.199219 146.878906 27.988281 148.679688 29.96875 C 149.671875 30.871094 150.929688 31.679688 151.46875 31.320313 C 151.738281 31.050781 151.199219 29.96875 150.75 29.519531 Z M 150.75 29.519531 "/>
<path style=" stroke:none;fill-rule:nonzero;fill:rgb(0%,0%,0%);fill-opacity:1;" d="M 155.25 100.167969 C 156.058594 98.820313 156.601563 98.011719 155.96875 97.648438 C 155.429688 97.289063 154.800781 98.640625 154.078125 99.898438 C 151.648438 104.039063 149.039063 107.550781 143.101563 112.949219 C 138.15625 117.382813 132.457031 120.890625 126.269531 123.300781 C 124.019531 117 115.46875 90.179688 115.199219 89.371094 C 114.929688 88.199219 114.570313 87.929688 114.210938 88.019531 C 113.761719 88.199219 114.03125 88.828125 114.300781 89.820313 C 114.480469 90.808594 124.648438 122.667969 125.011719 123.75 C 123.03125 124.738281 114.75 127.078125 109.078125 127.261719 C 103.949219 127.441406 97.921875 127.261719 94.859375 126.539063 C 91.351563 123.660156 83.25 112.230469 80.191406 106.199219 C 76.589844 99 74.160156 92.429688 73.53125 89.640625 C 73.261719 88.289063 72.898438 87.300781 72.179688 87.480469 C 71.460938 87.570313 71.910156 88.648438 72.359375 90.089844 C 74.015625 95.75 76.214844 101.234375 78.929688 106.46875 C 82.980469 114.300781 90.089844 123.570313 92.160156 126.089844 C 84.214844 124.359375 76.726563 120.953125 70.199219 116.101563 C 63.71875 111.238281 58.140625 105.121094 55.351563 100.621094 C 54.898438 99.808594 54.359375 98.730469 53.640625 99.179688 C 53.28125 99.449219 53.730469 100.261719 54.179688 101.160156 C 58.230469 108.449219 68.128906 118.800781 80.910156 124.46875 C 95.671875 131.039063 111.78125 130.679688 126.269531 125.101563 C 138.871094 120.238281 149.851563 110.160156 155.25 100.167969 Z M 155.25 100.167969 "/>
</g>
</svg>
