<?xml version="1.0" encoding="UTF-8"?>
<svg xmlns="http://www.w3.org/2000/svg" xmlns:xlink="http://www.w3.org/1999/xlink" width="162pt" height="203pt" viewBox="0 0 162 203" version="1.1">
<g id="surface1">
<path style=" stroke:none;fill-rule:nonzero;fill:rgb(0%,15.696716%,36.863708%);fill-opacity:1;" d="M 112.230469 163.660156 L 115.199219 163.660156 L 115.199219 150.609375 L 119.070313 150.609375 L 119.070313 163.660156 L 122.398438 163.660156 L 122.398438 147.367188 L 112.230469 147.367188 Z M 123.839844 163.660156 L 126.898438 163.660156 L 126.898438 130.453125 L 123.839844 130.453125 Z M 94.949219 143.410156 L 94.949219 137.832031 L 97.019531 137.832031 C 98.011719 137.832031 98.820313 138.820313 98.820313 140.082031 L 98.820313 141.160156 C 98.820313 142.417969 98.011719 143.410156 97.019531 143.410156 Z M 101.878906 142.597656 L 101.878906 139.003906 C 101.921875 136.761719 100.066406 134.953125 97.828125 135.039063 L 91.621094 135.039063 L 91.621094 146.382813 L 97.828125 146.382813 C 99.808594 146.382813 101.878906 145.210938 101.878906 142.597656 Z M 107.371094 135.488281 L 107.371094 163.660156 L 110.789063 163.660156 L 110.789063 130.453125 L 105.570313 130.453125 Z M 153.898438 138.460938 L 152.28125 138.367188 C 150.839844 138.367188 150.03125 137.738281 150.03125 136.210938 L 150.03125 131.796875 C 149.964844 131.085938 150.484375 130.441406 151.199219 130.359375 L 151.738281 130.359375 C 152.457031 130.441406 152.976563 131.085938 152.910156 131.796875 L 152.910156 135.132813 L 156.691406 135.132813 L 156.691406 131.976563 C 156.773438 130.601563 156.320313 129.253906 155.429688 128.203125 C 154.53125 127.210938 153.179688 126.761719 151.289063 126.761719 C 149.578125 126.761719 148.320313 127.210938 147.511719 128.109375 C 146.78125 128.960938 146.398438 130.054688 146.429688 131.167969 C 146.429688 134.226563 146.429688 137.648438 146.519531 138.011719 C 146.609375 138.820313 146.96875 140.527344 149.671875 141.253906 C 150.4375 141.433594 151.222656 141.554688 152.011719 141.609375 C 154.621094 141.789063 158.21875 142.058594 158.21875 147.097656 L 158.21875 154.570313 C 158.21875 154.660156 157.949219 160.058594 151.378906 160.058594 C 144.898438 160.058594 144.898438 155.289063 144.898438 153.222656 L 144.898438 149.617188 L 141.03125 149.617188 L 141.03125 154.84375 C 141.03125 161.140625 145.890625 163.566406 150.210938 163.566406 L 152.460938 163.566406 C 158.039063 163.566406 162 160.148438 162 154.660156 L 162 146.472656 C 162 140.527344 158.039063 138.460938 153.898438 138.460938 Z M 98.28125 130.722656 L 85.5 130.722656 L 87.210938 135.582031 L 87.210938 163.476563 L 90.179688 163.476563 L 90.179688 133.597656 L 97.828125 133.597656 C 100.855469 133.53125 103.339844 135.972656 103.320313 139.003906 L 103.320313 142.597656 C 103.320313 146.019531 100.53125 147.820313 97.828125 147.820313 L 91.621094 147.820313 L 91.621094 163.476563 L 94.949219 163.476563 L 94.949219 150.519531 C 94.949219 150.519531 99 150.429688 99.089844 150.429688 C 103.589844 150.429688 106.109375 146.382813 106.109375 142.597656 L 106.199219 137.738281 C 106.199219 133.148438 102.148438 130.722656 98.28125 130.722656 Z M 150.390625 146.203125 C 153.449219 146.203125 153 148.179688 153 150.253906 L 153 153.667969 C 153.058594 154.417969 152.492188 155.070313 151.738281 155.109375 L 151.289063 155.109375 C 150.554688 155.039063 150.003906 154.40625 150.03125 153.667969 L 150.03125 149.617188 L 146.339844 149.617188 L 146.339844 153.222656 C 146.339844 155.382813 146.339844 158.617188 151.378906 158.617188 C 156.601563 158.617188 156.78125 154.753906 156.78125 154.570313 L 156.78125 147.097656 C 156.78125 143.59375 154.890625 143.226563 151.921875 143.046875 C 151.019531 142.960938 150.121094 142.867188 149.21875 142.6875 C 145.710938 141.703125 145.261719 139.179688 145.078125 138.277344 C 144.988281 137.648438 145.078125 132.789063 145.078125 131.261719 C 144.996094 129.742188 145.511719 128.257813 146.519531 127.117188 C 147.78125 125.867188 149.515625 125.214844 151.289063 125.320313 C 153.539063 125.320313 155.339844 125.953125 156.511719 127.296875 C 157.566406 128.523438 158.144531 130.09375 158.128906 131.710938 L 158.128906 135.132813 L 161.910156 135.132813 L 161.910156 129.816406 C 161.910156 124.867188 157.859375 121.539063 152.640625 121.539063 L 150.839844 121.539063 C 145.710938 121.539063 141.03125 124.238281 141.03125 130.003906 L 141.03125 137.648438 C 141.03125 143.320313 146.25 146.203125 150.390625 146.203125 Z M 130.320313 135.847656 L 130.410156 163.476563 L 133.921875 163.476563 L 133.921875 130.539063 L 128.429688 130.539063 Z M 135.359375 163.476563 L 138.871094 163.476563 L 138.871094 130.539063 L 135.359375 130.539063 Z M 24.03125 121.632813 L 0 121.632813 L 1.980469 127.027344 L 1.980469 163.210938 L 5.488281 163.210938 L 5.488281 124.960938 L 23.398438 125.046875 C 26.371094 125.046875 29.070313 127.210938 29.070313 131.4375 L 29.070313 163.210938 L 32.21875 163.210938 L 32.21875 129.277344 C 32.21875 124.417969 28.171875 121.632813 24.03125 121.632813 Z M 6.929688 163.210938 L 10.351563 163.210938 L 10.351563 130.09375 L 13.140625 130.09375 L 13.140625 163.210938 L 16.648438 163.210938 L 16.648438 126.488281 C 12.421875 126.488281 7.648438 126.398438 6.929688 126.398438 Z M 43.648438 151.148438 L 49.949219 151.148438 L 49.949219 147.640625 L 40.5 147.640625 L 40.5 158.347656 L 53.550781 158.347656 L 53.550781 155.203125 L 43.648438 155.203125 Z M 119.070313 143.410156 L 115.199219 143.410156 L 115.199219 130.453125 L 112.230469 130.453125 L 112.230469 145.929688 L 122.398438 145.929688 L 122.398438 130.453125 L 119.070313 130.453125 Z M 76.769531 130.722656 L 54.988281 130.722656 L 56.789063 135.667969 L 56.789063 163.390625 L 59.941406 163.390625 L 59.941406 133.6875 L 76.320313 133.6875 C 79.019531 133.6875 81.359375 135.761719 81.359375 139.632813 L 81.359375 163.390625 L 84.238281 163.390625 L 84.238281 137.648438 C 84.238281 133.238281 80.550781 130.722656 76.769531 130.722656 Z M 40.5 146.203125 L 49.949219 146.203125 L 49.949219 142.867188 L 43.648438 142.867188 L 43.648438 139.003906 L 53.550781 139.003906 L 53.550781 135.582031 L 40.5 135.582031 Z M 23.398438 126.488281 L 18.089844 126.488281 L 18.089844 163.210938 L 21.421875 163.210938 L 21.421875 130.09375 L 22.679688 130.09375 C 23.457031 130.222656 24.003906 130.921875 23.941406 131.710938 L 23.851563 163.210938 L 27.628906 163.210938 L 27.628906 131.4375 C 27.628906 128.203125 25.648438 126.488281 23.398438 126.488281 Z M 61.378906 163.390625 L 64.441406 163.390625 L 64.441406 138.367188 L 66.960938 138.367188 L 66.960938 163.390625 L 70.019531 163.390625 L 70.019531 135.132813 L 61.378906 135.132813 Z M 76.320313 135.132813 L 71.460938 135.132813 L 71.460938 163.390625 L 74.519531 163.390625 L 74.519531 138.367188 L 75.601563 138.367188 C 76.230469 138.367188 76.679688 139.003906 76.679688 139.898438 L 76.679688 163.390625 L 79.921875 163.390625 L 79.921875 139.632813 C 79.921875 136.570313 78.210938 135.132813 76.320313 135.132813 Z M 35.550781 135.132813 L 35.550781 163.296875 C 37.171875 163.296875 53.550781 163.210938 53.550781 163.210938 L 53.550781 159.789063 L 39.058594 159.789063 L 39.058594 134.140625 L 53.550781 134.140625 L 53.550781 130.539063 L 33.839844 130.539063 Z M 35.550781 135.132813 "/>
<path style=" stroke:none;fill-rule:nonzero;fill:rgb(38.035583%,53.709412%,72.459412%);fill-opacity:1;" d="M 110.789063 163.660156 L 110.789063 130.453125 L 112.230469 130.453125 L 112.230469 145.929688 L 122.398438 145.929688 L 122.398438 130.453125 L 123.839844 130.453125 L 123.839844 163.660156 L 122.398438 163.660156 L 122.398438 147.367188 L 112.230469 147.367188 L 112.230469 163.660156 Z M 101.878906 142.597656 L 101.878906 139.003906 C 101.921875 136.761719 100.066406 134.953125 97.828125 135.039063 L 91.621094 135.039063 L 91.621094 146.382813 L 97.828125 146.382813 C 99.808594 146.382813 101.878906 145.210938 101.878906 142.597656 Z M 146.339844 149.617188 L 146.339844 153.222656 C 146.339844 155.382813 146.339844 158.617188 151.378906 158.617188 C 156.601563 158.617188 156.78125 154.753906 156.78125 154.570313 L 156.78125 147.097656 C 156.78125 143.59375 154.890625 143.226563 151.921875 143.046875 C 151.019531 142.960938 150.121094 142.867188 149.21875 142.6875 C 145.710938 141.703125 145.261719 139.179688 145.078125 138.277344 C 144.988281 137.648438 145.078125 132.789063 145.078125 131.261719 C 144.996094 129.742188 145.511719 128.257813 146.519531 127.117188 C 147.78125 125.867188 149.515625 125.214844 151.289063 125.320313 C 153.539063 125.320313 155.339844 125.953125 156.511719 127.296875 C 157.566406 128.523438 158.144531 130.09375 158.128906 131.710938 L 158.128906 135.132813 L 156.691406 135.132813 L 156.691406 131.976563 C 156.773438 130.601563 156.320313 129.253906 155.429688 128.203125 C 154.53125 127.210938 153.179688 126.761719 151.289063 126.761719 C 149.578125 126.761719 148.320313 127.210938 147.511719 128.109375 C 146.78125 128.960938 146.398438 130.054688 146.429688 131.167969 C 146.429688 134.226563 146.429688 137.648438 146.519531 138.011719 C 146.609375 138.816406 146.96875 140.527344 149.671875 141.253906 C 150.4375 141.433594 151.222656 141.554688 152.011719 141.609375 C 154.621094 141.789063 158.21875 142.058594 158.21875 147.097656 L 158.21875 154.566406 C 158.21875 154.660156 157.949219 160.058594 151.378906 160.058594 C 144.898438 160.058594 144.898438 155.203125 144.898438 153.222656 L 144.898438 149.617188 Z M 90.179688 163.476563 L 90.179688 133.597656 L 97.828125 133.597656 C 100.855469 133.53125 103.339844 135.972656 103.320313 139.003906 L 103.320313 142.597656 C 103.320313 146.019531 100.53125 147.820313 97.828125 147.820313 L 91.621094 147.820313 L 91.621094 163.476563 Z M 133.921875 130.539063 L 135.359375 130.539063 L 135.359375 163.476563 L 133.921875 163.476563 Z M 5.488281 163.210938 L 5.488281 124.960938 L 23.398438 125.046875 C 26.371094 125.046875 29.070313 127.210938 29.070313 131.4375 L 29.070313 163.210938 L 27.628906 163.210938 L 27.628906 131.4375 C 27.628906 128.203125 25.648438 126.488281 23.398438 126.488281 L 18.089844 126.488281 L 18.089844 163.210938 L 16.648438 163.210938 L 16.648438 126.488281 C 12.421875 126.488281 7.648438 126.398438 6.929688 126.398438 L 6.929688 163.210938 Z M 53.550781 135.582031 L 40.5 135.582031 L 40.5 146.203125 L 49.949219 146.203125 L 49.949219 147.640625 L 40.5 147.640625 L 40.5 158.347656 L 53.550781 158.347656 L 53.550781 159.789063 L 39.058594 159.789063 L 39.058594 134.140625 L 53.550781 134.140625 Z M 59.941406 163.390625 L 59.941406 133.6875 L 76.320313 133.6875 C 79.019531 133.6875 81.359375 135.761719 81.359375 139.632813 L 81.359375 163.390625 L 79.921875 163.390625 L 79.921875 139.632813 C 79.921875 136.566406 78.210938 135.132813 76.320313 135.132813 L 71.460938 135.132813 L 71.460938 163.390625 L 70.019531 163.390625 L 70.019531 135.132813 L 61.378906 135.132813 L 61.378906 163.390625 Z M 59.941406 163.390625 "/>
<path style=" stroke:none;fill-rule:nonzero;fill:rgb(0%,15.696716%,36.863708%);fill-opacity:1;" d="M 138.691406 30.460938 C 138.148438 29.648438 137.609375 28.929688 137.160156 28.117188 C 150.210938 6.609375 119.25 -9.859375 108.089844 8.410156 C 94.320313 5.890625 82.800781 10.929688 81.179688 11.648438 C 72.824219 8.054688 63.617188 6.894531 54.628906 8.316406 C 41.039063 -10.671875 13.140625 9.039063 25.46875 27.9375 C 24.839844 28.753906 24.300781 29.558594 23.671875 30.460938 C 6.210938 57.011719 19.351563 75.097656 19.351563 75.097656 L 22.050781 72.398438 C 22.050781 72.398438 25.828125 90.9375 46.078125 103.179688 L 46.800781 99.132813 C 59.21875 112.453125 70.738281 112.179688 81.449219 124.332031 C 91.441406 112.808594 105.839844 112.808594 117.089844 98.410156 L 117.089844 103.539063 C 137.789063 93.460938 139.769531 71.59375 139.769531 71.59375 L 141.660156 75.097656 C 141.660156 75.097656 156.148438 57.011719 138.691406 30.460938 Z M 138.691406 30.460938 "/>
<path style=" stroke:none;fill-rule:nonzero;fill:rgb(99.21875%,72.459412%,15.281677%);fill-opacity:1;" d="M 94.679688 49.269531 C 95.671875 48.910156 97.378906 49.988281 98.28125 51.699219 C 102.511719 50.527344 102.238281 44.859375 102.238281 44.410156 C 99.488281 45.640625 96.9375 47.273438 94.679688 49.269531 Z M 94.679688 49.269531 "/>
<path style=" stroke:none;fill-rule:nonzero;fill:rgb(38.035583%,53.709412%,72.459412%);fill-opacity:1;" d="M 97.199219 52.597656 C 107.371094 80.050781 94.410156 97.6875 94.410156 97.6875 C 102.421875 76.808594 97.199219 59.347656 93.78125 52.867188 C 92.464844 52.976563 91.140625 53.011719 89.820313 52.960938 C 91.359375 51.976563 92.835938 50.894531 94.230469 49.722656 L 94.679688 49.269531 C 95.671875 48.910156 97.378906 49.988281 98.28125 51.699219 C 102.511719 50.527344 102.238281 44.859375 102.238281 44.503906 C 103.464844 43.949219 104.773438 43.613281 106.109375 43.511719 C 106.109375 43.511719 105.210938 52.511719 97.199219 52.597656 Z M 34.289063 25.960938 C 33.929688 22.539063 38.25 19.117188 38.25 19.117188 C 36.449219 17.226563 33.300781 18.847656 33.300781 18.847656 C 36.179688 13.269531 42.570313 15.972656 42.570313 15.972656 C 40.140625 13.003906 35.011719 13.179688 35.011719 13.179688 C 41.398438 6.882813 49.050781 16.511719 49.050781 16.511719 C 42.210938 18.039063 34.289063 25.960938 34.289063 25.960938 Z M 113.21875 17.226563 C 113.21875 17.226563 117.449219 6.882813 130.140625 9.398438 C 130.140625 9.398438 118.441406 1.660156 110.339844 15.609375 C 110.339844 15.609375 98.820313 10.117188 81.449219 17.59375 C 81.449219 17.59375 64.980469 11.828125 52.648438 15.160156 C 52.648438 15.160156 45.359375 2.558594 35.191406 7.777344 C 25.019531 12.910156 30.328125 24.882813 32.128906 27.9375 C 32.128906 27.9375 15.210938 45.132813 21.601563 66.460938 L 24.929688 62.140625 C 24.929688 62.140625 29.789063 85.359375 42.300781 92.648438 L 43.019531 86.976563 C 43.019531 86.976563 56.160156 102.726563 71.460938 109.390625 C 72.898438 110.109375 81.089844 114.070313 81.359375 116.140625 L 81.359375 105.070313 C 81.359375 105.070313 70.648438 105.972656 67.859375 101.019531 C 65.96875 97.6875 53.730469 75.820313 59.761719 52.960938 C 59.761719 52.960938 53.910156 52.058594 52.738281 42.160156 C 49.65625 40.804688 46.289063 40.214844 42.929688 40.449219 C 42.929688 40.449219 52.648438 37.390625 61.828125 40.898438 C 71.011719 44.503906 73.441406 53.503906 79.648438 49.539063 L 81.449219 24.070313 L 83.160156 49.539063 C 89.371094 53.503906 91.890625 44.503906 100.980469 40.898438 C 110.160156 37.390625 119.96875 40.449219 119.96875 40.449219 C 116.820313 38.515625 113.34375 37.175781 109.710938 36.488281 C 104.488281 35.410156 96.839844 38.738281 96.839844 38.738281 C 96.839844 38.738281 97.828125 31.539063 101.339844 27.761719 C 104.398438 24.429688 111.148438 23.710938 113.21875 17.226563 Z M 81.359375 76.722656 C 82.53125 76.539063 100.980469 75.816406 89.640625 87.34375 C 97.558594 76.898438 83.25 76.808594 81.359375 76.722656 Z M 81.359375 76.722656 "/>
<path style=" stroke:none;fill-rule:nonzero;fill:rgb(99.21875%,72.459412%,15.281677%);fill-opacity:1;" d="M 61.019531 44.410156 C 61.019531 44.859375 60.75 50.527344 64.980469 51.699219 C 65.878906 49.988281 67.5 49.003906 68.488281 49.269531 C 66.15625 47.425781 63.65625 45.796875 61.019531 44.410156 Z M 61.019531 44.410156 "/>
<path style=" stroke:none;fill-rule:nonzero;fill:rgb(72.068787%,81.25%,91.40625%);fill-opacity:1;" d="M 81.359375 90.578125 L 81.359375 95.800781 L 77.761719 95.976563 C 74.859375 96.191406 71.988281 96.734375 69.210938 97.597656 C 60.210938 75.1875 65.160156 58.359375 67.589844 52.328125 C 58.679688 54.222656 57.238281 43.511719 57.238281 43.511719 C 58.140625 43.328125 59.488281 43.6875 61.019531 44.410156 C 61.019531 44.859375 60.75 50.527344 64.980469 51.699219 C 65.878906 49.988281 67.5 49.003906 68.488281 49.269531 C 69.121094 49.808594 69.75 50.261719 70.289063 50.710938 C 76.410156 55.84375 81.089844 54.847656 81.089844 54.847656 C 81.089844 54.847656 81.179688 74.289063 81.179688 76.722656 C 81.179688 76.722656 63.539063 75.277344 72.988281 87.34375 C 72.988281 87.34375 74.519531 82.929688 76.140625 84.277344 C 78.390625 86.261719 81.359375 90.132813 81.359375 90.578125 Z M 81.359375 102.460938 C 68.488281 102.460938 70.199219 99.578125 70.199219 99.578125 C 71.640625 98.769531 80.640625 98.59375 81.359375 98.59375 C 81.988281 98.59375 91.078125 98.769531 92.429688 99.578125 C 92.429688 99.578125 94.230469 102.460938 81.359375 102.460938 Z M 81.359375 102.460938 "/>
<path style=" stroke:none;fill-rule:nonzero;fill:rgb(38.035583%,53.709412%,72.459412%);fill-opacity:1;" d="M 43.378906 178.332031 L 36.539063 175.808594 L 36.539063 178.6875 L 31.320313 193.09375 L 35.460938 194.527344 L 37.890625 187.867188 L 39.058594 188.316406 C 39.421875 188.410156 39.601563 188.859375 39.421875 189.398438 L 37.261719 195.25 L 41.308594 196.6875 L 43.46875 190.660156 C 43.851563 189.835938 43.75 188.863281 43.199219 188.140625 C 43.199219 188.140625 44.550781 187.960938 45.269531 185.890625 L 46.261719 183.460938 C 47.160156 181.117188 45.449219 179.046875 43.378906 178.332031 Z M 41.941406 183.277344 L 41.761719 183.816406 C 41.558594 184.414063 40.9375 184.765625 40.320313 184.632813 L 39.148438 184.179688 L 40.230469 181.296875 L 41.398438 181.753906 C 41.980469 182.015625 42.226563 182.710938 41.941406 183.277344 Z M 41.941406 183.277344 "/>
<path style=" stroke:none;fill-rule:nonzero;fill:rgb(38.035583%,53.709412%,72.459412%);fill-opacity:1;" d="M 127.351563 180.132813 L 125.910156 176.082031 L 115.738281 179.59375 L 117.449219 181.660156 L 122.578125 196.238281 C 123.390625 195.972656 131.851563 193 131.851563 193 L 130.410156 189.039063 L 125.28125 190.753906 C 125.101563 190.390625 124.46875 188.410156 124.46875 188.410156 L 127.710938 187.238281 L 126.269531 183.097656 L 123.03125 184.269531 L 122.21875 181.929688 Z M 127.351563 180.132813 "/>
<path style=" stroke:none;fill-rule:nonzero;fill:rgb(38.035583%,53.709412%,72.459412%);fill-opacity:1;" d="M 98.910156 196.957031 L 97.558594 183.1875 L 92.160156 183.726563 L 93.511719 186.429688 L 94.949219 201.457031 L 105.570313 200.472656 L 105.210938 196.417969 Z M 98.910156 196.957031 "/>
<path style=" stroke:none;fill-rule:nonzero;fill:rgb(38.035583%,53.709412%,72.459412%);fill-opacity:1;" d="M 51.660156 183.726563 L 51.300781 180.667969 L 56.519531 181.753906 L 52.828125 199.390625 L 48.601563 198.488281 Z M 51.660156 183.726563 "/>
<path style=" stroke:none;fill-rule:nonzero;fill:rgb(38.035583%,53.709412%,72.459412%);fill-opacity:1;" d="M 107.820313 184.453125 L 106.289063 181.84375 L 111.421875 180.761719 L 115.199219 198.308594 L 110.96875 199.207031 Z M 107.820313 184.453125 "/>
<path style=" stroke:none;fill-rule:nonzero;fill:rgb(38.035583%,53.709412%,72.459412%);fill-opacity:1;" d="M 72.269531 183.910156 L 61.46875 182.738281 L 61.019531 187.777344 L 64.078125 186.972656 L 65.789063 187.148438 L 59.671875 200.648438 L 70.378906 201.726563 L 70.738281 197.59375 L 66.148438 197.140625 Z M 72.269531 183.910156 "/>
<path style=" stroke:none;fill-rule:nonzero;fill:rgb(38.035583%,53.709412%,72.459412%);fill-opacity:1;" d="M 87.210938 184.09375 L 76.410156 184.09375 L 76.410156 189.039063 L 79.378906 188.046875 L 81.089844 188.046875 L 76.320313 202 L 87.121094 202 L 87.121094 197.949219 L 82.441406 197.949219 Z M 87.210938 184.09375 "/>
<path style=" stroke:none;fill-rule:nonzero;fill:rgb(38.035583%,53.709412%,72.459412%);fill-opacity:1;" d="M 140.671875 181.929688 L 141.570313 183.277344 C 141.773438 183.527344 141.730469 183.890625 141.480469 184.09375 L 140.941406 184.453125 C 140.644531 184.640625 140.253906 184.507813 140.128906 184.179688 L 139.140625 182.738281 L 135.71875 184.898438 L 137.070313 186.882813 C 138.601563 189.222656 140.941406 188.953125 142.648438 187.867188 L 143.820313 187.058594 C 145.890625 185.710938 146.519531 183.460938 145.171875 181.390625 L 143.101563 178.332031 C 141.660156 176.082031 139.679688 176.347656 138.148438 177.34375 L 137.160156 177.972656 C 136.703125 178.347656 136.007813 178.222656 135.71875 177.703125 L 134.640625 176.082031 C 134.4375 175.796875 134.476563 175.414063 134.730469 175.179688 L 135.269531 174.820313 C 135.570313 174.722656 135.898438 174.835938 136.078125 175.09375 L 136.980469 176.347656 L 140.308594 174.097656 L 138.960938 172.117188 C 137.699219 170.226563 135.449219 170.046875 133.46875 171.308594 L 132.480469 172.027344 C 130.5 173.289063 129.421875 175.453125 130.859375 177.609375 L 132.75 180.488281 C 134.191406 182.648438 136.800781 182.382813 138.421875 181.390625 C 139.769531 180.398438 140.21875 181.210938 140.671875 181.929688 Z M 140.671875 181.929688 "/>
<path style=" stroke:none;fill-rule:nonzero;fill:rgb(38.035583%,53.709412%,72.459412%);fill-opacity:1;" d="M 25.648438 186.882813 C 24.386719 188.808594 21.769531 189.304688 19.890625 187.960938 L 18.089844 186.789063 C 16.074219 185.546875 15.539063 182.859375 16.921875 180.9375 L 22.769531 172.117188 C 24.070313 170.179688 26.714844 169.691406 28.621094 171.039063 L 30.421875 172.296875 C 32.351563 173.554688 32.878906 176.148438 31.589844 178.058594 L 30.421875 179.769531 L 26.820313 177.429688 L 27.539063 176.347656 C 27.808594 175.898438 27.808594 175.359375 27.539063 175.179688 L 26.910156 174.816406 C 26.640625 174.640625 26.191406 174.816406 25.921875 175.179688 C 25.921875 175.179688 25.648438 175.632813 25.199219 176.347656 C 24.390625 177.519531 20.878906 182.738281 20.878906 182.738281 C 20.609375 183.1875 20.609375 183.640625 20.878906 183.820313 L 21.511719 184.269531 C 21.78125 184.453125 22.230469 184.269531 22.5 183.820313 L 23.851563 181.84375 L 23.21875 181.476563 L 24.929688 178.960938 L 29.160156 181.753906 Z M 25.648438 186.882813 "/>
</g>
</svg>
