<?xml version="1.0" encoding="UTF-8"?>
<svg xmlns="http://www.w3.org/2000/svg" xmlns:xlink="http://www.w3.org/1999/xlink" width="151pt" height="209pt" viewBox="0 0 151 209" version="1.1">
<g id="surface1">
<path style=" stroke:none;fill-rule:nonzero;fill:rgb(0%,0%,0%);fill-opacity:1;" d="M 19.261719 59.589844 C 19.710938 54.457031 38.070313 47.707031 67.949219 46.628906 C 64.199219 49.433594 61.707031 53.605469 61.019531 58.238281 L 60.75 60.398438 C 60.578125 61.804688 60.277344 63.191406 59.851563 64.539063 C 58.679688 67.507813 55.441406 70.027344 52.019531 71.828125 C 40.050781 70.390625 29.96875 67.777344 24.121094 64.628906 C 20.878906 63.007813 19.078125 61.117188 19.261719 59.589844 Z M 133.558594 58.058594 C 134.730469 59.320313 134.640625 60.128906 134.640625 60.398438 C 134.550781 61.839844 132.75 63.640625 129.691406 65.167969 C 123.300781 68.5 112.320313 71.019531 99.359375 72.367188 C 99.96875 72.003906 100.601563 71.671875 101.25 71.378906 L 101.429688 71.289063 C 105.210938 69.757813 109.441406 68.050781 109.621094 61.839844 C 109.710938 60.847656 109.710938 57.878906 110.25 56.800781 C 110.96875 55.359375 112.769531 53.289063 114.300781 52.660156 L 111.691406 52.210938 L 111.328125 52.210938 C 112.128906 51.617188 112.773438 50.847656 113.21875 49.960938 C 123.839844 52.207031 130.949219 55.179688 133.558594 58.058594 Z M 146.519531 50.320313 C 141.03125 44.109375 128.609375 39.160156 112.769531 36.1875 C 112.769531 34.390625 113.941406 33.578125 115.921875 32.140625 C 117.082031 31.339844 118.195313 30.464844 119.25 29.527344 C 124.378906 24.578125 118.351563 17.199219 118.171875 16.839844 L 114.839844 12.789063 L 115.648438 18.007813 C 116.191406 21.519531 114.929688 22.777344 110.96875 25.480469 C 110.53125 25.816406 110.109375 26.175781 109.710938 26.558594 C 109.996094 23.789063 109.8125 20.988281 109.171875 18.277344 C 108.449219 15.039063 106.828125 13.6875 106.828125 13.6875 L 106.378906 18.460938 C 106.378906 18.550781 106.019531 22.238281 101.070313 26.738281 C 101.488281 26.25 101.878906 25.742188 102.238281 25.210938 C 104.671875 21.609375 103.949219 17.648438 103.140625 12.96875 L 102.960938 11.980469 C 102.148438 7.210938 103.410156 4.148438 104.21875 3.609375 C 105.03125 2.617188 106.648438 1 106.648438 1 C 106.648438 1 105.839844 0.640625 103.410156 0.910156 C 100.351563 1.359375 95.128906 3.25 95.21875 7.480469 C 95.394531 9.238281 95.820313 10.96875 96.480469 12.609375 C 97.019531 14.320313 97.558594 15.9375 97.019531 16.660156 C 96.660156 17.289063 95.578125 17.828125 93.78125 18.1875 C 86.398438 19.539063 80.820313 22.867188 78.03125 27.730469 C 77.070313 29.339844 76.398438 31.105469 76.050781 32.949219 C 57.960938 33.039063 40.769531 35.289063 27.539063 39.339844 C 12.601563 43.929688 4.410156 50.230469 3.78125 57.519531 C 3.421875 61.390625 5.21875 66.878906 14.761719 72.1875 L 14.671875 72.1875 L 17.371094 73.539063 L 18.808594 74.167969 C 23.765625 76.34375 28.917969 78.03125 34.199219 79.207031 C 32.167969 80.351563 30.269531 81.707031 28.53125 83.257813 C 18.492188 91.523438 13.085938 104.144531 14.03125 117.113281 C 14.980469 130.082031 22.160156 141.785156 33.289063 148.503906 C 44.421875 155.222656 58.125 156.125 70.039063 150.917969 C 81.953125 145.714844 90.605469 135.050781 93.238281 122.320313 C 96.480469 112.6875 96.121094 102.339844 95.941406 98.378906 C 95.578125 89.46875 99.988281 84.519531 102.78125 82.359375 C 115.378906 80.738281 126.628906 77.949219 134.910156 74.257813 L 136.261719 73.628906 L 139.140625 72.277344 L 139.050781 72.1875 C 145.800781 68.410156 149.578125 64.089844 149.941406 59.410156 C 150.300781 56.167969 149.128906 53.109375 146.519531 50.320313 Z M 146.519531 50.320313 "/>
<path style=" stroke:none;fill-rule:nonzero;fill:rgb(0%,0%,0%);fill-opacity:1;" d="M 39.960938 181.628906 L 45.089844 160.839844 L 36.628906 160.839844 L 31.5 181.628906 Z M 39.960938 181.628906 "/>
<path style=" stroke:none;fill-rule:nonzero;fill:rgb(0%,0%,0%);fill-opacity:1;" d="M 58.410156 165.878906 L 58.949219 174.429688 L 54.539063 174.429688 L 58.949219 181.628906 L 66.691406 181.628906 L 65.519531 160.839844 L 52.828125 160.839844 C 52.828125 160.839844 42.390625 181.628906 42.480469 181.628906 L 50.578125 181.628906 Z M 58.410156 165.878906 "/>
<path style=" stroke:none;fill-rule:nonzero;fill:rgb(0%,0%,0%);fill-opacity:1;" d="M 38.878906 200.890625 L 37.078125 208 L 45 208 L 50.128906 187.117188 L 42.210938 187.117188 L 40.320313 195.21875 L 34.378906 195.21875 L 36.269531 187.117188 L 28.351563 187.117188 L 23.21875 208 L 31.140625 208 L 32.851563 200.890625 Z M 38.878906 200.890625 "/>
<path style=" stroke:none;fill-rule:nonzero;fill:rgb(0%,0%,0%);fill-opacity:1;" d="M 57.78125 203.230469 L 58.320313 200.4375 L 68.128906 200.4375 L 69.390625 195.847656 L 59.578125 195.847656 L 60.210938 192.789063 L 70.019531 192.789063 L 71.550781 187.117188 L 53.730469 187.117188 L 48.511719 208 L 66.328125 208 L 67.589844 203.230469 Z M 57.78125 203.230469 "/>
<path style=" stroke:none;fill-rule:nonzero;fill:rgb(0%,0%,0%);fill-opacity:1;" d="M 108.71875 181.628906 L 113.851563 160.839844 L 105.390625 160.839844 L 100.261719 181.628906 Z M 108.71875 181.628906 "/>
<path style=" stroke:none;fill-rule:nonzero;fill:rgb(0%,0%,0%);fill-opacity:1;" d="M 122.671875 176.949219 C 123.839844 178.480469 125.101563 181.539063 119.878906 183.878906 C 113.761719 186.667969 119.878906 193.6875 111.601563 193.6875 L 108.179688 193.6875 L 104.671875 208 L 96.210938 208 L 99.628906 193.6875 L 93.871094 193.6875 L 95.671875 187.117188 L 110.429688 187.117188 C 119.070313 187.117188 112.949219 181.089844 117.449219 180.277344 C 120.511719 179.738281 122.398438 179.199219 122.671875 176.949219 Z M 122.671875 176.949219 "/>
<path style=" stroke:none;fill-rule:nonzero;fill:rgb(0%,0%,0%);fill-opacity:1;" d="M 16.921875 171.550781 L 15.570313 160.839844 L 5.128906 160.839844 L 0 181.628906 L 7.738281 181.628906 L 10.53125 170.738281 L 10.621094 170.738281 L 12.148438 181.628906 L 16.648438 181.628906 L 22.949219 170.738281 L 23.039063 170.738281 L 20.519531 181.628906 L 27.808594 181.628906 L 32.941406 160.839844 L 22.949219 160.839844 Z M 16.921875 171.550781 "/>
<path style=" stroke:none;fill-rule:nonzero;fill:rgb(0%,0%,0%);fill-opacity:1;" d="M 85.769531 171.550781 L 84.421875 160.839844 L 73.980469 160.839844 L 68.851563 181.628906 L 76.589844 181.628906 L 79.378906 170.738281 L 79.46875 170.738281 L 81 181.628906 L 85.5 181.628906 L 91.800781 170.738281 L 91.890625 170.738281 L 89.371094 181.628906 L 96.660156 181.628906 L 101.878906 160.839844 L 91.800781 160.839844 L 85.859375 171.550781 Z M 85.769531 171.550781 "/>
<path style=" stroke:none;fill-rule:nonzero;fill:rgb(0%,0%,0%);fill-opacity:1;" d="M 84.511719 192.25 L 85.050781 200.800781 L 80.640625 200.800781 L 85.050781 208 L 92.789063 208 L 91.621094 187.117188 L 78.929688 187.117188 C 78.929688 187.117188 68.488281 208 68.578125 208 L 76.679688 208 Z M 84.511719 192.25 "/>
<path style=" stroke:none;fill-rule:nonzero;fill:rgb(59.568787%,0%,18.041992%);fill-opacity:1;" d="M 15.480469 117.007813 C 16.703125 123.378906 20.308594 129.042969 25.558594 132.847656 C 27.359375 134.132813 29.328125 135.160156 31.410156 135.910156 C 30.148438 133.75 28.621094 131.5 27.089844 129.25 C 24.210938 125.019531 21.238281 120.609375 19.351563 115.929688 C 17.421875 111.167969 16.859375 105.960938 17.730469 100.898438 C 16.167969 105.164063 15.375 109.675781 15.390625 114.21875 C 15.390625 115.207031 15.480469 116.109375 15.480469 117.007813 Z M 15.480469 117.007813 "/>
<path style=" stroke:none;fill-rule:nonzero;fill:rgb(59.568787%,0%,18.041992%);fill-opacity:1;" d="M 21.960938 114.9375 C 23.761719 119.347656 26.640625 123.578125 29.429688 127.628906 C 31.542969 130.675781 33.492188 133.832031 35.28125 137.078125 C 37.066406 137.445313 38.867188 137.714844 40.679688 137.890625 C 38.65625 134.949219 36.996094 131.777344 35.730469 128.4375 C 30.148438 114.578125 30.871094 97.480469 37.800781 87.578125 C 41.261719 82.734375 45.828125 78.785156 51.121094 76.058594 C 55.800781 73.539063 58.769531 72.730469 61.828125 70.929688 C 65.070313 69.039063 66.78125 65.800781 64.621094 58.507813 C 64.125 56.847656 63.941406 55.109375 64.078125 53.378906 C 63.222656 54.9375 62.671875 56.652344 62.460938 58.417969 C 62.199219 60.671875 61.75 62.902344 61.109375 65.078125 C 58.230469 72.640625 44.28125 76.777344 42.480469 77.410156 C 37.722656 78.789063 33.308594 81.148438 29.519531 84.339844 C 20.898438 91.984375 17.886719 104.160156 21.960938 114.9375 Z M 21.960938 114.9375 "/>
<path style=" stroke:none;fill-rule:nonzero;fill:rgb(59.568787%,0%,18.041992%);fill-opacity:1;" d="M 80.28125 46.628906 C 80.371094 47.078125 80.460938 47.527344 80.550781 47.980469 C 80.910156 50.679688 80.101563 52.839844 76.949219 53.289063 C 73.621094 53.828125 72.449219 50.949219 72.179688 48.609375 C 72.179688 47.707031 72.269531 47.078125 72.269531 46.628906 L 70.648438 46.628906 C 69.238281 47.453125 67.941406 48.449219 66.78125 49.597656 C 66.148438 51.039063 65.339844 53.019531 66.601563 57.609375 C 68.761719 65.800781 67.769531 70.75 61.289063 73.539063 C 52.921875 77.140625 47.519531 79.300781 40.410156 88.300781 C 36.988281 92.527344 35.101563 99.730469 34.828125 106.839844 C 34.632813 113.851563 35.855469 120.832031 38.429688 127.359375 C 39.921875 131.132813 41.886719 134.703125 44.28125 137.980469 C 46.550781 137.855469 48.808594 137.554688 51.03125 137.078125 C 48.519531 134.152344 47.035156 130.488281 46.800781 126.640625 C 45.988281 113.320313 53.101563 107.738281 64.078125 99.007813 L 69.03125 94.867188 C 88.648438 78.21875 82.890625 61.300781 85.050781 46.808594 C 83.464844 46.660156 81.871094 46.597656 80.28125 46.628906 Z M 80.28125 46.628906 "/>
<path style=" stroke:none;fill-rule:nonzero;fill:rgb(59.568787%,0%,18.041992%);fill-opacity:1;" d="M 88.109375 46.898438 C 87.5625 49.875 87.203125 52.878906 87.03125 55.898438 C 86.21875 68.5 86.671875 82.808594 70.648438 96.9375 L 65.878906 100.808594 C 55.171875 109.359375 49.050781 114.757813 49.5 126.367188 C 49.589844 130.097656 51.179688 133.636719 53.910156 136.179688 C 56.976563 135.273438 59.933594 134.039063 62.730469 132.488281 C 76.589844 124.570313 85.320313 112.777344 88.648438 97.660156 C 90.71875 88.117188 90.71875 80.378906 90.628906 74.078125 C 90.628906 70.929688 91.078125 64.808594 91.078125 64.808594 C 91.53125 60.9375 92.070313 55.359375 96.660156 48.25 C 96.839844 47.980469 96.929688 47.800781 97.109375 47.527344 C 94.320313 47.257813 91.261719 47.078125 88.109375 46.898438 Z M 88.109375 46.898438 "/>
<path style=" stroke:none;fill-rule:nonzero;fill:rgb(59.568787%,0%,18.041992%);fill-opacity:1;" d="M 92.789063 87.398438 C 92.339844 89.738281 92.25 92.257813 91.980469 94.777344 C 91.800781 95.679688 91.621094 96.667969 91.53125 97.570313 C 91.511719 97.847656 91.453125 98.121094 91.351563 98.378906 C 87.929688 114.308594 78.839844 126.640625 64.171875 134.917969 C 61.757813 136.308594 59.226563 137.484375 56.609375 138.429688 C 60.929688 141.21875 65.878906 142.117188 69.300781 141.578125 C 82.441406 139.6875 88.828125 131.140625 91.890625 121.957031 C 95.039063 112.597656 94.679688 102.609375 94.5 98.46875 C 94.050781 84.609375 104.671875 79.480469 104.671875 79.480469 C 96.480469 79.027344 93.691406 82.628906 92.789063 87.398438 Z M 92.789063 87.398438 "/>
<path style=" stroke:none;fill-rule:nonzero;fill:rgb(59.568787%,0%,18.041992%);fill-opacity:1;" d="M 84.058594 138.429688 C 80.148438 141.640625 75.402344 143.671875 70.378906 144.277344 C 64.433594 145.101563 58.414063 143.441406 53.730469 139.6875 C 53.550781 139.597656 53.550781 139.507813 53.371094 139.417969 C 51.125 140.011719 48.839844 140.433594 46.53125 140.679688 C 51.75 146.347656 58.769531 149.589844 68.039063 150.128906 L 68.128906 150.128906 C 74.445313 147.691406 80.003906 143.625 84.238281 138.339844 C 84.148438 138.339844 84.148438 138.429688 84.058594 138.429688 Z M 84.058594 138.429688 "/>
<path style=" stroke:none;fill-rule:nonzero;fill:rgb(59.568787%,0%,18.041992%);fill-opacity:1;" d="M 35.28125 147.96875 C 35.28125 144.964844 34.570313 142.003906 33.210938 139.328125 C 29.914063 138.382813 26.765625 136.988281 23.851563 135.1875 C 22.171875 133.980469 20.632813 132.59375 19.261719 131.050781 C 22.714844 138.214844 28.3125 144.128906 35.28125 147.96875 Z M 35.28125 147.96875 "/>
<path style=" stroke:none;fill-rule:nonzero;fill:rgb(59.568787%,0%,18.041992%);fill-opacity:1;" d="M 62.011719 151.929688 C 57.101563 150.960938 52.464844 148.933594 48.421875 145.988281 C 46.398438 144.460938 44.558594 142.710938 42.929688 140.769531 C 40.8125 140.785156 38.699219 140.574219 36.628906 140.140625 C 37.839844 143.070313 38.304688 146.253906 37.980469 149.410156 C 43.007813 151.703125 48.472656 152.871094 54 152.828125 C 56.691406 152.832031 59.375 152.558594 62.011719 152.019531 C 62.101563 151.929688 62.011719 151.929688 62.011719 151.929688 Z M 62.011719 151.929688 "/>
<path style=" stroke:none;fill-rule:nonzero;fill:rgb(59.568787%,0%,18.041992%);fill-opacity:1;" d="M 106.921875 57.070313 C 106.019531 60.039063 103.050781 59.679688 102.148438 58.058594 C 100.800781 55.539063 101.339844 53.558594 102.78125 52.207031 C 104.128906 50.859375 106.46875 50.140625 108.71875 49.058594 L 108.808594 49.058594 C 106.199219 48.609375 103.410156 48.25 100.53125 47.890625 C 100.441406 47.980469 100.441406 47.980469 100.351563 47.980469 C 100.132813 48.296875 99.890625 48.597656 99.628906 48.878906 C 96.300781 53.667969 94.3125 59.261719 93.871094 65.078125 L 93.78125 66.339844 C 93.492188 68.9375 93.402344 71.554688 93.511719 74.167969 L 93.511719 75.429688 C 93.421875 76.507813 93.421875 77.589844 93.421875 78.578125 C 93.511719 78.128906 93.511719 78.039063 93.511719 78.21875 C 94.769531 73.988281 97.199219 71.46875 100.621094 70.027344 C 104.398438 68.589844 108 67.238281 108.179688 61.839844 C 108.269531 59.589844 108.449219 57.339844 108.898438 56.257813 C 109.421875 55.078125 110.347656 54.121094 111.511719 53.558594 C 109.710938 53.46875 107.730469 54.1875 106.921875 57.070313 Z M 106.921875 57.070313 "/>
<path style="fill-rule:nonzero;fill:rgb(97.65625%,62.693787%,10.594177%);fill-opacity:1;stroke-width:0.9;stroke-linecap:butt;stroke-linejoin:miter;stroke:rgb(97.65625%,62.693787%,10.594177%);stroke-opacity:1;stroke-miterlimit:4;" d="M 1113.28125 1731.71875 C 1116.015625 1767.695313 1150.195313 1774.023438 1183.515625 1804.609375 C 1225.78125 1845.117188 1170 1911.71875 1170 1911.71875 C 1177.1875 1866.71875 1156.484375 1849.609375 1118.710938 1822.617188 C 1106.40625 1814.765625 1098.203125 1801.953125 1096.210938 1787.5 C 1095.703125 1769.6875 1093.90625 1751.953125 1090.78125 1734.414063 C 1098.359375 1733.945313 1105.859375 1733.046875 1113.28125 1731.71875 Z M 1113.28125 1731.71875 " transform="matrix(0.1,0,0,-0.1,0,209)"/>
<path style="fill-rule:nonzero;fill:rgb(97.65625%,62.693787%,10.594177%);fill-opacity:1;stroke-width:0.9;stroke-linecap:butt;stroke-linejoin:miter;stroke:rgb(97.65625%,62.693787%,10.594177%);stroke-opacity:1;stroke-miterlimit:4;" d="M 997.1875 1793.828125 C 987.5 1786.484375 978.203125 1778.671875 969.296875 1770.429688 C 963.007813 1764.101563 956.71875 1758.710938 951.289063 1752.421875 C 988.203125 1749.726563 1024.21875 1745.195313 1059.296875 1740.703125 C 1080.898438 1781.210938 1091.71875 1826.210938 1078.203125 1904.492188 C 1078.203125 1904.492188 1075.507813 1851.40625 997.1875 1793.828125 Z M 997.1875 1793.828125 " transform="matrix(0.1,0,0,-0.1,0,209)"/>
<path style="fill-rule:nonzero;fill:rgb(97.65625%,62.693787%,10.594177%);fill-opacity:1;stroke-width:0.9;stroke-linecap:butt;stroke-linejoin:miter;stroke:rgb(97.65625%,62.693787%,10.594177%);stroke-opacity:1;stroke-miterlimit:4;" d="M 790.195313 1760.507813 C 832.5 1759.609375 873.90625 1758.710938 915.3125 1755.117188 C 916.289063 1756.796875 917.5 1758.28125 918.90625 1759.609375 C 945.898438 1788.398438 988.203125 1813.59375 1010.703125 1846.015625 C 1033.203125 1878.398438 1024.21875 1918.90625 1015.195313 1967.5 C 1000.78125 2051.210938 1036.796875 2066.523438 1036.796875 2066.523438 C 1036.796875 2066.523438 965.703125 2056.601563 967.5 2016.09375 C 969.296875 1961.210938 1026.015625 1909.921875 940.507813 1893.710938 C 846.914063 1876.601563 788.398438 1826.210938 775.78125 1759.609375 C 780.546875 1760.3125 785.390625 1760.625 790.195313 1760.507813 Z M 790.195313 1760.507813 " transform="matrix(0.1,0,0,-0.1,0,209)"/>
<path style=" stroke:none;fill-rule:nonzero;fill:rgb(100%,100%,100%);fill-opacity:1;" d="M 79.019531 35.109375 C 39.78125 34.75 7.109375 44.828125 6.03125 57.699219 C 5.578125 62.828125 10.171875 67.597656 18.359375 71.558594 C 24.433594 74.316406 30.808594 76.371094 37.351563 77.679688 C 38.878906 77.050781 40.320313 76.507813 42.03125 75.96875 C 44.179688 75.328125 46.285156 74.546875 48.328125 73.628906 C 37.351563 72.097656 28.53125 69.578125 23.039063 66.609375 C 18.988281 64.449219 16.828125 62.019531 17.101563 59.410156 C 17.820313 50.769531 45.269531 44.109375 78.300781 44.378906 C 111.421875 44.738281 137.609375 52.027344 136.800781 60.578125 C 136.621094 63.007813 134.371094 65.167969 130.679688 67.148438 C 123.75 70.839844 111.601563 73.539063 96.75 74.890625 C 96.242188 75.632813 95.789063 76.417969 95.398438 77.230469 C 102.148438 74.707031 109.980469 78.488281 109.980469 78.488281 C 110.289063 78.617188 110.589844 78.769531 110.878906 78.9375 C 120.691406 77.140625 129.148438 74.617188 135.449219 71.648438 C 142.921875 68.140625 147.511719 63.730469 147.871094 59.140625 C 148.949219 46.269531 118.171875 35.558594 79.019531 35.109375 Z M 79.019531 35.109375 "/>
</g>
</svg>
