<?xml version="1.0" encoding="UTF-8"?>
<svg xmlns="http://www.w3.org/2000/svg" xmlns:xlink="http://www.w3.org/1999/xlink" width="164pt" height="205pt" viewBox="0 0 164 205" version="1.1">
<g id="surface1">
<path style=" stroke:none;fill-rule:nonzero;fill:rgb(93.359375%,88.28125%,77.734375%);fill-opacity:1;" d="M 81.992188 204 C 36.710938 203.992188 0.0078125 167.289063 0 122.007813 C -0.0820313 100.027344 8.75 78.953125 24.480469 63.597656 C 24.570313 63.417969 24.75 63.328125 24.839844 63.238281 C 19.441406 55.050781 16.378906 45.417969 18.71875 33.71875 C 22.949219 12.300781 40.320313 5.820313 41.039063 5.550781 C 42.210938 5.0625 43.554688 5.578125 44.101563 6.71875 C 44.363281 7.25 44.457031 7.84375 44.371094 8.429688 C 48.289063 5.085938 52.808594 2.519531 57.691406 0.871094 C 57.953125 0.789063 58.226563 0.757813 58.5 0.78125 C 61.015625 0.773438 61.925781 4.09375 59.761719 5.371094 C 54.589844 8.476563 50.140625 12.648438 46.710938 17.609375 C 49.242188 16.957031 51.839844 16.59375 54.449219 16.53125 L 54.992188 16.53125 C 57.855469 16.773438 58.214844 20.820313 55.441406 21.570313 C 50.261719 23.082031 45.390625 25.488281 41.039063 28.679688 C 39.683594 32.988281 38.984375 37.480469 38.96875 42 C 38.945313 50.738281 41.582031 59.277344 46.53125 66.480469 C 47.554688 67.953125 48.699219 69.335938 49.949219 70.621094 C 49.5 61.710938 52.109375 47.847656 68.21875 41.460938 C 68.511719 41.355469 68.8125 41.296875 69.121094 41.28125 C 70.089844 41.277344 70.96875 41.839844 71.371094 42.71875 C 71.96875 43.894531 71.578125 45.335938 70.46875 46.050781 L 70.289063 46.050781 C 67.894531 47.632813 65.84375 49.683594 64.261719 52.078125 C 65.605469 51.660156 66.996094 51.386719 68.402344 51.269531 L 68.851563 51.269531 C 69.917969 51.277344 70.859375 51.964844 71.191406 52.980469 C 71.527344 54.078125 71.132813 55.273438 70.199219 55.949219 L 70.019531 56.039063 C 64.890625 59.007813 62.011719 62.429688 61.46875 66.300781 C 60.929688 70.4375 63.269531 74.398438 64.890625 76.648438 C 69.210938 71.609375 72 63.148438 72.71875 59.910156 C 73.046875 58.789063 74.074219 58.015625 75.242188 58.019531 L 75.511719 58.019531 C 76.75 58.179688 77.695313 59.203125 77.761719 60.449219 C 77.851563 70.980469 74.96875 78.179688 72.089844 82.769531 C 75.039063 84.199219 78.265625 84.96875 81.539063 85.019531 L 82.171875 85.019531 C 85.449219 84.976563 88.675781 84.207031 91.621094 82.769531 C 88.742188 78.179688 85.949219 70.980469 85.949219 60.449219 C 85.957031 59.179688 86.933594 58.121094 88.199219 58.019531 L 88.46875 58.019531 C 89.636719 58.015625 90.664063 58.789063 90.992188 59.910156 C 91.800781 63.148438 94.589844 71.609375 98.820313 76.648438 C 100.53125 74.398438 102.78125 70.4375 102.242188 66.300781 C 101.699219 62.429688 98.820313 58.917969 93.691406 56.039063 L 93.601563 55.949219 C 92.554688 55.363281 92.097656 54.101563 92.519531 52.980469 C 92.808594 51.933594 93.777344 51.226563 94.859375 51.269531 L 95.3125 51.269531 C 96.714844 51.386719 98.105469 51.660156 99.449219 52.078125 C 97.832031 49.679688 95.753906 47.632813 93.332031 46.050781 L 93.242188 46.050781 C 92.113281 45.351563 91.683594 43.917969 92.25 42.71875 C 92.671875 41.855469 93.539063 41.300781 94.5 41.28125 C 94.835938 41.296875 95.171875 41.355469 95.492188 41.460938 C 111.511719 47.847656 114.121094 61.710938 113.761719 70.621094 C 114.984375 69.335938 116.097656 67.949219 117.089844 66.480469 C 122.050781 59.277344 124.71875 50.746094 124.742188 42 C 124.742188 37.472656 124.011719 32.972656 122.582031 28.679688 C 115.019531 23.28125 108.359375 21.570313 108.269531 21.570313 C 107.027344 21.289063 106.183594 20.136719 106.289063 18.871094 C 106.445313 17.613281 107.460938 16.636719 108.71875 16.53125 L 109.171875 16.53125 C 111.8125 16.582031 114.441406 16.945313 117 17.609375 C 113.476563 12.730469 109.046875 8.574219 103.949219 5.371094 C 102.835938 4.75 102.371094 3.390625 102.871094 2.21875 C 103.3125 1.332031 104.21875 0.773438 105.210938 0.78125 C 105.484375 0.765625 105.757813 0.796875 106.019531 0.871094 C 110.902344 2.519531 115.421875 5.085938 119.339844 8.429688 C 119.214844 7.84375 119.308594 7.234375 119.609375 6.71875 C 120.050781 5.886719 120.917969 5.367188 121.859375 5.371094 C 122.136719 5.386719 122.410156 5.445313 122.671875 5.550781 C 123.390625 5.820313 140.761719 12.300781 144.992188 33.71875 C 147.332031 45.417969 144.269531 55.050781 138.871094 63.238281 C 139.03125 63.308594 139.160156 63.4375 139.230469 63.597656 C 154.988281 78.941406 163.851563 100.015625 163.800781 122.007813 C 163.980469 167.28125 127.171875 204 81.992188 204 Z M 81.992188 204 "/>
<path style=" stroke:none;fill-rule:nonzero;fill:rgb(0%,27.830505%,10.594177%);fill-opacity:1;" d="M 32.851563 59.730469 C 32.851563 59.730469 29.25 43.257813 31.949219 33.628906 C 31.160156 34.34375 30.4375 35.125 29.789063 35.96875 C 23.21875 44.519531 32.851563 59.730469 32.851563 59.730469 Z M 131.039063 59.730469 C 131.039063 59.730469 140.671875 44.519531 134.101563 35.96875 C 133.453125 35.125 132.730469 34.34375 131.941406 33.628906 C 134.730469 43.257813 131.039063 59.730469 131.039063 59.730469 Z M 21.152344 34.347656 C 25.199219 14.097656 41.851563 8.070313 41.851563 8.070313 C 35.820313 12.570313 29.519531 21.03125 27 32.910156 C 29.519531 29.847656 31.769531 27.417969 34.46875 25.621094 C 41.21875 11.039063 52.742188 5.097656 58.5 3.300781 C 51.121094 7.785156 45.136719 14.234375 41.21875 21.929688 C 49.769531 18.871094 54.902344 19.230469 54.902344 19.230469 C 49.148438 20.867188 43.746094 23.550781 38.96875 27.148438 C 34.203125 40.878906 36.273438 56.0625 44.550781 68.007813 C 47.0625 71.621094 50.128906 74.8125 53.640625 77.460938 C 52.5625 74.578125 48.152344 52.347656 69.210938 43.980469 L 69.03125 44.070313 C 63.972656 47.300781 60.363281 52.367188 58.949219 58.199219 C 62.730469 54.507813 66.78125 54.148438 68.941406 53.878906 L 68.851563 53.878906 C 49.320313 65.128906 64.800781 80.429688 64.800781 80.429688 C 70.921875 75.210938 74.519531 63.6875 75.332031 60.539063 C 75.421875 72.78125 71.371094 80.070313 68.582031 83.578125 C 76.640625 88.980469 87.160156 88.980469 95.21875 83.578125 C 92.519531 80.070313 88.46875 72.78125 88.46875 60.539063 C 89.28125 63.6875 92.878906 75.210938 99 80.429688 C 99 80.429688 114.570313 65.128906 95.039063 53.878906 L 94.949219 53.878906 C 97.019531 54.148438 101.070313 54.417969 104.941406 58.199219 C 103.527344 52.339844 99.878906 47.269531 94.769531 44.070313 L 94.589844 43.980469 C 115.652344 52.347656 111.242188 74.578125 110.160156 77.460938 C 113.671875 74.8125 116.742188 71.621094 119.25 68.007813 C 127.527344 56.0625 129.597656 40.878906 124.832031 27.148438 C 120.078125 23.5625 114.710938 20.878906 108.992188 19.230469 C 108.992188 19.230469 114.121094 18.871094 122.582031 21.929688 C 118.726563 14.222656 112.765625 7.761719 105.390625 3.300781 C 111.0625 5.097656 122.492188 11.039063 129.332031 25.621094 C 132.121094 27.417969 134.371094 29.847656 136.890625 32.910156 C 134.28125 21.03125 128.070313 12.570313 121.949219 8.070313 C 121.949219 8.070313 138.601563 14.097656 142.652344 34.347656 C 147.421875 57.929688 128.519531 72.597656 113.3125 85.289063 L 124.921875 80.519531 C 125.640625 80.25 126.269531 80.96875 126.089844 81.871094 L 125.730469 84.75 C 125.550781 86.371094 124.378906 94.378906 119.96875 96.71875 C 119.070313 97.257813 117.449219 97.890625 112.589844 98.25 L 103.949219 98.789063 L 105.390625 103.648438 L 96.839844 117.328125 L 101.25 112.738281 L 110.160156 144.507813 L 85.589844 164.667969 L 93.242188 130.019531 L 81.992188 143.878906 L 70.5625 130.019531 L 78.210938 164.667969 L 53.640625 144.507813 L 62.640625 112.738281 L 67.050781 117.328125 L 58.5 103.648438 L 59.941406 98.789063 L 51.210938 98.25 C 46.351563 97.890625 44.730469 97.257813 43.832031 96.71875 C 39.421875 94.378906 38.25 86.371094 38.070313 84.75 L 37.800781 81.871094 C 37.621094 80.96875 38.160156 80.25 38.96875 80.519531 L 50.492188 85.289063 C 35.28125 72.597656 16.46875 57.929688 21.152344 34.347656 Z M 31.949219 71.339844 C 15.074219 88.023438 7.617188 112.019531 12.0625 135.328125 L 33.480469 129.480469 C 37.109375 153.339844 57.65625 170.945313 81.792969 170.878906 C 105.925781 170.8125 126.375 153.089844 129.871094 129.210938 L 151.832031 135.328125 C 156.265625 112.089844 148.84375 88.164063 132.03125 71.519531 L 133.921875 69.539063 C 155.1875 90.613281 161.628906 122.445313 150.222656 150.125 C 138.816406 177.808594 111.820313 195.863281 81.882813 195.839844 C 51.941406 195.8125 24.980469 177.710938 13.621094 150.007813 C 2.261719 122.304688 8.753906 90.484375 30.0625 69.449219 Z M 137.699219 65.398438 L 135.992188 67.46875 C 158.113281 89.363281 164.828125 122.445313 152.992188 151.230469 C 141.15625 180.015625 113.113281 198.808594 81.992188 198.808594 C 50.867188 198.808594 22.824219 180.015625 10.988281 151.230469 C -0.847656 122.445313 5.867188 89.363281 27.992188 67.46875 L 26.191406 65.398438 C 3.175781 88.035156 -3.871094 122.339844 8.355469 152.214844 C 20.585938 182.089844 49.664063 201.605469 81.945313 201.605469 C 114.226563 201.605469 143.304688 182.089844 155.535156 152.214844 C 167.761719 122.339844 160.714844 88.035156 137.699219 65.398438 Z M 137.699219 65.398438 "/>
<path style=" stroke:none;fill-rule:nonzero;fill:rgb(100%,100%,100%);fill-opacity:1;" d="M 76.320313 174.480469 L 71.820313 180.597656 L 73.890625 191.488281 L 71.101563 190.949219 L 69.570313 183.121094 L 68.3125 190.5 L 65.699219 190.050781 L 68.671875 173.128906 L 71.28125 173.578125 L 70.46875 178.257813 L 73.53125 173.9375 Z M 111.871094 182.128906 L 109.621094 177.898438 L 112.589844 176.28125 L 114.839844 180.507813 Z M 106.378906 171.871094 L 109.351563 170.25 L 111.332031 173.9375 L 108.359375 175.46875 Z M 113.492188 174.660156 L 113.851563 172.949219 L 111.152344 168.179688 L 108.71875 167.460938 L 102.691406 170.699219 L 110.878906 185.730469 L 116.820313 182.578125 L 117.539063 179.96875 L 115.019531 175.378906 Z M 86.492188 189.058594 L 86.582031 191.847656 L 78.300781 191.9375 L 78.03125 174.75 L 86.3125 174.660156 L 86.402344 177.449219 L 80.730469 177.539063 L 80.820313 181.679688 L 86.402344 181.589844 L 86.492188 184.289063 L 80.820313 184.378906 L 80.910156 189.238281 Z M 99.089844 187.078125 L 99.628906 189.78125 L 91.441406 191.308594 L 88.199219 174.480469 L 96.300781 172.949219 L 96.839844 175.648438 L 91.351563 176.730469 L 92.070313 180.78125 L 97.652344 179.699219 L 98.101563 182.308594 L 92.609375 183.390625 L 93.601563 188.070313 Z M 118.800781 159.808594 L 129.871094 172.949219 L 128.429688 174.121094 L 124.652344 177.269531 L 123.121094 178.53125 L 112.140625 165.300781 L 114.210938 163.589844 L 123.480469 174.570313 L 126.089844 172.5 L 116.640625 161.519531 Z M 149.851563 138.660156 L 147.421875 147.03125 L 145.53125 146.398438 L 142.742188 145.589844 L 143.550781 143.070313 L 145.53125 143.699219 L 146.519531 140.460938 L 141.929688 139.109375 L 140.21875 144.871094 L 138.332031 144.328125 L 130.949219 142.078125 L 131.492188 140.28125 L 133.46875 133.800781 L 135.359375 134.429688 L 138.0625 135.238281 L 137.25 137.757813 L 135.269531 137.21875 L 134.371094 140.371094 L 138.242188 141.628906 L 140.039063 135.871094 L 141.839844 136.410156 L 148.050781 138.300781 Z M 134.640625 149.28125 L 145.621094 150.71875 L 144.269531 153.148438 L 136.351563 152.160156 L 142.921875 155.667969 L 141.75 158.097656 L 126.449219 150 L 127.710938 147.570313 L 131.941406 149.820313 L 128.789063 145.589844 L 130.140625 143.070313 Z M 137.519531 161.070313 L 139.050781 162.238281 L 134.820313 167.550781 L 133.652344 168.988281 L 121.769531 159.449219 L 120.242188 158.28125 L 125.640625 151.53125 L 127.171875 152.699219 L 129.691406 154.769531 L 128.070313 156.839844 L 126.179688 155.308594 L 124.109375 157.917969 L 133.199219 165.210938 L 135.269531 162.597656 L 133.289063 160.980469 L 135 158.910156 Z M 66.691406 172.679688 L 60.570313 188.699219 L 58.769531 187.980469 L 54.179688 186.269531 L 52.289063 185.550781 L 58.589844 169.53125 L 61.019531 170.519531 L 55.890625 183.929688 L 59.039063 185.097656 L 64.171875 171.6875 Z M 26.640625 160.078125 L 29.878906 164.667969 L 27.628906 166.289063 L 22.769531 159.539063 L 36.8125 149.460938 L 38.339844 151.621094 Z M 33.300781 142.53125 L 16.921875 148.109375 L 16.109375 145.589844 L 26.371094 142.078125 L 21.601563 141.898438 L 25.289063 138.839844 L 14.941406 142.347656 L 14.128906 139.828125 L 30.421875 134.25 L 31.320313 136.769531 L 27.628906 139.828125 L 32.402344 139.917969 Z M 35.640625 147.121094 L 20.339844 155.128906 L 19.082031 152.699219 L 34.378906 144.78125 Z M 48.601563 163.050781 L 35.460938 174.300781 L 33.660156 172.5 L 36.902344 167.730469 L 32.128906 170.96875 L 30.332031 169.167969 L 41.402344 155.847656 L 43.199219 157.558594 L 38.699219 163.230469 L 44.820313 159.179688 L 45.449219 159.71875 L 41.402344 165.929688 L 46.980469 161.339844 Z M 51.300781 173.128906 L 48.421875 171.328125 L 50.671875 167.820313 L 53.550781 169.621094 Z M 56.699219 169.53125 L 57.242188 168.71875 L 49.949219 164.039063 L 49.949219 164.128906 L 40.679688 178.53125 L 42.929688 179.96875 L 46.980469 173.578125 L 49.769531 175.378906 L 45.71875 181.769531 L 47.96875 183.121094 L 55.800781 170.96875 Z M 56.699219 169.53125 "/>
<path style=" stroke:none;fill-rule:nonzero;fill:rgb(100%,100%,100%);fill-opacity:1;" d="M 73.980469 98.25 C 72.71875 97.621094 70.378906 96.628906 68.039063 95.550781 C 67.613281 95.253906 67.035156 95.570313 67.050781 96.089844 C 66.71875 97.441406 67.171875 98.863281 68.21875 99.78125 C 70.832031 101.757813 73.082031 100.679688 74.25 99.417969 C 74.636719 99.054688 74.488281 98.40625 73.980469 98.25 Z M 73.980469 98.25 "/>
<path style=" stroke:none;fill-rule:nonzero;fill:rgb(100%,100%,100%);fill-opacity:1;" d="M 41.851563 84.660156 C 41.851563 84.660156 42.75 91.769531 45.71875 93.480469 C 47.699219 94.558594 52.652344 94.46875 56.96875 94.828125 C 52.199219 92.9375 45.089844 87.898438 41.851563 84.660156 Z M 41.851563 84.660156 "/>
<path style=" stroke:none;fill-rule:nonzero;fill:rgb(100%,100%,100%);fill-opacity:1;" d="M 77.039063 127.230469 L 79.378906 130.46875 L 84.601563 130.46875 L 86.941406 127.230469 Z M 77.039063 127.230469 "/>
<path style=" stroke:none;fill-rule:nonzero;fill:rgb(100%,100%,100%);fill-opacity:1;" d="M 122.039063 84.660156 C 118.800781 87.898438 111.78125 92.9375 107.011719 94.828125 C 111.242188 94.46875 116.191406 94.558594 118.261719 93.480469 C 121.230469 91.769531 122.039063 84.660156 122.039063 84.660156 Z M 122.039063 84.660156 "/>
<path style=" stroke:none;fill-rule:nonzero;fill:rgb(100%,100%,100%);fill-opacity:1;" d="M 86.941406 108.417969 L 84.601563 100.949219 L 81.992188 102.210938 L 79.289063 100.949219 L 77.039063 108.417969 C 76.328125 110.546875 74.894531 112.359375 72.992188 113.550781 L 71.550781 119.667969 L 74.96875 124.347656 L 78.660156 124.347656 L 75.242188 119.398438 L 75.871094 116.25 C 77.449219 117.957031 79.664063 118.933594 81.992188 118.949219 C 84.324219 118.972656 86.554688 117.988281 88.109375 116.25 L 88.652344 119.398438 L 85.320313 124.347656 L 88.921875 124.347656 L 92.339844 119.667969 L 90.992188 113.550781 C 89.085938 112.359375 87.652344 110.546875 86.941406 108.417969 Z M 86.941406 108.417969 "/>
<path style=" stroke:none;fill-rule:nonzero;fill:rgb(100%,100%,100%);fill-opacity:1;" d="M 95.851563 95.460938 C 93.511719 96.539063 91.171875 97.621094 90 98.160156 C 89.496094 98.371094 89.355469 99.019531 89.730469 99.417969 C 90.902344 100.589844 93.152344 101.667969 95.761719 99.6875 C 96.875 98.816406 97.371094 97.371094 97.019531 96 C 96.835938 95.535156 96.320313 95.300781 95.851563 95.460938 Z M 95.851563 95.460938 "/>
</g>
</svg>
