<?xml version="1.0" encoding="UTF-8"?>
<svg xmlns="http://www.w3.org/2000/svg" xmlns:xlink="http://www.w3.org/1999/xlink" width="201pt" height="202pt" viewBox="0 0 201 202" version="1.1">
<g id="surface1">
<path style=" stroke:none;fill-rule:nonzero;fill:rgb(61.914063%,63.476563%,63.476563%);fill-opacity:1;" d="M 200.507813 100.714844 C 200.507813 156.101563 155.625 201 100.253906 201 C 44.886719 201 0 156.101563 0 100.714844 C 0 45.332031 44.886719 0.433594 100.253906 0.433594 C 155.625 0.433594 200.507813 45.332031 200.507813 100.714844 Z M 200.507813 100.714844 "/>
<path style=" stroke:none;fill-rule:nonzero;fill:rgb(4.704285%,13.719177%,25.097656%);fill-opacity:1;" d="M 197.480469 100.574219 C 197.480469 154.003906 154.179688 197.316406 100.761719 197.316406 C 47.34375 197.316406 4.039063 154.003906 4.039063 100.574219 C 4.039063 47.148438 47.34375 3.835938 100.761719 3.835938 C 154.179688 3.835938 197.480469 47.148438 197.480469 100.574219 Z M 197.480469 100.574219 "/>
<path style=" stroke:none;fill-rule:nonzero;fill:rgb(13.719177%,38.035583%,57.226563%);fill-opacity:1;" d="M 101.003906 36.609375 C 96.097656 36.582031 91.253906 37.121094 86.558594 38.183594 C 86.125 39.582031 85.539063 42.300781 86.519531 44.777344 C 87.113281 46.269531 88.257813 47.480469 89.875 48.417969 C 94.304688 46.617188 99.113281 44.769531 103.753906 43.21875 C 109.613281 41.082031 114.816406 39.902344 118.863281 39.277344 C 118.753906 39.25 118.652344 39.210938 118.542969 39.179688 C 115.664063 38.339844 112.777344 37.714844 109.894531 37.289063 C 106.917969 36.851563 103.949219 36.628906 101.003906 36.609375 Z M 82.089844 39.367188 C 72.933594 42.144531 64.480469 46.9375 57.402344 53.390625 C 57.710938 53.390625 58.058594 53.402344 58.386719 53.410156 C 64.453125 53.050781 73.089844 53.296875 78.027344 53.496094 C 80.109375 52.5625 82.644531 51.445313 85.457031 50.253906 C 84.234375 49.117188 83.300781 47.785156 82.695313 46.25 C 81.742188 43.808594 81.777344 41.332031 82.089844 39.367188 Z M 127.652344 42.59375 L 127.648438 42.667969 C 127.472656 42.664063 114 42.355469 97.328125 50.441406 C 97.035156 50.609375 96.746094 50.796875 96.460938 50.988281 C 101.683594 52.519531 106 52.832031 109.097656 53.042969 C 109.828125 53.09375 110.476563 53.136719 111.039063 53.191406 L 111.503906 53.230469 C 113.515625 53.398438 116.332031 53.71875 119.648438 54.3125 C 122.113281 51.292969 125.089844 49.410156 127.097656 48.964844 C 129.460938 49.851563 130.667969 51.230469 131.527344 53.203125 C 134.804688 54.574219 137 56.992188 138.441406 59.882813 C 146.023438 63.183594 153.644531 68.074219 159.46875 75.308594 C 153.363281 61.199219 142.25 49.355469 127.652344 42.59375 Z M 92.917969 54.121094 C 91.539063 55.644531 90.402344 57.253906 89.550781 58.609375 C 91.28125 60.410156 94.589844 63.871094 96.230469 65.714844 C 99.058594 67.417969 101.898438 69.265625 104.714844 71.238281 C 109.195313 66.191406 113.179688 62.097656 117.105469 57.984375 C 115.199219 57.714844 113.222656 57.488281 111.160156 57.308594 L 110.648438 57.269531 C 110.121094 57.214844 109.503906 57.175781 108.820313 57.128906 C 105.289063 56.890625 99.679688 56.453125 92.917969 54.121094 Z M 57.261719 57.511719 C 55.613281 57.507813 54.214844 57.570313 53.15625 57.644531 C 47.839844 63.488281 43.558594 70.40625 40.648438 78.175781 C 47.164063 71.414063 56.960938 64.226563 67.84375 66.351563 C 68.703125 64.824219 69.574219 63.296875 70.367188 61.90625 C 66.96875 59.679688 64.847656 58.0625 58.988281 57.539063 C 58.386719 57.519531 57.808594 57.511719 57.261719 57.511719 Z M 140.183594 64.933594 C 142.128906 73.644531 139.921875 83.542969 139.921875 83.542969 C 139.921875 83.542969 144.660156 86.285156 145.808594 91.511719 C 145.8125 91.515625 146.441406 91.78125 146.9375 92.550781 C 148.261719 94.175781 149.949219 97.917969 147.234375 105.285156 C 147.234375 105.285156 145.625 101.847656 142.214844 105.546875 C 141.921875 105.957031 141.636719 106.363281 141.359375 106.761719 C 147.851563 115.699219 152.796875 125.023438 155.316406 134.125 C 158.203125 129.390625 160.535156 124.207031 162.160156 118.625 C 164.421875 110.855469 165.128906 103.007813 164.496094 95.398438 C 162.847656 87.796875 157.476563 73.796875 140.183594 64.933594 Z M 80.660156 66.421875 C 78.90625 67.261719 76.984375 68.238281 75.132813 69.308594 C 80.347656 72.730469 84.230469 78.515625 87.183594 85.3125 C 91.328125 83.871094 94.191406 83.839844 94.191406 83.839844 C 96.976563 80.300781 99.546875 77.191406 101.960938 74.386719 C 99.171875 72.4375 96.367188 70.613281 93.570313 68.9375 C 90.5 67.832031 83.171875 66.769531 80.660156 66.425781 Z M 63.417969 70.070313 C 52.011719 70.449219 41.925781 82.355469 37.855469 87.875 C 35.011719 101.71875 36.898438 115.597656 42.515625 127.691406 C 45.535156 124.859375 48.4375 121.933594 51.203125 119.015625 C 50.984375 109.824219 52.21875 100.964844 54.90625 92.496094 C 57.164063 85.394531 60.199219 79.398438 63.433594 74.394531 C 63.925781 73.425781 64.746094 71.910156 65.71875 70.152344 C 64.945313 70.070313 64.179688 70.042969 63.417969 70.070313 Z M 71.273438 71.78125 C 70.296875 72.488281 69.414063 73.214844 68.671875 73.945313 C 61.210938 84.4375 55.902344 98.140625 55.386719 114.496094 C 63.355469 105.726563 69.910156 97.597656 74.382813 93.292969 C 77.484375 90.3125 80.617188 88.277344 83.453125 86.878906 C 80.484375 80.039063 76.570313 74.453125 71.273438 71.78125 Z M 138.882813 110.519531 C 134.703125 117.308594 132.648438 123.695313 132.414063 134.898438 C 132.289063 141.039063 135.3125 145.765625 137.558594 153.066406 C 143.125 149.144531 148.085938 144.332031 152.203125 138.753906 C 150.351563 129.589844 145.535156 119.898438 138.882813 110.519531 Z M 138.882813 110.519531 "/>
<path style=" stroke:none;fill-rule:nonzero;fill:rgb(47.068787%,74.414063%,12.547302%);fill-opacity:1;" d="M 126.917969 51.761719 C 125.683594 51.726563 124.101563 52.828125 122.160156 56.363281 C 126.304688 51.929688 129.949219 54.785156 129.949219 54.785156 C 129.503906 53.734375 128.5 51.804688 126.917969 51.761719 Z M 88.117188 52.636719 L 79.230469 57.097656 C 79.230469 57.097656 72.871094 56.574219 69.527344 56.476563 C 72.574219 58.441406 75.222656 60.703125 75.222656 60.703125 L 71.289063 67.226563 L 79.675781 62.664063 C 79.675781 62.664063 84.96875 63.554688 89.789063 64.539063 C 87.035156 61.390625 83.683594 59.066406 83.683594 59.066406 Z M 91.695313 91.023438 C 86.851563 93.445313 79.566406 100.707031 79.566406 100.707031 C 83.078125 98.316406 90.375 97.238281 90.375 97.238281 C 90.527344 94.246094 91.695313 91.023438 91.695313 91.023438 Z M 91.695313 91.023438 "/>
<path style=" stroke:none;fill-rule:nonzero;fill:rgb(61.914063%,63.476563%,63.476563%);fill-opacity:1;" d="M 100.546875 28.5 C 64.714844 28.5 34.003906 55.308594 29.101563 90.855469 C 27.066406 105.613281 29.570313 120.304688 36.183594 133.308594 C 37.011719 132.617188 37.832031 131.914063 38.648438 131.199219 C 32.582031 118.933594 30.308594 105.140625 32.222656 91.285156 C 36.90625 57.285156 66.277344 31.652344 100.546875 31.652344 C 103.703125 31.652344 106.902344 31.871094 110.058594 32.304688 C 128.300781 34.820313 144.492188 44.3125 155.644531 59.03125 C 166.796875 73.746094 171.554688 91.902344 169.035156 110.144531 C 166.261719 130.277344 154.832031 147.472656 138.855469 158.152344 C 139.070313 159.226563 139.261719 160.351563 139.421875 161.539063 C 156.738281 150.4375 169.1875 132.113281 172.15625 110.574219 C 174.785156 91.5 169.808594 72.515625 158.148438 57.128906 C 146.488281 41.738281 129.5625 31.816406 110.488281 29.1875 C 107.191406 28.734375 103.84375 28.5 100.542969 28.5 Z M 132.085938 58.429688 C 132.230469 58.882813 132.070313 60.464844 131.941406 61.710938 C 131.941406 61.710938 131.929688 61.691406 131.921875 61.683594 C 129.03125 62.207031 122.65625 61.488281 120.589844 60.402344 C 112.753906 68.808594 104.210938 80.5 97.78125 91.242188 C 94.992188 96.921875 92.257813 103.585938 91.578125 109 C 91.578125 109 90.6875 106.550781 90.480469 103.285156 C 86.921875 104.660156 74.828125 110.601563 72.238281 128.828125 C 72.238281 128.828125 79.925781 120.898438 88.425781 117.804688 C 88.425781 117.804688 83.042969 131.902344 93.316406 156.882813 C 93.316406 156.882813 97.472656 141.566406 106.171875 137.703125 C 111.4375 163.859375 126.878906 164.289063 131.382813 182.085938 C 131.382813 182.085938 136.101563 172.867188 130.421875 157.195313 C 130.421875 157.195313 132.382813 157.742188 134.042969 159.699219 C 134.042969 159.699219 133.785156 155.117188 129.5 145.226563 C 126.707031 139.929688 125.832031 132.789063 125.832031 132.789063 C 123.324219 135.058594 122.683594 142.734375 122.683594 142.734375 C 115.015625 121.9375 136.773438 101.328125 140.746094 98.289063 C 142.683594 96.800781 143.878906 96.777344 144.601563 97.132813 C 145.347656 95.585938 145.28125 94.59375 144.382813 93.949219 C 144.382813 93.949219 144.003906 93.6875 143.917969 93.644531 C 141.609375 92.414063 137.472656 96.003906 134.769531 97.492188 C 132.070313 98.976563 128.136719 102.148438 126.214844 97.78125 C 124.292969 93.417969 128.710938 86.589844 130.242188 82.296875 C 133.621094 72.796875 133.742188 67.207031 133.027344 64.179688 C 136.152344 67.703125 137.132813 74.460938 137.132813 74.460938 C 137.132813 74.460938 138.292969 61.773438 132.089844 58.433594 Z M 64.445313 130.882813 C 64.445313 130.882813 49.941406 141.511719 35.109375 142.359375 C 35.109375 142.359375 49.785156 145.820313 55.992188 143.285156 C 55.398438 142.894531 54.730469 142.332031 54.070313 141.488281 C 54.070313 141.488281 60.0625 137.628906 64.414063 130.957031 C 64.421875 130.933594 64.433594 130.90625 64.445313 130.878906 Z M 64.445313 130.882813 "/>
<path style=" stroke:none;fill-rule:nonzero;fill:rgb(100%,100%,100%);fill-opacity:1;" d="M 108.203125 10.585938 L 107.851563 13.246094 L 111.238281 13.695313 L 109.980469 23.191406 L 112.707031 23.554688 L 113.96875 14.058594 L 117.355469 14.507813 L 117.707031 11.847656 Z M 84.683594 11.671875 L 84.292969 11.738281 L 80.867188 24.878906 L 83.851563 24.363281 L 85.554688 17.914063 L 89.304688 23.421875 L 92.3125 22.902344 Z M 125.476563 13.878906 L 121.992188 25.636719 L 124.628906 26.417969 L 128.117188 14.664063 Z M 72.324219 14.527344 L 63.441406 18.121094 L 64.445313 20.605469 L 67.609375 19.324219 L 71.203125 28.203125 L 73.757813 27.171875 L 70.164063 18.292969 L 73.328125 17.011719 Z M 137.382813 17.867188 L 131.652344 28.84375 L 134.078125 30.113281 L 136.71875 25.054688 L 137.96875 29.738281 L 138.285156 29.90625 L 142.839844 28.246094 L 140.195313 33.308594 L 142.644531 34.585938 L 148.375 23.605469 L 148.003906 23.414063 L 139.929688 26.363281 L 137.753906 18.113281 L 137.738281 18.054688 Z M 54.96875 23.550781 C 51.492188 23.550781 48.671875 26.371094 48.671875 29.851563 C 48.671875 33.328125 51.492188 36.148438 54.96875 36.148438 C 58.449219 36.148438 61.269531 33.328125 61.269531 29.851563 C 61.269531 26.371094 58.449219 23.550781 54.96875 23.550781 Z M 54.96875 26.414063 C 56.871094 26.414063 58.40625 27.949219 58.40625 29.851563 C 58.40625 31.746094 56.871094 33.289063 54.96875 33.289063 C 53.070313 33.289063 51.535156 31.746094 51.535156 29.851563 C 51.535156 27.949219 53.070313 26.414063 54.96875 26.414063 Z M 156.585938 29.6875 L 154.789063 31.757813 L 153.5625 33.164063 L 153.464844 33.277344 L 151.769531 35.230469 L 150.3125 36.910156 L 148.515625 38.976563 L 150.582031 40.769531 L 152.375 42.328125 C 153.160156 43.007813 154.082031 43.386719 155.039063 43.417969 C 156.175781 43.453125 157.257813 42.976563 158.007813 42.113281 C 158.664063 41.355469 158.976563 40.402344 158.910156 39.425781 C 159.605469 39.238281 160.238281 38.84375 160.742188 38.265625 C 161.515625 37.378906 161.832031 36.285156 161.628906 35.195313 C 161.464844 34.308594 160.976563 33.507813 160.175781 32.8125 L 158.652344 31.484375 Z M 156.855469 33.550781 L 158.382813 34.878906 C 159.023438 35.4375 159.121094 35.957031 158.675781 36.472656 C 158.128906 37.101563 157.445313 36.738281 156.96875 36.324219 L 155.53125 35.074219 Z M 40.296875 35.042969 L 40.054688 35.046875 C 38.683594 35.089844 37.390625 35.761719 36.214844 37.042969 C 35.472656 37.855469 35.019531 38.816406 34.933594 39.75 C 34.828125 40.839844 35.234375 41.835938 36.09375 42.625 C 37.429688 43.847656 39 43.929688 40.894531 42.875 L 42.214844 42.144531 C 42.898438 41.761719 43.339844 41.613281 43.703125 41.953125 C 44.144531 42.347656 44.035156 42.910156 43.394531 43.625 C 43.390625 43.632813 43.386719 43.640625 43.375 43.644531 C 42.527344 44.570313 41.566406 44.640625 40.917969 44.613281 L 40.683594 44.601563 L 40.382813 47.660156 L 40.644531 47.671875 C 41.660156 47.726563 43.65625 47.507813 45.550781 45.4375 C 45.566406 45.417969 45.582031 45.398438 45.601563 45.378906 C 46.5625 44.3125 47.074219 43.253906 47.128906 42.234375 C 47.183594 41.175781 46.742188 40.214844 45.824219 39.371094 C 44.457031 38.121094 42.96875 38.09375 40.855469 39.28125 L 39.378906 40.105469 C 38.835938 40.410156 38.519531 40.425781 38.21875 40.144531 C 37.863281 39.820313 37.929688 39.320313 38.390625 38.808594 C 38.394531 38.804688 38.394531 38.800781 38.398438 38.800781 C 38.925781 38.222656 39.511719 37.921875 40.238281 37.867188 L 40.484375 37.847656 Z M 153.84375 37.027344 L 155.53125 38.496094 C 156.226563 39.09375 156.390625 39.8125 155.949219 40.316406 C 155.507813 40.820313 154.800781 40.800781 154.179688 40.261719 L 152.386719 38.703125 Z M 169.742188 42.402344 L 160.128906 50.011719 L 165.300781 56.546875 L 167.445313 54.847656 L 163.984375 50.472656 L 165.59375 49.199219 L 168.574219 52.964844 L 170.722656 51.269531 L 167.738281 47.5 L 169.324219 46.246094 L 172.785156 50.625 L 174.917969 48.9375 Z M 27.957031 46.523438 L 23.335938 53.457031 L 33.535156 60.261719 L 38.160156 53.328125 L 35.882813 51.804688 L 32.785156 56.453125 L 31.078125 55.316406 L 33.746094 51.3125 L 31.464844 49.796875 L 28.800781 53.792969 L 27.117188 52.671875 L 30.214844 48.027344 Z M 179.839844 56.9375 L 168.84375 62.355469 L 170.058594 64.824219 L 175.148438 62.316406 L 171.667969 68.097656 L 173.121094 71.035156 C 173.121094 71.035156 175.636719 66.800781 175.8125 66.523438 C 176.867188 67.632813 178.59375 67.785156 180.121094 67.03125 C 182.417969 65.902344 183.140625 63.628906 181.863281 61.042969 Z M 178.636719 60.597656 L 179.410156 62.175781 C 179.96875 63.308594 179.707031 64.089844 178.707031 64.582031 C 177.695313 65.082031 176.898438 64.820313 176.34375 63.6875 L 175.566406 62.109375 Z M 18.492188 62.355469 L 17.445313 64.921875 L 23.367188 67.34375 L 14.730469 71.28125 L 14.566406 71.695313 L 26.011719 76.375 L 27.046875 73.835938 L 21.097656 71.40625 L 29.773438 67.453125 L 29.941406 67.035156 Z M 186.734375 71.96875 L 175.769531 79.253906 L 175.871094 79.675781 L 183.253906 81.394531 L 177.460938 86.257813 L 177.5625 86.6875 L 190.640625 88.167969 L 189.960938 85.34375 L 183.664063 84.601563 L 188.84375 80.257813 L 188.742188 79.84375 L 182.144531 78.292969 L 187.417969 74.800781 Z M 11.847656 81.96875 L 11.421875 84.703125 L 17.742188 85.691406 L 10.246094 91.515625 L 10.175781 91.960938 L 22.394531 93.871094 L 22.816406 91.160156 L 16.46875 90.167969 L 23.996094 84.324219 L 24.066406 83.878906 Z M 140.328125 87.652344 C 140.933594 88.585938 140.953125 89.875 140.882813 90.703125 C 141.695313 90.503906 142.300781 90.472656 142.75 90.503906 C 142.617188 90.132813 142.363281 89.574219 141.910156 89.023438 C 141.269531 88.242188 140.328125 87.652344 140.328125 87.652344 Z M 133.929688 88.886719 C 134.605469 90.882813 134.460938 92.902344 134.296875 94.023438 C 135.242188 93.375 136.097656 92.835938 136.882813 92.398438 C 136.738281 92.058594 136.519531 91.574219 136.1875 90.984375 C 135.5625 89.867188 133.929688 88.886719 133.929688 88.886719 Z M 184.988281 94.882813 C 181.507813 94.882813 178.6875 97.703125 178.6875 101.179688 C 178.6875 104.660156 181.507813 107.476563 184.988281 107.476563 C 188.464844 107.476563 191.289063 104.660156 191.289063 101.179688 C 191.289063 97.703125 188.464844 94.882813 184.988281 94.882813 Z M 184.988281 97.746094 C 186.886719 97.746094 188.425781 99.28125 188.425781 101.179688 C 188.425781 103.078125 186.886719 104.617188 184.988281 104.617188 C 183.089844 104.617188 181.550781 103.078125 181.550781 101.179688 C 181.550781 99.28125 183.089844 97.746094 184.988281 97.746094 Z M 22.238281 101.355469 L 9.984375 101.648438 L 10.046875 104.402344 L 22.304688 104.109375 Z M 22.785156 111.453125 L 10.667969 114.011719 L 10.757813 114.421875 L 18.167969 118.777344 L 13.1875 125.703125 L 13.148438 125.753906 L 13.234375 126.148438 L 25.351563 123.589844 L 24.785156 120.910156 L 19.203125 122.089844 L 22.023438 118.144531 L 21.949219 117.792969 L 17.773438 115.332031 L 23.359375 114.152344 Z M 177.976563 113.9375 L 176.121094 121.898438 L 178.835938 122.53125 L 180.070313 117.25 L 189.292969 119.402344 L 189.921875 116.722656 Z M 186.851563 129.265625 L 173.285156 129.878906 L 173.136719 130.25 L 182.535156 140.050781 L 183.660156 137.238281 L 179.0625 132.40625 L 185.714844 132.097656 Z M 168.628906 139.628906 L 164.171875 146.671875 L 166.484375 148.132813 L 169.46875 143.417969 L 171.203125 144.511719 L 168.636719 148.578125 L 170.949219 150.039063 L 173.519531 145.976563 L 175.230469 147.058594 L 172.246094 151.777344 L 174.535156 153.226563 L 178.992188 146.183594 Z M 162.421875 152.683594 C 162.203125 152.683594 160.234375 152.699219 158.894531 153.351563 C 158.191406 153.695313 157.578125 154.128906 157.078125 154.632813 C 156.433594 155.277344 155.984375 156.035156 155.769531 156.839844 C 155.414063 158.1875 155.804688 159.597656 156.785156 160.527344 C 157.726563 161.414063 159.050781 161.695313 160.328125 161.277344 C 160.753906 161.140625 161.246094 160.898438 161.816406 160.617188 C 162.488281 160.289063 163.503906 159.765625 163.96875 159.738281 C 165.097656 159.671875 165.070313 161.296875 163.628906 162.003906 C 163.089844 162.265625 162.171875 162.53125 161.695313 162.59375 L 162.039063 165.351563 C 162.230469 165.328125 163.898438 165.105469 165.085938 164.371094 C 167.117188 163.121094 167.511719 161.519531 167.566406 160.675781 C 167.617188 159.882813 167.285156 158.707031 166.429688 157.882813 C 165.703125 157.1875 164.726563 156.863281 163.679688 156.972656 C 162.71875 157.074219 161.585938 157.628906 160.589844 158.121094 C 160.152344 158.335938 159.699219 158.554688 159.464844 158.632813 C 159.15625 158.734375 158.894531 158.691406 158.695313 158.503906 C 158.503906 158.324219 158.34375 157.980469 158.457031 157.550781 C 158.628906 156.910156 159.246094 156.273438 160.109375 155.855469 C 160.6875 155.574219 161.832031 155.464844 162.414063 155.464844 Z M 162.421875 152.683594 "/>
</g>
</svg>
