<?xml version="1.0" encoding="UTF-8"?>
<svg xmlns="http://www.w3.org/2000/svg" xmlns:xlink="http://www.w3.org/1999/xlink" width="185pt" height="140pt" viewBox="0 0 185 140" version="1.1">
<g id="surface1">
<path style=" stroke:none;fill-rule:nonzero;fill:rgb(70.506287%,59.179688%,35.301208%);fill-opacity:1;" d="M 76.050781 11.5625 C 76.140625 11.652344 76.324219 11.652344 76.414063 11.742188 C 72.09375 12.101563 67.773438 12.550781 63.722656 13.179688 C 67.1875 10.332031 71.96875 9.703125 76.050781 11.5625 Z M 121.230469 13.179688 C 117.09375 12.550781 112.863281 12.011719 108.542969 11.742188 C 108.632813 11.652344 108.722656 11.652344 108.902344 11.5625 C 112.976563 9.65625 117.789063 10.289063 121.230469 13.179688 Z M 183.960938 53.769531 L 184.59375 53.953125 L 184.59375 43.511719 C 184.554688 41.855469 184.25 40.210938 183.691406 38.652344 C 183.152344 37.019531 182.332031 35.496094 181.261719 34.152344 C 180.324219 32.914063 179.234375 31.792969 178.023438 30.820313 C 176.949219 29.953125 175.769531 29.226563 174.511719 28.660156 C 173.703125 28.121094 172.082031 27.3125 167.761719 25.691406 C 164.164063 24.25 158.222656 22 150.664063 19.75 C 142.175781 17.242188 133.550781 15.226563 124.832031 13.722656 C 124.742188 13.632813 118.082031 5.261719 108.09375 9.582031 C 107.730469 9.761719 107.371094 9.941406 107.011719 10.121094 C 105.421875 11.105469 103.476563 11.335938 101.703125 10.75 C 100.171875 10.390625 98.28125 9.402344 99.09375 6.070313 C 99.335938 5.121094 99.953125 4.3125 100.800781 3.820313 C 101.398438 3.464844 102.113281 3.367188 102.78125 3.550781 C 104.132813 3.910156 104.761719 4.722656 104.492188 5.800781 C 104.453125 6.238281 104.175781 6.617188 103.773438 6.792969 C 103.308594 6.96875 102.78125 6.863281 102.421875 6.519531 C 101.921875 6.1875 101.25 6.308594 100.890625 6.792969 C 100.605469 7.269531 100.722656 7.890625 101.164063 8.230469 C 102.125 9.007813 103.425781 9.214844 104.582031 8.769531 C 105.613281 8.238281 106.367188 7.289063 106.652344 6.160156 C 106.742188 5.351563 106.921875 2.5625 103.414063 1.570313 C 102.179688 1.125 100.8125 1.292969 99.722656 2.019531 C 98.371094 2.804688 97.394531 4.105469 97.023438 5.621094 L 97.023438 5.710938 C 96.699219 5.261719 96.335938 4.839844 95.941406 4.453125 L 92.433594 0.941406 L 89.011719 4.453125 C 88.613281 4.835938 88.253906 5.257813 87.933594 5.710938 L 87.933594 5.621094 C 87.527344 4.121094 86.558594 2.832031 85.230469 2.019531 C 84.140625 1.296875 82.773438 1.132813 81.542969 1.570313 C 77.941406 2.5625 78.210938 5.351563 78.300781 6.160156 C 78.519531 7.320313 79.292969 8.296875 80.371094 8.769531 C 81.496094 9.21875 82.777344 9.011719 83.703125 8.230469 C 84.203125 7.9375 84.367188 7.289063 84.0625 6.792969 C 83.707031 6.308594 83.03125 6.1875 82.53125 6.519531 C 82.167969 6.851563 81.648438 6.957031 81.183594 6.792969 C 80.777344 6.597656 80.480469 6.234375 80.371094 5.800781 C 80.191406 4.722656 80.730469 4 82.082031 3.550781 C 82.78125 3.367188 83.523438 3.464844 84.152344 3.820313 C 84.976563 4.339844 85.585938 5.140625 85.863281 6.070313 C 86.671875 9.402344 84.691406 10.390625 83.253906 10.75 C 80.640625 11.472656 79.382813 10.839844 77.851563 10.121094 C 77.53125 9.921875 77.203125 9.742188 76.863281 9.582031 C 66.871094 5.351563 60.210938 13.632813 60.121094 13.722656 L 60.03125 13.8125 C 51.648438 15.25 43.355469 17.171875 35.191406 19.570313 C 27.085938 21.945313 19.148438 24.859375 11.433594 28.300781 L 9.992188 28.929688 L 9.992188 29.113281 C 9.453125 29.292969 8.824219 29.472656 8.191406 29.742188 C 5.941406 30.730469 3.78125 31.8125 1.621094 32.890625 L 0.00390625 33.703125 L 0.00390625 39.460938 C -0.0273438 40.652344 0.25 41.832031 0.8125 42.882813 C 0.960938 43.039063 1.085938 43.222656 1.171875 43.417969 L 1.171875 49.722656 C 0.480469 50.992188 0.109375 52.414063 0.09375 53.863281 C 0.0507813 55.148438 0.429688 56.410156 1.171875 57.460938 L 1.171875 70.601563 L 1.351563 70.960938 C 2.882813 74.714844 5.917969 77.65625 9.722656 79.0625 L 9.542969 79.152344 C 9.542969 79.152344 12.871094 84.460938 17.914063 85.542969 L 16.921875 85.992188 C 19.421875 89.617188 23.226563 92.132813 27.542969 93.011719 L 26.460938 93.546875 C 29.613281 96.605469 33.640625 98.589844 37.980469 99.222656 C 45.566406 122.917969 67.59375 139 92.476563 139 C 117.359375 139 139.390625 122.917969 146.972656 99.222656 C 151.28125 98.574219 155.277344 96.589844 158.402344 93.546875 L 157.414063 93.011719 C 164.34375 91.75 167.941406 85.992188 167.941406 85.992188 L 166.953125 85.542969 C 172.082031 84.460938 175.324219 79.152344 175.324219 79.152344 L 175.683594 78.703125 C 181.164063 76.4375 184.769531 71.128906 184.863281 65.203125 L 184.863281 58.542969 C 184.839844 56.910156 184.539063 55.292969 183.960938 53.769531 Z M 183.960938 53.769531 "/>
<path style=" stroke:none;fill-rule:nonzero;fill:rgb(0%,16.868591%,36.083984%);fill-opacity:1;" d="M 179.191406 49.269531 L 182.253906 50.53125 L 182.253906 43.511719 C 182.238281 42.128906 181.996094 40.761719 181.53125 39.460938 C 181.042969 38.074219 180.34375 36.769531 179.460938 35.589844 C 178.597656 34.515625 177.632813 33.519531 176.582031 32.621094 C 175.589844 31.855469 174.5 31.21875 173.34375 30.730469 C 172.710938 30.28125 171.183594 29.472656 166.953125 27.851563 C 163.351563 26.410156 157.503906 24.25 149.941406 22 C 137.613281 18.3125 119.074219 13.992188 99.632813 13.632813 C 99.171875 12.296875 98.042969 11.304688 96.664063 11.019531 C 96.46875 9.132813 95.609375 7.378906 94.230469 6.070313 L 92.433594 4.269531 L 90.632813 6.070313 C 89.328125 7.417969 88.503906 9.160156 88.292969 11.019531 C 86.875 11.269531 85.703125 12.269531 85.230469 13.632813 C 66.242188 13.992188 47.972656 18.222656 35.824219 21.820313 C 27.820313 24.175781 19.972656 27.03125 12.332031 30.371094 L 12.332031 31.8125 C 12.234375 31.761719 12.144531 31.703125 12.0625 31.632813 C 11.683594 31.519531 11.289063 31.460938 10.890625 31.453125 C 10.304688 31.449219 9.71875 31.570313 9.183594 31.8125 C 7.023438 32.800781 4.863281 33.882813 2.703125 34.960938 L 2.34375 35.140625 L 2.34375 39.460938 C 2.316406 40.246094 2.503906 41.023438 2.882813 41.710938 C 3.0625 42.003906 3.273438 42.273438 3.511719 42.519531 L 3.511719 50.261719 C 2.839844 51.34375 2.46875 52.585938 2.433594 53.863281 C 2.371094 54.878906 2.765625 55.867188 3.511719 56.5625 L 3.511719 70.152344 C 5.0625 73.769531 8.234375 76.441406 12.0625 77.351563 C 12.21875 77.335938 12.375 77.367188 12.511719 77.441406 L 12.601563 77.441406 C 13.695313 77.671875 14.816406 77.765625 15.933594 77.710938 C 14.761719 78.25 13.683594 78.792969 12.511719 79.417969 C 12.511719 79.511719 15.933594 85.089844 24.121094 84.28125 C 22.773438 84.910156 21.421875 85.542969 20.074219 86.261719 C 20.074219 86.351563 23.941406 91.839844 32.582031 91.660156 C 30.601563 92.652344 29.433594 93.28125 29.433594 93.28125 C 32.308594 95.886719 35.996094 97.410156 39.871094 97.601563 C 46.878906 120.792969 68.25 136.660156 92.476563 136.660156 C 116.707031 136.660156 138.074219 120.792969 145.082031 97.601563 C 148.949219 97.382813 152.632813 95.863281 155.523438 93.28125 C 155.523438 93.28125 154.261719 92.652344 152.28125 91.660156 C 160.921875 91.839844 164.882813 86.351563 164.882813 86.261719 C 163.53125 85.542969 162.183594 84.910156 160.832031 84.28125 C 169.023438 85.089844 172.441406 79.511719 172.441406 79.417969 C 171.273438 78.792969 170.191406 78.25 169.023438 77.710938 C 171.410156 77.851563 173.789063 77.289063 175.863281 76.089844 C 180.183594 73.660156 182.613281 69.160156 182.613281 65.203125 L 182.613281 58.542969 C 182.613281 54.222656 179.191406 49.269531 179.191406 49.269531 Z M 179.191406 49.269531 "/>
<path style=" stroke:none;fill-rule:nonzero;fill:rgb(89.0625%,9.423828%,21.556091%);fill-opacity:1;" d="M 128.972656 102.28125 C 130.050781 103 131.042969 103.8125 132.121094 104.621094 C 132.121094 104.53125 119.882813 107.953125 111.152344 104.167969 C 110.871094 103.984375 110.570313 103.835938 110.253906 103.722656 C 108.03125 111.699219 100.761719 117.222656 92.476563 117.222656 C 84.195313 117.222656 76.925781 111.699219 74.703125 103.722656 C 74.355469 103.832031 74.023438 103.984375 73.710938 104.167969 C 65.074219 107.953125 52.832031 104.53125 52.832031 104.621094 C 53.914063 103.8125 54.902344 103 55.890625 102.28125 C 52.261719 102.746094 48.578125 102.410156 45.09375 101.292969 C 52.984375 120.511719 71.699219 133.0625 92.476563 133.0625 C 113.253906 133.0625 131.972656 120.511719 139.863281 101.292969 C 136.347656 102.414063 132.632813 102.75 128.972656 102.28125 Z M 128.972656 102.28125 "/>
<path style=" stroke:none;fill-rule:nonzero;fill:rgb(100%,100%,100%);fill-opacity:1;" d="M 87.390625 18.941406 C 86.46875 18.484375 85.738281 17.722656 85.324219 16.78125 C 54.632813 17.5 23.941406 28.570313 24.03125 29.019531 C 22.917969 29.339844 22.101563 30.296875 21.960938 31.453125 L 21.960938 32.53125 C 42.839844 24.371094 64.984375 19.921875 87.390625 19.390625 Z M 87.390625 18.941406 "/>
<path style=" stroke:none;fill-rule:nonzero;fill:rgb(100%,100%,100%);fill-opacity:1;" d="M 162.8125 29.742188 C 162.902344 29.292969 130.683594 17.5 99.632813 16.78125 C 99.191406 17.703125 98.464844 18.460938 97.5625 18.941406 L 97.5625 19.390625 C 120.636719 20.078125 143.414063 24.769531 164.882813 33.25 L 164.882813 32.171875 C 164.691406 31.042969 163.898438 30.109375 162.8125 29.742188 Z M 162.8125 29.742188 "/>
<path style=" stroke:none;fill-rule:nonzero;fill:rgb(89.0625%,9.423828%,21.556091%);fill-opacity:1;" d="M 95.851563 13.453125 C 93.871094 13.179688 93.511719 15.972656 93.421875 16.960938 L 92.792969 16.960938 C 92.882813 14.261719 94.140625 13.179688 94.140625 11.382813 C 94.140625 9.582031 92.433594 7.871094 92.433594 7.871094 C 92.433594 7.871094 90.8125 9.582031 90.8125 11.382813 C 90.8125 13.179688 92.074219 14.261719 92.074219 16.960938 L 91.441406 16.960938 C 91.441406 15.972656 91.082031 13.179688 89.101563 13.453125 C 86.941406 13.632813 87.210938 16.691406 89.101563 16.871094 C 89.101563 16.871094 88.742188 15.519531 89.824219 15.519531 C 90.542969 15.519531 90.8125 16.511719 90.8125 16.960938 L 89.914063 16.960938 L 89.914063 18.042969 L 91.980469 18.042969 C 91.863281 18.589844 91.5 19.054688 90.992188 19.300781 C 91.179688 19.636719 91.511719 19.871094 91.890625 19.929688 C 91.914063 20.402344 92.105469 20.851563 92.433594 21.191406 C 92.757813 20.851563 92.949219 20.402344 92.972656 19.929688 C 93.371094 19.855469 93.726563 19.632813 93.960938 19.300781 C 93.457031 19.054688 93.089844 18.589844 92.972656 18.042969 L 95.042969 18.042969 L 95.042969 16.960938 L 94.140625 16.960938 C 94.140625 16.511719 94.324219 15.519531 95.132813 15.519531 C 96.210938 15.519531 95.851563 16.871094 95.851563 16.871094 C 97.742188 16.691406 98.011719 13.632813 95.851563 13.453125 Z M 95.851563 13.453125 "/>
<path style=" stroke:none;fill-rule:nonzero;fill:rgb(100%,100%,100%);fill-opacity:1;" d="M 82.351563 44.410156 C 82.359375 44.847656 82.265625 45.277344 82.082031 45.667969 C 81.867188 45.964844 81.628906 46.234375 81.363281 46.480469 C 81.09375 46.683594 80.785156 46.835938 80.460938 46.929688 C 80.160156 47.105469 79.820313 47.195313 79.472656 47.203125 C 79.109375 47.214844 78.746094 47.1875 78.390625 47.113281 C 78.074219 47.042969 77.769531 46.921875 77.492188 46.75 C 77.1875 46.542969 76.9375 46.269531 76.773438 45.941406 C 76.578125 45.582031 76.484375 45.179688 76.503906 44.769531 L 76.503906 28.121094 C 76.484375 27.714844 76.578125 27.308594 76.773438 26.953125 C 76.960938 26.613281 77.203125 26.308594 77.492188 26.050781 C 77.78125 25.851563 78.082031 25.671875 78.390625 25.511719 C 78.742188 25.40625 79.105469 25.347656 79.472656 25.332031 C 79.804688 25.316406 80.136719 25.347656 80.460938 25.421875 C 80.78125 25.484375 81.085938 25.609375 81.363281 25.78125 C 81.667969 25.984375 81.917969 26.265625 82.082031 26.589844 C 82.277344 26.949219 82.371094 27.355469 82.351563 27.761719 Z M 86.042969 34.152344 L 86.042969 27.492188 C 86.066406 26.648438 85.878906 25.8125 85.503906 25.0625 C 85.199219 24.386719 84.695313 23.820313 84.0625 23.441406 C 83.472656 22.945313 82.753906 22.632813 81.992188 22.542969 C 81.167969 22.34375 80.316406 22.285156 79.472656 22.363281 C 78.582031 22.363281 77.699219 22.515625 76.863281 22.8125 C 76.105469 23.070313 75.40625 23.46875 74.792969 23.980469 C 74.1875 24.507813 73.699219 25.148438 73.351563 25.871094 C 72.984375 26.628906 72.800781 27.460938 72.8125 28.300781 L 72.8125 34.960938 C 72.132813 35.167969 71.664063 35.78125 71.640625 36.492188 C 71.640625 37.167969 72.140625 37.746094 72.8125 37.839844 L 72.8125 45.222656 C 72.789063 46.0625 72.972656 46.898438 73.351563 47.652344 C 73.707031 48.292969 74.199219 48.84375 74.792969 49.269531 C 75.429688 49.664063 76.128906 49.9375 76.863281 50.082031 C 77.722656 50.25 78.601563 50.28125 79.472656 50.167969 C 80.332031 50.160156 81.183594 50.007813 81.992188 49.722656 C 82.742188 49.492188 83.445313 49.125 84.0625 48.640625 C 84.664063 48.148438 85.152344 47.535156 85.503906 46.839844 C 85.871094 46.085938 86.054688 45.253906 86.042969 44.410156 L 86.042969 36.941406 C 86.761719 36.84375 87.300781 36.230469 87.300781 35.5 C 87.328125 34.78125 86.761719 34.175781 86.042969 34.152344 Z M 86.042969 34.152344 "/>
<path style=" stroke:none;fill-rule:nonzero;fill:rgb(100%,100%,100%);fill-opacity:1;" d="M 15.574219 52.0625 C 15.574219 52.0625 15.574219 52.152344 15.480469 52.0625 L 15.480469 51.972656 C 15.300781 51.703125 10.980469 37.121094 10.710938 36.492188 C 10.53125 35.863281 10.351563 35.5 10.351563 35.410156 C 10.316406 35.234375 10.222656 35.074219 10.082031 34.960938 C 9.867188 34.953125 9.65625 34.984375 9.453125 35.050781 C 8.101563 35.679688 6.84375 36.3125 5.492188 36.941406 L 5.492188 38.203125 C 5.488281 38.511719 5.550781 38.816406 5.671875 39.101563 C 5.851563 39.28125 5.941406 39.460938 6.121094 39.460938 C 6.3125 39.574219 6.53125 39.636719 6.753906 39.640625 L 6.753906 50.710938 C 6.09375 51.128906 5.664063 51.824219 5.582031 52.601563 C 5.515625 53.242188 6.148438 53.730469 6.753906 53.5 L 6.753906 69.160156 C 7.742188 68.621094 8.730469 68.167969 9.722656 67.632813 L 9.722656 48.101563 C 9.71875 48.003906 9.75 47.90625 9.8125 47.832031 C 9.8125 47.917969 9.8125 47.917969 9.902344 47.917969 C 9.988281 48.292969 10.109375 48.652344 10.261719 49 C 10.441406 49.632813 14.761719 63.851563 14.761719 64.03125 C 14.847656 64.316406 14.96875 64.585938 15.121094 64.839844 C 15.300781 65.113281 15.480469 65.113281 15.753906 65.019531 C 16.472656 64.660156 17.191406 64.390625 17.824219 64.121094 C 18.105469 64.042969 18.335938 63.847656 18.453125 63.582031 C 18.605469 63.371094 18.699219 63.121094 18.722656 62.863281 L 18.722656 48.101563 C 19.296875 47.710938 19.660156 47.082031 19.710938 46.390625 C 19.773438 45.820313 19.292969 45.339844 18.722656 45.402344 L 18.722656 34.511719 C 18.699219 34.355469 18.730469 34.195313 18.8125 34.0625 C 18.902344 33.882813 18.992188 33.792969 19.082031 33.613281 C 19.304688 33.371094 19.484375 33.097656 19.621094 32.800781 C 19.804688 32.4375 19.898438 32.039063 19.890625 31.632813 L 19.890625 30.640625 C 18.453125 31.179688 17.011719 31.8125 15.574219 32.441406 Z M 15.574219 52.0625 "/>
<path style=" stroke:none;fill-rule:nonzero;fill:rgb(100%,100%,100%);fill-opacity:1;" d="M 160.652344 52.242188 C 160.652344 52.332031 160.652344 52.332031 160.5625 52.332031 C 160.554688 52.261719 160.519531 52.199219 160.472656 52.152344 L 159.933594 49.992188 C 159.664063 49 159.300781 47.742188 158.941406 46.390625 C 158.582031 44.953125 158.132813 43.511719 157.773438 41.980469 C 157.324219 40.453125 156.960938 39.101563 156.601563 37.839844 C 156.242188 36.492188 155.882813 35.5 155.703125 34.601563 C 155.433594 33.703125 155.34375 33.25 155.34375 33.25 C 155.277344 32.988281 155.15625 32.742188 154.980469 32.53125 C 154.890625 32.351563 154.621094 32.261719 154.351563 32.171875 C 153.003906 31.722656 151.652344 31.269531 150.300781 30.820313 L 150.300781 32.082031 C 150.265625 32.421875 150.328125 32.765625 150.480469 33.070313 C 150.585938 33.347656 150.707031 33.617188 150.84375 33.882813 C 151.023438 34.0625 151.292969 34.242188 151.472656 34.421875 L 151.472656 43.0625 C 150.824219 42.960938 150.253906 43.488281 150.300781 44.140625 C 150.367188 44.875 150.8125 45.523438 151.472656 45.851563 L 151.472656 58.542969 C 152.550781 58.902344 153.632813 59.167969 154.710938 59.53125 L 154.710938 41.980469 C 154.710938 42.070313 154.710938 42.070313 154.800781 42.160156 C 154.898438 42.585938 155.019531 43.007813 155.164063 43.417969 C 155.34375 44.320313 155.703125 45.3125 156.0625 46.570313 C 156.421875 47.832031 156.78125 49.269531 157.230469 50.710938 C 157.59375 52.242188 158.042969 53.589844 158.402344 54.941406 C 158.761719 56.203125 159.03125 57.371094 159.300781 58.269531 C 159.433594 58.824219 159.617188 59.367188 159.84375 59.890625 C 159.90625 60.292969 160.027344 60.691406 160.203125 61.0625 C 160.3125 61.351563 160.542969 61.582031 160.832031 61.691406 C 161.550781 61.960938 162.183594 62.230469 162.902344 62.5 C 163.171875 62.589844 163.441406 62.589844 163.53125 62.410156 C 163.707031 62.289063 163.808594 62.085938 163.800781 61.871094 L 163.800781 50.167969 C 164.359375 50.199219 164.820313 49.738281 164.792969 49.179688 C 164.722656 48.472656 164.363281 47.820313 163.800781 47.382813 L 163.800781 39.011719 C 163.800781 38.742188 163.800781 38.652344 163.890625 38.5625 C 163.96875 38.480469 164.058594 38.417969 164.164063 38.382813 C 164.679688 38.132813 164.996094 37.601563 164.972656 37.03125 L 164.972656 36.042969 C 163.5625 35.421875 162.121094 34.882813 160.652344 34.421875 Z M 160.652344 52.242188 "/>
<path style=" stroke:none;fill-rule:nonzero;fill:rgb(100%,100%,100%);fill-opacity:1;" d="M 178.742188 55.03125 C 178.289063 54.054688 177.746094 53.117188 177.121094 52.242188 C 176.574219 51.453125 175.972656 50.699219 175.324219 49.992188 C 175.414063 49.902344 175.414063 49.8125 175.414063 49.632813 C 175.347656 48.753906 174.839844 47.972656 174.0625 47.5625 C 173.769531 47.472656 173.457031 47.472656 173.164063 47.5625 C 173.070313 47.390625 172.949219 47.238281 172.800781 47.113281 C 172.171875 46.390625 171.632813 45.761719 171.183594 45.132813 C 170.804688 44.636719 170.585938 44.042969 170.550781 43.417969 L 170.550781 37.660156 C 170.542969 37.4375 170.605469 37.21875 170.730469 37.03125 C 170.914063 36.851563 171.183594 36.851563 171.363281 36.761719 L 172.171875 36.761719 C 172.441406 36.851563 172.710938 36.941406 172.980469 37.03125 C 173.269531 37.144531 173.542969 37.296875 173.792969 37.480469 C 174.0625 37.660156 174.332031 37.929688 174.601563 38.113281 C 174.839844 38.359375 175.050781 38.628906 175.230469 38.921875 C 175.371094 39.199219 175.433594 39.511719 175.414063 39.820313 L 175.414063 41.167969 C 175.445313 41.792969 175.664063 42.386719 176.042969 42.882813 C 176.378906 43.460938 176.878906 43.933594 177.480469 44.230469 C 178.039063 44.433594 178.578125 44.671875 179.101563 44.953125 L 179.101563 42.25 C 179.09375 41.363281 178.941406 40.480469 178.652344 39.640625 C 178.3125 38.804688 177.855469 38.015625 177.300781 37.300781 C 176.742188 36.578125 176.109375 35.914063 175.414063 35.320313 C 174.683594 34.785156 173.898438 34.332031 173.074219 33.972656 C 172.3125 33.566406 171.492188 33.292969 170.640625 33.160156 C 170.007813 33.078125 169.359375 33.140625 168.753906 33.339844 C 168.214844 33.582031 167.769531 33.992188 167.492188 34.511719 C 167.179688 35.25 167.027344 36.046875 167.042969 36.851563 L 167.042969 41.621094 C 167.023438 42.617188 167.242188 43.601563 167.671875 44.5 C 168.125 45.394531 168.667969 46.238281 169.292969 47.019531 C 169.933594 47.84375 170.625 48.625 171.363281 49.363281 C 171.363281 49.542969 171.273438 49.722656 171.273438 49.902344 C 171.335938 50.777344 171.847656 51.558594 172.621094 51.972656 C 172.964844 52.171875 173.398438 52.140625 173.703125 51.882813 C 174.269531 52.558594 174.785156 53.28125 175.230469 54.042969 C 175.609375 54.765625 175.824219 55.566406 175.863281 56.382813 L 175.863281 63.222656 C 175.863281 63.582031 175.773438 63.851563 175.59375 63.941406 C 175.40625 64.148438 175.148438 64.277344 174.871094 64.296875 C 174.578125 64.378906 174.273438 64.410156 173.972656 64.390625 C 173.703125 64.296875 173.34375 64.210938 173.074219 64.121094 C 172.722656 63.945313 172.390625 63.734375 172.082031 63.492188 C 171.761719 63.28125 171.460938 63.039063 171.183594 62.769531 C 170.941406 62.460938 170.730469 62.132813 170.550781 61.78125 C 170.382813 61.511719 170.289063 61.199219 170.28125 60.882813 L 170.28125 59.261719 C 170.269531 58.75 170.113281 58.25 169.832031 57.820313 C 169.453125 57.34375 168.957031 56.972656 168.390625 56.742188 C 167.761719 56.472656 167.222656 56.292969 166.683594 56.019531 L 166.683594 58.8125 C 166.679688 59.710938 166.863281 60.597656 167.222656 61.417969 C 167.53125 62.25 167.988281 63.011719 168.574219 63.667969 C 169.140625 64.390625 169.808594 65.027344 170.550781 65.5625 C 171.359375 66.09375 172.203125 66.574219 173.074219 67 C 173.839844 67.363281 174.660156 67.605469 175.503906 67.722656 C 176.148438 67.902344 176.835938 67.902344 177.480469 67.722656 C 178.082031 67.554688 178.59375 67.167969 178.921875 66.640625 C 179.238281 65.964844 179.390625 65.226563 179.371094 64.480469 L 179.371094 57.910156 C 179.371094 56.917969 179.15625 55.933594 178.742188 55.03125 Z M 178.742188 55.03125 "/>
<path style=" stroke:none;fill-rule:nonzero;fill:rgb(100%,100%,100%);fill-opacity:1;" d="M 55.710938 39.28125 C 55.53125 40.542969 55.351563 41.796875 55.261719 43.0625 C 55.082031 44.320313 54.902344 45.402344 54.8125 46.390625 C 54.722656 47.382813 54.632813 48.191406 54.542969 48.730469 C 54.507813 49.035156 54.445313 49.335938 54.363281 49.632813 C 54.09375 47.917969 53.824219 46.390625 53.550781 45.042969 C 53.371094 43.691406 53.101563 42.160156 52.832031 40.453125 C 52.5625 38.832031 52.203125 37.121094 51.933594 35.5 C 51.664063 33.882813 51.390625 32.351563 51.121094 31 C 50.851563 29.652344 50.582031 28.480469 50.402344 27.671875 C 50.402344 27.492188 50.132813 27.3125 49.773438 27.222656 C 49.355469 27.132813 48.925781 27.132813 48.511719 27.222656 C 48.113281 27.347656 47.722656 27.496094 47.34375 27.671875 C 47.003906 27.878906 46.75 28.195313 46.621094 28.570313 C 46.347656 29.730469 46.136719 30.902344 45.992188 32.082031 C 45.722656 33.613281 45.453125 35.230469 45.09375 36.941406 C 44.824219 38.742188 44.550781 40.542969 44.28125 42.339844 C 44.011719 44.140625 43.742188 45.851563 43.472656 47.292969 C 43.292969 48.820313 43.023438 50.441406 42.753906 52.332031 C 42.664063 52.332031 42.664063 52.0625 42.574219 51.519531 C 42.480469 50.980469 42.390625 50.167969 42.300781 49.269531 C 42.121094 48.371094 42.03125 47.292969 41.851563 46.121094 C 41.761719 44.953125 41.582031 43.78125 41.402344 42.519531 C 41.132813 39.640625 39.871094 29.292969 39.871094 29.292969 C 38.433594 29.742188 36.902344 30.191406 35.460938 30.640625 L 35.460938 31.722656 C 35.441406 32.042969 35.535156 32.363281 35.730469 32.621094 C 35.863281 32.820313 36.050781 32.980469 36.273438 33.070313 C 36.363281 33.160156 36.542969 33.160156 36.632813 33.25 C 36.722656 33.429688 36.722656 33.519531 36.8125 33.703125 C 37.171875 36.671875 37.441406 39.371094 37.800781 41.796875 C 37.257813 42.164063 36.921875 42.765625 36.902344 43.417969 C 36.855469 44.074219 37.425781 44.601563 38.074219 44.5 C 38.070313 44.546875 38.113281 44.59375 38.164063 44.589844 C 38.253906 46.03125 38.433594 47.382813 38.613281 48.640625 C 38.792969 49.992188 38.882813 51.160156 39.0625 52.242188 C 39.152344 53.230469 39.332031 54.132813 39.421875 54.761719 C 39.425781 55.125 39.457031 55.484375 39.511719 55.839844 C 39.507813 56.03125 39.613281 56.207031 39.78125 56.292969 C 39.871094 56.472656 40.050781 56.472656 40.324219 56.472656 C 41.671875 56.113281 43.023438 55.660156 44.460938 55.390625 C 44.722656 55.328125 44.949219 55.167969 45.09375 54.941406 C 45.230469 54.710938 45.351563 54.46875 45.453125 54.222656 C 46.53125 48.011719 47.523438 41.890625 48.601563 35.679688 C 49.59375 41.351563 50.582031 47.113281 51.664063 52.78125 C 51.761719 53.003906 51.882813 53.214844 52.023438 53.410156 C 52.222656 53.492188 52.4375 53.523438 52.652344 53.5 C 54.09375 53.230469 55.441406 52.960938 56.792969 52.691406 C 57.03125 52.625 57.246094 52.503906 57.421875 52.332031 C 57.511719 52.132813 57.574219 51.917969 57.601563 51.703125 C 57.601563 51.613281 57.691406 51.25 57.78125 50.53125 C 57.871094 49.902344 57.960938 49 58.140625 47.832031 C 58.230469 46.75 58.414063 45.492188 58.503906 44.140625 C 58.683594 42.703125 58.863281 41.261719 59.042969 39.820313 L 59.042969 39.640625 C 59.773438 39.4375 60.28125 38.777344 60.300781 38.019531 C 60.316406 37.488281 59.929688 37.027344 59.402344 36.941406 C 59.671875 34.242188 60.03125 31.453125 60.390625 28.300781 C 60.410156 28.109375 60.472656 27.925781 60.574219 27.761719 C 60.664063 27.671875 60.84375 27.582031 60.933594 27.402344 C 61.15625 27.234375 61.339844 27.019531 61.472656 26.769531 C 61.65625 26.441406 61.75 26.070313 61.742188 25.691406 L 61.742188 24.613281 C 60.210938 24.792969 58.773438 25.0625 57.242188 25.332031 C 57.242188 25.332031 55.980469 36.222656 55.710938 39.28125 Z M 55.710938 39.28125 "/>
<path style=" stroke:none;fill-rule:nonzero;fill:rgb(100%,100%,100%);fill-opacity:1;" d="M 143.28125 45.941406 C 143.179688 46.03125 143.027344 46.03125 142.921875 45.941406 L 139.414063 45.132813 C 139.324219 45.042969 139.140625 44.953125 139.050781 44.863281 C 138.980469 44.722656 138.949219 44.566406 138.960938 44.410156 C 138.96875 44.199219 139 43.988281 139.050781 43.78125 C 139.167969 43.304688 139.257813 42.824219 139.324219 42.339844 C 139.414063 41.796875 139.503906 41.167969 139.59375 40.363281 C 139.773438 39.640625 139.863281 38.921875 140.042969 38.113281 C 140.402344 36.132813 140.761719 34.0625 141.121094 32.082031 L 141.210938 32.082031 C 141.574219 34.332031 141.933594 36.492188 142.292969 38.742188 C 142.457031 39.542969 142.578125 40.355469 142.652344 41.167969 C 142.832031 41.980469 142.921875 42.703125 143.011719 43.332031 C 143.101563 43.960938 143.191406 44.5 143.28125 44.863281 C 143.332031 45.070313 143.359375 45.277344 143.371094 45.492188 C 143.394531 45.648438 143.363281 45.804688 143.28125 45.941406 Z M 146.972656 43.0625 C 146.90625 42.328125 146.464844 41.679688 145.800781 41.351563 C 145.621094 40.363281 145.441406 39.371094 145.261719 38.382813 C 144.992188 36.941406 144.8125 35.769531 144.632813 34.601563 C 144.453125 33.519531 144.273438 32.621094 144.183594 31.902344 C 144.09375 31.179688 144.003906 30.820313 144.003906 30.640625 C 143.941406 30.179688 143.753906 29.746094 143.460938 29.382813 C 143.113281 28.953125 142.640625 28.640625 142.113281 28.480469 C 140.402344 28.121094 138.78125 27.671875 137.164063 27.3125 L 137.164063 28.121094 C 137.164063 29.203125 137.433594 29.921875 138.0625 30.28125 C 138.242188 30.371094 138.242188 30.460938 138.242188 30.640625 L 138.242188 31.179688 C 138.160156 31.476563 138.097656 31.777344 138.0625 32.082031 C 137.972656 32.621094 137.792969 33.339844 137.613281 34.242188 C 137.433594 35.140625 137.253906 36.132813 136.980469 37.300781 C 136.890625 37.839844 136.800781 38.472656 136.710938 39.011719 C 135.992188 38.796875 135.269531 39.339844 135.273438 40.089844 C 135.269531 40.726563 135.617188 41.3125 136.171875 41.621094 C 135.453125 45.222656 133.832031 53.863281 133.832031 53.863281 C 135.003906 54.042969 136.171875 54.3125 137.253906 54.582031 C 137.253906 54.582031 138.332031 48.730469 138.332031 48.546875 C 138.421875 48.101563 138.601563 47.917969 138.960938 48.011719 C 140.402344 48.371094 141.753906 48.730469 143.191406 49.089844 L 143.730469 49.363281 C 143.890625 49.570313 143.984375 49.820313 144.003906 50.082031 C 144.003906 50.167969 144.8125 56.5625 144.8125 56.5625 C 146.074219 56.917969 147.242188 57.28125 148.503906 57.640625 C 148.503906 57.640625 146.972656 48.640625 146.253906 44.140625 C 146.722656 44.003906 147.023438 43.542969 146.972656 43.0625 Z M 146.972656 43.0625 "/>
<path style=" stroke:none;fill-rule:nonzero;fill:rgb(100%,100%,100%);fill-opacity:1;" d="M 98.191406 31.269531 C 98.230469 31.972656 98.042969 32.667969 97.652344 33.25 C 97.257813 33.785156 96.601563 34.0625 95.941406 33.972656 L 93.601563 33.972656 C 93.511719 33.972656 93.332031 33.882813 93.242188 33.882813 C 93.152344 33.792969 93.152344 33.703125 93.152344 33.519531 L 93.152344 25.78125 C 93.105469 25.464844 93.378906 25.195313 93.691406 25.242188 L 95.941406 25.242188 C 96.609375 25.222656 97.246094 25.523438 97.652344 26.050781 C 98.042969 26.667969 98.230469 27.390625 98.191406 28.121094 Z M 102.421875 46.929688 C 102.285156 46.863281 102.164063 46.773438 102.0625 46.660156 C 101.972656 46.660156 101.972656 46.480469 101.972656 46.210938 L 101.972656 40 C 101.960938 39.140625 101.808594 38.289063 101.523438 37.480469 C 101.261719 36.808594 100.828125 36.21875 100.261719 35.769531 C 99.992188 35.5 99.992188 35.230469 100.171875 35.050781 C 100.710938 34.652344 101.144531 34.125 101.433594 33.519531 C 101.800781 32.863281 101.984375 32.117188 101.972656 31.363281 L 101.972656 28.480469 C 101.953125 27.660156 101.832031 26.84375 101.613281 26.050781 C 101.382813 25.328125 101.015625 24.65625 100.53125 24.070313 C 100.015625 23.480469 99.367188 23.019531 98.640625 22.722656 C 97.769531 22.421875 96.863281 22.238281 95.941406 22.179688 C 93.332031 22.179688 90.8125 22.179688 88.203125 22.269531 L 88.203125 23.261719 C 88.171875 23.667969 88.265625 24.078125 88.472656 24.429688 C 88.636719 24.683594 88.851563 24.898438 89.101563 25.0625 C 89.191406 25.0625 89.28125 25.152344 89.371094 25.242188 C 89.410156 25.390625 89.441406 25.539063 89.460938 25.691406 L 89.460938 34.0625 C 88.757813 34.167969 88.253906 34.792969 88.292969 35.5 C 88.316406 36.171875 88.804688 36.734375 89.460938 36.851563 L 89.460938 49.453125 L 93.152344 49.453125 L 93.152344 37.480469 C 93.152344 37.121094 93.332031 36.941406 93.601563 36.941406 L 95.941406 36.941406 C 96.609375 36.921875 97.246094 37.222656 97.652344 37.75 C 98.042969 38.335938 98.230469 39.03125 98.191406 39.730469 L 98.191406 47.742188 C 98.179688 48.246094 98.375 48.734375 98.730469 49.089844 C 99.140625 49.421875 99.644531 49.613281 100.171875 49.632813 C 101.164063 49.632813 102.242188 49.722656 103.230469 49.722656 L 103.230469 48.371094 C 103.265625 48.019531 103.171875 47.667969 102.960938 47.382813 C 102.804688 47.207031 102.625 47.054688 102.421875 46.929688 Z M 102.421875 46.929688 "/>
<path style=" stroke:none;fill-rule:nonzero;fill:rgb(100%,100%,100%);fill-opacity:1;" d="M 114.121094 39.910156 C 113.71875 40.113281 113.46875 40.539063 113.492188 40.992188 C 113.492188 41.167969 113.582031 47.292969 113.492188 47.382813 C 113.402344 47.5625 113.222656 47.5625 113.042969 47.5625 C 111.960938 47.472656 110.882813 47.382813 109.800781 47.292969 C 109.621094 47.292969 109.53125 47.203125 109.441406 47.019531 C 109.367188 46.851563 109.339844 46.667969 109.351563 46.480469 C 109.261719 39.820313 109.261719 33.160156 109.261719 26.410156 C 109.277344 26.230469 109.308594 26.046875 109.351563 25.871094 C 109.441406 25.78125 109.53125 25.691406 109.621094 25.691406 C 109.875 25.527344 110.089844 25.3125 110.253906 25.0625 C 110.460938 24.777344 110.554688 24.421875 110.523438 24.070313 L 110.523438 22.992188 C 108.453125 22.8125 106.382813 22.632813 104.3125 22.542969 L 104.3125 23.621094 C 104.292969 24 104.386719 24.375 104.582031 24.703125 C 104.769531 24.933594 104.980469 25.144531 105.210938 25.332031 L 105.480469 25.601563 C 105.574219 25.691406 105.574219 25.871094 105.574219 26.140625 L 105.574219 34.421875 C 104.902344 34.515625 104.402344 35.09375 104.402344 35.769531 C 104.421875 36.480469 104.894531 37.097656 105.574219 37.300781 L 105.574219 49.902344 C 108.902344 50.082031 112.230469 50.441406 115.472656 50.796875 C 115.742188 50.796875 116.011719 50.890625 116.191406 50.890625 C 116.417969 50.929688 116.648438 50.863281 116.824219 50.710938 C 117 50.546875 117.097656 50.320313 117.09375 50.082031 L 117.09375 40.089844 C 116.550781 40 116.101563 39.910156 115.5625 39.820313 C 115.082031 39.800781 114.597656 39.832031 114.121094 39.910156 Z M 114.121094 39.910156 "/>
<path style=" stroke:none;fill-rule:nonzero;fill:rgb(100%,100%,100%);fill-opacity:1;" d="M 32.851563 31.453125 L 32.582031 31.453125 C 28.800781 32.710938 25.023438 34.0625 21.242188 35.5 L 21.242188 36.582031 C 21.242188 36.949219 21.304688 37.3125 21.421875 37.660156 C 21.582031 37.8125 21.761719 37.933594 21.960938 38.019531 C 22.101563 38.023438 22.234375 38.089844 22.324219 38.203125 C 22.414063 38.203125 22.414063 38.382813 22.414063 38.652344 L 22.414063 46.839844 C 21.777344 47.269531 21.375 47.96875 21.332031 48.730469 C 21.28125 49.335938 21.816406 49.824219 22.414063 49.722656 L 22.414063 62.320313 C 22.773438 62.230469 23.042969 62.046875 23.402344 61.960938 C 25.023438 61.332031 26.640625 60.792969 28.261719 60.160156 C 28.980469 59.980469 29.703125 59.710938 30.332031 59.53125 C 30.871094 59.351563 31.414063 59.167969 31.953125 58.992188 C 32.132813 58.902344 32.402344 58.8125 32.582031 58.722656 L 32.671875 58.722656 C 32.761719 58.722656 32.851563 58.632813 32.941406 58.632813 C 33.03125 58.542969 33.210938 58.453125 33.300781 58.269531 C 33.484375 58.074219 33.578125 57.816406 33.574219 57.546875 L 33.574219 49.8125 C 33.03125 49.992188 32.492188 50.167969 32.042969 50.351563 C 31.515625 50.480469 31.023438 50.726563 30.601563 51.070313 C 30.230469 51.378906 30.03125 51.847656 30.0625 52.332031 C 30.0625 52.417969 30.152344 56.292969 30.0625 56.472656 C 29.976563 56.640625 29.800781 56.746094 29.613281 56.742188 C 29.164063 56.917969 28.710938 57.101563 28.261719 57.28125 C 27.632813 57.460938 27.003906 57.730469 26.371094 57.910156 C 26.101563 58 25.921875 57.910156 25.921875 57.546875 L 25.921875 49.089844 C 25.898438 48.75 26.128906 48.441406 26.460938 48.371094 C 27.902344 47.832031 29.34375 47.382813 30.78125 46.839844 C 31.101563 46.8125 31.34375 46.53125 31.324219 46.210938 L 31.324219 44.140625 C 31.320313 44 31.253906 43.867188 31.140625 43.78125 L 30.78125 43.78125 C 29.34375 44.230469 27.902344 44.769531 26.460938 45.222656 C 26.101563 45.402344 25.921875 45.3125 25.921875 44.953125 L 25.921875 37.300781 C 25.957031 37.144531 26.019531 36.992188 26.101563 36.851563 C 26.191406 36.761719 26.371094 36.671875 26.460938 36.582031 C 27.632813 36.222656 28.710938 35.769531 29.882813 35.410156 C 29.972656 35.410156 29.972656 35.410156 30.0625 35.5 C 30.152344 35.589844 30.0625 39.460938 30.0625 39.640625 C 30.0625 40.179688 30.242188 40.453125 30.601563 40.542969 C 31.09375 40.523438 31.578125 40.433594 32.042969 40.269531 C 32.5625 40.152344 33.070313 40 33.574219 39.820313 L 33.574219 31.992188 C 33.574219 31.800781 33.472656 31.628906 33.300781 31.542969 C 33.167969 31.460938 33.007813 31.429688 32.851563 31.453125 Z M 32.851563 31.453125 "/>
<path style=" stroke:none;fill-rule:nonzero;fill:rgb(100%,100%,100%);fill-opacity:1;" d="M 130.683594 25.960938 C 130.59375 25.960938 130.59375 25.871094 130.503906 25.871094 L 130.414063 25.871094 C 126.542969 25.152344 122.582031 24.429688 118.621094 23.890625 L 118.621094 24.972656 C 118.59375 25.378906 118.6875 25.789063 118.890625 26.140625 C 118.964844 26.421875 119.164063 26.65625 119.433594 26.769531 L 119.792969 27.132813 C 119.890625 27.296875 119.953125 27.480469 119.972656 27.671875 L 119.972656 35.953125 C 119.269531 35.933594 118.695313 36.507813 118.710938 37.210938 C 118.765625 37.9375 119.269531 38.550781 119.972656 38.742188 L 119.972656 51.339844 C 120.242188 51.429688 120.601563 51.429688 120.871094 51.519531 C 122.582031 51.792969 124.292969 52.0625 126.003906 52.332031 C 126.722656 52.417969 127.441406 52.601563 128.164063 52.691406 C 128.710938 52.769531 129.253906 52.890625 129.78125 53.046875 C 129.960938 53.046875 130.230469 53.140625 130.414063 53.140625 L 130.773438 53.140625 C 130.898438 53.15625 131.027344 53.121094 131.132813 53.046875 C 131.308594 52.890625 131.410156 52.660156 131.402344 52.417969 L 131.402344 44.679688 C 130.863281 44.589844 130.324219 44.5 129.871094 44.410156 C 129.398438 44.320313 128.90625 44.320313 128.433594 44.410156 C 127.980469 44.5 127.800781 44.769531 127.800781 45.402344 C 127.800781 45.492188 127.890625 49.363281 127.800781 49.453125 C 127.710938 49.632813 127.53125 49.632813 127.351563 49.632813 C 126.902344 49.542969 126.453125 49.453125 126.003906 49.363281 C 125.335938 49.292969 124.671875 49.167969 124.023438 49 C 123.753906 49 123.574219 48.820313 123.574219 48.460938 L 123.574219 40 C 123.574219 39.640625 123.753906 39.460938 124.113281 39.550781 C 125.640625 39.820313 127.082031 40 128.613281 40.363281 C 128.972656 40.363281 129.152344 40.269531 129.152344 39.910156 L 129.152344 37.839844 C 129.148438 37.675781 129.085938 37.515625 128.972656 37.390625 C 128.792969 37.300781 128.703125 37.210938 128.523438 37.210938 C 127.082031 36.941406 125.640625 36.671875 124.113281 36.402344 C 123.796875 36.445313 123.527344 36.175781 123.574219 35.863281 L 123.574219 28.210938 C 123.59375 28.074219 123.65625 27.949219 123.753906 27.851563 C 123.84375 27.761719 123.933594 27.761719 124.113281 27.761719 C 125.28125 27.941406 126.453125 28.121094 127.621094 28.390625 C 127.710938 28.390625 127.710938 28.480469 127.800781 28.480469 C 127.890625 28.660156 127.800781 32.53125 127.800781 32.621094 C 127.742188 33.128906 127.988281 33.625 128.433594 33.882813 C 128.902344 34.089844 129.382813 34.269531 129.871094 34.421875 C 130.324219 34.511719 130.863281 34.601563 131.402344 34.691406 L 131.402344 26.863281 C 131.375 26.628906 131.28125 26.410156 131.132813 26.230469 C 130.996094 26.121094 130.84375 26.03125 130.683594 25.960938 Z M 130.683594 25.960938 "/>
<path style=" stroke:none;fill-rule:nonzero;fill:rgb(100%,100%,100%);fill-opacity:1;" d="M 61.832031 111.910156 L 63.09375 113.167969 C 63.453125 113.441406 63.902344 113.890625 64.441406 113.351563 C 64.640625 113.207031 64.746094 112.964844 64.710938 112.722656 C 64.710938 112.453125 64.53125 112.269531 64.082031 111.910156 L 62.914063 110.742188 Z M 62.550781 109.03125 L 65.164063 111.546875 C 65.78125 111.929688 66.128906 112.628906 66.0625 113.351563 C 65.863281 114.183594 65.191406 114.816406 64.351563 114.972656 C 63.644531 114.976563 62.972656 114.644531 62.550781 114.070313 L 61.113281 112.632813 L 59.582031 114.25 L 58.503906 113.261719 Z M 62.550781 109.03125 "/>
<path style=" stroke:none;fill-rule:nonzero;fill:rgb(100%,100%,100%);fill-opacity:1;" d="M 69.480469 115.0625 L 74.164063 117.851563 L 73.621094 118.75 L 70.203125 116.769531 L 69.574219 117.851563 L 72.8125 119.832031 L 72.273438 120.730469 L 69.03125 118.75 L 68.3125 119.917969 L 71.824219 122.082031 L 71.28125 122.980469 L 66.511719 120.101563 Z M 69.480469 115.0625 "/>
<path style=" stroke:none;fill-rule:nonzero;fill:rgb(100%,100%,100%);fill-opacity:1;" d="M 77.671875 119.382813 L 79.023438 119.832031 L 77.492188 124.332031 L 80.550781 125.410156 L 80.28125 126.402344 L 75.78125 124.960938 Z M 77.671875 119.382813 "/>
<path style=" stroke:none;fill-rule:nonzero;fill:rgb(100%,100%,100%);fill-opacity:1;" d="M 98.011719 125.769531 C 97.921875 126.285156 97.667969 126.757813 97.292969 127.121094 C 96.578125 127.828125 95.59375 128.1875 94.59375 128.113281 C 92.523438 128.203125 91.082031 127.210938 90.992188 125.140625 C 90.902344 122.980469 92.613281 121.992188 94.414063 121.902344 C 95.132813 121.902344 97.023438 121.992188 97.832031 123.613281 L 96.300781 123.882813 C 95.894531 123.292969 95.214844 122.953125 94.503906 122.980469 C 93.363281 123.003906 92.46875 123.960938 92.519531 125.097656 C 92.570313 126.234375 93.546875 127.109375 94.683594 127.03125 C 95.472656 127.078125 96.203125 126.605469 96.480469 125.859375 Z M 98.011719 125.769531 "/>
<path style=" stroke:none;fill-rule:nonzero;fill:rgb(100%,100%,100%);fill-opacity:1;" d="M 104.582031 122.167969 C 104.582031 122.082031 104.492188 122.082031 104.402344 121.992188 C 104.414063 121.890625 104.382813 121.792969 104.3125 121.722656 L 104.3125 122.261719 L 104.042969 124.332031 L 105.933594 123.792969 Z M 103.230469 120.730469 L 104.761719 120.28125 L 109.082031 125.046875 L 107.550781 125.5 L 106.742188 124.601563 L 103.863281 125.5 L 103.683594 126.667969 L 102.152344 127.121094 Z M 103.230469 120.730469 "/>
<path style=" stroke:none;fill-rule:nonzero;fill:rgb(100%,100%,100%);fill-opacity:1;" d="M 110.34375 118.121094 L 111.601563 117.402344 L 115.742188 118.660156 C 116.28125 118.839844 116.371094 118.929688 116.914063 119.113281 C 116.550781 118.660156 116.460938 118.480469 116.191406 118.121094 L 114.664063 115.511719 L 115.921875 114.792969 L 118.890625 119.832031 L 117.632813 120.546875 L 113.492188 119.203125 C 113.09375 119.109375 112.703125 118.988281 112.324219 118.839844 C 112.59375 119.203125 112.683594 119.292969 112.953125 119.652344 L 114.574219 122.441406 L 113.402344 123.160156 Z M 110.34375 118.121094 "/>
<path style=" stroke:none;fill-rule:nonzero;fill:rgb(100%,100%,100%);fill-opacity:1;" d="M 122.402344 114.613281 C 123.121094 114.882813 123.84375 114.429688 124.472656 113.890625 C 124.652344 113.621094 125.460938 112.8125 124.921875 112.269531 C 124.652344 112 124.292969 112.179688 124.023438 112.363281 C 123.578125 112.742188 123.097656 113.074219 122.582031 113.351563 C 122.132813 113.710938 120.960938 114.429688 120.0625 113.53125 C 119.871094 113.296875 119.746094 113.019531 119.703125 112.722656 C 119.609375 111.777344 120.019531 110.855469 120.78125 110.292969 C 121.269531 109.75 121.890625 109.34375 122.582031 109.121094 C 123.027344 109.027344 123.488281 109.027344 123.933594 109.121094 L 123.210938 110.382813 C 122.976563 110.332031 122.730469 110.332031 122.492188 110.382813 C 122.125 110.527344 121.789063 110.742188 121.503906 111.011719 C 121.050781 111.460938 120.601563 112 121.050781 112.453125 C 121.324219 112.722656 121.59375 112.542969 121.953125 112.269531 C 122.222656 112.179688 123.210938 111.460938 123.390625 111.371094 C 124.023438 110.917969 125.011719 110.382813 125.914063 111.28125 C 127.171875 112.632813 125.640625 114.25 125.101563 114.703125 C 124.285156 115.722656 122.9375 116.148438 121.683594 115.78125 Z M 122.402344 114.613281 "/>
<path style=" stroke:none;fill-rule:nonzero;fill:rgb(100%,100%,100%);fill-opacity:1;" d="M 85.773438 86.621094 C 85.773438 86.621094 64.800781 79.601563 73.890625 57.371094 C 73.890625 57.371094 51.753906 58.269531 21.511719 70.511719 C 21.511719 70.511719 19.351563 71.320313 18.09375 71.769531 C 16.144531 72.667969 13.894531 72.632813 11.972656 71.679688 C 11.972656 71.679688 39.78125 57.191406 75.332031 53.769531 C 80.101563 53.410156 80.640625 54.042969 79.472656 55.839844 C 78.390625 57.28125 65.703125 73.480469 85.773438 86.621094 Z M 85.773438 86.621094 "/>
<path style=" stroke:none;fill-rule:nonzero;fill:rgb(70.506287%,59.179688%,35.301208%);fill-opacity:1;" d="M 67.140625 63.667969 C 49.230469 66.011719 31.683594 72.222656 31.683594 72.222656 C 34.652344 77.53125 42.753906 75.28125 42.753906 75.28125 C 57.960938 70.960938 64.710938 69.519531 66.871094 69.070313 C 66.789063 67.265625 66.878906 65.457031 67.140625 63.667969 Z M 67.140625 63.667969 "/>
<path style=" stroke:none;fill-rule:nonzero;fill:rgb(70.506287%,59.179688%,35.301208%);fill-opacity:1;" d="M 67.324219 72.402344 C 57.714844 74.273438 48.265625 76.890625 39.0625 80.230469 C 39.0625 80.230469 43.113281 84.820313 51.03125 82.570313 C 57.601563 80.679688 66.152344 77.980469 68.761719 77.167969 C 68.082031 75.648438 67.597656 74.042969 67.324219 72.402344 Z M 67.324219 72.402344 "/>
<path style=" stroke:none;fill-rule:nonzero;fill:rgb(70.506287%,59.179688%,35.301208%);fill-opacity:1;" d="M 70.023438 79.601563 C 67.324219 80.5 53.824219 84.910156 48.152344 87.070313 C 48.152344 87.070313 51.390625 91.480469 60.84375 87.792969 C 67.414063 85.179688 71.101563 83.652344 72.632813 82.929688 C 71.671875 81.898438 70.796875 80.78125 70.023438 79.601563 Z M 70.023438 79.601563 "/>
<path style=" stroke:none;fill-rule:nonzero;fill:rgb(70.506287%,59.179688%,35.301208%);fill-opacity:1;" d="M 74.792969 84.910156 C 72.363281 85.902344 63.632813 89.769531 58.503906 92.203125 C 58.503906 92.203125 64.890625 95.351563 72.992188 90.402344 L 77.941406 87.070313 C 76.835938 86.433594 75.785156 85.710938 74.792969 84.910156 Z M 74.792969 84.910156 "/>
<path style=" stroke:none;fill-rule:nonzero;fill:rgb(70.506287%,59.179688%,35.301208%);fill-opacity:1;" d="M 80.371094 88.332031 C 78.753906 89.320313 72.09375 93.546875 68.851563 95.980469 C 68.851563 95.980469 74.433594 98.230469 80.101563 92.917969 C 81.902344 91.210938 82.890625 90.222656 83.433594 89.589844 C 82.386719 89.234375 81.367188 88.8125 80.371094 88.332031 Z M 80.371094 88.332031 "/>
<path style=" stroke:none;fill-rule:nonzero;fill:rgb(100%,100%,100%);fill-opacity:1;" d="M 99.183594 86.621094 C 99.183594 86.621094 120.152344 79.601563 111.0625 57.371094 C 111.0625 57.371094 133.113281 58.269531 163.441406 70.511719 C 163.441406 70.511719 165.601563 71.320313 166.863281 71.769531 C 168.78125 72.667969 171.003906 72.632813 172.890625 71.679688 C 172.890625 71.679688 145.171875 57.191406 109.53125 53.769531 C 104.851563 53.410156 104.222656 54.042969 105.480469 55.839844 C 106.472656 57.28125 119.253906 73.480469 99.183594 86.621094 Z M 99.183594 86.621094 "/>
<path style=" stroke:none;fill-rule:nonzero;fill:rgb(70.506287%,59.179688%,35.301208%);fill-opacity:1;" d="M 117.8125 63.667969 C 135.722656 66.011719 153.273438 72.222656 153.273438 72.222656 C 150.210938 77.53125 142.203125 75.28125 142.203125 75.28125 C 126.992188 70.960938 120.152344 69.519531 117.992188 69.070313 C 118.0625 67.269531 118.003906 65.464844 117.8125 63.667969 Z M 117.8125 63.667969 "/>
<path style=" stroke:none;fill-rule:nonzero;fill:rgb(70.506287%,59.179688%,35.301208%);fill-opacity:1;" d="M 117.632813 72.402344 C 127.238281 74.285156 136.6875 76.902344 145.890625 80.230469 C 145.890625 80.230469 141.84375 84.820313 133.921875 82.570313 C 127.261719 80.679688 118.710938 77.980469 116.191406 77.167969 C 116.871094 75.648438 117.355469 74.042969 117.632813 72.402344 Z M 117.632813 72.402344 "/>
<path style=" stroke:none;fill-rule:nonzero;fill:rgb(70.506287%,59.179688%,35.301208%);fill-opacity:1;" d="M 114.84375 79.601563 C 117.542969 80.5 131.132813 84.910156 136.800781 87.070313 C 136.800781 87.070313 133.5625 91.480469 124.113281 87.792969 C 117.453125 85.179688 113.851563 83.652344 112.230469 82.929688 C 113.246094 81.941406 114.125 80.824219 114.84375 79.601563 Z M 114.84375 79.601563 "/>
<path style=" stroke:none;fill-rule:nonzero;fill:rgb(70.506287%,59.179688%,35.301208%);fill-opacity:1;" d="M 110.164063 84.910156 C 112.503906 85.902344 121.324219 89.769531 126.363281 92.203125 C 126.363281 92.203125 119.972656 95.351563 111.960938 90.402344 L 107.011719 87.070313 C 108.117188 86.433594 109.171875 85.710938 110.164063 84.910156 Z M 110.164063 84.910156 "/>
<path style=" stroke:none;fill-rule:nonzero;fill:rgb(70.506287%,59.179688%,35.301208%);fill-opacity:1;" d="M 104.582031 88.332031 C 106.113281 89.320313 112.773438 93.546875 116.011719 95.980469 C 116.011719 95.980469 110.523438 98.230469 104.851563 92.917969 C 103.050781 91.210938 102.0625 90.222656 101.523438 89.589844 C 102.421875 89.230469 103.503906 88.871094 104.582031 88.332031 Z M 104.582031 88.332031 "/>
<path style=" stroke:none;fill-rule:nonzero;fill:rgb(100%,100%,100%);fill-opacity:1;" d="M 109.621094 98.769531 C 109.640625 105.707031 105.480469 111.96875 99.078125 114.640625 C 92.679688 117.308594 85.300781 115.863281 80.386719 110.972656 C 75.46875 106.082031 73.984375 98.710938 76.621094 92.292969 C 79.257813 85.882813 85.496094 81.691406 92.433594 81.667969 C 96.980469 81.652344 101.351563 83.441406 104.578125 86.652344 C 107.804688 89.859375 109.621094 94.222656 109.621094 98.769531 Z M 109.621094 98.769531 "/>
<path style=" stroke:none;fill-rule:nonzero;fill:rgb(70.506287%,59.179688%,35.301208%);fill-opacity:1;" d="M 106.023438 102.28125 C 106.023438 107.777344 102.710938 112.734375 97.632813 114.835938 C 92.554688 116.941406 86.710938 115.777344 82.824219 111.890625 C 78.9375 108.003906 77.773438 102.160156 79.875 97.082031 C 81.980469 92.003906 86.9375 88.691406 92.433594 88.691406 C 96.042969 88.667969 99.507813 90.097656 102.0625 92.652344 C 104.613281 95.203125 106.039063 98.667969 106.023438 102.28125 Z M 106.023438 102.28125 "/>
<path style=" stroke:none;fill-rule:nonzero;fill:rgb(0%,16.868591%,36.083984%);fill-opacity:1;" d="M 101.523438 111.730469 C 100.582031 111.09375 99.910156 110.132813 99.632813 109.03125 L 99.632813 108.761719 C 103.105469 107.292969 106.03125 104.777344 108.003906 101.5625 C 107.285156 105.679688 104.953125 109.339844 101.523438 111.730469 Z M 76.953125 101.5625 C 78.898438 104.792969 81.832031 107.320313 85.324219 108.761719 L 85.324219 109.03125 C 85.042969 110.132813 84.371094 111.09375 83.433594 111.730469 C 80.019531 109.324219 77.691406 105.667969 76.953125 101.5625 Z M 80.550781 88.417969 C 79.832031 92.292969 81.453125 95.980469 82.980469 99.3125 C 84.042969 101.515625 84.828125 103.84375 85.324219 106.242188 C 81.128906 104.167969 78.066406 100.347656 76.953125 95.796875 C 77.480469 93.066406 78.722656 90.519531 80.550781 88.417969 Z M 97.292969 107.140625 C 96.09375 107.519531 94.855469 107.761719 93.601563 107.863281 L 93.601563 83.019531 C 96.042969 83.21875 98.410156 83.957031 100.53125 85.179688 C 103.683594 89.769531 101.972656 93.820313 99.902344 98.410156 C 98.640625 101.203125 97.382813 104.082031 97.292969 107.140625 Z M 93.601563 110.113281 C 94.882813 110.042969 96.152344 109.835938 97.382813 109.480469 C 97.660156 110.851563 98.390625 112.085938 99.453125 112.992188 C 97.601563 113.824219 95.625 114.34375 93.601563 114.519531 Z M 87.574219 109.480469 C 88.804688 109.835938 90.070313 110.042969 91.351563 110.113281 L 91.351563 114.519531 C 89.332031 114.34375 87.351563 113.824219 85.503906 112.992188 C 86.566406 112.085938 87.292969 110.851563 87.574219 109.480469 Z M 84.332031 85.179688 C 86.484375 83.953125 88.882813 83.21875 91.351563 83.019531 L 91.351563 107.863281 C 90.097656 107.761719 88.863281 107.519531 87.664063 107.140625 C 87.574219 104.082031 86.3125 101.203125 85.050781 98.410156 C 82.980469 93.820313 81.183594 89.769531 84.332031 85.179688 Z M 108.003906 95.796875 C 106.828125 100.292969 103.78125 104.0625 99.632813 106.152344 C 100.140625 103.789063 100.925781 101.492188 101.972656 99.3125 C 103.503906 95.980469 105.121094 92.292969 104.402344 88.417969 C 106.230469 90.519531 107.472656 93.066406 108.003906 95.796875 Z M 92.433594 80.320313 C 84.976563 80.359375 78.277344 84.875 75.449219 91.773438 C 72.625 98.667969 74.222656 106.589844 79.507813 111.847656 C 84.792969 117.109375 92.71875 118.667969 99.601563 115.808594 C 106.488281 112.949219 110.972656 106.226563 110.972656 98.769531 C 110.964844 93.863281 109.007813 89.160156 105.527344 85.699219 C 102.050781 82.238281 97.339844 80.304688 92.433594 80.320313 Z M 92.433594 80.320313 "/>
<path style=" stroke:none;fill-rule:nonzero;fill:rgb(0%,16.868591%,36.083984%);fill-opacity:1;" d="M 97.921875 56.292969 C 97.921875 56.292969 97.832031 56.917969 97.472656 56.917969 C 96.203125 56.480469 94.96875 55.9375 93.78125 55.296875 C 93.34375 55.0625 92.921875 54.792969 92.523438 54.492188 C 92.523438 54.492188 91.53125 55.03125 91.082031 55.296875 C 89.925781 55.933594 88.722656 56.472656 87.480469 56.917969 C 87.121094 56.917969 86.941406 56.292969 86.941406 56.292969 C 86.941406 56.292969 81.183594 59.796875 81.183594 69.519531 C 81.183594 76.8125 84.960938 80.046875 84.960938 80.046875 L 85.414063 82.121094 L 99.542969 82.121094 L 99.992188 80.046875 C 99.992188 80.046875 103.773438 76.8125 103.773438 69.519531 C 103.773438 59.796875 97.921875 56.292969 97.921875 56.292969 Z M 97.921875 56.292969 "/>
<path style=" stroke:none;fill-rule:nonzero;fill:rgb(100%,100%,100%);fill-opacity:1;" d="M 100.710938 67.089844 C 100.734375 64.554688 99.839844 62.09375 98.191406 60.160156 C 98.191406 60.160156 98.101563 61.0625 96.753906 60.070313 C 94.1875 58.269531 90.769531 58.269531 88.203125 60.070313 C 86.851563 61.0625 86.761719 60.160156 86.761719 60.160156 C 85.117188 62.09375 84.222656 64.554688 84.242188 67.089844 C 84.242188 69.613281 84.78125 70.78125 85.050781 71.140625 C 86.3125 74.292969 89.101563 76.542969 92.433594 76.542969 C 95.753906 76.472656 98.691406 74.359375 99.8125 71.230469 C 99.902344 71.140625 100.710938 69.972656 100.710938 67.089844 Z M 100.710938 67.089844 "/>
<path style=" stroke:none;fill-rule:nonzero;fill:rgb(0%,16.868591%,36.083984%);fill-opacity:1;" d="M 95.582031 73.839844 C 95.070313 72.980469 95.261719 71.871094 96.03125 71.230469 C 96.03125 71.230469 99.09375 71.863281 99.183594 67.8125 C 99.164063 67.363281 99.289063 66.917969 99.542969 66.546875 C 99.542969 66.546875 98.730469 65.832031 97.023438 67.089844 C 95.402344 68.351563 94.414063 72.042969 93.511719 71.140625 C 92.613281 70.332031 92.972656 65.5625 92.433594 65.382813 C 91.980469 65.5625 92.34375 70.332031 91.441406 71.140625 C 90.453125 72.042969 89.550781 68.351563 87.84375 67.089844 C 86.132813 65.832031 85.414063 66.546875 85.414063 66.546875 C 85.609375 66.945313 85.734375 67.371094 85.773438 67.8125 C 85.773438 71.863281 88.832031 71.230469 88.832031 71.230469 C 89.609375 71.863281 89.832031 72.953125 89.371094 73.839844 C 85.773438 69.972656 83.613281 70.511719 84.691406 74.832031 C 85.683594 79.152344 89.640625 97.601563 90.273438 101.917969 C 90.183594 105.703125 89.730469 107.140625 89.550781 107.410156 L 89.191406 108.222656 L 89.640625 109.03125 C 90.179688 109.855469 90.632813 110.726563 90.992188 111.640625 L 92.433594 115.417969 L 93.960938 111.640625 C 94.324219 110.726563 94.773438 109.855469 95.3125 109.03125 L 95.761719 108.222656 L 95.3125 107.410156 C 95.222656 107.140625 94.773438 105.792969 94.683594 102.101563 C 95.222656 98.230469 99.273438 79.242188 100.261719 74.832031 C 101.34375 70.511719 99.183594 69.972656 95.582031 73.839844 Z M 95.582031 73.839844 "/>
<path style=" stroke:none;fill-rule:nonzero;fill:rgb(89.0625%,9.423828%,21.556091%);fill-opacity:1;" d="M 90.003906 93.101563 C 88.652344 86.261719 87.664063 81.132813 86.851563 77.441406 C 86.222656 74.652344 87.933594 75.820313 88.832031 77.53125 Z M 90.003906 93.101563 "/>
<path style=" stroke:none;fill-rule:nonzero;fill:rgb(89.0625%,9.423828%,21.556091%);fill-opacity:1;" d="M 94.953125 93.101563 C 96.210938 86.261719 97.292969 81.132813 98.101563 77.441406 C 98.730469 74.652344 97.023438 75.820313 96.121094 77.53125 Z M 94.953125 93.101563 "/>
<path style=" stroke:none;fill-rule:nonzero;fill:rgb(89.0625%,9.423828%,21.556091%);fill-opacity:1;" d="M 87.933594 69.882813 C 87.683594 69.773438 87.539063 69.519531 87.574219 69.25 C 87.664063 69.160156 87.664063 69.070313 87.753906 68.980469 C 87.5625 68.78125 87.351563 68.597656 87.121094 68.441406 C 87.121094 68.441406 86.761719 70.417969 88.472656 70.242188 C 88.453125 70.078125 88.390625 69.917969 88.292969 69.792969 C 88.203125 69.882813 88.113281 69.882813 87.933594 69.882813 Z M 87.933594 69.882813 "/>
<path style=" stroke:none;fill-rule:nonzero;fill:rgb(89.0625%,9.423828%,21.556091%);fill-opacity:1;" d="M 97.742188 68.441406 C 97.5625 68.621094 97.292969 68.796875 97.203125 68.980469 C 97.203125 69.070313 97.292969 69.160156 97.292969 69.25 C 97.40625 69.5 97.28125 69.792969 97.023438 69.882813 C 96.84375 69.882813 96.753906 69.882813 96.664063 69.792969 C 96.5625 69.9375 96.472656 70.085938 96.390625 70.242188 C 98.191406 70.417969 97.742188 68.441406 97.742188 68.441406 Z M 97.742188 68.441406 "/>
<path style=" stroke:none;fill-rule:nonzero;fill:rgb(89.0625%,9.423828%,21.556091%);fill-opacity:1;" d="M 93.332031 95.621094 C 93.871094 85 94.683594 77.53125 94.683594 76.632813 C 94.707031 76.203125 94.644531 75.777344 94.503906 75.371094 L 93.871094 77.351563 L 93.691406 73.839844 C 93.34375 73.355469 92.917969 72.929688 92.433594 72.582031 C 91.96875 72.957031 91.546875 73.378906 91.171875 73.839844 L 90.992188 77.351563 L 90.363281 75.371094 C 90.265625 75.785156 90.203125 76.207031 90.183594 76.632813 C 90.183594 77.53125 91.082031 85 91.621094 95.621094 C 92.164063 106.242188 90.902344 108.222656 90.902344 108.222656 C 91.488281 109.199219 92 110.222656 92.433594 111.28125 C 92.910156 110.230469 93.449219 109.207031 94.050781 108.222656 C 94.050781 108.222656 92.703125 106.242188 93.332031 95.621094 Z M 93.332031 95.621094 "/>
<path style=" stroke:none;fill-rule:nonzero;fill:rgb(100%,100%,100%);fill-opacity:1;" d="M 86.222656 127.570313 L 84.78125 127.390625 L 85.683594 121.542969 L 87.121094 121.8125 Z M 86.222656 127.570313 "/>
</g>
</svg>
