<?xml version="1.0" encoding="UTF-8"?>
<svg xmlns="http://www.w3.org/2000/svg" xmlns:xlink="http://www.w3.org/1999/xlink" width="205pt" height="167pt" viewBox="0 0 205 167" version="1.1">
<g id="surface1">
<path style=" stroke:none;fill-rule:nonzero;fill:rgb(100%,100%,100%);fill-opacity:1;" d="M 102.058594 166 L 88.46875 148.363281 C 71.214844 142.691406 59.160156 127.070313 58.050781 108.941406 L 49.589844 98.046875 C 44.019531 100.585938 38.664063 103.566406 33.570313 106.960938 L 8.371094 81.671875 L 18.988281 58.269531 L 0 33.519531 L 30.238281 33.519531 L 36.089844 20.742188 L 51.121094 14.710938 L 52.738281 10.210938 L 64.890625 15.703125 L 67.769531 5.621094 L 69.75 4.992188 C 80.097656 1.640625 90.914063 -0.03125 101.789063 0.0429688 L 105.839844 0.0429688 C 106.199219 0.0429688 107.910156 0.222656 107.910156 0.222656 C 117.019531 0.558594 126.042969 2.132813 134.730469 4.902344 L 136.710938 5.53125 L 139.320313 15.160156 L 143.730469 11.921875 L 168.390625 20.5625 L 174.238281 33.519531 L 204.660156 33.519531 L 185.488281 58.269531 L 195.929688 81.3125 L 170.28125 107.679688 C 170.28125 107.679688 160.921875 100.839844 154.441406 98.320313 L 146.699219 108.222656 C 145.761719 126.894531 133.304688 143.015625 115.46875 148.632813 Z M 102.058594 166 "/>
<path style=" stroke:none;fill-rule:nonzero;fill:rgb(70.117188%,69.726563%,69.334412%);fill-opacity:1;" d="M 102.058594 153.761719 L 189.539063 40.992188 L 15.121094 40.992188 Z M 102.058594 153.761719 "/>
<path style=" stroke:none;fill-rule:nonzero;fill:rgb(0%,41.967773%,71.289063%);fill-opacity:1;" d="M 189.539063 40.992188 L 102.058594 153.761719 L 15.121094 40.992188 Z M 8.011719 37.480469 L 102.058594 159.613281 L 196.738281 37.480469 Z M 8.011719 37.480469 "/>
<path style=" stroke:none;fill-rule:nonzero;fill:rgb(0%,41.967773%,71.289063%);fill-opacity:1;" d="M 176.941406 48.820313 L 176.761719 48.730469 L 171.179688 44.953125 L 173.25 40.992188 L 173.339844 40.8125 L 173.25 40.722656 L 165.511719 23.800781 L 165.511719 23.710938 L 165.421875 23.621094 L 144.71875 16.242188 L 144.539063 16.242188 L 144.449219 16.332031 L 138.960938 20.5625 L 138.871094 20.5625 L 138.871094 20.652344 L 137.96875 22.992188 C 130.933594 21.4375 123.808594 20.296875 116.640625 19.570313 C 115.378906 19.480469 111.960938 19.210938 106.46875 18.761719 L 105.929688 18.671875 L 105.210938 18.671875 L 100.980469 22.8125 L 100.980469 18.671875 C 100.980469 18.671875 89.371094 19.210938 81.71875 20.292969 C 74.160156 21.371094 66.691406 23.261719 66.691406 23.261719 L 65.25 20.292969 L 65.070313 20.113281 L 55.261719 15.613281 L 54.988281 15.519531 L 54.898438 15.792969 L 53.820313 18.941406 L 53.550781 18.3125 L 53.460938 18.042969 L 53.191406 18.222656 L 39.148438 23.800781 L 39.058594 23.890625 L 38.96875 23.890625 L 13.140625 80.769531 L 34.289063 102.011719 L 35.371094 101.472656 C 35.910156 101.113281 36.808594 100.570313 37.890625 99.941406 C 40.5 98.410156 44.011719 96.339844 45.71875 95.53125 L 45.988281 95.351563 C 48.148438 94.269531 49.320313 93.820313 59.578125 89.320313 L 60.480469 88.960938 C 60.480469 88.960938 61.648438 88.511719 63.71875 87.792969 C 69.390625 85.992188 84.148438 81.582031 98.460938 81.582031 L 100.261719 81.582031 C 110.070313 81.851563 121.320313 83.921875 129.148438 85.542969 C 136.621094 87.160156 142.289063 88.691406 143.910156 89.140625 L 144.988281 89.5 C 153.269531 92.914063 161.222656 97.070313 168.75 101.921875 L 169.828125 102.460938 L 191.339844 80.410156 Z M 176.941406 48.820313 "/>
<path style=" stroke:none;fill-rule:nonzero;fill:rgb(100%,40.380859%,10.594177%);fill-opacity:1;" d="M 174.511719 50.800781 L 153.898438 37.03125 L 150.390625 26.953125 L 156.691406 29.292969 L 159.300781 35.589844 L 169.019531 38.652344 L 163.351563 26.140625 L 144.988281 19.660156 L 141.570313 22.269531 L 147.691406 42.160156 L 167.308594 56.019531 L 172.261719 68.53125 L 164.070313 64.839844 L 161.28125 57.011719 L 151.289063 54.042969 L 156.691406 71.769531 C 158.308594 72.3125 159.929688 72.941406 161.550781 73.570313 C 165.960938 75.371094 170.371094 77.441406 174.691406 79.511719 C 177.660156 81.042969 180.539063 82.660156 183.421875 84.371094 L 187.648438 79.960938 Z M 174.511719 50.800781 "/>
<path style=" stroke:none;fill-rule:nonzero;fill:rgb(100%,40.380859%,10.594177%);fill-opacity:1;" d="M 35.28125 60.160156 L 42.121094 54.042969 L 43.738281 55.929688 L 36.988281 75.460938 C 40.769531 73.839844 44.460938 72.3125 48.328125 70.960938 L 53.191406 54.851563 L 48.960938 47.832031 L 57.691406 39.460938 L 62.910156 22.269531 L 56.609375 19.390625 L 50.941406 35.589844 L 41.761719 43.421875 L 50.039063 22.542969 L 41.128906 26.140625 L 16.558594 80.046875 L 20.429688 83.921875 C 22.769531 82.570313 25.019531 81.3125 27.359375 80.140625 Z M 35.28125 60.160156 "/>
<path style=" stroke:none;fill-rule:nonzero;fill:rgb(100%,40.380859%,10.594177%);fill-opacity:1;" d="M 97.558594 21.640625 L 90.089844 22.089844 L 86.488281 62.589844 C 89.730469 62.320313 92.96875 62.050781 96.210938 61.960938 Z M 97.558594 21.640625 "/>
<path style=" stroke:none;fill-rule:nonzero;fill:rgb(100%,40.380859%,10.594177%);fill-opacity:1;" d="M 119.96875 54.132813 L 111.148438 53.589844 L 109.710938 28.839844 L 117.179688 29.113281 L 116.28125 22.269531 L 106.289063 21.640625 L 101.878906 26.050781 L 101.878906 57.011719 L 106.558594 61.871094 C 111.347656 61.957031 116.125 62.316406 120.871094 62.953125 Z M 119.96875 54.132813 "/>
<path style=" stroke:none;fill-rule:nonzero;fill:rgb(100%,40.380859%,10.594177%);fill-opacity:1;" d="M 70.289063 37.660156 L 73.441406 53.050781 L 71.460938 64.660156 C 74.519531 64.121094 77.578125 63.582031 80.640625 63.222656 L 85.5 22.542969 L 78.480469 23.621094 L 76.140625 36.851563 L 73.621094 24.519531 L 65.339844 26.5 L 54 69.070313 C 57.238281 67.992188 60.660156 67.089844 63.988281 66.28125 Z M 70.289063 37.660156 "/>
<path style=" stroke:none;fill-rule:nonzero;fill:rgb(100%,40.380859%,10.594177%);fill-opacity:1;" d="M 131.21875 51.972656 L 133.648438 48.640625 L 137.25 51.613281 L 140.578125 66.640625 C 144 67.542969 147.511719 68.53125 150.839844 69.613281 L 144.71875 47.5625 L 138.328125 42.339844 L 141.929688 37.480469 L 138.871094 26.230469 L 131.21875 24.519531 L 134.28125 35.863281 L 129.511719 42.160156 L 125.910156 23.621094 L 118.800781 22.722656 C 118.800781 22.722656 122.308594 49.992188 124.109375 63.402344 C 127.261719 63.851563 130.5 64.390625 133.738281 65.019531 Z M 131.21875 51.972656 "/>
<path style=" stroke:none;fill-rule:nonzero;fill:rgb(70.117188%,69.726563%,69.334412%);fill-opacity:1;" d="M 87.570313 70.242188 C 87.570313 70.242188 90.539063 68.441406 96.480469 67.8125 L 96.300781 63.132813 C 93.058594 63.222656 89.820313 63.402344 86.578125 63.761719 C 86.851563 65.5625 87.300781 68.351563 87.570313 70.242188 Z M 87.570313 70.242188 "/>
<path style=" stroke:none;fill-rule:nonzero;fill:rgb(70.117188%,69.726563%,69.334412%);fill-opacity:1;" d="M 106.46875 67.542969 C 108.929688 67.941406 111.363281 68.484375 113.761719 69.160156 C 115.832031 69.691406 117.851563 70.414063 119.789063 71.320313 L 120.871094 64.121094 C 116.011719 63.582031 111.511719 63.222656 106.648438 63.042969 C 106.558594 64.570313 106.558594 66.550781 106.46875 67.542969 Z M 106.46875 67.542969 "/>
<path style=" stroke:none;fill-rule:nonzero;fill:rgb(70.117188%,69.726563%,69.334412%);fill-opacity:1;" d="M 75.238281 78.972656 C 77.941406 76.902344 79.648438 74.742188 82.53125 72.941406 C 81.988281 70.332031 81.269531 66.910156 80.730469 64.390625 C 77.578125 64.75 74.429688 65.292969 71.371094 65.921875 C 72.539063 69.882813 74.070313 75.011719 75.238281 78.972656 Z M 75.238281 78.972656 "/>
<path style=" stroke:none;fill-rule:nonzero;fill:rgb(70.117188%,69.726563%,69.334412%);fill-opacity:1;" d="M 122.21875 72.941406 C 124.859375 74.507813 127.277344 76.414063 129.421875 78.613281 L 129.871094 78.972656 L 133.738281 66.371094 C 130.410156 65.652344 127.261719 65.019531 123.929688 64.570313 Z M 122.21875 72.941406 "/>
<path style=" stroke:none;fill-rule:nonzero;fill:rgb(70.117188%,69.726563%,69.334412%);fill-opacity:1;" d="M 134.191406 83.832031 L 143.28125 85.902344 L 150.839844 70.871094 C 147.421875 69.703125 143.910156 68.796875 140.398438 67.902344 Z M 134.191406 83.832031 "/>
<path style=" stroke:none;fill-rule:nonzero;fill:rgb(70.117188%,69.726563%,69.334412%);fill-opacity:1;" d="M 61.378906 85.902344 C 63.71875 85 67.050781 83.921875 70.109375 83.019531 L 64.261719 67.453125 C 60.660156 68.351563 57.511719 69.160156 54.089844 70.332031 C 56.339844 75.546875 58.769531 80.953125 61.378906 85.902344 Z M 61.378906 85.902344 "/>
<path style=" stroke:none;fill-rule:nonzero;fill:rgb(70.117188%,69.726563%,69.334412%);fill-opacity:1;" d="M 47.789063 91.570313 C 48.238281 91.121094 53.460938 88.871094 56.96875 87.339844 C 54.269531 82.570313 51.03125 77.171875 48.421875 72.3125 C 44.460938 73.660156 41.039063 75.101563 37.261719 76.722656 Z M 47.789063 91.570313 "/>
<path style=" stroke:none;fill-rule:nonzero;fill:rgb(70.117188%,69.726563%,69.334412%);fill-opacity:1;" d="M 34.921875 98.320313 C 36.539063 97.242188 38.339844 96.339844 40.230469 95.171875 L 28.261719 81.042969 C 25.921875 82.210938 23.671875 83.472656 21.421875 84.820313 Z M 34.921875 98.320313 "/>
<path style=" stroke:none;fill-rule:nonzero;fill:rgb(70.117188%,69.726563%,69.334412%);fill-opacity:1;" d="M 147.960938 87.792969 C 155.375 90.859375 162.511719 94.566406 169.289063 98.863281 C 171.179688 97.152344 181.171875 86.621094 182.609375 85.179688 C 174.257813 80.285156 165.496094 76.128906 156.421875 72.761719 Z M 147.960938 87.792969 "/>
<path style=" stroke:none;fill-rule:nonzero;fill:rgb(70.117188%,69.726563%,69.334412%);fill-opacity:1;" d="M 105.121094 67.269531 L 101.609375 67.179688 L 101.519531 58.8125 L 105.121094 62.589844 Z M 105.121094 67.269531 "/>
<path style=" stroke:none;fill-rule:nonzero;fill:rgb(0%,41.967773%,71.289063%);fill-opacity:1;" d="M 102.421875 65.652344 C 86.039063 65.652344 71.273438 75.519531 65.003906 90.652344 C 58.734375 105.785156 62.199219 123.207031 73.78125 134.789063 C 85.363281 146.371094 102.785156 149.835938 117.917969 143.570313 C 133.050781 137.296875 142.921875 122.53125 142.921875 106.152344 C 142.917969 83.785156 124.785156 65.652344 102.421875 65.652344 Z M 102.421875 65.652344 "/>
<path style=" stroke:none;fill-rule:nonzero;fill:rgb(100%,40.380859%,10.594177%);fill-opacity:1;" d="M 104.941406 68.710938 C 101.832031 69.875 98.796875 71.230469 95.851563 72.761719 C 93.871094 71.5 92.699219 71.230469 91.261719 70.332031 C 95.488281 68.710938 100.171875 68.53125 104.941406 68.710938 Z M 104.941406 68.710938 "/>
<path style=" stroke:none;fill-rule:nonzero;fill:rgb(100%,40.380859%,10.594177%);fill-opacity:1;" d="M 133.921875 85.902344 C 124.378906 76.269531 110.070313 76.992188 97.921875 73.570313 C 97.921875 73.570313 105.121094 70.242188 108.71875 69.25 C 118.710938 70.960938 128.339844 76.8125 133.921875 85.902344 Z M 133.921875 85.902344 "/>
<path style=" stroke:none;fill-rule:nonzero;fill:rgb(100%,40.380859%,10.594177%);fill-opacity:1;" d="M 80.28125 87.339844 C 71.050781 101.199219 69.882813 118.921875 77.21875 133.871094 C 67.769531 126.042969 62.191406 110.5625 66.421875 95.710938 C 69.839844 90.851563 74.339844 86.621094 80.28125 87.339844 Z M 80.28125 87.339844 "/>
<path style=" stroke:none;fill-rule:nonzero;fill:rgb(100%,40.380859%,10.594177%);fill-opacity:1;" d="M 90.089844 97.421875 C 95.039063 112.089844 96.121094 128.292969 108.988281 143.140625 C 98.910156 145.121094 89.101563 142.0625 81.269531 137.113281 C 71.460938 122.890625 72.359375 101.652344 82.171875 87.792969 C 86.851563 89.230469 89.460938 95.441406 90.089844 97.421875 Z M 90.089844 97.421875 "/>
<path style=" stroke:none;fill-rule:nonzero;fill:rgb(100%,40.380859%,10.594177%);fill-opacity:1;" d="M 83.25 86.261719 C 84.730469 84.148438 86.417969 82.1875 88.289063 80.410156 C 108.988281 86.261719 128.789063 107.769531 132.210938 128.921875 C 131.21875 130.453125 128.878906 132.703125 127.261719 134.320313 C 122.601563 138.410156 117.003906 141.285156 110.96875 142.691406 C 101.25 132.613281 98.101563 119.5625 94.679688 106.691406 C 92.070313 96.792969 90.269531 89.320313 83.25 86.261719 Z M 83.25 86.261719 "/>
<path style=" stroke:none;fill-rule:nonzero;fill:rgb(100%,40.380859%,10.594177%);fill-opacity:1;" d="M 131.671875 86.171875 C 121.679688 77.351563 107.730469 78.519531 96.03125 74.382813 C 93.78125 75.773438 91.644531 77.335938 89.640625 79.0625 C 110.429688 85.542969 129.238281 105.882813 133.738281 126.851563 C 136.964844 122.082031 139.027344 116.628906 139.769531 110.921875 C 140.21875 102.011719 140.21875 93.910156 131.671875 86.171875 Z M 131.671875 86.171875 "/>
<path style=" stroke:none;fill-rule:nonzero;fill:rgb(100%,40.380859%,10.594177%);fill-opacity:1;" d="M 86.578125 79.691406 C 84.726563 81.546875 83.039063 83.566406 81.539063 85.722656 L 81.449219 85.722656 C 75.960938 84.460938 71.640625 87.339844 68.21875 90.941406 C 70.203125 86.199219 73.214844 81.957031 77.039063 78.519531 C 80.371094 78.613281 82.890625 78.613281 86.578125 79.691406 Z M 86.578125 79.691406 "/>
<path style=" stroke:none;fill-rule:nonzero;fill:rgb(100%,40.380859%,10.594177%);fill-opacity:1;" d="M 88.019531 78.429688 C 89.957031 76.703125 92.035156 75.136719 94.230469 73.75 L 88.921875 71.140625 C 85.320313 72.582031 81.539063 74.472656 78.929688 76.8125 C 82.003906 77.054688 85.050781 77.59375 88.019531 78.429688 Z M 88.019531 78.429688 "/>
<path style=" stroke:none;fill-rule:nonzero;fill:rgb(0%,41.967773%,71.289063%);fill-opacity:1;" d="M 96.660156 15.972656 L 95.039063 17.589844 L 92.25 17.769531 L 91.171875 16.871094 L 89.820313 17.953125 L 86.761719 18.222656 L 85.410156 16.960938 L 87.210938 4.992188 L 89.550781 4.722656 L 88.289063 15.339844 L 89.910156 15.160156 L 91.261719 4.542969 L 93.511719 4.363281 L 92.609375 14.890625 L 94.230469 14.710938 L 95.039063 4.269531 C 95.839844 4.128906 96.65625 4.066406 97.46875 4.089844 Z M 96.660156 15.972656 "/>
<path style=" stroke:none;fill-rule:nonzero;fill:rgb(0%,41.967773%,71.289063%);fill-opacity:1;" d="M 104.21875 3.910156 L 104.21875 11.472656 L 105.660156 11.472656 L 105.570313 3.910156 C 105.570313 3.910156 107.101563 4 107.820313 4.089844 L 108.089844 12.460938 L 106.648438 13.902344 L 106.199219 13.902344 L 106.289063 17.5 L 103.769531 17.410156 L 103.769531 13.8125 L 103.230469 13.8125 L 101.699219 12.191406 L 101.789063 3.820313 C 102.691406 3.910156 104.21875 3.910156 104.21875 3.910156 Z M 104.21875 3.910156 "/>
<path style=" stroke:none;fill-rule:nonzero;fill:rgb(0%,41.967773%,71.289063%);fill-opacity:1;" d="M 85.5 5.261719 L 85.140625 7.78125 L 82.261719 8.320313 L 81.808594 11.113281 C 82.890625 11.019531 83.429688 10.839844 84.691406 10.660156 C 84.511719 11.742188 84.421875 12.191406 84.238281 13.179688 L 81.449219 13.542969 L 80.910156 16.332031 L 83.789063 15.972656 C 83.789063 15.972656 83.519531 17.769531 83.429688 18.671875 C 81.429688 18.832031 79.445313 19.132813 77.488281 19.570313 C 77.488281 19.570313 79.558594 9.492188 80.191406 6.339844 Z M 85.5 5.261719 "/>
<path style=" stroke:none;fill-rule:nonzero;fill:rgb(0%,41.967773%,71.289063%);fill-opacity:1;" d="M 74.96875 20.019531 L 72.089844 20.5625 L 73.441406 15.070313 L 72.539063 13.089844 L 70.109375 20.921875 L 67.320313 21.550781 C 68.488281 17.320313 69.660156 13 70.828125 8.769531 C 71.820313 8.410156 72.539063 8.230469 73.441406 7.871094 C 73.761719 8.609375 74.121094 9.332031 74.519531 10.03125 L 75.238281 7.332031 C 75.238281 7.332031 77.039063 6.882813 77.941406 6.613281 Z M 74.96875 20.019531 "/>
<path style=" stroke:none;fill-rule:nonzero;fill:rgb(0%,41.967773%,71.289063%);fill-opacity:1;" d="M 112.230469 6.792969 L 113.039063 15.070313 L 114.480469 15.160156 L 113.671875 6.972656 Z M 116.011719 6.25 C 116.28125 9.671875 116.910156 13 117.269531 16.152344 L 115.921875 18.042969 L 111.871094 17.769531 L 110.339844 16.152344 C 110.160156 12.640625 109.890625 9.132813 109.710938 5.621094 C 110.070313 5.171875 110.699219 4.722656 111.148438 4.269531 L 114.570313 4.542969 Z M 116.011719 6.25 "/>
<path style=" stroke:none;fill-rule:nonzero;fill:rgb(0%,41.967773%,71.289063%);fill-opacity:1;" d="M 129.328125 7.421875 C 129.871094 9.402344 130.859375 13.453125 130.859375 13.453125 L 131.851563 13.632813 L 132.300781 13 L 131.039063 7.960938 C 131.039063 7.960938 132.300781 8.320313 133.558594 8.679688 L 134.910156 13.542969 L 134.371094 14.441406 L 135.449219 15.613281 L 137.160156 21.550781 L 134.371094 20.921875 L 133.199219 16.78125 L 131.488281 16.421875 L 132.390625 20.5625 L 129.511719 20.019531 C 128.519531 15.519531 126.71875 6.792969 126.71875 6.792969 C 127.601563 6.949219 128.472656 7.160156 129.328125 7.421875 Z M 129.328125 7.421875 "/>
<path style=" stroke:none;fill-rule:nonzero;fill:rgb(0%,41.967773%,71.289063%);fill-opacity:1;" d="M 120.960938 8.140625 L 121.410156 11.472656 L 122.941406 11.652344 L 122.308594 8.320313 Z M 124.921875 7.960938 L 125.820313 12.820313 L 125.371094 13.632813 L 126.269531 14.800781 L 127.171875 19.660156 L 124.378906 19.210938 L 123.570313 15.160156 L 121.949219 14.980469 L 122.488281 18.941406 L 119.789063 18.582031 L 117.988281 5.171875 L 123.210938 6.070313 Z M 124.921875 7.960938 "/>
</g>
</svg>
