<?xml version="1.0" encoding="UTF-8"?>
<svg xmlns="http://www.w3.org/2000/svg" xmlns:xlink="http://www.w3.org/1999/xlink" width="185pt" height="172pt" viewBox="0 0 185 172" version="1.1">
<g id="surface1">
<path style=" stroke:none;fill-rule:nonzero;fill:rgb(0%,17.651367%,38.426208%);fill-opacity:1;" d="M 29.96875 72.089844 L 35.191406 69.570313 L 13.050781 24.117188 L 18.269531 21.507813 L 15.75 16.378906 L 0 24.027344 L 2.519531 29.25 L 7.738281 26.640625 Z M 41.578125 66.417969 L 47.160156 64.617188 L 39.328125 40.589844 L 44.910156 38.789063 L 52.738281 62.820313 L 58.320313 61.019531 L 40.949219 7.378906 L 35.371094 9.179688 L 43.199219 33.207031 L 37.621094 35.007813 L 29.699219 10.980469 L 24.121094 12.777344 Z M 70.921875 1.707031 L 65.160156 2.609375 L 73.078125 52.46875 L 67.320313 53.367188 L 59.398438 3.507813 L 53.640625 4.410156 L 61.199219 51.839844 C 61.945313 56.609375 66.417969 59.875 71.191406 59.128906 C 75.960938 58.382813 79.226563 53.910156 78.480469 49.140625 Z M 83.25 56.96875 L 89.101563 57.058594 L 89.371094 40.769531 C 89.550781 35.820313 89.191406 25.738281 88.921875 21.058594 L 89.101563 21.058594 C 90.628906 33.660156 93.421875 45.359375 95.21875 57.238281 L 100.800781 57.328125 L 101.789063 0.988281 L 95.941406 0.808594 L 95.671875 17.1875 C 95.488281 22.140625 95.851563 32.128906 96.121094 36.898438 L 95.941406 36.898438 C 94.410156 24.300781 91.621094 12.597656 89.820313 0.71875 L 84.238281 0.628906 Z M 105.121094 57.328125 L 116.640625 59.128906 C 118.15625 59.390625 119.714844 59.035156 120.96875 58.136719 C 122.21875 57.242188 123.058594 55.878906 123.300781 54.359375 L 130.320313 10.257813 C 130.792969 7.066406 128.640625 4.074219 125.460938 3.507813 L 113.851563 1.707031 Z M 118.800781 8.457031 L 124.558594 9.359375 L 117.539063 53.457031 L 111.78125 52.558594 Z M 159.839844 12.957031 L 148.769531 9.359375 C 147.292969 8.839844 145.664063 8.949219 144.269531 9.664063 C 142.871094 10.378906 141.832031 11.636719 141.390625 13.140625 L 127.621094 55.527344 C 127.101563 57.007813 127.210938 58.636719 127.925781 60.03125 C 128.640625 61.425781 129.894531 62.464844 131.398438 62.910156 L 142.46875 66.507813 L 144.269531 60.929688 L 133.109375 57.328125 L 139.140625 38.878906 L 147.421875 41.578125 L 149.21875 36.089844 L 140.941406 33.390625 L 146.96875 14.9375 L 158.039063 18.539063 Z M 144.988281 67.679688 L 169.738281 16.917969 L 180.269531 22.050781 C 181.683594 22.710938 182.765625 23.917969 183.273438 25.394531 C 183.785156 26.867188 183.671875 28.484375 182.96875 29.878906 L 173.878906 48.597656 C 172.710938 51.027344 170.640625 52.019531 168.390625 50.9375 L 162.089844 75.957031 L 156.871094 73.4375 L 163.078125 48.238281 L 161.371094 47.429688 L 150.300781 70.199219 Z M 172.441406 24.839844 L 163.890625 42.300781 L 169.199219 44.910156 L 177.75 27.359375 Z M 172.441406 24.839844 "/>
<path style=" stroke:none;fill-rule:nonzero;fill:rgb(0%,47.851563%,75.78125%);fill-opacity:1;" d="M 10.351563 171 C 21.703125 160.980469 33.863281 151.921875 46.710938 143.910156 C 49.230469 142.648438 51.75 141.390625 54.269531 140.128906 C 55.261719 139.679688 57.328125 138.6875 59.851563 137.429688 C 61.648438 139.410156 63.359375 141.300781 65.25 143.097656 C 46.078125 152.007813 27.71875 161.367188 10.351563 171 Z M 147.058594 102.6875 C 159.542969 99.894531 172.203125 97.96875 184.949219 96.929688 C 171.359375 101.070313 157.5 105.660156 143.550781 110.789063 C 144.808594 108.179688 145.890625 105.480469 147.058594 102.6875 Z M 147.058594 102.6875 "/>
<path style=" stroke:none;fill-rule:nonzero;fill:rgb(94.139099%,31.762695%,19.993591%);fill-opacity:1;" d="M 0.898438 133.109375 C 14.117188 124.816406 27.996094 117.621094 42.390625 111.597656 C 42.839844 112.589844 43.378906 113.578125 43.921875 114.570313 C 43.109375 116.1875 42.300781 117.898438 41.488281 119.519531 C 27.539063 123.839844 13.949219 128.339844 0.898438 133.109375 Z M 152.371094 86.757813 C 163.199219 86.316406 174.046875 86.46875 184.859375 87.207031 C 173.609375 88.828125 162.179688 90.628906 150.570313 92.789063 C 151.199219 90.808594 151.828125 88.828125 152.371094 86.757813 Z M 152.371094 86.757813 "/>
<path style=" stroke:none;fill-rule:nonzero;fill:rgb(100%,100%,100%);fill-opacity:1;" d="M 92.878906 68.847656 C 114.03125 68.847656 130.589844 73.800781 149.398438 83.160156 C 140.21875 117.628906 123.390625 140.9375 92.878906 159.75 C 81.449219 152.640625 71.640625 144.71875 63.539063 135.71875 C 67.140625 134.007813 71.191406 132.027344 74.789063 130.410156 C 76.320313 130.5 77.671875 130.589844 79.019531 130.589844 C 79.027344 132.265625 78.382813 133.878906 77.21875 135.089844 C 77.851563 135.808594 78.390625 136.4375 79.019531 137.070313 C 80.640625 135.628906 81.628906 133.558594 81.71875 130.589844 C 85.292969 130.585938 88.851563 130.191406 92.339844 129.417969 C 92.25 134.910156 91.441406 138.867188 89.910156 140.488281 C 89.859375 140.488281 89.820313 140.527344 89.820313 140.578125 C 89.484375 140.933594 89.125 141.265625 88.738281 141.570313 C 90.269531 141.300781 91.800781 140.9375 93.148438 140.578125 C 95.039063 136.707031 95.039063 129.957031 95.039063 128.789063 C 98.550781 127.890625 101.609375 126.988281 104.398438 126.089844 C 104.488281 129.238281 105.839844 132.207031 108.269531 133.378906 C 109.351563 132.570313 110.339844 131.757813 111.421875 130.949219 C 110.789063 131.039063 107.011719 131.308594 107.101563 125.1875 C 115.199219 122.039063 120.511719 118.4375 125.191406 112.859375 C 126.429688 110.050781 127.394531 107.125 128.070313 104.128906 C 122.488281 112.949219 117.449219 118.078125 107.371094 122.128906 C 107.738281 119.960938 108.28125 117.824219 108.988281 115.738281 C 111.960938 114.480469 115.019531 113.039063 116.820313 112.230469 L 121.230469 107.640625 C 122.398438 103.410156 123.390625 99.179688 124.46875 94.859375 L 121.050781 95.9375 L 125.101563 91.707031 C 126 88.378906 126.808594 85.050781 127.621094 81.71875 C 125.640625 81.988281 123.570313 82.347656 121.589844 82.617188 C 121.949219 80.910156 122.128906 79.289063 122.308594 77.667969 C 121.320313 77.488281 120.328125 77.128906 119.339844 77.039063 C 119.117188 79.101563 118.757813 81.144531 118.261719 83.160156 L 117.988281 83.25 C 115.992188 83.546875 114.101563 84.355469 112.5 85.589844 L 113.039063 83.96875 C 109.800781 84.507813 106.558594 85.140625 103.320313 85.769531 L 100.078125 89.1875 L 100.171875 88.828125 L 101.25 86.128906 C 98.101563 86.847656 94.859375 87.480469 91.621094 88.199219 C 90.988281 83.878906 90.269531 80.007813 89.730469 76.859375 L 87.03125 77.128906 C 87.570313 80.367188 88.289063 84.328125 89.011719 88.738281 L 86.761719 89.277344 L 83.878906 92.339844 C 81.898438 90.179688 77.761719 91.527344 75.148438 92.160156 C 72.359375 92.878906 69.570313 93.6875 66.78125 94.410156 C 65.953125 94.59375 65.144531 94.835938 64.351563 95.128906 C 62.1875 92.132813 60.261719 88.972656 58.589844 85.679688 L 58.320313 85.050781 C 57.511719 85.410156 56.699219 85.679688 55.800781 86.128906 L 56.160156 86.847656 C 57.761719 90.097656 59.597656 93.226563 61.648438 96.207031 C 58.539063 97.5625 55.75 99.554688 53.460938 102.058594 C 53.460938 102.058594 49.5 106.109375 49.050781 106.648438 C 48.070313 107.796875 47.195313 109.03125 46.441406 110.339844 C 42.171875 101.660156 38.855469 92.546875 36.539063 83.160156 C 55.171875 73.800781 71.730469 68.847656 92.878906 68.847656 Z M 94.949219 121.140625 C 96.929688 120.328125 98.820313 119.429688 100.800781 118.617188 L 101.699219 117.628906 C 102.144531 117.703125 102.597656 117.734375 103.050781 117.71875 C 103.972656 117.574219 104.878906 117.332031 105.75 117 C 105.167969 119.03125 104.746094 121.109375 104.488281 123.207031 C 101.789063 124.199219 98.640625 125.1875 95.128906 126.089844 C 95.039063 124.378906 95.039063 122.847656 94.949219 121.140625 Z M 81.449219 127.257813 L 83.339844 126.359375 L 88.019531 122.578125 L 89.101563 119.789063 C 89.730469 121.140625 90.089844 121.679688 90.808594 123.027344 L 92.339844 122.308594 L 92.339844 126.628906 C 88.800781 127.472656 85.175781 127.894531 81.539063 127.890625 Z M 81.449219 127.257813 "/>
<path style=" stroke:none;fill-rule:nonzero;fill:rgb(94.139099%,31.762695%,19.993591%);fill-opacity:1;" d="M 104.308594 75.957031 C 108.730469 75.925781 113.148438 76.164063 117.539063 76.679688 C 120.855469 77.339844 124.128906 78.179688 127.351563 79.199219 C 128.625 83.644531 129.261719 88.253906 129.238281 92.878906 C 129.234375 96.695313 128.8125 100.496094 127.980469 104.21875 C 122.398438 113.039063 117.269531 118.078125 107.28125 122.128906 C 107.648438 119.960938 108.191406 117.824219 108.898438 115.738281 C 111.871094 114.480469 114.839844 113.039063 116.730469 112.320313 L 121.140625 107.730469 C 122.21875 103.410156 123.300781 99.179688 124.378906 94.949219 L 120.960938 96.027344 L 125.011719 91.800781 C 125.820313 88.46875 126.71875 85.140625 127.53125 81.808594 C 125.550781 82.078125 123.480469 82.4375 121.5 82.707031 C 121.769531 81 122.039063 79.378906 122.21875 77.757813 C 121.230469 77.488281 120.238281 77.21875 119.25 77.039063 C 119.027344 79.128906 118.667969 81.207031 118.171875 83.25 L 117.898438 83.339844 C 115.851563 83.554688 113.910156 84.371094 112.320313 85.679688 L 112.949219 84.058594 C 109.621094 84.597656 106.46875 85.230469 103.140625 85.859375 L 99.988281 89.1875 L 100.078125 88.917969 L 101.160156 86.21875 C 97.921875 86.9375 94.769531 87.570313 91.53125 88.289063 C 90.898438 83.878906 90.179688 80.007813 89.640625 76.859375 C 94.503906 76.234375 99.40625 75.933594 104.308594 75.957031 Z M 125.101563 112.949219 C 121.976563 119.941406 117.300781 126.128906 111.421875 131.039063 C 110.789063 131.128906 106.921875 131.398438 107.011719 125.277344 C 115.109375 122.128906 120.421875 118.4375 125.101563 112.949219 Z M 108.179688 133.46875 C 103.625 136.722656 98.539063 139.15625 93.148438 140.667969 C 94.949219 136.800781 95.039063 130.050781 95.039063 128.878906 C 98.460938 127.980469 101.519531 127.078125 104.398438 126.179688 C 104.488281 129.328125 105.75 132.390625 108.179688 133.46875 Z M 88.738281 141.660156 C 87.210938 141.929688 85.589844 142.109375 84.058594 142.289063 C 82.351563 140.578125 80.640625 138.777344 79.019531 137.070313 C 80.640625 135.628906 81.628906 133.558594 81.71875 130.589844 C 85.292969 130.585938 88.851563 130.191406 92.339844 129.417969 C 92.25 134.910156 91.441406 138.867188 89.910156 140.488281 C 89.859375 140.488281 89.820313 140.527344 89.820313 140.578125 C 89.371094 141.027344 89.011719 141.390625 88.738281 141.660156 Z M 77.21875 135.089844 C 76.050781 133.738281 74.878906 132.300781 73.800781 130.859375 L 74.789063 130.410156 C 76.320313 130.5 77.671875 130.589844 79.019531 130.589844 C 78.984375 132.257813 78.347656 133.855469 77.21875 135.089844 Z M 55.800781 99.628906 C 54.25 95.769531 52.898438 91.835938 51.75 87.839844 C 53.011719 87.207031 54.269531 86.667969 55.621094 86.128906 L 55.890625 86.847656 C 57.523438 90.097656 59.386719 93.226563 61.46875 96.207031 C 59.421875 97.066406 57.511719 98.21875 55.800781 99.628906 Z M 58.050781 85.050781 C 67.28125 81.21875 76.957031 78.558594 86.851563 77.128906 C 87.390625 80.367188 88.109375 84.328125 88.738281 88.738281 L 86.488281 89.277344 L 83.699219 92.339844 C 81.628906 90.179688 77.488281 91.527344 74.96875 92.160156 C 72.179688 92.878906 69.390625 93.6875 66.601563 94.410156 C 65.773438 94.59375 64.964844 94.835938 64.171875 95.128906 C 62.039063 92.128906 60.140625 88.972656 58.5 85.679688 Z M 94.949219 121.140625 C 96.929688 120.328125 98.820313 119.429688 100.800781 118.617188 L 101.699219 117.628906 C 102.144531 117.703125 102.597656 117.734375 103.050781 117.71875 C 103.96875 117.5625 104.875 117.320313 105.75 117 C 105.125 119.023438 104.699219 121.101563 104.488281 123.207031 C 101.699219 124.199219 98.640625 125.1875 95.039063 126.089844 C 95.039063 124.378906 95.039063 122.847656 94.949219 121.140625 Z M 81.449219 127.257813 L 83.339844 126.359375 L 88.019531 122.578125 L 89.101563 119.789063 C 89.730469 121.140625 90.089844 121.679688 90.808594 123.027344 L 92.339844 122.398438 L 92.339844 126.71875 C 88.792969 127.519531 85.175781 127.941406 81.539063 127.980469 Z M 81.449219 127.257813 "/>
<path style=" stroke:none;fill-rule:nonzero;fill:rgb(99.21875%,73.242188%,18.821716%);fill-opacity:1;" d="M 93.871094 153.988281 C 84.957031 148.003906 76.902344 140.828125 69.929688 132.660156 L 73.800781 130.859375 C 74.96875 132.300781 76.140625 133.738281 77.308594 135.089844 C 77.863281 135.789063 78.464844 136.453125 79.109375 137.070313 C 84.253906 142.75 89.953125 147.90625 96.121094 152.457031 C 95.398438 153.007813 94.648438 153.519531 93.871094 153.988281 Z M 51.390625 103.859375 C 48.757813 98.058594 46.5625 92.074219 44.820313 85.949219 C 60.195313 78.617188 76.933594 74.570313 93.960938 74.070313 C 101.882813 74.136719 109.78125 74.980469 117.539063 76.589844 C 113.144531 76.121094 108.730469 75.882813 104.308594 75.867188 C 99.375 75.847656 94.445313 76.148438 89.550781 76.769531 C 88.648438 76.859375 87.75 77.039063 86.851563 77.128906 C 76.960938 78.527344 67.285156 81.160156 58.050781 84.957031 C 57.238281 85.320313 56.339844 85.679688 55.53125 86.039063 C 54.269531 86.578125 53.011719 87.207031 51.75 87.839844 C 52.839844 91.84375 54.160156 95.777344 55.710938 99.628906 C 54.898438 100.347656 54 101.160156 53.191406 101.96875 Z M 51.390625 103.859375 "/>
<path style=" stroke:none;fill-rule:nonzero;fill:rgb(0%,17.651367%,38.426208%);fill-opacity:1;" d="M 31.949219 81.089844 C 52.199219 70.738281 69.929688 64.980469 92.96875 64.980469 C 115.921875 64.980469 133.738281 70.738281 153.988281 81.089844 C 144.539063 118.980469 126.539063 144.179688 92.878906 164.339844 C 80.191406 156.6875 69.121094 147.777344 59.941406 137.429688 C 57.421875 138.6875 55.351563 139.679688 54.269531 140.21875 C 51.121094 141.839844 47.96875 143.367188 44.820313 144.988281 C 41.21875 146.789063 37.261719 149.578125 33.121094 148.5 C 28.621094 146.519531 31.589844 141.027344 32.941406 137.96875 C 36.449219 130.140625 40.140625 122.308594 43.921875 114.570313 C 39.195313 105.730469 35.628906 96.324219 33.300781 86.578125 Z M 92.878906 68.847656 C 71.730469 68.847656 55.171875 73.800781 36.359375 83.160156 C 38.617188 92.523438 41.910156 101.609375 46.171875 110.25 C 46.957031 108.941406 47.863281 107.707031 48.871094 106.558594 C 49.320313 106.109375 53.191406 101.96875 53.191406 101.96875 C 55.519531 99.472656 58.335938 97.480469 61.46875 96.117188 C 59.367188 93.148438 57.5 90.019531 55.890625 86.757813 L 55.621094 86.039063 C 56.429688 85.679688 57.238281 85.320313 58.140625 84.957031 L 58.410156 85.589844 C 60.050781 88.910156 61.949219 92.097656 64.078125 95.128906 C 64.890625 94.859375 65.699219 94.589844 66.601563 94.320313 C 69.390625 93.597656 72.089844 92.878906 74.96875 92.160156 C 77.488281 91.4375 81.628906 90.089844 83.609375 92.25 L 86.488281 89.1875 L 88.738281 88.738281 C 88.019531 84.238281 87.390625 80.277344 86.761719 77.128906 C 87.660156 77.039063 88.558594 76.859375 89.460938 76.769531 C 90 79.917969 90.71875 83.878906 91.351563 88.109375 C 94.589844 87.480469 97.738281 86.757813 100.980469 86.128906 L 99.898438 88.828125 L 99.808594 89.097656 L 103.050781 85.679688 C 106.289063 85.140625 109.441406 84.507813 112.769531 83.878906 L 112.230469 85.589844 C 113.8125 84.308594 115.707031 83.46875 117.71875 83.160156 L 117.988281 83.160156 C 118.511719 81.117188 118.902344 79.042969 119.160156 76.949219 C 120.148438 77.128906 121.140625 77.398438 122.039063 77.578125 C 121.9375 79.246094 121.699219 80.902344 121.320313 82.527344 C 123.390625 82.257813 125.371094 81.988281 127.441406 81.628906 C 126.539063 84.957031 125.730469 88.378906 124.921875 91.707031 L 120.871094 95.9375 L 124.289063 94.859375 C 123.121094 99.089844 122.039063 103.320313 121.050781 107.640625 L 116.640625 112.230469 C 114.75 113.039063 111.691406 114.480469 108.808594 115.648438 C 108.113281 117.734375 107.570313 119.871094 107.191406 122.039063 C 117.179688 117.988281 122.308594 112.859375 127.890625 104.128906 C 127.171875 107.125 126.175781 110.046875 124.921875 112.859375 C 120.238281 118.347656 115.019531 122.039063 106.828125 125.097656 C 106.738281 131.308594 110.699219 131.039063 111.238281 130.859375 C 110.238281 131.769531 109.152344 132.582031 108 133.289063 C 105.570313 132.207031 104.308594 129.148438 104.21875 126 C 101.429688 126.988281 98.371094 127.800781 94.859375 128.699219 C 94.769531 129.867188 94.769531 136.617188 92.96875 140.488281 C 91.519531 140.894531 90.046875 141.226563 88.558594 141.480469 C 88.914063 141.171875 89.242188 140.839844 89.550781 140.488281 L 89.640625 140.398438 C 91.261719 138.777344 91.980469 134.820313 92.160156 129.328125 C 88.667969 130.078125 85.113281 130.5 81.539063 130.589844 C 81.449219 133.558594 80.460938 135.628906 78.839844 136.980469 C 78.210938 136.347656 77.671875 135.71875 77.039063 135.089844 C 78.121094 133.835938 78.726563 132.242188 78.75 130.589844 C 77.488281 130.5 76.050781 130.410156 74.609375 130.320313 C 71.011719 132.027344 66.871094 134.007813 63.269531 135.628906 C 71.878906 145.007813 81.789063 153.101563 92.699219 159.660156 C 123.210938 140.847656 139.949219 117.628906 149.128906 83.070313 C 130.589844 73.800781 114.03125 68.847656 92.878906 68.847656 Z M 94.949219 121.140625 C 95.039063 122.847656 95.039063 124.378906 95.039063 126 C 98.640625 125.097656 101.699219 124.199219 104.488281 123.207031 C 104.707031 121.074219 105.128906 118.964844 105.75 116.910156 C 104.875 117.230469 103.96875 117.472656 103.050781 117.628906 C 102.605469 117.71875 102.144531 117.71875 101.699219 117.628906 L 100.800781 118.527344 C 98.820313 119.429688 96.929688 120.328125 94.949219 121.140625 Z M 81.449219 127.257813 L 81.539063 127.890625 C 85.175781 127.894531 88.800781 127.472656 92.339844 126.628906 L 92.339844 122.308594 L 90.808594 123.027344 C 90.089844 121.679688 89.820313 121.140625 89.101563 119.789063 L 88.019531 122.578125 L 83.339844 126.359375 Z M 81.449219 127.257813 "/>
<path style=" stroke:none;fill-rule:nonzero;fill:rgb(100%,100%,100%);fill-opacity:1;" d="M 66.871094 95.9375 C 62.101563 97.289063 57.871094 99.269531 54.449219 103.050781 C 52.589844 105.304688 51.019531 107.785156 49.769531 110.429688 C 45.988281 118.257813 42.300781 126.089844 38.789063 133.917969 C 37.890625 135.988281 35.101563 140.9375 38.070313 142.289063 C 41.398438 143.097656 45.539063 140.308594 48.421875 138.867188 C 51.570313 137.25 54.808594 135.628906 57.960938 134.097656 C 63.359375 131.398438 68.21875 128.160156 71.550781 122.9375 C 72.757813 120.660156 73.839844 118.316406 74.789063 115.917969 C 76.859375 110.789063 78.929688 105.75 81.089844 100.707031 C 81.898438 98.730469 83.339844 96.390625 82.890625 94.320313 C 81.988281 91.527344 77.21875 93.238281 75.238281 93.777344 C 72.449219 94.5 69.660156 95.21875 66.871094 95.9375 Z M 60.839844 125.007813 C 58.320313 126.179688 55.890625 127.257813 53.371094 128.429688 C 56.96875 120.058594 60.75 111.6875 64.710938 103.320313 C 66.871094 102.6875 69.121094 101.878906 71.371094 101.25 C 67.679688 109.167969 64.171875 117.089844 60.839844 125.007813 Z M 103.949219 87.207031 C 100.441406 91.800781 97.019531 96.390625 93.601563 100.980469 C 95.21875 96.839844 96.839844 92.609375 98.460938 88.378906 C 94.859375 89.097656 91.171875 89.910156 87.660156 90.71875 C 86.671875 92.878906 85.769531 95.039063 84.871094 97.289063 C 85.609375 97.039063 86.359375 96.828125 87.121094 96.660156 C 84.328125 103.5 81.539063 110.339844 78.839844 117.269531 C 77.671875 120.058594 76.589844 122.9375 75.511719 125.730469 C 79.109375 124.019531 82.800781 122.308594 86.398438 120.6875 C 88.019531 116.097656 89.640625 111.597656 91.351563 107.007813 C 92.878906 110.160156 94.410156 113.21875 95.941406 116.277344 C 98.28125 115.289063 100.621094 114.207031 102.960938 113.21875 C 101.519531 109.980469 100.078125 106.738281 98.640625 103.5 C 101.25 99.539063 103.859375 95.578125 106.46875 91.707031 C 107.191406 91.527344 108 91.4375 108.71875 91.257813 C 109.351563 89.550781 109.890625 87.839844 110.429688 86.128906 C 108.269531 86.488281 106.109375 86.847656 103.949219 87.207031 Z M 117.988281 84.867188 C 116.042969 85.128906 114.222656 85.976563 112.769531 87.300781 C 111.679688 88.582031 110.878906 90.085938 110.429688 91.707031 C 108.898438 96.570313 107.371094 101.429688 105.75 106.289063 C 105.121094 108.179688 104.128906 111.6875 107.191406 111.507813 C 108.253906 111.285156 109.28125 110.921875 110.25 110.429688 C 113.398438 109.078125 116.550781 107.820313 119.699219 106.558594 C 120.421875 103.5 121.230469 100.4375 122.039063 97.378906 C 120.421875 97.828125 118.800781 98.367188 117.089844 98.910156 C 116.640625 100.347656 116.28125 101.699219 115.921875 103.140625 C 114.75 103.5 113.578125 103.949219 112.5 104.308594 C 113.941406 99.359375 115.289063 94.5 116.820313 89.550781 C 117.808594 89.277344 118.800781 89.097656 119.789063 88.828125 C 119.605469 89.710938 119.363281 90.585938 119.070313 91.4375 C 120.601563 91.078125 122.039063 90.71875 123.570313 90.359375 C 124.109375 88.199219 124.648438 85.949219 125.191406 83.699219 C 122.851563 84.058594 120.421875 84.507813 117.988281 84.867188 Z M 117.988281 84.867188 "/>
<path style=" stroke:none;fill-rule:nonzero;fill:rgb(0%,47.851563%,75.78125%);fill-opacity:1;" d="M 131.128906 80.277344 C 132.570313 80.820313 134.011719 81.269531 135.449219 81.808594 C 138.871094 83.160156 141.929688 84.417969 144.539063 85.679688 C 136.9375 112.226563 120.488281 135.375 97.921875 151.289063 L 96.121094 152.550781 C 92.414063 149.78125 88.867188 146.808594 85.5 143.640625 L 88.648438 143.1875 C 116.214844 138.515625 134.828125 112.460938 130.320313 84.867188 C 130.230469 84.507813 130.140625 84.148438 130.050781 83.789063 L 129.960938 83.429688 L 129.871094 83.339844 L 129.511719 82.078125 L 129.421875 81.898438 L 129.328125 81.539063 L 129.238281 81.449219 L 129.238281 81.269531 C 129.144531 80.746094 128.992188 80.230469 128.789063 79.738281 C 129.578125 79.878906 130.359375 80.058594 131.128906 80.277344 Z M 131.398438 80.640625 C 132.75 81.089844 134.191406 81.628906 135.539063 82.078125 C 134.191406 81.628906 132.75 81.089844 131.398438 80.640625 Z M 131.398438 80.640625 "/>
</g>
</svg>
