<?xml version="1.0" encoding="UTF-8"?>
<svg xmlns="http://www.w3.org/2000/svg" xmlns:xlink="http://www.w3.org/1999/xlink" width="206pt" height="151pt" viewBox="0 0 206 151" version="1.1">
<g id="surface1">
<path style=" stroke:none;fill-rule:nonzero;fill:rgb(76.171875%,80.076599%,82.421875%);fill-opacity:1;" d="M 83.070313 104.730469 C 94.050781 103.019531 105.121094 103.558594 114.75 107.609375 L 115.921875 105 C 100.351563 100.050781 80.640625 100.230469 66.148438 108.238281 L 70.289063 98.609375 C 51.839844 103.558594 39.601563 114 27.089844 124.617188 C 36.179688 103.199219 55.890625 85.648438 78.121094 79.167969 L 77.039063 82.769531 C 96.570313 76.378906 117.988281 75.117188 135.269531 78 L 131.21875 72.6875 L 141.210938 75.300781 L 147.601563 65.667969 L 150.121094 77.550781 L 159.929688 80.699219 C 159.929688 80.699219 152.820313 83.667969 153.089844 83.847656 C 190.171875 99.058594 178.289063 149.820313 143.101563 150 C 125.28125 150.179688 111.421875 134.070313 112.050781 117.238281 C 102.871094 111.300781 93.871094 108.417969 83.070313 104.730469 Z M 83.070313 104.730469 "/>
<path style=" stroke:none;fill-rule:nonzero;fill:rgb(76.171875%,80.076599%,82.421875%);fill-opacity:1;" d="M 76.050781 37.140625 L 76.050781 37.050781 C 76.179688 35.691406 76.824219 34.4375 77.851563 33.539063 C 78.867188 32.871094 80.050781 32.496094 81.269531 32.460938 C 81.269531 32.460938 82.351563 32.367188 83.339844 32.367188 L 86.578125 32.097656 L 86.578125 55.050781 L 83.789063 55.230469 C 82.078125 55.320313 81.089844 55.410156 79.199219 55.5 L 76.050781 55.769531 Z M 60.480469 36.507813 C 60.371094 32.777344 61.617188 29.132813 63.988281 26.25 C 66.585938 23.582031 70.085938 21.976563 73.800781 21.75 C 81.359375 21.117188 89.011719 20.667969 96.570313 20.488281 L 102.148438 20.398438 L 102.148438 84.75 L 102.058594 90.238281 L 96.480469 90.148438 C 95.488281 90.148438 88.019531 90.417969 86.671875 90.417969 L 86.488281 90.417969 L 80.550781 91.050781 L 80.550781 90.867188 L 76.769531 91.050781 C 76.230469 91.050781 67.230469 91.949219 66.871094 92.039063 L 60.480469 93.117188 Z M 60.480469 36.507813 "/>
<path style=" stroke:none;fill-rule:nonzero;fill:rgb(76.171875%,80.076599%,82.421875%);fill-opacity:1;" d="M 198.539063 105.179688 C 198.539063 105.179688 191.070313 102.839844 189.988281 102.570313 C 189.898438 102.570313 189.898438 102.570313 189.898438 102.480469 C 186.480469 101.488281 183.421875 100.679688 181.261719 100.050781 L 177.300781 99.058594 C 169.757813 97.773438 164.378906 91.039063 164.789063 83.398438 L 164.789063 41.550781 C 164.789063 37.5 166.050781 33.71875 169.019531 31.378906 C 170.949219 29.894531 173.335938 29.132813 175.769531 29.21875 C 177.101563 29.242188 178.425781 29.390625 179.730469 29.667969 C 180.269531 29.847656 181.710938 30.210938 184.050781 30.839844 C 186.300781 31.46875 189.179688 32.367188 192.058594 33.179688 C 197.820313 34.800781 203.488281 36.417969 203.488281 36.417969 L 205.648438 37.050781 L 205.648438 65.488281 L 187.46875 59.820313 L 187.199219 58.019531 C 187.199219 58.019531 186.660156 54.6875 186.121094 51.628906 L 186.121094 83.488281 L 186.210938 83.667969 C 186.210938 83.667969 186.121094 83.757813 186.75 83.9375 C 186.75 83.9375 187.921875 84.210938 188.640625 84.390625 C 189.179688 82.320313 189.71875 80.070313 189.71875 80.070313 L 190.441406 76.917969 L 205.648438 81.417969 L 205.738281 107.160156 Z M 198.539063 105.179688 "/>
<path style=" stroke:none;fill-rule:nonzero;fill:rgb(76.171875%,80.076599%,82.421875%);fill-opacity:1;" d="M 0.0898438 45.238281 C 0.152344 42.351563 1.347656 39.601563 3.421875 37.589844 C 4.988281 35.988281 6.894531 34.757813 9 33.988281 C 17.371094 31.289063 29.25 29.488281 29.789063 29.398438 L 32.941406 28.949219 C 34.3125 28.15625 35.800781 27.578125 37.351563 27.238281 C 41.398438 26.429688 53.910156 24.089844 54.449219 24 L 60.929688 22.738281 L 60.929688 88.167969 L 60.839844 93.027344 L 55.980469 93.570313 C 55.621094 93.570313 46.53125 95.1875 46.078125 95.277344 L 39.328125 96.808594 L 39.328125 86.1875 L 20.519531 90.6875 L 20.519531 101.398438 L 16.378906 102.390625 C 16.289063 102.390625 14.941406 102.839844 13.5 103.289063 C 11.96875 103.738281 10.261719 104.277344 9 104.640625 C 8.472656 104.761719 7.960938 104.945313 7.46875 105.179688 L 0 107.878906 L 0 45.238281 Z M 0.0898438 45.238281 "/>
<path style=" stroke:none;fill-rule:nonzero;fill:rgb(76.171875%,80.076599%,82.421875%);fill-opacity:1;" d="M 158.398438 95.097656 L 158.21875 95.097656 C 158.128906 95.097656 158.039063 95.007813 157.949219 95.007813 C 157.554688 94.953125 157.160156 94.863281 156.78125 94.738281 C 155.691406 94.625 154.609375 94.445313 153.539063 94.199219 C 151.289063 93.839844 148.859375 93.390625 148.679688 93.390625 L 146.429688 93.210938 L 143.820313 92.9375 L 143.820313 23.367188 L 149.761719 23.820313 C 150.390625 23.910156 151.648438 24.089844 153.539063 24.449219 C 155.339844 24.71875 157.5 25.078125 158.941406 25.347656 C 159.667969 25.414063 160.390625 25.535156 161.101563 25.710938 L 165.238281 26.789063 L 165.238281 96.539063 Z M 158.398438 95.097656 "/>
<path style=" stroke:none;fill-rule:nonzero;fill:rgb(76.171875%,80.076599%,82.421875%);fill-opacity:1;" d="M 137.25 91.949219 C 136.621094 91.859375 132.839844 91.5 128.96875 91.140625 C 125.191406 90.867188 121.140625 90.597656 118.441406 90.417969 L 115.648438 90.328125 C 111.601563 90.148438 108.089844 88.890625 105.570313 86.367188 C 103.050781 83.757813 101.878906 80.25 101.878906 76.199219 L 101.878906 32.640625 C 101.878906 29.21875 102.871094 25.980469 105.300781 23.730469 C 108.269531 20.9375 111.871094 20.667969 114.121094 20.667969 L 116.550781 20.667969 C 117.269531 20.667969 118.261719 20.757813 119.699219 20.847656 L 121.320313 20.847656 L 121.230469 20.9375 C 122.851563 21.027344 124.738281 21.210938 127.351563 21.390625 C 135.808594 22.019531 138.058594 22.289063 139.320313 22.558594 C 139.722656 22.625 140.117188 22.746094 140.488281 22.917969 L 143.640625 24.449219 L 143.640625 47.128906 L 125.640625 44.789063 L 125.191406 42.71875 C 125.191406 42.71875 124.738281 40.46875 124.289063 38.398438 L 123.480469 38.398438 L 123.570313 46.589844 L 123.570313 48.390625 L 124.828125 48.390625 C 125.613281 48.378906 126.398438 48.441406 127.171875 48.570313 C 128.25 48.660156 129.601563 48.75 130.949219 48.839844 C 133.738281 49.109375 136.800781 49.46875 138.328125 49.648438 C 138.691406 49.628906 139.054688 49.660156 139.410156 49.738281 L 143.730469 50.730469 L 143.640625 93.210938 Z M 137.25 91.949219 "/>
<path style=" stroke:none;fill-rule:nonzero;fill:rgb(0%,0%,0%);fill-opacity:1;" d="M 80.28125 51.269531 C 80.996094 51.164063 81.71875 51.105469 82.441406 51.089844 L 82.441406 36.507813 C 82.171875 36.554688 81.902344 36.585938 81.628906 36.597656 C 81 36.597656 80.640625 36.6875 80.550781 36.867188 C 80.371094 36.960938 80.371094 36.960938 80.28125 37.320313 Z M 62.28125 36.507813 C 62.191406 29.21875 66.691406 24.089844 74.070313 23.550781 C 81.539063 22.917969 89.191406 22.46875 96.75 22.289063 L 100.441406 22.199219 L 100.441406 88.4375 L 96.660156 88.347656 C 95.671875 88.347656 87.121094 88.617188 86.488281 88.800781 L 82.441406 89.160156 L 82.441406 64.769531 C 81.71875 64.785156 80.996094 64.84375 80.28125 64.949219 L 80.28125 85.738281 L 80.191406 89.25 L 76.769531 89.339844 C 76.050781 89.339844 67.320313 90.238281 66.691406 90.417969 L 62.371094 91.050781 Z M 62.28125 36.507813 "/>
<path style=" stroke:none;fill-rule:nonzero;fill:rgb(0%,0%,0%);fill-opacity:1;" d="M 199.171875 103.46875 C 199.171875 103.46875 192.601563 101.398438 190.800781 100.949219 C 190.621094 100.859375 190.53125 100.859375 190.441406 100.769531 C 186.75 99.6875 183.421875 98.789063 181.171875 98.25 L 177.660156 97.347656 C 170.550781 95.730469 166.5 90.597656 166.589844 83.398438 L 166.589844 41.640625 C 166.589844 37.769531 167.671875 34.800781 170.101563 32.820313 C 171.707031 31.613281 173.671875 30.980469 175.679688 31.019531 C 176.890625 31.042969 178.097656 31.191406 179.28125 31.46875 C 180.449219 31.738281 202.949219 38.21875 202.949219 38.21875 L 203.851563 38.398438 L 203.851563 63.058594 L 189 58.46875 L 188.910156 57.75 C 188.910156 57.75 187.738281 50.550781 187.289063 47.488281 C 186.390625 47.21875 185.671875 47.039063 185.21875 46.949219 L 184.320313 46.589844 L 184.320313 83.488281 C 184.3125 83.839844 184.40625 84.183594 184.589844 84.480469 C 184.929688 85.089844 185.523438 85.519531 186.210938 85.648438 C 186.210938 85.648438 188.191406 86.1875 189.988281 86.640625 C 190.53125 84.210938 191.339844 80.519531 191.339844 80.519531 L 191.699219 79.257813 L 203.851563 82.949219 L 203.851563 104.910156 Z M 199.171875 103.46875 "/>
<path style=" stroke:none;fill-rule:nonzero;fill:rgb(0%,0%,0%);fill-opacity:1;" d="M 1.890625 45.238281 C 2.070313 39.929688 6.570313 36.6875 9.539063 35.699219 C 17.730469 33.089844 29.519531 31.289063 30.148438 31.199219 L 33.660156 30.570313 C 34.953125 29.828125 36.347656 29.285156 37.800781 28.949219 C 41.851563 28.140625 54.269531 25.800781 54.898438 25.617188 L 59.21875 24.898438 L 59.21875 88.078125 L 59.128906 91.320313 L 55.890625 91.769531 C 55.171875 91.769531 46.441406 93.300781 45.808594 93.480469 L 41.21875 94.46875 L 41.21875 43.347656 L 41.128906 43.347656 C 39.871094 43.710938 39.601563 43.980469 39.328125 45.417969 L 39.328125 84.300781 L 21.511719 88.527344 L 21.511719 47.757813 C 21.433594 47.816406 21.335938 47.847656 21.238281 47.847656 C 20.582031 47.96875 19.964844 48.246094 19.441406 48.660156 C 19.035156 48.941406 18.824219 49.429688 18.898438 49.917969 L 18.898438 96.988281 L 18.808594 99.867188 L 16.019531 100.5 C 15.390625 100.679688 7.558594 103.109375 7.019531 103.289063 L 1.980469 105.179688 L 1.980469 45.238281 Z M 1.890625 45.238281 "/>
<path style=" stroke:none;fill-rule:nonzero;fill:rgb(0%,0%,0%);fill-opacity:1;" d="M 158.761719 93.300781 C 158.128906 93.117188 149.398438 91.679688 148.769531 91.589844 L 146.519531 91.410156 L 145.441406 91.320313 L 145.441406 25.347656 L 149.488281 25.710938 C 150.480469 25.800781 159.570313 27.328125 160.558594 27.597656 L 163.351563 28.320313 L 163.351563 94.289063 Z M 158.761719 93.300781 "/>
<path style=" stroke:none;fill-rule:nonzero;fill:rgb(0%,0%,0%);fill-opacity:1;" d="M 121.769531 74.039063 C 121.804688 74.3125 121.867188 74.585938 121.949219 74.847656 C 122.039063 74.9375 122.21875 75.117188 123.121094 75.210938 C 123.421875 75.214844 123.722656 75.246094 124.019531 75.300781 L 124.019531 62.878906 C 123.480469 62.820313 122.941406 62.789063 122.398438 62.789063 L 121.769531 62.699219 Z M 137.519531 90.148438 C 135.808594 89.789063 124.019531 88.890625 118.621094 88.617188 L 115.738281 88.4375 C 112.050781 88.347656 108.988281 87.179688 106.921875 85.019531 C 104.851563 82.949219 103.769531 79.800781 103.769531 76.199219 L 103.769531 32.640625 C 103.769531 29.488281 104.671875 26.878906 106.558594 24.988281 C 108.988281 22.738281 112.140625 22.46875 114.210938 22.46875 L 116.550781 22.46875 C 118.078125 22.46875 120.960938 22.738281 127.171875 23.1875 C 135.71875 23.820313 137.96875 24.089844 139.050781 24.269531 C 139.296875 24.34375 139.535156 24.433594 139.769531 24.539063 L 141.929688 25.617188 L 141.929688 45.148438 L 127.171875 43.167969 L 126.988281 42.359375 C 126.988281 42.359375 126.269531 38.847656 125.820313 36.6875 L 125.011719 36.6875 C 124.921875 36.6875 122.671875 36.507813 122.671875 36.507813 L 122.308594 36.507813 C 122.125 36.488281 121.9375 36.519531 121.769531 36.597656 L 121.769531 50.367188 L 124.828125 50.277344 L 124.921875 50.277344 C 125.640625 50.277344 128.878906 50.550781 132.121094 50.820313 C 135.449219 51.089844 138.421875 51.449219 139.140625 51.539063 L 142.019531 52.167969 L 141.929688 91.050781 Z M 137.519531 90.148438 "/>
<path style=" stroke:none;fill-rule:nonzero;fill:rgb(100%,100%,100%);fill-opacity:1;" d="M 84.421875 34.4375 L 84.421875 52.980469 C 82.890625 53.070313 79.921875 53.25 78.210938 53.339844 L 78.210938 37.140625 C 78.390625 36.058594 78.75 34.800781 81.449219 34.617188 C 81.449219 34.617188 83.070313 34.4375 84.421875 34.4375 Z M 96.75 24.898438 L 96.75 24.269531 C 89.191406 24.449219 81.71875 24.808594 74.25 25.4375 C 67.859375 26.070313 64.261719 29.9375 64.351563 36.417969 L 64.351563 88.617188 L 66.238281 88.257813 C 66.871094 88.167969 76.050781 87.269531 76.589844 87.179688 L 78.121094 87.179688 L 78.121094 62.878906 C 79.648438 62.789063 82.621094 62.519531 84.328125 62.429688 L 84.328125 86.820313 L 86.21875 86.640625 C 86.671875 86.550781 95.21875 86.1875 96.480469 86.1875 L 96.570313 86.1875 L 97.648438 86.277344 L 98.28125 86.277344 L 98.28125 24.269531 L 96.570313 24.269531 Z M 96.75 24.898438 "/>
<path style=" stroke:none;fill-rule:nonzero;fill:rgb(100%,100%,100%);fill-opacity:1;" d="M 201.871094 84.390625 L 193.230469 81.867188 L 193.140625 82.5 C 193.140625 82.5 192.058594 87.179688 191.609375 89.25 C 188.191406 88.257813 186.660156 87.808594 185.851563 87.628906 C 184.597656 87.363281 183.519531 86.578125 182.878906 85.46875 C 182.574219 84.851563 182.390625 84.179688 182.339844 83.488281 L 182.339844 46.320313 C 182.363281 45.847656 182.484375 45.386719 182.699219 44.96875 C 182.878906 44.699219 183.148438 44.609375 183.691406 44.609375 C 184.085938 44.632813 184.476563 44.691406 184.859375 44.789063 L 185.039063 44.789063 C 185.128906 44.789063 186.570313 45.238281 189.089844 45.960938 C 189.449219 48.117188 190.800781 56.488281 190.800781 56.488281 L 190.800781 56.9375 L 201.78125 60.269531 L 201.78125 40.019531 L 201.328125 39.839844 C 201.328125 39.839844 179.910156 33.71875 178.738281 33.539063 C 177.710938 33.261719 176.652344 33.113281 175.589844 33.089844 C 174.039063 33.039063 172.515625 33.515625 171.269531 34.4375 C 169.378906 35.878906 168.480469 38.398438 168.480469 41.640625 L 168.480469 83.398438 C 168.390625 89.699219 171.71875 93.839844 177.929688 95.367188 L 178.289063 95.367188 C 179.011719 95.550781 184.949219 97.167969 190.890625 98.789063 L 199.621094 101.488281 L 201.691406 102.117188 Z M 201.871094 84.390625 "/>
<path style=" stroke:none;fill-rule:nonzero;fill:rgb(100%,100%,100%);fill-opacity:1;" d="M 38.160156 31.019531 C 35.945313 31.476563 33.910156 32.574219 32.308594 34.167969 L 32.308594 32.820313 L 30.421875 33.089844 C 29.878906 33.179688 18.089844 35.070313 10.171875 37.589844 C 7.648438 38.488281 4.050781 41.277344 3.960938 45.238281 L 3.960938 102.390625 L 6.210938 101.488281 C 6.660156 101.308594 14.941406 98.789063 15.480469 98.609375 L 16.289063 98.429688 L 16.738281 98.339844 L 16.738281 49.917969 C 16.738281 47.488281 18.988281 46.410156 20.519531 45.867188 C 21.46875 45.640625 22.429688 45.460938 23.398438 45.328125 L 23.398438 86.007813 L 37.171875 82.769531 L 37.171875 45.238281 C 37.53125 42.988281 38.519531 41.910156 40.589844 41.367188 C 40.949219 41.277344 42.121094 41.097656 43.199219 40.917969 L 43.199219 92.039063 L 45.269531 91.5 C 45.71875 91.410156 54.988281 89.789063 55.621094 89.789063 L 56.519531 89.699219 L 57.148438 89.699219 L 57.148438 27.328125 L 55.171875 27.6875 C 55.171875 27.6875 42.210938 30.117188 38.160156 31.019531 Z M 38.160156 31.019531 "/>
<path style=" stroke:none;fill-rule:nonzero;fill:rgb(100%,100%,100%);fill-opacity:1;" d="M 149.308594 27.6875 L 148.140625 27.597656 L 147.511719 27.507813 L 147.511719 89.429688 L 148.050781 89.519531 L 149.039063 89.609375 C 149.488281 89.699219 158.761719 91.140625 159.300781 91.320313 L 161.371094 91.769531 L 161.371094 29.757813 L 160.109375 29.398438 C 159.300781 29.21875 150.121094 27.6875 149.308594 27.6875 Z M 149.308594 27.6875 "/>
<path style=" stroke:none;fill-rule:nonzero;fill:rgb(100%,100%,100%);fill-opacity:1;" d="M 124.921875 52.167969 L 124.828125 52.167969 L 123.839844 52.257813 L 123.300781 52.257813 L 123.300781 60.898438 L 123.839844 60.898438 C 123.839844 60.898438 125.101563 60.988281 126 61.078125 L 126 77.550781 C 124.648438 77.367188 122.941406 77.277344 122.941406 77.277344 C 121.824219 77.304688 120.777344 76.761719 120.148438 75.839844 C 119.863281 75.28125 119.707031 74.664063 119.699219 74.039063 L 119.699219 36.597656 C 119.667969 36.050781 119.828125 35.511719 120.148438 35.070313 C 120.71875 34.574219 121.472656 34.347656 122.21875 34.4375 L 122.941406 34.4375 C 123.210938 34.4375 124.738281 34.527344 127.441406 34.800781 C 127.800781 36.417969 128.789063 40.917969 128.789063 40.917969 L 128.878906 41.277344 L 139.949219 42.71875 L 139.949219 26.789063 L 138.960938 26.339844 C 138.511719 26.160156 138.058594 25.980469 126.988281 25.167969 C 120.421875 24.628906 117.628906 24.449219 116.371094 24.449219 L 114.121094 24.449219 C 112.320313 24.449219 109.800781 24.71875 108 26.429688 C 106.46875 27.867188 105.75 29.9375 105.75 32.640625 L 105.75 76.199219 C 105.75 82.5 109.351563 86.277344 115.738281 86.460938 L 116.101563 86.460938 C 117.71875 86.460938 135.449219 87.71875 137.878906 88.167969 L 139.859375 88.527344 L 139.949219 53.699219 L 138.601563 53.429688 C 137.699219 53.25 126.179688 52.167969 124.921875 52.167969 Z M 124.921875 52.167969 "/>
<path style=" stroke:none;fill-rule:nonzero;fill:rgb(4.315186%,46.655273%,74.021912%);fill-opacity:1;" d="M 200.160156 85.648438 L 194.398438 83.9375 L 192.691406 91.410156 C 189 90.238281 185.21875 89.25 185.21875 89.25 C 183.523438 88.84375 182.078125 87.730469 181.261719 86.1875 C 180.808594 85.359375 180.5625 84.433594 180.539063 83.488281 L 180.539063 46.320313 C 180.53125 45.484375 180.78125 44.664063 181.261719 43.980469 C 181.800781 43.257813 182.96875 42.449219 185.21875 43.167969 C 187.015625 43.589844 188.785156 44.101563 190.53125 44.699219 L 192.238281 55.589844 L 200.070313 58.019531 L 200.070313 41.277344 C 200.070313 41.277344 179.371094 35.339844 178.46875 35.070313 C 172.980469 33.71875 170.191406 35.96875 170.191406 41.640625 L 170.191406 83.398438 C 170.191406 89.070313 172.980469 92.398438 178.46875 93.75 C 178.46875 93.660156 185.398438 95.550781 191.339844 97.257813 L 200.160156 99.867188 Z M 30.691406 41.007813 L 30.691406 34.800781 C 30.691406 34.800781 18.628906 36.6875 10.710938 39.300781 C 8.640625 39.929688 5.671875 42.269531 5.671875 45.328125 L 5.671875 100.050781 C 6.300781 99.777344 14.488281 97.257813 15.121094 97.078125 L 15.121094 50.007813 C 15.121094 46.679688 17.820313 45.058594 20.160156 44.339844 C 21.421875 43.980469 25.199219 43.4375 25.199219 43.4375 L 25.199219 83.9375 L 35.640625 81.417969 L 35.640625 45.148438 C 36 42.269531 37.53125 40.378906 40.320313 39.75 C 43.019531 39.300781 45 39.027344 45 39.027344 L 45 89.878906 C 45.539063 89.699219 54.898438 88.167969 55.53125 88.078125 L 55.53125 29.308594 C 55.53125 29.308594 42.570313 31.738281 38.519531 32.550781 C 34.445313 33.539063 31.363281 36.871094 30.691406 41.007813 Z M 149.128906 87.988281 C 149.851563 87.988281 158.941406 89.519531 159.570313 89.699219 L 159.570313 31.109375 C 158.941406 30.929688 149.761719 29.398438 149.128906 29.398438 Z M 65.96875 36.507813 L 65.96875 86.640625 C 66.691406 86.550781 75.871094 85.648438 76.589844 85.648438 L 76.589844 61.347656 C 79.738281 61.078125 82.890625 60.898438 86.039063 60.71875 L 86.039063 85.019531 C 86.761719 84.929688 96.121094 84.570313 96.75 84.570313 L 96.75 25.890625 C 89.28125 26.070313 81.808594 26.519531 74.339844 27.148438 C 68.851563 27.6875 65.96875 30.929688 65.96875 36.507813 Z M 76.589844 37.140625 C 76.679688 35.96875 77.308594 33.269531 81.269531 33 C 82.890625 32.820313 84.421875 32.730469 86.039063 32.640625 L 86.039063 54.597656 C 82.890625 54.777344 79.648438 55.050781 76.5 55.230469 L 76.5 37.140625 Z M 124.921875 59.367188 C 125.550781 59.367188 127.710938 59.550781 127.710938 59.550781 L 127.710938 79.257813 C 126.089844 79.167969 124.46875 78.988281 122.851563 78.898438 C 120.511719 78.71875 119.339844 77.640625 118.800781 76.648438 C 118.359375 75.851563 118.140625 74.949219 118.171875 74.039063 L 118.171875 46.589844 C 118.171875 41.367188 118.078125 37.5 118.078125 37.140625 L 118.078125 36.597656 C 118.074219 35.652344 118.390625 34.730469 118.980469 33.988281 C 119.789063 33.089844 121.140625 32.640625 122.941406 32.820313 C 122.941406 32.730469 125.640625 33 128.878906 33.269531 L 130.320313 39.839844 L 138.328125 40.917969 L 138.328125 27.960938 C 137.699219 27.6875 116.011719 25.980469 116.011719 26.25 L 115.648438 26.25 C 113.851563 26.160156 111.058594 26.070313 109.261719 27.6875 C 108.089844 28.769531 107.550781 30.480469 107.550781 32.730469 L 107.550781 76.199219 C 107.550781 81.777344 110.339844 84.570313 116.011719 84.839844 C 116.011719 84.660156 135.539063 86.007813 138.328125 86.550781 C 138.328125 85.917969 138.421875 55.769531 138.421875 55.140625 C 137.699219 55.050781 125.730469 53.878906 125.101563 53.878906 L 125.101563 59.367188 Z M 124.921875 59.367188 "/>
<path style=" stroke:none;fill-rule:nonzero;fill:rgb(4.315186%,46.655273%,74.021912%);fill-opacity:1;" d="M 30.691406 41.007813 L 30.691406 34.800781 C 30.691406 34.800781 18.628906 36.6875 10.710938 39.300781 C 8.640625 39.929688 5.671875 42.269531 5.671875 45.328125 L 5.671875 100.050781 C 6.300781 99.777344 14.488281 97.257813 15.121094 97.078125 L 15.121094 50.007813 C 15.121094 46.769531 17.820313 45.058594 20.160156 44.339844 C 21.421875 43.980469 25.199219 43.4375 25.199219 43.4375 L 25.199219 83.9375 L 35.640625 81.417969 L 35.640625 45.148438 C 35.789063 42.492188 37.714844 40.273438 40.320313 39.75 C 43.019531 39.300781 45 39.027344 45 39.027344 L 45 89.878906 C 45.539063 89.699219 54.898438 88.167969 55.53125 88.078125 L 55.53125 29.308594 C 55.53125 29.308594 42.570313 31.738281 38.519531 32.550781 C 34.445313 33.539063 31.363281 36.871094 30.691406 41.007813 Z M 149.128906 87.988281 C 149.851563 87.988281 158.941406 89.519531 159.570313 89.699219 L 159.570313 31.019531 C 158.941406 30.839844 149.761719 29.398438 149.128906 29.308594 Z M 124.921875 59.367188 C 125.550781 59.367188 127.710938 59.550781 127.710938 59.550781 L 127.710938 79.257813 C 126.089844 79.167969 124.46875 78.988281 122.851563 78.898438 C 120.511719 78.71875 119.339844 77.640625 118.800781 76.648438 C 118.34375 75.855469 118.09375 74.957031 118.078125 74.039063 L 118.078125 46.589844 C 118.078125 41.367188 117.988281 37.5 117.988281 37.140625 L 117.988281 36.597656 C 117.984375 35.652344 118.300781 34.730469 118.890625 33.988281 C 119.699219 33.089844 121.050781 32.640625 122.851563 32.820313 C 122.851563 32.730469 125.550781 33 128.789063 33.269531 L 130.230469 39.839844 L 138.238281 40.917969 L 138.238281 27.960938 C 137.519531 27.6875 115.921875 25.980469 115.921875 26.25 L 115.46875 26.25 C 113.851563 26.160156 110.96875 26.070313 109.171875 27.6875 C 108 28.769531 107.460938 30.480469 107.460938 32.730469 L 107.460938 76.199219 C 107.460938 81.6875 110.25 84.570313 115.921875 84.839844 C 115.921875 84.660156 135.449219 86.007813 138.238281 86.550781 L 138.238281 55.140625 C 137.609375 55.050781 125.640625 53.878906 124.921875 53.878906 Z M 124.921875 59.367188 "/>
<path style=" stroke:none;fill-rule:nonzero;fill:rgb(0%,0%,0%);fill-opacity:1;" d="M 67.140625 17.519531 C 67.132813 17.636719 67.066406 17.738281 66.960938 17.789063 C 66.871094 17.96875 66.601563 18.058594 66.238281 18.148438 C 65.777344 18.167969 65.324219 18.257813 64.890625 18.417969 L 64.710938 18.417969 C 64.53125 18.417969 64.53125 18.328125 64.53125 18.328125 C 64.53125 18.277344 64.488281 18.238281 64.441406 18.238281 L 64.441406 7.980469 C 64.441406 7.980469 64.441406 7.890625 64.621094 7.710938 C 64.8125 7.511719 65.066406 7.386719 65.339844 7.347656 C 65.699219 7.347656 66.148438 7.167969 66.511719 7.167969 C 66.601563 7.167969 66.691406 7.078125 66.78125 7.078125 C 66.878906 7.074219 66.972656 7.105469 67.050781 7.167969 C 67.101563 7.167969 67.140625 7.207031 67.140625 7.257813 Z M 70.738281 4.917969 C 70.484375 4.550781 70.097656 4.296875 69.660156 4.199219 C 69.351563 4.054688 69.011719 3.992188 68.671875 4.019531 C 68.214844 4.035156 67.761719 4.09375 67.320313 4.199219 C 66.238281 4.378906 65.070313 4.648438 63.988281 4.738281 C 63.222656 4.867188 62.492188 5.140625 61.828125 5.550781 C 61.4375 5.808594 61.097656 6.144531 60.839844 6.539063 C 60.554688 7.066406 60.402344 7.652344 60.390625 8.25 L 60.390625 19.140625 C 60.359375 19.6875 60.515625 20.226563 60.839844 20.667969 C 61.097656 21.035156 61.484375 21.292969 61.921875 21.390625 L 62.730469 21.390625 C 63.269531 21.390625 63.71875 21.300781 64.171875 21.300781 C 65.339844 21.027344 66.421875 20.847656 67.589844 20.667969 C 68.332031 20.496094 69.054688 20.257813 69.75 19.949219 C 70.125 19.664063 70.457031 19.332031 70.738281 18.960938 C 71.054688 18.480469 71.210938 17.914063 71.191406 17.339844 L 71.191406 6.449219 C 71.25 5.898438 71.085938 5.347656 70.738281 4.917969 Z M 70.738281 4.917969 "/>
<path style=" stroke:none;fill-rule:nonzero;fill:rgb(0%,0%,0%);fill-opacity:1;" d="M 122.039063 2.757813 C 121.800781 2.371094 121.457031 2.058594 121.050781 1.859375 C 120.339844 1.539063 119.578125 1.355469 118.800781 1.320313 C 116.550781 1.140625 114.300781 1.050781 112.140625 1.050781 L 111.421875 1.050781 L 111.421875 17.519531 L 112.050781 17.519531 C 113.039063 17.609375 114.03125 17.609375 115.019531 17.699219 L 115.648438 17.699219 L 115.648438 3.839844 C 116.101563 3.839844 116.550781 3.929688 117 3.929688 C 118.621094 4.109375 118.351563 4.648438 118.441406 4.738281 L 118.441406 17.789063 L 118.980469 17.789063 C 119.96875 17.878906 120.871094 17.96875 121.859375 18.058594 L 122.488281 18.148438 L 122.488281 4.289063 C 122.566406 3.738281 122.402344 3.179688 122.039063 2.757813 Z M 122.039063 2.757813 "/>
<path style=" stroke:none;fill-rule:nonzero;fill:rgb(0%,0%,0%);fill-opacity:1;" d="M 131.578125 16.167969 C 131.371094 16.210938 131.160156 16.242188 130.949219 16.257813 C 130.792969 16.28125 130.636719 16.25 130.5 16.167969 C 129.984375 16.160156 129.472656 16.097656 128.96875 15.988281 L 128.96875 5.097656 C 129.421875 5.097656 129.871094 5.1875 130.320313 5.1875 C 130.699219 5.238281 131.066406 5.363281 131.398438 5.550781 C 131.671875 5.730469 131.761719 5.820313 131.761719 6.269531 L 131.761719 15.71875 C 131.671875 16.078125 131.671875 16.078125 131.578125 16.167969 Z M 135.449219 4.289063 C 135.160156 3.890625 134.792969 3.554688 134.371094 3.300781 C 133.707031 2.929688 132.96875 2.714844 132.210938 2.667969 C 131.308594 2.488281 126.71875 1.949219 125.550781 1.859375 L 124.828125 1.769531 L 124.828125 18.417969 L 125.371094 18.417969 C 127.621094 18.6875 129.871094 18.960938 132.03125 19.230469 C 132.355469 19.300781 132.6875 19.328125 133.019531 19.320313 C 133.417969 19.316406 133.8125 19.257813 134.191406 19.140625 C 134.636719 19.007813 135.042969 18.761719 135.359375 18.417969 C 135.710938 17.953125 135.898438 17.382813 135.898438 16.800781 L 135.898438 5.910156 C 135.890625 5.339844 135.734375 4.78125 135.449219 4.289063 Z M 135.449219 4.289063 "/>
<path style=" stroke:none;fill-rule:nonzero;fill:rgb(0%,0%,0%);fill-opacity:1;" d="M 80.191406 8.878906 C 80.191406 9.074219 80.128906 9.261719 80.011719 9.417969 C 79.640625 9.613281 79.246094 9.765625 78.839844 9.867188 C 78.414063 9.878906 77.992188 9.9375 77.578125 10.050781 L 77.578125 5.367188 C 78.066406 5.351563 78.546875 5.292969 79.019531 5.1875 L 79.648438 5.1875 C 80.011719 5.1875 80.191406 5.1875 80.191406 5.277344 C 80.28125 5.367188 80.191406 5.277344 80.28125 5.460938 L 80.28125 8.25 C 80.21875 8.453125 80.1875 8.664063 80.191406 8.878906 Z M 84.421875 17.789063 L 84.421875 12.300781 C 84.433594 11.683594 84.128906 11.101563 83.609375 10.769531 C 83.519531 10.769531 83.519531 10.679688 83.339844 10.679688 C 83.9375 10.3125 84.308594 9.667969 84.328125 8.96875 L 84.328125 4.738281 C 84.332031 4.15625 84.140625 3.585938 83.789063 3.117188 C 83.507813 2.78125 83.132813 2.53125 82.710938 2.398438 C 82.269531 2.28125 81.816406 2.222656 81.359375 2.21875 C 81.058594 2.207031 80.753906 2.238281 80.460938 2.308594 C 78.300781 2.578125 76.050781 2.847656 73.890625 3.117188 L 73.351563 3.210938 L 73.351563 19.769531 L 74.070313 19.679688 C 75.023438 19.507813 75.984375 19.390625 76.949219 19.320313 L 77.488281 19.230469 L 77.488281 12.75 C 77.972656 12.726563 78.457031 12.667969 78.929688 12.570313 L 79.46875 12.570313 C 79.695313 12.542969 79.921875 12.609375 80.101563 12.75 C 80.191406 12.75 80.191406 12.839844 80.191406 13.109375 L 80.191406 18.867188 L 81 18.777344 C 81.898438 18.6875 82.890625 18.597656 83.789063 18.507813 L 84.421875 18.417969 Z M 84.421875 17.789063 "/>
<path style=" stroke:none;fill-rule:nonzero;fill:rgb(0%,0%,0%);fill-opacity:1;" d="M 95.941406 14.097656 L 95.941406 11.9375 L 95.308594 11.9375 L 92.789063 12.117188 L 91.800781 15.089844 L 90.71875 15.089844 L 90.71875 1.320313 L 90 1.320313 C 89.101563 1.410156 88.019531 1.5 87.121094 1.589844 L 86.488281 1.589844 L 86.488281 18.238281 L 87.210938 18.148438 C 89.910156 17.96875 92.699219 17.789063 95.398438 17.699219 L 95.941406 17.699219 Z M 95.941406 14.097656 "/>
<path style=" stroke:none;fill-rule:nonzero;fill:rgb(0%,0%,0%);fill-opacity:1;" d="M 104.941406 8.519531 L 102.148438 8.519531 L 102.148438 4.199219 C 102.148438 4.109375 102.148438 4.019531 102.328125 3.839844 C 102.71875 3.644531 103.152344 3.550781 103.589844 3.570313 L 104.941406 3.570313 Z M 108.539063 0.867188 L 101.789063 0.867188 C 101.023438 0.835938 100.257813 0.957031 99.539063 1.230469 C 99.128906 1.425781 98.761719 1.699219 98.460938 2.039063 C 98.09375 2.535156 97.90625 3.136719 97.921875 3.75 L 97.921875 17.519531 L 98.640625 17.519531 C 99.539063 17.519531 100.53125 17.429688 101.519531 17.429688 L 102.148438 17.429688 L 102.148438 11.21875 L 104.941406 11.21875 L 104.941406 17.339844 L 105.570313 17.339844 C 106.46875 17.339844 107.550781 17.339844 108.449219 17.429688 L 109.171875 17.429688 L 109.171875 0.867188 Z M 108.539063 0.867188 "/>
<path style=" stroke:none;fill-rule:nonzero;fill:rgb(0%,0%,0%);fill-opacity:1;" d="M 144.539063 18.238281 L 144.539063 18.328125 C 144.464844 18.390625 144.367188 18.421875 144.269531 18.417969 C 144.171875 18.429688 144.070313 18.398438 144 18.328125 C 143.558594 18.21875 143.105469 18.160156 142.648438 18.148438 C 142.289063 18.058594 142.019531 17.878906 142.019531 17.699219 C 141.96875 17.652344 141.9375 17.589844 141.929688 17.519531 L 141.929688 7.167969 L 142.558594 7.167969 C 142.921875 7.257813 143.371094 7.347656 143.730469 7.4375 C 143.992188 7.457031 144.242188 7.550781 144.449219 7.710938 C 144.554688 7.796875 144.589844 7.941406 144.539063 8.070313 Z M 148.230469 6.628906 C 147.996094 6.214844 147.652344 5.871094 147.238281 5.640625 C 146.585938 5.203125 145.851563 4.898438 145.078125 4.738281 C 144 4.558594 142.828125 4.289063 141.75 4.109375 C 141.335938 4.039063 140.910156 4.007813 140.488281 4.019531 C 140.15625 4 139.824219 4.03125 139.5 4.109375 C 139.058594 4.207031 138.65625 4.425781 138.328125 4.738281 C 137.976563 5.238281 137.789063 5.835938 137.789063 6.449219 L 137.789063 17.339844 C 137.769531 17.914063 137.925781 18.480469 138.238281 18.960938 C 138.5 19.351563 138.835938 19.691406 139.230469 19.949219 C 139.914063 20.28125 140.640625 20.523438 141.390625 20.667969 C 142.558594 20.847656 143.640625 21.027344 144.71875 21.300781 C 145.195313 21.398438 145.675781 21.457031 146.160156 21.480469 C 146.433594 21.492188 146.707031 21.464844 146.96875 21.390625 C 147.421875 21.328125 147.839844 21.105469 148.140625 20.757813 C 148.476563 20.289063 148.636719 19.714844 148.589844 19.140625 L 148.589844 8.25 C 148.601563 7.6875 148.476563 7.132813 148.230469 6.628906 Z M 148.230469 6.628906 "/>
<path style=" stroke:none;fill-rule:nonzero;fill:rgb(100%,100%,100%);fill-opacity:1;" d="M 79.46875 96.71875 L 81.539063 95.730469 L 83.339844 97.257813 L 82.980469 95.007813 L 84.960938 93.839844 L 82.710938 93.390625 L 82.171875 91.140625 L 81.089844 93.210938 L 78.839844 92.9375 L 80.460938 94.648438 Z M 79.46875 96.71875 "/>
<path style=" stroke:none;fill-rule:nonzero;fill:rgb(0%,0%,0%);fill-opacity:1;" d="M 149.398438 83.847656 C 151.46875 82.949219 155.25 81.328125 155.25 81.328125 L 155.519531 81.238281 L 155.25 81.148438 C 155.25 81.148438 149.128906 79.078125 147.871094 78.71875 C 147.601563 77.277344 146.699219 70.617188 146.699219 70.617188 L 146.609375 70.347656 L 144.359375 73.949219 C 144.359375 73.949219 143.101563 76.019531 142.378906 77.097656 C 140.941406 76.648438 134.640625 75.117188 134.640625 75.117188 L 134.28125 74.9375 L 134.550781 75.300781 C 134.550781 75.300781 137.070313 78.539063 138.601563 80.609375 C 131.351563 79.074219 123.957031 78.351563 116.550781 78.449219 C 113.761719 78.449219 110.878906 78.539063 107.820313 78.71875 C 96.367188 79.382813 85.066406 81.65625 74.25 85.46875 L 75.511719 81.6875 L 75.238281 81.777344 C 58.320313 87.089844 39.78125 103.019531 31.589844 118.679688 L 31.769531 118.769531 C 43.289063 107.96875 59.039063 99.238281 73.078125 96.089844 L 69.390625 104.640625 L 69.660156 104.550781 C 76.140625 101.398438 84.78125 100.050781 93.421875 100.050781 C 102.328125 100.050781 111.238281 101.488281 118.171875 104.007813 L 115.558594 109.769531 C 109.261719 106.890625 100.171875 105 92.519531 105 C 91.171875 105 89.910156 105 88.648438 105.089844 L 88.648438 105.359375 C 97.648438 107.878906 106.828125 110.757813 114.210938 116.609375 C 114.136719 117.234375 114.105469 117.867188 114.121094 118.5 C 114.121094 133.890625 127.441406 147.929688 143.191406 147.929688 L 143.550781 147.929688 C 160.738281 147.75 173.609375 131.910156 173.609375 115.347656 C 173.519531 103.289063 166.589844 90.777344 149.398438 83.847656 Z M 149.398438 83.847656 "/>
<path style=" stroke:none;fill-rule:nonzero;fill:rgb(76.171875%,80.076599%,82.421875%);fill-opacity:1;" d="M 139.949219 112.199219 C 133.648438 112.199219 127.171875 109.859375 120.78125 107.519531 C 119.117188 111.003906 118.257813 114.816406 118.261719 118.679688 C 118.234375 120.742188 118.476563 122.800781 118.980469 124.800781 L 120.601563 124.800781 C 133.273438 124.765625 145.714844 121.414063 156.691406 115.078125 C 155.386719 112.832031 153.945313 110.667969 152.371094 108.597656 C 148.667969 110.980469 144.351563 112.230469 139.949219 112.199219 Z M 139.949219 112.199219 "/>
<path style=" stroke:none;fill-rule:nonzero;fill:rgb(76.171875%,80.076599%,82.421875%);fill-opacity:1;" d="M 120.148438 127.140625 L 119.699219 127.140625 C 123.570313 137.21875 132.480469 143.789063 143.28125 143.96875 C 146.789063 135.417969 150.570313 126.148438 159.390625 121.738281 C 158.941406 120.300781 158.398438 118.769531 157.769531 117.238281 C 146.324219 123.804688 133.34375 127.222656 120.148438 127.140625 Z M 120.148438 127.140625 "/>
<path style=" stroke:none;fill-rule:nonzero;fill:rgb(76.171875%,80.076599%,82.421875%);fill-opacity:1;" d="M 146.878906 95.820313 C 144.800781 94.917969 142.628906 94.253906 140.398438 93.839844 C 139.320313 94.019531 137.789063 94.109375 136.621094 94.289063 C 143.191406 96.898438 148.050781 100.050781 152.820313 105.539063 C 155.324219 103.65625 157.433594 101.304688 159.03125 98.609375 C 154.621094 94.289063 146.25 88.980469 125.28125 87.359375 C 134.101563 89.429688 142.199219 92.308594 146.96875 95.640625 Z M 146.878906 95.820313 "/>
<path style=" stroke:none;fill-rule:nonzero;fill:rgb(76.171875%,80.076599%,82.421875%);fill-opacity:1;" d="M 88.289063 92.847656 L 92.429688 92.847656 C 107.28125 92.847656 130.140625 94.558594 139.050781 105.089844 L 138.871094 105.269531 C 135.808594 103.648438 129.691406 100.769531 125.820313 100.769531 L 125.550781 100.769531 C 124.203125 102.210938 122.996094 103.777344 121.949219 105.449219 C 127.890625 107.699219 133.921875 109.859375 139.859375 109.859375 C 143.796875 109.917969 147.664063 108.855469 151.019531 106.800781 C 140.671875 95.550781 123.300781 90.597656 106.828125 90.597656 C 100.585938 90.636719 94.363281 91.394531 88.289063 92.847656 Z M 88.289063 92.847656 "/>
<path style=" stroke:none;fill-rule:nonzero;fill:rgb(76.171875%,80.076599%,82.421875%);fill-opacity:1;" d="M 158.488281 113.910156 C 161.339844 112.0625 163.917969 109.820313 166.140625 107.25 C 164.683594 104.539063 162.765625 102.101563 160.46875 100.050781 C 158.851563 102.855469 156.710938 105.328125 154.171875 107.339844 C 155.824219 109.378906 157.273438 111.582031 158.488281 113.910156 Z M 158.488281 113.910156 "/>
<path style=" stroke:none;fill-rule:nonzero;fill:rgb(76.171875%,80.076599%,82.421875%);fill-opacity:1;" d="M 145.800781 143.878906 C 150.957031 143.367188 155.847656 141.332031 159.839844 138.027344 C 160.453125 135.710938 160.757813 133.320313 160.738281 130.917969 C 160.753906 128.652344 160.542969 126.394531 160.109375 124.167969 C 152.191406 127.949219 148.949219 136.230469 145.800781 143.878906 Z M 145.800781 143.878906 "/>
<path style=" stroke:none;fill-rule:nonzero;fill:rgb(76.171875%,80.076599%,82.421875%);fill-opacity:1;" d="M 162.988281 132.449219 L 162.988281 134.789063 C 165.945313 130.992188 167.867188 126.496094 168.570313 121.738281 C 166.339844 121.964844 164.136719 122.414063 162 123.089844 C 162.683594 126.160156 163.015625 129.300781 162.988281 132.449219 Z M 162.988281 132.449219 "/>
<path style=" stroke:none;fill-rule:nonzero;fill:rgb(76.171875%,80.076599%,82.421875%);fill-opacity:1;" d="M 159.660156 116.070313 C 160.289063 117.597656 160.921875 119.21875 161.550781 120.839844 C 163.921875 120.121094 166.367188 119.667969 168.839844 119.488281 L 168.839844 118.949219 C 168.886719 115.8125 168.335938 112.699219 167.21875 109.769531 C 164.933594 112.132813 162.398438 114.246094 159.660156 116.070313 Z M 159.660156 116.070313 "/>
<path style=" stroke:none;fill-rule:nonzero;fill:rgb(76.171875%,80.076599%,82.421875%);fill-opacity:1;" d="M 168.839844 119.488281 C 166.339844 119.667969 163.863281 120.121094 161.460938 120.839844 C 160.921875 119.214844 160.292969 117.621094 159.570313 116.070313 C 162.332031 114.242188 164.898438 112.128906 167.21875 109.769531 C 168.246094 112.722656 168.792969 115.824219 168.839844 118.949219 Z M 168.839844 119.488281 "/>
<path style=" stroke:none;fill-rule:nonzero;fill:rgb(76.171875%,80.076599%,82.421875%);fill-opacity:1;" d="M 160.46875 99.960938 C 162.746094 102.0625 164.660156 104.527344 166.140625 107.25 C 163.890625 109.765625 161.316406 111.976563 158.488281 113.820313 C 157.21875 111.574219 155.804688 109.410156 154.261719 107.339844 C 156.773438 105.289063 158.882813 102.785156 160.46875 99.960938 Z M 160.46875 99.960938 "/>
<path style=" stroke:none;fill-rule:nonzero;fill:rgb(76.171875%,80.076599%,82.421875%);fill-opacity:1;" d="M 125.371094 87.269531 C 146.25 88.890625 154.621094 94.289063 159.121094 98.519531 C 157.519531 101.210938 155.410156 103.566406 152.910156 105.449219 C 148.503906 100.460938 142.941406 96.628906 136.710938 94.289063 C 137.925781 94.027344 139.160156 93.847656 140.398438 93.75 C 142.632813 94.261719 144.828125 94.921875 146.96875 95.730469 L 147.058594 95.550781 C 142.289063 92.21875 134.191406 89.339844 125.371094 87.269531 Z M 125.371094 87.269531 "/>
<path style=" stroke:none;fill-rule:nonzero;fill:rgb(76.171875%,80.076599%,82.421875%);fill-opacity:1;" d="M 120.601563 124.800781 L 118.980469 124.800781 C 118.472656 122.769531 118.234375 120.679688 118.261719 118.589844 C 118.257813 114.757813 119.117188 110.972656 120.78125 107.519531 C 127.171875 109.859375 133.558594 112.199219 139.949219 112.199219 C 144.34375 112.1875 148.648438 110.941406 152.371094 108.597656 C 154.023438 110.578125 155.472656 112.71875 156.691406 114.988281 C 145.722656 121.351563 133.28125 124.734375 120.601563 124.800781 Z M 120.601563 124.800781 "/>
<path style=" stroke:none;fill-rule:nonzero;fill:rgb(76.171875%,80.076599%,82.421875%);fill-opacity:1;" d="M 143.28125 143.96875 C 132.480469 143.789063 123.570313 137.21875 119.699219 127.140625 L 120.148438 127.140625 C 133.34375 127.210938 146.320313 123.796875 157.769531 117.238281 C 158.402344 118.703125 158.945313 120.207031 159.390625 121.738281 C 150.570313 126.148438 146.699219 135.417969 143.28125 143.96875 Z M 143.28125 143.96875 "/>
<path style=" stroke:none;fill-rule:nonzero;fill:rgb(76.171875%,80.076599%,82.421875%);fill-opacity:1;" d="M 162.988281 134.789063 L 162.988281 132.449219 C 163.015625 129.300781 162.683594 126.160156 162 123.089844 C 164.136719 122.40625 166.339844 121.953125 168.570313 121.738281 C 167.902344 126.507813 165.976563 131.011719 162.988281 134.789063 Z M 162.988281 134.789063 "/>
<path style=" stroke:none;fill-rule:nonzero;fill:rgb(76.171875%,80.076599%,82.421875%);fill-opacity:1;" d="M 151.019531 106.800781 C 147.699219 108.855469 143.855469 109.917969 139.949219 109.859375 C 133.921875 109.859375 127.890625 107.699219 122.039063 105.449219 C 123.054688 103.78125 124.230469 102.210938 125.550781 100.769531 L 125.910156 100.769531 C 129.691406 100.769531 135.898438 103.558594 138.960938 105.269531 L 139.140625 105.089844 C 130.230469 94.558594 107.371094 92.847656 92.519531 92.847656 L 88.289063 92.847656 C 94.390625 91.378906 100.644531 90.65625 106.921875 90.6875 C 123.300781 90.6875 140.761719 95.550781 151.019531 106.800781 Z M 151.019531 106.800781 "/>
<path style=" stroke:none;fill-rule:nonzero;fill:rgb(76.171875%,80.076599%,82.421875%);fill-opacity:1;" d="M 159.839844 138.027344 C 155.847656 141.332031 150.957031 143.367188 145.800781 143.878906 C 148.949219 136.230469 152.191406 127.949219 160.019531 124.167969 C 160.480469 126.390625 160.722656 128.652344 160.738281 130.917969 C 160.757813 133.320313 160.453125 135.710938 159.839844 138.027344 Z M 159.839844 138.027344 "/>
<path style=" stroke:none;fill-rule:nonzero;fill:rgb(76.171875%,80.076599%,82.421875%);fill-opacity:1;" d="M 139.140625 86.097656 L 143.730469 84.570313 L 147.148438 88.4375 L 146.789063 83.308594 L 151.199219 81.417969 L 146.339844 79.800781 L 145.621094 74.757813 L 143.101563 78.898438 L 138.238281 77.640625 L 141.480469 81.777344 Z M 139.140625 86.097656 "/>
<path style=" stroke:none;fill-rule:nonzero;fill:rgb(100%,100%,100%);fill-opacity:1;" d="M 115.019531 89.789063 L 118.171875 88.167969 L 120.78125 90.597656 L 120.238281 87.089844 L 123.300781 85.289063 L 119.789063 84.75 L 119.070313 81.238281 L 117.449219 84.390625 L 113.941406 84.027344 L 116.371094 86.550781 Z M 115.019531 89.789063 "/>
<path style=" stroke:none;fill-rule:nonzero;fill:rgb(100%,100%,100%);fill-opacity:1;" d="M 79.46875 96.71875 L 81.539063 95.730469 L 83.25 97.257813 L 82.980469 95.007813 L 84.960938 93.839844 L 82.621094 93.390625 L 82.171875 91.140625 L 81.089844 93.210938 L 78.839844 92.9375 L 80.371094 94.648438 Z M 79.46875 96.71875 "/>
<path style=" stroke:none;fill-rule:nonzero;fill:rgb(4.315186%,46.655273%,74.021912%);fill-opacity:1;" d="M 158.039063 128.128906 L 158.039063 127.769531 L 155.160156 132.628906 L 155.96875 128.308594 L 155.789063 128.21875 C 151.46875 133.4375 149.851563 137.128906 148.5 141.71875 L 148.5 141.988281 L 148.679688 141.898438 C 151.695313 140.90625 154.527344 139.417969 157.050781 137.488281 C 157.769531 135.960938 158.039063 132.808594 158.039063 128.9375 Z M 158.039063 128.128906 "/>
<path style=" stroke:none;fill-rule:nonzero;fill:rgb(4.315186%,46.655273%,74.021912%);fill-opacity:1;" d="M 148.320313 116.789063 C 143.308594 117.761719 138.214844 118.273438 133.109375 118.320313 C 132.390625 118.335938 131.667969 118.304688 130.949219 118.230469 L 141.660156 114.988281 L 141.660156 114.808594 C 134.550781 114.449219 129.058594 114.359375 122.128906 111.117188 L 122.039063 111.027344 L 121.949219 111.117188 C 120.867188 113.332031 120.3125 115.765625 120.328125 118.230469 C 120.3125 119.722656 120.523438 121.210938 120.960938 122.640625 L 121.769531 122.640625 C 124.828125 122.640625 137.609375 122.367188 148.320313 116.96875 Z M 148.320313 116.789063 "/>
<path style=" stroke:none;fill-rule:nonzero;fill:rgb(4.315186%,46.655273%,74.021912%);fill-opacity:1;" d="M 150.660156 125.519531 C 145.261719 129.570313 141.121094 132.808594 133.199219 134.25 C 140.578125 130.46875 145.53125 127.769531 150.210938 123 L 150.03125 122.820313 C 141.75 127.679688 130.949219 129.75 123.390625 130.019531 L 123.121094 130.019531 L 123.300781 130.199219 C 129.511719 140.097656 137.429688 141 140.039063 141 L 140.941406 141 L 140.941406 140.910156 C 144.359375 135.597656 146.519531 130.46875 150.839844 125.609375 Z M 150.660156 125.519531 "/>
<path style=" stroke:none;fill-rule:evenodd;fill:rgb(100%,100%,100%);fill-opacity:1;" d="M 145.078125 92.488281 C 144.726563 92.238281 144.332031 92.054688 143.910156 91.949219 C 150.300781 93.839844 154.621094 96.269531 157.050781 98.160156 C 156.679688 98.707031 156.257813 99.21875 155.789063 99.6875 C 152.730469 96.609375 149.089844 94.160156 145.078125 92.488281 Z M 164.789063 128.398438 L 164.789063 127.949219 C 165.175781 126.265625 165.386719 124.546875 165.421875 122.820313 C 165.878906 122.636719 166.367188 122.542969 166.859375 122.550781 C 166.359375 124.5625 165.667969 126.519531 164.789063 128.398438 Z M 167.488281 117.148438 C 166.703125 117.210938 165.921875 117.332031 165.148438 117.507813 C 164.976563 116.261719 164.703125 115.027344 164.339844 113.820313 C 165.230469 113.195313 166.046875 112.472656 166.769531 111.660156 C 167.285156 113.441406 167.527344 115.292969 167.488281 117.148438 Z M 164.699219 106.617188 C 163.890625 107.339844 163.261719 108.058594 162.539063 108.6875 C 161.816406 107.003906 160.914063 105.40625 159.839844 103.917969 C 160.378906 103.199219 160.921875 102.570313 161.371094 101.847656 C 162.679688 103.289063 163.796875 104.894531 164.699219 106.617188 Z M 164.699219 106.617188 "/>
</g>
</svg>
