<?xml version="1.0" encoding="UTF-8"?>
<svg xmlns="http://www.w3.org/2000/svg" xmlns:xlink="http://www.w3.org/1999/xlink" width="1875pt" height="1875pt" viewBox="0 0 1875 1875" version="1.1">
<g id="surface1">
<path style=" stroke:none;fill-rule:nonzero;fill:rgb(100%,100%,100%);fill-opacity:1;" d="M 1875 937.5 C 1875 1455.410156 1455.410156 1875 937.5 1875 C 419.589844 1875 0 1455.410156 0 937.5 C 0 419.589844 419.589844 0 937.5 0 C 1455.410156 0 1875 419.589844 1875 937.5 "/>
<path style=" stroke:none;fill-rule:nonzero;fill:rgb(0%,41.967773%,70.896912%);fill-opacity:1;" d="M 1840.699219 937.5 C 1840.699219 1435.976563 1436.550781 1840.703125 937.5 1840.703125 C 439.023438 1840.703125 34.296875 1435.976563 34.296875 937.5 C 34.296875 439.019531 439.023438 34.300781 937.5 34.300781 C 1435.980469 34.300781 1840.699219 439.019531 1840.699219 937.5 "/>
<path style=" stroke:none;fill-rule:nonzero;fill:rgb(100%,100%,100%);fill-opacity:1;" d="M 173.78125 1091.273438 L 192.644531 1150.152344 L 254.953125 1150.152344 L 204.078125 1187.308594 L 222.941406 1245.046875 L 173.78125 1209.605469 L 124.617188 1245.046875 L 142.910156 1187.308594 L 92.035156 1150.152344 L 154.917969 1150.152344 Z M 1701.789063 1091.273438 L 1720.078125 1150.152344 L 1782.96875 1150.152344 L 1732.089844 1187.308594 L 1750.378906 1245.046875 L 1701.789063 1209.605469 L 1652.058594 1245.046875 L 1670.921875 1187.308594 L 1620.050781 1150.152344 L 1682.359375 1150.152344 Z M 393.292969 1406.820313 L 411.585938 1465.703125 L 474.464844 1465.703125 L 423.589844 1502.859375 L 441.882813 1560.59375 L 393.292969 1525.152344 L 343.558594 1560.59375 L 362.421875 1502.859375 L 311.546875 1465.703125 L 373.855469 1465.703125 Z M 1502.859375 1406.820313 L 1521.148438 1465.703125 L 1584.03125 1465.703125 L 1533.160156 1502.859375 L 1551.449219 1560.59375 L 1502.859375 1525.152344 L 1453.128906 1560.59375 L 1471.988281 1502.859375 L 1421.109375 1465.703125 L 1483.421875 1465.703125 Z M 735.136719 1612.613281 L 754 1671.492188 L 816.3125 1671.492188 L 765.433594 1708.652344 L 784.296875 1766.386719 L 735.136719 1730.945313 L 685.976563 1766.386719 L 704.269531 1708.078125 L 653.390625 1671.492188 L 716.273438 1671.492188 Z M 1151.300781 1612.613281 L 1169.589844 1671.492188 L 1231.898438 1671.492188 L 1181.589844 1708.652344 L 1199.890625 1766.386719 L 1151.300781 1730.945313 L 1101.558594 1766.386719 L 1120.429688 1708.078125 L 1069.550781 1671.492188 L 1131.859375 1671.492188 Z M 1151.300781 1612.613281 "/>
<path style=" stroke:none;fill-rule:nonzero;fill:rgb(100%,100%,100%);fill-opacity:1;" d="M 1614.328125 942.074219 C 1614.328125 1315.929688 1311.359375 1618.902344 937.5 1618.902344 C 563.644531 1618.902344 260.671875 1315.929688 260.671875 942.074219 C 260.671875 568.210938 563.644531 265.238281 937.5 265.238281 C 1311.359375 264.671875 1614.328125 567.640625 1614.328125 942.074219 "/>
<path style=" stroke:none;fill-rule:nonzero;fill:rgb(0%,41.967773%,70.896912%);fill-opacity:1;" d="M 300.6875 1074.695313 C 336.128906 1245.046875 436.167969 1390.816406 581.363281 1485.707031 C 726.5625 1580.601563 900.34375 1613.757813 1070.691406 1578.316406 C 1240.46875 1542.875 1388.53125 1443.980469 1481.710938 1297.636719 C 1574.890625 1151.867188 1608.039063 978.085938 1574.308594 808.308594 C 1540.589844 637.960938 1439.410156 492.761719 1293.640625 397.289063 C 1147.871094 301.828125 974.085938 269.25 804.878906 304.691406 C 635.097656 340.128906 488.757813 440.171875 393.292969 585.371094 C 298.398438 731.140625 265.242188 904.917969 300.6875 1074.695313 "/>
<path style=" stroke:none;fill-rule:nonzero;fill:rgb(100%,100%,100%);fill-opacity:1;" d="M 1158.730469 435.019531 C 1161.019531 460.179688 1149.011719 485.328125 1123.859375 508.769531 C 1002.101563 419.019531 885.480469 375 771.722656 375 C 747.140625 375 723.132813 376.710938 700.265625 380.710938 C 736.28125 365.859375 774.007813 353.851563 812.882813 345.851563 C 914.632813 324.691406 1018.101563 329.839844 1114.710938 359.570313 C 1135.859375 378.429688 1156.441406 405.300781 1158.730469 435.019531 M 1031.820313 1485.707031 C 1159.871094 1367.949219 1219.320313 1115.855469 1254.769531 964.9375 L 1260.480469 941.5 C 1278.769531 864.898438 1311.359375 807.730469 1345.660156 772.871094 C 1474.28125 972.941406 1457.128906 1179.304688 1424.539063 1308.5 C 1335.371094 1426.828125 1208.460938 1508.003906 1062.121094 1538.300781 C 1020.390625 1546.875 978.660156 1551.449219 936.929688 1551.449219 C 967.796875 1536.585938 999.238281 1515.433594 1031.820313 1485.707031 M 1264.480469 629.378906 C 1316.5 585.941406 1358.230469 552.210938 1387.960938 531.058594 C 1451.980469 601.371094 1498.859375 685.398438 1525.148438 778.578125 C 1501.140625 746.570313 1470.269531 715.699219 1437.121094 708.839844 C 1408.539063 703.121094 1378.808594 711.128906 1351.371094 730.558594 C 1326.789063 696.839844 1298.210938 662.539063 1264.480469 629.378906 M 339.558594 914.0625 C 399.007813 755.140625 615.664063 689.980469 697.410156 665.96875 L 700.839844 664.820313 C 727.707031 656.820313 766.007813 650.539063 810.59375 642.53125 C 915.777344 624.808594 1045.539063 602.519531 1123.859375 544.210938 C 1155.871094 568.210938 1188.449219 596.230469 1221.609375 627.671875 C 1044.398438 778.578125 770.007813 1031.25 477.324219 1342.796875 C 409.296875 1265.054688 361.851563 1170.160156 340.128906 1066.121094 C 331.554688 1024.960938 326.980469 983.230469 326.980469 941.5 C 334.414063 926.066406 339.558594 914.632813 339.558594 914.0625 "/>
<path style=" stroke:none;fill-rule:nonzero;fill:rgb(100%,100%,100%);fill-opacity:1;" d="M 1243.898438 609.371094 C 1210.75 578.511719 1178.160156 550.5 1146.148438 525.339844 C 1175.878906 496.191406 1189.601563 465.320313 1186.738281 432.160156 C 1185.019531 412.160156 1177.019531 393.289063 1166.730469 376.710938 C 1202.738281 391.578125 1237.609375 409.871094 1271.339844 431.589844 C 1306.789063 455.03125 1339.371094 481.328125 1368.519531 509.910156 C 1337.648438 533.351563 1295.351563 566.5 1243.898438 609.371094 M 1100.988281 527.058594 C 1027.25 577.929688 905.488281 598.519531 806.59375 615.089844 C 760.859375 623.089844 721.988281 629.378906 693.40625 637.960938 L 689.976563 639.101563 C 611.660156 662.539063 414.445313 721.421875 333.269531 863.761719 C 344.703125 773.441406 376.714844 686.550781 428.164063 608.230469 C 471.609375 542.488281 528.773438 481.328125 591.652344 437.308594 C 735.136719 376.140625 896.914063 380.140625 1100.988281 527.058594 M 1431.398438 736.28125 C 1473.699219 744.859375 1520.011719 816.308594 1541.730469 858.039063 C 1560.589844 991.804688 1534.871094 1126.144531 1467.421875 1243.332031 C 1470.851563 1222.75 1473.128906 1201.027344 1474.851563 1178.164063 C 1483.421875 1063.832031 1467.988281 908.347656 1367.378906 754.570313 C 1389.671875 738.570313 1411.960938 732.28125 1431.398438 736.28125 M 1243.328125 647.679688 C 1277.058594 680.828125 1305.640625 714.558594 1329.648438 748.859375 C 1287.921875 788.871094 1252.480469 854.039063 1233.609375 934.640625 L 1227.890625 958.078125 C 1193.03125 1105.5625 1134.71875 1353.085938 1012.960938 1464.558594 C 962.652344 1510.859375 913.492188 1534.871094 869.472656 1547.445313 C 775.722656 1537.15625 685.402344 1504.574219 604.230469 1451.410156 C 564.785156 1425.6875 529.34375 1395.960938 497.902344 1363.375 C 792.875 1049.542969 1067.839844 796.308594 1243.328125 647.679688 "/>
<path style=" stroke:none;fill-rule:nonzero;fill:rgb(100%,100%,100%);fill-opacity:1;" d="M 1105.558594 1122.714844 L 1122.140625 1118.140625 C 1131.859375 1115.28125 1138.71875 1111.851563 1138.71875 1097.5625 C 1138.71875 1085.554688 1135.289063 1063.832031 1121 1063.832031 C 1105.558594 1063.832031 1105.558594 1089.558594 1105.558594 1103.847656 Z M 907.203125 1113.566406 C 907.203125 1061.546875 905.488281 1016.386719 870.046875 1016.386719 C 841.464844 1016.386719 836.320313 1061.546875 836.320313 1113.566406 C 836.320313 1165.585938 834.605469 1210.746094 870.046875 1210.746094 C 900.34375 1210.746094 907.203125 1165.585938 907.203125 1113.566406 "/>
<path style=" stroke:none;fill-rule:nonzero;fill:rgb(100%,100%,100%);fill-opacity:1;" d="M 1105.558594 1122.714844 L 1122.140625 1118.140625 C 1131.859375 1115.28125 1138.71875 1111.851563 1138.71875 1097.5625 C 1138.71875 1085.554688 1135.289063 1063.832031 1121 1063.832031 C 1105.558594 1063.832031 1105.558594 1089.558594 1105.558594 1103.847656 Z M 832.316406 994.09375 L 831.746094 994.09375 L 832.890625 994.09375 C 850.039063 967.796875 882.050781 955.222656 913.492188 955.222656 C 984.945313 955.222656 1028.960938 1016.957031 1028.960938 1099.847656 C 1028.960938 1198.171875 962.082031 1256.480469 879.765625 1256.480469 C 752.859375 1256.480469 707.125 1154.152344 707.125 1035.824219 C 707.125 899.199219 766.578125 786.589844 914.0625 786.589844 C 971.796875 786.589844 1018.671875 823.738281 1018.671875 880.335938 C 1018.671875 916.921875 990.089844 935.214844 963.222656 935.214844 C 923.207031 935.214844 910.632813 902.058594 904.917969 872.898438 C 902.628906 860.328125 907.203125 832.890625 886.625 832.890625 C 843.75 832.890625 836.890625 916.921875 835.175781 947.789063 Z M 832.316406 994.09375 "/>
<path style=" stroke:none;fill-rule:nonzero;fill:rgb(100%,100%,100%);fill-opacity:1;" d="M 907.203125 1113.566406 C 907.203125 1061.546875 905.488281 1016.386719 870.046875 1016.386719 C 841.464844 1016.386719 836.320313 1061.546875 836.320313 1113.566406 C 836.320313 1165.585938 834.605469 1210.746094 870.046875 1210.746094 C 900.34375 1210.746094 907.203125 1165.585938 907.203125 1113.566406 "/>
<path style=" stroke:none;fill-rule:nonzero;fill:rgb(100%,100%,100%);fill-opacity:1;" d="M 139.480469 792.300781 C 163.492188 795.160156 173.207031 812.308594 169.777344 843.75 L 166.921875 866.621094 L 180.070313 868.328125 C 196.644531 870.050781 202.933594 870.050781 204.648438 856.328125 L 220.082031 858.039063 L 212.652344 919.777344 L 197.21875 918.0625 C 198.359375 904.34375 192.644531 902.628906 176.066406 900.914063 L 128.046875 895.199219 C 111.472656 893.484375 105.183594 893.484375 103.46875 907.203125 L 88.035156 905.488281 L 96.035156 837.460938 C 100.039063 804.308594 114.902344 789.441406 139.480469 792.300781 Z M 152.628906 858.039063 C 154.917969 837.460938 149.199219 826.601563 134.335938 824.890625 C 121.761719 823.171875 112.613281 831.171875 110.328125 846.609375 C 109.183594 857.46875 112.613281 859.761719 124.617188 860.898438 L 151.484375 864.328125 C 152.058594 862.039063 152.058594 860.328125 152.628906 858.039063 Z M 230.375 724.28125 C 235.519531 711.699219 229.800781 708.269531 214.367188 701.980469 L 169.777344 683.121094 C 154.34375 676.828125 148.054688 675.109375 142.910156 687.691406 L 128.621094 681.96875 L 152.628906 624.808594 L 166.347656 630.53125 C 161.203125 643.101563 166.921875 646.53125 182.355469 652.820313 L 193.789063 657.390625 L 211.507813 614.519531 L 200.078125 609.941406 C 184.640625 603.660156 178.355469 601.941406 173.207031 614.519531 L 159.488281 608.808594 L 183.5 551.640625 L 197.789063 557.359375 C 192.644531 569.929688 198.359375 573.359375 213.796875 579.648438 L 258.382813 598.519531 C 273.820313 604.800781 280.105469 606.519531 285.25 593.941406 L 299.542969 599.660156 L 275.535156 656.820313 L 261.8125 651.109375 C 266.957031 638.53125 261.242188 635.101563 245.808594 628.808594 L 226.371094 620.808594 L 208.652344 663.679688 L 228.085938 671.679688 C 243.519531 677.96875 249.808594 679.691406 254.953125 667.109375 L 268.671875 672.828125 L 244.664063 729.988281 Z M 290.394531 419.589844 C 282.394531 430.449219 286.964844 435.019531 300.113281 445.308594 L 338.984375 474.460938 C 352.132813 484.761719 357.851563 487.039063 366.425781 476.75 L 379 485.898438 L 341.84375 535.628906 L 328.695313 525.910156 C 336.699219 515.058594 332.125 510.480469 318.980469 500.191406 L 280.105469 471.609375 C 266.957031 461.320313 261.242188 458.460938 252.667969 469.320313 L 240.089844 460.179688 L 277.25 410.441406 Z M 429.878906 427.019531 L 420.160156 415.019531 C 430.449219 405.871094 427.019531 400.71875 416.160156 388.148438 L 385.289063 350.988281 C 374.429688 338.410156 369.855469 333.839844 358.992188 342.421875 L 349.277344 330.410156 L 396.722656 290.390625 L 406.441406 302.398438 C 396.152344 311.550781 399.582031 316.691406 409.871094 329.839844 L 444.742188 371 C 452.742188 380.710938 456.171875 381.859375 466.464844 373.859375 C 479.609375 363 485.328125 342.988281 480.183594 318.410156 L 493.902344 315.550781 L 507.621094 361.28125 Z M 577.363281 313.261719 L 571.074219 298.96875 C 582.507813 291.539063 581.9375 284.109375 581.9375 270.390625 L 578.507813 174.351563 L 604.230469 162.351563 L 675.6875 232.089844 C 683.6875 240.089844 688.261719 244.089844 699.125 240.089844 L 705.410156 254.378906 L 648.820313 280.109375 L 642.53125 266.390625 C 643.101563 266.390625 643.101563 265.820313 643.671875 265.820313 C 651.675781 262.390625 654.535156 258.960938 652.25 253.808594 C 651.675781 252.101563 650.535156 250.378906 648.820313 249.238281 L 635.671875 236.089844 L 599.085938 252.671875 L 601.371094 270.390625 C 601.371094 271.53125 601.945313 273.25 602.515625 274.390625 C 604.800781 279.539063 610.519531 280.109375 619.09375 276.679688 L 625.382813 290.390625 Z M 623.667969 225.800781 L 596.796875 197.21875 L 599.085938 237.230469 Z M 768.863281 220.660156 C 782.011719 218.371094 782.582031 212.078125 780.296875 195.5 L 773.4375 147.480469 C 771.152344 130.910156 768.863281 125.191406 755.714844 126.328125 L 753.429688 110.898438 L 816.3125 101.75 C 864.328125 94.890625 893.484375 113.761719 898.628906 153.769531 C 904.34375 193.789063 882.050781 219.511719 834.03125 226.371094 L 771.152344 235.519531 Z M 814.023438 198.359375 C 815.738281 210.941406 818.027344 213.800781 830.601563 212.078125 C 855.753906 208.648438 868.902344 189.210938 864.328125 158.921875 C 860.328125 128.621094 842.035156 113.761719 816.882813 117.761719 C 803.734375 119.46875 802.589844 123.480469 804.304688 135.480469 Z M 987.234375 202.359375 C 1000.949219 204.078125 1002.671875 197.789063 1004.949219 181.210938 L 1011.808594 133.191406 C 1014.101563 116.621094 1014.101563 110.328125 1000.378906 108.039063 L 1002.671875 92.609375 L 1106.140625 107.46875 L 1117.570313 147.480469 L 1104.988281 152.058594 C 1094.699219 131.480469 1080.410156 119.46875 1061.550781 116.621094 C 1048.96875 114.898438 1047.261719 118.328125 1045.539063 130.339844 L 1042.679688 148.058594 L 1048.398438 149.199219 C 1061.550781 150.910156 1065.550781 147.480469 1068.410156 132.621094 L 1081.558594 134.339844 L 1073.550781 190.359375 L 1060.398438 188.640625 C 1060.980469 173.78125 1056.398438 166.921875 1046.109375 165.210938 L 1040.390625 164.058594 L 1036.390625 193.210938 C 1034.679688 205.21875 1035.820313 209.21875 1048.398438 210.941406 C 1066.691406 213.800781 1088.410156 204.648438 1104.988281 184.640625 L 1115.859375 192.640625 L 1090.699219 232.660156 L 984.945313 217.230469 Z M 1182.160156 257.238281 L 1188.449219 242.949219 C 1201.03125 248.089844 1204.460938 242.949219 1211.320313 227.519531 L 1230.75 183.5 C 1237.609375 168.058594 1239.328125 162.351563 1226.75 156.628906 L 1233.039063 142.339844 L 1289.628906 166.921875 L 1283.351563 181.210938 C 1270.769531 176.070313 1267.339844 181.210938 1260.480469 196.640625 L 1238.761719 245.808594 C 1233.609375 257.238281 1234.179688 261.238281 1245.621094 266.390625 C 1261.050781 273.25 1281.628906 269.25 1301.070313 254.378906 L 1309.640625 265.238281 L 1274.769531 297.828125 Z M 1500.570313 349.28125 C 1485.140625 368.140625 1465.699219 367.570313 1441.121094 347.558594 L 1423.398438 333.269531 L 1415.390625 343.558594 C 1405.109375 356.710938 1401.679688 361.851563 1411.960938 371 L 1402.25 383 L 1353.660156 344.128906 L 1363.378906 332.121094 C 1374.238281 340.128906 1378.808594 336.128906 1389.671875 323.550781 L 1419.96875 285.820313 C 1430.261719 272.679688 1433.691406 267.53125 1423.398438 258.378906 L 1433.121094 246.378906 L 1486.28125 289.25 C 1511.429688 309.261719 1516.011719 329.839844 1500.570313 349.28125 Z M 1437.691406 324.691406 C 1453.691406 337.839844 1466.269531 338.410156 1475.421875 326.980469 C 1483.421875 317.269531 1481.710938 305.261719 1469.699219 295.539063 C 1461.128906 288.679688 1457.128906 290.96875 1449.691406 300.109375 L 1432.550781 321.269531 C 1434.828125 322.410156 1436.550781 323.550781 1437.691406 324.691406 Z M 1510.289063 461.890625 C 1518.289063 472.75 1524.011719 470.460938 1537.730469 460.75 L 1577.171875 432.730469 C 1590.890625 423.019531 1595.460938 418.441406 1588.039063 407.578125 L 1600.609375 399.011719 L 1636.050781 449.890625 L 1623.480469 458.460938 C 1615.46875 447.601563 1609.761719 449.890625 1596.039063 459.609375 L 1585.75 466.460938 L 1612.609375 504.769531 L 1622.898438 497.898438 C 1636.628906 488.191406 1641.191406 483.609375 1633.769531 472.75 L 1646.339844 464.179688 L 1681.789063 515.058594 L 1669.210938 523.628906 C 1661.199219 512.769531 1655.488281 515.058594 1641.769531 524.769531 L 1602.320313 552.78125 C 1588.609375 562.5 1584.03125 567.070313 1591.460938 577.929688 L 1578.890625 586.511719 L 1543.441406 535.628906 L 1556.019531 527.058594 C 1564.019531 537.921875 1569.738281 535.628906 1583.460938 525.910156 L 1600.609375 513.910156 L 1573.738281 475.609375 L 1556.589844 487.609375 C 1542.878906 497.328125 1538.300781 501.910156 1545.730469 512.769531 L 1533.160156 521.339844 L 1497.710938 470.460938 Z M 1735.519531 675.109375 C 1730.378906 662.539063 1724.089844 663.679688 1708.648438 669.96875 L 1663.488281 687.121094 C 1648.058594 693.410156 1642.339844 696.269531 1646.910156 709.410156 L 1632.621094 715.128906 L 1610.328125 657.390625 L 1624.621094 651.679688 C 1629.769531 664.25 1636.050781 663.109375 1651.480469 656.820313 L 1696.640625 639.671875 C 1712.078125 633.378906 1717.800781 630.53125 1713.21875 617.949219 L 1727.519531 612.230469 L 1749.808594 669.96875 Z M 1654.921875 782.578125 L 1670.351563 780.300781 C 1673.78125 793.441406 1681.789063 795.160156 1694.359375 799.160156 L 1786.96875 824.308594 L 1790.390625 852.320313 L 1702.359375 900.34375 C 1692.640625 905.488281 1687.5 908.917969 1687.5 920.351563 L 1672.070313 922.636719 L 1664.058594 860.898438 L 1678.929688 859.179688 L 1678.929688 860.328125 C 1680.070313 868.898438 1682.359375 872.898438 1687.5 871.761719 C 1689.21875 871.761719 1690.929688 871.191406 1692.640625 870.050781 L 1709.21875 861.46875 L 1704.078125 821.460938 L 1686.359375 818.601563 C 1685.21875 818.601563 1683.5 818.03125 1682.359375 818.601563 C 1676.640625 819.171875 1674.351563 824.308594 1675.5 834.03125 L 1660.628906 835.75 Z M 1725.230469 852.890625 L 1760.671875 835.75 L 1721.800781 826.03125 Z M 1725.230469 852.890625 "/>
<path style=" stroke:none;fill-rule:nonzero;fill:rgb(100%,100%,100%);fill-opacity:1;" d="M 1317.640625 1020.960938 C 1303.359375 1020.960938 1293.058594 1027.25 1285.058594 1035.824219 C 1284.488281 1034.109375 1283.351563 1031.820313 1282.199219 1030.105469 L 1275.339844 1016.957031 L 1178.160156 1045.542969 L 1178.160156 1098.703125 L 1198.738281 1098.703125 C 1199.308594 1100.417969 1201.03125 1104.992188 1201.03125 1121.570313 L 1201.03125 1183.308594 L 1183.308594 1185.59375 L 1183.308594 1243.902344 L 1318.210938 1243.902344 L 1318.210938 1185.59375 L 1300.5 1183.308594 L 1300.5 1165.015625 C 1300.5 1154.726563 1302.78125 1134.71875 1305.640625 1123.285156 C 1310.789063 1125 1316.5 1126.144531 1323.359375 1126.144531 C 1347.371094 1126.144531 1364.519531 1104.421875 1364.519531 1073.550781 C 1365.089844 1042.109375 1346.230469 1020.960938 1317.640625 1020.960938 Z M 1317.640625 1020.960938 "/>
<path style=" stroke:none;fill-rule:nonzero;fill:rgb(100%,100%,100%);fill-opacity:1;" d="M 1486.851563 1083.269531 C 1485.710938 1078.695313 1485.140625 1076.980469 1485.140625 1074.695313 C 1485.140625 1058.6875 1478.851563 1021.53125 1419.96875 1021.53125 C 1387.390625 1021.53125 1323.359375 1046.683594 1323.359375 1104.992188 C 1323.359375 1126.714844 1329.648438 1142.148438 1338.800781 1154.152344 C 1326.21875 1161.585938 1318.210938 1176.449219 1318.210938 1194.167969 C 1318.210938 1215.320313 1328.511719 1250.191406 1399.390625 1250.191406 C 1459.980469 1250.191406 1494.289063 1218.75 1494.289063 1164.445313 C 1494.289063 1111.851563 1489.710938 1094.703125 1486.851563 1083.269531 Z M 774.582031 770.011719 C 771.152344 766.011719 765.433594 763.148438 759.71875 763.148438 C 750.570313 763.148438 743.710938 768.859375 735.136719 778.011719 C 706.554688 808.308594 667.683594 824.308594 622.523438 824.308594 C 563.644531 824.308594 501.90625 797.441406 452.742188 750 C 448.742188 746 443.597656 744.289063 438.453125 744.289063 C 414.445313 744.289063 408.15625 782.578125 408.15625 783.160156 L 408.15625 976.371094 L 423.589844 978.660156 C 481.898438 987.234375 532.203125 985.519531 577.933594 972.941406 C 528.773438 1017.53125 417.300781 1137.578125 419.015625 1252.476563 C 419.015625 1273.628906 432.164063 1275.914063 437.882813 1275.914063 C 444.742188 1275.914063 449.3125 1271.914063 452.742188 1269.625 C 453.316406 1269.054688 454.457031 1267.910156 455.601563 1267.339844 C 471.609375 1255.335938 497.332031 1249.046875 526.484375 1249.046875 C 550.496094 1249.046875 574.503906 1253.621094 592.226563 1262.195313 C 595.65625 1263.910156 599.65625 1265.625 604.230469 1265.625 C 609.945313 1265.625 615.089844 1263.339844 618.519531 1259.335938 C 624.808594 1252.476563 624.238281 1243.902344 623.667969 1238.1875 C 615.664063 1154.726563 633.957031 1063.832031 669.398438 1011.242188 L 674.542969 1003.238281 C 704.839844 958.652344 767.722656 865.46875 779.152344 788.871094 C 780.296875 781.441406 779.152344 774.578125 774.582031 770.011719 Z M 1222.75 1138.71875 L 1221.609375 1123.855469 C 1221.039063 1114.140625 1219.320313 1104.992188 1217.609375 1096.417969 L 1217.039063 1079.839844 L 1214.179688 1084.414063 C 1199.890625 1044.96875 1166.730469 1020.390625 1125 1020.390625 C 1062.691406 1020.390625 1018.671875 1069.550781 1018.671875 1140.433594 C 1018.671875 1194.742188 1050.691406 1249.617188 1121.570313 1249.617188 C 1162.160156 1249.617188 1199.308594 1229.039063 1218.75 1196.457031 L 1221.609375 1191.882813 L 1219.320313 1139.292969 Z M 1147.289063 1172.445313 C 1140.429688 1172.445313 1135.859375 1167.875 1133 1162.730469 L 1167.878906 1153.582031 C 1157.578125 1165.585938 1150.148438 1171.875 1147.289063 1172.445313 Z M 1147.289063 1172.445313 "/>
<path style=" stroke:none;fill-rule:nonzero;fill:rgb(100%,100%,100%);fill-opacity:1;" d="M 990.664063 967.796875 C 987.234375 962.652344 983.230469 956.9375 979.800781 952.363281 C 1010.671875 946.074219 1037.539063 922.066406 1037.539063 881.480469 C 1037.539063 818.03125 984.945313 769.441406 914.632813 769.441406 C 774.007813 769.441406 689.976563 869.46875 689.976563 1036.394531 C 689.976563 1187.882813 759.71875 1274.769531 880.90625 1274.769531 C 979.230469 1274.769531 1047.828125 1202.742188 1047.828125 1099.847656 C 1047.261719 1048.972656 1012.960938 1000.382813 990.664063 967.796875 Z M 990.664063 967.796875 "/>
<path style=" stroke:none;fill-rule:nonzero;fill:rgb(0%,41.967773%,70.896912%);fill-opacity:1;" d="M 1147.289063 1190.738281 C 1125.570313 1190.738281 1112.421875 1170.730469 1110.140625 1150.722656 L 1203.890625 1125.570313 C 1201.03125 1079.839844 1174.730469 1039.253906 1125 1039.253906 C 1071.839844 1039.253906 1036.960938 1080.410156 1036.960938 1141.578125 C 1036.960938 1189.023438 1064.410156 1232.46875 1121.570313 1232.46875 C 1154.148438 1232.46875 1186.171875 1217.035156 1203.320313 1187.882813 L 1185.019531 1165.585938 C 1175.878906 1179.878906 1165.589844 1190.738281 1147.289063 1190.738281 Z M 1106.140625 1104.421875 C 1106.140625 1090.128906 1106.140625 1064.40625 1121.570313 1064.40625 C 1135.859375 1064.40625 1139.289063 1086.128906 1139.289063 1098.132813 C 1139.289063 1112.421875 1132.429688 1115.855469 1122.710938 1118.710938 L 1106.140625 1123.285156 Z M 1106.140625 1104.421875 "/>
<path style=" stroke:none;fill-rule:nonzero;fill:rgb(0%,41.967773%,70.896912%);fill-opacity:1;" d="M 1301.640625 1226.753906 L 1202.738281 1226.753906 L 1202.738281 1201.601563 L 1220.460938 1199.3125 L 1220.460938 1121.570313 C 1220.460938 1094.132813 1217.039063 1080.410156 1197.03125 1080.410156 L 1197.03125 1058.6875 L 1267.339844 1038.109375 C 1275.339844 1053.542969 1277.628906 1071.835938 1278.769531 1089.558594 L 1279.339844 1089.558594 C 1286.199219 1068.40625 1295.351563 1038.679688 1318.210938 1038.679688 C 1338.21875 1038.679688 1347.371094 1054.117188 1347.371094 1072.980469 C 1347.371094 1092.417969 1338.800781 1107.851563 1324.5 1107.851563 C 1314.210938 1107.851563 1305.640625 1103.847656 1301.070313 1102.132813 C 1288.488281 1097.5625 1283.921875 1153.582031 1283.921875 1165.015625 L 1283.921875 1198.742188 L 1301.640625 1201.027344 Z M 1301.640625 1226.753906 "/>
<path style=" stroke:none;fill-rule:nonzero;fill:rgb(0%,41.967773%,70.896912%);fill-opacity:1;" d="M 1467.421875 1074.695313 C 1467.421875 1090.128906 1454.269531 1097.5625 1439.980469 1097.5625 C 1422.828125 1097.5625 1410.820313 1083.839844 1407.960938 1067.265625 C 1400.539063 1067.265625 1395.390625 1071.265625 1395.390625 1083.269531 C 1395.390625 1111.851563 1476.558594 1091.273438 1476.558594 1163.871094 C 1476.558594 1218.179688 1437.121094 1231.898438 1399.390625 1231.898438 C 1376.519531 1231.898438 1335.941406 1229.039063 1335.941406 1193.597656 C 1335.941406 1177.589844 1344.511719 1165.585938 1360.519531 1165.585938 C 1385.101563 1165.585938 1389.101563 1187.882813 1393.671875 1203.886719 C 1394.820313 1207.890625 1398.25 1209.03125 1401.679688 1209.03125 C 1414.820313 1209.03125 1423.96875 1203.886719 1423.96875 1195.3125 C 1423.96875 1162.730469 1341.078125 1175.304688 1341.078125 1104.421875 C 1341.078125 1059.261719 1394.25 1039.253906 1419.96875 1039.253906 C 1449.128906 1039.824219 1467.421875 1049.542969 1467.421875 1074.695313 M 914.0625 955.222656 C 882.621094 955.222656 850.039063 967.796875 833.460938 994.09375 L 832.316406 994.09375 L 832.890625 994.09375 L 836.320313 948.359375 C 838.035156 917.492188 844.894531 833.460938 887.765625 833.460938 C 908.347656 833.460938 903.773438 860.898438 906.058594 873.480469 C 911.777344 902.628906 924.351563 935.785156 964.367188 935.785156 C 991.234375 935.785156 1019.820313 918.0625 1019.820313 880.90625 C 1019.820313 824.308594 972.371094 787.160156 915.207031 787.160156 C 767.722656 787.160156 708.269531 899.769531 708.269531 1036.394531 C 708.269531 1154.726563 754 1257.050781 880.90625 1257.050781 C 963.222656 1257.050781 1030.109375 1198.742188 1030.109375 1100.417969 C 1030.109375 1016.957031 986.089844 955.222656 914.0625 955.222656 Z M 870.617188 1210.746094 C 835.175781 1210.746094 836.890625 1165.585938 836.890625 1113.566406 C 836.890625 1061.546875 842.035156 1016.386719 870.617188 1016.386719 C 906.058594 1016.386719 907.773438 1061.546875 907.773438 1113.566406 C 907.773438 1165.585938 900.34375 1210.746094 870.617188 1210.746094 Z M 870.617188 1210.746094 "/>
<path style=" stroke:none;fill-rule:nonzero;fill:rgb(92.576599%,9.008789%,29.80957%);fill-opacity:1;" d="M 427.019531 785.441406 L 427.019531 960.9375 C 525.34375 975.230469 643.101563 966.082031 725.992188 844.320313 C 729.421875 839.179688 731.707031 842.609375 729.421875 847.179688 C 705.984375 894.625 651.105469 938.070313 603.660156 975.230469 C 557.925781 1011.242188 435.59375 1139.292969 437.308594 1251.90625 C 437.308594 1260.480469 437.882813 1258.195313 445.3125 1252.476563 C 482.46875 1225.039063 555.070313 1223.894531 599.65625 1245.617188 C 605.945313 1248.476563 606.515625 1247.902344 605.375 1239.328125 C 596.796875 1151.867188 616.234375 1056.402344 653.964844 1000.953125 C 679.6875 962.652344 749.429688 863.761719 761.433594 786.019531 C 762.578125 778.011719 758.574219 779.148438 748.285156 790.019531 C 669.398438 873.480469 527.058594 871.191406 435.023438 783.160156 C 429.878906 777.441406 427.589844 780.300781 427.019531 785.441406 "/>
<path style=" stroke:none;fill-rule:nonzero;fill:rgb(100%,100%,100%);fill-opacity:1;" d="M 766.578125 679.691406 C 766.578125 772.820313 691.078125 848.320313 597.941406 848.320313 C 504.808594 848.320313 429.304688 772.820313 429.304688 679.691406 C 429.304688 586.550781 504.808594 511.050781 597.941406 511.050781 C 691.078125 511.050781 766.578125 586.550781 766.578125 679.691406 Z M 766.578125 679.691406 "/>
<path style=" stroke:none;fill-rule:nonzero;fill:rgb(0%,41.967773%,70.896912%);fill-opacity:1;" d="M 597.371094 517.339844 L 603.085938 535.058594 L 622.523438 535.058594 L 606.515625 546.488281 L 612.234375 563.640625 L 597.371094 553.359375 L 582.507813 563.640625 L 588.222656 546.488281 L 572.789063 535.058594 L 591.652344 535.058594 Z M 709.984375 582.511719 L 715.703125 600.230469 L 734.566406 600.230469 L 719.132813 611.660156 L 724.847656 629.378906 L 709.984375 618.519531 L 694.550781 629.378906 L 700.839844 611.660156 L 684.832031 600.230469 L 704.269531 600.230469 Z M 661.394531 532.199219 L 667.109375 549.921875 L 686.546875 549.921875 L 671.113281 561.359375 L 676.828125 579.078125 L 661.394531 568.210938 L 646.53125 579.078125 L 652.25 561.359375 L 636.8125 549.921875 L 655.679688 549.921875 Z M 728.277344 644.25 L 733.992188 661.960938 L 752.859375 661.960938 L 737.421875 673.398438 L 743.140625 691.121094 L 728.277344 680.261719 L 713.414063 691.121094 L 719.132813 673.398438 L 703.125 661.960938 L 721.988281 661.960938 Z M 720.273438 709.410156 L 725.992188 727.710938 L 744.855469 727.710938 L 729.421875 739.140625 L 735.136719 756.289063 L 720.273438 745.429688 L 705.410156 756.289063 L 710.554688 738.570313 L 695.121094 727.710938 L 714.558594 727.710938 Z M 684.261719 762 L 689.40625 779.730469 L 708.839844 779.730469 L 693.40625 791.160156 L 699.125 808.308594 L 684.261719 797.441406 L 668.828125 808.308594 L 674.542969 791.160156 L 659.109375 779.730469 L 678.542969 779.730469 Z M 627.097656 791.160156 L 632.8125 808.878906 L 652.25 808.878906 L 636.8125 820.308594 L 642.53125 838.039063 L 627.097656 827.171875 L 612.234375 838.039063 L 617.949219 820.308594 L 602.515625 808.878906 L 621.378906 808.878906 Z M 483.042969 576.789063 L 477.324219 594.511719 L 458.460938 594.511719 L 473.894531 605.941406 L 468.179688 623.671875 L 483.042969 612.808594 L 498.476563 623.671875 L 492.757813 605.941406 L 508.195313 594.511719 L 488.757813 594.511719 Z M 530.488281 532.199219 L 524.769531 549.921875 L 505.335938 549.921875 L 520.769531 561.359375 L 515.054688 579.078125 L 530.488281 568.210938 L 545.351563 579.078125 L 539.632813 561.359375 L 555.070313 549.921875 L 536.203125 549.921875 Z M 461.320313 636.238281 L 455.601563 653.960938 L 436.738281 653.960938 L 452.171875 665.390625 L 446.457031 683.121094 L 461.320313 672.261719 L 476.179688 683.121094 L 471.035156 665.390625 L 486.472656 653.960938 L 467.035156 653.960938 Z M 467.035156 701.410156 L 461.320313 719.699219 L 442.453125 719.699219 L 457.890625 730.558594 L 452.171875 748.289063 L 467.035156 737.421875 L 482.46875 748.289063 L 476.753906 730.558594 L 492.1875 719.699219 L 472.75 719.699219 Z M 503.046875 755.140625 L 497.902344 772.871094 L 478.46875 772.871094 L 493.902344 784.300781 L 488.1875 801.449219 L 503.046875 790.589844 L 518.484375 801.449219 L 512.765625 784.300781 L 528.203125 772.871094 L 509.335938 772.871094 Z M 560.214844 788.871094 L 554.496094 806.589844 L 535.0625 806.589844 L 550.496094 818.03125 L 545.351563 835.75 L 559.640625 824.890625 L 575.078125 835.75 L 569.359375 818.03125 L 584.792969 806.589844 L 565.929688 806.589844 Z M 560.214844 788.871094 "/>
</g>
</svg>
