<?xml version="1.0" encoding="UTF-8"?>
<svg xmlns="http://www.w3.org/2000/svg" xmlns:xlink="http://www.w3.org/1999/xlink" width="194pt" height="198pt" viewBox="0 0 194 198" version="1.1">
<g id="surface1">
<path style=" stroke:none;fill-rule:nonzero;fill:rgb(38.818359%,44.700623%,47.851563%);fill-opacity:1;" d="M 193.5625 0.707031 C 193.242188 0.351563 192.78125 0.15625 192.300781 0.167969 L 70.710938 0.167969 C 56.222656 0.167969 47.3125 6.46875 44.253906 18.707031 L 0.0625 194.929688 C -0.078125 195.425781 0.0234375 195.957031 0.332031 196.367188 C 0.628906 196.765625 1.097656 197 1.59375 197 L 134.074219 197 C 141.632813 197 149.191406 190.878906 150.902344 183.5 L 193.832031 2.148438 C 193.972656 1.652344 193.871094 1.121094 193.5625 0.707031 Z M 193.5625 0.707031 "/>
<path style=" stroke:none;fill-rule:nonzero;fill:rgb(0%,0%,0%);fill-opacity:1;" d="M 1.59375 195.378906 L 134.074219 195.378906 C 140.914063 195.378906 147.84375 189.796875 149.371094 183.136719 L 192.300781 1.699219 L 70.710938 1.699219 C 59.460938 1.789063 49.203125 5.480469 45.78125 19.160156 Z M 1.59375 195.378906 "/>
<path style=" stroke:none;fill-rule:nonzero;fill:rgb(38.818359%,44.700623%,47.851563%);fill-opacity:1;" d="M 28.863281 123.738281 L 143.792969 123.738281 C 149.550781 123.738281 155.222656 119.148438 156.574219 113.480469 L 180.691406 9.078125 L 75.390625 9.078125 C 62.523438 9.078125 56.761719 13.128906 54.152344 23.839844 Z M 143.792969 125.179688 L 27.0625 125.179688 L 52.710938 23.480469 C 56.042969 10.339844 64.140625 7.730469 75.390625 7.730469 L 182.492188 7.730469 L 157.921875 113.839844 C 156.480469 120.046875 150.183594 125.179688 143.792969 125.179688 Z M 143.792969 125.179688 "/>
<path style=" stroke:none;fill-rule:nonzero;fill:rgb(100%,100%,100%);fill-opacity:1;" d="M 46.144531 182.148438 L 49.382813 186.558594 L 73.59375 186.558594 L 83.402344 147.679688 L 73.503906 147.679688 L 65.042969 181.070313 L 56.222656 181.070313 L 64.683594 147.679688 L 52.171875 147.679688 L 51.363281 148.308594 L 53.882813 151.730469 Z M 46.144531 182.148438 "/>
<path style=" stroke:none;fill-rule:nonzero;fill:rgb(100%,100%,100%);fill-opacity:1;" d="M 46.953125 161.269531 L 49.292969 151.910156 L 46.050781 147.5 L 26.253906 147.5 L 20.851563 151.910156 L 17.523438 164.957031 L 34.261719 171.980469 L 32.011719 181.070313 L 23.28125 181.070313 L 24.273438 176.839844 L 15.542969 172.789063 L 13.203125 182.148438 L 16.351563 186.558594 L 36.242188 186.558594 L 41.644531 182.148438 L 44.972656 169.007813 L 28.234375 161.988281 L 30.484375 152.988281 L 39.210938 152.988281 L 38.132813 157.308594 Z M 46.953125 161.269531 "/>
<path style=" stroke:none;fill-rule:nonzero;fill:rgb(100%,100%,100%);fill-opacity:1;" d="M 115.351563 151.910156 L 112.113281 147.5 L 87.992188 147.5 L 78.183594 186.378906 L 88.082031 186.378906 L 96.453125 152.988281 L 105.273438 152.988281 L 96.902344 186.378906 L 109.324219 186.378906 L 110.132813 185.660156 L 107.703125 182.332031 Z M 115.351563 151.910156 "/>
<path style=" stroke:none;fill-rule:nonzero;fill:rgb(100%,100%,100%);fill-opacity:1;" d="M 146.042969 161.269531 L 148.382813 151.910156 L 145.144531 147.5 L 125.34375 147.5 L 119.941406 151.910156 L 116.613281 164.957031 L 133.351563 171.980469 L 131.101563 181.070313 L 122.28125 181.070313 L 123.363281 176.839844 L 114.632813 172.789063 L 112.292969 182.148438 L 115.441406 186.558594 L 135.332031 186.558594 L 140.734375 182.148438 L 144.0625 169.007813 L 127.324219 161.988281 L 129.574219 152.988281 L 138.300781 152.988281 L 137.222656 157.308594 Z M 146.042969 161.269531 "/>
<path style=" stroke:none;fill-rule:nonzero;fill:rgb(74.414063%,75.389099%,76.171875%);fill-opacity:1;" d="M 15.542969 172.789063 L 19.144531 178.1875 L 18.332031 181.339844 L 20.132813 183.769531 L 34.171875 183.769531 L 36.960938 181.609375 L 41.644531 182.148438 L 36.242188 186.558594 L 16.351563 186.558594 L 13.203125 182.148438 Z M 15.542969 172.789063 "/>
<path style=" stroke:none;fill-rule:nonzero;fill:rgb(74.414063%,75.389099%,76.171875%);fill-opacity:1;" d="M 32.011719 181.070313 L 36.960938 181.609375 L 39.753906 170.539063 L 22.832031 163.429688 L 25.621094 152.453125 L 20.851563 151.910156 L 17.523438 164.957031 L 34.261719 171.980469 Z M 32.011719 181.070313 "/>
<path style=" stroke:none;fill-rule:nonzero;fill:rgb(74.414063%,75.389099%,76.171875%);fill-opacity:1;" d="M 42.273438 150.203125 L 28.59375 150.203125 L 25.621094 152.453125 L 30.484375 152.988281 L 39.210938 152.988281 L 38.132813 157.308594 L 43.351563 155.6875 L 44.164063 152.71875 Z M 42.273438 150.203125 "/>
<path style=" stroke:none;fill-rule:nonzero;fill:rgb(74.414063%,75.389099%,76.171875%);fill-opacity:1;" d="M 114.632813 172.789063 L 118.234375 178.1875 L 117.421875 181.339844 L 119.222656 183.769531 L 133.261719 183.769531 L 136.050781 181.609375 L 140.734375 182.148438 L 135.332031 186.558594 L 115.441406 186.558594 L 112.292969 182.148438 Z M 114.632813 172.789063 "/>
<path style=" stroke:none;fill-rule:nonzero;fill:rgb(74.414063%,75.389099%,76.171875%);fill-opacity:1;" d="M 131.101563 181.070313 L 136.050781 181.609375 L 138.84375 170.539063 L 121.921875 163.429688 L 124.710938 152.453125 L 119.941406 151.910156 L 116.613281 164.957031 L 133.351563 171.980469 Z M 131.101563 181.070313 "/>
<path style=" stroke:none;fill-rule:nonzero;fill:rgb(74.414063%,75.389099%,76.171875%);fill-opacity:1;" d="M 141.363281 150.203125 L 127.59375 150.203125 L 124.710938 152.453125 L 129.574219 152.988281 L 138.300781 152.988281 L 137.222656 157.308594 L 142.441406 155.6875 L 143.164063 152.71875 Z M 141.363281 150.203125 "/>
<path style=" stroke:none;fill-rule:nonzero;fill:rgb(74.414063%,75.389099%,76.171875%);fill-opacity:1;" d="M 51.363281 148.308594 L 59.101563 150.203125 L 51.273438 181.339844 L 53.074219 183.769531 L 69.273438 183.769531 L 73.59375 186.558594 L 49.382813 186.558594 L 46.144531 182.148438 L 53.882813 151.730469 Z M 51.363281 148.308594 "/>
<path style=" stroke:none;fill-rule:nonzero;fill:rgb(74.414063%,75.389099%,76.171875%);fill-opacity:1;" d="M 73.503906 147.679688 L 77.734375 150.203125 L 69.273438 183.769531 L 65.042969 181.070313 Z M 73.503906 147.679688 "/>
<path style=" stroke:none;fill-rule:nonzero;fill:rgb(74.414063%,75.389099%,76.171875%);fill-opacity:1;" d="M 92.3125 150.203125 L 87.992188 147.5 L 78.183594 186.378906 L 88.082031 186.378906 L 83.761719 183.769531 Z M 92.3125 150.203125 "/>
<path style=" stroke:none;fill-rule:nonzero;fill:rgb(74.414063%,75.389099%,76.171875%);fill-opacity:1;" d="M 102.394531 183.769531 L 110.222656 152.71875 L 108.421875 150.203125 L 92.3125 150.203125 L 96.453125 152.988281 L 105.273438 152.988281 L 96.902344 186.378906 L 109.324219 186.378906 L 110.132813 185.660156 Z M 102.394531 183.769531 "/>
<path style=" stroke:none;fill-rule:nonzero;fill:rgb(100%,100%,100%);fill-opacity:1;" d="M 30.84375 135.796875 L 28.230469 136.519531 L 29.042969 133.097656 L 31.472656 133.097656 Z M 26.164063 131.117188 L 25.890625 131.296875 L 26.703125 132.378906 L 24.183594 142.636719 L 27.691406 142.636719 L 27.871094 142.367188 L 27.0625 141.378906 L 27.691406 138.679688 L 33.09375 136.96875 L 34.171875 132.46875 L 33.09375 131.117188 Z M 26.164063 131.117188 "/>
<path style=" stroke:none;fill-rule:nonzero;fill:rgb(100%,100%,100%);fill-opacity:1;" d="M 54.78125 131.117188 L 52.171875 131.117188 L 51.183594 135.257813 L 48.664063 135.886719 L 49.832031 131.117188 L 46.414063 131.117188 L 46.144531 131.296875 L 46.953125 132.378906 L 44.433594 142.636719 L 47.042969 142.636719 L 48.121094 138.046875 L 50.644531 137.507813 L 49.382813 142.636719 L 52.800781 142.636719 L 53.074219 142.367188 L 52.261719 141.378906 Z M 54.78125 131.117188 "/>
<path style=" stroke:none;fill-rule:nonzero;fill:rgb(100%,100%,100%);fill-opacity:1;" d="M 70.171875 140.75 L 67.742188 140.75 L 69.632813 133.007813 L 72.0625 133.007813 Z M 69.003906 131.117188 L 67.292969 132.46875 L 65.132813 141.203125 L 66.210938 142.636719 L 70.890625 142.636719 L 72.601563 141.203125 L 74.761719 132.46875 L 73.683594 131.117188 Z M 69.003906 131.117188 "/>
<path style=" stroke:none;fill-rule:nonzero;fill:rgb(100%,100%,100%);fill-opacity:1;" d="M 114.542969 132.46875 L 113.460938 131.117188 L 107.253906 131.117188 L 104.460938 142.636719 L 107.074219 142.636719 L 109.414063 133.007813 L 111.84375 133.007813 L 109.503906 142.636719 L 112.921875 142.636719 L 113.191406 142.367188 L 112.382813 141.378906 Z M 114.542969 132.46875 "/>
<path style=" stroke:none;fill-rule:nonzero;fill:rgb(100%,100%,100%);fill-opacity:1;" d="M 130.5625 131.117188 L 127.050781 131.117188 L 126.78125 131.296875 L 127.683594 132.378906 L 125.164063 142.636719 L 128.582031 142.636719 L 128.851563 142.367188 L 128.042969 141.378906 Z M 130.5625 131.117188 "/>
<path style=" stroke:none;fill-rule:nonzero;fill:rgb(100%,100%,100%);fill-opacity:1;" d="M 149.011719 141.46875 L 147.664063 136.96875 L 152.253906 131.117188 L 149.734375 131.117188 L 147.121094 134.628906 L 146.222656 131.117188 L 142.800781 131.117188 L 142.53125 131.296875 L 143.882813 132.378906 L 145.234375 137.058594 L 140.914063 142.636719 L 143.34375 142.636719 L 145.863281 139.21875 L 146.761719 142.636719 L 150.183594 142.636719 L 150.453125 142.367188 Z M 149.011719 141.46875 "/>
<path style=" stroke:none;fill-rule:nonzero;fill:rgb(100%,100%,100%);fill-opacity:1;" d="M 91.144531 140.75 L 88.171875 140.75 L 88.894531 137.777344 L 91.324219 137.777344 L 91.773438 135.886719 L 89.34375 135.886719 L 90.0625 133.007813 L 92.851563 133.007813 L 93.574219 134 L 93.84375 133.820313 L 94.472656 131.117188 L 87.09375 131.117188 L 86.824219 131.296875 L 87.632813 132.378906 L 85.113281 142.636719 L 91.863281 142.636719 L 92.492188 139.9375 L 92.3125 139.757813 Z M 91.144531 140.75 "/>
<path style=" stroke:none;fill-rule:nonzero;fill:rgb(97.65625%,62.693787%,10.594177%);fill-opacity:1;" d="M 32.011719 121.847656 L 97.621094 85.9375 L 53.074219 121.847656 L 107.164063 90.796875 L 106.261719 97.097656 L 115.261719 92.058594 L 135.601563 111.320313 L 146.402344 78.738281 L 162.0625 77.75 L 154.144531 58.039063 L 168.273438 46.96875 L 149.914063 39.769531 L 154.59375 20.058594 L 139.023438 27.167969 L 130.921875 10.25 L 118.414063 22.667969 L 95.914063 12.589844 L 92.851563 32.660156 L 72.78125 37.070313 L 84.664063 44.179688 L 72.691406 50.207031 L 82.863281 51.109375 L 41.101563 83.507813 L 83.132813 61.1875 L 38.132813 95.480469 L 86.011719 70.546875 L 34.800781 108.980469 L 91.234375 78.917969 Z M 32.011719 121.847656 "/>
<path style=" stroke:none;fill-rule:nonzero;fill:rgb(89.84375%,37.646484%,12.547302%);fill-opacity:1;" d="M 152.074219 58.308594 C 151.507813 71.496094 143.0625 83.046875 130.667969 87.582031 C 118.273438 92.117188 104.367188 88.742188 95.425781 79.03125 C 86.488281 69.320313 84.273438 55.183594 89.8125 43.207031 C 95.355469 31.226563 107.5625 23.761719 120.753906 24.289063 C 138.796875 25.035156 152.816406 40.265625 152.074219 58.308594 Z M 152.074219 58.308594 "/>
<path style=" stroke:none;fill-rule:nonzero;fill:rgb(72.459412%,34.910583%,8.227539%);fill-opacity:1;" d="M 123.453125 85.128906 C 110.585938 84.617188 99.21875 76.589844 94.4375 64.632813 C 89.65625 52.675781 92.347656 39.023438 101.3125 29.777344 C 89.566406 37.636719 84.195313 52.15625 88.003906 65.765625 C 91.808594 79.378906 103.933594 89.003906 118.050781 89.628906 C 127.359375 89.996094 136.386719 86.398438 142.890625 79.730469 C 137.167969 83.582031 130.34375 85.476563 123.453125 85.128906 Z M 123.453125 85.128906 "/>
<path style=" stroke:none;fill-rule:nonzero;fill:rgb(0%,0%,0%);fill-opacity:1;" d="M 152.074219 57.320313 C 152.132813 56.179688 152.101563 55.035156 151.980469 53.898438 C 149.988281 52.460938 147.667969 51.535156 145.230469 51.199219 C 144.691406 51.199219 144.242188 51.109375 143.703125 51.109375 C 143.402344 48.941406 142.921875 46.804688 142.261719 44.71875 C 142.585938 44.789063 142.917969 44.820313 143.253906 44.808594 C 145.59375 44.988281 147.84375 45.257813 150.09375 45.617188 C 149.785156 44.757813 149.425781 43.914063 149.011719 43.097656 C 146.582031 42.738281 143.972656 42.46875 141.363281 42.289063 C 140.554688 40.164063 139.5625 38.117188 138.390625 36.167969 C 140.007813 35.878906 141.507813 35.128906 142.710938 34.007813 C 142.082031 33.378906 141.453125 32.839844 140.824219 32.207031 C 139.71875 33.1875 138.332031 33.785156 136.863281 33.917969 C 136.59375 33.558594 136.324219 33.199219 136.140625 32.929688 C 133.960938 30.113281 131.382813 27.628906 128.492188 25.546875 C 125.976563 24.800781 123.375 24.378906 120.753906 24.289063 L 120.390625 24.289063 C 125.464844 26.339844 129.925781 29.65625 133.351563 33.917969 C 129.53125 33.386719 125.765625 32.511719 122.101563 31.308594 C 120.933594 30.949219 119.851563 30.679688 118.773438 30.320313 C 113.75 28.847656 108.515625 28.238281 103.292969 28.519531 C 100.460938 30.140625 97.882813 32.175781 95.640625 34.546875 C 99.78125 32.839844 108.0625 29.957031 118.140625 32.75 C 119.222656 33.019531 120.300781 33.289063 121.472656 33.648438 C 125.882813 35 130.921875 36.4375 135.242188 36.4375 C 136.402344 38.25 137.425781 40.144531 138.300781 42.109375 C 137.464844 42.035156 136.625 42.003906 135.78125 42.019531 C 114.722656 41.660156 96.8125 47.867188 86.824219 57.949219 C 86.847656 59.914063 87.058594 61.871094 87.453125 63.796875 C 90.242188 59.75 94.472656 56.058594 99.871094 53 C 109.953125 47.328125 123.453125 44.359375 137.761719 44.539063 C 138.300781 44.539063 138.753906 44.628906 139.292969 44.628906 C 140.011719 46.710938 140.554688 48.847656 140.914063 51.019531 C 131.640625 51.46875 125.703125 57.136719 118.773438 63.347656 C 112.652344 68.839844 105.09375 74.328125 94.113281 77.660156 C 95.160156 78.914063 96.304688 80.089844 97.53125 81.167969 C 107.882813 77.027344 114.722656 70.546875 120.574219 65.328125 C 127.230469 59.386719 132.902344 53.71875 141.183594 53.449219 C 141.453125 55.78125 141.453125 58.136719 141.183594 60.46875 C 140.101563 73.25 132.632813 84.136719 122.550781 89.539063 C 125.097656 89.285156 127.601563 88.742188 130.023438 87.917969 C 130.832031 87.199219 131.640625 86.480469 132.363281 85.757813 C 139.097656 79.074219 143.21875 70.199219 143.972656 60.738281 C 144.242188 58.347656 144.242188 55.929688 143.972656 53.539063 C 144.421875 53.628906 144.871094 53.628906 145.230469 53.71875 C 147.839844 54.152344 150.238281 55.414063 152.074219 57.320313 Z M 152.074219 57.320313 "/>
</g>
</svg>
