<?xml version="1.0" encoding="UTF-8"?>
<svg xmlns="http://www.w3.org/2000/svg" xmlns:xlink="http://www.w3.org/1999/xlink" width="202pt" height="173pt" viewBox="0 0 202 173" version="1.1">
<g id="surface1">
<path style=" stroke:none;fill-rule:nonzero;fill:rgb(0%,0%,0%);fill-opacity:1;" d="M 133.789063 23.710938 C 132.515625 21.773438 131.03125 19.984375 129.359375 18.375 C 128.652344 17.660156 127.90625 16.984375 127.121094 16.355469 L 143.210938 0.308594 L 96.449219 0.308594 L 78.339844 18.417969 C 76.710938 20.066406 75.226563 21.851563 73.90625 23.753906 C 72.609375 25.695313 71.5 27.753906 70.59375 29.90625 C 66.808594 38.871094 66.808594 48.988281 70.59375 57.953125 C 71.492188 60.097656 72.601563 62.140625 73.90625 64.0625 C 75.179688 66 76.667969 67.789063 78.339844 69.398438 C 79.03125 70.140625 79.78125 70.832031 80.574219 71.460938 L 64.527344 87.507813 L 111.289063 87.507813 L 129.402344 69.355469 C 132.6875 66.09375 135.304688 62.222656 137.101563 57.953125 C 140.886719 48.988281 140.886719 38.871094 137.101563 29.90625 C 136.230469 27.726563 135.121094 25.648438 133.789063 23.710938 Z M 133.789063 23.710938 "/>
<path style=" stroke:none;fill-rule:nonzero;fill:rgb(100%,100%,100%);fill-opacity:1;" d="M 127.292969 20.484375 C 126.605469 19.753906 125.832031 19.066406 125.101563 18.417969 L 105.484375 38.121094 C 106.488281 38.410156 107.402344 38.941406 108.152344 39.671875 C 110.472656 42.050781 110.472656 45.851563 108.152344 48.230469 L 71.757813 84.625 L 76.058594 84.625 L 110.257813 50.382813 C 113.789063 46.851563 113.828125 41.140625 110.34375 37.5625 L 112.453125 35.457031 C 114.707031 37.714844 115.96875 40.777344 115.964844 43.96875 C 115.957031 47.164063 114.6875 50.222656 112.425781 52.476563 L 112.410156 52.492188 L 80.316406 84.625 L 84.574219 84.625 L 114.558594 54.640625 C 120.421875 48.746094 120.441406 39.226563 114.601563 33.304688 L 116.710938 31.195313 C 123.769531 38.265625 123.757813 49.714844 116.691406 56.773438 L 116.667969 56.792969 L 88.835938 84.625 L 93.09375 84.625 L 118.820313 58.902344 C 127.070313 50.664063 127.089844 37.304688 118.863281 29.046875 L 121.011719 26.894531 C 130.410156 36.355469 130.371094 51.636719 120.925781 61.050781 L 97.351563 84.625 L 101.65625 84.625 L 123.078125 63.160156 C 133.6875 52.585938 133.714844 35.414063 123.140625 24.804688 L 123.121094 24.785156 L 125.273438 22.636719 C 130.921875 28.304688 134.085938 35.988281 134.070313 43.992188 C 134.054688 51.996094 130.859375 59.664063 125.1875 65.3125 L 105.914063 84.625 L 110.171875 84.625 L 127.335938 67.460938 C 140.253906 54.457031 140.234375 33.464844 127.292969 20.484375 Z M 127.292969 20.484375 "/>
<path style=" stroke:none;fill-rule:nonzero;fill:rgb(81.25%,3.921509%,17.259216%);fill-opacity:1;" d="M 80.53125 67.375 C 81.222656 68.09375 81.953125 68.769531 82.726563 69.398438 L 102.34375 49.78125 C 101.332031 49.515625 100.410156 48.980469 99.675781 48.230469 C 97.3125 45.871094 97.308594 42.039063 99.671875 39.675781 L 99.675781 39.671875 L 136.070313 3.234375 L 131.8125 3.234375 L 97.523438 37.519531 C 93.984375 41.054688 93.964844 46.78125 97.480469 50.339844 L 95.332031 52.449219 C 90.648438 47.757813 90.65625 40.164063 95.34375 35.484375 C 95.367188 35.460938 95.394531 35.4375 95.417969 35.414063 L 127.550781 3.234375 L 123.292969 3.234375 L 93.265625 33.261719 C 87.382813 39.148438 87.363281 48.6875 93.222656 54.597656 L 91.070313 56.707031 C 84.050781 49.613281 84.070313 38.179688 91.113281 31.109375 L 119.035156 3.234375 L 114.777344 3.234375 L 89.007813 29.003906 C 80.757813 37.238281 80.738281 50.597656 88.964844 58.859375 L 86.8125 61.007813 C 77.425781 51.550781 77.445313 36.285156 86.855469 26.851563 L 110.472656 3.234375 L 106.214844 3.234375 L 84.746094 24.742188 C 74.140625 35.320313 74.101563 52.492188 84.660156 63.117188 L 82.554688 65.269531 C 70.78125 53.476563 70.796875 34.371094 82.589844 22.601563 L 101.957031 3.234375 L 97.695313 3.234375 L 80.445313 20.484375 C 67.519531 33.457031 67.558594 54.449219 80.53125 67.375 Z M 80.53125 67.375 "/>
<path style=" stroke:none;fill-rule:nonzero;fill:rgb(0%,0%,0%);fill-opacity:1;" d="M 45.257813 160.726563 L 42.976563 160.726563 L 42.976563 158.40625 L 50.117188 158.40625 L 50.117188 160.726563 L 47.792969 160.726563 L 47.792969 172 L 45.257813 172 Z M 45.257813 160.726563 "/>
<path style=" stroke:none;fill-rule:nonzero;fill:rgb(0%,0%,0%);fill-opacity:1;" d="M 53.386719 158.40625 L 59.023438 158.40625 L 60.699219 160.082031 L 60.699219 164.8125 L 59.28125 166.148438 L 60.785156 171.957031 L 58.25 171.957031 L 56.828125 166.40625 L 55.882813 166.40625 L 55.882813 172 L 53.34375 172 L 53.34375 158.40625 Z M 57.601563 164.511719 L 58.117188 163.914063 L 58.117188 160.941406 L 57.601563 160.339844 L 55.925781 160.339844 L 55.925781 164.511719 Z M 57.601563 164.511719 "/>
<path style=" stroke:none;fill-rule:nonzero;fill:rgb(0%,0%,0%);fill-opacity:1;" d="M 65.820313 158.40625 L 69.476563 158.40625 L 71.542969 172 L 69.046875 172 L 68.703125 168.859375 L 66.507813 168.859375 L 66.121094 172 L 63.710938 172 Z M 66.722656 166.75 L 68.359375 166.75 L 67.539063 159.996094 Z M 66.722656 166.75 "/>
<path style=" stroke:none;fill-rule:nonzero;fill:rgb(0%,0%,0%);fill-opacity:1;" d="M 74.421875 170.0625 L 75.929688 170.0625 L 75.929688 160.339844 L 74.421875 160.339844 L 74.421875 158.40625 L 79.972656 158.40625 L 79.972656 160.339844 L 78.511719 160.339844 L 78.511719 170.0625 L 79.972656 170.0625 L 79.972656 172 L 74.421875 172 Z M 74.421875 170.0625 "/>
<path style=" stroke:none;fill-rule:nonzero;fill:rgb(0%,0%,0%);fill-opacity:1;" d="M 83.5 158.40625 L 86.082031 158.40625 L 86.082031 169.761719 L 88.964844 169.761719 L 88.964844 172 L 83.5 172 Z M 83.5 158.40625 "/>
<path style=" stroke:none;fill-rule:nonzero;fill:rgb(0%,0%,0%);fill-opacity:1;" d="M 97.695313 158.40625 L 103.246094 158.40625 L 104.882813 160.082031 L 104.882813 163.695313 L 103.546875 165.03125 L 104.882813 166.363281 L 104.882813 170.320313 L 103.246094 171.957031 L 97.695313 171.957031 Z M 101.699219 164.082031 L 102.34375 163.4375 L 102.34375 161.027344 L 101.785156 160.511719 L 100.234375 160.511719 L 100.234375 164.125 L 101.699219 164.125 Z M 101.785156 169.976563 L 102.34375 169.460938 L 102.34375 166.664063 L 101.699219 166.0625 L 100.191406 166.0625 L 100.191406 169.933594 L 101.785156 169.933594 Z M 101.785156 169.976563 "/>
<path style=" stroke:none;fill-rule:nonzero;fill:rgb(0%,0%,0%);fill-opacity:1;" d="M 108.667969 158.40625 L 111.160156 158.40625 L 111.160156 169.761719 L 114.128906 169.761719 L 114.128906 172 L 108.667969 172 Z M 108.667969 158.40625 "/>
<path style=" stroke:none;fill-rule:nonzero;fill:rgb(0%,0%,0%);fill-opacity:1;" d="M 118.949219 158.40625 L 122.648438 158.40625 L 124.714844 172 L 122.21875 172 L 121.832031 168.859375 L 119.679688 168.859375 L 119.292969 172 L 116.882813 172 Z M 119.9375 166.75 L 121.574219 166.75 L 120.710938 159.996094 Z M 119.9375 166.75 "/>
<path style=" stroke:none;fill-rule:nonzero;fill:rgb(0%,0%,0%);fill-opacity:1;" d="M 127.59375 170.148438 L 131.078125 160.726563 L 127.679688 160.726563 L 127.679688 158.40625 L 133.832031 158.40625 L 133.832031 160.210938 L 130.390625 169.675781 L 133.832031 169.675781 L 133.832031 172 L 127.59375 172 Z M 127.59375 170.148438 "/>
<path style=" stroke:none;fill-rule:nonzero;fill:rgb(0%,0%,0%);fill-opacity:1;" d="M 137.359375 158.40625 L 143.339844 158.40625 L 143.339844 160.640625 L 139.941406 160.640625 L 139.941406 163.957031 L 143.039063 163.957031 L 143.039063 166.191406 L 139.941406 166.191406 L 139.941406 169.761719 L 143.382813 169.761719 L 143.382813 172 L 137.359375 172 Z M 137.359375 158.40625 "/>
<path style=" stroke:none;fill-rule:nonzero;fill:rgb(0%,0%,0%);fill-opacity:1;" d="M 147.082031 158.40625 L 152.71875 158.40625 L 154.394531 160.082031 L 154.394531 164.8125 L 153.0625 166.148438 L 154.523438 172 L 151.988281 172 L 150.609375 166.449219 L 149.621094 166.449219 L 149.621094 172 L 147.082031 172 Z M 151.300781 164.511719 L 151.816406 163.914063 L 151.816406 160.941406 L 151.300781 160.339844 L 149.621094 160.339844 L 149.621094 164.511719 Z M 151.300781 164.511719 "/>
<path style=" stroke:none;fill-rule:nonzero;fill:rgb(0%,0%,0%);fill-opacity:1;" d="M 157.753906 170.363281 L 157.753906 167.914063 L 160.246094 167.914063 L 160.246094 169.332031 L 160.847656 169.933594 L 161.753906 169.933594 L 162.269531 169.332031 L 162.269531 166.75 L 161.839844 166.320313 L 159.171875 166.320313 L 157.792969 164.855469 L 157.792969 160.082031 L 159.429688 158.40625 L 163.171875 158.40625 L 164.808594 160.082031 L 164.808594 162.492188 L 162.269531 162.492188 L 162.269531 161.070313 L 161.753906 160.511719 L 160.890625 160.511719 L 160.289063 161.070313 L 160.289063 163.609375 L 160.761719 163.996094 L 163.429688 163.996094 L 164.808594 165.417969 L 164.808594 170.363281 L 163.171875 172 L 159.386719 172 Z M 157.753906 170.363281 "/>
<path style=" stroke:none;fill-rule:nonzero;fill:rgb(0%,0%,0%);fill-opacity:1;" d="M 27.445313 106.308594 C 27.445313 98.4375 23.1875 95.8125 14.882813 95.8125 L 0 95.8125 L 6.496094 102.308594 L 6.496094 149.757813 L 14.539063 149.757813 L 14.539063 126.097656 L 14.972656 126.097656 C 23.101563 126.097656 27.316406 123.601563 27.53125 116.117188 L 27.53125 106.308594 Z M 14.539063 102.308594 L 16.347656 102.308594 C 18.195313 102.308594 19.402344 102.910156 19.402344 104.972656 L 19.402344 116.675781 C 19.402344 118.65625 18.84375 119.644531 16.003906 119.644531 L 14.625 119.644531 L 14.625 102.308594 Z M 14.539063 102.308594 "/>
<path style=" stroke:none;fill-rule:nonzero;fill:rgb(0%,0%,0%);fill-opacity:1;" d="M 38.933594 105.582031 C 38.933594 102.867188 39.792969 102.265625 41.425781 102.265625 C 43.019531 102.265625 43.835938 102.867188 43.835938 105.582031 L 43.835938 139.953125 C 43.835938 142.707031 42.976563 143.261719 41.425781 143.261719 C 39.792969 143.261719 38.933594 142.707031 38.933594 139.953125 Z M 41.339844 149.714844 C 46.332031 149.714844 51.839844 147.691406 51.839844 140.679688 L 51.839844 104.886719 C 51.839844 97.832031 46.289063 95.8125 41.339844 95.8125 C 36.4375 95.8125 30.886719 97.832031 30.886719 104.886719 L 30.886719 140.679688 C 30.886719 147.691406 36.4375 149.714844 41.339844 149.714844 Z M 41.339844 149.714844 "/>
<path style=" stroke:none;fill-rule:nonzero;fill:rgb(0%,0%,0%);fill-opacity:1;" d="M 137.316406 105.320313 L 137.789063 105.320313 L 139.339844 126.054688 L 135.511719 126.054688 Z M 134.738281 132.507813 L 140.027344 132.507813 L 141.75 149.714844 L 149.835938 149.714844 L 143.726563 95.8125 L 131.640625 95.8125 L 125.53125 149.714844 L 132.800781 149.714844 Z M 134.738281 132.507813 "/>
<path style=" stroke:none;fill-rule:nonzero;fill:rgb(0%,0%,0%);fill-opacity:1;" d="M 193.371094 139.261719 C 193.371094 142.746094 192.382813 143.261719 190.316406 143.261719 L 188.382813 143.261719 L 188.382813 102.308594 L 190.316406 102.308594 C 192.339844 102.308594 193.371094 102.867188 193.371094 106.308594 Z M 201.375 139.953125 L 201.375 108.027344 C 201.375 98.523438 198.019531 95.8125 190.058594 95.8125 L 180.335938 95.8125 L 180.335938 149.714844 L 191.738281 149.714844 C 198.0625 149.714844 201.375 145.070313 201.375 139.953125 Z M 201.375 139.953125 "/>
<path style=" stroke:none;fill-rule:nonzero;fill:rgb(0%,0%,0%);fill-opacity:1;" d="M 63.28125 102.265625 L 65.21875 102.265625 C 67.023438 102.265625 68.273438 102.867188 68.273438 104.929688 L 68.273438 116.078125 C 68.273438 118.050781 67.667969 119.558594 64.828125 119.558594 L 63.28125 119.558594 Z M 63.410156 126.011719 C 67.152344 125.839844 68.359375 127.128906 68.359375 130.355469 L 68.359375 149.714844 L 76.144531 149.714844 C 76.144531 149.714844 76.316406 143.90625 76.144531 128.335938 C 76.101563 123.472656 73.046875 122.742188 73.046875 122.742188 C 76.574219 121.234375 76.144531 119.472656 76.144531 115.472656 L 76.101563 105.015625 C 76.101563 98.046875 72.316406 95.8125 65.863281 95.8125 L 55.238281 95.8125 L 55.238281 149.714844 L 63.367188 149.714844 L 63.367188 126.011719 Z M 63.410156 126.011719 "/>
<path style=" stroke:none;fill-rule:nonzero;fill:rgb(0%,0%,0%);fill-opacity:1;" d="M 122.132813 143.261719 L 111.894531 143.261719 L 111.894531 95.8125 L 103.804688 95.8125 L 103.804688 149.714844 L 122.132813 149.714844 Z M 122.132813 143.261719 "/>
<path style=" stroke:none;fill-rule:nonzero;fill:rgb(0%,0%,0%);fill-opacity:1;" d="M 85.4375 102.308594 L 85.4375 149.714844 L 93.480469 149.714844 L 93.480469 102.308594 L 100.40625 102.308594 L 100.40625 95.8125 L 73.992188 95.8125 L 80.53125 102.308594 Z M 85.4375 102.308594 "/>
<path style=" stroke:none;fill-rule:nonzero;fill:rgb(0%,0%,0%);fill-opacity:1;" d="M 160.546875 119.816406 L 169.625 149.714844 L 176.9375 149.714844 L 176.9375 95.8125 L 169.667969 95.8125 L 169.667969 126.054688 L 160.546875 95.8125 L 153.277344 95.8125 L 153.277344 149.714844 L 160.546875 149.714844 Z M 160.546875 119.816406 "/>
</g>
</svg>
