<?xml version="1.0" encoding="UTF-8"?>
<svg xmlns="http://www.w3.org/2000/svg" xmlns:xlink="http://www.w3.org/1999/xlink" width="57pt" height="65pt" viewBox="0 0 57 65" version="1.1">
<g id="surface1">
<path style=" stroke:none;fill-rule:nonzero;fill:rgb(100%,100%,100%);fill-opacity:1;" d="M 56.054688 0.0507813 L 48.03125 8.105469 L 41.328125 1.410156 L 34.589844 8.105469 L 27.898438 1.410156 L 21.207031 8.105469 L 14.511719 1.410156 L 7.824219 8.109375 L 0 0.210938 L 0 35.871094 C -0.0273438 43.320313 2.914063 50.476563 8.171875 55.753906 C 13.429688 61.03125 20.574219 64 28.027344 64 C 35.476563 64 42.621094 61.03125 47.878906 55.753906 C 53.140625 50.476563 56.082031 43.320313 56.054688 35.871094 Z M 56.054688 0.0507813 "/>
<path style=" stroke:none;fill-rule:nonzero;fill:rgb(38.818359%,44.700623%,47.851563%);fill-opacity:1;" d="M 2.503906 40.753906 C 3.164063 44.113281 4.492188 47.304688 6.40625 50.144531 C 7.570313 48.097656 9.902344 45.558594 14.484375 44.480469 C 14.132813 43.304688 13.816406 42.054688 13.550781 40.753906 Z M 2.503906 40.753906 "/>
<path style=" stroke:none;fill-rule:nonzero;fill:rgb(38.818359%,44.700623%,47.851563%);fill-opacity:1;" d="M 8.230469 52.558594 C 13.113281 58.328125 20.265625 61.683594 27.824219 61.753906 C 27.113281 61.390625 26.421875 60.996094 25.753906 60.566406 C 22.570313 58.507813 18.191406 54.5 15.363281 47.070313 C 10.914063 48.042969 9.027344 50.5625 8.230469 52.558594 "/>
<path style=" stroke:none;fill-rule:nonzero;fill:rgb(38.818359%,44.700623%,47.851563%);fill-opacity:1;" d="M 18.105469 46.683594 C 19.832031 51.371094 22.984375 55.402344 27.125 58.207031 C 29.203125 59.570313 31.511719 60.539063 33.941406 61.066406 C 38.117188 60.089844 41.984375 58.09375 45.203125 55.257813 C 42.664063 54.980469 40.0625 53.519531 37.316406 51.980469 C 33.027344 49.570313 27.6875 46.574219 20.476563 46.574219 C 19.695313 46.574219 18.902344 46.613281 18.105469 46.683594 "/>
<path style=" stroke:none;fill-rule:nonzero;fill:rgb(35.301208%,17.651367%,50.584412%);fill-opacity:1;" d="M 28.949219 27.632813 L 19.675781 27.632813 L 19.675781 38.671875 L 23.527344 38.671875 L 23.527344 29.816406 L 26.421875 29.816406 L 26.421875 38.671875 L 30.09375 38.671875 L 30.09375 29.179688 C 30.09375 28.335938 29.578125 27.632813 28.949219 27.632813 "/>
<path style=" stroke:none;fill-rule:nonzero;fill:rgb(35.301208%,17.651367%,50.584412%);fill-opacity:1;" d="M 31.714844 27.632813 L 31.714844 37.101563 C 31.714844 37.945313 32.226563 38.671875 32.855469 38.671875 L 42.117188 38.671875 L 42.117188 31.96875 L 38.417969 31.964844 L 38.417969 36.484375 L 35.527344 36.484375 L 35.527344 29.761719 L 42.117188 29.761719 L 42.117188 27.632813 Z M 31.714844 27.632813 "/>
<path style=" stroke:none;fill-rule:nonzero;fill:rgb(35.301208%,17.651367%,50.584412%);fill-opacity:1;" d="M 9.421875 27.632813 L 7.328125 32.089844 L 6.117188 32.089844 L 6.117188 27.632813 L 2.28125 27.632813 L 2.28125 38.671875 L 6.117188 38.671875 L 6.117188 34.230469 L 7.328125 34.230469 L 9.421875 38.671875 L 13.253906 38.671875 L 10.550781 33.160156 L 13.253906 27.632813 Z M 9.421875 27.632813 "/>
<path style=" stroke:none;fill-rule:nonzero;fill:rgb(35.301208%,17.651367%,50.584412%);fill-opacity:1;" d="M 14.273438 38.671875 L 18.242188 38.671875 L 18.242188 27.632813 L 14.273438 27.632813 Z M 14.273438 38.671875 "/>
<path style=" stroke:none;fill-rule:nonzero;fill:rgb(35.301208%,17.651367%,50.584412%);fill-opacity:1;" d="M 53.78125 30.617188 L 53.78125 27.632813 L 43.601563 27.632813 L 43.601563 32.675781 C 43.601563 33.515625 44.113281 34.199219 44.742188 34.199219 L 49.925781 34.199219 L 49.925781 36.605469 L 43.601563 36.605469 L 43.601563 38.671875 L 53.785156 38.671875 L 53.785156 33.605469 C 53.785156 32.820313 53.351563 32.085938 52.769531 32.085938 L 47.421875 32.085938 L 47.421875 29.773438 L 50.097656 29.773438 L 50.097656 30.617188 Z M 53.78125 30.617188 "/>
<path style=" stroke:none;fill-rule:nonzero;fill:rgb(35.301208%,17.651367%,50.584412%);fill-opacity:1;" d="M 42.953125 16.4375 L 39.703125 16.4375 L 46.40625 9.730469 L 41.328125 4.660156 L 34.589844 11.355469 L 27.898438 4.660156 L 16.128906 16.4375 L 12.882813 16.4375 L 19.574219 9.71875 L 14.511719 4.660156 L 7.824219 11.355469 L 2.285156 5.855469 L 2.285156 25.605469 L 53.78125 25.605469 L 53.78125 5.601563 Z M 42.953125 16.4375 "/>
<path style=" stroke:none;fill-rule:nonzero;fill:rgb(100%,100%,100%);fill-opacity:1;" d="M 13.53125 23.484375 C 13.535156 23.773438 13.765625 24.003906 14.050781 24.003906 L 16.945313 24.003906 L 16.945313 23.226563 L 14.585938 23.226563 L 14.585938 20.707031 L 16.945313 20.707031 L 16.945313 19.929688 L 13.53125 19.929688 Z M 13.53125 23.484375 "/>
<path style=" stroke:none;fill-rule:nonzero;fill:rgb(100%,100%,100%);fill-opacity:1;" d="M 11.175781 22.164063 L 9.867188 22.164063 L 9.867188 20.707031 L 11.175781 20.707031 Z M 8.816406 19.929688 L 8.816406 24.003906 L 9.867188 24.003906 L 9.867188 22.9375 L 11.175781 22.9375 L 11.175781 24.003906 L 12.226563 24.003906 L 12.226563 20.449219 C 12.222656 20.140625 11.957031 19.902344 11.648438 19.929688 Z M 8.816406 19.929688 "/>
<path style=" stroke:none;fill-rule:nonzero;fill:rgb(100%,100%,100%);fill-opacity:1;" d="M 50.808594 23.222656 L 49.507813 23.222656 L 49.507813 20.707031 L 50.808594 20.707031 Z M 51.351563 19.929688 L 48.960938 19.929688 C 48.675781 19.929688 48.445313 20.160156 48.445313 20.445313 L 48.445313 23.484375 C 48.445313 23.769531 48.675781 24.003906 48.960938 24.003906 L 51.351563 24.003906 C 51.636719 24.003906 51.867188 23.769531 51.867188 23.484375 L 51.867188 20.445313 C 51.867188 20.160156 51.632813 19.929688 51.351563 19.929688 "/>
<path style=" stroke:none;fill-rule:nonzero;fill:rgb(100%,100%,100%);fill-opacity:1;" d="M 4.09375 21.835938 C 4.09375 22.125 4.328125 22.355469 4.613281 22.355469 L 6.453125 22.355469 L 6.453125 23.226563 L 4.09375 23.226563 L 4.09375 24.003906 L 7.507813 24.003906 L 7.507813 22.097656 C 7.507813 21.832031 7.308594 21.609375 7.042969 21.582031 L 7.015625 21.578125 L 5.144531 21.578125 L 5.144531 20.707031 L 7.507813 20.707031 L 7.507813 19.929688 L 4.09375 19.929688 Z M 4.09375 21.835938 "/>
<path style=" stroke:none;fill-rule:nonzero;fill:rgb(100%,100%,100%);fill-opacity:1;" d="M 25.242188 22.164063 L 23.9375 22.164063 L 23.9375 20.707031 L 25.242188 20.707031 Z M 25.777344 19.929688 L 22.882813 19.929688 L 22.882813 24.003906 L 23.9375 24.003906 L 23.9375 22.9375 L 25.242188 22.9375 L 25.242188 24.003906 L 26.296875 24.003906 L 26.296875 20.449219 C 26.296875 20.164063 26.0625 19.929688 25.777344 19.929688 "/>
<path style=" stroke:none;fill-rule:nonzero;fill:rgb(100%,100%,100%);fill-opacity:1;" d="M 43.855469 20.703125 L 45.039063 20.703125 L 45.039063 24.003906 L 46.089844 24.003906 L 46.089844 20.703125 L 47.269531 20.703125 L 47.269531 19.929688 L 43.855469 19.929688 Z M 43.855469 20.703125 "/>
<path style=" stroke:none;fill-rule:nonzero;fill:rgb(100%,100%,100%);fill-opacity:1;" d="M 32.933594 19.929688 L 27.695313 19.929688 L 27.695313 24.003906 L 28.75 24.003906 L 28.75 20.707031 L 30.039063 20.707031 L 30.039063 24.003906 L 31.109375 24.003906 L 31.109375 20.707031 L 32.398438 20.707031 L 32.398438 24.003906 L 33.453125 24.003906 L 33.453125 20.449219 C 33.449219 20.164063 33.21875 19.933594 32.933594 19.929688 "/>
<path style=" stroke:none;fill-rule:nonzero;fill:rgb(100%,100%,100%);fill-opacity:1;" d="M 42.269531 19.929688 L 39.378906 19.929688 L 39.378906 24.003906 L 40.429688 24.003906 L 40.429688 20.707031 L 41.734375 20.707031 L 41.734375 24.003906 L 42.789063 24.003906 L 42.789063 20.449219 C 42.789063 20.164063 42.554688 19.929688 42.269531 19.929688 "/>
<path style=" stroke:none;fill-rule:nonzero;fill:rgb(100%,100%,100%);fill-opacity:1;" d="M 34.886719 23.484375 C 34.886719 23.773438 35.117188 24.003906 35.40625 24.003906 L 38.296875 24.003906 L 38.296875 23.226563 L 35.941406 23.226563 L 35.941406 22.355469 L 38.296875 22.355469 L 38.296875 21.582031 L 35.941406 21.582031 L 35.941406 20.707031 L 38.296875 20.707031 L 38.296875 19.929688 L 34.886719 19.929688 Z M 34.886719 23.484375 "/>
<path style=" stroke:none;fill-rule:nonzero;fill:rgb(100%,100%,100%);fill-opacity:1;" d="M 20.515625 21.746094 L 19.210938 21.746094 L 19.210938 20.707031 L 20.515625 20.707031 Z M 21.007813 22.523438 L 21.570313 22.523438 L 21.570313 20.449219 C 21.5625 20.140625 21.296875 19.90625 20.992188 19.929688 L 18.15625 19.929688 L 18.15625 24.003906 L 19.210938 24.003906 L 19.210938 22.523438 L 19.972656 22.523438 L 20.605469 24.003906 L 21.632813 24.003906 Z M 21.007813 22.523438 "/>
<path style=" stroke:none;fill-rule:nonzero;fill:rgb(38.818359%,44.700623%,47.851563%);fill-opacity:1;" d="M 19.914063 43.882813 C 25.398438 43.769531 30.824219 45.144531 37.75 49.089844 C 42.867188 52.003906 45.113281 52.890625 46.648438 52.511719 C 48.0625 52.164063 49.375 51.328125 51.6875 46.4375 C 52.515625 44.621094 53.128906 42.714844 53.511719 40.757813 L 16.292969 40.757813 C 16.550781 41.882813 16.804688 43.003906 17.148438 44.035156 C 18.066406 43.933594 18.988281 43.882813 19.914063 43.882813 "/>
</g>
</svg>
