<?xml version="1.0" encoding="UTF-8"?>
<svg xmlns="http://www.w3.org/2000/svg" xmlns:xlink="http://www.w3.org/1999/xlink" width="290pt" height="132pt" viewBox="0 0 290 132" version="1.1">
<g id="surface1">
<path style=" stroke:none;fill-rule:nonzero;fill:rgb(100%,100%,100%);fill-opacity:1;" d="M 110.082031 84.039063 L 116.390625 84.039063 L 114.492188 88.816406 Z M 102.550781 105.46875 L 92.511719 120.347656 L 108.980469 114.957031 L 115.65625 131 L 120.675781 113.734375 L 139.226563 118.511719 L 127.226563 104.613281 L 141.613281 92.671875 L 128.757813 93.46875 L 137.265625 83.917969 L 153.859375 83.917969 L 172.839844 50.304688 L 172.839844 28.140625 L 159.371094 28.140625 L 152.941406 39.589844 L 151.714844 48.222656 L 142.042969 65.425781 L 133.164063 65.425781 L 141.859375 50.058594 L 141.859375 28.203125 L 127.898438 28.203125 L 121.65625 39.589844 L 120.550781 48.285156 L 105.367188 75.40625 L 107.695313 81.40625 L 104.757813 78.222656 L 105.980469 94.570313 L 88.285156 95.367188 Z M 102.550781 105.46875 "/>
<path style=" stroke:none;fill-rule:nonzero;fill:rgb(0%,0%,0%);fill-opacity:1;" d="M 30.675781 65.425781 C 25.226563 66.835938 19.652344 68.367188 14.265625 69.835938 C 13.652344 70.019531 13.101563 70.265625 12.550781 70.386719 L 12.550781 56.671875 C 13.410156 56.425781 14.144531 56.183594 15 56 C 19.46875 54.652344 23.9375 53.488281 28.410156 52.324219 C 29.144531 52.082031 30 51.957031 30.734375 51.714844 L 30.734375 59.183594 C 34.960938 58.082031 39.121094 57.101563 43.285156 56.183594 L 43.285156 47.058594 C 41.816406 44.917969 40.410156 42.710938 38.878906 40.386719 C 37.835938 40.632813 36.734375 40.9375 35.695313 41.183594 L 35.511719 41.183594 C 26.570313 43.324219 17.695313 45.714844 8.878906 48.40625 C 8.546875 48.488281 8.21875 48.589844 7.898438 48.714844 C 6.777344 49.003906 5.675781 49.351563 4.59375 49.753906 C 3.0625 52.875 1.59375 56 0.183594 59 L 0.183594 77.425781 C 2.386719 78.957031 4.59375 80.488281 6.855469 82.082031 C 8.695313 81.53125 10.46875 80.917969 12.304688 80.425781 C 17.9375 78.714844 23.570313 77.242188 29.144531 75.773438 C 29.753906 75.652344 30.367188 75.46875 30.980469 75.347656 L 30.980469 89.613281 C 30.246094 89.796875 29.386719 89.980469 28.652344 90.222656 C 24 91.386719 19.347656 92.613281 14.753906 94.019531 C 13.960938 94.203125 13.164063 94.449219 12.367188 94.691406 L 12.367188 87.222656 C 8.265625 88.449219 4.101563 89.734375 0 91.019531 L 0 100.203125 C 1.46875 102.285156 2.878906 104.367188 4.347656 106.449219 C 5.386719 106.140625 6.488281 105.773438 7.59375 105.46875 C 7.949219 105.339844 8.320313 105.234375 8.695313 105.164063 C 17.632813 102.40625 26.632813 99.957031 35.753906 97.816406 C 36.917969 97.507813 37.960938 97.265625 39.121094 97.019531 C 40.652344 94.082031 42.0625 91.082031 43.59375 88.203125 L 43.59375 69.222656 C 41.386719 67.507813 39.121094 65.671875 36.917969 63.957031 C 34.652344 64.449219 32.632813 65 30.675781 65.425781 Z M 30.675781 65.425781 "/>
<path style=" stroke:none;fill-rule:nonzero;fill:rgb(0%,0%,0%);fill-opacity:1;" d="M 289.042969 81.164063 C 286.839844 78.222656 284.636719 75.222656 282.433594 72.285156 C 280.472656 71.671875 278.453125 71.058594 276.492188 70.449219 C 271.042969 68.855469 265.59375 67.324219 260.085938 65.980469 C 259.472656 65.855469 258.921875 65.671875 258.308594 65.550781 L 258.308594 51.714844 C 259.105469 51.957031 259.902344 52.082031 260.699219 52.324219 C 265.167969 53.488281 269.699219 54.652344 274.167969 56 C 274.902344 56.183594 275.757813 56.425781 276.492188 56.671875 L 276.492188 64.082031 C 280.65625 65.304688 284.757813 66.589844 288.859375 67.875 L 288.859375 58.753906 C 287.453125 55.753906 285.984375 52.753906 284.574219 49.753906 C 283.472656 49.449219 282.433594 49.082031 281.332031 48.773438 C 281.269531 48.773438 281.269531 48.773438 281.207031 48.714844 C 272.390625 45.957031 263.515625 43.507813 254.574219 41.425781 C 254.257813 41.316406 253.929688 41.234375 253.59375 41.183594 C 252.433594 40.875 251.328125 40.632813 250.167969 40.324219 C 248.636719 42.589844 247.105469 44.917969 245.636719 47.183594 L 245.636719 65.609375 C 247.902344 68.367188 250.105469 71.121094 252.371094 73.875 C 254.207031 74.367188 256.105469 74.796875 257.882813 75.222656 C 263.515625 76.691406 269.148438 78.222656 274.777344 79.816406 C 275.390625 79.9375 275.941406 80.183594 276.492188 80.304688 L 276.492188 94.570313 C 275.757813 94.386719 274.902344 94.140625 274.167969 93.898438 C 269.515625 92.550781 264.859375 91.324219 260.269531 90.101563 C 259.472656 89.917969 258.675781 89.734375 257.882813 89.488281 L 257.882813 82.019531 C 253.71875 80.917969 249.554688 79.9375 245.390625 79.019531 L 245.390625 88.203125 C 246.800781 91.082031 248.269531 94.019531 249.800781 96.898438 C 250.839844 97.082031 252.003906 97.386719 253.042969 97.632813 C 253.410156 97.691406 253.71875 97.816406 254.085938 97.875 C 263.207031 100.082031 272.269531 102.46875 281.207031 105.285156 C 282.371094 105.589844 283.410156 105.957031 284.453125 106.265625 C 285.921875 104.183594 288.800781 99.835938 288.800781 99.835938 C 289.042969 100.082031 289.042969 87.46875 289.042969 81.164063 Z M 289.042969 81.164063 "/>
<path style=" stroke:none;fill-rule:nonzero;fill:rgb(0%,0%,0%);fill-opacity:1;" d="M 87.859375 43.691406 L 87.859375 59.671875 C 86.816406 59.855469 85.960938 59.917969 84.917969 60.039063 C 79.46875 60.773438 74.019531 61.570313 68.632813 62.425781 L 68.632813 43.507813 C 74.082031 42.589844 79.46875 41.855469 84.917969 41.183594 C 85.960938 41 86.816406 40.9375 87.859375 40.816406 Z M 92.328125 31.324219 C 91.898438 31.386719 91.65625 31.386719 91.226563 31.449219 C 79.410156 32.792969 67.652344 34.632813 55.960938 36.835938 L 55.960938 93.46875 C 60.125 92.613281 64.410156 91.875 68.632813 91.203125 L 68.632813 71.425781 C 76.164063 70.265625 83.757813 69.164063 91.226563 68.242188 C 91.65625 68.183594 91.898438 68.183594 92.328125 68.121094 C 93.429688 67.9375 94.59375 67.875 95.695313 67.753906 C 97.285156 64.753906 98.941406 61.875 100.59375 58.9375 L 100.59375 38.609375 C 99 36.039063 97.410156 33.34375 95.695313 30.773438 C 94.59375 31.019531 93.429688 31.140625 92.328125 31.324219 Z M 92.328125 31.324219 "/>
<path style=" stroke:none;fill-rule:nonzero;fill:rgb(0%,0%,0%);fill-opacity:1;" d="M 217.289063 59.609375 C 211.777344 58.753906 206.207031 57.957031 200.695313 57.347656 L 200.695313 40.632813 C 206.328125 41.304688 211.839844 42.101563 217.472656 43.019531 C 218.390625 43.140625 219.371094 43.324219 220.289063 43.449219 L 220.289063 60.160156 C 219.308594 59.917969 218.269531 59.792969 217.289063 59.609375 Z M 228.433594 65.980469 C 229.960938 65.367188 231.433594 64.875 232.960938 64.265625 L 232.960938 44.671875 C 230.269531 41.550781 227.636719 38.425781 224.941406 35.304688 C 212.695313 33.222656 200.390625 31.507813 188.023438 30.40625 L 188.023438 87.039063 C 192.246094 87.40625 196.535156 87.835938 200.757813 88.386719 L 200.757813 66.222656 C 204.003906 66.589844 207.308594 67.082031 210.554688 67.507813 C 211.59375 67.632813 212.757813 67.816406 213.800781 67.9375 C 216.003906 68.242188 218.144531 68.671875 220.351563 68.917969 L 220.351563 91.082031 C 220.59375 91.082031 220.777344 91.203125 221.023438 91.203125 C 225.0625 91.875 228.984375 92.550781 233.023438 93.285156 L 233.023438 69.222656 C 231.433594 68.183594 229.960938 67.140625 228.433594 65.976563 Z M 228.433594 65.980469 "/>
<path style=" stroke:none;fill-rule:nonzero;fill:rgb(0%,0%,0%);fill-opacity:1;" d="M 53.386719 16.445313 C 51.550781 16.753906 49.835938 17.121094 48.0625 17.488281 C 47.851563 17.519531 47.644531 17.582031 47.449219 17.671875 L 47.449219 13.140625 C 47.695313 13.078125 48 13.078125 48.183594 13.019531 C 49.652344 12.710938 51.125 12.46875 52.59375 12.160156 C 52.835938 12.101563 53.144531 12.101563 53.386719 12.039063 L 53.386719 14.425781 C 54.734375 14.242188 56.082031 13.9375 57.492188 13.691406 L 57.492188 10.753906 C 57 9.957031 56.570313 9.285156 56.019531 8.550781 C 55.679688 8.621094 55.332031 8.660156 54.980469 8.671875 L 54.917969 8.671875 C 51.980469 9.222656 49.101563 9.773438 46.226563 10.386719 C 46.125 10.414063 46.023438 10.433594 45.917969 10.445313 C 45.550781 10.507813 45.183594 10.570313 44.878906 10.628906 C 44.449219 11.671875 43.898438 12.527344 43.410156 13.570313 L 43.410156 19.570313 C 44.203125 20.121094 44.878906 20.671875 45.613281 21.285156 L 47.449219 20.917969 C 49.285156 20.550781 51.125 20.242188 52.898438 19.816406 C 53.144531 19.816406 53.328125 19.753906 53.511719 19.753906 L 53.511719 24.34375 C 53.328125 24.40625 53.019531 24.40625 52.777344 24.46875 C 51.246094 24.773438 49.714844 25.078125 48.183594 25.324219 C 48 25.386719 47.695313 25.386719 47.449219 25.449219 L 47.449219 23.058594 C 46.101563 23.367188 44.695313 23.550781 43.410156 23.855469 L 43.410156 26.855469 C 43.898438 27.589844 44.328125 28.265625 44.878906 29 C 45.246094 28.9375 45.550781 28.875 45.917969 28.816406 C 46.101563 28.816406 46.164063 28.753906 46.285156 28.753906 C 49.285156 28.140625 52.164063 27.589844 55.101563 27.039063 C 55.46875 26.976563 55.898438 26.917969 56.203125 26.855469 C 56.632813 25.9375 57.183594 25.019531 57.613281 24.039063 L 57.613281 17.855469 C 56.878906 17.242188 56.203125 16.632813 55.410156 16.078125 C 54.734375 16.203125 54.0625 16.261719 53.386719 16.445313 Z M 53.386719 16.445313 "/>
<path style=" stroke:none;fill-rule:nonzero;fill:rgb(0%,0%,0%);fill-opacity:1;" d="M 68.082031 17.550781 C 68.878906 14.550781 69.613281 11.488281 70.285156 8.367188 C 71.082031 11.183594 71.757813 14.058594 72.492188 16.875 C 71.082031 17.121094 69.550781 17.367188 68.082031 17.550781 Z M 67.46875 6.589844 C 65.816406 12.957031 64.164063 19.324219 62.386719 25.691406 C 63.675781 25.449219 64.960938 25.203125 66.308594 25.078125 C 66.675781 23.609375 66.980469 22.203125 67.347656 20.855469 C 69.308594 20.550781 71.265625 20.242188 73.347656 19.9375 C 73.714844 21.222656 74.019531 22.570313 74.390625 23.855469 C 75.734375 23.609375 77.207031 23.488281 78.550781 23.242188 C 76.898438 17.367188 75.246094 11.488281 73.46875 5.671875 C 71.449219 5.976563 69.492188 6.285156 67.46875 6.589844 Z M 67.46875 6.589844 "/>
<path style=" stroke:none;fill-rule:nonzero;fill:rgb(0%,0%,0%);fill-opacity:1;" d="M 94.101563 15.285156 C 92.023438 11.425781 89.816406 7.628906 87.675781 3.773438 C 86.265625 3.894531 84.796875 4.078125 83.328125 4.261719 L 83.328125 22.632813 C 84.550781 22.507813 85.777344 22.324219 87 22.203125 L 87 9.894531 C 89.144531 13.753906 91.226563 17.671875 93.367188 21.527344 C 94.839844 21.34375 96.246094 21.222656 97.777344 21.039063 L 97.777344 2.671875 C 96.550781 2.855469 95.328125 2.917969 94.101563 3.101563 Z M 94.101563 15.285156 "/>
<path style=" stroke:none;fill-rule:nonzero;fill:rgb(0%,0%,0%);fill-opacity:1;" d="M 116.695313 12.46875 C 117.429688 9.527344 118.164063 6.46875 118.960938 3.527344 C 119.695313 6.40625 120.367188 9.34375 121.164063 12.285156 C 119.632813 12.34375 118.164063 12.40625 116.695313 12.46875 Z M 116.082031 1.386719 C 114.367188 7.628906 112.65625 13.875 111 20.058594 C 112.289063 20 113.574219 19.9375 114.921875 19.816406 C 115.289063 18.46875 115.59375 17.058594 115.960938 15.652344 C 117.980469 15.527344 120 15.46875 121.960938 15.34375 C 122.390625 16.753906 122.695313 18.101563 123.0625 19.449219 C 124.472656 19.386719 125.878906 19.324219 127.289063 19.324219 C 125.632813 13.261719 123.859375 7.261719 122.207031 1.203125 C 120.0625 1.203125 118.042969 1.261719 116.082031 1.386719 Z M 116.082031 1.386719 "/>
<path style=" stroke:none;fill-rule:nonzero;fill:rgb(0%,0%,0%);fill-opacity:1;" d="M 144.003906 12.773438 C 141.859375 8.671875 139.65625 4.691406 137.511719 0.652344 C 136.105469 0.652344 134.632813 0.710938 133.226563 0.710938 L 133.226563 19.078125 C 134.449219 19.078125 135.613281 19.019531 136.839844 19.019531 L 136.839844 6.652344 C 138.980469 10.753906 141.125 14.734375 143.207031 18.835938 L 147.613281 18.835938 L 147.613281 0.589844 L 144.003906 0.589844 Z M 144.003906 12.773438 "/>
<path style=" stroke:none;fill-rule:nonzero;fill:rgb(0%,0%,0%);fill-opacity:1;" d="M 153.613281 3.957031 C 155.328125 3.957031 156.980469 4.078125 158.636719 4.140625 L 158.636719 19.140625 C 159.980469 19.261719 161.390625 19.261719 162.738281 19.324219 L 162.738281 4.261719 C 164.390625 4.386719 166.105469 4.445313 167.757813 4.507813 L 167.757813 1.261719 C 163.042969 1.019531 158.328125 0.894531 153.613281 0.773438 Z M 153.613281 3.957031 "/>
<path style=" stroke:none;fill-rule:nonzero;fill:rgb(0%,0%,0%);fill-opacity:1;" d="M 205.226563 16.507813 C 203.085938 12.160156 201.003906 7.875 198.796875 3.527344 C 197.328125 3.34375 195.921875 3.222656 194.453125 3.101563 L 194.453125 21.46875 C 195.675781 21.589844 196.902344 21.652344 198.125 21.835938 L 198.125 9.527344 C 200.207031 13.875 202.351563 18.160156 204.492188 22.570313 C 205.902344 22.753906 207.371094 22.9375 208.777344 23.121094 L 208.777344 4.753906 C 207.613281 4.570313 206.390625 4.445313 205.167969 4.261719 L 205.167969 16.507813 Z M 205.226563 16.507813 "/>
<path style=" stroke:none;fill-rule:nonzero;fill:rgb(0%,0%,0%);fill-opacity:1;" d="M 214.777344 8.367188 C 215.878906 8.550781 216.859375 8.671875 217.902344 8.855469 L 217.902344 21.527344 C 216.859375 21.34375 215.878906 21.222656 214.777344 21.039063 L 214.777344 23.855469 C 218.207031 24.34375 221.636719 24.835938 225.0625 25.449219 L 225.0625 22.632813 C 223.960938 22.507813 222.984375 22.324219 221.941406 22.140625 L 221.941406 9.46875 C 222.984375 9.589844 223.960938 9.773438 225.0625 9.957031 L 225.0625 7.140625 C 221.636719 6.652344 218.207031 6.101563 214.777344 5.550781 Z M 214.777344 8.367188 "/>
<path style=" stroke:none;fill-rule:nonzero;fill:rgb(0%,0%,0%);fill-opacity:1;" d="M 184.347656 6.34375 L 184.347656 17.488281 C 183.980469 17.488281 183.675781 17.425781 183.308594 17.425781 C 181.839844 17.242188 180.429688 17.183594 178.960938 17.121094 C 178.59375 17.121094 178.289063 17.058594 177.921875 17.058594 L 177.921875 4.8125 C 178.289063 4.8125 178.59375 4.875 178.960938 4.875 C 180.429688 5 181.839844 5.121094 183.308594 5.183594 C 183.675781 5.183594 183.980469 5.242188 184.347656 5.242188 Z M 186.859375 2.367188 C 186.492188 2.367188 186.125 2.304688 185.757813 2.304688 C 182.757813 2.058594 179.878906 1.875 176.941406 1.628906 L 176.574219 1.628906 C 176.144531 1.628906 175.777344 1.570313 175.410156 1.570313 C 174.859375 2.367188 174.371094 3.285156 173.820313 4.140625 L 173.820313 17.058594 C 174.371094 17.917969 174.859375 18.957031 175.410156 19.816406 C 175.777344 19.816406 176.144531 19.9375 176.574219 19.9375 L 176.941406 19.9375 C 179.878906 20.121094 182.757813 20.304688 185.757813 20.609375 C 186.125 20.609375 186.492188 20.671875 186.859375 20.671875 C 187.410156 19.816406 187.960938 18.957031 188.453125 18.101563 L 188.453125 5.183594 C 187.960938 4.261719 187.410156 3.34375 186.859375 2.367188 Z M 186.859375 2.367188 "/>
<path style=" stroke:none;fill-rule:nonzero;fill:rgb(0%,0%,0%);fill-opacity:1;" d="M 241.535156 14.242188 L 241.535156 25.386719 C 241.167969 25.324219 240.859375 25.203125 240.433594 25.140625 C 239.023438 24.835938 237.554688 24.652344 236.144531 24.34375 C 235.785156 24.234375 235.417969 24.152344 235.042969 24.101563 L 235.042969 11.855469 C 235.40625 11.964844 235.773438 12.046875 236.144531 12.101563 C 237.554688 12.40625 239.023438 12.652344 240.433594 12.957031 C 240.859375 13.019531 241.167969 13.078125 241.535156 13.140625 Z M 245.511719 13.628906 C 245.023438 12.652344 244.472656 11.550781 244.042969 10.570313 C 243.617188 10.507813 243.25 10.445313 242.882813 10.386719 C 240.003906 9.773438 237.125 9.222656 234.125 8.671875 C 234.003906 8.671875 233.878906 8.609375 233.757813 8.609375 C 233.386719 8.558594 233.015625 8.476563 232.65625 8.367188 C 232.101563 9.152344 231.589844 9.972656 231.125 10.8125 L 231.125 23.734375 C 231.675781 24.710938 232.167969 25.691406 232.65625 26.671875 C 233.023438 26.734375 233.390625 26.855469 233.757813 26.917969 C 233.882813 26.925781 234.003906 26.945313 234.125 26.976563 C 237.066406 27.527344 240.003906 28.019531 242.882813 28.632813 C 243.261719 28.746094 243.648438 28.828125 244.042969 28.875 C 244.535156 28.019531 245.085938 27.285156 245.511719 26.425781 Z M 245.511719 13.628906 "/>
<path style=" stroke:none;fill-rule:nonzero;fill:rgb(0%,0%,0%);fill-opacity:1;" d="M 122.574219 49.082031 L 107.632813 75.652344 L 110.144531 81.835938 L 119.390625 81.835938 L 115.164063 92.550781 L 107.265625 83.980469 L 108.183594 96.589844 L 94.410156 97.203125 L 105.367188 104.855469 L 97.59375 116.429688 L 110.144531 112.386719 L 115.285156 124.816406 L 119.265625 111.222656 L 133.226563 114.773438 L 124.164063 104.367188 L 135.246094 95.183594 L 123.796875 95.917969 L 136.226563 81.835938 L 152.574219 81.835938 L 170.632813 49.816406 L 170.632813 30.34375 L 160.472656 30.34375 L 154.59375 40.691406 L 153.613281 49.082031 L 143.144531 67.753906 L 129.429688 67.753906 L 139.65625 49.691406 L 139.65625 30.40625 L 129.0625 30.40625 L 123.429688 40.691406 Z M 122.574219 49.082031 "/>
<path style=" stroke:none;fill-rule:nonzero;fill:rgb(76.951599%,80.859375%,83.201599%);fill-opacity:1;" d="M 166.839844 33.222656 L 162.0625 33.222656 L 158.390625 39.652344 L 163.347656 39.652344 Z M 166.839844 33.222656 "/>
<path style=" stroke:none;fill-rule:nonzero;fill:rgb(76.951599%,80.859375%,83.201599%);fill-opacity:1;" d="M 135.921875 33.222656 L 130.839844 33.222656 L 127.226563 39.652344 L 132.613281 39.652344 Z M 135.921875 33.222656 "/>
<path style=" stroke:none;fill-rule:nonzero;fill:rgb(76.951599%,80.859375%,83.201599%);fill-opacity:1;" d="M 126.308594 74.242188 L 115.65625 98.550781 L 110.878906 93.40625 L 111.367188 99.898438 L 104.207031 100.203125 L 109.898438 104.246094 L 105.917969 110.246094 L 112.410156 108.101563 L 115.105469 114.53125 L 117.125 107.488281 L 124.410156 109.386719 L 119.695313 103.9375 L 125.449219 99.164063 L 117.367188 99.714844 L 116.816406 99.714844 L 133.59375 74.367188 L 148.164063 74.367188 L 161.085938 51.285156 L 156.0625 51.285156 L 145.226563 70.324219 L 119.144531 70.324219 L 130.042969 51.285156 L 124.960938 51.285156 L 111.796875 74.367188 L 126.308594 74.367188 Z M 126.308594 74.242188 "/>
<path style=" stroke:none;fill-rule:nonzero;fill:rgb(76.951599%,80.859375%,83.201599%);fill-opacity:1;" d="M 131.265625 42.285156 L 126.554688 42.285156 L 125.941406 47.855469 L 130.777344 47.855469 Z M 131.265625 42.285156 "/>
<path style=" stroke:none;fill-rule:nonzero;fill:rgb(76.951599%,80.859375%,83.201599%);fill-opacity:1;" d="M 162.308594 42.285156 L 157.65625 42.285156 L 157.042969 47.855469 L 161.820313 47.855469 Z M 162.308594 42.285156 "/>
<path style=" stroke:none;fill-rule:nonzero;fill:rgb(0%,0%,0%);fill-opacity:1;" d="M 113.390625 105.773438 C 114.542969 105.804688 115.503906 104.890625 115.53125 103.734375 C 115.53125 103.699219 115.53125 103.667969 115.53125 103.632813 C 115.539063 102.457031 114.59375 101.496094 113.417969 101.488281 C 113.40625 101.488281 113.398438 101.488281 113.390625 101.488281 C 110.613281 101.570313 110.613281 105.695313 113.390625 105.773438 Z M 113.390625 105.773438 "/>
</g>
</svg>
