<?xml version="1.0" encoding="UTF-8"?>
<svg xmlns="http://www.w3.org/2000/svg" xmlns:xlink="http://www.w3.org/1999/xlink" width="182pt" height="183pt" viewBox="0 0 182 183" version="1.1">
<g id="surface1">
<path style=" stroke:none;fill-rule:nonzero;fill:rgb(80.46875%,6.665039%,25.488281%);fill-opacity:1;" d="M 181.078125 91.546875 C 181.042969 128.160156 158.960938 161.144531 125.125 175.136719 C 91.289063 189.117188 52.363281 181.351563 26.488281 155.453125 C 0.609375 129.546875 -7.117188 90.609375 6.902344 56.789063 C 20.917969 22.972656 53.929688 0.921875 90.539063 0.921875 C 140.5625 0.960938 181.089844 41.523438 181.078125 91.546875 Z M 181.078125 91.546875 "/>
<path style=" stroke:none;fill-rule:nonzero;fill:rgb(0%,0%,0%);fill-opacity:1;" d="M 90.539063 177.316406 C 43.316406 177.3125 4.960938 139.171875 4.691406 91.953125 C 4.417969 44.730469 42.328125 6.148438 89.550781 5.601563 L 90.539063 5.601563 C 125.09375 5.597656 156.285156 26.308594 169.6875 58.15625 C 183.085938 90.011719 176.085938 126.789063 151.921875 151.488281 C 136.011719 167.816406 114.238281 177.117188 91.441406 177.316406 Z M 90.539063 177.316406 "/>
<path style=" stroke:none;fill-rule:nonzero;fill:rgb(100%,100%,100%);fill-opacity:1;" d="M 90.269531 17.84375 L 89.371094 18.738281 L 89.371094 29.722656 L 90.269531 30.617188 L 93.238281 30.617188 L 94.140625 29.722656 L 94.140625 18.738281 L 93.238281 17.84375 Z M 99 32.601563 L 95.941406 35.566406 L 87.570313 35.566406 L 84.601563 32.601563 L 84.601563 15.949219 L 87.570313 12.980469 L 95.941406 12.980469 L 98.910156 15.949219 L 98.910156 32.601563 Z M 99 32.601563 "/>
<path style=" stroke:none;fill-rule:nonzero;fill:rgb(100%,100%,100%);fill-opacity:1;" d="M 156.871094 57.4375 L 155.699219 57.078125 L 145.890625 61.851563 L 145.441406 63.019531 L 146.699219 65.722656 L 147.871094 66.171875 L 157.769531 61.398438 L 158.21875 60.230469 Z M 147.421875 71.65625 L 143.460938 70.222656 L 139.859375 62.746094 L 141.300781 58.699219 L 156.238281 51.59375 L 160.199219 52.9375 L 163.800781 60.496094 L 162.449219 64.550781 Z M 147.421875 71.65625 "/>
<path style=" stroke:none;fill-rule:nonzero;fill:rgb(100%,100%,100%);fill-opacity:1;" d="M 37.980469 41.148438 L 37.980469 42.40625 L 45.898438 50.0625 L 47.160156 50.0625 L 49.320313 47.898438 L 49.320313 46.550781 L 41.488281 38.898438 L 40.140625 38.898438 Z M 54.539063 45.109375 L 54.628906 49.34375 L 48.78125 55.367188 L 44.550781 55.367188 L 32.671875 43.851563 L 32.578125 39.617188 L 38.429688 33.59375 L 42.75 33.496094 Z M 54.539063 45.109375 "/>
<path style=" stroke:none;fill-rule:nonzero;fill:rgb(100%,100%,100%);fill-opacity:1;" d="M 129.691406 22.519531 L 120.960938 43.3125 L 117.269531 41.777344 L 116.371094 27.019531 L 111.238281 39.171875 L 107.28125 37.550781 L 116.101563 16.761719 L 120.960938 18.828125 L 121.050781 31.789063 L 125.640625 20.8125 Z M 129.691406 22.519531 "/>
<path style=" stroke:none;fill-rule:nonzero;fill:rgb(100%,100%,100%);fill-opacity:1;" d="M 62.460938 29.359375 L 65.96875 27.738281 C 66.160156 27.363281 66.308594 26.976563 66.421875 26.566406 L 65.25 23.777344 L 63.988281 23.328125 L 60.480469 24.949219 Z M 71.640625 27.289063 L 70.648438 30.800781 L 76.949219 36.921875 L 72.539063 38.898438 L 66.691406 33.230469 L 64.621094 34.222656 L 67.589844 41.0625 L 63.539063 42.769531 L 54.539063 22.066406 L 64.261719 17.84375 L 68.398438 19.550781 Z M 71.640625 27.289063 "/>
<path style=" stroke:none;fill-rule:nonzero;fill:rgb(100%,100%,100%);fill-opacity:1;" d="M 147.421875 42.769531 L 144.449219 39.890625 L 132.03125 52.488281 L 128.699219 49.246094 L 141.121094 36.5625 L 138.148438 33.683594 L 141.570313 30.171875 L 150.839844 39.351563 Z M 147.421875 42.769531 "/>
<path style=" stroke:none;fill-rule:nonzero;fill:rgb(100%,100%,100%);fill-opacity:1;" d="M 27 55.640625 L 25.289063 59.421875 L 41.488281 66.617188 L 39.601563 70.9375 L 23.398438 63.738281 L 21.691406 67.519531 L 17.191406 65.449219 L 22.589844 53.65625 Z M 27 55.640625 "/>
<path style=" stroke:none;fill-rule:nonzero;fill:rgb(100%,100%,100%);fill-opacity:1;" d="M 150.75 113.238281 L 148.5 117.472656 L 146.878906 116.65625 L 146.429688 117.472656 L 145.078125 120.167969 L 145.441406 121.34375 L 147.691406 122.601563 L 147.421875 122.417969 L 148.589844 122.0625 L 151.289063 117.019531 L 155.429688 115.761719 L 162.269531 119.269531 L 163.441406 123.316406 L 159.570313 130.789063 L 155.519531 132.046875 L 152.101563 130.246094 L 154.351563 126.019531 L 156.058594 126.917969 L 157.949219 123.40625 L 157.5 122.148438 L 155.699219 121.246094 L 154.441406 121.609375 L 151.921875 126.5625 L 147.691406 127.816406 L 140.851563 124.3125 L 139.5 120.167969 L 143.371094 112.703125 L 147.511719 111.527344 Z M 150.75 113.238281 "/>
<path style=" stroke:none;fill-rule:nonzero;fill:rgb(100%,100%,100%);fill-opacity:1;" d="M 32.039063 119.722656 L 33.839844 123.140625 C 34.246094 123.332031 34.667969 123.480469 35.101563 123.59375 L 37.800781 122.148438 L 38.160156 120.890625 L 36.359375 117.472656 Z M 34.738281 128.8125 L 31.140625 128.09375 L 25.46875 134.746094 L 23.21875 130.519531 L 28.441406 124.3125 L 27.359375 122.238281 L 20.699219 125.65625 L 18.71875 121.789063 L 38.699219 111.351563 L 43.648438 120.710938 L 42.300781 124.851563 Z M 34.738281 128.8125 "/>
<path style=" stroke:none;fill-rule:nonzero;fill:rgb(100%,100%,100%);fill-opacity:1;" d="M 65.96875 152.117188 L 69.121094 153.472656 L 70.289063 152.933594 L 71.550781 150.046875 L 71.101563 148.882813 L 67.859375 147.527344 Z M 64.261719 156.082031 L 61.019531 163.90625 L 57.058594 162.289063 L 65.699219 141.40625 L 75.238281 145.367188 L 76.859375 149.417969 L 73.710938 157.066406 L 70.558594 158.6875 Z M 64.261719 156.082031 "/>
<path style=" stroke:none;fill-rule:nonzero;fill:rgb(100%,100%,100%);fill-opacity:1;" d="M 98.550781 152.210938 L 94.410156 152.296875 L 94.589844 169.9375 L 89.820313 170.027344 L 89.640625 152.296875 L 85.589844 152.390625 L 85.5 147.4375 L 98.460938 147.351563 Z M 98.550781 152.210938 "/>
<path style=" stroke:none;fill-rule:nonzero;fill:rgb(100%,100%,100%);fill-opacity:1;" d="M 111.421875 148.972656 L 110.878906 150.140625 L 114.75 160.398438 L 115.921875 160.851563 L 118.800781 159.769531 L 119.339844 158.601563 L 115.46875 148.34375 L 114.300781 147.890625 Z M 124.738281 159.59375 L 123.121094 163.460938 L 115.289063 166.433594 L 111.421875 164.722656 L 105.480469 149.148438 L 107.191406 145.277344 L 115.019531 142.3125 L 118.890625 144.019531 Z M 124.738281 159.59375 "/>
<path style=" stroke:none;fill-rule:nonzero;fill:rgb(100%,100%,100%);fill-opacity:1;" d="M 133.109375 142.398438 L 136.078125 139.789063 L 136.171875 138.617188 L 134.191406 136.1875 L 133.019531 136.101563 L 130.050781 138.617188 Z M 141.300781 137.722656 L 141.390625 141.40625 L 149.21875 145.546875 L 145.53125 148.609375 L 138.328125 144.917969 L 136.621094 146.453125 L 141.390625 152.117188 L 138.148438 154.996094 L 123.480469 137.722656 L 131.488281 130.972656 L 135.898438 131.332031 Z M 141.300781 137.722656 "/>
<path style=" stroke:none;fill-rule:nonzero;fill:rgb(100%,100%,100%);fill-opacity:1;" d="M 45.71875 145.546875 L 48.871094 139.34375 L 42.839844 142.9375 Z M 45.628906 156.261719 L 42.121094 153.019531 L 43.738281 149.6875 L 38.878906 145.1875 L 35.640625 147.167969 L 32.128906 143.84375 L 52.558594 131.601563 L 56.070313 134.84375 Z M 45.628906 156.261719 "/>
<path style=" stroke:none;fill-rule:nonzero;fill:rgb(62.693787%,62.693787%,63.867188%);fill-opacity:1;" d="M 108.089844 136.90625 L 108.269531 137.09375 C 108.511719 137.078125 108.753906 137.046875 108.988281 136.996094 L 109.53125 136.816406 L 110.96875 136.1875 L 114.480469 134.566406 L 115.109375 134.210938 L 115.46875 134.027344 L 115.828125 133.761719 L 116.460938 133.398438 L 117.179688 132.953125 L 118.171875 132.316406 L 119.789063 131.148438 L 120.691406 130.519531 L 121.859375 129.710938 L 122.941406 128.898438 L 123.390625 128.539063 L 124.199219 127.816406 L 124.921875 127.101563 L 126.089844 125.84375 L 127.441406 124.488281 L 129.058594 122.601563 L 129.960938 121.433594 L 130.230469 121.066406 L 131.21875 119.898438 L 133.019531 117.203125 L 133.558594 116.390625 L 134.820313 113.960938 L 135.449219 112.703125 L 136.621094 110.269531 L 137.25 108.738281 L 137.96875 106.488281 C 137.96875 106.488281 138.78125 103.519531 139.230469 101.988281 C 139.320313 101.898438 139.320313 101.722656 139.140625 101.539063 C 138.894531 101.167969 138.683594 100.777344 138.511719 100.367188 C 138.410156 100.148438 138.289063 99.9375 138.148438 99.738281 C 137.96875 99.5625 137.699219 99.203125 137.519531 99.019531 C 137.429688 98.839844 137.25 98.746094 137.070313 98.566406 C 136.710938 98.296875 136.351563 97.851563 136.078125 97.667969 C 135.898438 97.582031 135.808594 97.488281 135.628906 97.398438 C 134.691406 96.605469 133.625 95.964844 132.480469 95.511719 C 132.015625 95.289063 131.535156 95.109375 131.039063 94.972656 C 130.632813 94.808594 130.210938 94.6875 129.78125 94.609375 C 129.601563 94.507813 129.375 94.539063 129.238281 94.703125 C 129.148438 94.789063 129.148438 94.972656 129.148438 95.238281 C 129.046875 95.863281 128.984375 96.496094 128.96875 97.132813 C 128.867188 97.757813 128.804688 98.386719 128.789063 99.019531 C 128.699219 99.648438 128.699219 100.1875 128.609375 100.816406 C 128.535156 101.578125 128.414063 102.328125 128.25 103.066406 C 127.980469 104.511719 127.710938 105.953125 127.441406 107.296875 C 127.402344 107.703125 127.3125 108.097656 127.171875 108.472656 C 126.921875 109.058594 126.710938 109.65625 126.539063 110.269531 C 126.246094 111.589844 125.855469 112.882813 125.371094 114.140625 C 125.070313 115.222656 124.613281 116.246094 124.019531 117.203125 C 124.019531 117.289063 124.019531 117.289063 123.929688 117.472656 C 123.660156 118.101563 123.390625 118.730469 123.121094 119.453125 C 122.941406 119.8125 122.671875 120.167969 122.488281 120.617188 C 122.242188 121.15625 121.941406 121.671875 121.589844 122.148438 C 121.140625 122.960938 120.601563 123.683594 120.148438 124.488281 C 119.875 125.03125 119.542969 125.542969 119.160156 126.019531 C 119.070313 126.203125 118.980469 126.289063 118.890625 126.472656 C 118.640625 126.921875 118.339844 127.351563 117.988281 127.730469 C 117.359375 128.539063 116.730469 129.351563 116.101563 130.066406 C 115.648438 130.519531 115.199219 130.972656 114.75 131.417969 L 113.578125 132.589844 C 113.488281 132.769531 113.398438 132.769531 113.308594 132.859375 C 113.03125 133.019531 112.785156 133.230469 112.589844 133.488281 C 112.113281 134.011719 111.566406 134.464844 110.96875 134.839844 C 110.707031 135.023438 110.46875 135.234375 110.25 135.472656 C 109.601563 136.054688 108.875 136.535156 108.089844 136.90625 Z M 108.089844 136.90625 "/>
<path style=" stroke:none;fill-rule:nonzero;fill:rgb(62.693787%,62.693787%,63.867188%);fill-opacity:1;" d="M 139.859375 98.933594 L 139.949219 98.84375 L 139.949219 98.480469 L 140.308594 95.417969 L 140.488281 92.539063 L 140.488281 89.210938 L 140.21875 85.972656 C 140.21875 85.972656 139.769531 82.996094 139.5 81.472656 C 139.410156 80.933594 139.050781 80.746094 138.601563 80.480469 C 138.421875 80.390625 138.328125 80.300781 138.148438 80.300781 C 137.808594 80.222656 137.472656 80.101563 137.160156 79.9375 C 136.441406 79.851563 135.71875 79.488281 135 79.398438 C 134.101563 79.222656 133.199219 79.222656 132.300781 79.039063 C 131.578125 79.039063 130.859375 78.949219 130.140625 78.949219 L 128.609375 78.949219 C 128.25 78.949219 127.980469 78.949219 127.800781 79.222656 C 127.621094 79.398438 127.800781 79.761719 127.800781 80.117188 C 127.890625 80.84375 128.070313 81.199219 128.160156 81.828125 C 128.566406 83.90625 128.839844 86.015625 128.96875 88.132813 C 128.96875 89.117188 129.058594 90.019531 129.058594 91.011719 L 129.058594 91.730469 C 129.082031 91.882813 129.109375 92.03125 129.148438 92.183594 C 129.289063 92.289063 129.4375 92.382813 129.601563 92.453125 C 129.785156 92.445313 129.964844 92.480469 130.140625 92.539063 C 130.386719 92.566406 130.628906 92.628906 130.859375 92.722656 C 131.671875 92.988281 132.570313 93.261719 133.46875 93.617188 C 134.027344 93.855469 134.570313 94.121094 135.089844 94.433594 C 135.136719 94.480469 135.199219 94.515625 135.269531 94.519531 C 135.628906 94.789063 135.988281 95.0625 136.261719 95.238281 C 137.0625 95.804688 137.789063 96.472656 138.421875 97.222656 C 138.492188 97.382813 138.621094 97.511719 138.78125 97.582031 C 139.050781 97.851563 139.410156 98.566406 139.679688 98.84375 C 139.769531 98.84375 139.769531 98.933594 139.859375 98.933594 Z M 139.859375 98.933594 "/>
<path style=" stroke:none;fill-rule:nonzero;fill:rgb(62.693787%,62.693787%,63.867188%);fill-opacity:1;" d="M 118.078125 64.1875 L 118.890625 64.1875 C 119.070313 64.1875 119.25 64.1875 119.25 63.921875 C 119.339844 63.738281 119.25 63.648438 119.160156 63.472656 C 119.070313 63.289063 118.53125 62.390625 118.53125 62.390625 L 117.988281 61.488281 L 115.648438 58.246094 L 114.75 56.988281 L 114.03125 56.183594 L 112.140625 54.199219 L 111.421875 53.390625 L 108.539063 50.6875 L 106.199219 48.890625 L 105.300781 48.4375 L 102.601563 46.816406 L 100.621094 45.738281 L 100.261719 45.5625 L 98.640625 45.019531 L 96.300781 44.117188 L 96.121094 44.027344 L 95.398438 43.851563 L 94.5 43.671875 L 93.148438 43.398438 L 92.429688 43.398438 L 91.171875 43.132813 L 89.730469 43.039063 L 89.191406 42.949219 L 88.289063 42.949219 L 86.671875 43.039063 L 85.140625 43.222656 L 83.96875 43.222656 L 82.890625 43.3125 L 81.898438 43.488281 L 81 43.761719 L 79.648438 44.027344 L 79.378906 44.027344 L 78.121094 44.480469 L 77.398438 44.746094 L 76.949219 45.019531 L 75.871094 45.289063 L 75.421875 45.5625 L 74.789063 45.921875 L 73.171875 46.640625 L 71.101563 47.449219 L 70.46875 47.722656 L 69.03125 48.527344 L 67.769531 49.34375 L 66.601563 49.972656 L 66.148438 50.148438 L 64.890625 50.867188 L 64.621094 50.960938 L 63.179688 52.039063 L 62.011719 52.851563 L 61.738281 53.027344 L 60.390625 54.109375 L 59.941406 54.472656 C 59.679688 54.6875 59.4375 54.929688 59.21875 55.1875 L 59.671875 55.101563 L 60.660156 54.738281 L 60.839844 54.738281 L 62.191406 54.199219 L 62.371094 54.199219 L 63.808594 53.566406 L 64.621094 53.390625 L 65.339844 53.117188 L 66.421875 52.671875 L 69.121094 51.683594 L 69.300781 51.683594 L 70.648438 51.230469 L 71.730469 50.777344 L 71.910156 50.867188 L 73.980469 50.960938 L 75.328125 51.050781 L 75.421875 51.050781 L 78.03125 51.316406 L 81.71875 51.496094 L 81.71875 51.59375 L 83.070313 52.671875 L 83.160156 52.671875 L 84.511719 54.019531 L 84.601563 53.933594 L 86.488281 54.019531 L 86.578125 53.933594 L 91.171875 54.199219 L 91.171875 54.289063 L 93.238281 55.550781 L 93.328125 55.550781 L 96.929688 57.261719 L 96.929688 57.4375 L 99 56.632813 L 102.058594 57.617188 L 102.601563 58.519531 L 103.679688 58.519531 L 104.761719 59.6875 L 104.851563 59.6875 L 105.75 60.683594 L 105.75 60.769531 L 105.839844 60.769531 L 108.179688 61.3125 L 109.078125 62.65625 L 111.238281 63.472656 C 112.425781 63.78125 113.625 64.023438 114.839844 64.1875 C 115.914063 64.324219 117.003906 64.324219 118.078125 64.1875 Z M 118.078125 64.1875 "/>
<path style=" stroke:none;fill-rule:nonzero;fill:rgb(62.693787%,62.693787%,63.867188%);fill-opacity:1;" d="M 138.601563 78.140625 C 138.511719 77.867188 138.238281 77.148438 138.238281 77.148438 L 138.148438 76.699219 L 137.96875 76.246094 L 137.609375 75.078125 L 137.25 74.09375 L 136.078125 71.566406 L 135.539063 70.3125 L 135 68.867188 L 134.191406 67.699219 L 133.46875 66.351563 L 133.019531 65.539063 L 132.75 65.269531 L 129.511719 60.769531 L 128.96875 60.230469 C 128.964844 60.136719 128.886719 60.058594 128.789063 60.050781 C 128.789063 60.050781 127.800781 61.671875 127.351563 62.210938 C 126.898438 62.65625 126 63.472656 126 63.472656 C 126 63.472656 125.28125 64.011719 125.191406 64.101563 C 124.957031 64.265625 124.71875 64.410156 124.46875 64.550781 L 123.75 64.996094 C 123.546875 65.105469 123.335938 65.195313 123.121094 65.269531 C 122.941406 65.359375 122.851563 65.359375 122.851563 65.449219 C 122.761719 65.539063 122.761719 65.539063 122.761719 65.722656 C 122.761719 65.898438 122.851563 65.898438 122.851563 65.988281 C 123.113281 66.664063 123.414063 67.324219 123.75 67.972656 C 124.261719 68.890625 124.683594 69.855469 125.011719 70.851563 C 125.144531 71.144531 125.265625 71.441406 125.371094 71.746094 C 125.640625 72.648438 126 73.460938 126.179688 74.269531 C 126.269531 74.722656 126.449219 74.988281 126.539063 75.4375 C 126.628906 75.800781 126.71875 76.246094 126.808594 76.519531 C 126.898438 76.789063 126.988281 76.972656 127.351563 76.882813 L 128.070313 76.882813 C 128.96875 76.882813 129.78125 76.789063 130.679688 76.789063 C 130.949219 76.789063 132.75 76.972656 132.75 76.972656 C 132.75 76.972656 133.289063 77.0625 133.648438 77.148438 C 134.371094 77.238281 135 77.421875 135.71875 77.511719 C 136.273438 77.648438 136.8125 77.828125 137.339844 78.050781 L 138.148438 78.316406 C 138.246094 78.335938 138.335938 78.363281 138.421875 78.40625 C 138.601563 78.316406 138.601563 78.230469 138.601563 78.140625 Z M 138.601563 78.140625 "/>
<path style=" stroke:none;fill-rule:nonzero;fill:rgb(62.693787%,62.693787%,63.867188%);fill-opacity:1;" d="M 126.988281 58.519531 C 126.921875 58.355469 126.828125 58.210938 126.71875 58.066406 L 126.539063 57.800781 L 126.089844 57.171875 L 125.820313 56.722656 L 125.191406 56.183594 C 125.109375 56.105469 125.019531 56.046875 124.921875 55.996094 C 123.839844 55.1875 121.769531 53.480469 121.769531 53.480469 L 121.230469 53.027344 L 120.148438 52.039063 L 114.75 48.800781 L 110.429688 46.816406 L 108.089844 45.921875 L 107.28125 45.648438 L 104.488281 44.65625 L 102.511719 44.117188 L 100.621094 43.761719 L 100.351563 43.761719 L 100.171875 43.9375 C 100.171875 43.9375 100.351563 44.117188 100.441406 44.117188 C 101.070313 44.300781 101.699219 44.566406 102.238281 44.746094 C 102.691406 44.933594 103.050781 45.109375 103.5 45.289063 C 103.777344 45.3125 104.035156 45.441406 104.21875 45.648438 C 105.121094 46.101563 106.019531 46.640625 107.011719 47.183594 C 107.558594 47.519531 108.070313 47.910156 108.539063 48.351563 L 109.621094 49.15625 C 109.820313 49.28125 110.003906 49.4375 110.160156 49.609375 C 110.25 49.699219 110.339844 49.789063 110.429688 49.789063 C 110.96875 50.238281 111.601563 50.6875 112.050781 51.140625 C 112.511719 51.722656 113.023438 52.265625 113.578125 52.761719 C 114.121094 53.300781 114.570313 53.746094 115.019531 54.289063 C 115.382813 54.765625 115.773438 55.214844 116.191406 55.640625 C 117 56.449219 117.539063 57.351563 118.351563 58.15625 C 118.441406 58.246094 118.441406 58.34375 118.53125 58.519531 C 118.957031 59.273438 119.4375 59.992188 119.96875 60.683594 C 120.378906 61.152344 120.742188 61.664063 121.050781 62.210938 C 121.195313 62.558594 121.375 62.890625 121.589844 63.199219 C 121.769531 63.289063 121.949219 63.472656 122.039063 63.472656 C 122.175781 63.449219 122.304688 63.390625 122.398438 63.289063 L 122.761719 63.199219 C 122.976563 63.097656 123.1875 62.976563 123.390625 62.84375 C 123.628906 62.773438 123.84375 62.648438 124.019531 62.480469 C 124.347656 62.273438 124.648438 62.03125 124.921875 61.761719 C 125.191406 61.488281 125.820313 60.769531 125.820313 60.769531 L 126.269531 60.230469 L 126.988281 58.972656 C 126.898438 58.972656 127.078125 58.699219 126.988281 58.519531 Z M 126.988281 58.519531 "/>
<path style=" stroke:none;fill-rule:nonzero;fill:rgb(62.693787%,62.693787%,63.867188%);fill-opacity:1;" d="M 124.738281 76.699219 C 124.46875 75.800781 124.289063 74.898438 123.929688 73.996094 C 123.699219 73.269531 123.429688 72.546875 123.121094 71.84375 C 122.941406 71.390625 122.851563 70.9375 122.671875 70.488281 C 122.578125 70.222656 122.488281 70.039063 122.398438 69.769531 C 122 68.671875 121.488281 67.613281 120.871094 66.617188 C 120.863281 66.554688 120.832031 66.484375 120.78125 66.4375 C 120.691406 66.351563 120.691406 66.261719 120.601563 66.171875 C 120.421875 66.078125 120.328125 66.171875 120.058594 66.171875 C 119.609375 66.171875 118.980469 66.261719 118.800781 66.261719 C 118.53125 66.261719 117.628906 66.351563 116.910156 66.351563 L 115.828125 66.351563 L 113.488281 65.988281 C 112.589844 65.898438 110.699219 65.449219 110.699219 65.449219 L 109.171875 64.90625 L 107.371094 64.277344 L 107.28125 64.367188 L 104.488281 64.101563 L 104.398438 64.1875 L 102.871094 63.019531 L 102.691406 63.019531 L 101.699219 62.117188 L 101.699219 61.9375 L 100.621094 61.761719 L 100.441406 61.851563 L 99.539063 61.488281 L 99.449219 61.398438 L 97.46875 61.578125 L 95.578125 60.859375 L 89.191406 61.222656 L 89.101563 61.132813 L 87.839844 61.222656 L 87.75 61.398438 L 84.601563 61.578125 L 84.511719 61.488281 L 80.011719 64.101563 L 79.921875 64.277344 L 79.738281 64.460938 L 79.648438 64.367188 L 77.398438 64.1875 L 73.171875 64.1875 L 72 64.101563 L 71.640625 63.921875 L 67.5 67.15625 L 67.5 67.246094 L 66.058594 68.421875 L 64.441406 67.609375 L 64.351563 67.699219 L 63.71875 67.519531 C 63.71875 67.519531 60.660156 68.238281 60.75 68.238281 L 57.871094 67.789063 L 57.691406 67.699219 L 57.238281 68.238281 L 56.070313 68.777344 L 56.070313 68.867188 L 53.820313 70.671875 L 50.578125 72.921875 L 46.980469 75.617188 L 45.359375 76.789063 L 45.269531 77.511719 L 44.640625 79.039063 L 44.371094 80.390625 L 43.921875 83.183594 L 43.648438 84.351563 L 43.46875 85.789063 L 43.109375 88.761719 L 42.929688 95.238281 L 43.109375 95.601563 L 43.199219 97.398438 C 43.199219 97.398438 43.199219 97.761719 43.289063 97.761719 L 51.300781 89.566406 L 53.820313 88.488281 L 56.070313 88.398438 L 57.421875 86.867188 L 57.511719 86.601563 L 57.691406 86.601563 L 61.289063 86.238281 L 61.46875 86.148438 L 63 86.148438 L 63.449219 85.609375 L 65.070313 84.617188 L 66.871094 83.453125 L 71.640625 83.453125 L 71.730469 83.539063 L 73.621094 83.722656 L 75.148438 83.453125 L 77.851563 80.746094 L 80.011719 78.683594 L 83.25 78.316406 L 83.339844 78.140625 L 83.519531 78.316406 L 85.140625 79.039063 L 85.320313 78.949219 L 86.761719 78.769531 L 86.851563 78.769531 L 88.199219 78.496094 L 88.289063 78.496094 L 89.820313 79.761719 L 89.910156 79.671875 L 92.96875 79.578125 L 93.238281 79.398438 L 95.761719 79.488281 L 95.851563 79.578125 L 96.300781 79.488281 L 96.300781 79.398438 L 97.289063 78.949219 L 97.46875 78.949219 L 98.550781 78.40625 L 98.640625 78.316406 L 99.898438 77.867188 L 99.988281 77.6875 L 103.5 76.34375 L 104.128906 76.15625 L 104.21875 76.066406 L 104.398438 76.246094 L 105.390625 76.699219 L 105.75 76.699219 L 106.828125 77.328125 L 106.921875 77.238281 L 107.191406 77.0625 L 107.28125 77.0625 L 107.820313 76.789063 L 107.820313 76.699219 L 108.628906 76.519531 L 110.699219 77.0625 L 111.148438 76.972656 L 111.511719 77.148438 L 113.039063 77.421875 L 114.480469 77.960938 L 115.289063 77.867188 L 115.648438 78.050781 L 115.828125 77.960938 C 115.828125 77.960938 118.710938 77.601563 120.148438 77.511719 C 121.140625 77.421875 122.039063 77.328125 122.941406 77.238281 C 123.480469 77.148438 124.019531 77.148438 124.558594 77.0625 C 124.738281 77.148438 124.921875 76.972656 124.738281 76.699219 Z M 124.738281 76.699219 "/>
<path style=" stroke:none;fill-rule:nonzero;fill:rgb(62.693787%,62.693787%,63.867188%);fill-opacity:1;" d="M 126.898438 91.460938 C 126.898438 91.1875 126.808594 91.101563 126.808594 90.917969 C 126.734375 90.386719 126.707031 89.84375 126.71875 89.296875 C 126.71875 89.117188 126.628906 88.851563 126.628906 88.667969 C 126.554688 87.980469 126.523438 87.289063 126.539063 86.601563 C 126.449219 85.703125 126.269531 84.890625 126.179688 83.988281 C 126.105469 83.320313 125.984375 82.660156 125.820313 82.011719 C 125.742188 81.3125 125.625 80.621094 125.460938 79.9375 C 125.28125 79.222656 125.191406 79.222656 124.46875 79.222656 C 124.378906 79.222656 124.289063 79.222656 124.289063 79.3125 C 123.996094 79.386719 123.691406 79.414063 123.390625 79.398438 C 121.949219 79.578125 120.601563 79.671875 119.25 79.851563 L 115.199219 81.289063 L 109.351563 81.109375 L 108.71875 80.84375 L 108.71875 81.019531 L 106.921875 82.277344 L 106.738281 82.277344 L 105.390625 83.539063 L 105.300781 83.722656 L 101.789063 84.167969 L 98.640625 86.6875 L 98.28125 86.6875 L 96.570313 87.683594 L 95.941406 87.769531 L 95.21875 88.3125 L 95.039063 88.222656 L 91.800781 87.953125 L 91.261719 88.582031 L 91.261719 88.667969 L 88.46875 91.816406 L 88.378906 91.996094 L 88.289063 91.996094 L 84.691406 96.046875 L 83.699219 96.046875 L 83.609375 96.140625 L 80.640625 96.683594 L 80.371094 96.683594 L 80.371094 96.859375 L 75.421875 99.5625 L 73.261719 99.289063 L 72.808594 99.472656 L 70.648438 99.289063 L 68.488281 101.632813 L 67.140625 101.898438 L 66.421875 101.898438 L 65.699219 102.167969 L 65.25 102.167969 L 65.25 102.261719 L 62.550781 104.332031 L 62.191406 104.417969 L 58.050781 107.65625 L 58.050781 107.84375 L 55.441406 114.140625 L 55.621094 114.40625 L 51.300781 114.769531 L 49.949219 116.027344 L 49.769531 116.480469 L 51.75 119.09375 L 53.101563 121.246094 L 54.359375 122.867188 L 56.339844 124.9375 L 56.339844 125.117188 C 56.429688 125.117188 56.699219 125.117188 56.699219 125.210938 L 57.871094 125.566406 L 59.308594 126.019531 C 59.308594 126.066406 59.351563 126.109375 59.398438 126.109375 L 59.488281 126.109375 L 61.921875 127.101563 L 62.101563 127.101563 L 62.191406 127.1875 L 62.460938 127.1875 L 63 127.640625 L 63.988281 127.101563 L 64.078125 127.101563 L 64.53125 126.738281 L 68.21875 127.640625 L 70.921875 126.289063 L 76.859375 125.746094 L 79.289063 121.789063 C 79.738281 121.34375 80.371094 120.710938 80.371094 120.710938 L 80.550781 120.710938 L 81.359375 119.898438 L 81.359375 119.8125 L 82.890625 118.367188 L 83.609375 117.648438 L 83.789063 117.5625 L 85.320313 116.027344 L 85.5 115.9375 L 85.320313 115.398438 L 85.949219 112.789063 L 87.300781 112.433594 L 87.390625 112.34375 L 87.75 112.246094 L 87.75 112.066406 L 89.550781 109.101563 L 89.730469 109.101563 L 90.449219 107.566406 L 91.710938 106.9375 L 91.890625 106.667969 L 92.070313 106.761719 L 92.789063 106.398438 L 92.878906 106.398438 L 94.140625 105.769531 L 94.320313 105.59375 L 98.640625 103.609375 L 99 103.609375 L 99 103.34375 L 99.179688 103.246094 L 99.628906 101.722656 L 101.070313 101.09375 L 102.601563 100.996094 L 104.039063 99.917969 L 106.199219 100.101563 L 106.378906 100.1875 L 106.46875 100.101563 L 109.441406 98.84375 L 109.441406 98.390625 L 110.070313 97.039063 L 111.511719 96.683594 L 111.601563 96.59375 L 113.488281 96.140625 L 114.300781 95.238281 L 114.390625 95.238281 L 114.839844 94.789063 L 116.191406 94.972656 L 116.191406 95.0625 L 117 95.148438 L 117.449219 95.238281 C 117.449219 95.238281 119.339844 94.34375 120.238281 93.980469 C 120.582031 93.898438 120.914063 93.777344 121.230469 93.617188 C 121.679688 93.4375 122.128906 93.351563 122.578125 93.167969 C 122.828125 93.152344 123.074219 93.09375 123.300781 92.988281 L 124.199219 92.8125 L 125.191406 92.632813 L 125.910156 92.539063 L 126.359375 92.539063 C 126.527344 92.546875 126.695313 92.480469 126.808594 92.359375 C 126.988281 92.269531 126.898438 92.09375 126.988281 91.996094 C 126.929688 91.828125 126.898438 91.644531 126.898438 91.460938 Z M 126.898438 91.460938 "/>
<path style=" stroke:none;fill-rule:nonzero;fill:rgb(62.693787%,62.693787%,63.867188%);fill-opacity:1;" d="M 126.898438 95.238281 C 126.914063 95.042969 126.847656 94.851563 126.71875 94.703125 C 126.621094 94.605469 126.496094 94.539063 126.359375 94.519531 C 126.269531 94.519531 125.730469 94.609375 125.730469 94.609375 L 124.921875 94.703125 C 124.738281 94.703125 124.738281 94.789063 124.648438 94.789063 C 124.128906 94.855469 123.617188 94.980469 123.121094 95.148438 C 122.558594 95.261719 122.015625 95.441406 121.5 95.6875 C 120.875 95.902344 120.273438 96.179688 119.699219 96.496094 C 119.519531 96.59375 117.628906 97.488281 116.820313 97.9375 L 115.648438 99.109375 L 115.648438 99.289063 L 114.75 99.289063 L 114.75 99.382813 L 112.5 100.101563 L 112.5 100.367188 L 112.230469 100.546875 L 112.230469 100.730469 L 111.148438 102.617188 L 110.96875 102.617188 L 110.96875 102.796875 C 110.96875 102.796875 110.789063 103.066406 110.519531 103.519531 L 105.839844 106.488281 L 105.75 106.488281 L 104.941406 107.117188 L 104.488281 109.101563 L 104.039063 109.546875 L 102.148438 116.390625 L 102.421875 117.203125 L 99.71875 118.460938 L 99.269531 118.460938 L 98.730469 120.796875 L 98.640625 120.890625 L 97.921875 123.046875 L 98.011719 123.140625 L 97.738281 124.9375 L 97.648438 125.117188 L 97.738281 125.296875 L 95.039063 129.4375 L 94.859375 129.4375 L 94.230469 130.519531 L 94.230469 130.703125 L 91.980469 133.851563 L 89.640625 135.289063 L 89.730469 135.472656 L 89.640625 136.460938 L 89.820313 136.816406 L 89.550781 136.90625 L 87.839844 137.898438 L 87.660156 137.898438 L 85.140625 139.34375 L 84.871094 139.789063 L 85.769531 139.972656 L 87.390625 140.0625 L 88.558594 140.148438 L 92.339844 140.148438 L 95.851563 139.703125 L 97.921875 139.246094 L 99.539063 138.796875 L 101.25 138.351563 L 103.410156 137.453125 L 103.589844 137.359375 L 104.21875 136.996094 C 105.09375 136.542969 105.933594 136.03125 106.738281 135.472656 C 108.121094 134.496094 109.441406 133.445313 110.699219 132.316406 C 111.113281 131.921875 111.503906 131.503906 111.871094 131.0625 C 112.28125 130.691406 112.671875 130.304688 113.039063 129.890625 C 113.128906 129.796875 113.21875 129.796875 113.21875 129.617188 C 113.40625 129.359375 113.617188 129.117188 113.851563 128.898438 C 114.027344 128.742188 114.175781 128.5625 114.300781 128.359375 C 114.605469 127.980469 114.9375 127.617188 115.289063 127.277344 C 115.628906 127.046875 115.90625 126.738281 116.101563 126.382813 C 116.542969 125.8125 116.933594 125.214844 117.269531 124.582031 C 117.863281 123.808594 118.402344 122.992188 118.890625 122.148438 C 119.339844 121.246094 119.789063 120.351563 120.328125 119.453125 C 120.78125 118.730469 121.140625 117.917969 121.5 117.203125 C 122.039063 115.851563 122.671875 114.496094 123.121094 113.238281 C 123.691406 111.84375 124.144531 110.394531 124.46875 108.917969 C 124.6875 107.785156 124.988281 106.671875 125.371094 105.59375 C 125.363281 105.4375 125.394531 105.277344 125.460938 105.140625 C 125.640625 104.238281 125.730469 103.34375 125.910156 102.4375 C 126 101.632813 126.089844 100.816406 126.269531 99.917969 C 126.402344 99.355469 126.492188 98.785156 126.539063 98.210938 C 126.539063 97.398438 126.628906 96.59375 126.628906 95.777344 L 126.628906 95.511719 C 126.746094 95.445313 126.839844 95.355469 126.898438 95.238281 Z M 126.898438 95.238281 "/>
</g>
</svg>
