<?xml version="1.0" encoding="UTF-8"?>
<svg xmlns="http://www.w3.org/2000/svg" xmlns:xlink="http://www.w3.org/1999/xlink" width="211pt" height="93pt" viewBox="0 0 211 93" version="1.1">
<g id="surface1">
<path style=" stroke:none;fill-rule:nonzero;fill:rgb(100%,100%,100%);fill-opacity:1;" d="M 177.75 81.109375 L 199.621094 31.066406 L 98.28125 31.066406 L 94.050781 40.703125 L 91.078125 31.066406 L 70.828125 31.066406 C 70.828125 31.066406 57.421875 61.582031 53.550781 70.398438 C 53.941406 68.59375 54.152344 66.757813 54.179688 64.910156 L 54.179688 64.1875 C 55.621094 60.769531 67.5 33.59375 69.929688 28.097656 L 125.550781 28.097656 L 137.519531 0.738281 L 71.460938 0.738281 L 49.769531 50.417969 C 44.628906 42.386719 35.628906 37.65625 26.09375 37.980469 C 16.558594 38.308594 7.902344 43.636719 3.320313 52.011719 C -1.261719 60.378906 -1.089844 70.539063 3.769531 78.746094 C 8.628906 86.957031 17.460938 91.992188 27 92 C 35.75 92.011719 43.964844 87.78125 49.050781 80.660156 L 44.460938 91.277344 L 55.53125 91.277344 L 62.101563 76.34375 L 74.519531 76.34375 L 79.019531 91.277344 L 195.75 91.277344 L 200.160156 81.109375 Z M 66.421875 66.082031 L 69.390625 59.332031 L 71.371094 66.082031 Z M 105.210938 77.777344 L 94.140625 41.148438 L 121.320313 41.148438 C 113.21875 59.417969 108.269531 70.761719 105.210938 77.777344 Z M 147.148438 81.109375 L 134.371094 81.109375 L 151.738281 41.238281 L 164.609375 41.238281 C 155.25 62.566406 150.03125 74.453125 147.148438 81.109375 Z M 147.148438 81.109375 "/>
<path style=" stroke:none;fill-rule:nonzero;fill:rgb(5.099487%,13.330078%,25.097656%);fill-opacity:1;" d="M 1.621094 66.167969 C 1.9375 72.597656 4.667969 78.675781 9.269531 83.179688 C 14.261719 78.898438 17.261719 72.738281 17.550781 66.167969 Z M 1.621094 66.167969 "/>
<path style=" stroke:none;fill-rule:nonzero;fill:rgb(100%,64.256287%,0%);fill-opacity:1;" d="M 19.800781 66.167969 C 19.464844 73.28125 16.289063 79.964844 10.980469 84.707031 C 15.230469 88.140625 20.464844 90.132813 25.921875 90.382813 L 25.921875 66.167969 Z M 19.800781 66.167969 "/>
<path style=" stroke:none;fill-rule:nonzero;fill:rgb(5.099487%,13.330078%,25.097656%);fill-opacity:1;" d="M 1.621094 63.917969 L 17.550781 63.917969 C 17.300781 57.261719 14.304688 51.007813 9.269531 46.636719 C 4.609375 51.21875 1.875 57.394531 1.621094 63.917969 Z M 1.621094 63.917969 "/>
<path style=" stroke:none;fill-rule:nonzero;fill:rgb(100%,64.256287%,0%);fill-opacity:1;" d="M 10.980469 45.203125 C 16.375 49.957031 19.566406 56.730469 19.800781 63.917969 L 25.828125 63.917969 L 25.828125 39.4375 C 20.402344 39.777344 15.214844 41.789063 10.980469 45.203125 Z M 10.980469 45.203125 "/>
<path style=" stroke:none;fill-rule:nonzero;fill:rgb(5.099487%,13.330078%,25.097656%);fill-opacity:1;" d="M 52.378906 66.167969 L 36.449219 66.167969 C 36.738281 72.738281 39.738281 78.898438 44.730469 83.179688 C 49.296875 78.652344 52.023438 72.59375 52.378906 66.167969 Z M 52.378906 66.167969 "/>
<path style=" stroke:none;fill-rule:nonzero;fill:rgb(16.868591%,31.762695%,20.384216%);fill-opacity:1;" d="M 34.199219 66.167969 L 28.078125 66.167969 L 28.078125 90.292969 C 33.554688 90.125 38.8125 88.125 43.019531 84.617188 C 37.664063 79.945313 34.472656 73.269531 34.199219 66.167969 Z M 34.199219 66.167969 "/>
<path style=" stroke:none;fill-rule:nonzero;fill:rgb(16.868591%,31.762695%,20.384216%);fill-opacity:1;" d="M 43.019531 45.203125 C 38.757813 41.773438 33.535156 39.761719 28.078125 39.4375 L 28.078125 63.917969 L 34.199219 63.917969 C 34.433594 56.730469 37.625 49.957031 43.019531 45.203125 Z M 43.019531 45.203125 "/>
<path style=" stroke:none;fill-rule:nonzero;fill:rgb(5.099487%,13.330078%,25.097656%);fill-opacity:1;" d="M 72.449219 2.359375 L 49.949219 54.019531 C 48.585938 51.289063 46.792969 48.796875 44.640625 46.636719 C 39.621094 51.015625 36.628906 57.265625 36.359375 63.917969 L 52.378906 63.917969 L 68.671875 26.476563 L 116.371094 26.476563 L 126.898438 2.359375 Z M 72.449219 2.359375 "/>
<path style=" stroke:none;fill-rule:nonzero;fill:rgb(16.868591%,31.762695%,20.384216%);fill-opacity:1;" d="M 124.378906 26.476563 L 134.910156 2.359375 L 130.410156 2.359375 L 119.878906 26.476563 Z M 124.378906 26.476563 "/>
<path style=" stroke:none;fill-rule:nonzero;fill:rgb(5.099487%,13.330078%,25.097656%);fill-opacity:1;" d="M 80.191406 89.664063 L 99.179688 89.664063 L 82.078125 32.6875 L 71.820313 32.6875 L 46.800781 89.664063 L 54.359375 89.664063 C 54.359375 89.664063 57.148438 83.269531 60.929688 74.71875 L 75.691406 74.71875 Z M 63.988281 67.703125 C 65.878906 63.46875 67.769531 58.96875 69.660156 54.738281 L 73.621094 67.703125 Z M 63.988281 67.703125 "/>
<path style=" stroke:none;fill-rule:nonzero;fill:rgb(16.868591%,31.762695%,20.384216%);fill-opacity:1;" d="M 100.890625 83.898438 L 103.5 77.867188 L 89.820313 32.6875 L 85.320313 32.6875 Z M 100.890625 83.898438 "/>
<path style=" stroke:none;fill-rule:nonzero;fill:rgb(5.099487%,13.330078%,25.097656%);fill-opacity:1;" d="M 167.21875 82.636719 L 189.179688 32.6875 L 157.230469 32.6875 L 154.171875 39.617188 L 167.128906 39.617188 C 160.46875 54.738281 145.171875 89.566406 145.171875 89.566406 L 194.671875 89.566406 L 197.730469 82.636719 Z M 167.21875 82.636719 "/>
<path style=" stroke:none;fill-rule:nonzero;fill:rgb(16.868591%,31.762695%,20.384216%);fill-opacity:1;" d="M 133.289063 79.488281 L 153.71875 32.6875 L 149.21875 32.6875 L 128.789063 79.488281 Z M 133.289063 79.488281 "/>
<path style=" stroke:none;fill-rule:nonzero;fill:rgb(16.868591%,31.762695%,20.384216%);fill-opacity:1;" d="M 176.671875 79.488281 L 197.101563 32.6875 L 192.601563 32.6875 L 172.171875 79.488281 Z M 176.671875 79.488281 "/>
<path style=" stroke:none;fill-rule:nonzero;fill:rgb(5.099487%,13.330078%,25.097656%);fill-opacity:1;" d="M 145.800781 32.6875 L 99.269531 32.6875 L 96.210938 39.617188 L 123.75 39.617188 C 117.089844 54.738281 101.789063 89.566406 101.789063 89.566406 L 141.929688 89.566406 L 144.898438 82.636719 L 123.929688 82.636719 Z M 145.800781 32.6875 "/>
<path style=" stroke:none;fill-rule:nonzero;fill:rgb(5.099487%,13.330078%,25.097656%);fill-opacity:1;" d="M 143.371094 22.789063 L 137.519531 22.789063 L 146.519531 2.359375 L 142.109375 2.359375 L 132.75 23.417969 C 132.03125 25.039063 132.75 26.386719 134.460938 26.386719 L 143.101563 26.386719 C 144.960938 26.226563 146.601563 25.101563 147.421875 23.417969 L 156.78125 2.359375 L 152.460938 2.359375 Z M 143.371094 22.789063 "/>
<path style=" stroke:none;fill-rule:nonzero;fill:rgb(5.099487%,13.330078%,25.097656%);fill-opacity:1;" d="M 175.859375 2.359375 L 160.648438 2.359375 L 159.03125 6.046875 L 164.96875 6.046875 L 155.96875 26.476563 L 160.289063 26.476563 L 169.289063 6.046875 L 174.238281 6.046875 Z M 175.859375 2.359375 "/>
<path style=" stroke:none;fill-rule:nonzero;fill:rgb(5.099487%,13.330078%,25.097656%);fill-opacity:1;" d="M 181.980469 8.386719 L 179.371094 18.917969 L 175.230469 18.917969 Z M 186.839844 2.359375 L 182.519531 2.359375 L 166.230469 26.476563 L 170.28125 26.476563 L 172.710938 22.789063 L 178.46875 22.789063 L 177.660156 26.476563 L 181.980469 26.476563 Z M 186.839844 2.359375 "/>
<path style=" stroke:none;fill-rule:nonzero;fill:rgb(5.099487%,13.330078%,25.097656%);fill-opacity:1;" d="M 206.28125 2.359375 L 201.78125 12.527344 L 195.929688 12.527344 L 200.429688 2.359375 L 196.019531 2.359375 L 185.398438 26.476563 L 189.71875 26.476563 L 194.21875 16.21875 L 200.160156 16.21875 L 195.660156 26.476563 L 199.980469 26.476563 L 210.601563 2.359375 Z M 206.28125 2.359375 "/>
</g>
</svg>
