<?xml version="1.0" encoding="UTF-8"?>
<svg xmlns="http://www.w3.org/2000/svg" xmlns:xlink="http://www.w3.org/1999/xlink" width="180pt" height="181pt" viewBox="0 0 180 181" version="1.1">
<g id="surface1">
<path style=" stroke:none;fill-rule:nonzero;fill:rgb(54.492188%,55.271912%,55.271912%);fill-opacity:1;" d="M 89.910156 0.0898438 C 53.527344 0.109375 20.738281 22.042969 6.832031 55.664063 C -7.078125 89.28125 0.640625 127.96875 26.378906 153.683594 C 52.117188 179.398438 90.8125 187.074219 124.421875 173.136719 C 158.027344 159.195313 179.929688 126.382813 179.910156 90 C 179.914063 66.136719 170.429688 43.253906 153.546875 26.390625 C 136.664063 9.523438 113.773438 0.0625 89.910156 0.0898438 Z M 89.910156 0.0898438 "/>
<path style=" stroke:none;fill-rule:nonzero;fill:rgb(81.25%,3.921509%,17.259216%);fill-opacity:1;" d="M 176.488281 89.730469 C 176.488281 43.109375 136.710938 3.058594 90.089844 3.058594 C 43.558594 3.058594 3.238281 43.378906 3.238281 89.910156 C 3.238281 132.660156 37.171875 170.371094 78.75 176.308594 C 82.300781 176.777344 85.878906 177.015625 89.460938 177.03125 L 89.640625 177.03125 C 97.332031 177.023438 104.988281 175.992188 112.410156 173.96875 C 148.679688 163.53125 176.488281 128.609375 176.488281 89.730469 Z M 176.488281 89.730469 "/>
<path style=" stroke:none;fill-rule:nonzero;fill:rgb(100%,100%,100%);fill-opacity:1;" d="M 176.398438 85.5 L 3.328125 85.5 C 3.238281 87.03125 3.238281 88.46875 3.238281 90 C 3.25 97.769531 4.371094 105.5 6.570313 112.949219 L 173.25 112.949219 C 175.414063 105.429688 176.503906 97.644531 176.488281 89.820313 C 176.488281 88.378906 176.488281 86.941406 176.398438 85.5 Z M 176.398438 85.5 "/>
<path style=" stroke:none;fill-rule:nonzero;fill:rgb(5.099487%,13.330078%,25.097656%);fill-opacity:1;" d="M 78.75 176.308594 C 82.300781 176.777344 85.878906 177.015625 89.460938 177.03125 L 89.640625 177.03125 C 97.332031 177.023438 104.988281 175.992188 112.410156 173.96875 C 135.089844 167.488281 154.53125 151.378906 165.871094 130.679688 L 13.859375 130.679688 C 27.089844 154.621094 51.300781 172.441406 78.75 176.308594 Z M 78.75 176.308594 "/>
<path style=" stroke:none;fill-rule:nonzero;fill:rgb(100%,100%,100%);fill-opacity:1;" d="M 89.460938 22.410156 C 89.460938 22.410156 88.828125 10.261719 88.738281 9.628906 C 88.875 9.210938 89.121094 8.835938 89.460938 8.550781 C 89.011719 8.550781 87.300781 8.640625 85.5 8.730469 C 85.050781 8.820313 84.328125 8.820313 84.511719 10.621094 L 85.230469 24.121094 L 89.550781 23.851563 L 89.820313 23.761719 C 89.609375 23.339844 89.488281 22.878906 89.460938 22.410156 Z M 89.460938 22.410156 "/>
<path style=" stroke:none;fill-rule:nonzero;fill:rgb(100%,100%,100%);fill-opacity:1;" d="M 133.199219 24.839844 L 134.730469 22.050781 L 128.339844 18.359375 L 128.25 18.359375 L 124.648438 16.199219 C 124.253906 16 123.765625 16.160156 123.570313 16.558594 C 123.480469 16.738281 122.128906 19.078125 122.128906 19.078125 L 121.589844 20.160156 C 122.085938 19.65625 122.859375 19.542969 123.480469 19.890625 L 125.730469 21.148438 L 119.96875 31.230469 L 124.019531 33.570313 C 124.046875 33.070313 124.167969 32.582031 124.378906 32.128906 C 124.378906 32.128906 127.621094 26.550781 129.511719 23.308594 L 131.21875 24.300781 C 132.300781 24.929688 132.210938 26.550781 132.210938 26.550781 Z M 133.199219 24.839844 "/>
<path style=" stroke:none;fill-rule:nonzero;fill:rgb(100%,100%,100%);fill-opacity:1;" d="M 120.691406 14.488281 L 114.660156 12.417969 C 112.769531 11.699219 111.328125 11.519531 110.519531 11.878906 C 109.710938 12.148438 109.078125 13.140625 108.449219 14.851563 L 106.289063 21.148438 C 106.050781 21.761719 105.871094 22.394531 105.75 23.039063 C 105.625 23.859375 105.890625 24.695313 106.46875 25.289063 C 107.402344 26.03125 108.472656 26.582031 109.621094 26.910156 L 112.320313 27.808594 C 114.300781 28.53125 115.648438 28.710938 116.460938 28.351563 C 117.269531 28.078125 117.988281 27.089844 118.53125 25.378906 C 118.53125 25.378906 119.609375 22.410156 119.789063 21.960938 C 119.929688 21.367188 119.628906 20.761719 119.070313 20.519531 L 113.941406 18.808594 C 113.398438 18.539063 113.039063 18.988281 112.769531 19.441406 C 112.589844 19.800781 111.871094 21.960938 111.871094 21.960938 L 111.601563 22.589844 C 111.96875 22.261719 112.484375 22.15625 112.949219 22.320313 L 114.75 22.949219 C 114.480469 23.667969 114.210938 24.03125 113.851563 24.121094 C 113.238281 24.171875 112.621094 24.078125 112.050781 23.851563 C 112.050781 23.851563 111.328125 23.578125 111.148438 23.488281 C 110.746094 23.25 110.53125 22.785156 110.609375 22.320313 C 110.640625 21.917969 110.734375 21.523438 110.878906 21.148438 L 112.140625 17.640625 C 112.410156 16.738281 112.769531 16.199219 113.128906 16.109375 C 113.773438 16.050781 114.417969 16.144531 115.019531 16.378906 L 119.609375 18 C 120.421875 18.269531 120.601563 19.351563 120.601563 19.351563 L 120.960938 18.449219 L 121.769531 16.109375 C 122.039063 15.210938 121.410156 14.761719 120.691406 14.488281 Z M 120.691406 14.488281 "/>
<path style=" stroke:none;fill-rule:nonzero;fill:rgb(100%,100%,100%);fill-opacity:1;" d="M 74.789063 10.078125 C 74.789063 10.078125 76.140625 10.441406 76.410156 11.519531 L 76.410156 11.609375 L 77.21875 15.390625 L 74.160156 16.019531 C 73.621094 16.144531 73.203125 16.5625 73.078125 17.101563 L 71.820313 10.621094 L 66.601563 11.699219 C 67.246094 12.042969 67.730469 12.625 67.949219 13.320313 L 70.648438 26.550781 L 73.710938 25.917969 C 74.339844 25.828125 74.699219 25.648438 74.878906 25.199219 L 73.710938 19.890625 L 77.941406 18.988281 L 79.109375 24.839844 L 82.171875 24.210938 C 82.800781 24.03125 83.25 23.941406 83.339844 23.488281 L 80.28125 8.910156 Z M 74.789063 10.078125 "/>
<path style=" stroke:none;fill-rule:nonzero;fill:rgb(100%,100%,100%);fill-opacity:1;" d="M 139.859375 33.660156 L 137.609375 36.539063 C 136.980469 37.351563 136.441406 37.710938 136.078125 37.710938 C 135.472656 37.554688 134.914063 37.246094 134.460938 36.808594 L 134.820313 37.078125 C 134.28125 36.628906 133.921875 36.359375 133.738281 36.179688 C 133.464844 35.820313 133.394531 35.34375 133.558594 34.917969 C 133.761719 34.5625 134.003906 34.230469 134.28125 33.929688 L 136.53125 30.960938 C 137.160156 30.238281 137.609375 29.878906 137.96875 29.878906 C 138.621094 29.988281 139.21875 30.304688 139.679688 30.78125 L 139.410156 30.511719 C 139.777344 30.765625 140.109375 31.070313 140.398438 31.410156 C 140.71875 31.75 140.792969 32.253906 140.578125 32.667969 C 140.386719 33.03125 140.144531 33.367188 139.859375 33.660156 Z M 145.351563 33.570313 C 145.757813 32.8125 145.757813 31.898438 145.351563 31.140625 C 144.75 30.121094 143.917969 29.257813 142.921875 28.621094 L 140.671875 26.820313 C 139.050781 25.558594 137.878906 24.929688 136.980469 25.019531 C 136.078125 25.019531 135.089844 25.738281 134.011719 27.089844 L 129.871094 32.398438 C 129.480469 32.902344 129.148438 33.445313 128.878906 34.019531 C 128.425781 34.71875 128.359375 35.601563 128.699219 36.359375 C 129.359375 37.386719 130.214844 38.273438 131.21875 38.96875 L 133.46875 40.679688 C 135.089844 41.941406 136.261719 42.570313 137.160156 42.570313 C 138.058594 42.570313 139.050781 41.851563 140.128906 40.410156 L 144.269531 35.191406 C 144.71875 34.558594 145.078125 34.019531 145.351563 33.570313 Z M 145.351563 33.570313 "/>
<path style=" stroke:none;fill-rule:nonzero;fill:rgb(100%,100%,100%);fill-opacity:1;" d="M 67.769531 20.878906 C 66.78125 18.988281 64.710938 18.359375 62.550781 19.261719 L 60.210938 20.25 C 59.398438 20.609375 58.769531 20.519531 58.410156 20.070313 C 58.394531 19.976563 58.363281 19.882813 58.320313 19.800781 C 58.230469 19.441406 57.960938 18.808594 59.21875 18.269531 L 63.449219 16.558594 C 64.351563 16.109375 65.789063 17.101563 65.789063 17.101563 C 65.789063 17.101563 64.980469 15.03125 64.441406 13.859375 C 64.128906 13.078125 63.253906 12.679688 62.460938 12.960938 L 57.238281 15.121094 C 55.351563 15.929688 54.179688 16.648438 53.820313 17.460938 C 53.371094 18.179688 53.550781 19.441406 54.269531 21.058594 L 54.808594 22.5 C 54.898438 22.679688 55.078125 22.859375 55.171875 23.039063 C 55.640625 23.738281 56.339844 24.246094 57.148438 24.480469 C 58.367188 24.71875 59.628906 24.558594 60.75 24.03125 L 62.730469 23.21875 C 63.539063 22.859375 64.078125 22.949219 64.441406 23.398438 C 64.523438 23.539063 64.585938 23.691406 64.621094 23.851563 C 64.621094 23.851563 64.800781 24.570313 63.179688 25.289063 L 59.128906 27 C 58.339844 27.085938 57.542969 26.894531 56.878906 26.460938 C 56.878906 26.460938 57.691406 28.441406 58.230469 29.699219 C 58.542969 30.480469 59.441406 30.847656 60.210938 30.511719 L 60.570313 30.328125 L 63.449219 29.160156 L 65.429688 28.351563 C 67.320313 27.539063 68.488281 26.820313 68.851563 26.011719 C 69.300781 25.199219 69.121094 24.121094 68.398438 22.5 C 68.398438 22.5 67.949219 21.238281 67.769531 20.878906 Z M 67.769531 20.878906 "/>
<path style=" stroke:none;fill-rule:nonzero;fill:rgb(100%,100%,100%);fill-opacity:1;" d="M 155.070313 42.121094 L 154.351563 41.21875 C 154.453125 41.941406 154.222656 42.671875 153.71875 43.199219 L 149.128906 46.800781 L 152.101563 38.789063 C 152.167969 38.578125 152.132813 38.34375 152.011719 38.160156 C 151.648438 37.710938 149.761719 35.28125 149.761719 35.28125 L 148.949219 34.289063 C 148.949219 34.289063 149.128906 35.730469 148.320313 36.359375 L 137.609375 44.730469 L 139.5 47.160156 C 139.859375 47.609375 140.21875 47.96875 140.671875 47.878906 C 140.671875 47.878906 143.371094 45.71875 146.339844 43.378906 L 143.640625 50.398438 C 143.191406 51.570313 142.46875 50.851563 142.46875 50.851563 L 143.011719 51.660156 L 144.898438 54.089844 C 145.261719 54.539063 145.53125 54.898438 146.070313 54.71875 L 157.769531 45.539063 Z M 155.070313 42.121094 "/>
<path style=" stroke:none;fill-rule:nonzero;fill:rgb(100%,100%,100%);fill-opacity:1;" d="M 101.609375 9.449219 L 100.441406 9.359375 C 101.039063 9.808594 101.402344 10.503906 101.429688 11.25 L 101.429688 11.160156 L 100.800781 16.917969 L 97.109375 9.269531 C 97.015625 9.054688 96.804688 8.914063 96.570313 8.910156 C 96.03125 8.820313 92.96875 8.460938 92.96875 8.460938 L 91.710938 8.371094 C 91.710938 8.371094 92.878906 9.179688 92.699219 10.261719 L 91.261719 23.761719 L 94.320313 24.121094 C 94.949219 24.210938 95.398438 24.210938 95.578125 23.761719 C 95.578125 23.761719 96.03125 20.339844 96.390625 16.558594 L 99.539063 23.398438 C 99.988281 24.570313 99 24.660156 99 24.660156 L 99.898438 24.75 L 102.960938 25.109375 C 103.589844 25.199219 104.039063 25.199219 104.308594 24.75 L 105.929688 9.988281 Z M 101.609375 9.449219 "/>
<path style=" stroke:none;fill-rule:nonzero;fill:rgb(100%,100%,100%);fill-opacity:1;" d="M 36.898438 26.820313 L 36.449219 27.359375 L 34.019531 30.148438 L 33.929688 30.148438 C 33.660156 30.511719 33.390625 30.871094 33.480469 31.230469 L 39.601563 40.679688 L 30.960938 36 C 30.304688 35.757813 30.011719 35 30.328125 34.378906 L 29.429688 35.28125 L 27.628906 37.351563 C 27.179688 37.890625 26.910156 38.429688 27.179688 38.96875 L 33.390625 47.699219 L 24.75 43.199219 C 24.082031 42.875 23.769531 42.097656 24.03125 41.398438 L 23.128906 42.390625 L 21.058594 44.730469 L 21.058594 44.820313 C 20.585938 45.242188 20.546875 45.96875 20.96875 46.441406 L 20.96875 46.53125 L 34.46875 52.828125 L 37.621094 49.230469 C 38.027344 48.953125 38.179688 48.421875 37.980469 47.96875 L 35.371094 43.199219 L 40.589844 45.808594 L 44.011719 41.941406 C 44.363281 41.480469 44.464844 40.871094 44.28125 40.320313 L 37.171875 28.351563 C 36.851563 27.90625 36.75 27.34375 36.898438 26.820313 Z M 36.898438 26.820313 "/>
<path style=" stroke:none;fill-rule:nonzero;fill:rgb(100%,100%,100%);fill-opacity:1;" d="M 47.519531 31.050781 L 46.710938 28.800781 L 48.78125 30.148438 Z M 44.28125 22.410156 L 41.761719 24.210938 C 41.296875 24.457031 41.015625 24.945313 41.039063 25.46875 L 45.359375 38.609375 C 45.628906 39.417969 44.640625 40.949219 44.640625 40.949219 L 49.140625 37.800781 C 49.558594 37.527344 49.710938 36.992188 49.5 36.539063 L 48.871094 34.738281 L 52.289063 32.308594 L 53.640625 33.121094 C 54.101563 33.40625 54.226563 34.027344 53.910156 34.46875 L 58.859375 31.050781 Z M 44.28125 22.410156 "/>
<path style=" stroke:none;fill-rule:nonzero;fill:rgb(100%,100%,100%);fill-opacity:1;" d="M 19.53125 58.230469 L 21.511719 64.441406 L 28.078125 64.441406 L 22.769531 68.308594 L 24.839844 74.519531 L 19.53125 70.738281 L 14.21875 74.519531 L 16.199219 68.308594 L 10.890625 64.441406 L 17.460938 64.441406 Z M 19.53125 58.230469 "/>
<path style=" stroke:none;fill-rule:nonzero;fill:rgb(100%,100%,100%);fill-opacity:1;" d="M 160.199219 59.039063 L 158.21875 65.25 L 151.648438 65.25 L 156.960938 69.121094 L 154.890625 75.417969 L 160.199219 71.550781 L 165.511719 75.417969 L 163.53125 69.121094 L 168.839844 65.25 L 162.269531 65.25 Z M 160.199219 59.039063 "/>
<path style=" stroke:none;fill-rule:nonzero;fill:rgb(100%,100%,100%);fill-opacity:1;" d="M 88.109375 164.878906 L 88.738281 162.539063 L 89.640625 164.878906 Z M 90.269531 155.878906 L 87.210938 155.878906 C 86.578125 155.878906 86.21875 155.96875 85.949219 156.511719 L 81.898438 169.738281 C 81.628906 170.550781 80.011719 171.179688 80.011719 171.179688 L 85.5 171.179688 C 85.949219 171.175781 86.347656 170.886719 86.488281 170.460938 L 87.03125 168.570313 L 91.171875 168.570313 L 91.800781 170.011719 C 92.070313 171 91.261719 171.179688 91.261719 171.179688 L 97.289063 171.179688 Z M 90.269531 155.878906 "/>
<path style=" stroke:none;fill-rule:nonzero;fill:rgb(100%,100%,100%);fill-opacity:1;" d="M 106.378906 158.21875 C 106.542969 158.773438 106.574219 159.359375 106.46875 159.929688 C 106.378906 160.289063 106.199219 160.46875 105.929688 160.46875 L 103.410156 161.011719 C 102.871094 161.101563 102.421875 161.640625 102.058594 162.359375 L 101.339844 158.398438 L 105.390625 157.589844 C 105.832031 157.515625 106.261719 157.789063 106.378906 158.21875 Z M 112.230469 167.128906 L 108.988281 163.53125 C 109.621094 163.375 110.1875 163.03125 110.609375 162.539063 C 110.96875 161.910156 110.96875 160.738281 110.609375 158.941406 C 110.609375 158.941406 110.070313 155.878906 109.890625 155.429688 C 109.761719 154.691406 109.296875 154.058594 108.628906 153.71875 C 107.769531 153.535156 106.878906 153.535156 106.019531 153.71875 L 95.128906 155.789063 C 95.128906 155.789063 96.480469 156.328125 96.75 157.320313 L 99.179688 170.640625 L 102.148438 170.011719 C 102.78125 169.917969 103.230469 169.828125 103.320313 169.378906 L 102.511719 164.878906 L 104.671875 164.429688 L 108.269531 168.929688 L 113.761719 167.851563 C 113.195313 167.742188 112.671875 167.496094 112.230469 167.128906 Z M 112.230469 167.128906 "/>
<path style=" stroke:none;fill-rule:nonzero;fill:rgb(100%,100%,100%);fill-opacity:1;" d="M 121.589844 152.460938 C 121.769531 152.730469 124.378906 158.398438 124.289063 158.667969 C 124.285156 158.953125 124.105469 159.203125 123.839844 159.300781 L 119.878906 161.011719 L 117.628906 155.699219 C 117.449219 155.339844 117.089844 154.53125 116.730469 153.628906 L 120.601563 152.011719 C 120.960938 151.828125 121.320313 151.917969 121.589844 152.460938 Z M 124.46875 148.859375 C 124.15625 148.191406 123.5625 147.699219 122.851563 147.511719 C 121.976563 147.46875 121.109375 147.65625 120.328125 148.050781 L 110.070313 152.550781 C 110.070313 152.550781 111.511719 152.820313 111.960938 153.71875 L 116.730469 164.609375 C 116.847656 165.214844 116.785156 165.839844 116.550781 166.410156 L 126.449219 162.179688 C 127.800781 161.550781 128.609375 160.917969 128.878906 160.199219 C 129.058594 159.570313 128.789063 158.398438 128.160156 156.78125 L 125.191406 150.300781 C 124.828125 149.578125 124.738281 149.308594 124.46875 148.859375 Z M 124.46875 148.859375 "/>
<path style=" stroke:none;fill-rule:nonzero;fill:rgb(100%,100%,100%);fill-opacity:1;" d="M 81.808594 158.941406 L 82.441406 155.96875 C 82.441406 155.96875 71.101563 153.539063 70.921875 153.449219 C 70.019531 153.359375 69.660156 153.988281 69.390625 154.710938 L 68.941406 156.78125 L 68.761719 157.589844 C 69.25 157.222656 69.863281 157.0625 70.46875 157.140625 L 75.691406 158.308594 L 66.960938 165.691406 L 66.421875 168.121094 L 77.851563 170.640625 C 78.570313 170.820313 79.109375 170.820313 79.378906 170.101563 L 80.191406 166.320313 C 79.699219 166.765625 79.050781 166.992188 78.390625 166.949219 L 72.808594 165.78125 Z M 81.808594 158.941406 "/>
<path style=" stroke:none;fill-rule:nonzero;fill:rgb(100%,100%,100%);fill-opacity:1;" d="M 63.179688 165.601563 C 63.179688 165.601563 67.140625 153.988281 67.410156 153.539063 C 67.589844 153 68.398438 152.730469 68.398438 152.730469 C 67.949219 152.550781 66.421875 152.011719 64.710938 151.378906 C 64.261719 151.289063 63.539063 151.019531 63 152.730469 L 58.589844 165.511719 L 62.730469 166.949219 L 63.089844 166.949219 C 63.039063 166.5 63.070313 166.042969 63.179688 165.601563 Z M 63.179688 165.601563 "/>
<path style=" stroke:none;fill-rule:nonzero;fill:rgb(100%,100%,100%);fill-opacity:1;" d="M 62.460938 151.019531 L 61.828125 150.660156 L 58.769531 148.679688 C 58.441406 148.410156 58.023438 148.28125 57.601563 148.320313 L 50.851563 154.980469 L 53.28125 146.96875 C 53.460938 146.160156 54.71875 146.160156 54.71875 146.160156 L 53.640625 145.441406 L 51.390625 144 L 51.300781 144 C 50.859375 143.589844 50.199219 143.515625 49.679688 143.820313 L 42.660156 150.300781 L 45.71875 142.46875 C 45.996094 141.792969 46.71875 141.414063 47.429688 141.570313 L 46.351563 140.851563 L 43.648438 139.230469 L 43.648438 139.140625 C 43.125 138.730469 42.367188 138.808594 41.941406 139.320313 L 37.171875 153.179688 L 41.128906 155.699219 C 41.761719 156.058594 42.03125 156.148438 42.480469 155.878906 L 46.800781 152.640625 L 45 158.21875 L 49.320313 160.917969 C 49.847656 161.234375 50.503906 161.234375 51.03125 160.917969 L 61.019531 151.558594 C 61.40625 151.195313 61.925781 151 62.460938 151.019531 Z M 62.460938 151.019531 "/>
<path style=" stroke:none;fill-rule:nonzero;fill:rgb(100%,100%,100%);fill-opacity:1;" d="M 140.398438 145.53125 C 139.050781 143.910156 136.890625 143.730469 135 144.988281 L 132.839844 146.429688 C 132.121094 146.96875 131.488281 147.058594 131.039063 146.609375 L 130.949219 146.429688 C 130.769531 146.070313 130.320313 145.53125 131.488281 144.808594 L 135.269531 142.109375 C 136.078125 141.570313 137.699219 142.199219 137.699219 142.199219 C 137.699219 142.199219 136.441406 140.398438 135.628906 139.320313 C 135.160156 138.65625 134.261719 138.464844 133.558594 138.871094 L 128.878906 142.109375 C 127.171875 143.28125 126.269531 144.269531 126 145.078125 C 125.820313 145.890625 126.179688 147.058594 127.171875 148.5 L 128.070313 149.761719 C 128.25 149.941406 128.339844 150.121094 128.519531 150.300781 C 129.132813 150.867188 129.933594 151.191406 130.769531 151.199219 C 132.015625 151.242188 133.230469 150.828125 134.191406 150.03125 L 135.988281 148.859375 C 136.710938 148.320313 137.25 148.320313 137.699219 148.679688 C 137.789063 148.859375 137.878906 148.949219 137.878906 149.128906 C 137.878906 149.128906 138.328125 149.761719 136.800781 150.75 L 133.199219 153.269531 C 132.390625 153.808594 130.859375 153.179688 130.859375 153.179688 C 130.859375 153.179688 132.121094 154.980469 132.839844 156.058594 C 133.316406 156.773438 134.277344 156.972656 135 156.511719 L 135.359375 156.328125 L 137.878906 154.53125 L 139.679688 153.269531 C 141.390625 152.101563 142.289063 151.109375 142.558594 150.300781 C 142.828125 149.488281 142.378906 148.410156 141.390625 146.96875 C 141.390625 146.96875 140.578125 145.890625 140.398438 145.53125 Z M 140.398438 145.53125 "/>
<path style=" stroke:none;fill-rule:nonzero;fill:rgb(54.492188%,55.271912%,55.271912%);fill-opacity:1;" d="M 142.921875 61.289063 C 139.242188 54.472656 134.292969 48.425781 128.339844 43.46875 C 127.171875 42.570313 126 41.667969 124.828125 40.859375 C 114.671875 33.589844 102.492188 29.6875 90 29.699219 L 89.910156 29.699219 C 57.800781 29.660156 31.289063 54.785156 29.609375 86.851563 C 29.519531 87.839844 29.519531 88.917969 29.519531 89.910156 L 29.519531 90 C 29.511719 98.070313 31.132813 106.0625 34.289063 113.488281 C 34.648438 114.390625 35.011719 115.289063 35.460938 116.191406 C 38.855469 123.175781 43.523438 129.460938 49.230469 134.730469 C 50.671875 135.988281 52.199219 137.25 53.730469 138.417969 C 64.15625 146.195313 76.8125 150.394531 89.820313 150.390625 L 89.910156 150.390625 C 96.976563 150.417969 103.988281 149.167969 110.609375 146.699219 C 134.40625 138.039063 150.234375 115.410156 150.210938 90.089844 L 150.210938 90 C 150.242188 81.964844 148.648438 74.003906 145.53125 66.601563 C 144.75 64.785156 143.878906 63.015625 142.921875 61.289063 Z M 142.921875 61.289063 "/>
<path style=" stroke:none;fill-rule:nonzero;fill:rgb(100%,100%,100%);fill-opacity:1;" d="M 144 67.230469 C 143.300781 65.46875 142.488281 63.757813 141.570313 62.101563 C 137.980469 55.429688 133.117188 49.53125 127.261719 44.730469 C 126.179688 43.828125 125.101563 43.019531 123.929688 42.210938 C 114.03125 35.136719 102.167969 31.328125 90 31.320313 L 89.910156 31.320313 C 58.664063 31.292969 32.875 55.738281 31.230469 86.941406 C 31.140625 87.929688 31.140625 88.917969 31.140625 89.910156 L 31.140625 90 C 31.113281 97.851563 32.675781 105.628906 35.730469 112.859375 C 36.089844 113.761719 36.539063 114.660156 36.898438 115.46875 C 40.203125 122.253906 44.753906 128.363281 50.308594 133.46875 C 51.71875 134.746094 53.1875 135.945313 54.71875 137.070313 C 64.828125 144.699219 77.15625 148.808594 89.820313 148.769531 L 89.910156 148.769531 C 96.78125 148.769531 103.601563 147.582031 110.070313 145.261719 C 133.214844 136.777344 148.601563 114.742188 148.589844 90.089844 L 148.589844 90 C 148.609375 82.179688 147.046875 74.433594 144 67.230469 Z M 144 67.230469 "/>
<path style=" stroke:none;fill-rule:nonzero;fill:rgb(5.099487%,13.330078%,25.097656%);fill-opacity:1;" d="M 78.929688 63.089844 L 80.28125 58.140625 L 80.550781 56.96875 L 74.339844 53.460938 C 74.339844 53.460938 70.648438 50.941406 62.550781 55.710938 C 53.011719 61.289063 45.179688 68.578125 41.21875 76.320313 C 38.769531 80.964844 37.097656 85.984375 36.269531 91.167969 C 36.535156 101.402344 39.753906 111.34375 45.539063 119.789063 C 43.921875 104.488281 58.679688 87.75 70.199219 76.320313 C 73.945313 72.519531 76.910156 68.027344 78.929688 63.089844 Z M 78.929688 63.089844 "/>
<path style=" stroke:none;fill-rule:nonzero;fill:rgb(5.099487%,13.330078%,25.097656%);fill-opacity:1;" d="M 117.269531 55.710938 C 109.171875 50.941406 105.480469 53.460938 105.480469 53.460938 L 99.269531 56.96875 L 99.539063 58.140625 L 100.890625 63.089844 C 102.910156 68.027344 105.875 72.519531 109.621094 76.320313 C 121.140625 87.75 135.808594 104.398438 134.371094 119.609375 C 140.15625 111.039063 143.3125 100.96875 143.460938 90.628906 C 142.609375 85.632813 140.96875 80.800781 138.601563 76.320313 C 134.640625 68.578125 126.808594 61.289063 117.269531 55.710938 Z M 117.269531 55.710938 "/>
<path style=" stroke:none;fill-rule:nonzero;fill:rgb(81.25%,3.921509%,17.259216%);fill-opacity:1;" d="M 97.648438 46.53125 C 119.070313 48.960938 133.199219 61.109375 140.488281 71.910156 C 134.925781 56.300781 122.523438 44.101563 106.828125 38.789063 C 103.410156 39.871094 99.539063 42.03125 97.648438 46.53125 Z M 97.648438 46.53125 "/>
<path style=" stroke:none;fill-rule:nonzero;fill:rgb(81.25%,3.921509%,17.259216%);fill-opacity:1;" d="M 82.171875 46.53125 C 80.28125 41.941406 76.410156 39.871094 72.898438 38.789063 C 57.105469 44.121094 44.652344 56.441406 39.148438 72.179688 C 48.996094 57.695313 64.746094 48.304688 82.171875 46.53125 Z M 82.171875 46.53125 "/>
<path style=" stroke:none;fill-rule:nonzero;fill:rgb(81.25%,3.921509%,17.259216%);fill-opacity:1;" d="M 85.679688 45.898438 L 89.910156 39.691406 L 94.140625 45.898438 C 95.851563 41.308594 98.550781 38.699219 101.25 37.261719 C 93.769531 35.699219 86.050781 35.699219 78.570313 37.261719 C 81.269531 38.699219 83.96875 41.21875 85.679688 45.898438 Z M 85.679688 45.898438 "/>
<path style=" stroke:none;fill-rule:nonzero;fill:rgb(5.099487%,13.330078%,25.097656%);fill-opacity:1;" d="M 89.910156 64.078125 C 89.28125 64.53125 69.480469 78.839844 60.75 92.878906 C 49.050781 111.960938 50.578125 122.941406 53.640625 129.148438 C 61.359375 136.316406 71.042969 141.019531 81.449219 142.648438 L 85.949219 77.667969 L 89.820313 73.800781 L 89.910156 73.800781 L 93.78125 77.667969 L 98.371094 142.558594 L 98.28125 142.648438 C 108.75 140.988281 118.488281 136.257813 126.269531 129.058594 C 129.328125 122.761719 130.679688 111.78125 119.070313 92.878906 C 110.339844 78.839844 90.539063 64.53125 89.910156 64.078125 Z M 89.910156 64.078125 "/>
<path style=" stroke:none;fill-rule:nonzero;fill:rgb(54.492188%,55.271912%,55.271912%);fill-opacity:1;" d="M 93.78125 77.667969 L 89.910156 73.800781 L 90 147.328125 L 98.28125 142.648438 L 98.371094 142.558594 Z M 93.78125 77.667969 "/>
<path style=" stroke:none;fill-rule:nonzero;fill:rgb(54.492188%,55.271912%,55.271912%);fill-opacity:1;" d="M 101.339844 50.308594 C 99.015625 49.90625 96.671875 49.636719 94.320313 49.5 L 92.609375 49.410156 L 92.609375 49.320313 L 92.519531 49.230469 L 91.890625 47.878906 L 91.800781 47.789063 L 89.910156 43.828125 L 89.28125 45.089844 L 88.019531 47.609375 L 88.019531 47.789063 L 87.929688 47.878906 L 87.300781 49.230469 L 87.210938 49.320313 L 87.210938 49.410156 L 85.5 49.5 C 83.148438 49.636719 80.800781 49.90625 78.480469 50.308594 C 77.449219 50.46875 76.429688 50.679688 75.421875 50.941406 L 78.660156 52.648438 L 81.988281 54.449219 L 82.980469 54.988281 L 83.96875 55.53125 L 83.339844 57.78125 L 83.339844 57.871094 L 83.070313 58.949219 L 81.269531 65.609375 L 85.410156 62.460938 L 88.199219 60.390625 L 89.011719 59.761719 L 89.910156 59.21875 L 90.71875 59.761719 L 91.621094 60.390625 L 98.550781 65.609375 L 96.75 58.949219 L 96.570313 58.320313 L 96.480469 57.78125 L 95.851563 55.53125 L 96.480469 55.167969 L 97.828125 54.449219 L 102.328125 52.019531 L 104.398438 50.941406 C 103.390625 50.679688 102.371094 50.46875 101.339844 50.308594 Z M 101.339844 50.308594 "/>
</g>
</svg>
